<svg width="1081" height="759" viewBox="0 0 1081 759" fill="none" xmlns="http://www.w3.org/2000/svg">
<rect y="50" width="1081" height="709" fill="#020202"/>
<path d="M10.1344 14.0727L0 12.2791V50H1081V27.7937H1070.87C1060.73 27.7937 1041.03 27.7937 1020.76 22.6819C1001.05 17.4805 980.782 7.16738 961.077 2.86276C940.808 -1.44185 921.102 0.262058 900.833 1.15885C880.565 1.96597 860.859 1.96597 840.59 3.66988C820.884 5.46347 800.616 8.87129 780.91 14.8798C760.641 20.8883 740.935 29.4976 720.667 28.6904C700.398 27.7937 680.692 17.4805 660.423 18.3773C640.718 19.1844 620.449 31.2912 600.743 28.6904C580.474 26.0897 560.769 8.87129 540.5 2.86276C520.231 -3.14576 500.526 1.96597 480.257 4.56667C460.551 7.16738 440.282 7.16738 420.577 9.76808C400.308 12.2791 380.602 17.4805 360.333 20.8883C340.065 24.3858 320.359 26.0897 300.09 27.7937L299.538 27.8414C280.006 29.5307 259.932 31.2669 240.41 28.6904C220.141 26.0897 200.435 19.1844 180.167 12.2791C159.898 5.46347 140.192 -1.44185 119.923 0.262058C100.218 1.96597 79.949 12.2791 60.2432 15.7766C39.9745 19.1844 20.2687 15.7766 10.1344 14.0727Z" fill="#020202"/>
</svg>
