<svg width="442" height="421" viewBox="0 0 442 421" fill="none" xmlns="http://www.w3.org/2000/svg">
<path d="M73.7401 376.43L27.2901 372.39C14.8201 371.31 -0.619901 380.37 1.5201 397.49C3.0001 409.42 9.3701 419.32 23.2301 419.53C51.7601 419.95 74.8201 406.68 74.5901 404.36C74.3601 402.03 73.7301 376.44 73.7301 376.44L73.7401 376.43Z" fill="#AD8E6F" stroke="black" stroke-width="2.63" stroke-linecap="round" stroke-linejoin="round"/>
<path d="M25.9902 395.84C25.9902 395.84 242.77 400.45 354.09 407.4C359.48 407.94 368.35 407.03 368.75 397.77C368.75 397.62 368.76 397.48 368.77 397.34C369.11 388.32 359.11 368.15 346.88 368.64C124.11 377.65 23.9802 371.97 23.9702 372.41C37.5902 372.81 37.5402 390.73 26.0002 395.85L25.9902 395.84Z" fill="#FFE9C7" stroke="black" stroke-width="2.63" stroke-linecap="round" stroke-linejoin="round"/>
<path d="M410.12 114.76C410.12 114.76 400.96 113.61 400.94 113.61L409.72 110.41L409.48 92.6499L397.92 89.4299L408.75 84.4099C408.75 84.4099 406.89 30.3299 406.85 30.3299C322.34 30.1399 219.73 29.8599 114.56 29.6199C113.42 14.9199 72.8899 1.35989 59.8199 1.33989C46.4999 1.30989 34.3199 15.5299 34.5299 40.6699C34.5299 41.2099 34.7899 45.5399 34.9099 65.2899C34.9099 66.3699 46.1899 67.2999 46.1899 68.4599C46.1899 69.8099 34.9399 71.3899 34.9499 72.8299C35.0599 101.09 41.0399 159.86 41.0399 159.86C41.0399 159.86 46.4499 165.02 54.9599 165.04L40.8199 172.37C40.8199 172.37 42.9099 304.94 41.6199 353.69C41.5899 354.84 59.2599 357.33 59.2799 357.33C59.2799 357.33 42.4999 360.83 42.6699 361.79C46.5099 383.12 45.0299 418.11 28.6499 419.54C118.81 411.13 239.98 414.37 374.33 414.37C416.86 414.37 413.83 367.37 413.85 357.59C413.9 332.51 410.13 114.78 410.13 114.78L410.12 114.76Z" fill="#FFE9C7" stroke="black" stroke-width="2.63" stroke-linecap="round" stroke-linejoin="round"/>
<path d="M97.55 20.1099L55.98 22.7799C55.98 22.7799 51.85 48.1499 72.2 48.4299C92.54 48.7099 98.4 40.2199 98.23 38.6699C98.06 37.1199 97.55 20.1099 97.55 20.1099V20.1099Z" fill="#AD8E6F" stroke="black" stroke-width="2.63" stroke-linecap="round" stroke-linejoin="round"/>
<path d="M72.1899 48.4299C72.1899 48.4299 303.97 39.0499 423.55 48.5299C429.34 49.2699 439.11 40.2899 439.86 27.3499C439.87 27.1499 439.88 26.9399 439.89 26.7399C440.57 14.1399 430.06 4.13989 416.88 4.85989C176.79 17.8999 60.1499 0.729886 60.1099 1.32989C74.7599 1.85989 87.7899 11.3599 87.5799 26.7199C87.4699 34.9499 83.0399 45.2099 72.1799 48.4399L72.1899 48.4299Z" fill="#FFE9C7" stroke="black" stroke-width="2.63" stroke-linecap="round" stroke-linejoin="round"/>
<g style="mix-blend-mode:color-dodge" opacity="0.49">
<path d="M416.89 4.86999C201.36 16.57 92.1399 3.92999 64.8199 1.64999C63.8499 1.58999 63.0299 1.52999 62.3599 1.48999C67.0499 1.95999 71.5099 3.34999 75.3299 5.56999C80.3699 7.50999 84.5399 10.14 83.8799 13.56C110.66 16.03 112.13 12.68 179 15.22C258.54 18.24 397.4 16.62 436.16 13.78C432.05 8.01999 424.97 4.41999 416.88 4.85999L416.89 4.86999Z" fill="#FFF5E3"/>
</g>
<g style="mix-blend-mode:multiply" opacity="0.3">
<path d="M383.28 365.06C383.99 367.35 387.1 367.98 390.66 366.26C392.1 365.56 393.45 364.65 394.81 363.79C394.94 363.72 395.07 363.65 395.21 363.59C398.56 362.01 401.24 358.36 400.56 356.13C399.85 353.81 396.75 353.24 393.18 354.93C391.73 355.62 390.37 356.54 389 357.42C388.88 357.48 388.76 357.55 388.63 357.61C385.29 359.22 382.59 362.82 383.28 365.07V365.06Z" fill="#C4A062"/>
</g>
<g style="mix-blend-mode:multiply" opacity="0.3">
<path d="M386.22 338.27C384.66 339.91 384.66 341.76 386.42 342.48C387.13 342.77 387.99 342.9 388.81 343.05C388.88 343.07 388.95 343.1 389.01 343.13C390.64 343.82 393.67 343.03 395.18 341.43C396.75 339.77 396.72 337.96 394.98 337.22C394.27 336.92 393.41 336.8 392.58 336.64C392.52 336.62 392.45 336.6 392.39 336.57C390.74 335.89 387.74 336.66 386.22 338.27Z" fill="#C4A062"/>
</g>
<path d="M158.77 295.39C158.77 295.55 158.72 295.71 158.66 295.85L153.32 312.88C153.19 313.31 152.86 313.58 152.35 313.58C151.84 313.58 151.54 313.31 151.38 312.88L145.82 297.98L140.29 312.88C140.13 313.31 139.8 313.58 139.32 313.58C138.81 313.58 138.48 313.31 138.32 312.88L133 295.85C132.95 295.72 132.89 295.55 132.89 295.39C132.89 294.93 133.3 294.5 133.81 294.5C134.22 294.5 134.59 294.77 134.7 295.09L139.37 310.42L144.98 295.12C145.14 294.69 145.44 294.5 145.82 294.5C146.23 294.5 146.52 294.69 146.68 295.12L152.29 310.42L156.96 295.09C157.04 294.77 157.42 294.5 157.85 294.5C158.36 294.5 158.77 294.93 158.77 295.39V295.39Z" fill="black"/>
<path d="M161.18 294.87C161.18 294.36 161.61 293.93 162.13 293.93C162.65 293.93 163.07 294.36 163.07 294.87C163.07 295.38 162.64 295.81 162.13 295.81C161.62 295.81 161.18 295.38 161.18 294.87ZM163.04 300.3V312.69C163.04 313.2 162.63 313.63 162.12 313.63C161.61 313.63 161.2 313.2 161.2 312.69V300.3C161.2 299.79 161.61 299.36 162.12 299.36C162.63 299.36 163.04 299.79 163.04 300.3Z" fill="black"/>
<path d="M178.1 310.47C178.1 310.79 177.88 311.01 177.69 311.25C176.5 312.82 174.69 313.6 172.7 313.6C169.54 313.6 165.74 311.22 165.74 306.45C165.74 301.68 169.55 299.27 172.7 299.27C174.7 299.27 176.51 300.05 177.69 301.62C177.88 301.86 178.1 302.08 178.1 302.4C178.1 302.86 177.72 303.16 177.29 303.16C176.97 303.16 176.67 302.97 176.45 302.67C175.61 301.48 174.13 300.89 172.78 300.89C170.32 300.89 167.57 302.7 167.57 306.45C167.57 310.2 170.32 311.98 172.78 311.98C174.13 311.98 175.61 311.39 176.45 310.2C176.67 309.9 176.96 309.71 177.29 309.71C177.72 309.71 178.1 310.01 178.1 310.47Z" fill="black"/>
<path d="M192.45 312.8C192.45 313.26 192.1 313.61 191.64 313.61C191.4 313.61 191.18 313.53 191.02 313.37L184.89 307L182.6 309.32V312.67C182.6 313.16 182.19 313.61 181.68 313.61C181.17 313.61 180.76 313.15 180.76 312.67V295.12C180.76 294.63 181.17 294.2 181.68 294.2C182.19 294.2 182.6 294.63 182.6 295.12V307.05L189.81 299.63C189.97 299.47 190.22 299.36 190.43 299.36C190.92 299.36 191.29 299.74 191.29 300.2C191.29 300.44 191.18 300.63 191.05 300.79L186.06 305.84L192.19 312.18C192.38 312.37 192.46 312.59 192.46 312.8H192.45Z" fill="black"/>
<path d="M144.63 341.19C144.87 341.6 144.98 341.86 144.98 342.13C144.98 342.56 144.68 342.91 144.2 342.91C143.77 342.91 143.53 342.67 143.31 342.37C142.55 341.07 141.42 340.08 139.34 340.08C137.05 340.08 135.51 341.21 135.51 343.1C135.51 344.75 136.67 345.72 138.59 346.47L140.29 347.14C143.53 348.44 145.8 349.57 145.8 352.46C145.8 355.83 142.51 357.64 139.4 357.64C136.89 357.64 134.35 356.45 133.3 354.27C133.19 354.05 133.03 353.78 133.03 353.49C133.03 353 133.33 352.63 133.84 352.63C134.3 352.63 134.6 352.9 134.78 353.25C135.64 354.98 137.34 355.92 139.42 355.92C141.61 355.92 143.9 354.92 143.9 352.46C143.9 350.33 142.17 349.63 140.04 348.79L138.15 348.03C135.53 347 133.64 345.6 133.64 343.12C133.64 340.26 136.18 338.37 139.31 338.37C141.9 338.37 143.68 339.72 144.63 341.18V341.19Z" fill="black"/>
<path d="M161.52 350.13C161.52 350.83 161.09 351.18 160.33 351.18H149.8C150.02 354.5 152.58 356.04 155.04 356.04C156.34 356.04 157.52 355.64 158.44 354.88C158.79 354.61 159.01 354.48 159.25 354.48C159.71 354.48 159.98 354.8 159.98 355.21C159.98 355.45 159.87 355.7 159.47 356.07C158.34 357.1 156.69 357.61 154.99 357.61C151.59 357.61 147.92 355.32 147.92 350.46C147.92 345.6 151.7 343.28 154.78 343.28C157.86 343.28 161.53 345.68 161.53 350.14L161.52 350.13ZM149.81 349.7H159.74C159.52 346.41 156.96 344.9 154.77 344.9C152.58 344.9 150.05 346.41 149.8 349.7H149.81Z" fill="black"/>
<path d="M175.92 354.47C175.92 354.79 175.7 355.01 175.51 355.25C174.32 356.82 172.51 357.6 170.52 357.6C167.36 357.6 163.56 355.22 163.56 350.45C163.56 345.68 167.37 343.27 170.52 343.27C172.52 343.27 174.33 344.05 175.51 345.62C175.7 345.86 175.92 346.08 175.92 346.4C175.92 346.86 175.54 347.16 175.11 347.16C174.79 347.16 174.49 346.97 174.27 346.67C173.43 345.48 171.95 344.89 170.6 344.89C168.14 344.89 165.39 346.7 165.39 350.45C165.39 354.2 168.14 355.98 170.6 355.98C171.95 355.98 173.43 355.39 174.27 354.2C174.49 353.9 174.78 353.71 175.11 353.71C175.54 353.71 175.92 354.01 175.92 354.47Z" fill="black"/>
<path d="M178.41 351.78V344.33C178.41 343.84 178.82 343.39 179.33 343.39C179.84 343.39 180.25 343.85 180.25 344.33V351.78C180.25 354.91 182.17 356.04 184.16 356.04C187.02 356.04 188.59 353.69 188.88 351.91V344.33C188.88 343.84 189.29 343.39 189.8 343.39C190.31 343.39 190.72 343.85 190.72 344.33V356.69C190.72 357.2 190.31 357.63 189.8 357.63C189.29 357.63 188.88 357.2 188.88 356.69V354.26C188.72 355.15 187.02 357.69 183.72 357.69C181.21 357.69 178.4 356.23 178.4 351.78H178.41Z" fill="black"/>
<path d="M202.02 344.19C202.02 344.73 201.56 345.08 200.78 345.08C198.11 345.08 196.27 347.21 195.98 349.08V356.66C195.98 357.17 195.57 357.6 195.06 357.6C194.55 357.6 194.14 357.17 194.14 356.66V344.3C194.14 343.79 194.55 343.36 195.06 343.36C195.57 343.36 195.98 343.79 195.98 344.3V346.73C196.14 345.84 197.92 343.3 200.92 343.3C201.62 343.3 202.03 343.68 202.03 344.19H202.02Z" fill="black"/>
<path d="M204.16 338.87C204.16 338.36 204.59 337.93 205.11 337.93C205.63 337.93 206.05 338.36 206.05 338.87C206.05 339.38 205.62 339.81 205.11 339.81C204.6 339.81 204.16 339.38 204.16 338.87ZM206.02 344.3V356.69C206.02 357.2 205.61 357.63 205.1 357.63C204.59 357.63 204.18 357.2 204.18 356.69V344.3C204.18 343.79 204.59 343.36 205.1 343.36C205.61 343.36 206.02 343.79 206.02 344.3Z" fill="black"/>
<path d="M215.06 356.44C215.06 357.33 213.71 357.6 212.68 357.6C211.38 357.6 210.14 357.11 210.14 354.93V345H208.82C208.36 345 208.04 344.7 208.04 344.22C208.04 343.74 208.36 343.44 208.82 343.44H210.14V340.98C210.14 340.47 210.54 340.06 211.06 340.06C211.58 340.06 211.98 340.46 211.98 340.98V343.44H214.25C214.71 343.44 215.06 343.74 215.06 344.22C215.06 344.7 214.71 345 214.25 345H211.98V354.83C211.98 355.69 212.36 356.02 213.06 356.02C213.49 356.02 213.84 355.91 214.14 355.83C214.65 355.67 215.06 355.99 215.06 356.45V356.44Z" fill="black"/>
<path d="M229.57 344.22C229.57 344.38 229.52 344.49 229.46 344.6L221.96 362.15C221.8 362.55 221.45 362.74 221.1 362.74C220.61 362.74 220.29 362.34 220.29 361.88C220.29 361.72 220.34 361.61 220.37 361.5L222.29 357.02L216.89 344.6C216.86 344.49 216.81 344.38 216.81 344.22C216.81 343.76 217.19 343.36 217.67 343.36C218.02 343.36 218.37 343.55 218.53 343.95L223.17 354.91L227.84 343.95C228 343.55 228.33 343.36 228.7 343.36C229.16 343.36 229.56 343.76 229.56 344.22H229.57Z" fill="black"/>
<path d="M86.3702 300.03C88.1802 299.35 96.7202 309.48 96.7202 309.48C97.0702 310.28 110.12 291.04 110.12 291.04C110.82 289.99 112.61 290.6 112.43 291.83C111.43 298.47 107.42 306.51 97.5802 316.82C96.6702 317.78 88.5802 312.07 86.0202 304.48C85.4602 302.81 84.6502 300.68 86.3802 300.02L86.3702 300.03Z" fill="#766EDB"/>
<path d="M86.3702 343.88C88.1802 343.2 96.7202 353.33 96.7202 353.33C97.0702 354.13 110.12 334.89 110.12 334.89C110.82 333.84 112.61 334.45 112.43 335.68C111.43 342.32 107.42 350.36 97.5802 360.67C96.6702 361.63 88.5802 355.92 86.0202 348.33C85.4602 346.66 84.6502 344.53 86.3802 343.87L86.3702 343.88Z" fill="#766EDB"/>
<path d="M98.6401 159.8C98.6401 163.15 96.2401 165.25 92.3401 165.25H88.5701V171.15C88.5701 171.63 88.1701 172.03 87.6901 172.03C87.1901 172.03 86.8101 171.63 86.8101 171.15V155.35C86.8101 154.8 87.2101 154.43 87.7601 154.43H92.3301C96.2301 154.43 98.6301 156.65 98.6301 159.8H98.6401ZM96.9401 159.8C96.9401 157.38 95.1901 155.95 92.2901 155.95H88.5701V163.75H92.2901C95.1901 163.75 96.9401 162.45 96.9401 159.8V159.8Z" fill="black"/>
<path d="M108.14 159.62C108.14 160.12 107.71 160.44 106.99 160.44C104.52 160.44 102.82 162.41 102.54 164.14V171.16C102.54 171.64 102.16 172.04 101.69 172.04C101.22 172.04 100.84 171.64 100.84 171.16V159.71C100.84 159.24 101.22 158.84 101.69 158.84C102.16 158.84 102.54 159.24 102.54 159.71V161.96C102.69 161.14 104.34 158.79 107.11 158.79C107.76 158.79 108.14 159.14 108.14 159.61V159.62Z" fill="black"/>
<path d="M121.43 165.12C121.43 165.77 121.03 166.09 120.33 166.09H110.58C110.78 169.16 113.15 170.59 115.43 170.59C116.63 170.59 117.73 170.21 118.58 169.52C118.9 169.27 119.11 169.14 119.33 169.14C119.75 169.14 120 169.44 120 169.81C120 170.04 119.9 170.26 119.53 170.61C118.48 171.56 116.96 172.03 115.38 172.03C112.23 172.03 108.83 169.91 108.83 165.41C108.83 160.91 112.33 158.76 115.18 158.76C118.03 158.76 121.43 160.98 121.43 165.11V165.12ZM110.58 164.72H119.78C119.58 161.67 117.21 160.27 115.18 160.27C113.15 160.27 110.8 161.67 110.58 164.72V164.72Z" fill="black"/>
<path d="M134.12 159.65C134.12 159.8 134.07 159.9 134.04 160L129.14 171.32C128.94 171.72 128.74 171.97 128.29 171.97C127.84 171.97 127.62 171.72 127.44 171.32L122.52 160C122.49 159.9 122.45 159.8 122.45 159.65C122.45 159.23 122.8 158.85 123.25 158.85C123.58 158.85 123.9 159.02 124.05 159.4L128.3 169.42L132.52 159.4C132.67 159.02 132.99 158.85 133.32 158.85C133.77 158.85 134.12 159.23 134.12 159.65V159.65Z" fill="black"/>
<path d="M147.71 165.12C147.71 165.77 147.31 166.09 146.61 166.09H136.86C137.06 169.16 139.43 170.59 141.71 170.59C142.91 170.59 144.01 170.21 144.86 169.52C145.18 169.27 145.39 169.14 145.61 169.14C146.03 169.14 146.28 169.44 146.28 169.81C146.28 170.04 146.18 170.26 145.81 170.61C144.76 171.56 143.24 172.03 141.66 172.03C138.51 172.03 135.11 169.91 135.11 165.41C135.11 160.91 138.61 158.76 141.46 158.76C144.31 158.76 147.71 160.98 147.71 165.11V165.12ZM136.86 164.72H146.06C145.86 161.67 143.49 160.27 141.46 160.27C139.43 160.27 137.08 161.67 136.86 164.72Z" fill="black"/>
<path d="M161.53 164.27V171.17C161.53 171.62 161.15 172.05 160.68 172.05C160.21 172.05 159.83 171.63 159.83 171.17V164.27C159.83 161.37 158.06 160.32 156.21 160.32C153.56 160.32 152.11 162.49 151.83 164.14V171.16C151.83 171.61 151.45 172.04 150.98 172.04C150.51 172.04 150.13 171.62 150.13 171.16V159.71C150.13 159.24 150.51 158.84 150.98 158.84C151.45 158.84 151.83 159.24 151.83 159.71V161.96C151.98 161.14 153.55 158.79 156.6 158.79C158.93 158.79 161.52 160.14 161.52 164.26L161.53 164.27Z" fill="black"/>
<path d="M169.73 170.97C169.73 171.79 168.48 172.04 167.53 172.04C166.33 172.04 165.18 171.59 165.18 169.57V160.37H163.96C163.54 160.37 163.24 160.1 163.24 159.65C163.24 159.2 163.54 158.92 163.96 158.92H165.18V156.65C165.18 156.18 165.56 155.8 166.03 155.8C166.5 155.8 166.88 156.18 166.88 156.65V158.92H168.98C169.41 158.92 169.73 159.2 169.73 159.65C169.73 160.1 169.41 160.37 168.98 160.37H166.88V169.47C166.88 170.27 167.23 170.57 167.88 170.57C168.28 170.57 168.61 170.47 168.88 170.4C169.35 170.25 169.73 170.55 169.73 170.97Z" fill="black"/>
<path d="M185.93 159.62C185.93 160.12 185.51 160.44 184.78 160.44C182.31 160.44 180.61 162.41 180.33 164.14V171.16C180.33 171.64 179.95 172.04 179.48 172.04C179.01 172.04 178.63 171.64 178.63 171.16V159.71C178.63 159.24 179.01 158.84 179.48 158.84C179.95 158.84 180.33 159.24 180.33 159.71V161.96C180.48 161.14 182.13 158.79 184.9 158.79C185.55 158.79 185.92 159.14 185.92 159.61L185.93 159.62Z" fill="black"/>
<path d="M197.49 161.55V159.73C197.49 159.26 197.89 158.86 198.34 158.86C198.84 158.86 199.22 159.26 199.22 159.73V171.2C199.22 171.65 198.82 172.07 198.34 172.07C197.89 172.07 197.49 171.65 197.49 171.2V169.1C196.77 170.9 194.94 172.1 192.84 172.1C190.04 172.1 186.64 169.93 186.64 165.43C186.64 160.93 190.04 158.78 192.84 158.78C194.76 158.78 196.64 159.73 197.49 161.55V161.55ZM197.59 165.42C197.59 161.82 195.14 160.27 193.02 160.27C190.9 160.27 188.35 161.92 188.35 165.42C188.35 168.92 190.9 170.59 193.02 170.59C195.14 170.59 197.59 168.94 197.59 165.42Z" fill="black"/>
<path d="M214.98 165.42C214.98 169.92 211.58 172.09 208.78 172.09C206.68 172.09 204.86 170.89 204.13 169.09V171.19C204.13 171.26 204.13 171.31 204.1 171.39V175.91C204.1 176.36 203.72 176.76 203.25 176.76C202.78 176.76 202.4 176.36 202.4 175.91V159.71C202.4 159.24 202.78 158.84 203.27 158.84C203.72 158.84 204.12 159.24 204.12 159.71V161.53C204.97 159.71 206.84 158.76 208.77 158.76C211.57 158.76 214.97 160.96 214.97 165.41L214.98 165.42ZM213.28 165.42C213.28 161.92 210.73 160.27 208.61 160.27C206.49 160.27 204.04 161.82 204.04 165.42C204.04 169.02 206.49 170.59 208.61 170.59C210.73 170.59 213.28 168.94 213.28 165.42Z" fill="black"/>
<path d="M217.51 154.7C217.51 154.22 217.91 153.82 218.39 153.82C218.87 153.82 219.27 154.22 219.27 154.7C219.27 155.18 218.87 155.57 218.39 155.57C217.91 155.57 217.51 155.17 217.51 154.7ZM219.23 159.72V171.19C219.23 171.66 218.85 172.06 218.38 172.06C217.91 172.06 217.53 171.66 217.53 171.19V159.72C217.53 159.25 217.91 158.85 218.38 158.85C218.85 158.85 219.23 159.25 219.23 159.72Z" fill="black"/>
<path d="M234.32 154.95V171.2C234.32 171.65 233.92 172.07 233.44 172.07C232.99 172.07 232.59 171.65 232.59 171.2V169.1C231.87 170.9 230.04 172.1 227.94 172.1C225.14 172.1 221.74 169.93 221.74 165.43C221.74 160.93 225.14 158.78 227.94 158.78C229.86 158.78 231.74 159.73 232.59 161.55V159.73C232.59 159.66 232.59 159.58 232.62 159.53V154.96C232.62 154.48 233 154.08 233.47 154.08C233.92 154.08 234.32 154.48 234.32 154.96V154.95ZM232.7 165.42C232.7 161.82 230.25 160.27 228.13 160.27C226.01 160.27 223.46 161.92 223.46 165.42C223.46 168.92 226.01 170.59 228.13 170.59C230.25 170.59 232.7 168.94 232.7 165.42Z" fill="black"/>
<path d="M97.7698 199.14C97.7698 199.44 97.5698 199.64 97.3898 199.87C96.2898 201.32 94.6198 202.04 92.7698 202.04C89.8398 202.04 86.3198 199.84 86.3198 195.42C86.3198 191 89.8398 188.77 92.7698 188.77C94.6198 188.77 96.2898 189.5 97.3898 190.94C97.5698 191.16 97.7698 191.36 97.7698 191.66C97.7698 192.08 97.4198 192.36 97.0198 192.36C96.7198 192.36 96.4498 192.19 96.2398 191.91C95.4698 190.81 94.0898 190.26 92.8398 190.26C90.5698 190.26 88.0198 191.93 88.0198 195.41C88.0198 198.89 90.5698 200.53 92.8398 200.53C94.0898 200.53 95.4598 199.98 96.2398 198.88C96.4398 198.61 96.7198 198.43 97.0198 198.43C97.4198 198.43 97.7698 198.7 97.7698 199.13V199.14Z" fill="black"/>
<path d="M107.55 189.62C107.55 190.12 107.13 190.44 106.4 190.44C103.93 190.44 102.23 192.41 101.95 194.14V201.16C101.95 201.64 101.57 202.04 101.1 202.04C100.63 202.04 100.25 201.64 100.25 201.16V189.71C100.25 189.24 100.63 188.84 101.1 188.84C101.57 188.84 101.95 189.24 101.95 189.71V191.96C102.1 191.14 103.75 188.79 106.52 188.79C107.17 188.79 107.54 189.14 107.54 189.61L107.55 189.62Z" fill="black"/>
<path d="M120.84 195.12C120.84 195.77 120.44 196.09 119.74 196.09H109.99C110.19 199.16 112.56 200.59 114.84 200.59C116.04 200.59 117.14 200.21 117.99 199.52C118.31 199.27 118.52 199.14 118.74 199.14C119.16 199.14 119.41 199.44 119.41 199.81C119.41 200.04 119.31 200.26 118.94 200.61C117.89 201.56 116.37 202.03 114.79 202.03C111.64 202.03 108.24 199.91 108.24 195.41C108.24 190.91 111.74 188.76 114.59 188.76C117.44 188.76 120.84 190.98 120.84 195.11V195.12ZM109.99 194.72H119.19C118.99 191.67 116.62 190.27 114.59 190.27C112.56 190.27 110.21 191.67 109.99 194.72V194.72Z" fill="black"/>
<path d="M133.58 191.55V189.73C133.58 189.26 133.98 188.86 134.43 188.86C134.93 188.86 135.3 189.26 135.3 189.73V201.2C135.3 201.65 134.9 202.07 134.43 202.07C133.96 202.07 133.58 201.65 133.58 201.2V199.1C132.86 200.9 131.03 202.1 128.93 202.1C126.13 202.1 122.73 199.93 122.73 195.43C122.73 190.93 126.13 188.78 128.93 188.78C130.86 188.78 132.73 189.73 133.58 191.55V191.55ZM133.68 195.42C133.68 191.82 131.23 190.27 129.11 190.27C126.99 190.27 124.44 191.92 124.44 195.42C124.44 198.92 126.99 200.59 129.11 200.59C131.23 200.59 133.68 198.94 133.68 195.42Z" fill="black"/>
<path d="M143.71 200.97C143.71 201.79 142.46 202.04 141.51 202.04C140.31 202.04 139.16 201.59 139.16 199.57V190.37H137.94C137.51 190.37 137.22 190.1 137.22 189.65C137.22 189.2 137.52 188.92 137.94 188.92H139.16V186.65C139.16 186.18 139.54 185.8 140.01 185.8C140.48 185.8 140.86 186.18 140.86 186.65V188.92H142.96C143.39 188.92 143.71 189.2 143.71 189.65C143.71 190.1 143.39 190.37 142.96 190.37H140.86V199.47C140.86 200.27 141.21 200.57 141.86 200.57C142.26 200.57 142.58 200.47 142.86 200.4C143.33 200.25 143.71 200.55 143.71 200.97Z" fill="black"/>
<path d="M157.29 195.12C157.29 195.77 156.89 196.09 156.19 196.09H146.44C146.64 199.16 149.01 200.59 151.29 200.59C152.49 200.59 153.59 200.21 154.44 199.52C154.77 199.27 154.97 199.14 155.19 199.14C155.62 199.14 155.87 199.44 155.87 199.81C155.87 200.04 155.77 200.26 155.4 200.61C154.35 201.56 152.83 202.03 151.25 202.03C148.1 202.03 144.7 199.91 144.7 195.41C144.7 190.91 148.2 188.76 151.05 188.76C153.9 188.76 157.3 190.98 157.3 195.11L157.29 195.12ZM146.44 194.72H155.64C155.44 191.67 153.07 190.27 151.04 190.27C149.01 190.27 146.67 191.67 146.44 194.72Z" fill="black"/>
<path d="M167.23 184.3L159.28 204.74C159.18 205.01 158.88 205.26 158.53 205.26C157.98 205.26 157.61 204.66 157.81 204.16L165.76 183.72C165.86 183.44 166.16 183.2 166.51 183.2C167.06 183.2 167.44 183.8 167.23 184.3Z" fill="black"/>
<path d="M179.98 184.95V201.2C179.98 201.65 179.58 202.07 179.1 202.07C178.65 202.07 178.25 201.65 178.25 201.2V199.1C177.53 200.9 175.7 202.1 173.6 202.1C170.8 202.1 167.4 199.93 167.4 195.43C167.4 190.93 170.8 188.78 173.6 188.78C175.52 188.78 177.4 189.73 178.25 191.55V189.73C178.25 189.66 178.25 189.58 178.28 189.53V184.96C178.28 184.48 178.66 184.08 179.13 184.08C179.58 184.08 179.98 184.48 179.98 184.96V184.95ZM178.36 195.42C178.36 191.82 175.91 190.27 173.79 190.27C171.67 190.27 169.12 191.92 169.12 195.42C169.12 198.92 171.67 200.59 173.79 200.59C175.91 200.59 178.36 198.94 178.36 195.42Z" fill="black"/>
<path d="M195.15 195.12C195.15 195.77 194.75 196.09 194.05 196.09H184.3C184.5 199.16 186.87 200.59 189.15 200.59C190.35 200.59 191.45 200.21 192.3 199.52C192.63 199.27 192.83 199.14 193.05 199.14C193.48 199.14 193.73 199.44 193.73 199.81C193.73 200.04 193.63 200.26 193.26 200.61C192.21 201.56 190.69 202.03 189.11 202.03C185.96 202.03 182.56 199.91 182.56 195.41C182.56 190.91 186.06 188.76 188.91 188.76C191.76 188.76 195.16 190.98 195.16 195.11L195.15 195.12ZM184.3 194.72H193.5C193.3 191.67 190.93 190.27 188.9 190.27C186.87 190.27 184.53 191.67 184.3 194.72Z" fill="black"/>
<path d="M198.43 202.04C197.96 202.04 197.58 201.62 197.58 201.16V184.91C197.58 184.46 197.96 184.06 198.43 184.06C198.9 184.06 199.28 184.46 199.28 184.91V201.16C199.28 201.61 198.9 202.04 198.43 202.04Z" fill="black"/>
<path d="M214.41 195.12C214.41 195.77 214.01 196.09 213.31 196.09H203.56C203.76 199.16 206.13 200.59 208.41 200.59C209.61 200.59 210.71 200.21 211.56 199.52C211.89 199.27 212.09 199.14 212.31 199.14C212.74 199.14 212.99 199.44 212.99 199.81C212.99 200.04 212.89 200.26 212.52 200.61C211.47 201.56 209.95 202.03 208.37 202.03C205.22 202.03 201.82 199.91 201.82 195.41C201.82 190.91 205.32 188.76 208.17 188.76C211.02 188.76 214.42 190.98 214.42 195.11L214.41 195.12ZM203.56 194.72H212.76C212.56 191.67 210.19 190.27 208.16 190.27C206.13 190.27 203.79 191.67 203.56 194.72Z" fill="black"/>
<path d="M221.89 200.97C221.89 201.79 220.64 202.04 219.69 202.04C218.49 202.04 217.34 201.59 217.34 199.57V190.37H216.12C215.69 190.37 215.4 190.1 215.4 189.65C215.4 189.2 215.7 188.92 216.12 188.92H217.34V186.65C217.34 186.18 217.72 185.8 218.19 185.8C218.66 185.8 219.04 186.18 219.04 186.65V188.92H221.14C221.57 188.92 221.89 189.2 221.89 189.65C221.89 190.1 221.57 190.37 221.14 190.37H219.04V199.47C219.04 200.27 219.39 200.57 220.04 200.57C220.44 200.57 220.76 200.47 221.04 200.4C221.51 200.25 221.89 200.55 221.89 200.97Z" fill="black"/>
<path d="M235.47 195.12C235.47 195.77 235.07 196.09 234.37 196.09H224.62C224.82 199.16 227.19 200.59 229.47 200.59C230.67 200.59 231.77 200.21 232.62 199.52C232.94 199.27 233.15 199.14 233.37 199.14C233.79 199.14 234.04 199.44 234.04 199.81C234.04 200.04 233.94 200.26 233.57 200.61C232.52 201.56 231 202.03 229.42 202.03C226.27 202.03 222.87 199.91 222.87 195.41C222.87 190.91 226.37 188.76 229.22 188.76C232.07 188.76 235.47 190.98 235.47 195.11V195.12ZM224.62 194.72H233.82C233.62 191.67 231.25 190.27 229.22 190.27C227.19 190.27 224.84 191.67 224.62 194.72Z" fill="black"/>
<path d="M257.05 195.42C257.05 199.89 253.48 202.09 250.58 202.09C247.68 202.09 244.13 199.89 244.13 195.42C244.13 190.95 247.7 188.77 250.58 188.77C253.46 188.77 257.05 190.97 257.05 195.42ZM245.83 195.42C245.83 198.92 248.4 200.59 250.58 200.59C252.76 200.59 255.35 198.92 255.35 195.42C255.35 191.92 252.78 190.27 250.58 190.27C248.38 190.27 245.83 191.94 245.83 195.42Z" fill="black"/>
<path d="M266.92 185.27C266.92 185.65 266.62 185.94 266.27 185.94C266.05 185.94 265.77 185.84 265.49 185.69C265.14 185.47 264.62 185.24 263.87 185.24C262.44 185.24 261.62 186.12 261.62 187.94V188.91H264.77C265.2 188.91 265.52 189.19 265.52 189.64C265.52 190.09 265.2 190.36 264.77 190.36H261.62V201.18C261.62 201.63 261.24 202.05 260.77 202.05C260.3 202.05 259.92 201.63 259.92 201.18V190.36H258.99C258.57 190.36 258.27 190.09 258.27 189.64C258.27 189.19 258.57 188.91 258.99 188.91H259.92V187.89C259.92 184.64 262.04 183.74 263.77 183.74C264.92 183.74 265.87 184.11 266.55 184.61C266.75 184.76 266.93 184.99 266.93 185.26L266.92 185.27Z" fill="black"/>
<path d="M104.84 219.65C104.84 219.8 104.79 219.9 104.76 220.03L100.96 231.33C100.81 231.73 100.54 231.98 100.16 231.98C99.8101 231.98 99.5101 231.73 99.3601 231.33L95.4601 221.51L91.5601 231.33C91.4101 231.73 91.1101 231.98 90.7601 231.98C90.4101 231.98 90.1101 231.73 89.9601 231.33L86.1601 220.03C86.1101 219.91 86.0601 219.8 86.0601 219.65C86.0601 219.23 86.4401 218.85 86.8601 218.85C87.1801 218.85 87.5301 219.05 87.6301 219.33L90.8501 229.3L94.6501 219.4C94.7701 219.05 95.0801 218.85 95.4501 218.85C95.8001 218.85 96.1001 219.05 96.2201 219.4L100.04 229.3L103.24 219.33C103.34 219.03 103.69 218.85 104.02 218.85C104.45 218.85 104.82 219.23 104.82 219.65H104.84Z" fill="black"/>
<path d="M118.65 225.12C118.65 225.77 118.25 226.09 117.55 226.09H107.8C108 229.16 110.37 230.59 112.65 230.59C113.85 230.59 114.95 230.21 115.8 229.52C116.13 229.27 116.33 229.14 116.55 229.14C116.98 229.14 117.23 229.44 117.23 229.81C117.23 230.04 117.13 230.26 116.76 230.61C115.71 231.56 114.19 232.03 112.61 232.03C109.46 232.03 106.06 229.91 106.06 225.41C106.06 220.91 109.56 218.76 112.41 218.76C115.26 218.76 118.66 220.98 118.66 225.11L118.65 225.12ZM107.8 224.72H117C116.8 221.67 114.43 220.27 112.4 220.27C110.37 220.27 108.03 221.67 107.8 224.72V224.72Z" fill="black"/>
<path d="M133.65 225.42C133.65 229.92 130.25 232.09 127.45 232.09C125.35 232.09 123.53 230.89 122.8 229.09V231.19C122.8 231.64 122.4 232.06 121.95 232.06C121.48 232.06 121.07 231.64 121.07 231.19V214.94C121.07 214.46 121.47 214.06 121.92 214.06C122.39 214.06 122.77 214.46 122.77 214.94V219.51C122.77 219.51 122.8 219.63 122.8 219.71V221.53C123.65 219.71 125.52 218.76 127.45 218.76C130.25 218.76 133.65 220.96 133.65 225.41V225.42ZM131.95 225.42C131.95 221.92 129.4 220.27 127.28 220.27C125.16 220.27 122.71 221.82 122.71 225.42C122.71 229.02 125.16 230.59 127.28 230.59C129.4 230.59 131.95 228.94 131.95 225.42V225.42Z" fill="black"/>
<path d="M147.63 224.27V231.17C147.63 231.62 147.25 232.05 146.78 232.05C146.31 232.05 145.93 231.63 145.93 231.17V224.27C145.93 221.37 144.15 220.32 142.31 220.32C139.66 220.32 138.21 222.49 137.94 224.14V231.16C137.94 231.61 137.56 232.04 137.09 232.04C136.62 232.04 136.24 231.62 136.24 231.16V214.91C136.24 214.46 136.62 214.06 137.09 214.06C137.56 214.06 137.94 214.46 137.94 214.91V221.96C138.09 221.14 139.66 218.79 142.71 218.79C145.03 218.79 147.63 220.14 147.63 224.26V224.27Z" fill="black"/>
<path d="M163.03 225.42C163.03 229.89 159.46 232.09 156.56 232.09C153.66 232.09 150.11 229.89 150.11 225.42C150.11 220.95 153.68 218.77 156.56 218.77C159.44 218.77 163.03 220.97 163.03 225.42ZM151.81 225.42C151.81 228.92 154.38 230.59 156.56 230.59C158.74 230.59 161.33 228.92 161.33 225.42C161.33 221.92 158.76 220.27 156.56 220.27C154.36 220.27 151.81 221.94 151.81 225.42Z" fill="black"/>
<path d="M177.85 225.42C177.85 229.89 174.28 232.09 171.38 232.09C168.48 232.09 164.93 229.89 164.93 225.42C164.93 220.95 168.5 218.77 171.38 218.77C174.26 218.77 177.85 220.97 177.85 225.42ZM166.63 225.42C166.63 228.92 169.2 230.59 171.38 230.59C173.56 230.59 176.15 228.92 176.15 225.42C176.15 221.92 173.58 220.27 171.38 220.27C169.18 220.27 166.63 221.94 166.63 225.42Z" fill="black"/>
<path d="M191.25 231.29C191.25 231.71 190.92 232.04 190.5 232.04C190.28 232.04 190.07 231.96 189.92 231.81L184.25 225.91L182.13 228.06V231.16C182.13 231.61 181.75 232.04 181.28 232.04C180.81 232.04 180.43 231.62 180.43 231.16V214.91C180.43 214.46 180.81 214.06 181.28 214.06C181.75 214.06 182.13 214.46 182.13 214.91V225.96L188.8 219.09C188.95 218.94 189.17 218.84 189.37 218.84C189.82 218.84 190.17 219.19 190.17 219.61C190.17 219.83 190.07 220.01 189.95 220.16L185.33 224.83L191 230.7C191.17 230.87 191.25 231.08 191.25 231.27V231.29Z" fill="black"/>
<path d="M201.45 220.87C201.6 221.12 201.67 221.32 201.67 221.54C201.67 221.96 201.35 222.24 200.95 222.24C200.63 222.24 200.4 222.07 200.1 221.62C199.6 220.87 198.7 220.22 197.25 220.22C195.58 220.22 194.58 221.07 194.58 222.29C194.58 223.24 195.23 223.96 196.8 224.36L198.4 224.79C200.72 225.36 202.2 226.31 202.2 228.26C202.2 230.71 199.85 232.03 197.25 232.03C195.18 232.03 193.38 231.11 192.8 229.78C192.7 229.58 192.5 229.3 192.5 228.93C192.5 228.48 192.77 228.16 193.2 228.16C193.6 228.16 193.8 228.39 193.98 228.76C194.5 230.01 195.8 230.53 197.25 230.53C199 230.53 200.52 229.83 200.52 228.36C200.52 227.19 199.6 226.64 198.25 226.29L196.25 225.77C193.93 225.17 192.9 223.9 192.9 222.32C192.9 220.22 194.78 218.77 197.28 218.77C199.2 218.77 200.68 219.6 201.45 220.87V220.87Z" fill="black"/>
<path d="M203.68 234.47L205.13 230.47C205.28 230 205.56 229.82 205.96 229.82H206.68C207.15 229.82 207.25 230.09 207.03 230.55L205.06 234.65C204.88 235.03 204.61 235.13 204.26 235.13H204.11C203.71 235.13 203.53 234.86 203.68 234.48V234.47Z" fill="black"/>
<path d="M227.11 229.14C227.11 229.44 226.91 229.64 226.73 229.87C225.63 231.32 223.96 232.04 222.11 232.04C219.18 232.04 215.66 229.84 215.66 225.42C215.66 221 219.18 218.77 222.11 218.77C223.96 218.77 225.63 219.5 226.73 220.94C226.91 221.16 227.11 221.36 227.11 221.66C227.11 222.08 226.76 222.36 226.36 222.36C226.06 222.36 225.79 222.19 225.58 221.91C224.81 220.81 223.43 220.26 222.18 220.26C219.91 220.26 217.36 221.93 217.36 225.41C217.36 228.89 219.91 230.53 222.18 230.53C223.43 230.53 224.8 229.98 225.58 228.88C225.78 228.61 226.06 228.43 226.36 228.43C226.76 228.43 227.11 228.7 227.11 229.13V229.14Z" fill="black"/>
<path d="M240.99 224.27V231.17C240.99 231.62 240.61 232.05 240.14 232.05C239.67 232.05 239.29 231.63 239.29 231.17V224.27C239.29 221.37 237.51 220.32 235.67 220.32C233.02 220.32 231.57 222.49 231.3 224.14V231.16C231.3 231.61 230.92 232.04 230.45 232.04C229.98 232.04 229.6 231.62 229.6 231.16V214.91C229.6 214.46 229.98 214.06 230.45 214.06C230.92 214.06 231.3 214.46 231.3 214.91V221.96C231.45 221.14 233.02 218.79 236.07 218.79C238.39 218.79 240.99 220.14 240.99 224.26V224.27Z" fill="black"/>
<path d="M254.31 221.55V219.73C254.31 219.26 254.71 218.86 255.16 218.86C255.66 218.86 256.03 219.26 256.03 219.73V231.2C256.03 231.65 255.63 232.07 255.16 232.07C254.69 232.07 254.31 231.65 254.31 231.2V229.1C253.59 230.9 251.76 232.1 249.66 232.1C246.86 232.1 243.46 229.93 243.46 225.43C243.46 220.93 246.86 218.78 249.66 218.78C251.59 218.78 253.46 219.73 254.31 221.55V221.55ZM254.41 225.42C254.41 221.82 251.96 220.27 249.84 220.27C247.72 220.27 245.17 221.92 245.17 225.42C245.17 228.92 247.72 230.59 249.84 230.59C251.96 230.59 254.41 228.94 254.41 225.42Z" fill="black"/>
<path d="M270.63 224.27V231.17C270.63 231.62 270.25 232.05 269.78 232.05C269.31 232.05 268.93 231.63 268.93 231.17V224.27C268.93 221.37 267.16 220.32 265.31 220.32C262.66 220.32 261.21 222.49 260.93 224.14V231.16C260.93 231.61 260.55 232.04 260.08 232.04C259.61 232.04 259.23 231.62 259.23 231.16V219.71C259.23 219.24 259.61 218.84 260.08 218.84C260.55 218.84 260.93 219.24 260.93 219.71V221.96C261.08 221.14 262.65 218.79 265.7 218.79C268.03 218.79 270.62 220.14 270.62 224.26L270.63 224.27Z" fill="black"/>
<path d="M285.16 224.27V231.17C285.16 231.62 284.78 232.05 284.31 232.05C283.84 232.05 283.46 231.63 283.46 231.17V224.27C283.46 221.37 281.69 220.32 279.84 220.32C277.19 220.32 275.74 222.49 275.46 224.14V231.16C275.46 231.61 275.08 232.04 274.61 232.04C274.14 232.04 273.76 231.62 273.76 231.16V219.71C273.76 219.24 274.14 218.84 274.61 218.84C275.08 218.84 275.46 219.24 275.46 219.71V221.96C275.61 221.14 277.18 218.79 280.23 218.79C282.56 218.79 285.15 220.14 285.15 224.26L285.16 224.27Z" fill="black"/>
<path d="M300.24 225.12C300.24 225.77 299.84 226.09 299.14 226.09H289.39C289.59 229.16 291.96 230.59 294.24 230.59C295.44 230.59 296.54 230.21 297.39 229.52C297.72 229.27 297.92 229.14 298.14 229.14C298.57 229.14 298.82 229.44 298.82 229.81C298.82 230.04 298.72 230.26 298.35 230.61C297.3 231.56 295.78 232.03 294.2 232.03C291.05 232.03 287.65 229.91 287.65 225.41C287.65 220.91 291.15 218.76 294 218.76C296.85 218.76 300.25 220.98 300.25 225.11L300.24 225.12ZM289.39 224.72H298.59C298.39 221.67 296.02 220.27 293.99 220.27C291.96 220.27 289.62 221.67 289.39 224.72V224.72Z" fill="black"/>
<path d="M303.53 232.04C303.06 232.04 302.68 231.62 302.68 231.16V214.91C302.68 214.46 303.06 214.06 303.53 214.06C304 214.06 304.38 214.46 304.38 214.91V231.16C304.38 231.61 304 232.04 303.53 232.04Z" fill="black"/>
<path d="M315.75 220.87C315.9 221.12 315.98 221.32 315.98 221.54C315.98 221.96 315.65 222.24 315.25 222.24C314.93 222.24 314.7 222.07 314.4 221.62C313.9 220.87 313 220.22 311.55 220.22C309.87 220.22 308.87 221.07 308.87 222.29C308.87 223.24 309.52 223.96 311.09 224.36L312.69 224.79C315.01 225.36 316.49 226.31 316.49 228.26C316.49 230.71 314.14 232.03 311.54 232.03C309.46 232.03 307.66 231.11 307.09 229.78C306.99 229.58 306.79 229.3 306.79 228.93C306.79 228.48 307.07 228.16 307.49 228.16C307.89 228.16 308.09 228.39 308.27 228.76C308.8 230.01 310.09 230.53 311.55 230.53C313.3 230.53 314.82 229.83 314.82 228.36C314.82 227.19 313.89 226.64 312.54 226.29L310.54 225.77C308.22 225.17 307.19 223.9 307.19 222.32C307.19 220.22 309.07 218.77 311.56 218.77C313.49 218.77 314.96 219.6 315.73 220.87H315.75Z" fill="black"/>
<path d="M317.99 234.47L319.44 230.47C319.59 230 319.87 229.82 320.27 229.82H320.99C321.46 229.82 321.56 230.09 321.34 230.55L319.37 234.65C319.19 235.03 318.92 235.13 318.57 235.13H318.42C318.02 235.13 317.84 234.86 317.99 234.48V234.47Z" fill="black"/>
<path d="M94.1198 249.62C94.1198 250.12 93.6898 250.44 92.9698 250.44C90.4998 250.44 88.7998 252.41 88.5198 254.14V261.16C88.5198 261.64 88.1398 262.04 87.6698 262.04C87.1998 262.04 86.8198 261.64 86.8198 261.16V249.71C86.8198 249.24 87.1998 248.84 87.6698 248.84C88.1398 248.84 88.5198 249.24 88.5198 249.71V251.96C88.6698 251.14 90.3198 248.79 93.0898 248.79C93.7398 248.79 94.1198 249.14 94.1198 249.61V249.62Z" fill="black"/>
<path d="M107.72 255.42C107.72 259.89 104.15 262.09 101.25 262.09C98.3503 262.09 94.8003 259.89 94.8003 255.42C94.8003 250.95 98.3703 248.77 101.25 248.77C104.13 248.77 107.72 250.97 107.72 255.42ZM96.5003 255.42C96.5003 258.92 99.0703 260.59 101.25 260.59C103.43 260.59 106.02 258.92 106.02 255.42C106.02 251.92 103.45 250.27 101.25 250.27C99.0503 250.27 96.5003 251.94 96.5003 255.42Z" fill="black"/>
<path d="M111.14 262.04C110.67 262.04 110.29 261.62 110.29 261.16V244.91C110.29 244.46 110.67 244.06 111.14 244.06C111.61 244.06 111.99 244.46 111.99 244.91V261.16C111.99 261.61 111.61 262.04 111.14 262.04Z" fill="black"/>
<path d="M127.13 255.12C127.13 255.77 126.73 256.09 126.03 256.09H116.28C116.48 259.16 118.85 260.59 121.13 260.59C122.33 260.59 123.43 260.21 124.28 259.52C124.6 259.27 124.81 259.14 125.03 259.14C125.45 259.14 125.7 259.44 125.7 259.81C125.7 260.04 125.6 260.26 125.23 260.61C124.18 261.56 122.66 262.03 121.08 262.03C117.93 262.03 114.53 259.91 114.53 255.41C114.53 250.91 118.03 248.76 120.88 248.76C123.73 248.76 127.13 250.98 127.13 255.11V255.12ZM116.28 254.72H125.48C125.28 251.67 122.91 250.27 120.88 250.27C118.85 250.27 116.5 251.67 116.28 254.72V254.72Z" fill="black"/>
<path d="M137.64 250.87C137.79 251.12 137.86 251.32 137.86 251.54C137.86 251.96 137.54 252.24 137.14 252.24C136.82 252.24 136.59 252.07 136.29 251.62C135.79 250.87 134.89 250.22 133.44 250.22C131.77 250.22 130.77 251.07 130.77 252.29C130.77 253.24 131.42 253.96 132.99 254.36L134.59 254.79C136.91 255.36 138.39 256.31 138.39 258.26C138.39 260.71 136.04 262.03 133.44 262.03C131.37 262.03 129.57 261.11 128.99 259.78C128.89 259.58 128.69 259.3 128.69 258.93C128.69 258.48 128.96 258.16 129.39 258.16C129.79 258.16 129.99 258.39 130.17 258.76C130.69 260.01 131.99 260.53 133.44 260.53C135.19 260.53 136.71 259.83 136.71 258.36C136.71 257.19 135.79 256.64 134.44 256.29L132.44 255.77C130.12 255.17 129.09 253.9 129.09 252.32C129.09 250.22 130.97 248.77 133.47 248.77C135.39 248.77 136.87 249.6 137.64 250.87V250.87Z" fill="black"/>
<path d="M139.87 264.47L141.32 260.47C141.47 260 141.75 259.82 142.15 259.82H142.87C143.34 259.82 143.44 260.09 143.22 260.55L141.25 264.65C141.07 265.03 140.8 265.13 140.45 265.13H140.3C139.9 265.13 139.72 264.86 139.87 264.48V264.47Z" fill="black"/>
<path d="M164.92 255.42C164.92 259.92 161.52 262.09 158.72 262.09C156.62 262.09 154.8 260.89 154.07 259.09V261.19C154.07 261.64 153.67 262.06 153.22 262.06C152.75 262.06 152.34 261.64 152.34 261.19V244.94C152.34 244.46 152.74 244.06 153.19 244.06C153.66 244.06 154.04 244.46 154.04 244.94V249.51C154.04 249.51 154.07 249.63 154.07 249.71V251.53C154.92 249.71 156.79 248.76 158.72 248.76C161.52 248.76 164.92 250.96 164.92 255.41V255.42ZM163.22 255.42C163.22 251.92 160.67 250.27 158.55 250.27C156.43 250.27 153.98 251.82 153.98 255.42C153.98 259.02 156.43 260.59 158.55 260.59C160.67 260.59 163.22 258.94 163.22 255.42Z" fill="black"/>
<path d="M179.8 255.42C179.8 259.89 176.23 262.09 173.33 262.09C170.43 262.09 166.88 259.89 166.88 255.42C166.88 250.95 170.45 248.77 173.33 248.77C176.21 248.77 179.8 250.97 179.8 255.42ZM168.58 255.42C168.58 258.92 171.15 260.59 173.33 260.59C175.51 260.59 178.1 258.92 178.1 255.42C178.1 251.92 175.53 250.27 173.33 250.27C171.13 250.27 168.58 251.94 168.58 255.42Z" fill="black"/>
<path d="M187.37 260.97C187.37 261.79 186.12 262.04 185.17 262.04C183.97 262.04 182.82 261.59 182.82 259.57V250.37H181.6C181.17 250.37 180.88 250.1 180.88 249.65C180.88 249.2 181.18 248.92 181.6 248.92H182.82V246.65C182.82 246.18 183.2 245.8 183.67 245.8C184.14 245.8 184.52 246.18 184.52 246.65V248.92H186.62C187.05 248.92 187.37 249.2 187.37 249.65C187.37 250.1 187.05 250.37 186.62 250.37H184.52V259.47C184.52 260.27 184.87 260.57 185.52 260.57C185.92 260.57 186.24 260.47 186.52 260.4C186.99 260.25 187.37 260.55 187.37 260.97Z" fill="black"/>
<path d="M197.72 250.87C197.87 251.12 197.95 251.32 197.95 251.54C197.95 251.96 197.62 252.24 197.22 252.24C196.9 252.24 196.67 252.07 196.37 251.62C195.87 250.87 194.97 250.22 193.52 250.22C191.84 250.22 190.84 251.07 190.84 252.29C190.84 253.24 191.49 253.96 193.06 254.36L194.66 254.79C196.98 255.36 198.46 256.31 198.46 258.26C198.46 260.71 196.11 262.03 193.51 262.03C191.43 262.03 189.63 261.11 189.06 259.78C188.96 259.58 188.76 259.3 188.76 258.93C188.76 258.48 189.04 258.16 189.46 258.16C189.86 258.16 190.06 258.39 190.24 258.76C190.77 260.01 192.06 260.53 193.52 260.53C195.27 260.53 196.79 259.83 196.79 258.36C196.79 257.19 195.86 256.64 194.51 256.29L192.51 255.77C190.19 255.17 189.16 253.9 189.16 252.32C189.16 250.22 191.04 248.77 193.53 248.77C195.46 248.77 196.93 249.6 197.7 250.87H197.72Z" fill="black"/>
<path d="M199.96 264.47L201.41 260.47C201.56 260 201.84 259.82 202.23 259.82H202.95C203.43 259.82 203.53 260.09 203.3 260.55L201.33 264.65C201.15 265.03 200.88 265.13 200.53 265.13H200.38C199.98 265.13 199.81 264.86 199.96 264.48V264.47Z" fill="black"/>
<path d="M222.78 251.55V249.73C222.78 249.26 223.18 248.86 223.63 248.86C224.13 248.86 224.5 249.26 224.5 249.73V261.2C224.5 261.65 224.1 262.07 223.63 262.07C223.16 262.07 222.78 261.65 222.78 261.2V259.1C222.06 260.9 220.23 262.1 218.13 262.1C215.33 262.1 211.93 259.93 211.93 255.43C211.93 250.93 215.33 248.78 218.13 248.78C220.06 248.78 221.93 249.73 222.78 251.55V251.55ZM222.88 255.42C222.88 251.82 220.43 250.27 218.31 250.27C216.19 250.27 213.64 251.92 213.64 255.42C213.64 258.92 216.19 260.59 218.31 260.59C220.43 260.59 222.88 258.94 222.88 255.42V255.42Z" fill="black"/>
<path d="M239.09 254.27V261.17C239.09 261.62 238.71 262.05 238.24 262.05C237.77 262.05 237.39 261.63 237.39 261.17V254.27C237.39 251.37 235.62 250.32 233.77 250.32C231.12 250.32 229.67 252.49 229.39 254.14V261.16C229.39 261.61 229.01 262.04 228.54 262.04C228.07 262.04 227.69 261.62 227.69 261.16V249.71C227.69 249.24 228.07 248.84 228.54 248.84C229.01 248.84 229.39 249.24 229.39 249.71V251.96C229.54 251.14 231.11 248.79 234.16 248.79C236.49 248.79 239.08 250.14 239.08 254.26L239.09 254.27Z" fill="black"/>
<path d="M254.14 244.95V261.2C254.14 261.65 253.74 262.07 253.26 262.07C252.81 262.07 252.41 261.65 252.41 261.2V259.1C251.69 260.9 249.86 262.1 247.76 262.1C244.96 262.1 241.56 259.93 241.56 255.43C241.56 250.93 244.96 248.78 247.76 248.78C249.68 248.78 251.56 249.73 252.41 251.55V249.73C252.41 249.66 252.41 249.58 252.44 249.53V244.96C252.44 244.48 252.82 244.08 253.29 244.08C253.74 244.08 254.14 244.48 254.14 244.96V244.95ZM252.52 255.42C252.52 251.82 250.07 250.27 247.95 250.27C245.83 250.27 243.28 251.92 243.28 255.42C243.28 258.92 245.83 260.59 247.95 260.59C250.07 260.59 252.52 258.94 252.52 255.42Z" fill="black"/>
<path d="M263.8 256.64V249.74C263.8 249.29 264.18 248.86 264.65 248.86C265.12 248.86 265.5 249.28 265.5 249.74V256.64C265.5 259.54 267.28 260.59 269.12 260.59C271.77 260.59 273.22 258.42 273.49 256.77V249.75C273.49 249.3 273.87 248.87 274.34 248.87C274.81 248.87 275.19 249.29 275.19 249.75V261.2C275.19 261.67 274.81 262.07 274.34 262.07C273.87 262.07 273.49 261.67 273.49 261.2V258.95C273.34 259.77 271.77 262.12 268.72 262.12C266.4 262.12 263.8 260.77 263.8 256.65V256.64Z" fill="black"/>
<path d="M286.61 250.87C286.76 251.12 286.84 251.32 286.84 251.54C286.84 251.96 286.51 252.24 286.11 252.24C285.79 252.24 285.56 252.07 285.26 251.62C284.76 250.87 283.86 250.22 282.41 250.22C280.73 250.22 279.73 251.07 279.73 252.29C279.73 253.24 280.38 253.96 281.95 254.36L283.55 254.79C285.87 255.36 287.35 256.31 287.35 258.26C287.35 260.71 285 262.03 282.4 262.03C280.32 262.03 278.52 261.11 277.95 259.78C277.85 259.58 277.65 259.3 277.65 258.93C277.65 258.48 277.93 258.16 278.35 258.16C278.75 258.16 278.95 258.39 279.13 258.76C279.66 260.01 280.95 260.53 282.41 260.53C284.16 260.53 285.68 259.83 285.68 258.36C285.68 257.19 284.75 256.64 283.4 256.29L281.4 255.77C279.08 255.17 278.05 253.9 278.05 252.32C278.05 250.22 279.93 248.77 282.42 248.77C284.35 248.77 285.82 249.6 286.59 250.87H286.61Z" fill="black"/>
<path d="M301.67 255.12C301.67 255.77 301.27 256.09 300.57 256.09H290.82C291.02 259.16 293.39 260.59 295.67 260.59C296.87 260.59 297.97 260.21 298.82 259.52C299.14 259.27 299.35 259.14 299.57 259.14C299.99 259.14 300.24 259.44 300.24 259.81C300.24 260.04 300.14 260.26 299.77 260.61C298.72 261.56 297.2 262.03 295.62 262.03C292.47 262.03 289.07 259.91 289.07 255.41C289.07 250.91 292.57 248.76 295.42 248.76C298.27 248.76 301.67 250.98 301.67 255.11V255.12ZM290.82 254.72H300.02C299.82 251.67 297.45 250.27 295.42 250.27C293.39 250.27 291.04 251.67 290.82 254.72V254.72Z" fill="black"/>
<path d="M311.4 249.62C311.4 250.12 310.97 250.44 310.25 250.44C307.78 250.44 306.08 252.41 305.8 254.14V261.16C305.8 261.64 305.42 262.04 304.95 262.04C304.48 262.04 304.1 261.64 304.1 261.16V249.71C304.1 249.24 304.48 248.84 304.95 248.84C305.42 248.84 305.8 249.24 305.8 249.71V251.96C305.95 251.14 307.6 248.79 310.37 248.79C311.02 248.79 311.4 249.14 311.4 249.61V249.62Z" fill="black"/>
<path d="M321.52 250.87C321.67 251.12 321.75 251.32 321.75 251.54C321.75 251.96 321.42 252.24 321.02 252.24C320.7 252.24 320.47 252.07 320.17 251.62C319.67 250.87 318.77 250.22 317.32 250.22C315.64 250.22 314.64 251.07 314.64 252.29C314.64 253.24 315.29 253.96 316.86 254.36L318.46 254.79C320.78 255.36 322.26 256.31 322.26 258.26C322.26 260.71 319.91 262.03 317.31 262.03C315.23 262.03 313.43 261.11 312.86 259.78C312.76 259.58 312.56 259.3 312.56 258.93C312.56 258.48 312.84 258.16 313.26 258.16C313.66 258.16 313.86 258.39 314.04 258.76C314.57 260.01 315.86 260.53 317.32 260.53C319.07 260.53 320.59 259.83 320.59 258.36C320.59 257.19 319.66 256.64 318.31 256.29L316.31 255.77C313.99 255.17 312.96 253.9 312.96 252.32C312.96 250.22 314.84 248.77 317.33 248.77C319.26 248.77 320.73 249.6 321.5 250.87H321.52Z" fill="black"/>
<path d="M112.83 107.12V124.96C112.83 127.08 110.95 128.76 108.88 128.76C107.1 128.76 105.51 127.51 105.13 125.78C104.41 127.03 102.29 128.81 98.7802 128.81C93.4902 128.81 87.2402 124.77 87.2402 115.97C87.2402 107.17 93.5902 103.18 98.7802 103.18C102.05 103.18 104.41 105.01 105.03 106.69V107.12C105.03 105.05 106.81 103.32 108.88 103.32C110.95 103.32 112.83 105.05 112.83 107.12V107.12ZM105.37 115.97C105.37 111.26 102.34 109.72 100.22 109.72C97.4802 109.72 94.9302 111.88 94.9302 115.97C94.9302 120.06 97.4802 122.27 100.22 122.27C102.34 122.27 105.37 120.78 105.37 115.97Z" fill="#766EDB"/>
<path d="M143.05 115.15V124.91C143.05 127.03 141.32 128.71 139.2 128.71C137.08 128.71 135.4 127.03 135.4 124.91V115.15C135.4 111.4 133.67 109.71 131.12 109.71C127.17 109.71 126.31 113.7 126.31 114.23V124.91C126.31 127.03 124.53 128.71 122.46 128.71C120.39 128.71 118.61 127.03 118.61 124.91V107.21C118.61 105.05 120.39 103.31 122.46 103.31C124.53 103.31 126.31 105.04 126.31 107.21V108.7C126.45 106.92 129.2 103.22 134.1 103.22C139 103.22 143.05 106.68 143.05 115.15V115.15Z" fill="#766EDB"/>
<path d="M163.37 124.77C163.37 127.27 161.25 128.71 157.36 128.71C153.47 128.71 149.86 127.56 149.86 119.62V109.38H148.9C147.02 109.38 145.82 108.13 145.82 106.45C145.82 104.77 147.02 103.47 148.9 103.47H149.86V100.68C149.86 98.5598 151.64 96.8298 153.71 96.8298C155.78 96.8298 157.56 98.5598 157.56 100.68V103.47H160.35C162.23 103.47 163.38 104.72 163.38 106.45C163.38 108.18 162.23 109.38 160.35 109.38H157.56V120.01C157.56 121.31 157.94 122.13 158.86 122.13C159.34 122.13 160.16 121.94 160.69 121.99C162.37 121.99 163.38 123 163.38 124.78L163.37 124.77Z" fill="#766EDB"/>
<path d="M167.45 97.4499C167.45 95.3799 169.28 93.6499 171.34 93.6499C173.4 93.6499 175.24 95.3799 175.24 97.4499C175.24 99.5199 173.41 101.2 171.34 101.2C169.27 101.2 167.45 99.4699 167.45 97.4499ZM175.19 107.21V124.86C175.19 127.03 173.41 128.76 171.34 128.76C169.27 128.76 167.49 127.03 167.49 124.86V107.21C167.49 105.05 169.27 103.31 171.34 103.31C173.41 103.31 175.19 105.04 175.19 107.21Z" fill="#766EDB"/>
<path d="M197.63 115.34C197.63 117.12 196.14 118.51 194.5 118.51H183.29C181.61 118.51 180.11 117.12 180.11 115.34C180.11 113.56 181.6 112.17 183.29 112.17H194.5C196.13 112.17 197.63 113.61 197.63 115.34Z" fill="#766EDB"/>
<path d="M227.06 115.15V124.91C227.06 127.03 225.33 128.71 223.21 128.71C221.09 128.71 219.41 127.03 219.41 124.91V115.15C219.41 111.4 217.68 109.71 215.13 109.71C211.18 109.71 210.32 113.7 210.32 114.23V124.91C210.32 127.03 208.54 128.71 206.47 128.71C204.4 128.71 202.62 127.03 202.62 124.91V107.21C202.62 105.05 204.4 103.31 206.47 103.31C208.54 103.31 210.32 105.04 210.32 107.21V108.7C210.46 106.92 213.21 103.22 218.11 103.22C223.01 103.22 227.06 106.68 227.06 115.15V115.15Z" fill="#766EDB"/>
<path d="M232.46 116.83V107.07C232.46 104.95 234.19 103.27 236.31 103.27C238.43 103.27 240.11 104.95 240.11 107.07V116.83C240.11 120.58 241.84 122.27 244.39 122.27C248.33 122.27 249.2 118.28 249.2 117.75V107.07C249.2 104.95 250.98 103.27 253.05 103.27C255.12 103.27 256.9 104.95 256.9 107.07V124.77C256.9 126.93 255.12 128.67 253.05 128.67C250.98 128.67 249.2 126.94 249.2 124.77V123.28C249.06 125.06 246.32 128.76 241.41 128.76C236.5 128.76 232.46 125.3 232.46 116.83V116.83Z" fill="#766EDB"/>
<path d="M285.92 125.39C285.92 127.12 284.48 128.71 282.6 128.71C281.64 128.71 280.72 128.28 280.24 127.65L272.69 118.9L270.38 120.97V124.91C270.38 127.03 268.6 128.71 266.53 128.71C264.46 128.71 262.68 127.03 262.68 124.91V97.9799C262.68 95.8599 264.46 94.1299 266.53 94.1299C268.6 94.1299 270.38 95.8599 270.38 97.9799V112.02L278.36 104.42C278.99 103.8 279.95 103.31 280.96 103.31C282.88 103.31 284.38 104.95 284.38 106.77C284.38 107.78 284.04 108.6 283.42 109.22L277.5 114.56L285 123.07C285.48 123.55 285.91 124.37 285.91 125.38L285.92 125.39Z" fill="#766EDB"/>
<path d="M312.82 114.77C312.82 117.8 311.18 118.81 308.11 118.81L295.85 118.67C296.52 121.12 298.49 122.57 301.62 122.57C303.06 122.57 303.3 122.38 304.65 122.04C305.66 121.7 306.48 121.27 307.44 121.27C309.03 121.27 309.99 122.38 309.99 123.82C309.99 124.73 309.61 125.84 308.16 126.95C306.53 127.96 304.31 128.73 301.28 128.73C294.74 128.73 287.86 124.83 287.86 116.08C287.86 107.33 295.22 103.19 300.7 103.19C306.18 103.19 312.82 107.57 312.82 114.78V114.77ZM295.84 113.57H305.27C304.79 110.83 302.91 109.82 300.7 109.82C298.49 109.82 296.28 110.83 295.84 113.57Z" fill="#766EDB"/>
</svg>
