<svg xmlns="http://www.w3.org/2000/svg" xmlns:xlink="http://www.w3.org/1999/xlink" width="477" height="513" fill="none" xmlns:v="https://vecta.io/nano"><g clip-path="url(#A)"><g stroke="#000" stroke-width="2.75" stroke-linejoin="round"><path d="M76.4 461.18l-48.12-4.69c-12.92-1.26-28.91 9.26-26.7 29.11 1.54 13.84 8.14 25.32 22.49 25.56 29.56.48 53.45-14.9 53.21-17.6s-.89-32.38-.89-32.38h.01z" fill="#ad8e6f"/><g fill="#ffe9c7"><path d="M26.94 483.69s244.03 5.34 359.35 13.41c5.59.63 14.78-.43 15.19-11.17 0-.17.01-.34.02-.5.35-10.47-10.01-33.86-22.68-33.29-230.77 10.45-353.96 3.87-353.98 4.37 14.11.46 14.06 21.25 2.1 27.19v-.01z"/><path d="M431.19 376.07l16-5.11-2.87-252.39-9.51-1.33 9.09-3.71-.25-20.6-11.97-3.73 11.22-5.82-1.97-48.35-322.25-.82C117.51 17.16 75.52 1.43 61.99 1.4c-13.8-.03-26.42 16.46-26.2 45.61 0 .63.27-8.72.4 14.18 0 1.26 11.68 2.34 11.69 3.67 0 1.56-11.65 3.39-11.65 5.07.11 32.78 6.31 140.06 6.31 140.06s5.61 5.98 14.42 6l-14.65 8.5.82 210.3c-.03 1.33 18.28 4.22 18.29 4.22 0 0-17.39 4.06-17.21 5.17 3.98 24.74 2.45 65.32-14.52 66.98 93.4-9.76 238.38-6 377.56-6 44.05 0 40.92-54.51 40.94-65.85.05-29.09-1.27-55.91-1.27-55.91l-15.72-7.33h-.01z"/></g><path d="M101.07 23.18l-43.06 3.1s-4.28 29.43 16.8 29.75c21.07.33 27.14-9.53 26.97-11.32s-.7-21.53-.7-21.53h-.01z" fill="#ad8e6f"/><path d="M74.8 56.02s259.56-10.88 383.44.12c5.99.86 16.12-9.56 16.9-24.56l.04-.7C475.89 16.26 465 4.67 451.35 5.5 202.62 20.62 62.32.7 62.29 1.39 77.46 2 90.96 13.02 90.75 30.83c-.11 9.55-4.7 21.45-15.95 25.19z" fill="#ffe9c7"/></g><g style="mix-blend-mode:color-dodge" opacity=".49"><path d="M451.34 5.5C228.07 19.07 95.46 4.41 67.17 1.77l-2.55-.19c4.86.55 9.48 2.16 13.44 4.74 5.22 2.25 9.54 5.31 8.86 9.27 27.74 2.86 29.27-1.02 98.54 1.93 82.4 3.5 245.7 1.62 285.86-1.67-4.25-6.68-11.59-10.86-19.97-10.35h-.01z" fill="#fff5e3"/></g><g style="mix-blend-mode:multiply" opacity=".3"><path d="M392.87 427.89c.73 2.66 3.96 3.39 7.65 1.39 1.49-.81 2.89-1.86 4.3-2.87l.41-.23c3.47-1.84 6.25-6.07 5.54-8.65-.74-2.69-3.95-3.35-7.65-1.39-1.5.8-2.91 1.87-4.33 2.88-.13.07-.25.15-.38.22-3.46 1.87-6.26 6.04-5.54 8.65h0z" fill="#c4a062"/></g><g style="mix-blend-mode:multiply" opacity=".3"><path d="M389.88 406.13c-1.61 1.91-1.62 4.05.21 4.88.74.34 1.62.48 2.48.66l.21.09c1.69.81 4.83-.12 6.39-1.97 1.63-1.93 1.6-4.02-.21-4.88-.73-.35-1.63-.49-2.49-.67l-.2-.08c-1.71-.78-4.81.1-6.39 1.97z" fill="#c4a062"/></g><g fill="#000"><use xlink:href="#B"/><use xlink:href="#C"/><use xlink:href="#D"/><use xlink:href="#E"/><path d="M149.29 157.73c0 .7-.43 1.05-1.19 1.05h-10.53c.22 3.32 2.78 4.86 5.24 4.86 1.29 0 2.48-.4 3.4-1.16.35-.27.57-.41.81-.41a.69.69 0 0 1 .73.73c0 .24-.11.49-.51.86-1.13 1.03-2.78 1.54-4.48 1.54-3.4 0-7.07-2.29-7.07-7.15s3.78-7.18 6.86-7.18 6.75 2.4 6.75 6.86h-.01zm-11.72-.43h9.93c-.22-3.29-2.78-4.8-4.97-4.8s-4.72 1.51-4.97 4.8h.01zm26.12 4.78c0 .32-.22.54-.41.78-1.19 1.57-3 2.35-4.99 2.35-3.16 0-6.96-2.38-6.96-7.15s3.81-7.18 6.96-7.18c2 0 3.81.78 4.99 2.35.19.24.41.46.41.78 0 .46-.38.76-.81.76-.32 0-.62-.19-.84-.49-.84-1.19-2.32-1.78-3.67-1.78-2.46 0-5.21 1.81-5.21 5.56s2.75 5.53 5.21 5.53c1.35 0 2.83-.59 3.67-1.78.22-.3.51-.49.84-.49.43 0 .81.3.81.76h0zm8.33 1.97c0 .89-1.35 1.16-2.38 1.16-1.3 0-2.54-.49-2.54-2.67v-9.93h-1.32a.78.78 0 1 1 0-1.56h1.32v-2.46a.92.92 0 1 1 1.84 0v2.46h2.27c.46 0 .81.3.81.78s-.35.78-.81.78h-2.27v9.83c0 .86.38 1.19 1.08 1.19.43 0 .78-.11 1.08-.19.51-.16.92.16.92.62v-.01zm2.13-17.57c0-.51.43-.94.95-.94s.94.43.94.94-.43.95-.94.95-.95-.43-.95-.95zm1.86 5.43v12.39c0 .51-.41.94-.92.94s-.92-.43-.92-.94v-12.39c0-.51.41-.94.92-.94s.92.43.92.94h0zm16.65 6.15c0 4.83-3.86 7.21-6.99 7.21s-6.96-2.38-6.96-7.21 3.86-7.18 6.96-7.18 6.99 2.38 6.99 7.18zm-12.12 0c0 3.78 2.78 5.59 5.13 5.59s5.16-1.81 5.16-5.59-2.78-5.56-5.16-5.56-5.13 1.81-5.13 5.56zm27.19-1.24v7.45c0 .49-.41.94-.92.94s-.92-.46-.92-.94v-7.45c0-3.13-1.92-4.26-3.91-4.26-2.86 0-4.43 2.35-4.72 4.13v7.58c0 .49-.41.94-.92.94s-.92-.46-.92-.94v-12.36c0-.51.41-.94.92-.94s.92.43.92.94v2.43c.16-.89 1.86-3.43 5.16-3.43 2.51 0 5.32 1.46 5.32 5.91h-.01zm18.68-9.72c0 .41-.32.73-.7.73-.24 0-.54-.11-.84-.27-.38-.24-.94-.49-1.75-.49-1.54 0-2.43.95-2.43 2.92v1.05h3.4c.46 0 .81.3.81.78s-.35.78-.81.78h-3.4v11.69c0 .49-.41.94-.92.94s-.92-.46-.92-.94V152.6h-1a.78.78 0 1 1 0-1.56h1v-1.11c0-3.51 2.29-4.48 4.16-4.48 1.24 0 2.27.41 3 .95.22.16.4.4.4.7h0zm9 4.7c0 .54-.46.89-1.24.89-2.67 0-4.51 2.13-4.8 4v7.58c0 .51-.41.94-.92.94s-.92-.43-.92-.94v-12.36c0-.51.41-.94.92-.94s.92.43.92.94v2.43c.16-.89 1.94-3.43 4.94-3.43.7 0 1.11.38 1.11.89h-.01zm14.66 6.26c0 4.83-3.86 7.21-6.99 7.21s-6.96-2.38-6.96-7.21 3.86-7.18 6.96-7.18 6.99 2.38 6.99 7.18zm-12.12 0c0 3.78 2.78 5.59 5.13 5.59s5.16-1.81 5.16-5.59-2.78-5.56-5.16-5.56-5.13 1.81-5.13 5.56z"/><use xlink:href="#F"/><path d="M308.83 156.82v7.45c0 .49-.4.94-.92.94-.49 0-.92-.46-.92-.94v-7.45c0-3.13-1.92-4.26-3.89-4.26-2.89 0-4.45 2.35-4.75 4.13v7.58c0 .49-.41.94-.92.94s-.92-.46-.92-.94v-7.45c0-3.13-1.92-4.26-3.91-4.26-2.86 0-4.43 2.35-4.72 4.13v7.58c0 .49-.41.94-.92.94s-.92-.46-.92-.94v-12.36c0-.51.41-.94.92-.94s.92.43.92.94v2.43c.16-.89 1.86-3.43 5.16-3.43 2 0 4.21.92 4.99 3.59.78-1.7 2.59-3.59 5.51-3.59 2.51 0 5.29 1.46 5.29 5.91h0zm14.42-2.95v-1.97a.95.95 0 0 1 .92-.94.94.94 0 0 1 .95.94v12.39a.97.97 0 0 1-.95.94c-.49 0-.92-.46-.92-.94v-2.27c-.78 1.94-2.75 3.24-5.02 3.24-3.02 0-6.69-2.35-6.69-7.21s3.67-7.18 6.69-7.18c2.08 0 4.1 1.03 5.02 3zm.11 4.18c0-3.89-2.65-5.56-4.94-5.56s-5.05 1.78-5.05 5.56 2.75 5.59 5.05 5.59 4.94-1.78 4.94-5.59z"/><use xlink:href="#G"/><path d="M349.78 153.15c.16.27.24.49.24.73 0 .46-.35.76-.78.76-.35 0-.59-.19-.92-.67-.54-.81-1.51-1.51-3.08-1.51-1.81 0-2.89.92-2.89 2.24 0 1.03.7 1.81 2.4 2.24l1.73.46c2.51.62 4.1 1.65 4.1 3.75 0 2.64-2.54 4.08-5.34 4.08-2.24 0-4.18-1-4.8-2.43-.11-.22-.32-.51-.32-.92 0-.49.3-.84.76-.84.43 0 .65.24.84.65.57 1.35 1.97 1.92 3.54 1.92 1.89 0 3.54-.76 3.54-2.35 0-1.27-1-1.86-2.46-2.24l-2.16-.57c-2.51-.65-3.62-2.03-3.62-3.73 0-2.27 2.02-3.83 4.72-3.83 2.08 0 3.67.89 4.51 2.27l-.01-.01zm24.14 4.91c0 4.86-3.67 7.21-6.69 7.21-2.27 0-4.24-1.29-5.02-3.24v2.27c0 .49-.43.94-.92.94-.51 0-.95-.46-.95-.94v-17.55a.95.95 0 0 1 .92-.94c.51 0 .92.43.92.94v4.94c.03.05.03.13.03.21v1.97c.92-1.97 2.94-3 5.02-3 3.02 0 6.69 2.38 6.69 7.18v.01zm-1.84 0c0-3.78-2.75-5.56-5.05-5.56s-4.94 1.67-4.94 5.56 2.65 5.59 4.94 5.59 5.05-1.78 5.05-5.59zm17.89 0c0 4.83-3.86 7.21-6.99 7.21s-6.96-2.38-6.96-7.21 3.86-7.18 6.96-7.18 6.99 2.38 6.99 7.18zm-12.12 0c0 3.78 2.78 5.59 5.13 5.59s5.16-1.81 5.16-5.59-2.78-5.56-5.16-5.56-5.13 1.81-5.13 5.56zm20.27 5.99c0 .89-1.35 1.16-2.38 1.16-1.3 0-2.54-.49-2.54-2.67v-9.93h-1.32a.78.78 0 1 1 0-1.56h1.32v-2.46a.92.92 0 1 1 1.84 0v2.46h2.27c.46 0 .81.3.81.78s-.35.78-.81.78h-2.27v9.83c0 .86.38 1.19 1.08 1.19.43 0 .78-.11 1.08-.19.51-.16.92.16.92.62v-.01zM88.84 178.88c0-.51.43-.95.95-.95s.94.43.94.95-.43.95-.94.95-.95-.43-.95-.95zm1.86 5.43v12.39c0 .51-.41.94-.92.94s-.92-.43-.92-.94v-12.39c0-.51.41-.95.92-.95s.92.43.92.95zm15.69 4.91v7.45c0 .49-.41.94-.92.94s-.92-.46-.92-.94v-7.45c0-3.13-1.92-4.26-3.91-4.26-2.86 0-4.43 2.35-4.72 4.13v7.59c0 .49-.41.94-.92.94s-.92-.46-.92-.94v-12.36c0-.51.41-.95.92-.95s.92.43.92.95v2.43c.16-.89 1.86-3.43 5.16-3.43 2.51 0 5.32 1.46 5.32 5.91l-.01-.01zm11.42-9.72c0 .4-.32.73-.7.73-.24 0-.54-.11-.84-.27-.38-.24-.94-.49-1.75-.49-1.54 0-2.43.95-2.43 2.92v1.05h3.4c.46 0 .81.3.81.78s-.35.78-.81.78h-3.4v11.69c0 .49-.41.94-.92.94s-.92-.46-.92-.94V185h-1a.78.78 0 1 1 0-1.56h1v-1.11c0-3.51 2.29-4.48 4.16-4.48 1.24 0 2.27.4 3 .94.22.16.4.41.4.7v.01zm3.29-.38v17.55c0 .49-.41.94-.92.94s-.92-.46-.92-.94v-17.55a.93.93 0 0 1 .92-.92.93.93 0 0 1 .92.92zm3.5 12.66v-7.45c0-.49.41-.95.92-.95s.92.46.92.95v7.45c0 3.13 1.92 4.27 3.91 4.27 2.86 0 4.43-2.35 4.72-4.13v-7.58c0-.49.41-.95.92-.95s.92.46.92.95v12.36c0 .51-.41.94-.92.94s-.92-.43-.92-.94v-2.43c-.16.89-1.86 3.43-5.16 3.43-2.51 0-5.32-1.46-5.32-5.91l.01-.01zm25.92 5c0 .46-.38.84-.84.84-.24 0-.49-.11-.65-.32l-4.16-5.64-4.18 5.64c-.16.22-.41.32-.67.32-.43 0-.81-.38-.81-.84 0-.19.08-.35.16-.49l4.48-5.88-4.35-5.75c-.11-.13-.19-.3-.19-.49 0-.43.41-.81.86-.81a.89.89 0 0 1 .65.32l4.05 5.43 4.02-5.43a.89.89 0 0 1 .65-.32c.46 0 .84.38.84.81a.76.76 0 0 1-.16.49l-4.35 5.75 4.48 5.88c.08.13.16.3.16.49h.01z"/><use xlink:href="#H"/><use xlink:href="#I"/><use xlink:href="#J"/><use xlink:href="#K"/><path d="M229.32 185.55c.16.27.24.49.24.73 0 .46-.35.76-.78.76-.35 0-.59-.19-.92-.68-.54-.81-1.51-1.51-3.08-1.51-1.81 0-2.89.92-2.89 2.24 0 1.03.7 1.81 2.4 2.24l1.73.46c2.51.62 4.1 1.65 4.1 3.75 0 2.65-2.54 4.08-5.34 4.08-2.24 0-4.18-1-4.8-2.43-.11-.22-.32-.51-.32-.92 0-.49.3-.84.76-.84.43 0 .65.24.84.65.57 1.35 1.97 1.92 3.54 1.92 1.89 0 3.54-.76 3.54-2.35 0-1.27-1-1.86-2.46-2.24l-2.16-.57c-2.51-.65-3.62-2.02-3.62-3.73 0-2.27 2.02-3.83 4.72-3.83 2.08 0 3.67.89 4.51 2.27h-.01zm19.55 0c.16.27.24.49.24.73 0 .46-.35.76-.78.76-.35 0-.59-.19-.92-.68-.54-.81-1.51-1.51-3.08-1.51-1.81 0-2.89.92-2.89 2.24 0 1.03.7 1.81 2.4 2.24l1.73.46c2.51.62 4.1 1.65 4.1 3.75 0 2.65-2.54 4.08-5.34 4.08-2.24 0-4.18-1-4.8-2.43-.11-.22-.32-.51-.32-.92 0-.49.3-.84.76-.84.43 0 .65.24.84.65.57 1.35 1.97 1.92 3.54 1.92 1.89 0 3.54-.76 3.54-2.35 0-1.27-1-1.86-2.46-2.24l-2.16-.57c-2.51-.65-3.62-2.02-3.62-3.73 0-2.27 2.02-3.83 4.72-3.83 2.08 0 3.67.89 4.51 2.27h-.01zm17.02 4.91c0 4.86-3.67 7.21-6.69 7.21-2.27 0-4.24-1.3-5.02-3.24v2.27c0 .08 0 .13-.03.22v4.89a.93.93 0 0 1-.92.92.93.93 0 0 1-.92-.92v-17.49a.95.95 0 0 1 .95-.95c.49 0 .92.43.92.95v1.97c.92-1.97 2.94-3 5.02-3 3.02 0 6.69 2.38 6.69 7.18v-.01zm-1.84 0c0-3.78-2.75-5.56-5.05-5.56s-4.94 1.67-4.94 5.56 2.65 5.59 4.94 5.59 5.05-1.78 5.05-5.59zm15.66-4.18v-1.97c0-.51.43-.95.92-.95.54 0 .95.43.95.95v12.39a.97.97 0 0 1-.95.94c-.49 0-.92-.46-.92-.94v-2.27c-.78 1.94-2.75 3.24-5.02 3.24-3.02 0-6.69-2.35-6.69-7.21s3.67-7.18 6.69-7.18c2.08 0 4.1 1.03 5.02 3h0zm.11 4.18c0-3.89-2.65-5.56-4.94-5.56s-5.05 1.78-5.05 5.56 2.75 5.59 5.05 5.59 4.94-1.78 4.94-5.59zm27.96-1.24v7.45c0 .49-.4.94-.92.94-.49 0-.92-.46-.92-.94v-7.45c0-3.13-1.92-4.26-3.89-4.26-2.89 0-4.45 2.35-4.75 4.13v7.59c0 .49-.41.94-.92.94s-.92-.46-.92-.94v-7.45c0-3.13-1.92-4.26-3.91-4.26-2.86 0-4.43 2.35-4.72 4.13v7.59c0 .49-.41.94-.92.94s-.92-.46-.92-.94v-12.36c0-.51.41-.95.92-.95s.92.43.92.95v2.43c.16-.89 1.86-3.43 5.16-3.43 2 0 4.21.92 4.99 3.59.78-1.7 2.59-3.59 5.51-3.59 2.51 0 5.29 1.46 5.29 5.91v-.02zm2.36 11.01l1.57-4.32c.16-.51.46-.7.89-.7h.78c.51 0 .62.3.38.78l-2.13 4.43c-.19.4-.49.51-.86.51h-.16c-.43 0-.62-.3-.46-.7h-.01zm36.26-11.01v7.45c0 .49-.4.94-.92.94-.49 0-.92-.46-.92-.94v-7.45c0-3.13-1.92-4.26-3.89-4.26-2.89 0-4.45 2.35-4.75 4.13v7.59c0 .49-.41.94-.92.94s-.92-.46-.92-.94v-7.45c0-3.13-1.92-4.26-3.91-4.26-2.86 0-4.43 2.35-4.72 4.13v7.59c0 .49-.41.94-.92.94s-.92-.46-.92-.94v-12.36c0-.51.41-.95.92-.95s.92.43.92.95v2.43c.16-.89 1.86-3.43 5.16-3.43 2 0 4.21.92 4.99 3.59.78-1.7 2.59-3.59 5.51-3.59 2.51 0 5.29 1.46 5.29 5.91v-.02zm14.42-2.94v-1.97c0-.51.43-.95.92-.95.54 0 .95.43.95.95v12.39a.97.97 0 0 1-.95.94c-.49 0-.92-.46-.92-.94v-2.27c-.78 1.94-2.75 3.24-5.02 3.24-3.02 0-6.69-2.35-6.69-7.21s3.67-7.18 6.69-7.18c2.08 0 4.1 1.03 5.02 3h0zm.11 4.18c0-3.89-2.65-5.56-4.94-5.56s-5.05 1.78-5.05 5.56 2.75 5.59 5.05 5.59 4.94-1.78 4.94-5.59zm14.06-4.91c.16.27.24.49.24.73 0 .46-.35.76-.78.76-.35 0-.59-.19-.92-.68-.54-.81-1.51-1.51-3.08-1.51-1.81 0-2.89.92-2.89 2.24 0 1.03.7 1.81 2.4 2.24l1.73.46c2.51.62 4.1 1.65 4.1 3.75 0 2.65-2.54 4.08-5.34 4.08-2.24 0-4.18-1-4.8-2.43-.11-.22-.32-.51-.32-.92 0-.49.3-.84.76-.84.43 0 .65.24.84.65.57 1.35 1.97 1.92 3.54 1.92 1.89 0 3.54-.76 3.54-2.35 0-1.27-1-1.86-2.46-2.24l-2.16-.57c-2.51-.65-3.62-2.02-3.62-3.73 0-2.27 2.02-3.83 4.72-3.83 2.08 0 3.67.89 4.51 2.27h-.01zm12.36 0c.16.27.24.49.24.73 0 .46-.35.76-.78.76-.35 0-.59-.19-.92-.68-.54-.81-1.51-1.51-3.08-1.51-1.81 0-2.89.92-2.89 2.24 0 1.03.7 1.81 2.4 2.24l1.73.46c2.51.62 4.1 1.65 4.1 3.75 0 2.65-2.54 4.08-5.34 4.08-2.24 0-4.18-1-4.8-2.43-.11-.22-.32-.51-.32-.92 0-.49.3-.84.76-.84.43 0 .65.24.84.65.57 1.35 1.97 1.92 3.54 1.92 1.89 0 3.54-.76 3.54-2.35 0-1.27-1-1.86-2.46-2.24l-2.16-.57c-2.51-.65-3.62-2.02-3.62-3.73 0-2.27 2.02-3.83 4.72-3.83 2.08 0 3.67.89 4.51 2.27h-.01zm-284.02 34.91c0 5.94-3.72 9.42-9.42 9.42h-4.05c-.59 0-1.03-.43-1.03-1.03v-16.87c0-.59.43-1 1.03-1h4.05c5.7 0 9.42 3.46 9.42 9.47v.01zm-1.86 0c0-5.18-2.78-7.86-7.56-7.86h-3.19v15.66h3.19c4.78 0 7.56-2.7 7.56-7.8h0zm25.13-8.75v17.28c0 .51-.41.97-.92.97-.54 0-.97-.46-.97-.97v-13.77l-7.29 13.5a.91.91 0 0 1-.84.54c-.33 0-.62-.19-.84-.54l-7.29-13.5v13.77c0 .51-.43.97-.94.97a.99.99 0 0 1-.95-.97v-17.28c0-.51.41-.81.81-.81.43 0 .78.24 1.03.65l8.18 15.06 8.21-15.06c.22-.4.59-.65 1-.65a.78.78 0 0 1 .81.81zm2.86 20.92l1.57-4.32c.16-.51.46-.7.89-.7h.78c.51 0 .62.3.38.78l-2.13 4.43c-.19.41-.49.51-.86.51h-.16c-.43 0-.62-.3-.46-.7h-.01z"/><use xlink:href="#L"/><use xlink:href="#M"/><use xlink:href="#N"/><use xlink:href="#O"/><path d="M226.39 221.62v7.45c0 .49-.4.94-.92.94-.49 0-.92-.46-.92-.94v-7.45c0-3.13-1.92-4.27-3.89-4.27-2.89 0-4.45 2.35-4.75 4.13v7.58c0 .49-.41.94-.92.94s-.92-.46-.92-.94v-7.45c0-3.13-1.92-4.27-3.91-4.27-2.86 0-4.43 2.35-4.72 4.13v7.58c0 .49-.41.94-.92.94s-.92-.46-.92-.94v-12.36c0-.51.41-.95.92-.95s.92.43.92.95v2.43c.16-.89 1.86-3.43 5.16-3.43 2 0 4.21.92 4.99 3.59.78-1.7 2.59-3.59 5.51-3.59 2.51 0 5.29 1.46 5.29 5.91v.02zm17 1.24c0 4.86-3.67 7.21-6.69 7.21-2.27 0-4.24-1.3-5.02-3.24v2.27c0 .08 0 .13-.03.22v4.88a.93.93 0 0 1-.92.92.93.93 0 0 1-.92-.92v-17.49a.95.95 0 0 1 .95-.95c.49 0 .92.43.92.95v1.97c.92-1.97 2.94-3 5.02-3 3.02 0 6.69 2.38 6.69 7.18zm-1.84 0c0-3.78-2.75-5.56-5.05-5.56s-4.94 1.67-4.94 5.56 2.65 5.59 4.94 5.59 5.05-1.78 5.05-5.59zm17.55-.33c0 .7-.43 1.05-1.19 1.05h-10.53c.22 3.32 2.78 4.86 5.24 4.86 1.29 0 2.48-.41 3.4-1.16.35-.27.57-.4.81-.4a.69.69 0 0 1 .73.73c0 .24-.11.49-.51.86-1.13 1.03-2.78 1.54-4.48 1.54-3.4 0-7.07-2.29-7.07-7.15s3.78-7.18 6.86-7.18 6.75 2.4 6.75 6.86l-.01-.01zm-11.72-.43h9.93c-.22-3.29-2.78-4.8-4.97-4.8s-4.72 1.51-4.97 4.8h.01zm22.21-5.5c0 .54-.46.89-1.24.89-2.67 0-4.51 2.13-4.8 4v7.58c0 .51-.41.94-.92.94s-.92-.43-.92-.94v-12.36c0-.51.41-.95.92-.95s.92.43.92.95v2.43c.16-.89 1.94-3.43 4.94-3.43.7 0 1.11.38 1.11.89h-.01zm10.9 1.35c.16.27.24.49.24.73 0 .46-.35.76-.78.76-.35 0-.59-.19-.92-.67-.54-.81-1.51-1.51-3.08-1.51-1.81 0-2.89.92-2.89 2.24 0 1.03.7 1.81 2.4 2.24l1.73.46c2.51.62 4.1 1.65 4.1 3.75 0 2.65-2.54 4.08-5.34 4.08-2.24 0-4.18-1-4.8-2.43-.11-.21-.32-.51-.32-.92 0-.49.3-.84.76-.84.43 0 .65.24.84.65.57 1.35 1.97 1.92 3.54 1.92 1.89 0 3.54-.76 3.54-2.35 0-1.27-1-1.86-2.46-2.24l-2.16-.57c-2.51-.65-3.62-2.02-3.62-3.72 0-2.27 2.02-3.83 4.72-3.83 2.08 0 3.67.89 4.51 2.27l-.01-.02zm16.6 4.91c0 4.83-3.86 7.21-6.99 7.21s-6.96-2.38-6.96-7.21 3.86-7.18 6.96-7.18 6.99 2.38 6.99 7.18zm-12.12 0c0 3.78 2.78 5.59 5.13 5.59s5.16-1.81 5.16-5.59-2.78-5.56-5.16-5.56-5.13 1.81-5.13 5.56zm27.19-1.24v7.45c0 .49-.41.94-.92.94s-.92-.46-.92-.94v-7.45c0-3.13-1.92-4.27-3.91-4.27-2.86 0-4.43 2.35-4.72 4.13v7.58c0 .49-.41.94-.92.94s-.92-.46-.92-.94V216.7c0-.51.41-.95.92-.95s.92.43.92.95v2.43c.16-.89 1.86-3.43 5.16-3.43 2.51 0 5.32 1.46 5.32 5.91l-.01.01zm14.38-2.95v-1.97c0-.51.43-.95.92-.95.54 0 .95.43.95.95v12.39a.98.98 0 0 1-.95.95c-.49 0-.92-.46-.92-.95v-2.27c-.78 1.94-2.75 3.24-5.02 3.24-3.02 0-6.69-2.35-6.69-7.21s3.67-7.18 6.69-7.18c2.08 0 4.1 1.03 5.02 3h0zm.11 4.18c0-3.89-2.65-5.56-4.94-5.56s-5.05 1.78-5.05 5.56 2.75 5.59 5.05 5.59 4.94-1.78 4.94-5.59zm10.8 6c0 .89-1.35 1.16-2.38 1.16-1.3 0-2.54-.49-2.54-2.67v-9.93h-1.32a.78.78 0 1 1 0-1.56h1.32v-2.46a.91.91 0 0 1 .92-.92c.52 0 .92.4.92.92v2.46h2.27c.46 0 .81.3.81.78s-.35.78-.81.78h-2.27v9.83c0 .86.38 1.19 1.08 1.19.43 0 .78-.11 1.08-.19.51-.16.92.16.92.62v-.01zm2.13-17.57c0-.51.43-.95.95-.95s.94.43.94.95-.43.94-.94.94-.95-.43-.95-.94zm1.86 5.43v12.39c0 .51-.41.95-.92.95s-.92-.43-.92-.95v-12.39c0-.51.41-.95.92-.95s.92.43.92.95h0zm16.65 6.15c0 4.83-3.86 7.21-6.99 7.21s-6.96-2.38-6.96-7.21 3.86-7.18 6.96-7.18 6.99 2.38 6.99 7.18zm-12.12 0c0 3.78 2.78 5.59 5.13 5.59s5.16-1.81 5.16-5.59-2.78-5.56-5.16-5.56-5.13 1.81-5.13 5.56zm27.19-1.24v7.45c0 .49-.41.94-.92.94s-.92-.46-.92-.94v-7.45c0-3.13-1.92-4.27-3.91-4.27-2.86 0-4.43 2.35-4.72 4.13v7.58c0 .49-.41.94-.92.94s-.92-.46-.92-.94V216.7c0-.51.41-.95.92-.95s.92.43.92.95v2.43c.16-.89 1.86-3.43 5.16-3.43 2.51 0 5.32 1.46 5.32 5.91l-.01.01zm-220.81 50.5c0 3.38-2.43 5.32-6.96 5.32h-4.83c-.59 0-1.03-.43-1.03-1.03v-16.87c0-.59.43-1 1.03-1h4.72c3.78 0 5.94 1.83 5.94 4.7 0 1.73-.84 3.16-2.92 3.83 2.86.89 4.05 2.7 4.05 5.05zm-10.93-5.67h3.86c2.7 0 4.1-.97 4.1-3.05 0-1.97-1.4-3.24-4.1-3.24h-3.86v6.29zm9.1 5.56c0-2.43-1.7-4.05-5.13-4.05h-3.97v7.85h3.97c3.46 0 5.13-1.32 5.13-3.81v.01z"/><use xlink:href="#P"/><use xlink:href="#Q"/><use xlink:href="#R"/><path d="M225.92 270.42c0 4.83-3.86 7.21-6.99 7.21s-6.96-2.38-6.96-7.21 3.86-7.18 6.96-7.18 6.99 2.38 6.99 7.18zm-12.12 0c0 3.78 2.78 5.59 5.13 5.59s5.16-1.81 5.16-5.59-2.78-5.56-5.16-5.56-5.13 1.81-5.13 5.56zm-59.29 48.5c0 .35-.27.7-.73 1.05-1.38 1.05-3.08 1.65-5.1 1.65-4.7 0-9.42-3.94-9.42-9.64a9.59 9.59 0 0 1 9.47-9.64c2 0 3.64.59 5.02 1.62.54.38.76.67.76 1.08 0 .51-.41.86-.86.86-.38 0-.65-.22-1.03-.51-.86-.73-2.35-1.27-3.91-1.27-3.81 0-7.5 3.27-7.5 7.86s3.73 7.85 7.48 7.85c1.59 0 3.08-.54 3.94-1.27.38-.3.67-.51 1.03-.51.46 0 .86.35.86.86l-.01.01z"/><use xlink:href="#S"/><use xlink:href="#T"/><use xlink:href="#U"/><path d="M208.29 318.44c0 .32-.22.54-.41.78-1.19 1.57-3 2.35-4.99 2.35-3.16 0-6.96-2.38-6.96-7.15s3.81-7.18 6.96-7.18c2 0 3.81.78 4.99 2.35.19.24.41.46.41.78 0 .46-.38.76-.81.76-.32 0-.62-.19-.84-.49-.84-1.19-2.32-1.78-3.67-1.78-2.46 0-5.21 1.81-5.21 5.56s2.75 5.53 5.21 5.53c1.35 0 2.83-.59 3.67-1.78.22-.3.51-.49.84-.49.43 0 .81.3.81.76z"/><use xlink:href="#V"/><path d="M237.64 310.23v-1.97a.95.95 0 0 1 .92-.94.94.94 0 0 1 .95.94v12.39a.98.98 0 0 1-.95.95c-.49 0-.92-.46-.92-.95v-2.27c-.78 1.94-2.75 3.24-5.02 3.24-3.02 0-6.69-2.35-6.69-7.21s3.67-7.18 6.69-7.18c2.08 0 4.1 1.03 5.02 3zm.11 4.18c0-3.89-2.65-5.56-4.94-5.56s-5.05 1.78-5.05 5.56 2.75 5.59 5.05 5.59 4.94-1.78 4.94-5.59zm4.83 5.89c0-.62.51-1.13 1.16-1.13s1.13.51 1.13 1.13-.51 1.16-1.13 1.16a1.17 1.17 0 0 1-1.16-1.16z"/><use xlink:href="#W"/><path d="M277.55 314.42c0 4.83-3.86 7.21-6.99 7.21s-6.96-2.38-6.96-7.21 3.86-7.18 6.96-7.18 6.99 2.38 6.99 7.18zm-12.12 0c0 3.78 2.78 5.59 5.13 5.59s5.16-1.81 5.16-5.59-2.78-5.56-5.16-5.56-5.13 1.81-5.13 5.56zm20.27 5.99c0 .89-1.35 1.16-2.38 1.16-1.3 0-2.54-.49-2.54-2.67v-9.93h-1.32a.78.78 0 1 1 0-1.56h1.32v-2.46a.91.91 0 0 1 .92-.92c.52 0 .92.4.92.92v2.46h2.27c.46 0 .81.3.81.78s-.35.78-.81.78h-2.27v9.82c0 .86.38 1.19 1.08 1.19.43 0 .78-.11 1.08-.19.51-.16.92.16.92.62zm-133 26.05c.51 0 .92.43.92.95v17.17c0 .51-.41.94-.92.94-.54 0-.94-.43-.94-.94v-7.53h-10.34v7.53c0 .51-.43.94-.94.94a.94.94 0 0 1-.95-.94v-17.17a.95.95 0 0 1 .95-.95c.54 0 .94.43.94.95v7.99h10.34v-7.99a.94.94 0 0 1 .94-.95zm15.72 7.77v-1.97a.95.95 0 0 1 .92-.94.94.94 0 0 1 .95.94v12.39a.98.98 0 0 1-.95.95c-.49 0-.92-.46-.92-.95v-2.27c-.78 1.94-2.75 3.24-5.02 3.24-3.02 0-6.69-2.35-6.69-7.21s3.67-7.18 6.69-7.18c2.08 0 4.1 1.03 5.02 3zm.11 4.18c0-3.89-2.65-5.56-4.94-5.56s-5.05 1.78-5.05 5.56 2.75 5.59 5.05 5.59 4.94-1.78 4.94-5.59zm14.06-4.91c.16.27.24.49.24.73 0 .46-.35.76-.78.76-.35 0-.59-.19-.92-.67-.54-.81-1.51-1.51-3.08-1.51-1.81 0-2.89.92-2.89 2.24 0 1.03.7 1.81 2.4 2.24l1.73.46c2.51.62 4.1 1.65 4.1 3.75 0 2.65-2.54 4.08-5.34 4.08-2.24 0-4.18-1-4.8-2.43-.11-.22-.32-.51-.32-.92 0-.49.3-.84.76-.84.43 0 .65.24.84.65.57 1.35 1.97 1.92 3.54 1.92 1.89 0 3.54-.76 3.54-2.35 0-1.27-1-1.86-2.46-2.24l-2.16-.57c-2.51-.65-3.62-2.02-3.62-3.72 0-2.27 2.02-3.83 4.72-3.83 2.08 0 3.67.89 4.51 2.27l-.01-.02zm15.75 3.68v7.45c0 .49-.41.95-.92.95s-.92-.46-.92-.95v-7.45c0-3.13-1.92-4.27-3.91-4.27-2.86 0-4.43 2.35-4.72 4.13v7.58c0 .49-.41.95-.92.95s-.92-.46-.92-.95v-17.54a.93.93 0 0 1 .92-.92.93.93 0 0 1 .92.92v7.61c.16-.89 1.86-3.43 5.16-3.43 2.51 0 5.32 1.46 5.32 5.91l-.01.01zm16.96 1.24c0 4.86-3.67 7.21-6.69 7.21-2.27 0-4.24-1.3-5.02-3.24v2.27c0 .49-.43.95-.92.95-.51 0-.95-.46-.95-.95v-17.54c0-.51.43-.95.92-.95.51 0 .92.43.92.95v4.94c.03.05.03.13.03.22v1.97c.92-1.97 2.94-3 5.02-3 3.02 0 6.69 2.38 6.69 7.18v-.01zm-1.84 0c0-3.78-2.75-5.56-5.05-5.56s-4.94 1.67-4.94 5.56 2.65 5.59 4.94 5.59 5.05-1.78 5.05-5.59zm17.89 0c0 4.83-3.86 7.21-6.99 7.21s-6.96-2.38-6.96-7.21 3.86-7.18 6.96-7.18 6.99 2.38 6.99 7.18zm-12.12 0c0 3.78 2.78 5.59 5.13 5.59s5.16-1.81 5.16-5.59-2.78-5.56-5.16-5.56-5.13 1.81-5.13 5.56zm20.27 5.99c0 .89-1.35 1.16-2.38 1.16-1.3 0-2.54-.49-2.54-2.67v-9.93h-1.32a.78.78 0 1 1 0-1.56h1.32v-2.46a.91.91 0 0 1 .92-.92c.52 0 .92.4.92.92v2.46h2.27c.46 0 .81.3.81.78s-.35.78-.81.78h-2.27v9.82c0 .86.38 1.19 1.08 1.19.43 0 .78-.11 1.08-.19.51-.16.92.16.92.62zm-88.9 28.75c.24.41.35.67.35.95a.75.75 0 0 1-.78.78c-.43 0-.67-.24-.89-.54-.76-1.29-1.89-2.29-3.97-2.29-2.29 0-3.83 1.13-3.83 3.02 0 1.65 1.16 2.62 3.08 3.38l1.7.67c3.24 1.3 5.51 2.43 5.51 5.32 0 3.37-3.29 5.18-6.4 5.18-2.51 0-5.05-1.19-6.1-3.37-.11-.22-.27-.49-.27-.78 0-.49.3-.86.81-.86.46 0 .76.27.94.62.86 1.73 2.56 2.67 4.64 2.67 2.19 0 4.48-1 4.48-3.46 0-2.13-1.73-2.83-3.86-3.67l-1.89-.76c-2.62-1.03-4.51-2.43-4.51-4.91 0-2.86 2.54-4.75 5.67-4.75 2.59 0 4.37 1.35 5.32 2.81v-.01zm17.6 9.26c0 4.86-3.67 7.21-6.69 7.21-2.27 0-4.24-1.3-5.02-3.24v2.27c0 .08 0 .13-.03.22v4.89a.93.93 0 0 1-.92.92.93.93 0 0 1-.92-.92v-17.49a.94.94 0 0 1 .95-.94.95.95 0 0 1 .92.94v1.97c.92-1.97 2.94-3 5.02-3 3.02 0 6.69 2.38 6.69 7.18v-.01zm-1.84 0c0-3.78-2.75-5.56-5.05-5.56s-4.94 1.67-4.94 5.56 2.65 5.59 4.94 5.59 5.05-1.78 5.05-5.59zm15.65-4.19v-1.97a.95.95 0 0 1 .92-.94.94.94 0 0 1 .95.94v12.39a.98.98 0 0 1-.95.95c-.49 0-.92-.46-.92-.95v-2.27c-.78 1.94-2.75 3.24-5.02 3.24-3.02 0-6.69-2.35-6.69-7.21s3.67-7.18 6.69-7.18c2.08 0 4.1 1.03 5.02 3zm.11 4.18c0-3.89-2.65-5.56-4.94-5.56s-5.05 1.78-5.05 5.56 2.75 5.59 5.05 5.59 4.94-1.78 4.94-5.59zm27.96-1.23v7.45c0 .49-.4.95-.92.95-.49 0-.92-.46-.92-.95v-7.45c0-3.13-1.92-4.27-3.89-4.27-2.89 0-4.45 2.35-4.75 4.13v7.58c0 .49-.41.95-.92.95s-.92-.46-.92-.95v-7.45c0-3.13-1.92-4.27-3.91-4.27-2.86 0-4.43 2.35-4.72 4.13v7.58c0 .49-.41.95-.92.95s-.92-.46-.92-.95v-12.36c0-.51.41-.94.92-.94s.92.43.92.94v2.43c.16-.89 1.86-3.43 5.16-3.43 2 0 4.21.92 4.99 3.59.78-1.7 2.59-3.59 5.51-3.59 2.51 0 5.29 1.46 5.29 5.91v.02zm24.92-1.17c0 5.94-3.72 9.42-9.42 9.42h-4.05c-.59 0-1.03-.43-1.03-1.03v-16.87c0-.59.43-1 1.03-1h4.05c5.7 0 9.42 3.46 9.42 9.47v.01zm-1.86 0c0-5.18-2.78-7.85-7.56-7.85h-3.19v15.66h3.19c4.78 0 7.56-2.7 7.56-7.8v-.01zm17.82 2.08c0 .7-.43 1.05-1.19 1.05h-10.53c.22 3.32 2.78 4.86 5.24 4.86 1.3 0 2.48-.4 3.4-1.16.35-.27.57-.4.81-.4a.69.69 0 0 1 .73.73c0 .24-.11.49-.51.86-1.13 1.03-2.78 1.54-4.48 1.54-3.4 0-7.07-2.29-7.07-7.15s3.78-7.18 6.86-7.18 6.75 2.4 6.75 6.86l-.01-.01zm-11.71-.43h9.93c-.22-3.29-2.78-4.8-4.97-4.8s-4.72 1.51-4.97 4.8h.01zm22.18-10.2c0 .41-.32.73-.7.73-.24 0-.54-.11-.84-.27-.38-.24-.94-.49-1.75-.49-1.54 0-2.43.94-2.43 2.92v1.05h3.4c.46 0 .81.3.81.78s-.35.78-.81.78h-3.4v11.69c0 .49-.41.95-.92.95s-.92-.46-.92-.95v-11.69h-1a.78.78 0 1 1 0-1.56h1v-1.11c0-3.51 2.29-4.48 4.16-4.48 1.24 0 2.27.41 3 .94.22.16.4.41.4.7v.01zm13.3 10.63c0 .7-.43 1.05-1.19 1.05h-10.53c.22 3.32 2.78 4.86 5.24 4.86 1.3 0 2.48-.4 3.4-1.16.35-.27.57-.4.81-.4a.69.69 0 0 1 .73.73c0 .24-.11.49-.51.86-1.13 1.03-2.78 1.54-4.48 1.54-3.4 0-7.07-2.29-7.07-7.15s3.78-7.18 6.86-7.18 6.75 2.4 6.75 6.86l-.01-.01zm-11.71-.43h9.93c-.22-3.29-2.78-4.8-4.97-4.8s-4.72 1.51-4.97 4.8h.01z"/><use xlink:href="#X"/><path d="M305.88 391.11v17.54a.98.98 0 0 1-.95.95c-.49 0-.92-.46-.92-.95v-2.27c-.78 1.94-2.75 3.24-5.02 3.24-3.02 0-6.69-2.35-6.69-7.21s3.67-7.18 6.69-7.18c2.08 0 4.1 1.03 5.02 3v-1.97c0-.08 0-.16.03-.22v-4.94c0-.51.41-.95.92-.95.49 0 .92.43.92.95v.01zm-1.75 11.31c0-3.89-2.65-5.56-4.94-5.56s-5.05 1.78-5.05 5.56 2.75 5.59 5.05 5.59 4.94-1.78 4.94-5.59zm18.12-.33c0 .7-.43 1.05-1.19 1.05h-10.53c.22 3.32 2.78 4.86 5.24 4.86 1.3 0 2.48-.4 3.4-1.16.35-.27.57-.4.81-.4a.69.69 0 0 1 .73.73c0 .24-.11.49-.51.86-1.13 1.03-2.78 1.54-4.48 1.54-3.4 0-7.07-2.29-7.07-7.15s3.78-7.18 6.86-7.18 6.75 2.4 6.75 6.86l-.01-.01zm-11.71-.43h9.93c-.22-3.29-2.78-4.8-4.97-4.8s-4.72 1.51-4.97 4.8h.01z"/><use xlink:href="#Y"/><path d="M152.3 440.34c0 3.62-2.59 5.88-6.8 5.88h-4.08v6.37c0 .51-.43.95-.94.95-.54 0-.95-.43-.95-.95v-17.06c0-.59.43-1 1.03-1h4.94c4.21 0 6.8 2.4 6.8 5.8v.01zm-1.83 0c0-2.62-1.89-4.16-5.02-4.16h-4.02v8.42h4.02c3.13 0 5.02-1.4 5.02-4.26zm15.09 1.89v-1.97a.95.95 0 0 1 .92-.94.94.94 0 0 1 .95.94v12.39a.98.98 0 0 1-.95.95c-.49 0-.92-.46-.92-.95v-2.27c-.78 1.94-2.75 3.24-5.02 3.24-3.02 0-6.69-2.35-6.69-7.21s3.67-7.18 6.69-7.18c2.08 0 4.1 1.03 5.02 3zm.11 4.18c0-3.89-2.65-5.56-4.94-5.56s-5.05 1.78-5.05 5.56 2.75 5.59 5.05 5.59 4.94-1.78 4.94-5.59zm17.49-1.23v7.45c0 .49-.41.95-.92.95s-.92-.46-.92-.95v-7.45c0-3.13-1.92-4.27-3.91-4.27-2.86 0-4.43 2.35-4.72 4.13v7.58c0 .49-.41.95-.92.95s-.92-.46-.92-.95v-12.36c0-.51.41-.94.92-.94s.92.43.92.94v2.43c.16-.89 1.86-3.43 5.16-3.43 2.51 0 5.32 1.46 5.32 5.91l-.01.01zm16.24-10.07v17.54a.98.98 0 0 1-.95.95c-.49 0-.92-.46-.92-.95v-2.27c-.78 1.94-2.75 3.24-5.02 3.24-3.02 0-6.69-2.35-6.69-7.21s3.67-7.18 6.69-7.18c2.08 0 4.1 1.03 5.02 3v-1.97c0-.08 0-.16.03-.22v-4.94c0-.51.41-.95.92-.95.49 0 .92.43.92.95v.01zm-1.75 11.31c0-3.89-2.65-5.56-4.94-5.56s-5.05 1.78-5.05 5.56 2.75 5.59 5.05 5.59 4.94-1.78 4.94-5.59zm18.11-.33c0 .7-.43 1.05-1.19 1.05h-10.53c.22 3.32 2.78 4.86 5.24 4.86 1.29 0 2.48-.4 3.4-1.16.35-.27.57-.4.81-.4a.69.69 0 0 1 .73.73c0 .24-.11.49-.51.86-1.13 1.03-2.78 1.54-4.48 1.54-3.4 0-7.07-2.29-7.07-7.15s3.78-7.18 6.86-7.18 6.75 2.4 6.75 6.86l-.01-.01zm-11.72-.43h9.93c-.22-3.29-2.78-4.8-4.97-4.8s-4.72 1.51-4.97 4.8h.01zm23.43-4.16l-8.5 10.31h8.26c.43 0 .84.35.84.81s-.41.81-.84.81h-8.93c-1.16 0-1.78-1.13-.92-2.11l8.5-10.31h-7.77a.8.8 0 0 1-.81-.84c0-.43.35-.78.81-.78h8.45c1.13 0 1.78 1.13.92 2.11h-.01zm28.21 3.57c-.22 5.37-3.91 8.56-8.5 8.56s-9.5-3.94-9.5-9.64a9.59 9.59 0 0 1 9.47-9.64c2 0 3.64.59 5.02 1.62.54.38.76.67.76 1.08 0 .51-.41.86-.86.86-.38 0-.65-.22-1.03-.51-.86-.73-2.35-1.27-3.91-1.27-3.81 0-7.5 3.27-7.5 7.86s3.73 7.85 7.56 7.85c3.51 0 6.37-2.35 6.69-6.23h-4.97c-.49 0-.86-.38-.86-.81a.85.85 0 0 1 .86-.84h5.86c.65 0 .97.46.92 1.11h-.01zm2.79 2.67v-7.45c0-.49.41-.94.92-.94s.92.46.92.94v7.45c0 3.13 1.92 4.26 3.91 4.26 2.86 0 4.43-2.35 4.72-4.13v-7.59c0-.49.41-.94.92-.94s.92.46.92.94v12.36c0 .51-.41.95-.92.95s-.92-.43-.92-.95v-2.43c-.16.89-1.86 3.43-5.16 3.43-2.51 0-5.32-1.46-5.32-5.91l.01.01zm26.79-5.51v-1.97a.95.95 0 0 1 .92-.94.94.94 0 0 1 .95.94v12.39a.98.98 0 0 1-.95.95c-.49 0-.92-.46-.92-.95v-2.27c-.78 1.94-2.75 3.24-5.02 3.24-3.02 0-6.69-2.35-6.69-7.21s3.67-7.18 6.69-7.18c2.08 0 4.1 1.03 5.02 3zm.11 4.18c0-3.89-2.65-5.56-4.94-5.56s-5.05 1.78-5.05 5.56 2.75 5.59 5.05 5.59 4.94-1.78 4.94-5.59zm13.06-6.26c0 .54-.46.89-1.24.89-2.67 0-4.51 2.13-4.8 4v7.58c0 .51-.41.95-.92.95s-.92-.43-.92-.95v-12.36c0-.51.41-.94.92-.94s.92.43.92.94v2.43c.16-.89 1.94-3.43 4.94-3.43.7 0 1.11.38 1.11.89h-.01zm14.33-5.04v17.54a.98.98 0 0 1-.95.95c-.49 0-.92-.46-.92-.95v-2.27c-.78 1.94-2.75 3.24-5.02 3.24-3.02 0-6.69-2.35-6.69-7.21s3.67-7.18 6.69-7.18c2.08 0 4.1 1.03 5.02 3v-1.97c0-.08 0-.16.03-.22v-4.94c0-.51.41-.95.92-.95.49 0 .92.43.92.95v.01zm-1.75 11.31c0-3.89-2.65-5.56-4.94-5.56s-5.05 1.78-5.05 5.56 2.75 5.59 5.05 5.59 4.94-1.78 4.94-5.59zm25 1.7c0 3.38-2.43 5.32-6.96 5.32h-4.83c-.59 0-1.03-.43-1.03-1.03v-16.87c0-.59.43-1 1.03-1h4.72c3.78 0 5.94 1.83 5.94 4.7 0 1.73-.84 3.16-2.92 3.83 2.86.89 4.05 2.7 4.05 5.05h0zm-10.93-5.67h3.86c2.7 0 4.1-.97 4.1-3.05 0-1.97-1.4-3.24-4.1-3.24h-3.86v6.29zm9.1 5.56c0-2.43-1.7-4.05-5.13-4.05h-3.97v7.85h3.97c3.46 0 5.13-1.32 5.13-3.81v.01zm17.7-1.92c0 .7-.43 1.05-1.19 1.05h-10.53c.22 3.32 2.78 4.86 5.24 4.86 1.3 0 2.48-.4 3.4-1.16.35-.27.57-.4.81-.4a.69.69 0 0 1 .73.73c0 .24-.11.49-.51.86-1.13 1.03-2.78 1.54-4.48 1.54-3.4 0-7.07-2.29-7.07-7.15s3.78-7.18 6.86-7.18 6.75 2.4 6.75 6.86l-.01-.01zm-11.71-.43h9.93c-.22-3.29-2.78-4.8-4.97-4.8s-4.72 1.51-4.97 4.8h.01zm19.77 6.75c0 .89-1.35 1.16-2.38 1.16-1.3 0-2.54-.49-2.54-2.67v-9.93h-1.32a.78.78 0 1 1 0-1.56h1.32v-2.46a.91.91 0 0 1 .92-.92c.52 0 .92.4.92.92v2.46h2.27c.46 0 .81.3.81.78s-.35.78-.81.78h-2.27v9.82c0 .86.38 1.19 1.08 1.19.43 0 .78-.11 1.08-.19.51-.16.92.16.92.62zm12.75-10.18v-1.97a.95.95 0 0 1 .92-.94.94.94 0 0 1 .95.94v12.39a.98.98 0 0 1-.95.95c-.49 0-.92-.46-.92-.95v-2.27c-.78 1.94-2.75 3.24-5.02 3.24-3.02 0-6.69-2.35-6.69-7.21s3.67-7.18 6.69-7.18c2.08 0 4.1 1.03 5.02 3zm.11 4.18c0-3.89-2.65-5.56-4.94-5.56s-5.05 1.78-5.05 5.56 2.75 5.59 5.05 5.59 4.94-1.78 4.94-5.59z"/></g><g fill="#448eff"><use xlink:href="#Z"/><path d="M92.33 307.84c1.81-.68 10.35 9.45 10.35 9.45.35.8 13.4-18.44 13.4-18.44.7-1.05 2.49-.44 2.31.79-1 6.64-5.01 14.68-14.85 24.99-.91.96-9-4.75-11.56-12.34-.56-1.67-1.37-3.8.36-4.46l-.01.01zm0 43.85c1.81-.68 10.35 9.45 10.35 9.45.35.8 13.4-18.44 13.4-18.44.7-1.05 2.49-.44 2.31.79-1 6.64-5.01 14.68-14.85 24.99-.91.96-9-4.75-11.56-12.34-.56-1.67-1.37-3.8.36-4.46l-.01.01zm0 43.85c1.81-.68 10.35 9.45 10.35 9.45.35.8 13.4-18.44 13.4-18.44.7-1.05 2.49-.44 2.31.79-1 6.64-5.01 14.68-14.85 24.99-.91.96-9-4.75-11.56-12.34-.56-1.67-1.37-3.8.36-4.46l-.01.01zm0 43.84c1.81-.68 10.35 9.45 10.35 9.45.35.8 13.4-18.44 13.4-18.44.7-1.05 2.49-.44 2.31.79-1 6.64-5.01 14.68-14.85 24.99-.91.96-9-4.75-11.56-12.34-.56-1.67-1.37-3.8.36-4.46l-.01.01z"/><use xlink:href="#a"/><path d="M149.72 103.14v10.8c0 2.34-1.92 4.2-4.26 4.2s-4.2-1.86-4.2-4.2v-10.8c0-4.15-1.92-6.01-4.73-6.01-4.36 0-5.32 4.42-5.32 5v11.81c0 2.34-1.97 4.2-4.25 4.2s-4.26-1.86-4.26-4.2V94.36c0-2.39 1.97-4.31 4.26-4.31s4.25 1.92 4.25 4.31v1.65c.16-1.97 3.19-6.06 8.62-6.06s9.89 3.83 9.89 13.19h0zm22.4 10.64c0 2.77-2.34 4.36-6.65 4.36s-8.3-1.28-8.3-10.05V96.76h-1.06c-2.07 0-3.4-1.38-3.4-3.24s1.33-3.3 3.4-3.3h1.06v-3.09c0-2.34 1.97-4.25 4.25-4.25s4.26 1.92 4.26 4.25v3.09h3.09c2.07 0 3.35 1.38 3.35 3.3s-1.28 3.24-3.35 3.24h-3.09v11.76c0 1.44.43 2.34 1.44 2.34.53 0 1.44-.21 2.02-.16 1.86 0 2.98 1.12 2.98 3.08h0z"/><use xlink:href="#b"/><path d="M209.86 103.36c0 1.97-1.65 3.51-3.46 3.51h-12.39c-1.86 0-3.51-1.54-3.51-3.51s1.65-3.51 3.51-3.51h12.39c1.81 0 3.46 1.6 3.46 3.51h0zm25.39-9.58c0 2.39-1.76 3.99-5.37 3.99s-5.96 2.82-6.06 4.36v11.81c0 2.29-1.97 4.2-4.26 4.2s-4.26-1.92-4.26-4.2V94.36c0-2.39 1.97-4.31 4.26-4.31s4.26 1.92 4.26 4.31v1.65c.16-1.97 3.35-6.06 7.61-6.06 2.55 0 3.83 1.81 3.83 3.83h-.01zm30.45.48v19.73c0 2.34-2.07 4.2-4.36 4.2-1.97 0-3.72-1.38-4.15-3.3-.8 1.38-3.14 3.35-7.02 3.35-5.85 0-12.77-4.47-12.77-14.2s7.02-14.15 12.77-14.15c3.62 0 6.22 2.02 6.91 3.88v.48c0-2.29 1.97-4.2 4.26-4.2s4.36 1.92 4.36 4.2v.01zm-8.24 9.79c0-5.21-3.35-6.92-5.69-6.92-3.03 0-5.85 2.39-5.85 6.92s2.82 6.97 5.85 6.97c2.34 0 5.69-1.65 5.69-6.97zm14.5-20.48c0-2.29 2.02-4.2 4.31-4.2s4.31 1.92 4.31 4.2-2.02 4.15-4.31 4.15-4.31-1.91-4.31-4.15zm8.56 10.8v19.52c0 2.39-1.97 4.31-4.26 4.31s-4.26-1.92-4.26-4.31V94.37c0-2.39 1.97-4.31 4.26-4.31s4.26 1.92 4.26 4.31zm33.33-10.27v29.89c0 2.34-2.07 4.2-4.36 4.2-1.97 0-3.72-1.38-4.15-3.3-.8 1.38-3.14 3.35-7.02 3.35-5.85 0-12.77-4.47-12.77-14.2s7.02-14.15 12.77-14.15c3.62 0 6.22 2.02 6.91 3.88v.48c0-.21 0-.43.05-.64v-9.52c0-2.29 1.91-4.2 4.2-4.2s4.36 1.91 4.36 4.2l.01.01zm-8.24 19.95c0-5.21-3.35-6.92-5.69-6.92-3.03 0-5.85 2.39-5.85 6.92s2.82 6.97 5.85 6.97c2.34 0 5.69-1.65 5.69-6.97z"/></g></g><defs><clipPath id="A"><path fill="#fff" d="M0 0h476.58v512.55H0z"/></clipPath><path id="B" d="M101.6 151.99c0 3.62-2.59 5.88-6.8 5.88h-4.08v6.37c0 .51-.43.95-.94.95-.54 0-.95-.43-.95-.95v-17.06c0-.59.43-1 1.03-1h4.94c4.21 0 6.8 2.4 6.8 5.8v.01zm-1.83 0c0-2.62-1.89-4.16-5.02-4.16h-4.02v8.42h4.02c3.13 0 5.02-1.4 5.02-4.26z"/><path id="C" d="M111.84 151.8c0 .54-.46.89-1.24.89-2.67 0-4.51 2.13-4.8 4v7.58c0 .51-.41.94-.92.94s-.92-.43-.92-.94v-12.36c0-.51.41-.94.92-.94s.92.43.92.94v2.43c.16-.89 1.94-3.43 4.94-3.43.7 0 1.11.38 1.11.89h-.01z"/><path id="D" d="M126.5 158.06c0 4.83-3.86 7.21-6.99 7.21s-6.96-2.38-6.96-7.21 3.86-7.18 6.96-7.18 6.99 2.38 6.99 7.18zm-12.12 0c0 3.78 2.78 5.59 5.13 5.59s5.16-1.81 5.16-5.59-2.78-5.56-5.16-5.56-5.13 1.81-5.13 5.56z"/><path id="E" d="M134.65 164.05c0 .89-1.35 1.16-2.38 1.16-1.3 0-2.54-.49-2.54-2.67v-9.93h-1.32a.73.73 0 1 1 0-1.56h1.32v-2.46a.91.91 0 1 1 1.84 0v2.46h2.27c.46 0 .81.3.81.78s-.35.78-.81.78h-2.27v9.83c0 .86.38 1.19 1.08 1.19.43 0 .78-.11 1.08-.19.51-.16.92.16.92.62v-.01z"/><path id="F" d="M275.62 156.82v7.45c0 .49-.4.94-.92.94-.49 0-.92-.46-.92-.94v-7.45c0-3.13-1.92-4.26-3.89-4.26-2.89 0-4.45 2.35-4.75 4.13v7.58c0 .49-.41.94-.92.94s-.92-.46-.92-.94v-7.45c0-3.13-1.92-4.26-3.91-4.26-2.86 0-4.43 2.35-4.72 4.13v7.58c0 .49-.41.94-.92.94s-.92-.46-.92-.94v-12.36c0-.51.41-.94.92-.94s.92.43.92.94v2.43c.16-.89 1.86-3.43 5.16-3.43 2 0 4.21.92 4.99 3.59.78-1.7 2.59-3.59 5.51-3.59 2.51 0 5.29 1.46 5.29 5.91h0z"/><path id="G" d="M337.42 153.15c.16.27.24.49.24.73 0 .46-.35.76-.78.76-.35 0-.59-.19-.92-.67-.54-.81-1.51-1.51-3.08-1.51-1.81 0-2.89.92-2.89 2.24 0 1.03.7 1.81 2.4 2.24l1.73.46c2.51.62 4.1 1.65 4.1 3.75 0 2.64-2.54 4.08-5.34 4.08-2.24 0-4.18-1-4.8-2.43-.11-.22-.32-.51-.32-.92 0-.49.3-.84.76-.84.43 0 .65.24.84.65.57 1.35 1.97 1.92 3.54 1.92 1.89 0 3.54-.76 3.54-2.35 0-1.27-1-1.86-2.46-2.24l-2.16-.57c-2.51-.65-3.62-2.03-3.62-3.73 0-2.27 2.02-3.83 4.72-3.83 2.08 0 3.67.89 4.51 2.27l-.01-.01z"/><path id="H" d="M152.12 200.23l1.57-4.32c.16-.51.46-.7.89-.7h.78c.51 0 .62.3.38.78l-2.13 4.43c-.19.4-.49.51-.86.51h-.16c-.43 0-.62-.3-.46-.7h-.01z"/><path id="I" d="M188.37 189.22v7.45c0 .49-.4.94-.92.94-.49 0-.92-.46-.92-.94v-7.45c0-3.13-1.92-4.26-3.89-4.26-2.89 0-4.45 2.35-4.75 4.13v7.59c0 .49-.41.94-.92.94s-.92-.46-.92-.94v-7.45c0-3.13-1.92-4.26-3.91-4.26-2.86 0-4.43 2.35-4.72 4.13v7.59c0 .49-.41.94-.92.94s-.92-.46-.92-.94v-12.36c0-.51.41-.95.92-.95s.92.43.92.95v2.43c.16-.89 1.86-3.43 5.16-3.43 2 0 4.21.92 4.99 3.59.78-1.7 2.59-3.59 5.51-3.59 2.51 0 5.29 1.46 5.29 5.91v-.02z"/><path id="J" d="M202.79 186.28v-1.97c0-.51.43-.95.92-.95.54 0 .95.43.95.95v12.39a.97.97 0 0 1-.95.94c-.49 0-.92-.46-.92-.94v-2.27c-.78 1.94-2.75 3.24-5.02 3.24-3.02 0-6.69-2.35-6.69-7.21s3.67-7.18 6.69-7.18c2.08 0 4.1 1.03 5.02 3h0zm.11 4.18c0-3.89-2.65-5.56-4.94-5.56s-5.05 1.78-5.05 5.56 2.75 5.59 5.05 5.59 4.94-1.78 4.94-5.59z"/><path id="K" d="M216.96 185.55c.16.27.24.49.24.73 0 .46-.35.76-.78.76-.35 0-.59-.19-.92-.68-.54-.81-1.51-1.51-3.08-1.51-1.81 0-2.89.92-2.89 2.24 0 1.03.7 1.81 2.4 2.24l1.73.46c2.51.62 4.1 1.65 4.1 3.75 0 2.65-2.54 4.08-5.34 4.08-2.24 0-4.18-1-4.8-2.43-.11-.22-.32-.51-.32-.92 0-.49.3-.84.76-.84.43 0 .65.24.84.65.57 1.35 1.97 1.92 3.54 1.92 1.89 0 3.54-.76 3.54-2.35 0-1.27-1-1.86-2.46-2.24l-2.16-.57c-2.51-.65-3.62-2.02-3.62-3.73 0-2.27 2.02-3.83 4.72-3.83 2.08 0 3.67.89 4.51 2.27h-.01z"/><path id="L" d="M154.1 218.67v-1.97c0-.51.43-.95.92-.95.54 0 .95.43.95.95v12.39a.98.98 0 0 1-.95.95c-.49 0-.92-.46-.92-.95v-2.27c-.78 1.94-2.75 3.24-5.02 3.24-3.02 0-6.69-2.35-6.69-7.21s3.67-7.18 6.69-7.18c2.08 0 4.1 1.03 5.02 3h0zm.11 4.18c0-3.89-2.65-5.56-4.94-5.56s-5.05 1.78-5.05 5.56 2.75 5.59 5.05 5.59 4.94-1.78 4.94-5.59z"/><path id="M" d="M171.7 221.62v7.45c0 .49-.41.94-.92.94s-.92-.46-.92-.94v-7.45c0-3.13-1.92-4.27-3.91-4.27-2.86 0-4.43 2.35-4.72 4.13v7.58c0 .49-.41.94-.92.94s-.92-.46-.92-.94V216.7c0-.51.41-.95.92-.95s.92.43.92.95v2.43c.16-.89 1.86-3.43 5.16-3.43 2.51 0 5.32 1.46 5.32 5.91l-.01.01z"/><path id="N" d="M187.94 211.55v17.54a.98.98 0 0 1-.95.95c-.49 0-.92-.46-.92-.95v-2.27c-.78 1.94-2.75 3.24-5.02 3.24-3.02 0-6.69-2.35-6.69-7.21s3.67-7.18 6.69-7.18c2.08 0 4.1 1.03 5.02 3v-1.97c0-.08 0-.16.03-.22v-4.94c0-.51.41-.95.92-.95.49 0 .92.43.92.95v.01zm-1.75 11.31c0-3.89-2.65-5.56-4.94-5.56s-5.05 1.78-5.05 5.56 2.75 5.59 5.05 5.59 4.94-1.78 4.94-5.59z"/><path id="O" d="M198.36 211.28c0-.51.43-.95.95-.95s.94.43.94.95-.43.94-.94.94-.95-.43-.95-.94zm1.86 5.43v12.39c0 .51-.41.95-.92.95s-.92-.43-.92-.95v-12.39c0-.51.41-.95.92-.95s.92.43.92.95h0z"/><path id="P" d="M168.23 270.09c0 .7-.43 1.05-1.19 1.05h-10.53c.22 3.32 2.78 4.86 5.24 4.86 1.29 0 2.48-.4 3.4-1.16.35-.27.57-.4.81-.4a.69.69 0 0 1 .73.73c0 .24-.11.49-.51.86-1.13 1.03-2.78 1.54-4.48 1.54-3.4 0-7.07-2.29-7.07-7.15s3.78-7.18 6.86-7.18 6.75 2.4 6.75 6.86l-.01-.01zm-11.72-.43h9.93c-.22-3.29-2.78-4.8-4.97-4.8s-4.72 1.51-4.97 4.8h.01z"/><path id="Q" d="M183.87 270.09c0 .7-.43 1.05-1.19 1.05h-10.53c.22 3.32 2.78 4.86 5.24 4.86 1.3 0 2.48-.4 3.4-1.16.35-.27.57-.4.81-.4a.69.69 0 0 1 .73.73c0 .24-.11.49-.51.86-1.13 1.03-2.78 1.54-4.48 1.54-3.4 0-7.07-2.29-7.07-7.15s3.78-7.18 6.86-7.18 6.75 2.4 6.75 6.86l-.01-.01zm-11.71-.43h9.93c-.22-3.29-2.78-4.8-4.97-4.8s-4.72 1.51-4.97 4.8h.01z"/><path id="R" d="M209.26 269.18v7.45c0 .49-.4.95-.92.95-.49 0-.92-.46-.92-.95v-7.45c0-3.13-1.92-4.27-3.89-4.27-2.89 0-4.45 2.35-4.75 4.13v7.58c0 .49-.41.95-.92.95s-.92-.46-.92-.95v-7.45c0-3.13-1.92-4.27-3.91-4.27-2.86 0-4.43 2.35-4.72 4.13v7.58c0 .49-.41.95-.92.95s-.92-.46-.92-.95v-12.36c0-.51.41-.94.92-.94s.92.43.92.94v2.43c.16-.89 1.86-3.43 5.16-3.43 2 0 4.21.92 4.99 3.59.78-1.7 2.59-3.59 5.51-3.59 2.51 0 5.29 1.46 5.29 5.91v.02z"/><path id="S" d="M167.87 310.23v-1.97a.95.95 0 0 1 .92-.94.94.94 0 0 1 .95.94v12.39a.98.98 0 0 1-.95.95c-.49 0-.92-.46-.92-.95v-2.27c-.78 1.94-2.75 3.24-5.02 3.24-3.02 0-6.69-2.35-6.69-7.21s3.67-7.18 6.69-7.18c2.08 0 4.1 1.03 5.02 3zm.11 4.18c0-3.89-2.65-5.56-4.94-5.56s-5.05 1.78-5.05 5.56 2.75 5.59 5.05 5.59 4.94-1.78 4.94-5.59z"/><path id="T" d="M186.74 314.42c0 4.86-3.67 7.21-6.69 7.21-2.27 0-4.24-1.3-5.02-3.24v2.27c0 .08 0 .13-.03.22v4.89a.93.93 0 0 1-.92.92.93.93 0 0 1-.92-.92v-17.49a.94.94 0 0 1 .95-.94.95.95 0 0 1 .92.94v1.97c.92-1.97 2.94-3 5.02-3 3.02 0 6.69 2.38 6.69 7.18v-.01zm-1.84 0c0-3.78-2.75-5.56-5.05-5.56s-4.94 1.67-4.94 5.56 2.65 5.59 4.94 5.59 5.05-1.78 5.05-5.59z"/><path id="U" d="M194.88 320.41c0 .89-1.35 1.16-2.38 1.16-1.3 0-2.54-.49-2.54-2.67v-9.93h-1.32a.73.73 0 1 1 0-1.56h1.32v-2.46a.91.91 0 0 1 .92-.92c.52 0 .92.4.92.92v2.46h2.27c.46 0 .81.3.81.78s-.35.78-.81.78h-2.27v9.82c0 .86.38 1.19 1.08 1.19.43 0 .78-.11 1.08-.19.51-.16.92.16.92.62z"/><path id="V" d="M223.26 313.18v7.45c0 .49-.41.95-.92.95s-.92-.46-.92-.95v-7.45c0-3.13-1.92-4.27-3.91-4.27-2.86 0-4.43 2.35-4.72 4.13v7.58c0 .49-.41.95-.92.95s-.92-.46-.92-.95v-17.54a.93.93 0 0 1 .92-.92.93.93 0 0 1 .92.92v7.61c.16-.89 1.86-3.43 5.16-3.43 2.51 0 5.32 1.46 5.32 5.91l-.01.01z"/><path id="W" d="M261.49 314.42c0 4.86-3.67 7.21-6.69 7.21-2.27 0-4.24-1.3-5.02-3.24v2.27c0 .49-.43.95-.92.95-.51 0-.95-.46-.95-.95v-17.54c0-.51.43-.95.92-.95.51 0 .92.43.92.95v4.94c.03.05.03.13.03.22v1.97c.92-1.97 2.94-3 5.02-3 3.02 0 6.69 2.38 6.69 7.18v-.01zm-1.84 0c0-3.78-2.75-5.56-5.05-5.56s-4.94 1.67-4.94 5.56 2.65 5.59 4.94 5.59 5.05-1.78 5.05-5.59z"/><path id="X" d="M289.64 401.18v7.45c0 .49-.41.95-.92.95s-.92-.46-.92-.95v-7.45c0-3.13-1.92-4.27-3.91-4.27-2.86 0-4.43 2.35-4.72 4.13v7.58c0 .49-.41.95-.92.95s-.92-.46-.92-.95v-12.36c0-.51.41-.94.92-.94s.92.43.92.94v2.43c.16-.89 1.86-3.43 5.16-3.43 2.51 0 5.32 1.46 5.32 5.91l-.01.01z"/><path id="Y" d="M332.74 396.15c0 .54-.46.89-1.24.89-2.67 0-4.51 2.13-4.8 4v7.58c0 .51-.41.95-.92.95s-.92-.43-.92-.95v-12.36c0-.51.41-.94.92-.94s.92.43.92.94v2.43c.16-.89 1.94-3.43 4.94-3.43.7 0 1.11.38 1.11.89h-.01z"/><path id="Z" d="M92.33 264c1.81-.68 10.35 9.45 10.35 9.45.35.8 13.4-18.44 13.4-18.44.7-1.05 2.49-.44 2.31.79-1 6.64-5.01 14.68-14.85 24.99-.91.96-9-4.75-11.56-12.34-.56-1.67-1.37-3.8.36-4.46l-.01.01z"/><path id="a" d="M116.39 94.26v19.73c0 2.34-2.07 4.2-4.36 4.2-1.97 0-3.72-1.38-4.15-3.3-.8 1.38-3.14 3.35-7.02 3.35-5.85 0-12.77-4.47-12.77-14.2s7.02-14.15 12.77-14.15c3.62 0 6.22 2.02 6.91 3.88v.48c0-2.29 1.97-4.2 4.26-4.2s4.36 1.92 4.36 4.2v.01zm-8.24 9.79c0-5.21-3.35-6.92-5.69-6.92-3.03 0-5.85 2.39-5.85 6.92s2.82 6.97 5.85 6.97c2.34 0 5.69-1.65 5.69-6.97z"/><path id="b" d="M176.55 83.57c0-2.29 2.02-4.2 4.31-4.2s4.31 1.92 4.31 4.2-2.02 4.15-4.31 4.15-4.31-1.91-4.31-4.15zm8.56 10.8v19.52c0 2.39-1.97 4.31-4.26 4.31s-4.26-1.92-4.26-4.31V94.37c0-2.39 1.97-4.31 4.26-4.31s4.26 1.92 4.26 4.31z"/></defs></svg>