<svg width="785" height="666" viewBox="0 0 785 666" fill="none" xmlns="http://www.w3.org/2000/svg">
<g clip-path="url(#clip0_1_12421)">
<path d="M87.36 594.54L32.44 588.01C10.7 585.22 -0.559987 600.91 1.96001 628.59C3.72001 647.88 14.28 663.89 30.67 664.21C64.41 664.88 88.65 643.44 88.38 639.68C88.11 635.92 87.37 594.54 87.37 594.54H87.36Z" fill="#AD8E6F" stroke="black" stroke-width="3.22" stroke-linecap="round" stroke-linejoin="round"/>
<path d="M30.9003 625.92C30.9003 625.92 309.46 621.26 441.1 632.5C447.48 633.37 457.97 622.99 458.44 608.02C458.44 607.78 458.45 607.55 458.46 607.32C458.86 592.73 447.03 581.14 432.57 581.94C169.14 596.5 28.5303 587.33 28.5103 588.03C44.6203 588.67 44.5603 617.64 30.9103 625.93L30.9003 625.92Z" fill="#FFE9C7" stroke="black" stroke-width="3.22" stroke-linecap="round" stroke-linejoin="round"/>
<path d="M740.21 482.54L759.02 468.8L754.2 248.35C754.2 248.35 738.24 246.49 738.21 246.49L753.49 241.32L753.06 212.61L732.93 207.41L751.79 199.29C751.79 199.29 748.54 48.51 748.48 48.51C601.31 48.21 365.71 47.74 182.55 47.36C180.6 23.6 110.01 1.68999 87.26 1.63999C64.06 1.58999 46.6 21.29 46.96 61.92C46.96 62.79 43.66 73.1 43.87 105.01C43.88 106.76 63.51 108.27 63.52 110.13C63.53 112.31 43.93 114.86 43.94 117.19C44.13 162.88 54.55 327.35 54.55 327.35C54.55 327.35 54.85 330.16 67.66 335.72L54.17 347.57C54.17 347.57 57.81 478.96 55.56 557.77C55.51 559.63 86.29 563.65 86.31 563.65C86.31 563.65 57.08 569.31 57.38 570.86C64.07 605.34 61.49 661.9 32.96 664.22C189.97 650.62 457.88 643.75 691.86 643.75C765.92 643.75 760.65 579.89 760.68 564.08C760.77 523.53 758.55 486.15 758.55 486.15C758.55 486.15 740.21 482.55 740.22 482.55L740.21 482.54Z" fill="#FFE9C7" stroke="black" stroke-width="3.22" stroke-linecap="round" stroke-linejoin="round"/>
<path d="M149.26 31.99L79.0899 36.3C79.0899 36.3 72.1199 77.31 106.46 77.77C140.8 78.22 150.68 64.49 150.4 61.99C150.12 59.49 149.26 31.98 149.26 31.98V31.99Z" fill="#AD8E6F" stroke="black" stroke-width="3.22" stroke-linecap="round" stroke-linejoin="round"/>
<path d="M106.46 77.7799C106.46 77.7799 553.55 62.6199 755.38 77.9499C765.15 79.1499 781.64 64.6299 782.92 43.7199C782.94 43.3899 782.96 43.0599 782.98 42.7399C784.13 22.3699 766.39 6.20993 744.15 7.35993C338.89 28.4199 86.1298 0.659929 86.0698 1.62993C110.79 2.48993 132.79 17.8499 132.44 42.6699C132.26 55.9799 124.78 72.5699 106.46 77.7699V77.7799Z" fill="#FFE9C7" stroke="black" stroke-width="3.22" stroke-linecap="round" stroke-linejoin="round"/>
<g style="mix-blend-mode:color-dodge" opacity="0.49">
<path d="M744.14 7.34989C380.36 26.2699 140.13 5.82989 94.0201 2.14989C92.3901 2.04989 91.0001 1.95989 89.8701 1.88989C97.7901 2.64989 105.31 4.89989 111.77 8.48989C120.28 11.6199 127.32 15.8799 126.2 21.4099C171.4 25.3999 173.89 19.9899 286.75 24.0999C421.01 28.9799 711.26 26.3599 776.69 21.7799C769.76 12.4699 757.81 6.64989 744.15 7.35989L744.14 7.34989Z" fill="#FFF5E3"/>
</g>
<g style="mix-blend-mode:multiply" opacity="0.3">
<path d="M680.18 608.5C676.82 612.24 676.58 616.35 680.05 617.87C681.46 618.49 683.17 618.72 684.82 619.03C684.96 619.08 685.09 619.13 685.22 619.19C688.43 620.66 694.67 618.74 697.93 615.11C701.33 611.33 701.49 607.31 698.06 605.74C696.67 605.1 694.93 604.87 693.26 604.57C693.13 604.52 693.01 604.48 692.88 604.43C689.63 603.01 683.46 604.85 680.17 608.51L680.18 608.5Z" fill="#C4A062"/>
</g>
<g style="mix-blend-mode:multiply" opacity="0.3">
<path d="M714.22 591.86C711.3 592.68 709.39 594.31 710.05 595.67C710.31 596.22 710.86 596.68 711.36 597.16C711.39 597.21 711.42 597.26 711.44 597.31C712.02 598.59 715.23 599.13 718.07 598.34C721.03 597.51 722.86 595.9 722.24 594.53C721.99 593.97 721.43 593.51 720.93 593.03C720.9 592.98 720.87 592.94 720.85 592.89C720.24 591.62 717.08 591.06 714.22 591.86Z" fill="#C4A062"/>
</g>
<g style="mix-blend-mode:multiply" opacity="0.3">
<path d="M708.03 88.3299C705.41 92.1199 705.57 96.2699 708.77 97.7799C710.06 98.3899 711.59 98.6199 713.07 98.9199C713.19 98.9699 713.32 99.0199 713.44 99.0799C716.4 100.54 721.71 98.5699 724.25 94.8899C726.9 91.0599 726.67 86.9999 723.51 85.4399C722.23 84.7999 720.68 84.5799 719.18 84.2799C719.06 84.2299 718.95 84.1899 718.84 84.1399C715.85 82.7199 710.59 84.6199 708.03 88.3299V88.3299Z" fill="#C4A062"/>
</g>
<g style="mix-blend-mode:multiply" opacity="0.3">
<path d="M688.51 33.2499C679.9 35.7999 674.22 41.0699 676.04 45.5699C676.77 47.3899 678.34 48.9299 679.76 50.5199C679.84 50.6799 679.93 50.8499 679.99 51.0199C681.58 55.2599 690.96 57.1799 699.32 54.6999C708.02 52.1199 713.5 46.9099 711.79 42.3799C711.1 40.5399 709.5 38.9899 708.07 37.3999C707.99 37.2499 707.91 37.0999 707.85 36.9399C706.15 32.7299 696.95 30.7599 688.52 33.2599L688.51 33.2499Z" fill="#C4A062"/>
</g>
<g style="mix-blend-mode:multiply" opacity="0.3">
<path d="M651.53 37.9598C647.56 38.7098 645.36 41.0898 646.8 43.5898C647.38 44.5998 648.34 45.5098 649.23 46.4498C649.29 46.5398 649.35 46.6298 649.4 46.7298C650.69 49.0698 655.57 50.7198 659.43 49.9898C663.45 49.2298 665.55 46.8598 664.16 44.3598C663.6 43.3398 662.62 42.4198 661.72 41.4798C661.66 41.3898 661.61 41.3098 661.55 41.2198C660.21 38.8898 655.41 37.2198 651.52 37.9598H651.53Z" fill="#C4A062"/>
</g>
<path d="M148.74 242C148.74 247.9 144.52 251.59 137.65 251.59H131.01V261.98C131.01 262.82 130.3 263.52 129.47 263.52C128.59 263.52 127.93 262.82 127.93 261.98V234.17C127.93 233.2 128.63 232.54 129.6 232.54H137.65C144.52 232.54 148.74 236.46 148.74 242V242ZM145.75 242C145.75 237.73 142.67 235.22 137.56 235.22H131V248.95H137.56C142.67 248.95 145.75 246.66 145.75 242Z" fill="black"/>
<path d="M170.1 245.08V241.87C170.1 241.03 170.8 240.33 171.6 240.33C172.48 240.33 173.14 241.03 173.14 241.87V262.07C173.14 262.86 172.44 263.61 171.6 263.61C170.81 263.61 170.1 262.86 170.1 262.07V258.37C168.82 261.54 165.61 263.65 161.91 263.65C156.98 263.65 151 259.82 151 251.9C151 243.98 156.98 240.19 161.91 240.19C165.3 240.19 168.6 241.86 170.1 245.07V245.08ZM170.28 251.9C170.28 245.56 165.97 242.84 162.23 242.84C158.49 242.84 154 245.74 154 251.9C154 258.06 158.49 261.01 162.23 261.01C165.97 261.01 170.28 258.11 170.28 251.9V251.9Z" fill="black"/>
<path d="M192.99 243.89C193.25 244.33 193.38 244.68 193.38 245.08C193.38 245.83 192.81 246.31 192.1 246.31C191.53 246.31 191.13 246 190.6 245.21C189.72 243.89 188.14 242.75 185.58 242.75C182.63 242.75 180.87 244.25 180.87 246.4C180.87 248.07 182.01 249.35 184.79 250.05L187.61 250.8C191.7 251.81 194.3 253.48 194.3 256.92C194.3 261.23 190.17 263.57 185.59 263.57C181.94 263.57 178.77 261.94 177.76 259.61C177.58 259.26 177.23 258.77 177.23 258.11C177.23 257.32 177.71 256.75 178.46 256.75C179.17 256.75 179.52 257.15 179.83 257.81C180.75 260.01 183.04 260.93 185.59 260.93C188.67 260.93 191.36 259.7 191.36 257.1C191.36 255.03 189.73 254.06 187.36 253.45L183.84 252.53C179.75 251.47 177.94 249.23 177.94 246.46C177.94 242.76 181.24 240.21 185.64 240.21C189.03 240.21 191.62 241.66 192.99 243.91V243.89Z" fill="black"/>
<path d="M212.92 243.89C213.18 244.33 213.32 244.68 213.32 245.08C213.32 245.83 212.75 246.31 212.04 246.31C211.47 246.31 211.07 246 210.54 245.21C209.66 243.89 208.08 242.75 205.52 242.75C202.57 242.75 200.81 244.25 200.81 246.4C200.81 248.07 201.95 249.35 204.73 250.05L207.55 250.8C211.64 251.81 214.24 253.48 214.24 256.92C214.24 261.23 210.1 263.57 205.53 263.57C201.88 263.57 198.71 261.94 197.7 259.61C197.52 259.26 197.17 258.77 197.17 258.11C197.17 257.32 197.65 256.75 198.4 256.75C199.1 256.75 199.45 257.15 199.76 257.81C200.68 260.01 202.97 260.93 205.53 260.93C208.61 260.93 211.29 259.7 211.29 257.1C211.29 255.03 209.66 254.06 207.29 253.45L203.77 252.53C199.68 251.47 197.87 249.23 197.87 246.46C197.87 242.76 201.17 240.21 205.57 240.21C208.96 240.21 211.56 241.66 212.92 243.91V243.89Z" fill="black"/>
<path d="M249.18 241.73C249.18 241.99 249.09 242.17 249.05 242.39L242.36 262.28C242.1 262.98 241.61 263.42 240.95 263.42C240.33 263.42 239.81 262.98 239.54 262.28L232.67 244.99L225.8 262.28C225.54 262.98 225.01 263.42 224.39 263.42C223.77 263.42 223.25 262.98 222.98 262.28L216.29 242.39C216.2 242.17 216.11 241.99 216.11 241.73C216.11 240.98 216.77 240.32 217.52 240.32C218.09 240.32 218.71 240.67 218.89 241.16L224.57 258.72L231.26 241.29C231.48 240.67 232.01 240.32 232.67 240.32C233.29 240.32 233.81 240.67 234.03 241.29L240.76 258.72L246.39 241.16C246.57 240.63 247.18 240.32 247.75 240.32C248.5 240.32 249.16 240.98 249.16 241.73H249.18Z" fill="black"/>
<path d="M273.77 251.9C273.77 259.78 267.48 263.65 262.37 263.65C257.26 263.65 251.02 259.78 251.02 251.9C251.02 244.02 257.31 240.19 262.37 240.19C267.43 240.19 273.77 244.06 273.77 251.9V251.9ZM254.01 251.9C254.01 258.06 258.54 261.01 262.37 261.01C266.2 261.01 270.77 258.06 270.77 251.9C270.77 245.74 266.24 242.84 262.37 242.84C258.5 242.84 254.01 245.79 254.01 251.9V251.9Z" fill="black"/>
<path d="M290.9 241.69C290.9 242.57 290.15 243.14 288.88 243.14C284.52 243.14 281.53 246.62 281.05 249.65V262.02C281.05 262.86 280.39 263.56 279.55 263.56C278.71 263.56 278.05 262.86 278.05 262.02V241.87C278.05 241.03 278.71 240.33 279.55 240.33C280.39 240.33 281.05 241.03 281.05 241.87V245.83C281.31 244.38 284.22 240.24 289.1 240.24C290.24 240.24 290.9 240.86 290.9 241.69V241.69Z" fill="black"/>
<path d="M313.98 233.46V262.06C313.98 262.85 313.28 263.6 312.44 263.6C311.65 263.6 310.94 262.85 310.94 262.06V258.36C309.66 261.53 306.45 263.64 302.75 263.64C297.82 263.64 291.84 259.81 291.84 251.89C291.84 243.97 297.82 240.18 302.75 240.18C306.14 240.18 309.44 241.85 310.94 245.06V241.85C310.94 241.72 310.94 241.59 310.98 241.5V233.45C310.98 232.61 311.64 231.91 312.48 231.91C313.27 231.91 313.98 232.61 313.98 233.45V233.46ZM311.12 251.9C311.12 245.56 306.81 242.84 303.07 242.84C299.33 242.84 294.84 245.74 294.84 251.9C294.84 258.06 299.33 261.01 303.07 261.01C306.81 261.01 311.12 258.11 311.12 251.9V251.9Z" fill="black"/>
<path d="M353.1 251.9C353.1 259.82 347.12 263.65 342.19 263.65C338.49 263.65 335.28 261.54 334 258.37V262.07C334 262.2 334 262.29 333.96 262.42V270.39C333.96 271.18 333.3 271.89 332.46 271.89C331.62 271.89 330.96 271.19 330.96 270.39V241.87C330.96 241.03 331.62 240.33 332.5 240.33C333.29 240.33 334 241.03 334 241.87V245.08C335.5 241.87 338.8 240.2 342.19 240.2C347.12 240.2 353.1 244.07 353.1 251.91V251.9ZM350.11 251.9C350.11 245.74 345.62 242.84 341.88 242.84C338.14 242.84 333.83 245.57 333.83 251.9C333.83 258.23 338.14 261.01 341.88 261.01C345.62 261.01 350.11 258.11 350.11 251.9V251.9Z" fill="black"/>
<path d="M370.23 241.69C370.23 242.57 369.48 243.14 368.21 243.14C363.85 243.14 360.86 246.62 360.38 249.65V262.02C360.38 262.86 359.72 263.56 358.88 263.56C358.04 263.56 357.38 262.86 357.38 262.02V241.87C357.38 241.03 358.04 240.33 358.88 240.33C359.72 240.33 360.38 241.03 360.38 241.87V245.83C360.64 244.38 363.55 240.24 368.43 240.24C369.57 240.24 370.23 240.86 370.23 241.69V241.69Z" fill="black"/>
<path d="M393.86 251.9C393.86 259.78 387.57 263.65 382.46 263.65C377.35 263.65 371.11 259.78 371.11 251.9C371.11 244.02 377.4 240.19 382.46 240.19C387.52 240.19 393.86 244.06 393.86 251.9V251.9ZM374.1 251.9C374.1 258.06 378.63 261.01 382.46 261.01C386.29 261.01 390.87 258.06 390.87 251.9C390.87 245.74 386.34 242.84 382.46 242.84C378.58 242.84 374.1 245.79 374.1 251.9V251.9Z" fill="black"/>
<path d="M406.89 261.67C406.89 263.12 404.69 263.56 403.02 263.56C400.91 263.56 398.88 262.77 398.88 259.2V243.01H396.72C395.97 243.01 395.44 242.53 395.44 241.73C395.44 240.93 395.97 240.45 396.72 240.45H398.88V236.45C398.88 235.61 399.54 234.95 400.38 234.95C401.22 234.95 401.88 235.61 401.88 236.45V240.45H405.58C406.33 240.45 406.9 240.93 406.9 241.73C406.9 242.53 406.33 243.01 405.58 243.01H401.88V259.03C401.88 260.44 402.5 260.97 403.64 260.97C404.35 260.97 404.92 260.79 405.4 260.66C406.24 260.4 406.9 260.92 406.9 261.67H406.89Z" fill="black"/>
<path d="M430.51 251.37C430.51 252.51 429.8 253.09 428.57 253.09H411.41C411.76 258.5 415.94 261.01 419.95 261.01C422.06 261.01 424 260.35 425.49 259.12C426.06 258.68 426.41 258.46 426.81 258.46C427.56 258.46 428 258.99 428 259.65C428 260.05 427.82 260.44 427.16 261.06C425.31 262.73 422.63 263.57 419.86 263.57C414.32 263.57 408.33 259.83 408.33 251.91C408.33 243.99 414.49 240.2 419.51 240.2C424.53 240.2 430.51 244.12 430.51 251.38V251.37ZM411.41 250.67H427.61C427.26 245.3 423.08 242.84 419.51 242.84C415.94 242.84 411.81 245.3 411.41 250.67V250.67Z" fill="black"/>
<path d="M453.75 258.46C453.75 258.99 453.4 259.34 453.09 259.74C451.15 262.29 448.21 263.57 444.95 263.57C439.8 263.57 433.6 259.7 433.6 251.91C433.6 244.12 439.81 240.2 444.95 240.2C448.21 240.2 451.16 241.48 453.09 244.03C453.4 244.43 453.75 244.78 453.75 245.31C453.75 246.06 453.13 246.54 452.43 246.54C451.9 246.54 451.42 246.23 451.07 245.75C449.7 243.81 447.28 242.85 445.09 242.85C441.08 242.85 436.6 245.8 436.6 251.91C436.6 258.02 441.09 260.93 445.09 260.93C447.29 260.93 449.71 259.96 451.07 258.03C451.42 257.55 451.91 257.24 452.43 257.24C453.14 257.24 453.75 257.72 453.75 258.47V258.46Z" fill="black"/>
<path d="M467.09 261.67C467.09 263.12 464.89 263.56 463.22 263.56C461.11 263.56 459.08 262.77 459.08 259.2V243.01H456.92C456.17 243.01 455.64 242.53 455.64 241.73C455.64 240.93 456.17 240.45 456.92 240.45H459.08V236.45C459.08 235.61 459.74 234.95 460.58 234.95C461.42 234.95 462.08 235.61 462.08 236.45V240.45H465.78C466.53 240.45 467.1 240.93 467.1 241.73C467.1 242.53 466.53 243.01 465.78 243.01H462.08V259.03C462.08 260.44 462.7 260.97 463.84 260.97C464.54 260.97 465.12 260.79 465.6 260.66C466.44 260.4 467.1 260.92 467.1 261.67H467.09Z" fill="black"/>
<path d="M490.71 251.37C490.71 252.51 490 253.09 488.77 253.09H471.61C471.96 258.5 476.14 261.01 480.15 261.01C482.26 261.01 484.2 260.35 485.69 259.12C486.26 258.68 486.61 258.46 487.01 258.46C487.76 258.46 488.2 258.99 488.2 259.65C488.2 260.05 488.02 260.44 487.36 261.06C485.51 262.73 482.83 263.57 480.06 263.57C474.52 263.57 468.53 259.83 468.53 251.91C468.53 243.99 474.69 240.2 479.71 240.2C484.73 240.2 490.71 244.12 490.71 251.38V251.37ZM471.61 250.67H487.81C487.46 245.3 483.28 242.84 479.71 242.84C476.14 242.84 472.01 245.3 471.61 250.67V250.67Z" fill="black"/>
<path d="M515.93 233.46V262.06C515.93 262.85 515.22 263.6 514.39 263.6C513.6 263.6 512.89 262.85 512.89 262.06V258.36C511.61 261.53 508.4 263.64 504.7 263.64C499.77 263.64 493.79 259.81 493.79 251.89C493.79 243.97 499.77 240.18 504.7 240.18C508.09 240.18 511.39 241.85 512.89 245.06V241.85C512.89 241.72 512.89 241.59 512.93 241.5V233.45C512.93 232.61 513.59 231.91 514.43 231.91C515.22 231.91 515.93 232.61 515.93 233.45V233.46ZM513.07 251.9C513.07 245.56 508.76 242.84 505.02 242.84C501.28 242.84 496.79 245.74 496.79 251.9C496.79 258.06 501.28 261.01 505.02 261.01C508.76 261.01 513.07 258.11 513.07 251.9V251.9Z" fill="black"/>
<path d="M547.57 243.89C547.83 244.33 547.97 244.68 547.97 245.08C547.97 245.83 547.4 246.31 546.69 246.31C546.12 246.31 545.72 246 545.19 245.21C544.31 243.89 542.73 242.75 540.17 242.75C537.22 242.75 535.46 244.25 535.46 246.4C535.46 248.07 536.6 249.35 539.38 250.05L542.2 250.8C546.29 251.81 548.89 253.48 548.89 256.92C548.89 261.23 544.75 263.57 540.18 263.57C536.53 263.57 533.36 261.94 532.35 259.61C532.17 259.26 531.82 258.77 531.82 258.11C531.82 257.32 532.3 256.75 533.05 256.75C533.75 256.75 534.1 257.15 534.41 257.81C535.33 260.01 537.62 260.93 540.18 260.93C543.26 260.93 545.94 259.7 545.94 257.1C545.94 255.03 544.31 254.06 541.94 253.45L538.42 252.53C534.33 251.47 532.52 249.23 532.52 246.46C532.52 242.76 535.82 240.21 540.22 240.21C543.61 240.21 546.21 241.66 547.57 243.91V243.89Z" fill="black"/>
<path d="M573.82 251.37C573.82 252.51 573.12 253.09 571.88 253.09H554.72C555.07 258.5 559.25 261.01 563.26 261.01C565.37 261.01 567.31 260.35 568.8 259.12C569.37 258.68 569.72 258.46 570.12 258.46C570.87 258.46 571.31 258.99 571.31 259.65C571.31 260.05 571.13 260.44 570.47 261.06C568.62 262.73 565.94 263.57 563.17 263.57C557.63 263.57 551.64 259.83 551.64 251.91C551.64 243.99 557.8 240.2 562.82 240.2C567.84 240.2 573.82 244.12 573.82 251.38V251.37ZM554.72 250.67H570.91C570.56 245.3 566.38 242.84 562.81 242.84C559.24 242.84 555.11 245.3 554.71 250.67H554.72Z" fill="black"/>
<path d="M597.06 258.46C597.06 258.99 596.71 259.34 596.4 259.74C594.46 262.29 591.52 263.57 588.26 263.57C583.11 263.57 576.91 259.7 576.91 251.91C576.91 244.12 583.11 240.2 588.26 240.2C591.52 240.2 594.46 241.48 596.4 244.03C596.71 244.43 597.06 244.78 597.06 245.31C597.06 246.06 596.44 246.54 595.74 246.54C595.21 246.54 594.73 246.23 594.37 245.75C593.01 243.81 590.59 242.85 588.39 242.85C584.39 242.85 579.9 245.8 579.9 251.91C579.9 258.02 584.39 260.93 588.39 260.93C590.59 260.93 593.01 259.96 594.37 258.03C594.72 257.55 595.21 257.24 595.74 257.24C596.44 257.24 597.06 257.72 597.06 258.47V258.46Z" fill="black"/>
<path d="M600.88 254.06V241.91C600.88 241.12 601.54 240.37 602.38 240.37C603.22 240.37 603.88 241.12 603.88 241.91V254.06C603.88 259.16 607 261.01 610.26 261.01C614.93 261.01 617.48 257.18 617.96 254.28V241.91C617.96 241.12 618.62 240.37 619.46 240.37C620.3 240.37 620.96 241.12 620.96 241.91V262.06C620.96 262.9 620.3 263.6 619.46 263.6C618.62 263.6 617.96 262.9 617.96 262.06V258.1C617.7 259.55 614.92 263.69 609.56 263.69C605.47 263.69 600.89 261.31 600.89 254.05L600.88 254.06Z" fill="black"/>
<path d="M639.16 241.69C639.16 242.57 638.41 243.14 637.14 243.14C632.78 243.14 629.79 246.62 629.31 249.65V262.02C629.31 262.86 628.65 263.56 627.81 263.56C626.97 263.56 626.31 262.86 626.31 262.02V241.87C626.31 241.03 626.97 240.33 627.81 240.33C628.65 240.33 629.31 241.03 629.31 241.87V245.83C629.57 244.38 632.48 240.24 637.36 240.24C638.5 240.24 639.16 240.86 639.16 241.69V241.69Z" fill="black"/>
<path d="M642.41 233.02C642.41 232.18 643.12 231.48 643.95 231.48C644.78 231.48 645.49 232.18 645.49 233.02C645.49 233.86 644.79 234.56 643.95 234.56C643.11 234.56 642.41 233.86 642.41 233.02ZM645.45 241.87V262.07C645.45 262.91 644.79 263.61 643.95 263.61C643.11 263.61 642.45 262.91 642.45 262.07V241.87C642.45 241.03 643.11 240.33 643.95 240.33C644.79 240.33 645.45 241.03 645.45 241.87Z" fill="black"/>
<path d="M659.95 261.67C659.95 263.12 657.75 263.56 656.08 263.56C653.97 263.56 651.94 262.77 651.94 259.2V243.01H649.78C649.03 243.01 648.5 242.53 648.5 241.73C648.5 240.93 649.03 240.45 649.78 240.45H651.94V236.45C651.94 235.61 652.6 234.95 653.44 234.95C654.28 234.95 654.94 235.61 654.94 236.45V240.45H658.64C659.39 240.45 659.96 240.93 659.96 241.73C659.96 242.53 659.39 243.01 658.64 243.01H654.94V259.03C654.94 260.44 655.56 260.97 656.7 260.97C657.4 260.97 657.98 260.79 658.46 260.66C659.3 260.4 659.96 260.92 659.96 261.67H659.95Z" fill="black"/>
<path d="M683.39 241.73C683.39 241.99 683.3 242.17 683.21 242.35L670.98 270.95C670.72 271.61 670.14 271.92 669.57 271.92C668.78 271.92 668.25 271.26 668.25 270.51C668.25 270.25 668.34 270.07 668.38 269.89L671.5 262.58L662.7 242.34C662.66 242.16 662.57 241.99 662.57 241.72C662.57 240.97 663.19 240.31 663.98 240.31C664.55 240.31 665.12 240.62 665.39 241.28L672.96 259.15L680.57 241.28C680.83 240.62 681.36 240.31 681.98 240.31C682.73 240.31 683.39 240.97 683.39 241.72V241.73Z" fill="black"/>
<path d="M127.92 306.99C127.92 301.89 131.48 298.5 136.5 297.84L130.69 288.38C129.77 286.88 130.73 285.34 132.45 285.34H146.66C147.36 285.34 148.02 285.91 148.02 286.62C148.02 287.41 147.36 287.98 146.66 287.98H133.41L139.22 297.44C140.01 298.76 139.84 300.04 138.34 300.04C134.16 300.04 130.9 302.9 130.9 306.99C130.9 311.08 134.38 313.9 138.56 313.9C143.36 313.9 147.05 310.34 147.05 306.11V300.13C147.05 299.16 147.71 298.5 148.68 298.5H151.94C152.64 298.5 153.3 299.07 153.3 299.78C153.3 300.53 152.64 301.14 151.94 301.14H150V311.31C150 313.73 151.5 314.17 153.52 313.42C154.18 313.2 155.02 313.77 155.02 314.61C155.02 315.75 153.22 316.37 151.72 316.37C149.12 316.37 147.76 314.96 147.76 312.23V310.95C146.09 314.47 142.7 316.54 138.47 316.54C132.93 316.54 127.91 312.93 127.91 306.99H127.92Z" fill="black"/>
<path d="M207.83 302.68V314.83C207.83 315.62 207.17 316.37 206.33 316.37C205.54 316.37 204.83 315.62 204.83 314.83V302.68C204.83 297.58 201.71 295.73 198.49 295.73C193.78 295.73 191.23 299.56 190.75 302.46V314.83C190.75 315.62 190.09 316.37 189.25 316.37C188.41 316.37 187.75 315.62 187.75 314.83V302.68C187.75 297.58 184.63 295.73 181.37 295.73C176.7 295.73 174.15 299.56 173.67 302.46V314.83C173.67 315.62 173.01 316.37 172.17 316.37C171.33 316.37 170.67 315.62 170.67 314.83V294.68C170.67 293.84 171.33 293.14 172.17 293.14C173.01 293.14 173.67 293.84 173.67 294.68V298.64C173.93 297.19 176.71 293.05 182.07 293.05C185.33 293.05 188.94 294.55 190.21 298.9C191.49 296.13 194.43 293.05 199.19 293.05C203.28 293.05 207.81 295.43 207.81 302.69L207.83 302.68Z" fill="black"/>
<path d="M234.76 304.7C234.76 312.58 228.47 316.45 223.36 316.45C218.25 316.45 212.01 312.58 212.01 304.7C212.01 296.82 218.3 292.99 223.36 292.99C228.42 292.99 234.76 296.86 234.76 304.7ZM215 304.7C215 310.86 219.53 313.81 223.36 313.81C227.19 313.81 231.76 310.86 231.76 304.7C231.76 298.54 227.23 295.64 223.36 295.64C219.49 295.64 215 298.59 215 304.7Z" fill="black"/>
<path d="M260.1 286.26V314.86C260.1 315.65 259.39 316.4 258.56 316.4C257.77 316.4 257.06 315.65 257.06 314.86V311.16C255.78 314.33 252.57 316.44 248.87 316.44C243.94 316.44 237.96 312.61 237.96 304.69C237.96 296.77 243.94 292.98 248.87 292.98C252.26 292.98 255.56 294.65 257.06 297.86V294.65C257.06 294.52 257.06 294.39 257.1 294.3V286.25C257.1 285.41 257.76 284.71 258.6 284.71C259.39 284.71 260.1 285.41 260.1 286.25V286.26ZM257.24 304.7C257.24 298.36 252.93 295.64 249.19 295.64C245.45 295.64 240.96 298.54 240.96 304.7C240.96 310.86 245.45 313.81 249.19 313.81C252.93 313.81 257.24 310.91 257.24 304.7Z" fill="black"/>
<path d="M286.55 304.17C286.55 305.31 285.84 305.89 284.61 305.89H267.45C267.8 311.3 271.98 313.81 275.99 313.81C278.1 313.81 280.04 313.15 281.53 311.92C282.1 311.48 282.45 311.26 282.85 311.26C283.6 311.26 284.04 311.79 284.04 312.45C284.04 312.85 283.86 313.24 283.2 313.86C281.35 315.53 278.67 316.37 275.9 316.37C270.36 316.37 264.37 312.63 264.37 304.71C264.37 296.79 270.53 293 275.55 293C280.57 293 286.55 296.92 286.55 304.18V304.17ZM267.45 303.47H283.65C283.3 298.1 279.12 295.64 275.55 295.64C271.98 295.64 267.85 298.1 267.45 303.47V303.47Z" fill="black"/>
<path d="M303.42 294.49C303.42 295.37 302.67 295.94 301.39 295.94C297.03 295.94 294.04 299.42 293.56 302.45V314.82C293.56 315.66 292.9 316.36 292.06 316.36C291.22 316.36 290.56 315.66 290.56 314.82V294.67C290.56 293.83 291.22 293.13 292.06 293.13C292.9 293.13 293.56 293.83 293.56 294.67V298.63C293.82 297.18 296.73 293.04 301.61 293.04C302.75 293.04 303.41 293.66 303.41 294.49H303.42Z" fill="black"/>
<path d="M323.47 297.88V294.67C323.47 293.83 324.17 293.13 324.97 293.13C325.85 293.13 326.51 293.83 326.51 294.67V314.87C326.51 315.66 325.81 316.41 324.97 316.41C324.18 316.41 323.47 315.66 323.47 314.87V311.17C322.19 314.34 318.98 316.45 315.28 316.45C310.35 316.45 304.37 312.62 304.37 304.7C304.37 296.78 310.35 292.99 315.28 292.99C318.67 292.99 321.97 294.66 323.47 297.87V297.88ZM323.65 304.7C323.65 298.36 319.34 295.64 315.6 295.64C311.86 295.64 307.37 298.54 307.37 304.7C307.37 310.86 311.86 313.81 315.6 313.81C319.34 313.81 323.65 310.91 323.65 304.7Z" fill="black"/>
<path d="M341.04 314.47C341.04 315.92 338.84 316.36 337.17 316.36C335.06 316.36 333.03 315.57 333.03 312V295.81H330.87C330.12 295.81 329.59 295.33 329.59 294.53C329.59 293.73 330.12 293.25 330.87 293.25H333.03V289.25C333.03 288.41 333.69 287.75 334.53 287.75C335.37 287.75 336.03 288.41 336.03 289.25V293.25H339.73C340.48 293.25 341.05 293.73 341.05 294.53C341.05 295.33 340.48 295.81 339.73 295.81H336.03V311.83C336.03 313.24 336.65 313.77 337.79 313.77C338.5 313.77 339.07 313.59 339.55 313.46C340.39 313.2 341.05 313.72 341.05 314.47H341.04Z" fill="black"/>
<path d="M344.26 285.82C344.26 284.98 344.97 284.28 345.8 284.28C346.63 284.28 347.34 284.98 347.34 285.82C347.34 286.66 346.64 287.36 345.8 287.36C344.96 287.36 344.26 286.66 344.26 285.82ZM347.3 294.67V314.87C347.3 315.71 346.64 316.41 345.8 316.41C344.96 316.41 344.3 315.71 344.3 314.87V294.67C344.3 293.83 344.96 293.13 345.8 293.13C346.64 293.13 347.3 293.83 347.3 294.67Z" fill="black"/>
<path d="M374.22 304.7C374.22 312.58 367.93 316.45 362.82 316.45C357.71 316.45 351.47 312.58 351.47 304.7C351.47 296.82 357.76 292.99 362.82 292.99C367.88 292.99 374.22 296.86 374.22 304.7ZM354.46 304.7C354.46 310.86 358.99 313.81 362.82 313.81C366.65 313.81 371.23 310.86 371.23 304.7C371.23 298.54 366.7 295.64 362.82 295.64C358.94 295.64 354.46 298.59 354.46 304.7Z" fill="black"/>
<path d="M398.57 302.68V314.83C398.57 315.62 397.91 316.37 397.07 316.37C396.23 316.37 395.57 315.62 395.57 314.83V302.68C395.57 297.58 392.45 295.73 389.19 295.73C384.52 295.73 381.97 299.56 381.49 302.46V314.83C381.49 315.62 380.83 316.37 379.99 316.37C379.15 316.37 378.49 315.62 378.49 314.83V294.68C378.49 293.84 379.15 293.14 379.99 293.14C380.83 293.14 381.49 293.84 381.49 294.68V298.64C381.75 297.19 384.53 293.05 389.89 293.05C393.98 293.05 398.56 295.43 398.56 302.69L398.57 302.68Z" fill="black"/>
<path d="M402.58 295.72C402.58 294.71 403.42 293.87 404.47 293.87C405.52 293.87 406.32 294.71 406.32 295.72C406.32 296.73 405.48 297.61 404.47 297.61C403.46 297.61 402.58 296.77 402.58 295.72ZM402.58 314.29C402.58 313.28 403.42 312.44 404.47 312.44C405.52 312.44 406.32 313.28 406.32 314.29C406.32 315.3 405.48 316.18 404.47 316.18C403.46 316.18 402.58 315.34 402.58 314.29Z" fill="black"/>
<path d="M445 304.7C445 312.62 439.02 316.45 434.09 316.45C430.39 316.45 427.18 314.34 425.9 311.17V314.87C425.9 315 425.9 315.09 425.86 315.22V323.19C425.86 323.98 425.2 324.69 424.36 324.69C423.52 324.69 422.86 323.99 422.86 323.19V294.67C422.86 293.83 423.52 293.13 424.4 293.13C425.19 293.13 425.9 293.83 425.9 294.67V297.88C427.4 294.67 430.7 293 434.09 293C439.02 293 445 296.87 445 304.71V304.7ZM442.01 304.7C442.01 298.54 437.52 295.64 433.78 295.64C430.04 295.64 425.73 298.37 425.73 304.7C425.73 311.03 430.04 313.81 433.78 313.81C437.52 313.81 442.01 310.91 442.01 304.7Z" fill="black"/>
<path d="M467.3 297.88V294.67C467.3 293.83 468.01 293.13 468.8 293.13C469.68 293.13 470.34 293.83 470.34 294.67V314.87C470.34 315.66 469.63 316.41 468.8 316.41C468.01 316.41 467.3 315.66 467.3 314.87V311.17C466.02 314.34 462.81 316.45 459.11 316.45C454.18 316.45 448.2 312.62 448.2 304.7C448.2 296.78 454.18 292.99 459.11 292.99C462.5 292.99 465.8 294.66 467.3 297.87V297.88ZM467.48 304.7C467.48 298.36 463.17 295.64 459.43 295.64C455.69 295.64 451.2 298.54 451.2 304.7C451.2 310.86 455.69 313.81 459.43 313.81C463.17 313.81 467.48 310.91 467.48 304.7Z" fill="black"/>
<path d="M495.77 302.68V314.83C495.77 315.62 495.11 316.37 494.27 316.37C493.43 316.37 492.77 315.62 492.77 314.83V302.68C492.77 297.58 489.65 295.73 486.39 295.73C481.72 295.73 479.17 299.56 478.69 302.46V314.83C478.69 315.62 478.03 316.37 477.19 316.37C476.35 316.37 475.69 315.62 475.69 314.83V294.68C475.69 293.84 476.35 293.14 477.19 293.14C478.03 293.14 478.69 293.84 478.69 294.68V298.64C478.95 297.19 481.73 293.05 487.09 293.05C491.18 293.05 495.76 295.43 495.76 302.69L495.77 302.68Z" fill="black"/>
<path d="M500.98 285.82C500.98 284.98 501.69 284.28 502.52 284.28C503.35 284.28 504.06 284.98 504.06 285.82C504.06 286.66 503.36 287.36 502.52 287.36C501.68 287.36 500.98 286.66 500.98 285.82ZM504.02 294.67V314.87C504.02 315.71 503.36 316.41 502.52 316.41C501.68 316.41 501.02 315.71 501.02 314.87V294.67C501.02 293.83 501.68 293.13 502.52 293.13C503.36 293.13 504.02 293.83 504.02 294.67Z" fill="black"/>
<path d="M528.35 311.26C528.35 311.79 528 312.14 527.69 312.54C525.75 315.09 522.81 316.37 519.55 316.37C514.4 316.37 508.2 312.5 508.2 304.71C508.2 296.92 514.41 293 519.55 293C522.81 293 525.76 294.28 527.69 296.83C528 297.23 528.35 297.58 528.35 298.11C528.35 298.86 527.73 299.34 527.03 299.34C526.5 299.34 526.02 299.03 525.67 298.55C524.3 296.61 521.88 295.65 519.69 295.65C515.68 295.65 511.2 298.6 511.2 304.71C511.2 310.82 515.69 313.73 519.69 313.73C521.89 313.73 524.31 312.76 525.67 310.83C526.02 310.35 526.51 310.04 527.03 310.04C527.74 310.04 528.35 310.52 528.35 311.27V311.26Z" fill="black"/>
<path d="M581.59 302.68V314.83C581.59 315.62 580.93 316.37 580.09 316.37C579.3 316.37 578.59 315.62 578.59 314.83V302.68C578.59 297.58 575.47 295.73 572.25 295.73C567.54 295.73 564.99 299.56 564.51 302.46V314.83C564.51 315.62 563.85 316.37 563.01 316.37C562.17 316.37 561.51 315.62 561.51 314.83V302.68C561.51 297.58 558.39 295.73 555.13 295.73C550.46 295.73 547.91 299.56 547.43 302.46V314.83C547.43 315.62 546.77 316.37 545.93 316.37C545.09 316.37 544.43 315.62 544.43 314.83V294.68C544.43 293.84 545.09 293.14 545.93 293.14C546.77 293.14 547.43 293.84 547.43 294.68V298.64C547.69 297.19 550.47 293.05 555.83 293.05C559.09 293.05 562.7 294.55 563.97 298.9C565.25 296.13 568.19 293.05 572.95 293.05C577.04 293.05 581.57 295.43 581.57 302.69L581.59 302.68Z" fill="black"/>
<path d="M608.52 304.7C608.52 312.58 602.23 316.45 597.12 316.45C592.01 316.45 585.77 312.58 585.77 304.7C585.77 296.82 592.06 292.99 597.12 292.99C602.18 292.99 608.52 296.86 608.52 304.7ZM588.76 304.7C588.76 310.86 593.29 313.81 597.12 313.81C600.95 313.81 605.52 310.86 605.52 304.7C605.52 298.54 600.99 295.64 597.12 295.64C593.25 295.64 588.76 298.59 588.76 304.7Z" fill="black"/>
<path d="M633.85 286.26V314.86C633.85 315.65 633.14 316.4 632.31 316.4C631.52 316.4 630.81 315.65 630.81 314.86V311.16C629.53 314.33 626.32 316.44 622.62 316.44C617.69 316.44 611.71 312.61 611.71 304.69C611.71 296.77 617.69 292.98 622.62 292.98C626.01 292.98 629.31 294.65 630.81 297.86V294.65C630.81 294.52 630.81 294.39 630.85 294.3V286.25C630.85 285.41 631.51 284.71 632.35 284.71C633.14 284.71 633.85 285.41 633.85 286.25V286.26ZM630.99 304.7C630.99 298.36 626.68 295.64 622.94 295.64C619.2 295.64 614.71 298.54 614.71 304.7C614.71 310.86 619.2 313.81 622.94 313.81C626.68 313.81 630.99 310.91 630.99 304.7Z" fill="black"/>
<path d="M660.31 304.17C660.31 305.31 659.6 305.89 658.37 305.89H641.21C641.56 311.3 645.74 313.81 649.75 313.81C651.86 313.81 653.8 313.15 655.29 311.92C655.86 311.48 656.21 311.26 656.61 311.26C657.36 311.26 657.8 311.79 657.8 312.45C657.8 312.85 657.62 313.24 656.96 313.86C655.11 315.53 652.43 316.37 649.66 316.37C644.12 316.37 638.13 312.63 638.13 304.71C638.13 296.79 644.29 293 649.31 293C654.33 293 660.31 296.92 660.31 304.18V304.17ZM641.21 303.47H657.41C657.06 298.1 652.88 295.64 649.31 295.64C645.74 295.64 641.61 298.1 641.21 303.47Z" fill="black"/>
<path d="M661.65 320.63L664.2 313.59C664.46 312.75 664.95 312.45 665.65 312.45H666.93C667.77 312.45 667.94 312.93 667.55 313.73L664.07 320.95C663.76 321.61 663.28 321.79 662.66 321.79H662.4C661.69 321.79 661.39 321.31 661.65 320.65V320.63Z" fill="black"/>
<path d="M137.6 367.27C137.6 368.72 135.4 369.16 133.73 369.16C131.62 369.16 129.59 368.37 129.59 364.8V348.61H127.43C126.68 348.61 126.15 348.13 126.15 347.33C126.15 346.53 126.68 346.05 127.43 346.05H129.59V342.05C129.59 341.21 130.25 340.55 131.09 340.55C131.93 340.55 132.59 341.21 132.59 342.05V346.05H136.29C137.04 346.05 137.61 346.53 137.61 347.33C137.61 348.13 137.04 348.61 136.29 348.61H132.59V364.63C132.59 366.04 133.21 366.57 134.35 366.57C135.06 366.57 135.63 366.39 136.11 366.26C136.95 366 137.61 366.52 137.61 367.27H137.6Z" fill="black"/>
<path d="M161.22 356.97C161.22 358.11 160.51 358.69 159.28 358.69H142.12C142.47 364.1 146.65 366.61 150.66 366.61C152.77 366.61 154.71 365.95 156.2 364.72C156.77 364.28 157.12 364.06 157.52 364.06C158.27 364.06 158.71 364.59 158.71 365.25C158.71 365.65 158.53 366.04 157.87 366.66C156.02 368.33 153.34 369.17 150.57 369.17C145.03 369.17 139.04 365.43 139.04 357.51C139.04 349.59 145.2 345.8 150.22 345.8C155.24 345.8 161.22 349.72 161.22 356.98V356.97ZM142.12 356.27H158.32C157.97 350.9 153.79 348.44 150.22 348.44C146.65 348.44 142.52 350.9 142.12 356.27Z" fill="black"/>
<path d="M202.38 355.48V367.63C202.38 368.42 201.72 369.17 200.88 369.17C200.09 369.17 199.38 368.42 199.38 367.63V355.48C199.38 350.38 196.26 348.53 193.04 348.53C188.33 348.53 185.78 352.36 185.3 355.26V367.63C185.3 368.42 184.64 369.17 183.8 369.17C182.96 369.17 182.3 368.42 182.3 367.63V355.48C182.3 350.38 179.18 348.53 175.92 348.53C171.25 348.53 168.7 352.36 168.22 355.26V367.63C168.22 368.42 167.56 369.17 166.72 369.17C165.88 369.17 165.22 368.42 165.22 367.63V347.48C165.22 346.64 165.88 345.94 166.72 345.94C167.56 345.94 168.22 346.64 168.22 347.48V351.44C168.48 349.99 171.26 345.85 176.62 345.85C179.88 345.85 183.49 347.35 184.76 351.7C186.04 348.93 188.98 345.85 193.74 345.85C197.83 345.85 202.36 348.23 202.36 355.49L202.38 355.48Z" fill="black"/>
<path d="M229.86 357.5C229.86 365.42 223.88 369.25 218.95 369.25C215.25 369.25 212.04 367.14 210.76 363.97V367.67C210.76 367.8 210.76 367.89 210.72 368.02V375.99C210.72 376.78 210.06 377.49 209.22 377.49C208.38 377.49 207.72 376.79 207.72 375.99V347.47C207.72 346.63 208.38 345.93 209.26 345.93C210.05 345.93 210.76 346.63 210.76 347.47V350.68C212.26 347.47 215.56 345.8 218.95 345.8C223.88 345.8 229.86 349.67 229.86 357.51V357.5ZM226.87 357.5C226.87 351.34 222.38 348.43 218.64 348.43C214.9 348.43 210.59 351.16 210.59 357.5C210.59 363.84 214.9 366.61 218.64 366.61C222.38 366.61 226.87 363.71 226.87 357.5Z" fill="black"/>
<path d="M255.81 357.5C255.81 365.38 249.52 369.25 244.41 369.25C239.3 369.25 233.06 365.38 233.06 357.5C233.06 349.62 239.35 345.79 244.41 345.79C249.47 345.79 255.81 349.66 255.81 357.5ZM236.05 357.5C236.05 363.66 240.58 366.61 244.41 366.61C248.24 366.61 252.81 363.66 252.81 357.5C252.81 351.34 248.28 348.43 244.41 348.43C240.54 348.43 236.05 351.38 236.05 357.5Z" fill="black"/>
<path d="M272.94 347.29C272.94 348.17 272.19 348.74 270.92 348.74C266.56 348.74 263.57 352.22 263.09 355.25V367.62C263.09 368.46 262.43 369.16 261.59 369.16C260.75 369.16 260.09 368.46 260.09 367.62V347.47C260.09 346.63 260.75 345.93 261.59 345.93C262.43 345.93 263.09 346.63 263.09 347.47V351.43C263.35 349.98 266.26 345.84 271.14 345.84C272.28 345.84 272.94 346.46 272.94 347.29V347.29Z" fill="black"/>
<path d="M292.99 350.68V347.47C292.99 346.63 293.69 345.93 294.49 345.93C295.37 345.93 296.03 346.63 296.03 347.47V367.67C296.03 368.46 295.33 369.21 294.49 369.21C293.7 369.21 292.99 368.46 292.99 367.67V363.97C291.71 367.14 288.5 369.25 284.8 369.25C279.87 369.25 273.89 365.42 273.89 357.5C273.89 349.58 279.87 345.79 284.8 345.79C288.19 345.79 291.49 347.46 292.99 350.67V350.68ZM293.17 357.5C293.17 351.16 288.86 348.43 285.12 348.43C281.38 348.43 276.89 351.33 276.89 357.5C276.89 363.67 281.38 366.61 285.12 366.61C288.86 366.61 293.17 363.71 293.17 357.5Z" fill="black"/>
<path d="M314.24 347.29C314.24 348.17 313.49 348.74 312.22 348.74C307.86 348.74 304.87 352.22 304.39 355.25V367.62C304.39 368.46 303.73 369.16 302.89 369.16C302.05 369.16 301.39 368.46 301.39 367.62V347.47C301.39 346.63 302.05 345.93 302.89 345.93C303.73 345.93 304.39 346.63 304.39 347.47V351.43C304.65 349.98 307.56 345.84 312.44 345.84C313.58 345.84 314.24 346.46 314.24 347.29V347.29Z" fill="black"/>
<path d="M337.71 347.33C337.71 347.59 337.62 347.77 337.53 347.95L325.3 376.55C325.03 377.21 324.46 377.52 323.89 377.52C323.1 377.52 322.57 376.86 322.57 376.11C322.57 375.85 322.66 375.67 322.7 375.49L325.82 368.18L317.02 347.94C316.98 347.76 316.89 347.59 316.89 347.32C316.89 346.57 317.51 345.91 318.3 345.91C318.87 345.91 319.44 346.22 319.71 346.88L327.28 364.75L334.89 346.88C335.16 346.22 335.68 345.91 336.3 345.91C337.05 345.91 337.71 346.57 337.71 347.32V347.33Z" fill="black"/>
<path d="M375.5 357.5C375.5 365.42 369.52 369.25 364.59 369.25C360.89 369.25 357.68 367.14 356.4 363.97V367.67C356.4 367.8 356.4 367.89 356.36 368.02V375.99C356.36 376.78 355.7 377.49 354.86 377.49C354.02 377.49 353.36 376.79 353.36 375.99V347.47C353.36 346.63 354.02 345.93 354.9 345.93C355.69 345.93 356.4 346.63 356.4 347.47V350.68C357.9 347.47 361.2 345.8 364.59 345.8C369.52 345.8 375.5 349.67 375.5 357.51V357.5ZM372.51 357.5C372.51 351.34 368.02 348.43 364.28 348.43C360.54 348.43 356.23 351.16 356.23 357.5C356.23 363.84 360.54 366.61 364.28 366.61C368.02 366.61 372.51 363.71 372.51 357.5Z" fill="black"/>
<path d="M400.88 356.97C400.88 358.11 400.17 358.69 398.94 358.69H381.78C382.13 364.1 386.31 366.61 390.32 366.61C392.43 366.61 394.37 365.95 395.86 364.72C396.43 364.28 396.78 364.06 397.18 364.06C397.93 364.06 398.37 364.59 398.37 365.25C398.37 365.65 398.19 366.04 397.53 366.66C395.68 368.33 393 369.17 390.23 369.17C384.69 369.17 378.7 365.43 378.7 357.51C378.7 349.59 384.86 345.8 389.88 345.8C394.9 345.8 400.88 349.72 400.88 356.98V356.97ZM381.78 356.27H397.98C397.63 350.9 393.45 348.44 389.88 348.44C386.31 348.44 382.18 350.9 381.78 356.27V356.27Z" fill="black"/>
<path d="M417.75 347.29C417.75 348.17 417 348.74 415.72 348.74C411.36 348.74 408.37 352.22 407.89 355.25V367.62C407.89 368.46 407.23 369.16 406.39 369.16C405.55 369.16 404.89 368.46 404.89 367.62V347.47C404.89 346.63 405.55 345.93 406.39 345.93C407.23 345.93 407.89 346.63 407.89 347.47V351.43C408.15 349.98 411.06 345.84 415.94 345.84C417.08 345.84 417.74 346.46 417.74 347.29H417.75Z" fill="black"/>
<path d="M458.16 355.48V367.63C458.16 368.42 457.5 369.17 456.66 369.17C455.87 369.17 455.16 368.42 455.16 367.63V355.48C455.16 350.38 452.04 348.53 448.82 348.53C444.11 348.53 441.56 352.36 441.08 355.26V367.63C441.08 368.42 440.42 369.17 439.58 369.17C438.74 369.17 438.08 368.42 438.08 367.63V355.48C438.08 350.38 434.96 348.53 431.7 348.53C427.03 348.53 424.48 352.36 424 355.26V367.63C424 368.42 423.34 369.17 422.5 369.17C421.66 369.17 421 368.42 421 367.63V347.48C421 346.64 421.66 345.94 422.5 345.94C423.34 345.94 424 346.64 424 347.48V351.44C424.26 349.99 427.04 345.85 432.4 345.85C435.66 345.85 439.27 347.35 440.54 351.7C441.82 348.93 444.76 345.85 449.52 345.85C453.61 345.85 458.14 348.23 458.14 355.49L458.16 355.48Z" fill="black"/>
<path d="M463.45 338.62C463.45 337.78 464.15 337.08 464.99 337.08C465.83 337.08 466.53 337.78 466.53 338.62C466.53 339.46 465.82 340.16 464.99 340.16C464.16 340.16 463.45 339.46 463.45 338.62ZM466.49 347.47V367.67C466.49 368.51 465.83 369.21 464.99 369.21C464.15 369.21 463.49 368.51 463.49 367.67V347.47C463.49 346.63 464.15 345.93 464.99 345.93C465.83 345.93 466.49 346.63 466.49 347.47Z" fill="black"/>
<path d="M486.31 349.49C486.57 349.93 486.7 350.28 486.7 350.68C486.7 351.43 486.13 351.91 485.42 351.91C484.85 351.91 484.45 351.6 483.92 350.81C483.04 349.49 481.46 348.35 478.9 348.35C475.95 348.35 474.19 349.85 474.19 352C474.19 353.67 475.33 354.95 478.11 355.65L480.93 356.4C485.02 357.41 487.62 359.08 487.62 362.52C487.62 366.83 483.49 369.17 478.91 369.17C475.26 369.17 472.09 367.54 471.08 365.21C470.9 364.86 470.55 364.37 470.55 363.71C470.55 362.92 471.03 362.35 471.78 362.35C472.49 362.35 472.84 362.75 473.15 363.41C474.07 365.61 476.36 366.53 478.91 366.53C481.99 366.53 484.68 365.3 484.68 362.7C484.68 360.63 483.05 359.66 480.68 359.05L477.16 358.13C473.07 357.07 471.26 354.83 471.26 352.06C471.26 348.36 474.56 345.81 478.96 345.81C482.35 345.81 484.94 347.26 486.31 349.51V349.49Z" fill="black"/>
<path d="M506.24 349.49C506.5 349.93 506.63 350.28 506.63 350.68C506.63 351.43 506.06 351.91 505.35 351.91C504.78 351.91 504.38 351.6 503.85 350.81C502.97 349.49 501.39 348.35 498.83 348.35C495.88 348.35 494.12 349.85 494.12 352C494.12 353.67 495.26 354.95 498.04 355.65L500.86 356.4C504.95 357.41 507.55 359.08 507.55 362.52C507.55 366.83 503.42 369.17 498.84 369.17C495.19 369.17 492.02 367.54 491.01 365.21C490.83 364.86 490.48 364.37 490.48 363.71C490.48 362.92 490.96 362.35 491.71 362.35C492.42 362.35 492.77 362.75 493.08 363.41C494 365.61 496.29 366.53 498.84 366.53C501.92 366.53 504.61 365.3 504.61 362.7C504.61 360.63 502.98 359.66 500.61 359.05L497.09 358.13C493 357.07 491.19 354.83 491.19 352.06C491.19 348.36 494.49 345.81 498.89 345.81C502.28 345.81 504.87 347.26 506.24 349.51V349.49Z" fill="black"/>
<path d="M511.63 338.62C511.63 337.78 512.34 337.08 513.17 337.08C514 337.08 514.71 337.78 514.71 338.62C514.71 339.46 514.01 340.16 513.17 340.16C512.33 340.16 511.63 339.46 511.63 338.62V338.62ZM514.67 347.47V367.67C514.67 368.51 514.01 369.21 513.17 369.21C512.33 369.21 511.67 368.51 511.67 367.67V347.47C511.67 346.63 512.33 345.93 513.17 345.93C514.01 345.93 514.67 346.63 514.67 347.47Z" fill="black"/>
<path d="M541.59 357.5C541.59 365.38 535.3 369.25 530.19 369.25C525.08 369.25 518.84 365.38 518.84 357.5C518.84 349.62 525.13 345.79 530.19 345.79C535.25 345.79 541.59 349.66 541.59 357.5ZM521.83 357.5C521.83 363.66 526.36 366.61 530.19 366.61C534.02 366.61 538.6 363.66 538.6 357.5C538.6 351.34 534.07 348.43 530.19 348.43C526.31 348.43 521.83 351.38 521.83 357.5Z" fill="black"/>
<path d="M565.93 355.48V367.63C565.93 368.42 565.27 369.17 564.43 369.17C563.59 369.17 562.93 368.42 562.93 367.63V355.48C562.93 350.38 559.81 348.53 556.55 348.53C551.88 348.53 549.33 352.36 548.85 355.26V367.63C548.85 368.42 548.19 369.17 547.35 369.17C546.51 369.17 545.85 368.42 545.85 367.63V347.48C545.85 346.64 546.51 345.94 547.35 345.94C548.19 345.94 548.85 346.64 548.85 347.48V351.44C549.11 349.99 551.89 345.85 557.25 345.85C561.34 345.85 565.92 348.23 565.92 355.49L565.93 355.48Z" fill="black"/>
<path d="M585.61 349.49C585.87 349.93 586 350.28 586 350.68C586 351.43 585.43 351.91 584.72 351.91C584.15 351.91 583.75 351.6 583.22 350.81C582.34 349.49 580.76 348.35 578.2 348.35C575.25 348.35 573.49 349.85 573.49 352C573.49 353.67 574.63 354.95 577.41 355.65L580.23 356.4C584.32 357.41 586.92 359.08 586.92 362.52C586.92 366.83 582.79 369.17 578.21 369.17C574.56 369.17 571.39 367.54 570.38 365.21C570.2 364.86 569.85 364.37 569.85 363.71C569.85 362.92 570.33 362.35 571.08 362.35C571.79 362.35 572.14 362.75 572.45 363.41C573.37 365.61 575.66 366.53 578.21 366.53C581.29 366.53 583.98 365.3 583.98 362.7C583.98 360.63 582.35 359.66 579.98 359.05L576.46 358.13C572.37 357.07 570.56 354.83 570.56 352.06C570.56 348.36 573.86 345.81 578.26 345.81C581.65 345.81 584.24 347.26 585.61 349.51V349.49Z" fill="black"/>
<path d="M589.26 373.43L591.81 366.39C592.07 365.55 592.56 365.25 593.26 365.25H594.54C595.38 365.25 595.55 365.73 595.16 366.53L591.68 373.75C591.37 374.41 590.89 374.59 590.27 374.59H590.01C589.31 374.59 589 374.11 589.26 373.45V373.43Z" fill="black"/>
<path d="M146.14 403.48V400.27C146.14 399.43 146.84 398.73 147.64 398.73C148.52 398.73 149.18 399.43 149.18 400.27V420.47C149.18 421.26 148.48 422.01 147.64 422.01C146.85 422.01 146.14 421.26 146.14 420.47V416.77C144.86 419.94 141.65 422.05 137.95 422.05C133.02 422.05 127.04 418.22 127.04 410.3C127.04 402.38 133.02 398.59 137.95 398.59C141.34 398.59 144.64 400.26 146.14 403.47V403.48ZM146.32 410.3C146.32 403.96 142.01 401.23 138.27 401.23C134.53 401.23 130.04 404.13 130.04 410.3C130.04 416.47 134.53 419.41 138.27 419.41C142.01 419.41 146.32 416.51 146.32 410.3Z" fill="black"/>
<path d="M174.61 408.28V420.43C174.61 421.22 173.95 421.97 173.11 421.97C172.27 421.97 171.61 421.22 171.61 420.43V408.28C171.61 403.18 168.49 401.33 165.23 401.33C160.57 401.33 158.01 405.16 157.53 408.06V420.43C157.53 421.22 156.87 421.97 156.03 421.97C155.19 421.97 154.53 421.22 154.53 420.43V400.28C154.53 399.44 155.19 398.74 156.03 398.74C156.87 398.74 157.53 399.44 157.53 400.28V404.24C157.79 402.79 160.57 398.65 165.94 398.65C170.03 398.65 174.61 401.03 174.61 408.29V408.28Z" fill="black"/>
<path d="M188.77 420.07C188.77 421.52 186.57 421.96 184.9 421.96C182.79 421.96 180.76 421.17 180.76 417.6V401.41H178.6C177.85 401.41 177.32 400.93 177.32 400.13C177.32 399.33 177.85 398.85 178.6 398.85H180.76V394.85C180.76 394.01 181.42 393.35 182.26 393.35C183.1 393.35 183.76 394.01 183.76 394.85V398.85H187.46C188.21 398.85 188.78 399.33 188.78 400.13C188.78 400.93 188.21 401.41 187.46 401.41H183.76V417.43C183.76 418.84 184.38 419.37 185.52 419.37C186.22 419.37 186.8 419.19 187.28 419.06C188.12 418.8 188.78 419.32 188.78 420.07H188.77Z" fill="black"/>
<path d="M191.99 391.42C191.99 390.58 192.69 389.88 193.53 389.88C194.37 389.88 195.07 390.58 195.07 391.42C195.07 392.26 194.36 392.96 193.53 392.96C192.7 392.96 191.99 392.26 191.99 391.42ZM195.03 400.27V420.47C195.03 421.31 194.37 422.01 193.53 422.01C192.69 422.01 192.03 421.31 192.03 420.47V400.27C192.03 399.43 192.69 398.73 193.53 398.73C194.37 398.73 195.03 399.43 195.03 400.27Z" fill="black"/>
<path d="M213.79 409.38C213.79 410.08 213.26 410.61 212.6 410.61H200.81C200.15 410.61 199.58 410.08 199.58 409.38C199.58 408.72 200.15 408.19 200.81 408.19H212.6C213.26 408.19 213.79 408.72 213.79 409.38Z" fill="black"/>
<path d="M219.91 421.96C219.07 421.96 218.41 421.21 218.41 420.42V391.82C218.41 391.03 219.07 390.32 219.91 390.32C220.75 390.32 221.41 391.02 221.41 391.82V420.42C221.41 421.21 220.75 421.96 219.91 421.96Z" fill="black"/>
<path d="M226.69 391.42C226.69 390.58 227.39 389.88 228.23 389.88C229.07 389.88 229.77 390.58 229.77 391.42C229.77 392.26 229.06 392.96 228.23 392.96C227.4 392.96 226.69 392.26 226.69 391.42ZM229.73 400.27V420.47C229.73 421.31 229.07 422.01 228.23 422.01C227.39 422.01 226.73 421.31 226.73 420.47V400.27C226.73 399.43 227.39 398.73 228.23 398.73C229.07 398.73 229.73 399.43 229.73 400.27Z" fill="black"/>
<path d="M255.1 408.28V420.43C255.1 421.22 254.44 421.97 253.6 421.97C252.76 421.97 252.1 421.22 252.1 420.43V408.28C252.1 403.18 248.98 401.33 245.72 401.33C241.05 401.33 238.5 405.16 238.02 408.06V420.43C238.02 421.22 237.36 421.97 236.52 421.97C235.68 421.97 235.02 421.22 235.02 420.43V400.28C235.02 399.44 235.68 398.74 236.52 398.74C237.36 398.74 238.02 399.44 238.02 400.28V404.24C238.28 402.79 241.06 398.65 246.42 398.65C250.51 398.65 255.09 401.03 255.09 408.29L255.1 408.28Z" fill="black"/>
<path d="M279.43 420.64C279.43 421.39 278.86 421.96 278.11 421.96C277.71 421.96 277.36 421.83 277.1 421.56L267.11 411.17L263.37 414.95V420.41C263.37 421.2 262.71 421.95 261.87 421.95C261.03 421.95 260.37 421.2 260.37 420.41V391.81C260.37 391.02 261.03 390.31 261.87 390.31C262.71 390.31 263.37 391.01 263.37 391.81V411.26L275.12 399.16C275.38 398.9 275.78 398.72 276.13 398.72C276.92 398.72 277.54 399.34 277.54 400.08C277.54 400.48 277.36 400.78 277.14 401.05L269 409.28L278.99 419.62C279.3 419.93 279.43 420.28 279.43 420.63V420.64Z" fill="black"/>
<path d="M281.43 426.23L283.98 419.19C284.24 418.35 284.73 418.05 285.43 418.05H286.71C287.55 418.05 287.72 418.53 287.33 419.33L283.85 426.55C283.54 427.21 283.06 427.39 282.44 427.39H282.18C281.48 427.39 281.17 426.91 281.43 426.25V426.23Z" fill="black"/>
<path d="M321.61 403.48V400.27C321.61 399.43 322.31 398.73 323.11 398.73C323.99 398.73 324.65 399.43 324.65 400.27V420.47C324.65 421.26 323.95 422.01 323.11 422.01C322.32 422.01 321.61 421.26 321.61 420.47V416.77C320.33 419.94 317.12 422.05 313.42 422.05C308.49 422.05 302.51 418.22 302.51 410.3C302.51 402.38 308.49 398.59 313.42 398.59C316.81 398.59 320.11 400.26 321.61 403.47V403.48ZM321.79 410.3C321.79 403.96 317.48 401.23 313.74 401.23C310 401.23 305.51 404.13 305.51 410.3C305.51 416.47 310 419.41 313.74 419.41C317.48 419.41 321.79 416.51 321.79 410.3Z" fill="black"/>
<path d="M350.07 408.28V420.43C350.07 421.22 349.41 421.97 348.57 421.97C347.73 421.97 347.07 421.22 347.07 420.43V408.28C347.07 403.18 343.95 401.33 340.69 401.33C336.03 401.33 333.47 405.16 332.99 408.06V420.43C332.99 421.22 332.33 421.97 331.49 421.97C330.65 421.97 329.99 421.22 329.99 420.43V400.28C329.99 399.44 330.65 398.74 331.49 398.74C332.33 398.74 332.99 399.44 332.99 400.28V404.24C333.25 402.79 336.03 398.65 341.4 398.65C345.49 398.65 350.07 401.03 350.07 408.29V408.28Z" fill="black"/>
<path d="M364.23 420.07C364.23 421.52 362.03 421.96 360.36 421.96C358.25 421.96 356.22 421.17 356.22 417.6V401.41H354.06C353.31 401.41 352.78 400.93 352.78 400.13C352.78 399.33 353.31 398.85 354.06 398.85H356.22V394.85C356.22 394.01 356.88 393.35 357.72 393.35C358.56 393.35 359.22 394.01 359.22 394.85V398.85H362.92C363.67 398.85 364.24 399.33 364.24 400.13C364.24 400.93 363.67 401.41 362.92 401.41H359.22V417.43C359.22 418.84 359.84 419.37 360.98 419.37C361.68 419.37 362.26 419.19 362.74 419.06C363.58 418.8 364.24 419.32 364.24 420.07H364.23Z" fill="black"/>
<path d="M367.46 391.42C367.46 390.58 368.16 389.88 369 389.88C369.84 389.88 370.54 390.58 370.54 391.42C370.54 392.26 369.83 392.96 369 392.96C368.17 392.96 367.46 392.26 367.46 391.42ZM370.5 400.27V420.47C370.5 421.31 369.84 422.01 369 422.01C368.16 422.01 367.5 421.31 367.5 420.47V400.27C367.5 399.43 368.16 398.73 369 398.73C369.84 398.73 370.5 399.43 370.5 400.27Z" fill="black"/>
<path d="M389.25 409.38C389.25 410.08 388.72 410.61 388.06 410.61H376.27C375.61 410.61 375.04 410.08 375.04 409.38C375.04 408.72 375.61 408.19 376.27 408.19H388.06C388.72 408.19 389.25 408.72 389.25 409.38Z" fill="black"/>
<path d="M424.67 400.13C424.67 400.39 424.58 400.57 424.54 400.79L417.85 420.68C417.59 421.38 417.1 421.82 416.44 421.82C415.82 421.82 415.3 421.38 415.03 420.68L408.16 403.39L401.3 420.68C401.03 421.38 400.51 421.82 399.89 421.82C399.27 421.82 398.75 421.38 398.48 420.68L391.79 400.79C391.7 400.57 391.61 400.39 391.61 400.13C391.61 399.38 392.27 398.72 393.02 398.72C393.59 398.72 394.21 399.07 394.38 399.56L400.06 417.12L406.75 399.69C406.97 399.07 407.5 398.72 408.16 398.72C408.78 398.72 409.3 399.07 409.53 399.69L416.26 417.12L421.89 399.56C422.07 399.03 422.68 398.72 423.26 398.72C424.01 398.72 424.67 399.38 424.67 400.13Z" fill="black"/>
<path d="M448.69 409.77C448.69 410.91 447.98 411.49 446.75 411.49H429.59C429.94 416.9 434.12 419.41 438.13 419.41C440.24 419.41 442.18 418.75 443.67 417.52C444.24 417.08 444.59 416.86 444.99 416.86C445.74 416.86 446.18 417.39 446.18 418.05C446.18 418.45 446 418.84 445.34 419.46C443.49 421.13 440.81 421.97 438.04 421.97C432.5 421.97 426.51 418.23 426.51 410.31C426.51 402.39 432.67 398.6 437.69 398.6C442.71 398.6 448.69 402.52 448.69 409.78V409.77ZM429.59 409.07H445.79C445.44 403.7 441.26 401.24 437.69 401.24C434.12 401.24 429.99 403.7 429.59 409.07V409.07Z" fill="black"/>
<path d="M474.85 410.3C474.85 418.22 468.87 422.05 463.94 422.05C460.24 422.05 457.03 419.94 455.75 416.77V420.47C455.75 421.26 455.05 422.01 454.25 422.01C453.41 422.01 452.71 421.26 452.71 420.47V391.87C452.71 391.03 453.41 390.33 454.21 390.33C455.05 390.33 455.71 391.03 455.71 391.87V399.92C455.75 400.01 455.75 400.14 455.75 400.27V403.48C457.25 400.27 460.55 398.6 463.94 398.6C468.87 398.6 474.85 402.47 474.85 410.31V410.3ZM471.86 410.3C471.86 404.14 467.37 401.23 463.63 401.23C459.89 401.23 455.58 403.96 455.58 410.3C455.58 416.64 459.89 419.41 463.63 419.41C467.37 419.41 471.86 416.51 471.86 410.3Z" fill="black"/>
<path d="M499.19 408.28V420.43C499.19 421.22 498.53 421.97 497.69 421.97C496.85 421.97 496.19 421.22 496.19 420.43V408.28C496.19 403.18 493.07 401.33 489.81 401.33C485.15 401.33 482.59 405.16 482.11 408.06V420.43C482.11 421.22 481.45 421.97 480.61 421.97C479.77 421.97 479.11 421.22 479.11 420.43V391.83C479.11 391.04 479.77 390.33 480.61 390.33C481.45 390.33 482.11 391.03 482.11 391.83V404.24C482.37 402.79 485.15 398.65 490.52 398.65C494.61 398.65 499.19 401.03 499.19 408.29V408.28Z" fill="black"/>
<path d="M526.06 410.3C526.06 418.18 519.77 422.05 514.66 422.05C509.55 422.05 503.31 418.18 503.31 410.3C503.31 402.42 509.6 398.59 514.66 398.59C519.72 398.59 526.06 402.46 526.06 410.3ZM506.3 410.3C506.3 416.46 510.83 419.41 514.66 419.41C518.49 419.41 523.07 416.46 523.07 410.3C523.07 404.14 518.54 401.23 514.66 401.23C510.78 401.23 506.3 404.18 506.3 410.3Z" fill="black"/>
<path d="M551.89 410.3C551.89 418.18 545.6 422.05 540.49 422.05C535.38 422.05 529.14 418.18 529.14 410.3C529.14 402.42 535.43 398.59 540.49 398.59C545.55 398.59 551.89 402.46 551.89 410.3ZM532.13 410.3C532.13 416.46 536.66 419.41 540.49 419.41C544.32 419.41 548.89 416.46 548.89 410.3C548.89 404.14 544.36 401.23 540.49 401.23C536.62 401.23 532.13 404.18 532.13 410.3Z" fill="black"/>
<path d="M575.22 420.64C575.22 421.39 574.65 421.96 573.9 421.96C573.5 421.96 573.15 421.83 572.89 421.56L562.9 411.17L559.16 414.95V420.41C559.16 421.2 558.5 421.95 557.66 421.95C556.82 421.95 556.16 421.2 556.16 420.41V391.81C556.16 391.02 556.82 390.31 557.66 390.31C558.5 390.31 559.16 391.01 559.16 391.81V411.26L570.91 399.16C571.17 398.9 571.57 398.72 571.92 398.72C572.71 398.72 573.33 399.34 573.33 400.08C573.33 400.48 573.15 400.78 572.94 401.05L564.8 409.28L574.79 419.62C575.1 419.93 575.23 420.28 575.23 420.63L575.22 420.64Z" fill="black"/>
<path d="M577.23 426.23L579.78 419.19C580.04 418.35 580.53 418.05 581.23 418.05H582.51C583.35 418.05 583.52 418.53 583.13 419.33L579.65 426.55C579.34 427.21 578.86 427.39 578.24 427.39H577.98C577.27 427.39 576.97 426.91 577.23 426.25V426.23Z" fill="black"/>
<path d="M146.14 456.28V453.07C146.14 452.23 146.84 451.53 147.64 451.53C148.52 451.53 149.18 452.23 149.18 453.07V473.27C149.18 474.06 148.48 474.81 147.64 474.81C146.85 474.81 146.14 474.06 146.14 473.27V469.57C144.86 472.74 141.65 474.85 137.95 474.85C133.02 474.85 127.04 471.02 127.04 463.1C127.04 455.18 133.02 451.39 137.95 451.39C141.34 451.39 144.64 453.06 146.14 456.27V456.28ZM146.32 463.1C146.32 456.76 142.01 454.04 138.27 454.04C134.53 454.04 130.04 456.94 130.04 463.1C130.04 469.26 134.53 472.21 138.27 472.21C142.01 472.21 146.32 469.31 146.32 463.1Z" fill="black"/>
<path d="M174.61 461.08V473.23C174.61 474.02 173.95 474.77 173.11 474.77C172.27 474.77 171.61 474.02 171.61 473.23V461.08C171.61 455.98 168.49 454.13 165.23 454.13C160.57 454.13 158.01 457.96 157.53 460.86V473.23C157.53 474.02 156.87 474.77 156.03 474.77C155.19 474.77 154.53 474.02 154.53 473.23V453.08C154.53 452.24 155.19 451.54 156.03 451.54C156.87 451.54 157.53 452.24 157.53 453.08V457.04C157.79 455.59 160.57 451.45 165.94 451.45C170.03 451.45 174.61 453.83 174.61 461.09V461.08Z" fill="black"/>
<path d="M200.85 444.66V473.26C200.85 474.05 200.15 474.8 199.31 474.8C198.52 474.8 197.81 474.05 197.81 473.26V469.56C196.53 472.73 193.32 474.84 189.62 474.84C184.69 474.84 178.71 471.01 178.71 463.09C178.71 455.17 184.69 451.38 189.62 451.38C193.01 451.38 196.31 453.05 197.81 456.26V453.05C197.81 452.92 197.81 452.79 197.85 452.7V444.65C197.85 443.81 198.51 443.11 199.35 443.11C200.14 443.11 200.85 443.81 200.85 444.65V444.66ZM197.99 463.1C197.99 456.76 193.68 454.04 189.94 454.04C186.2 454.04 181.71 456.94 181.71 463.1C181.71 469.26 186.2 472.21 189.94 472.21C193.68 472.21 197.99 469.31 197.99 463.1Z" fill="black"/>
<path d="M254.98 461.08V473.23C254.98 474.02 254.32 474.77 253.48 474.77C252.69 474.77 251.98 474.02 251.98 473.23V461.08C251.98 455.98 248.86 454.13 245.64 454.13C240.93 454.13 238.38 457.96 237.89 460.86V473.23C237.89 474.02 237.23 474.77 236.39 474.77C235.55 474.77 234.89 474.02 234.89 473.23V461.08C234.89 455.98 231.77 454.13 228.51 454.13C223.85 454.13 221.29 457.96 220.81 460.86V473.23C220.81 474.02 220.15 474.77 219.31 474.77C218.47 474.77 217.81 474.02 217.81 473.23V453.08C217.81 452.24 218.47 451.54 219.31 451.54C220.15 451.54 220.81 452.24 220.81 453.08V457.04C221.07 455.59 223.85 451.45 229.22 451.45C232.48 451.45 236.09 452.95 237.36 457.3C238.64 454.53 241.58 451.45 246.34 451.45C250.43 451.45 254.97 453.83 254.97 461.09L254.98 461.08Z" fill="black"/>
<path d="M281.91 463.1C281.91 470.98 275.62 474.85 270.51 474.85C265.4 474.85 259.16 470.98 259.16 463.1C259.16 455.22 265.45 451.39 270.51 451.39C275.57 451.39 281.91 455.26 281.91 463.1ZM262.15 463.1C262.15 469.26 266.68 472.21 270.51 472.21C274.34 472.21 278.92 469.26 278.92 463.1C278.92 456.94 274.39 454.04 270.51 454.04C266.63 454.04 262.15 456.99 262.15 463.1Z" fill="black"/>
<path d="M299.03 452.89C299.03 453.77 298.28 454.34 297.01 454.34C292.65 454.34 289.66 457.82 289.18 460.85V473.22C289.18 474.06 288.52 474.76 287.68 474.76C286.84 474.76 286.18 474.06 286.18 473.22V453.07C286.18 452.23 286.84 451.53 287.68 451.53C288.52 451.53 289.18 452.23 289.18 453.07V457.03C289.44 455.58 292.35 451.44 297.23 451.44C298.37 451.44 299.03 452.06 299.03 452.89V452.89Z" fill="black"/>
<path d="M322.12 462.57C322.12 463.71 321.42 464.29 320.18 464.29H303.02C303.37 469.7 307.55 472.21 311.56 472.21C313.67 472.21 315.61 471.55 317.1 470.32C317.67 469.88 318.02 469.66 318.42 469.66C319.17 469.66 319.61 470.19 319.61 470.85C319.61 471.25 319.43 471.64 318.77 472.26C316.92 473.93 314.24 474.77 311.47 474.77C305.93 474.77 299.94 471.03 299.94 463.11C299.94 455.19 306.1 451.4 311.12 451.4C316.14 451.4 322.12 455.32 322.12 462.58V462.57ZM303.02 461.87H319.21C318.86 456.5 314.68 454.04 311.11 454.04C307.54 454.04 303.41 456.5 303.01 461.87H303.02Z" fill="black"/>
<path d="M324.62 472.69C324.62 471.68 325.46 470.84 326.51 470.84C327.56 470.84 328.36 471.68 328.36 472.69C328.36 473.7 327.52 474.58 326.51 474.58C325.5 474.58 324.62 473.74 324.62 472.69Z" fill="black"/>
<path d="M331.75 472.69C331.75 471.68 332.59 470.84 333.64 470.84C334.69 470.84 335.49 471.68 335.49 472.69C335.49 473.7 334.65 474.58 333.64 474.58C332.63 474.58 331.75 473.74 331.75 472.69Z" fill="black"/>
<path d="M338.89 472.69C338.89 471.68 339.73 470.84 340.78 470.84C341.83 470.84 342.63 471.68 342.63 472.69C342.63 473.7 341.79 474.58 340.78 474.58C339.77 474.58 338.89 473.74 338.89 472.69Z" fill="black"/>
<path d="M133.98 183.47C131.31 183.47 129.01 181.3 129.01 178.56V143.78C129.01 141.05 131.31 138.81 133.98 138.81C136.65 138.81 138.95 141.05 138.95 143.78V178.56C138.95 181.29 136.65 183.47 133.98 183.47Z" fill="#F97400"/>
<path d="M177.63 155.59V178.63C177.63 181.36 175.21 183.54 172.54 183.54C170.24 183.54 168.19 181.93 167.7 179.69C166.77 181.3 164.04 183.6 159.5 183.6C152.67 183.6 144.6 178.38 144.6 167.02C144.6 155.66 152.8 150.5 159.5 150.5C163.72 150.5 166.77 152.86 167.57 155.03V155.59C167.57 152.92 169.87 150.68 172.54 150.68C175.21 150.68 177.63 152.92 177.63 155.59V155.59ZM168 167.02C168 160.93 164.09 158.95 161.35 158.95C157.81 158.95 154.52 161.74 154.52 167.02C154.52 172.3 157.81 175.16 161.35 175.16C164.08 175.16 168 173.23 168 167.02V167.02Z" fill="#F97400"/>
<path d="M215.3 155.09C215.3 156.02 214.99 156.83 214.68 157.45L199.09 191.73C198.03 194.15 196.23 195.27 194.37 195.27C191.76 195.27 189.96 193.22 189.96 190.86C189.96 189.93 190.27 189.12 190.52 188.5L193.69 181.48L182.51 157.45C182.26 156.83 181.95 156.02 181.95 155.09C181.95 152.73 183.87 150.68 186.48 150.68C188.34 150.68 190.14 151.8 191.2 154.22L198.47 170.86L205.98 154.22C207.04 151.8 208.84 150.68 210.7 150.68C213.37 150.68 215.3 152.73 215.3 155.09V155.09Z" fill="#F97400"/>
<path d="M249.82 165.47C249.82 169.38 247.71 170.69 243.73 170.69L227.89 170.5C228.76 173.67 231.31 175.53 235.34 175.53C237.2 175.53 237.51 175.28 239.25 174.85C240.55 174.42 241.61 173.86 242.85 173.86C244.9 173.86 246.14 175.29 246.14 177.15C246.14 178.33 245.64 179.76 243.78 181.19C241.67 182.49 238.81 183.49 234.9 183.49C226.45 183.49 217.57 178.46 217.57 167.16C217.57 155.86 227.07 150.52 234.15 150.52C241.23 150.52 249.8 156.17 249.8 165.49L249.82 165.47ZM227.9 163.92H240.07C239.45 160.38 237.03 159.08 234.17 159.08C231.31 159.08 228.46 160.38 227.9 163.92V163.92Z" fill="#F97400"/>
<path d="M278.44 155.03C278.44 157.82 276.39 159.69 272.17 159.69C267.95 159.69 265.21 162.98 265.09 164.78V178.57C265.09 181.24 262.79 183.48 260.12 183.48C257.45 183.48 255.15 181.24 255.15 178.57V155.72C255.15 152.93 257.45 150.69 260.12 150.69C262.79 150.69 265.09 152.93 265.09 155.72V157.65C265.28 155.35 269 150.57 273.97 150.57C276.95 150.57 278.44 152.68 278.44 155.04V155.03Z" fill="#F97400"/>
<path d="M301.83 166.21C301.83 168.51 299.9 170.31 297.79 170.31H283.32C281.15 170.31 279.22 168.51 279.22 166.21C279.22 163.91 281.14 162.11 283.32 162.11H297.79C299.9 162.11 301.83 163.97 301.83 166.21Z" fill="#F97400"/>
<path d="M335.44 152.61C335.44 157.83 332.33 160.19 324.26 167.76L316.93 174.41H331.03C333.39 174.41 335.32 176.27 335.32 178.82C335.32 181.37 333.39 183.17 331.03 183.17H313.45C306.31 183.17 302.77 175.66 307.92 170.69L314.19 165.1C322.7 157.15 325.37 155.16 325.37 152.06C325.37 148.46 322.26 147.96 320.9 147.96C319.72 147.96 317.17 148.08 315.87 151.13C315.31 153.06 313.39 154.86 310.84 154.86C307.11 154.86 305.56 151.51 306.68 147.72C308.6 143.37 313.08 139.27 320.34 139.27C329.53 139.27 335.43 145.73 335.43 152.62L335.44 152.61Z" fill="#F97400"/>
<path d="M381.89 154.78C382.26 155.22 383.13 156.27 383.13 157.89C383.13 160.31 381.52 161.55 379.34 161.55C377.97 161.55 376.55 161.11 375.3 159.75C374.06 158.57 373 158.26 372.01 158.26C370.39 158.26 369.46 159.07 369.46 160.19C369.46 160.5 369.27 161.62 371.7 162.36L375.36 163.48C379.96 164.85 384.3 167.21 384.3 172.98C384.3 180.18 377.78 183.48 371.32 183.48C365.54 183.48 362.69 181.06 360.82 179.51C360.45 179.14 358.71 177.15 358.71 174.85C358.71 173.3 359.64 171.19 362.44 171.19C364.43 171.19 365.55 172.43 366.41 173.36C368.4 175.22 369.89 175.53 371.32 175.53C373.8 175.53 374.49 174.41 374.49 173.54C374.49 173.29 374.55 171.93 371.76 171.06L368.84 170.19C362.38 168.26 359.71 164.85 359.71 160.25C359.71 153.54 365.86 150.5 371.63 150.5C375.6 150.5 379.83 151.99 381.88 154.79L381.89 154.78Z" fill="#F97400"/>
<path d="M420.41 165.47C420.41 169.38 418.3 170.69 414.32 170.69L398.48 170.5C399.35 173.67 401.9 175.53 405.93 175.53C407.79 175.53 408.1 175.28 409.84 174.85C411.14 174.42 412.2 173.86 413.44 173.86C415.49 173.86 416.73 175.29 416.73 177.15C416.73 178.33 416.23 179.76 414.37 181.19C412.26 182.49 409.4 183.49 405.49 183.49C397.04 183.49 388.16 178.46 388.16 167.16C388.16 155.86 397.66 150.52 404.74 150.52C411.82 150.52 420.39 156.17 420.39 165.49L420.41 165.47ZM398.49 163.92H410.66C410.04 160.38 407.62 159.08 404.76 159.08C401.9 159.08 399.05 160.38 398.49 163.92V163.92Z" fill="#F97400"/>
<path d="M453.05 176.27C453.05 178.82 451.13 180.06 450.13 180.93C447.58 182.61 445.04 183.48 441.25 183.48C433.61 183.48 424.42 178.14 424.42 167.02C424.42 155.9 433.61 150.5 441.25 150.5C445.04 150.5 447.58 151.37 450.13 153.05C451.12 153.92 453.05 155.16 453.05 157.71C453.05 160.01 451.06 161.44 449.14 161.44C447.22 161.44 445.91 160.38 445.41 160.07C444.17 159.26 442.62 159.08 441.56 159.08C437.03 159.08 434.23 162.19 434.23 167.03C434.23 171.87 437.02 174.92 441.56 174.92C442.62 174.92 444.17 174.73 445.41 173.93C445.91 173.62 447.27 172.56 449.14 172.56C451.01 172.56 453.05 173.99 453.05 176.29V176.27Z" fill="#F97400"/>
<path d="M458.39 168.14V155.53C458.39 152.8 460.63 150.62 463.36 150.62C466.09 150.62 468.27 152.79 468.27 155.53V168.14C468.27 172.98 470.51 175.16 473.8 175.16C478.89 175.16 480.01 170.01 480.01 169.32V155.53C480.01 152.8 482.31 150.62 484.98 150.62C487.65 150.62 489.95 152.79 489.95 155.53V178.38C489.95 181.17 487.65 183.41 484.98 183.41C482.31 183.41 480.01 181.17 480.01 178.38V176.45C479.82 178.75 476.28 183.53 469.95 183.53C463.62 183.53 458.4 179.06 458.4 168.13L458.39 168.14Z" fill="#F97400"/>
<path d="M520.46 155.03C520.46 157.82 518.41 159.69 514.19 159.69C509.97 159.69 507.23 162.98 507.11 164.78V178.57C507.11 181.24 504.81 183.48 502.14 183.48C499.47 183.48 497.17 181.24 497.17 178.57V155.72C497.17 152.93 499.47 150.69 502.14 150.69C504.81 150.69 507.11 152.93 507.11 155.72V157.65C507.3 155.35 511.02 150.57 515.99 150.57C518.97 150.57 520.46 152.68 520.46 155.04V155.03Z" fill="#F97400"/>
<path d="M524.72 143.11C524.72 140.44 527.08 138.2 529.75 138.2C532.42 138.2 534.78 140.44 534.78 143.11C534.78 145.78 532.42 147.95 529.75 147.95C527.08 147.95 524.72 145.71 524.72 143.11ZM534.72 155.72V178.51C534.72 181.3 532.42 183.54 529.75 183.54C527.08 183.54 524.78 181.3 524.78 178.51V155.72C524.78 152.93 527.08 150.69 529.75 150.69C532.42 150.69 534.72 152.93 534.72 155.72Z" fill="#F97400"/>
<path d="M561.36 178.38C561.36 181.61 558.63 183.47 553.6 183.47C548.57 183.47 543.91 181.98 543.91 171.73V158.5H542.67C540.25 158.5 538.7 156.89 538.7 154.71C538.7 152.53 540.25 150.86 542.67 150.86H543.91V147.26C543.91 144.53 546.21 142.29 548.88 142.29C551.55 142.29 553.85 144.53 553.85 147.26V150.86H557.45C559.87 150.86 561.36 152.47 561.36 154.71C561.36 156.95 559.87 158.5 557.45 158.5H553.85V172.22C553.85 173.9 554.35 174.95 555.53 174.95C556.15 174.95 557.21 174.7 557.89 174.76C560.06 174.76 561.37 176.06 561.37 178.36L561.36 178.38Z" fill="#F97400"/>
<path d="M598.12 155.09C598.12 156.02 597.81 156.83 597.5 157.45L581.909 191.73C580.849 194.15 579.05 195.27 577.19 195.27C574.58 195.27 572.78 193.22 572.78 190.86C572.78 189.93 573.09 189.12 573.34 188.5L576.51 181.48L565.33 157.45C565.08 156.83 564.77 156.02 564.77 155.09C564.77 152.73 566.689 150.68 569.299 150.68C571.159 150.68 572.96 151.8 574.02 154.22L581.289 170.86L588.799 154.22C589.859 151.8 591.66 150.68 593.52 150.68C596.19 150.68 598.12 152.73 598.12 155.09V155.09Z" fill="#F97400"/>
<path d="M126.54 535.84C130.36 534.4 148.41 555.82 148.41 555.82C149.15 557.51 176.74 516.83 176.74 516.83C178.23 514.6 182.01 515.9 181.62 518.51C179.5 532.55 171.02 549.55 150.22 571.35C148.29 573.37 131.19 561.3 125.78 545.26C124.59 541.73 122.88 537.22 126.53 535.84H126.54Z" fill="#766EDB"/>
<path d="M247.77 548.7C247.27 560.73 237.85 566.55 228.67 566.55C217.63 566.55 206.6 557.5 206.6 544.42C206.6 531.34 217.76 522.29 228.48 522.29C232.69 522.29 235.92 523.28 238.27 524.52C241 526.19 242.86 527.93 242.86 530.47C242.86 533.45 240.5 535.06 238.15 535.06C236.23 535.06 234.93 534.13 234.31 533.76C233.87 533.57 232.08 531.96 228.67 531.96C222.41 531.96 217.26 537.54 217.26 544.42C217.26 551.3 222.28 556.88 228.67 556.88C232.14 556.88 237.1 554.9 237.85 550.56H232.77C230.48 550.56 228.37 548.89 228.37 546.47C228.37 544.05 230.48 542.32 232.77 542.32H242.26C246.1 542.32 247.96 544.99 247.78 548.71L247.77 548.7Z" fill="black"/>
<path d="M285.8 550.12C285.8 561.22 276.13 566.55 269.06 566.55C261.99 566.55 252.26 561.22 252.26 550.12C252.26 539.02 261.93 533.5 269.06 533.5C276.19 533.5 285.8 539.08 285.8 550.12ZM262.06 550.12C262.06 554.77 265.16 557.99 269.07 557.99C272.98 557.99 276.08 554.77 276.08 550.12C276.08 545.47 272.92 542.06 269.07 542.06C265.22 542.06 262.06 545.28 262.06 550.12Z" fill="black"/>
<path d="M323.38 550.12C323.38 561.22 313.71 566.55 306.64 566.55C299.57 566.55 289.84 561.22 289.84 550.12C289.84 539.02 299.51 533.5 306.64 533.5C313.77 533.5 323.38 539.08 323.38 550.12ZM299.64 550.12C299.64 554.77 302.74 557.99 306.65 557.99C310.56 557.99 313.66 554.77 313.66 550.12C313.66 545.47 310.5 542.06 306.65 542.06C302.8 542.06 299.64 545.28 299.64 550.12Z" fill="black"/>
<path d="M360.41 526.75V561.59C360.41 564.32 357.99 566.49 355.33 566.49C353.04 566.49 350.99 564.88 350.5 562.65C349.57 564.26 346.84 566.56 342.32 566.56C335.5 566.56 327.44 561.35 327.44 550.01C327.44 538.67 335.62 533.52 342.32 533.52C346.53 533.52 349.57 535.88 350.38 538.05V538.61C350.38 538.36 350.38 538.11 350.44 537.87V526.77C350.44 524.1 352.67 521.87 355.34 521.87C358.01 521.87 360.42 524.1 360.42 526.77L360.41 526.75ZM350.8 550C350.8 543.92 346.89 541.94 344.17 541.94C340.64 541.94 337.35 544.73 337.35 550C337.35 555.27 340.64 558.12 344.17 558.12C346.9 558.12 350.8 556.2 350.8 550Z" fill="black"/>
<path d="M423.96 562.21C423.96 564.63 421.91 566.61 419.43 566.61C418.19 566.61 416.95 565.99 416.14 565.12L402.44 549.19L396.43 555.45V561.53C396.43 564.32 394.14 566.61 391.35 566.61C388.56 566.61 386.27 564.38 386.27 561.59V527.31C386.27 524.52 388.56 522.23 391.35 522.23C394.14 522.23 396.43 524.52 396.43 527.31V541.88L413.91 523.96C414.72 523.03 416.08 522.22 417.57 522.22C420.05 522.22 422.16 524.2 422.16 526.75C422.16 527.87 421.6 528.98 421.11 529.6L408.77 542.56L422.84 559.24C423.52 559.98 423.96 561.1 423.96 562.22V562.21Z" fill="black"/>
<path d="M460.05 548.95V561.53C460.05 564.26 457.82 566.43 455.09 566.43C452.36 566.43 450.19 564.26 450.19 561.53V548.95C450.19 544.11 447.96 541.94 444.67 541.94C439.59 541.94 438.47 547.09 438.47 547.77V561.53C438.47 564.26 436.18 566.43 433.51 566.43C430.84 566.43 428.55 564.26 428.55 561.53V538.72C428.55 535.93 430.84 533.7 433.51 533.7C436.18 533.7 438.47 535.93 438.47 538.72V540.64C438.66 538.35 442.19 533.57 448.51 533.57C454.83 533.57 460.04 538.03 460.04 548.95H460.05Z" fill="black"/>
<path d="M466.99 526.13C466.99 523.46 469.35 521.23 472.01 521.23C474.67 521.23 477.03 523.46 477.03 526.13C477.03 528.8 474.67 530.97 472.01 530.97C469.35 530.97 466.99 528.74 466.99 526.13ZM476.97 538.72V561.47C476.97 564.26 474.68 566.49 472.01 566.49C469.34 566.49 467.05 564.26 467.05 561.47V538.72C467.05 535.93 469.34 533.7 472.01 533.7C474.68 533.7 476.97 535.93 476.97 538.72Z" fill="black"/>
<path d="M515.65 561.59C515.65 562.02 515.59 562.46 515.46 562.89V565.49C515.46 575.53 505.79 578.82 499.22 578.82C495.5 578.82 492.4 577.83 491.04 577.39C488.87 576.46 487.75 574.91 487.75 573.11C487.75 570.88 489.55 569.2 491.66 569.2C491.97 569.2 492.53 569.2 493.46 569.51C494.58 569.57 496.5 570.38 499.23 570.38C503.82 570.38 505.62 567.71 505.62 565.48V562.81C504.63 564.42 501.9 566.53 497.56 566.53C490.74 566.53 482.68 561.32 482.68 549.98C482.68 538.64 490.86 533.49 497.56 533.49C501.78 533.49 504.81 535.85 505.62 538.02V538.58C505.62 535.91 507.91 533.68 510.58 533.68C513.25 533.68 515.66 535.91 515.66 538.58V561.58L515.65 561.59ZM506.04 550C506.04 543.92 502.13 541.94 499.41 541.94C495.88 541.94 492.59 544.73 492.59 550C492.59 555.27 495.88 558.12 499.41 558.12C502.14 558.12 506.04 556.2 506.04 550Z" fill="black"/>
<path d="M554.37 548.95V561.53C554.37 564.26 552.14 566.43 549.41 566.43C546.68 566.43 544.51 564.26 544.51 561.53V548.95C544.51 544.11 542.28 541.94 538.99 541.94C533.91 541.94 532.79 547.09 532.79 547.77V561.53C532.79 564.26 530.5 566.43 527.83 566.43C525.16 566.43 522.87 564.26 522.87 561.53V526.81C522.87 524.08 525.16 521.85 527.83 521.85C530.5 521.85 532.79 524.08 532.79 526.81V540.64C532.98 538.35 536.51 533.57 542.83 533.57C549.15 533.57 554.36 538.03 554.36 548.95H554.37Z" fill="black"/>
<path d="M580.31 561.34C580.31 564.56 577.58 566.42 572.56 566.42C567.54 566.42 562.89 564.93 562.89 554.7V541.49H561.65C559.23 541.49 557.68 539.88 557.68 537.71C557.68 535.54 559.23 533.87 561.65 533.87H562.89V530.27C562.89 527.54 565.18 525.31 567.85 525.31C570.52 525.31 572.81 527.54 572.81 530.27V533.87H576.41C578.83 533.87 580.32 535.48 580.32 537.71C580.32 539.94 578.83 541.49 576.41 541.49H572.81V555.19C572.81 556.86 573.31 557.92 574.48 557.92C575.1 557.92 576.15 557.67 576.84 557.73C579.01 557.73 580.31 559.03 580.31 561.33V561.34Z" fill="black"/>
</g>
<defs>
<clipPath id="clip0_1_12421">
<rect width="784.64" height="665.84" fill="white"/>
</clipPath>
</defs>
</svg>
