<svg width="455" height="374" viewBox="0 0 455 374" fill="none" xmlns="http://www.w3.org/2000/svg">
<path d="M50.1198 327.51L18.8698 323.29C10.4798 322.16 0.0897791 331.62 1.52978 349.49C2.52978 361.94 6.80978 372.28 16.1398 372.49C35.3398 372.92 50.8498 359.08 50.6998 356.65C50.5498 354.22 50.1198 327.51 50.1198 327.51V327.51Z" fill="#AD8E6F" stroke="black" stroke-width="2.79" stroke-linecap="round" stroke-linejoin="round"/>
<path d="M17.9999 347.77C17.9999 347.77 320 352.58 394.9 359.84C398.53 360.4 404.5 359.45 404.76 349.78C404.76 349.63 404.76 349.48 404.77 349.33C405 339.91 398.27 318.86 390.04 319.38C240.15 328.78 16.6399 322.86 16.6299 323.31C25.7999 323.73 25.7599 342.43 17.9899 347.78L17.9999 347.77Z" fill="#FFE9C7" stroke="black" stroke-width="2.79" stroke-linecap="round" stroke-linejoin="round"/>
<path d="M424.06 250.92L434.45 246.32L432.59 119.79C432.59 119.79 426.42 118.59 426.41 118.59L432.31 115.25L432.15 96.7102L424.37 93.3502L431.66 88.1102C431.66 88.1102 430.41 31.6602 430.38 31.6602C373.52 31.4602 148.34 31.1702 77.5695 30.9202C76.8295 15.5902 49.5495 1.4402 40.7595 1.4102C31.7995 1.3802 23.5995 16.2202 23.7395 42.4602C23.7395 43.0202 23.9095 47.5502 23.9995 68.1502C23.9995 69.2802 31.5896 70.2502 31.5896 71.4502C31.5896 72.8602 24.0196 74.5002 24.0196 76.0102C24.0896 105.51 28.1196 202.05 28.1196 202.05C28.1196 202.05 31.7596 207.43 37.4896 207.45L27.9795 215.1C27.9795 215.1 29.3896 252.87 28.5196 303.75C28.4996 304.95 40.3896 307.55 40.3996 307.55C40.3996 307.55 29.1095 311.21 29.2195 312.2C31.8095 334.46 30.8096 370.98 19.7896 372.48C80.4496 363.7 318.12 367.08 408.52 367.08C437.13 367.08 435.1 318.03 435.11 307.82C435.15 281.64 434.29 257.51 434.29 257.51L424.08 250.91L424.06 250.92Z" fill="#FFE9C7" stroke="black" stroke-width="2.79" stroke-linecap="round" stroke-linejoin="round"/>
<path d="M66.1399 21.01L38.1699 23.8C38.1699 23.8 35.3899 50.28 49.0799 50.57C62.7699 50.86 66.7099 42 66.5999 40.38C66.4899 38.77 66.1399 21.01 66.1399 21.01Z" fill="#AD8E6F" stroke="black" stroke-width="2.79" stroke-linecap="round" stroke-linejoin="round"/>
<path d="M49.08 50.5701C49.08 50.5701 361.17 40.7801 441.63 50.6801C445.52 51.4601 452.1 42.0801 452.61 28.5801C452.61 28.3701 452.63 28.1601 452.63 27.9501C453.09 14.8001 446.02 4.36009 437.15 5.11009C275.6 18.7101 40.98 0.780091 40.96 1.41009C50.82 1.96009 59.58 11.8801 59.45 27.9101C59.38 36.5001 56.4 47.2101 49.09 50.5701H49.08Z" fill="#FFE9C7" stroke="black" stroke-width="2.79" stroke-linecap="round" stroke-linejoin="round"/>
<g style="mix-blend-mode:color-dodge" opacity="0.49">
<path d="M437.15 5.10008C292.13 17.3201 62.5 4.12008 44.13 1.75008C43.48 1.68008 42.93 1.63008 42.48 1.58008C45.64 2.07008 48.63 3.52008 51.21 5.84008C54.6 7.86008 57.41 10.6101 56.96 14.1801C74.98 16.7601 219.47 13.2701 264.46 15.9201C317.98 19.0701 424.05 17.3801 450.13 14.4201C447.37 8.41008 442.6 4.65008 437.16 5.11008L437.15 5.10008Z" fill="#FFF5E3"/>
</g>
<g style="mix-blend-mode:multiply" opacity="0.3">
<path d="M399.17 297.55C399.65 299.94 401.74 300.6 404.14 298.8C405.11 298.07 406.02 297.12 406.93 296.22L407.08 296.09C409.38 294.49 411.26 290.59 410.79 288.23C410.31 285.81 408.22 285.21 405.82 286.98C404.84 287.7 403.93 288.66 403.01 289.57C402.93 289.64 402.85 289.7 402.76 289.77C400.51 291.45 398.7 295.21 399.16 297.55H399.17Z" fill="#C4A062"/>
</g>
<g style="mix-blend-mode:multiply" opacity="0.3">
<path d="M397.23 277.97C396.18 279.69 396.18 281.61 397.36 282.37C397.84 282.67 398.41 282.8 398.97 282.97C399.02 283 399.06 283.02 399.11 283.05C400.21 283.78 402.24 282.94 403.26 281.28C404.32 279.55 404.3 277.66 403.13 276.88C402.65 276.57 402.07 276.44 401.51 276.28C401.47 276.26 401.42 276.23 401.38 276.21C400.27 275.51 398.25 276.3 397.23 277.98V277.97Z" fill="#C4A062"/>
</g>
<path d="M134.24 284.47C134.24 284.82 133.97 285.17 133.51 285.52C132.13 286.57 130.43 287.17 128.41 287.17C123.71 287.17 118.99 283.23 118.99 277.53C118.99 271.83 123.66 267.89 128.46 267.89C130.46 267.89 132.1 268.48 133.48 269.51C134.02 269.89 134.24 270.18 134.24 270.59C134.24 271.1 133.83 271.45 133.37 271.45C132.99 271.45 132.72 271.23 132.34 270.94C131.48 270.21 129.99 269.67 128.43 269.67C124.63 269.67 120.93 272.94 120.93 277.52C120.93 282.1 124.66 285.37 128.41 285.37C130 285.37 131.49 284.83 132.35 284.1C132.73 283.8 133.03 283.59 133.38 283.59C133.84 283.59 134.25 283.94 134.25 284.45L134.24 284.47Z" fill="black"/>
<path d="M149.82 279.96C149.82 284.79 145.96 287.17 142.83 287.17C139.7 287.17 135.87 284.79 135.87 279.96C135.87 275.13 139.73 272.78 142.83 272.78C145.93 272.78 149.82 275.16 149.82 279.96ZM137.7 279.96C137.7 283.74 140.48 285.55 142.83 285.55C145.18 285.55 147.99 283.74 147.99 279.96C147.99 276.18 145.21 274.4 142.83 274.4C140.45 274.4 137.7 276.21 137.7 279.96Z" fill="black"/>
<path d="M153.5 287.12C152.99 287.12 152.58 286.66 152.58 286.18V268.63C152.58 268.14 152.98 267.71 153.5 267.71C154.02 267.71 154.42 268.14 154.42 268.63V286.18C154.42 286.67 154.01 287.12 153.5 287.12Z" fill="black"/>
<path d="M158.71 287.12C158.2 287.12 157.79 286.66 157.79 286.18V268.63C157.79 268.14 158.19 267.71 158.71 267.71C159.23 267.71 159.63 268.14 159.63 268.63V286.18C159.63 286.67 159.22 287.12 158.71 287.12Z" fill="black"/>
<path d="M174.06 275.78V273.81C174.06 273.3 174.49 272.87 174.98 272.87C175.52 272.87 175.93 273.3 175.93 273.81V286.2C175.93 286.69 175.5 287.14 174.98 287.14C174.49 287.14 174.06 286.68 174.06 286.2V283.93C173.28 285.87 171.31 287.17 169.04 287.17C166.02 287.17 162.34 284.82 162.34 279.96C162.34 275.1 166.01 272.78 169.04 272.78C171.12 272.78 173.14 273.81 174.06 275.78ZM174.17 279.96C174.17 276.07 171.53 274.4 169.23 274.4C166.93 274.4 164.18 276.18 164.18 279.96C164.18 283.74 166.93 285.55 169.23 285.55C171.53 285.55 174.17 283.77 174.17 279.96Z" fill="black"/>
<path d="M192.93 279.96C192.93 284.82 189.26 287.17 186.23 287.17C183.96 287.17 181.99 285.87 181.21 283.93V286.2C181.21 286.69 180.78 287.14 180.29 287.14C179.78 287.14 179.34 286.68 179.34 286.2V268.65C179.34 268.14 179.77 267.71 180.26 267.71C180.77 267.71 181.18 268.14 181.18 268.65V273.59C181.21 273.64 181.21 273.72 181.21 273.81V275.78C182.13 273.81 184.15 272.78 186.23 272.78C189.25 272.78 192.93 275.16 192.93 279.96ZM191.09 279.96C191.09 276.18 188.34 274.4 186.04 274.4C183.74 274.4 181.1 276.07 181.1 279.96C181.1 283.85 183.75 285.55 186.04 285.55C188.33 285.55 191.09 283.77 191.09 279.96Z" fill="black"/>
<path d="M194.86 285.85C194.86 285.23 195.37 284.72 196.02 284.72C196.67 284.72 197.15 285.23 197.15 285.85C197.15 286.47 196.64 287.01 196.02 287.01C195.4 287.01 194.86 286.5 194.86 285.85Z" fill="black"/>
<path d="M201.11 287.12C200.6 287.12 200.19 286.66 200.19 286.18V268.63C200.19 268.14 200.59 267.71 201.11 267.71C201.63 267.71 202.03 268.14 202.03 268.63V286.18C202.03 286.67 201.62 287.12 201.11 287.12Z" fill="black"/>
<path d="M216.46 275.78V273.81C216.46 273.3 216.89 272.87 217.38 272.87C217.92 272.87 218.33 273.3 218.33 273.81V286.2C218.33 286.69 217.9 287.14 217.38 287.14C216.89 287.14 216.46 286.68 216.46 286.2V283.93C215.68 285.87 213.71 287.17 211.44 287.17C208.42 287.17 204.74 284.82 204.74 279.96C204.74 275.1 208.41 272.78 211.44 272.78C213.52 272.78 215.54 273.81 216.46 275.78ZM216.57 279.96C216.57 276.07 213.93 274.4 211.63 274.4C209.33 274.4 206.58 276.18 206.58 279.96C206.58 283.74 209.33 285.55 211.63 285.55C213.93 285.55 216.57 283.77 216.57 279.96Z" fill="black"/>
<path d="M234.05 278.72V286.17C234.05 286.66 233.65 287.11 233.13 287.11C232.61 287.11 232.21 286.65 232.21 286.17V278.72C232.21 275.59 230.29 274.45 228.3 274.45C225.44 274.45 223.87 276.8 223.58 278.58V286.16C223.58 286.65 223.17 287.1 222.66 287.1C222.15 287.1 221.74 286.64 221.74 286.16V273.8C221.74 273.29 222.14 272.86 222.66 272.86C223.18 272.86 223.58 273.29 223.58 273.8V276.23C223.74 275.34 225.44 272.8 228.73 272.8C231.24 272.8 234.05 274.26 234.05 278.71V278.72Z" fill="black"/>
<path d="M250.29 268.65V286.2C250.29 286.69 249.86 287.14 249.34 287.14C248.85 287.14 248.42 286.68 248.42 286.2V283.93C247.64 285.87 245.67 287.17 243.4 287.17C240.38 287.17 236.7 284.82 236.7 279.96C236.7 275.1 240.37 272.78 243.4 272.78C245.48 272.78 247.5 273.81 248.42 275.78V273.81C248.42 273.73 248.42 273.65 248.45 273.59V268.65C248.45 268.14 248.85 267.71 249.37 267.71C249.86 267.71 250.29 268.14 250.29 268.65ZM248.53 279.96C248.53 276.07 245.89 274.4 243.59 274.4C241.29 274.4 238.54 276.18 238.54 279.96C238.54 283.74 241.29 285.55 243.59 285.55C245.89 285.55 248.53 283.77 248.53 279.96Z" fill="black"/>
<path d="M135.46 312.9C135.46 313.06 135.43 313.22 135.38 313.36L127.96 330.39C127.77 330.82 127.5 331.09 127.04 331.09C126.55 331.09 126.31 330.82 126.12 330.39L118.7 313.36C118.65 313.23 118.59 313.06 118.59 312.9C118.59 312.44 118.99 312.01 119.51 312.01C119.91 312.01 120.27 312.28 120.4 312.6L127.04 327.93L133.65 312.6C133.81 312.28 134.13 312.01 134.54 312.01C135.08 312.01 135.46 312.44 135.46 312.9V312.9Z" fill="black"/>
<path d="M136.93 325.29V317.84C136.93 317.35 137.34 316.9 137.85 316.9C138.36 316.9 138.77 317.36 138.77 317.84V325.29C138.77 328.42 140.69 329.55 142.68 329.55C145.54 329.55 147.11 327.2 147.4 325.42V317.84C147.4 317.35 147.8 316.9 148.32 316.9C148.84 316.9 149.24 317.36 149.24 317.84V330.2C149.24 330.71 148.83 331.14 148.32 331.14C147.81 331.14 147.4 330.71 147.4 330.2V327.77C147.24 328.66 145.54 331.2 142.24 331.2C139.73 331.2 136.92 329.74 136.92 325.29H136.93Z" fill="black"/>
<path d="M153.58 331.12C153.07 331.12 152.66 330.66 152.66 330.18V312.63C152.66 312.14 153.07 311.71 153.58 311.71C154.09 311.71 154.5 312.14 154.5 312.63V330.18C154.5 330.67 154.1 331.12 153.58 331.12Z" fill="black"/>
<path d="M169.58 327.99C169.58 328.31 169.36 328.53 169.17 328.77C167.98 330.34 166.17 331.12 164.18 331.12C161.02 331.12 157.22 328.74 157.22 323.97C157.22 319.2 161.03 316.79 164.18 316.79C166.18 316.79 167.98 317.57 169.17 319.14C169.36 319.38 169.58 319.6 169.58 319.92C169.58 320.38 169.2 320.68 168.77 320.68C168.45 320.68 168.15 320.49 167.93 320.19C167.09 319 165.61 318.41 164.26 318.41C161.8 318.41 159.05 320.22 159.05 323.97C159.05 327.72 161.8 329.5 164.26 329.5C165.61 329.5 167.09 328.91 167.93 327.72C168.14 327.42 168.44 327.23 168.77 327.23C169.2 327.23 169.58 327.53 169.58 327.99Z" fill="black"/>
<path d="M183.03 319.78V317.81C183.03 317.3 183.46 316.87 183.95 316.87C184.49 316.87 184.9 317.3 184.9 317.81V330.2C184.9 330.69 184.47 331.14 183.95 331.14C183.46 331.14 183.03 330.68 183.03 330.2V327.93C182.25 329.87 180.28 331.17 178.01 331.17C174.99 331.17 171.31 328.82 171.31 323.96C171.31 319.1 174.98 316.78 178.01 316.78C180.09 316.78 182.11 317.81 183.03 319.78ZM183.14 323.96C183.14 320.07 180.5 318.4 178.2 318.4C175.9 318.4 173.15 320.18 173.15 323.96C173.15 327.74 175.9 329.55 178.2 329.55C180.5 329.55 183.14 327.77 183.14 323.96Z" fill="black"/>
<path d="M200.62 322.72V330.17C200.62 330.66 200.22 331.11 199.7 331.11C199.18 331.11 198.78 330.65 198.78 330.17V322.72C198.78 319.59 196.86 318.45 194.87 318.45C192.01 318.45 190.44 320.8 190.15 322.58V330.16C190.15 330.65 189.74 331.1 189.23 331.1C188.72 331.1 188.31 330.64 188.31 330.16V317.8C188.31 317.29 188.71 316.86 189.23 316.86C189.75 316.86 190.15 317.29 190.15 317.8V320.23C190.31 319.34 192.01 316.8 195.3 316.8C197.81 316.8 200.62 318.26 200.62 322.71V322.72Z" fill="black"/>
<path d="M72.0699 272.55C73.8799 271.87 82.4199 282 82.4199 282C82.7699 282.8 95.8199 263.56 95.8199 263.56C96.5199 262.51 98.3099 263.12 98.1299 264.35C97.1299 270.99 93.1199 279.03 83.2799 289.34C82.3699 290.3 74.2799 284.59 71.7199 277C71.1599 275.33 70.3499 273.2 72.0799 272.54L72.0699 272.55Z" fill="#448EFF"/>
<path d="M72.0699 316.39C73.8799 315.71 82.4199 325.84 82.4199 325.84C82.7699 326.64 95.8199 307.4 95.8199 307.4C96.5199 306.35 98.3099 306.96 98.1299 308.19C97.1299 314.83 93.1199 322.87 83.2799 333.18C82.3699 334.14 74.2799 328.43 71.7199 320.84C71.1599 319.17 70.3499 317.04 72.0799 316.38L72.0699 316.39Z" fill="#448EFF"/>
<path d="M87.5396 183.23V200.48C87.5396 201.02 87.1296 201.34 86.6996 201.34C86.3196 201.34 86.0297 201.18 85.7297 200.77L74.5296 185.71V200.34C74.5296 200.85 74.0696 201.34 73.5896 201.34C73.0796 201.34 72.6396 200.85 72.6396 200.34V183.12C72.6396 182.55 73.0697 182.26 73.4797 182.26C73.8897 182.26 74.1496 182.42 74.4496 182.8L85.6497 197.89V183.23C85.6497 182.72 86.1096 182.26 86.5996 182.26C87.1096 182.26 87.5396 182.72 87.5396 183.23Z" fill="black"/>
<path d="M102.469 184.01H93.4794V191.03H100.819C101.279 191.03 101.659 191.38 101.659 191.84C101.659 192.27 101.279 192.65 100.819 192.65H93.4794V200.37C93.4794 200.88 93.0494 201.34 92.5394 201.34C92.0294 201.34 91.5894 200.88 91.5894 200.37V183.34C91.5894 182.75 92.0194 182.34 92.6194 182.34H102.469C102.899 182.34 103.309 182.72 103.309 183.18C103.309 183.64 102.909 184.02 102.469 184.02V184.01Z" fill="black"/>
<path d="M118.75 183.15C118.75 183.64 118.35 183.99 117.91 183.99H113V200.37C113 200.88 112.59 201.34 112.08 201.34C111.54 201.34 111.14 200.88 111.14 200.37V183.99H106.2C105.77 183.99 105.39 183.64 105.39 183.15C105.39 182.72 105.77 182.34 106.2 182.34H117.91C118.34 182.34 118.75 182.72 118.75 183.15Z" fill="black"/>
<path d="M141.78 194.21C141.78 199.04 137.92 201.42 134.79 201.42C131.66 201.42 127.83 199.04 127.83 194.21C127.83 189.38 131.69 187.03 134.79 187.03C137.89 187.03 141.78 189.41 141.78 194.21ZM129.66 194.21C129.66 197.99 132.44 199.8 134.79 199.8C137.14 199.8 139.95 197.99 139.95 194.21C139.95 190.43 137.17 188.65 134.79 188.65C132.41 188.65 129.66 190.46 129.66 194.21Z" fill="black"/>
<path d="M163.31 187.98C163.31 188.14 163.26 188.25 163.23 188.38L159.13 200.58C158.97 201.01 158.67 201.28 158.27 201.28C157.89 201.28 157.57 201.01 157.41 200.58L153.2 189.97L148.99 200.58C148.83 201.01 148.5 201.28 148.13 201.28C147.76 201.28 147.43 201.01 147.27 200.58L143.17 188.38C143.12 188.25 143.06 188.14 143.06 187.98C143.06 187.52 143.47 187.12 143.92 187.12C144.27 187.12 144.65 187.34 144.76 187.63L148.24 198.4L152.34 187.71C152.47 187.33 152.8 187.12 153.2 187.12C153.58 187.12 153.9 187.34 154.04 187.71L158.17 198.4L161.63 187.63C161.74 187.31 162.12 187.12 162.47 187.12C162.93 187.12 163.33 187.52 163.33 187.98H163.31Z" fill="black"/>
<path d="M177.81 192.97V200.42C177.81 200.91 177.4 201.36 176.89 201.36C176.38 201.36 175.97 200.9 175.97 200.42V192.97C175.97 189.84 174.05 188.71 172.06 188.71C169.2 188.71 167.63 191.06 167.34 192.84V200.42C167.34 200.91 166.93 201.36 166.42 201.36C165.91 201.36 165.5 200.9 165.5 200.42V188.06C165.5 187.55 165.91 187.12 166.42 187.12C166.93 187.12 167.34 187.55 167.34 188.06V190.49C167.5 189.6 169.2 187.06 172.5 187.06C175.01 187.06 177.82 188.52 177.82 192.97H177.81Z" fill="black"/>
<path d="M194.079 193.89C194.079 194.59 193.649 194.94 192.889 194.94H182.359C182.579 198.26 185.14 199.8 187.6 199.8C188.89 199.8 190.079 199.4 190.999 198.64C191.349 198.37 191.569 198.24 191.809 198.24C192.269 198.24 192.539 198.56 192.539 198.97C192.539 199.21 192.429 199.46 192.029 199.83C190.899 200.86 189.249 201.37 187.549 201.37C184.149 201.37 180.479 199.08 180.479 194.22C180.479 189.36 184.259 187.04 187.339 187.04C190.419 187.04 194.089 189.44 194.089 193.9L194.079 193.89ZM182.359 193.46H192.289C192.069 190.17 189.51 188.66 187.32 188.66C185.13 188.66 182.6 190.17 182.35 193.46H182.359Z" fill="black"/>
<path d="M204.569 187.95C204.569 188.49 204.109 188.84 203.329 188.84C200.659 188.84 198.819 190.97 198.529 192.84V200.42C198.529 200.93 198.119 201.36 197.609 201.36C197.099 201.36 196.689 200.93 196.689 200.42V188.06C196.689 187.55 197.099 187.12 197.609 187.12C198.119 187.12 198.529 187.55 198.529 188.06V190.49C198.689 189.6 200.469 187.06 203.469 187.06C204.169 187.06 204.579 187.44 204.579 187.95H204.569Z" fill="black"/>
<path d="M215.47 189.3C215.63 189.57 215.71 189.79 215.71 190.03C215.71 190.49 215.36 190.79 214.93 190.79C214.58 190.79 214.34 190.6 214.01 190.12C213.47 189.31 212.5 188.61 210.93 188.61C209.12 188.61 208.04 189.53 208.04 190.85C208.04 191.88 208.74 192.66 210.44 193.09L212.17 193.55C214.68 194.17 216.27 195.2 216.27 197.3C216.27 199.95 213.73 201.38 210.93 201.38C208.69 201.38 206.75 200.38 206.13 198.95C206.02 198.73 205.81 198.44 205.81 198.03C205.81 197.54 206.11 197.19 206.57 197.19C207 197.19 207.22 197.43 207.41 197.84C207.98 199.19 209.38 199.76 210.95 199.76C212.84 199.76 214.49 199 214.49 197.41C214.49 196.14 213.49 195.55 212.03 195.17L209.87 194.6C207.36 193.95 206.25 192.58 206.25 190.87C206.25 188.6 208.27 187.04 210.97 187.04C213.05 187.04 214.64 187.93 215.48 189.31L215.47 189.3Z" fill="black"/>
<path d="M231.22 192.97V200.42C231.22 200.91 230.81 201.36 230.3 201.36C229.79 201.36 229.38 200.9 229.38 200.42V192.97C229.38 189.84 227.46 188.71 225.47 188.71C222.61 188.71 221.04 191.06 220.75 192.84V200.42C220.75 200.91 220.34 201.36 219.83 201.36C219.32 201.36 218.91 200.9 218.91 200.42V182.87C218.91 182.38 219.32 181.95 219.83 181.95C220.34 181.95 220.75 182.38 220.75 182.87V190.48C220.91 189.59 222.61 187.05 225.91 187.05C228.42 187.05 231.23 188.51 231.23 192.96L231.22 192.97Z" fill="black"/>
<path d="M234.56 182.63C234.56 182.12 234.99 181.69 235.51 181.69C236.03 181.69 236.45 182.12 236.45 182.63C236.45 183.14 236.02 183.57 235.51 183.57C235 183.57 234.56 183.14 234.56 182.63ZM236.42 188.06V200.45C236.42 200.96 236.01 201.39 235.5 201.39C234.99 201.39 234.58 200.96 234.58 200.45V188.06C234.58 187.55 234.99 187.12 235.5 187.12C236.01 187.12 236.42 187.55 236.42 188.06Z" fill="black"/>
<path d="M253.4 194.21C253.4 199.07 249.73 201.42 246.71 201.42C244.44 201.42 242.47 200.12 241.69 198.18V200.45C241.69 200.53 241.69 200.58 241.66 200.67V205.56C241.66 206.05 241.25 206.48 240.74 206.48C240.23 206.48 239.82 206.05 239.82 205.56V188.07C239.82 187.56 240.23 187.13 240.77 187.13C241.26 187.13 241.69 187.56 241.69 188.07V190.04C242.61 188.07 244.63 187.04 246.71 187.04C249.73 187.04 253.4 189.42 253.4 194.22V194.21ZM251.56 194.21C251.56 190.43 248.81 188.65 246.51 188.65C244.21 188.65 241.57 190.32 241.57 194.21C241.57 198.1 244.22 199.8 246.51 199.8C248.8 199.8 251.56 198.02 251.56 194.21Z" fill="black"/>
<path d="M84.4396 220.38C84.4396 220.54 84.3896 220.65 84.3596 220.76L79.0696 232.99C78.8496 233.42 78.6396 233.69 78.1496 233.69C77.6596 233.69 77.4196 233.42 77.2296 232.99L71.9096 220.76C71.8796 220.65 71.8296 220.54 71.8296 220.38C71.8296 219.92 72.2096 219.52 72.6896 219.52C73.0396 219.52 73.3896 219.71 73.5496 220.11L78.1396 230.93L82.6996 220.11C82.8596 219.71 83.2096 219.52 83.5596 219.52C84.0496 219.52 84.4196 219.92 84.4196 220.38H84.4396Z" fill="black"/>
<path d="M99.0795 226.29C99.0795 226.99 98.6495 227.34 97.8895 227.34H87.3595C87.5795 230.66 90.1395 232.2 92.5995 232.2C93.8895 232.2 95.0795 231.8 95.9995 231.04C96.3495 230.77 96.5695 230.64 96.8095 230.64C97.2695 230.64 97.5395 230.96 97.5395 231.37C97.5395 231.61 97.4295 231.86 97.0295 232.23C95.8995 233.26 94.2495 233.77 92.5495 233.77C89.1495 233.77 85.4795 231.48 85.4795 226.62C85.4795 221.76 89.2595 219.44 92.3395 219.44C95.4195 219.44 99.0895 221.84 99.0895 226.3L99.0795 226.29ZM87.3595 225.86H97.2895C97.0695 222.57 94.5095 221.06 92.3195 221.06C90.1295 221.06 87.5995 222.57 87.3495 225.86H87.3595Z" fill="black"/>
<path d="M109.569 220.35C109.569 220.89 109.109 221.24 108.329 221.24C105.659 221.24 103.819 223.37 103.529 225.24V232.82C103.529 233.33 103.119 233.76 102.609 233.76C102.099 233.76 101.689 233.33 101.689 232.82V220.46C101.689 219.95 102.099 219.52 102.609 219.52C103.119 219.52 103.529 219.95 103.529 220.46V222.89C103.689 222 105.469 219.46 108.469 219.46C109.169 219.46 109.579 219.84 109.579 220.35H109.569Z" fill="black"/>
<path d="M111.709 215.03C111.709 214.52 112.139 214.09 112.659 214.09C113.179 214.09 113.599 214.52 113.599 215.03C113.599 215.54 113.169 215.97 112.659 215.97C112.149 215.97 111.709 215.54 111.709 215.03ZM113.569 220.46V232.85C113.569 233.36 113.159 233.79 112.649 233.79C112.139 233.79 111.729 233.36 111.729 232.85V220.46C111.729 219.95 112.139 219.52 112.649 219.52C113.159 219.52 113.569 219.95 113.569 220.46V220.46Z" fill="black"/>
<path d="M125.06 215.66C125.06 216.06 124.74 216.39 124.36 216.39C124.12 216.39 123.82 216.28 123.52 216.12C123.14 215.88 122.58 215.63 121.77 215.63C120.23 215.63 119.34 216.57 119.34 218.55V219.6H122.74C123.2 219.6 123.55 219.9 123.55 220.38C123.55 220.86 123.2 221.16 122.74 221.16H119.34V232.85C119.34 233.34 118.93 233.79 118.42 233.79C117.91 233.79 117.5 233.33 117.5 232.85V221.16H116.5C116.04 221.16 115.72 220.86 115.72 220.38C115.72 219.9 116.04 219.6 116.5 219.6H117.5V218.49C117.5 214.98 119.79 214.01 121.66 214.01C122.9 214.01 123.93 214.41 124.66 214.95C124.88 215.11 125.06 215.36 125.06 215.65V215.66Z" fill="black"/>
<path d="M126.95 215.03C126.95 214.52 127.38 214.09 127.9 214.09C128.42 214.09 128.84 214.52 128.84 215.03C128.84 215.54 128.41 215.97 127.9 215.97C127.39 215.97 126.95 215.54 126.95 215.03ZM128.81 220.46V232.85C128.81 233.36 128.4 233.79 127.89 233.79C127.38 233.79 126.97 233.36 126.97 232.85V220.46C126.97 219.95 127.38 219.52 127.89 219.52C128.4 219.52 128.81 219.95 128.81 220.46V220.46Z" fill="black"/>
<path d="M143.87 230.64C143.87 230.96 143.65 231.18 143.46 231.42C142.27 232.99 140.46 233.77 138.47 233.77C135.31 233.77 131.51 231.39 131.51 226.62C131.51 221.85 135.32 219.44 138.47 219.44C140.47 219.44 142.28 220.22 143.46 221.79C143.65 222.03 143.87 222.25 143.87 222.57C143.87 223.03 143.49 223.33 143.06 223.33C142.74 223.33 142.44 223.14 142.22 222.84C141.38 221.65 139.9 221.06 138.55 221.06C136.09 221.06 133.34 222.87 133.34 226.62C133.34 230.37 136.09 232.15 138.55 232.15C139.9 232.15 141.38 231.56 142.22 230.37C142.44 230.07 142.73 229.88 143.06 229.88C143.49 229.88 143.87 230.18 143.87 230.64V230.64Z" fill="black"/>
<path d="M157.319 222.43V220.46C157.319 219.95 157.749 219.52 158.239 219.52C158.779 219.52 159.189 219.95 159.189 220.46V232.85C159.189 233.34 158.759 233.79 158.239 233.79C157.749 233.79 157.319 233.33 157.319 232.85V230.58C156.539 232.52 154.569 233.82 152.299 233.82C149.279 233.82 145.609 231.47 145.609 226.61C145.609 221.75 149.279 219.43 152.299 219.43C154.379 219.43 156.399 220.46 157.319 222.43ZM157.429 226.61C157.429 222.72 154.779 221.05 152.489 221.05C150.199 221.05 147.439 222.83 147.439 226.61C147.439 230.39 150.189 232.2 152.489 232.2C154.789 232.2 157.429 230.42 157.429 226.61Z" fill="black"/>
<path d="M168.229 232.61C168.229 233.5 166.879 233.77 165.849 233.77C164.549 233.77 163.309 233.28 163.309 231.1V221.17H161.989C161.529 221.17 161.209 220.87 161.209 220.39C161.209 219.91 161.529 219.61 161.989 219.61H163.309V217.15C163.309 216.64 163.709 216.23 164.229 216.23C164.749 216.23 165.149 216.63 165.149 217.15V219.61H167.419C167.879 219.61 168.229 219.91 168.229 220.39C168.229 220.87 167.879 221.17 167.419 221.17H165.149V231C165.149 231.86 165.529 232.19 166.229 232.19C166.659 232.19 167.009 232.08 167.309 232C167.819 231.84 168.229 232.16 168.229 232.62V232.61Z" fill="black"/>
<path d="M170.359 215.03C170.359 214.52 170.789 214.09 171.309 214.09C171.829 214.09 172.249 214.52 172.249 215.03C172.249 215.54 171.819 215.97 171.309 215.97C170.799 215.97 170.359 215.54 170.359 215.03ZM172.219 220.46V232.85C172.219 233.36 171.809 233.79 171.299 233.79C170.789 233.79 170.379 233.36 170.379 232.85V220.46C170.379 219.95 170.789 219.52 171.299 219.52C171.809 219.52 172.219 219.95 172.219 220.46V220.46Z" fill="black"/>
<path d="M188.869 226.61C188.869 231.44 185.009 233.82 181.879 233.82C178.749 233.82 174.919 231.44 174.919 226.61C174.919 221.78 178.779 219.43 181.879 219.43C184.979 219.43 188.869 221.81 188.869 226.61ZM176.749 226.61C176.749 230.39 179.529 232.2 181.879 232.2C184.229 232.2 187.039 230.39 187.039 226.61C187.039 222.83 184.259 221.05 181.879 221.05C179.499 221.05 176.749 222.86 176.749 226.61Z" fill="black"/>
<path d="M203.939 225.37V232.82C203.939 233.31 203.529 233.76 203.019 233.76C202.509 233.76 202.099 233.3 202.099 232.82V225.37C202.099 222.24 200.179 221.1 198.189 221.1C195.329 221.1 193.759 223.45 193.469 225.23V232.81C193.469 233.3 193.059 233.75 192.549 233.75C192.039 233.75 191.629 233.29 191.629 232.81V220.45C191.629 219.94 192.039 219.51 192.549 219.51C193.059 219.51 193.469 219.94 193.469 220.45V222.88C193.629 221.99 195.329 219.45 198.629 219.45C201.139 219.45 203.949 220.91 203.949 225.36L203.939 225.37Z" fill="black"/>
<path d="M104.91 86.8302C104.91 87.2802 104.62 87.8102 104.46 88.3502L99.2998 102.78C98.7698 104.42 97.5398 105.28 96.1898 105.28C94.7098 105.28 93.6098 104.42 92.9098 102.78L88.5698 93.0302L84.2198 102.78C83.5198 104.42 82.2898 105.28 80.9398 105.28C79.5098 105.28 78.3598 104.42 77.8298 102.78L72.7098 88.3502C72.4998 87.8202 72.2598 87.2802 72.2598 86.8302C72.2598 85.1102 73.6098 83.7602 75.3298 83.7602C76.4798 83.7602 77.7098 84.4202 78.0798 85.4802L81.3998 96.0102L85.6598 85.7202C86.1898 84.4502 87.1798 83.7502 88.5698 83.7502C89.9598 83.7502 90.9898 84.4502 91.5198 85.7202L95.7398 96.0102L99.0998 85.4802C99.4298 84.5002 100.66 83.7602 101.84 83.7602C103.56 83.7602 104.91 85.1102 104.91 86.8302V86.8302Z" fill="#FF4D71"/>
<path d="M128.74 86.9901V102.2C128.74 104 127.14 105.44 125.38 105.44C123.86 105.44 122.51 104.37 122.18 102.9C121.56 103.97 119.76 105.48 116.77 105.48C112.26 105.48 106.93 102.04 106.93 94.5401C106.93 87.0401 112.34 83.6401 116.77 83.6401C119.56 83.6401 121.56 85.2001 122.1 86.6301V87.0001C122.1 85.2401 123.62 83.7601 125.38 83.7601C127.14 83.7601 128.74 85.2401 128.74 87.0001V86.9901ZM122.39 94.5301C122.39 90.5101 119.81 89.2001 118 89.2001C115.66 89.2001 113.49 91.0401 113.49 94.5301C113.49 98.0201 115.66 99.9001 118 99.9001C119.8 99.9001 122.39 98.6301 122.39 94.5301Z" fill="#FF4D71"/>
<path d="M137.04 105.4C135.28 105.4 133.76 103.97 133.76 102.16V79.2102C133.76 77.4102 135.28 75.9302 137.04 75.9302C138.8 75.9302 140.32 77.4102 140.32 79.2102V102.16C140.32 103.96 138.8 105.4 137.04 105.4Z" fill="#FF4D71"/>
<path d="M148.57 105.4C146.81 105.4 145.29 103.97 145.29 102.16V79.2102C145.29 77.4102 146.81 75.9302 148.57 75.9302C150.33 75.9302 151.85 77.4102 151.85 79.2102V102.16C151.85 103.96 150.33 105.4 148.57 105.4Z" fill="#FF4D71"/>
<path d="M177.09 93.5101C177.09 96.0901 175.7 96.9501 173.07 96.9501L162.62 96.8301C163.19 98.9201 164.87 100.15 167.54 100.15C168.77 100.15 168.98 99.9901 170.12 99.7001C170.98 99.4101 171.68 99.0401 172.5 99.0401C173.85 99.0401 174.67 99.9801 174.67 101.21C174.67 101.99 174.34 102.93 173.11 103.87C171.72 104.73 169.83 105.39 167.25 105.39C161.68 105.39 155.82 102.07 155.82 94.6101C155.82 87.1501 162.09 83.6301 166.76 83.6301C171.43 83.6301 177.09 87.3601 177.09 93.5101V93.5101ZM162.62 92.4901H170.65C170.24 90.1501 168.64 89.2901 166.76 89.2901C164.88 89.2901 162.99 90.1501 162.62 92.4901V92.4901Z" fill="#FF4D71"/>
<path d="M193.65 102.03C193.65 104.16 191.85 105.39 188.53 105.39C185.21 105.39 182.14 104.41 182.14 97.6402V88.9102H181.32C179.72 88.9102 178.7 87.8402 178.7 86.4102C178.7 84.9802 179.73 83.8702 181.32 83.8702H182.14V81.4902C182.14 79.6902 183.66 78.2102 185.42 78.2102C187.18 78.2102 188.7 79.6802 188.7 81.4902V83.8702H191.08C192.68 83.8702 193.66 84.9402 193.66 86.4102C193.66 87.8802 192.68 88.9102 191.08 88.9102H188.7V97.9702C188.7 99.0802 189.03 99.7702 189.81 99.7702C190.22 99.7702 190.92 99.6102 191.37 99.6502C192.81 99.6502 193.66 100.51 193.66 102.03H193.65Z" fill="#FF4D71"/>
<path d="M94.4599 133.84V149.05C94.4599 150.85 92.8599 152.29 91.0999 152.29C89.5799 152.29 88.2299 151.22 87.8999 149.75C87.2799 150.82 85.4799 152.33 82.4899 152.33C77.9799 152.33 72.6499 148.89 72.6499 141.39C72.6499 133.89 78.0599 130.49 82.4899 130.49C85.2799 130.49 87.2799 132.05 87.8199 133.48V133.85C87.8199 132.09 89.3399 130.61 91.0999 130.61C92.8599 130.61 94.4599 132.09 94.4599 133.85V133.84ZM88.1099 141.38C88.1099 137.36 85.5299 136.05 83.7199 136.05C81.3799 136.05 79.2099 137.89 79.2099 141.38C79.2099 144.87 81.3799 146.75 83.7199 146.75C85.5199 146.75 88.1099 145.48 88.1099 141.38Z" fill="#FF4D71"/>
<path d="M99.3696 142.12V133.8C99.3696 132 100.84 130.56 102.65 130.56C104.46 130.56 105.89 131.99 105.89 133.8V142.12C105.89 145.32 107.37 146.75 109.54 146.75C112.9 146.75 113.64 143.35 113.64 142.9V133.8C113.64 132 115.16 130.56 116.92 130.56C118.68 130.56 120.2 131.99 120.2 133.8V148.88C120.2 150.72 118.68 152.2 116.92 152.2C115.16 152.2 113.64 150.72 113.64 148.88V147.61C113.52 149.13 111.18 152.28 107 152.28C102.82 152.28 99.3796 149.33 99.3796 142.12H99.3696Z" fill="#FF4D71"/>
<path d="M138.07 148.88C138.07 151.01 136.27 152.24 132.95 152.24C129.63 152.24 126.56 151.26 126.56 144.49V135.76H125.74C124.14 135.76 123.12 134.69 123.12 133.26C123.12 131.83 124.15 130.72 125.74 130.72H126.56V128.34C126.56 126.54 128.08 125.06 129.84 125.06C131.6 125.06 133.12 126.53 133.12 128.34V130.72H135.5C137.1 130.72 138.08 131.79 138.08 133.26C138.08 134.73 137.1 135.76 135.5 135.76H133.12V144.82C133.12 145.93 133.45 146.62 134.23 146.62C134.64 146.62 135.34 146.46 135.79 146.5C137.22 146.5 138.08 147.36 138.08 148.88H138.07Z" fill="#FF4D71"/>
<path d="M162.53 140.69V149.01C162.53 150.81 161.05 152.25 159.25 152.25C157.45 152.25 156.01 150.82 156.01 149.01V140.69C156.01 137.49 154.54 136.06 152.36 136.06C149 136.06 148.26 139.46 148.26 139.91V149.01C148.26 150.81 146.74 152.25 144.98 152.25C143.22 152.25 141.7 150.82 141.7 149.01V126.06C141.7 124.26 143.22 122.78 144.98 122.78C146.74 122.78 148.26 124.26 148.26 126.06V135.2C148.38 133.68 150.72 130.53 154.9 130.53C159.08 130.53 162.52 133.48 162.52 140.7L162.53 140.69Z" fill="#FF4D71"/>
<path d="M187.68 140.36C187.68 142.94 186.29 143.8 183.66 143.8L173.21 143.68C173.78 145.77 175.46 147 178.13 147C179.36 147 179.57 146.84 180.71 146.55C181.57 146.26 182.27 145.89 183.09 145.89C184.44 145.89 185.26 146.83 185.26 148.06C185.26 148.84 184.93 149.78 183.7 150.72C182.31 151.58 180.42 152.24 177.84 152.24C172.27 152.24 166.41 148.92 166.41 141.46C166.41 134 172.68 130.48 177.35 130.48C182.02 130.48 187.68 134.21 187.68 140.36V140.36ZM173.21 139.34H181.24C180.83 137 179.23 136.14 177.35 136.14C175.47 136.14 173.58 137 173.21 139.34V139.34Z" fill="#FF4D71"/>
<path d="M212.27 140.69V149.01C212.27 150.81 210.79 152.25 208.99 152.25C207.19 152.25 205.75 150.82 205.75 149.01V140.69C205.75 137.49 204.28 136.06 202.1 136.06C198.74 136.06 198 139.46 198 139.91V149.01C198 150.81 196.48 152.25 194.72 152.25C192.96 152.25 191.44 150.82 191.44 149.01V133.93C191.44 132.09 192.96 130.61 194.72 130.61C196.48 130.61 198 132.09 198 133.93V135.2C198.12 133.68 200.46 130.53 204.64 130.53C208.82 130.53 212.26 133.48 212.26 140.7L212.27 140.69Z" fill="#FF4D71"/>
<path d="M229.69 148.88C229.69 151.01 227.89 152.24 224.57 152.24C221.25 152.24 218.18 151.26 218.18 144.49V135.76H217.36C215.76 135.76 214.74 134.69 214.74 133.26C214.74 131.83 215.77 130.72 217.36 130.72H218.18V128.34C218.18 126.54 219.7 125.06 221.46 125.06C223.22 125.06 224.74 126.53 224.74 128.34V130.72H227.12C228.72 130.72 229.7 131.79 229.7 133.26C229.7 134.73 228.72 135.76 227.12 135.76H224.74V144.82C224.74 145.93 225.07 146.62 225.85 146.62C226.26 146.62 226.96 146.46 227.41 146.5C228.84 146.5 229.7 147.36 229.7 148.88H229.69Z" fill="#FF4D71"/>
<path d="M233.24 125.6C233.24 123.84 234.8 122.36 236.56 122.36C238.32 122.36 239.88 123.84 239.88 125.6C239.88 127.36 238.32 128.8 236.56 128.8C234.8 128.8 233.24 127.32 233.24 125.6V125.6ZM239.84 133.92V148.96C239.84 150.8 238.32 152.28 236.56 152.28C234.8 152.28 233.28 150.8 233.28 148.96V133.92C233.28 132.08 234.8 130.6 236.56 130.6C238.32 130.6 239.84 132.08 239.84 133.92Z" fill="#FF4D71"/>
<path d="M262.67 147.49C262.67 149.17 261.4 149.99 260.74 150.56C259.06 151.67 257.38 152.24 254.88 152.24C249.84 152.24 243.77 148.72 243.77 141.38C243.77 134.04 249.83 130.48 254.88 130.48C257.38 130.48 259.06 131.05 260.74 132.16C261.4 132.73 262.67 133.55 262.67 135.23C262.67 136.75 261.36 137.69 260.09 137.69C258.82 137.69 257.96 136.99 257.63 136.79C256.81 136.26 255.79 136.13 255.09 136.13C252.1 136.13 250.25 138.18 250.25 141.38C250.25 144.58 252.09 146.59 255.09 146.59C255.79 146.59 256.81 146.47 257.63 145.93C257.96 145.72 258.86 145.03 260.09 145.03C261.32 145.03 262.67 145.97 262.67 147.49Z" fill="#FF4D71"/>
<path d="M287.26 133.84V149.05C287.26 150.85 285.66 152.29 283.9 152.29C282.38 152.29 281.03 151.22 280.7 149.75C280.09 150.82 278.28 152.33 275.29 152.33C270.78 152.33 265.45 148.89 265.45 141.39C265.45 133.89 270.86 130.49 275.29 130.49C278.08 130.49 280.09 132.05 280.62 133.48V133.85C280.62 132.09 282.14 130.61 283.9 130.61C285.66 130.61 287.26 132.09 287.26 133.85V133.84ZM280.91 141.38C280.91 137.36 278.33 136.05 276.53 136.05C274.19 136.05 272.02 137.89 272.02 141.38C272.02 144.87 274.19 146.75 276.53 146.75C278.33 146.75 280.91 145.48 280.91 141.38Z" fill="#FF4D71"/>
<path d="M305.14 148.88C305.14 151.01 303.34 152.24 300.02 152.24C296.7 152.24 293.63 151.26 293.63 144.49V135.76H292.81C291.21 135.76 290.19 134.69 290.19 133.26C290.19 131.83 291.22 130.72 292.81 130.72H293.63V128.34C293.63 126.54 295.15 125.06 296.91 125.06C298.67 125.06 300.19 126.53 300.19 128.34V130.72H302.57C304.17 130.72 305.15 131.79 305.15 133.26C305.15 134.73 304.17 135.76 302.57 135.76H300.19V144.82C300.19 145.93 300.52 146.62 301.3 146.62C301.71 146.62 302.41 146.46 302.86 146.5C304.29 146.5 305.15 147.36 305.15 148.88H305.14Z" fill="#FF4D71"/>
<path d="M308.7 125.6C308.7 123.84 310.26 122.36 312.02 122.36C313.78 122.36 315.34 123.84 315.34 125.6C315.34 127.36 313.78 128.8 312.02 128.8C310.26 128.8 308.7 127.32 308.7 125.6V125.6ZM315.3 133.92V148.96C315.3 150.8 313.78 152.28 312.02 152.28C310.26 152.28 308.74 150.8 308.74 148.96V133.92C308.74 132.08 310.26 130.6 312.02 130.6C313.78 130.6 315.3 132.08 315.3 133.92Z" fill="#FF4D71"/>
<path d="M341.32 141.46C341.32 148.8 334.93 152.32 330.25 152.32C325.57 152.32 319.14 148.79 319.14 141.46C319.14 134.13 325.53 130.48 330.25 130.48C334.97 130.48 341.32 134.17 341.32 141.46V141.46ZM325.62 141.46C325.62 144.53 327.67 146.67 330.25 146.67C332.83 146.67 334.88 144.54 334.88 141.46C334.88 138.38 332.79 136.13 330.25 136.13C327.71 136.13 325.62 138.26 325.62 141.46Z" fill="#FF4D71"/>
<path d="M366.1 140.69V149.01C366.1 150.81 364.62 152.25 362.82 152.25C361.02 152.25 359.58 150.82 359.58 149.01V140.69C359.58 137.49 358.11 136.06 355.93 136.06C352.57 136.06 351.83 139.46 351.83 139.91V149.01C351.83 150.81 350.31 152.25 348.55 152.25C346.79 152.25 345.27 150.82 345.27 149.01V133.93C345.27 132.09 346.79 130.61 348.55 130.61C350.31 130.61 351.83 132.09 351.83 133.93V135.2C351.95 133.68 354.29 130.53 358.47 130.53C362.65 130.53 366.09 133.48 366.09 140.7L366.1 140.69Z" fill="#FF4D71"/>
</svg>
