<svg xmlns="http://www.w3.org/2000/svg" xmlns:xlink="http://www.w3.org/1999/xlink" width="443" height="473" fill="none" xmlns:v="https://vecta.io/nano"><g stroke="#000" stroke-width="2.66" stroke-linejoin="round"><path d="M73.97 426.75l-46.59-4.2c-12.51-1.13-27.99 8.3-25.85 26.12 1.49 12.42 7.88 22.72 21.78 22.93 28.62.43 51.75-13.37 51.52-15.79s-.86-29.05-.86-29.05v-.01z" fill="#ad8e6f"/><g fill="#ffe9c7"><path d="M26.08 446.95s217.44 4.79 329.09 12.03c5.41.56 14.31-.39 14.7-10.03 0-.15.01-.3.02-.45.34-9.39-9.69-30.38-21.96-29.86-223.44 9.37-323.87 3.47-323.89 3.92 13.66.41 13.61 19.06 2.03 24.39h.01z"/><path d="M398.65 350.39l15.49-4.58-2.78-226.43-9.21-1.2 8.8-3.33-.25-18.48-11.59-3.35 10.86-5.22-1.91-56.28-293.18-.74c-1.1-15.29-41.76-29.4-54.86-29.43-13.36-.03-25.58 14.77-25.37 40.92 0 .56.26 5.07.38 25.62 0 1.13 11.31 2.1 11.32 3.29 0 1.4-11.28 3.05-11.28 4.54.11 29.41 6.11 125.66 6.11 125.66s5.43 5.37 13.96 5.39l-14.18 7.62.8 188.68c-.03 1.2 17.7 3.78 17.71 3.79 0 0-16.84 3.65-16.66 4.64 3.86 22.19 2.37 58.6-14.06 60.09 90.43-8.75 211.97-5.38 346.72-5.38 42.65 0 39.62-48.9 39.64-59.08.05-26.1-1.23-50.16-1.23-50.16l-15.22-6.58h-.01z"/></g><path d="M97.85 20.89l-41.7 2.78s-4.14 26.4 16.26 26.69 26.28-8.55 26.11-10.16-.68-19.31-.68-19.31h.01z" fill="#ad8e6f"/><path d="M72.42 50.36s232.48-9.76 352.42.11c5.8.77 15.61-8.58 16.36-22.04l.03-.63c.69-13.11-9.86-23.52-23.08-22.77C177.34 18.59 60.34.72 60.31 1.35 75 1.9 88.07 11.79 87.87 27.77c-.11 8.56-4.55 19.24-15.44 22.6l-.01-.01z" fill="#ffe9c7"/></g><g style="mix-blend-mode:color-dodge" opacity=".49"><path d="M418.16 5.03C201.98 17.21 92.43 4.05 65.03 1.68l-2.46-.17c4.7.49 9.17 1.94 13.01 4.25 5.06 2.02 9.24 4.76 8.57 8.32 26.86 2.57 28.34-.91 95.4 1.73 79.78 3.14 219.06 1.45 257.94-1.49-4.12-5.99-11.22-9.74-19.34-9.28l.01-.01z" fill="#fff5e3"/></g><g style="mix-blend-mode:multiply" opacity=".3"><path d="M361.55 396.88c.71 2.39 3.83 3.04 7.41 1.25 1.45-.72 2.8-1.67 4.16-2.58l.4-.21c3.36-1.65 6.05-5.44 5.36-7.76-.72-2.41-3.83-3.01-7.41-1.25-1.46.72-2.82 1.67-4.19 2.59l-.37.2c-3.35 1.68-6.06 5.42-5.36 7.76z" fill="#c4a062"/></g><g style="mix-blend-mode:multiply" opacity=".3"><path d="M358.66 377.37c-1.56 1.71-1.57 3.63.2 4.38.71.3 1.57.43 2.4.59l.2.08c1.63.72 4.67-.11 6.19-1.77 1.58-1.73 1.54-3.61-.2-4.38-.71-.31-1.58-.44-2.41-.6l-.19-.07c-1.65-.7-4.66.09-6.19 1.77h0z" fill="#c4a062"/></g><g fill="#000"><path d="M150.33 319.68c0 5.94-3.72 9.42-9.42 9.42h-4.05c-.59 0-1.03-.43-1.03-1.03V311.2c0-.59.43-1 1.03-1h4.05c5.7 0 9.42 3.46 9.42 9.47v.01zm-1.86 0c0-5.18-2.78-7.86-7.56-7.86h-3.19v15.66h3.19c4.78 0 7.56-2.7 7.56-7.8zm16.46-3.83a.74.74 0 0 1-.11.38l-7.5 17.54c-.16.41-.51.59-.87.59-.48 0-.81-.4-.81-.86 0-.16.05-.27.08-.38l1.92-4.48-5.4-12.42c-.03-.11-.08-.22-.08-.38 0-.46.38-.86.86-.86a.91.91 0 0 1 .86.59l4.64 10.96 4.67-10.96c.16-.4.49-.59.87-.59a.89.89 0 0 1 .86.86l.01.01zm14.47 4.99v7.45c0 .49-.41.94-.92.94s-.92-.46-.92-.94v-7.45c0-3.13-1.92-4.26-3.91-4.26-2.86 0-4.43 2.35-4.72 4.13v7.58c0 .49-.4.94-.92.94s-.92-.46-.92-.94v-12.36c0-.51.41-.95.92-.95s.92.43.92.95v2.43c.16-.89 1.86-3.43 5.16-3.43 2.51 0 5.32 1.46 5.32 5.91h-.01zm16.62 1.24c0 4.83-3.86 7.21-6.99 7.21s-6.96-2.38-6.96-7.21 3.86-7.18 6.96-7.18 6.99 2.38 6.99 7.18zm-12.12 0c0 3.78 2.78 5.59 5.13 5.59s5.16-1.81 5.16-5.59-2.78-5.56-5.16-5.56-5.13 1.81-5.13 5.56zm-28.03 32.85v17.28c0 .51-.4.97-.92.97-.54 0-.97-.46-.97-.97v-13.77l-7.29 13.5a.91.91 0 0 1-.84.54c-.33 0-.62-.19-.84-.54l-7.29-13.5v13.77c0 .51-.43.97-.95.97s-.95-.46-.95-.97v-17.28c0-.51.41-.81.81-.81.43 0 .78.24 1.03.65l8.18 15.06 8.21-15.06c.22-.4.59-.65 1-.65a.78.78 0 0 1 .81.81h.01z"/><use xlink:href="#B"/><use xlink:href="#B" x="14.45"/><path d="M197.05 354.93a.82.82 0 0 1-.19.51l-4.89 6.45c.78-.35 1.46-.43 1.97-.43 3.19 0 6.13 2.59 6.13 5.97s-2.94 5.94-6.13 5.94-6.15-2.56-6.15-6.02c0-3.16 2.16-5.37 4.29-8.26l3.46-4.64a.86.86 0 0 1 .67-.35c.49 0 .84.38.84.84v-.01zm-7.48 12.5c0 2.54 2.19 4.32 4.37 4.32s4.35-1.75 4.35-4.32-2.16-4.27-4.35-4.27c-2.62 0-4.37 1.65-4.37 4.27zm-40.97 36.58c0 3.62-2.59 5.88-6.8 5.88h-4.08v6.37c0 .51-.43.95-.95.95-.54 0-.95-.43-.95-.95V399.2c0-.59.43-1 1.03-1h4.94c4.21 0 6.8 2.4 6.8 5.8l.01.01zm-1.83 0c0-2.62-1.89-4.16-5.02-4.16h-4.02v8.42h4.02c3.13 0 5.02-1.4 5.02-4.26zm12.07-.19c0 .54-.46.89-1.24.89-2.67 0-4.51 2.13-4.8 4v7.58c0 .51-.4.94-.92.94s-.92-.43-.92-.94v-12.36c0-.51.41-.95.92-.95s.92.43.92.95v2.43c.16-.89 1.94-3.43 4.94-3.43.7 0 1.11.38 1.11.89h-.01z"/><use xlink:href="#C"/><path d="M189.39 411.78c0 3.37-2.43 5.32-6.96 5.32h-4.83c-.59 0-1.03-.43-1.03-1.03V399.2c0-.59.43-1 1.03-1h4.72c3.78 0 5.94 1.83 5.94 4.7 0 1.73-.84 3.16-2.91 3.83 2.86.89 4.05 2.7 4.05 5.05h-.01zm-10.93-5.67h3.86c2.7 0 4.1-.97 4.1-3.05 0-1.97-1.4-3.24-4.1-3.24h-3.86v6.29zm9.1 5.56c0-2.43-1.7-4.05-5.13-4.05h-3.97v7.86h3.97c3.46 0 5.13-1.32 5.13-3.81z"/><use xlink:href="#C" x="32.12"/><path d="M213.77 416.07c0 .89-1.35 1.16-2.38 1.16-1.29 0-2.54-.49-2.54-2.67v-9.93h-1.32a.73.73 0 1 1 0-1.56h1.32v-2.46a.91.91 0 1 1 1.84 0v2.46h2.27c.46 0 .81.3.81.78s-.35.78-.81.78h-2.27v9.83c0 .86.38 1.19 1.08 1.19.43 0 .78-.11 1.08-.19.51-.16.92.16.92.62v-.01z"/></g><g fill="#db354d"><use xlink:href="#D"/><use xlink:href="#D" y="43.85"/><use xlink:href="#D" y="87.7"/></g><g fill="#000"><path d="M107.64 193.6v16c0 .47-.38.9-.85.9a.91.91 0 0 1-.9-.9v-12.75l-6.75 12.5c-.17.35-.47.5-.77.5s-.58-.18-.77-.5l-6.75-12.5v12.75c0 .47-.4.9-.88.9s-.87-.42-.87-.9v-16c0-.48.38-.75.75-.75.4 0 .73.22.95.6l7.57 13.95 7.6-13.95c.2-.38.55-.6.92-.6.4 0 .75.27.75.75z"/><use xlink:href="#E"/><use xlink:href="#F"/><path d="M153.16 203.63c0 .65-.4.97-1.1.97h-9.75c.2 3.07 2.57 4.5 4.85 4.5 1.2 0 2.3-.38 3.15-1.08.33-.25.53-.38.75-.38.42 0 .67.3.67.67 0 .23-.1.45-.47.8-1.05.95-2.57 1.42-4.15 1.42-3.15 0-6.55-2.12-6.55-6.62s3.5-6.65 6.35-6.65 6.25 2.22 6.25 6.35v.02zm-10.85-.4h9.2c-.2-3.05-2.57-4.45-4.6-4.45s-4.37 1.4-4.6 4.45z"/><use xlink:href="#G"/><use xlink:href="#H"/><use xlink:href="#I"/><use xlink:href="#E" x="75.03"/><use xlink:href="#G" x="45.46"/><use xlink:href="#J"/><use xlink:href="#E" x="113.21"/><use xlink:href="#E" x="128.03"/><use xlink:href="#K"/><path d="M273.05 193.78a.66.66 0 0 1-.65.67c-.22 0-.5-.1-.78-.25-.35-.22-.87-.45-1.62-.45-1.42 0-2.25.88-2.25 2.7v.97h3.15c.42 0 .75.28.75.73s-.33.72-.75.72h-3.15v10.82c0 .45-.37.88-.85.88s-.85-.42-.85-.88v-10.82h-.92a.68.68 0 0 1-.72-.72c0-.44.3-.73.72-.73h.92v-1.02c0-3.25 2.12-4.15 3.85-4.15 1.15 0 2.1.37 2.77.87.2.15.38.38.38.65v.01z"/><use xlink:href="#E" x="162.25"/><use xlink:href="#G" x="132.68"/><use xlink:href="#H" x="-75.01" y="30"/><use xlink:href="#L"/><use xlink:href="#I" x="-60.62" y="30"/><use xlink:href="#M"/><path d="M138.46 233.4c0 .4-.3.7-.68.7h-6.7c-.38 0-.7-.3-.7-.7 0-.38.32-.67.7-.67h6.7c.38 0 .68.3.68.67z"/><use xlink:href="#N"/><path d="M165.11 233.93c0 4.5-3.4 6.67-6.2 6.67-2.1 0-3.92-1.2-4.65-3v2.1c0 .08 0 .12-.03.2v4.52c0 .45-.38.85-.85.85s-.85-.4-.85-.85v-16.2a.87.87 0 0 1 .87-.87c.45 0 .85.4.85.87v1.83c.85-1.83 2.72-2.77 4.65-2.77 2.8 0 6.2 2.2 6.2 6.65h.01zm-1.7 0c0-3.5-2.55-5.15-4.67-5.15s-4.57 1.55-4.57 5.15 2.45 5.17 4.57 5.17 4.67-1.65 4.67-5.17z"/><use xlink:href="#H" x="3.47" y="30"/><use xlink:href="#O"/><use xlink:href="#P"/><use xlink:href="#K" x="-35.45" y="30"/><use xlink:href="#E" x="112.32" y="30"/><use xlink:href="#Q"/><use xlink:href="#Q" x="15.14"/><use xlink:href="#M" x="142.7"/><use xlink:href="#L" x="169.16"/><use xlink:href="#Q" x="49.65"/><use xlink:href="#P" x="96.18"/><use xlink:href="#R"/><path d="M102.37 265.15v-6.9c0-.45.38-.88.85-.88s.85.42.85.88v6.9c0 2.9 1.77 3.95 3.62 3.95 2.65 0 4.1-2.17 4.37-3.82v-7.02c0-.45.38-.88.85-.88s.85.42.85.88v11.45c0 .47-.38.88-.85.88s-.85-.4-.85-.88v-2.25c-.15.82-1.72 3.17-4.77 3.17-2.33 0-4.92-1.35-4.92-5.47v-.01z"/><use xlink:href="#N" x="-24.15" y="30"/><use xlink:href="#J" x="-89.25" y="60"/><use xlink:href="#E" x="23.96" y="60"/><use xlink:href="#O" x="-32.85" y="30"/><use xlink:href="#R" x="91.64"/><use xlink:href="#E" x="82.78" y="60"/><use xlink:href="#O" x="25.97" y="30"/><use xlink:href="#O" x="50.24" y="30"/><use xlink:href="#H" x="93.09" y="60"/><use xlink:href="#L" x="168.1" y="30"/><use xlink:href="#F" x="160.93" y="60"/><use xlink:href="#N" x="161" y="30"/></g><g fill="#db354d"><path d="M110.53 93.78v17.03c0 2.02-1.79 3.63-3.76 3.63-1.7 0-3.21-1.19-3.58-2.85-.69 1.19-2.71 2.89-6.06 2.89-5.05 0-11.02-3.86-11.02-12.25s6.06-12.21 11.02-12.21c3.12 0 5.37 1.74 5.97 3.35v.41c0-1.97 1.7-3.63 3.67-3.63s3.76 1.65 3.76 3.63zm-7.11 8.45c0-4.5-2.89-5.97-4.91-5.97-2.62 0-5.05 2.07-5.05 5.97s2.43 6.01 5.05 6.01c2.02 0 4.91-1.42 4.91-6.01zm12.53.83v-9.32c0-2.02 1.65-3.63 3.67-3.63a3.61 3.61 0 0 1 3.63 3.63v9.32c0 3.58 1.65 5.19 4.08 5.19 3.76 0 4.59-3.81 4.59-4.31V93.75c0-2.02 1.7-3.63 3.67-3.63s3.67 1.61 3.67 3.63v16.89c0 2.07-1.7 3.72-3.67 3.72s-3.67-1.65-3.67-3.72v-1.42c-.14 1.7-2.75 5.23-7.44 5.23s-8.54-3.3-8.54-11.38l.01-.01z"/><use xlink:href="#S"/><use xlink:href="#T"/><path d="M207.28 101.63c0 1.7-1.42 3.03-2.98 3.03h-10.69c-1.61 0-3.03-1.33-3.03-3.03s1.42-3.03 3.03-3.03h10.69c1.56 0 2.98 1.38 2.98 3.03zm-80.92 45.82v9.32c0 2.02-1.7 3.63-3.67 3.63s-3.67-1.61-3.67-3.63v-9.32c0-3.58-1.65-5.19-4.04-5.19-3.76 0-4.64 3.81-4.64 4.31v10.19c0 2.02-1.65 3.63-3.67 3.63a3.61 3.61 0 0 1-3.63-3.63v-9.32c0-3.58-1.65-5.19-4.08-5.19-3.76 0-4.59 3.81-4.59 4.31v10.19c0 2.02-1.7 3.63-3.67 3.63s-3.67-1.61-3.67-3.63v-16.89c0-2.07 1.7-3.72 3.67-3.72s3.67 1.65 3.67 3.72v1.42c.14-1.7 2.75-5.23 7.44-5.23 3.4 0 6.29 1.7 7.67 5.55 1.24-2.8 4.08-5.55 8.31-5.55 4.77 0 8.58 3.3 8.58 11.38l-.01.02z"/><use xlink:href="#T" x="-30.89" y="46"/><path d="M183.05 131.02v25.79c0 2.02-1.79 3.63-3.76 3.63-1.7 0-3.21-1.19-3.58-2.85-.69 1.19-2.71 2.89-6.06 2.89-5.05 0-11.02-3.86-11.02-12.25s6.06-12.21 11.02-12.21c3.12 0 5.37 1.74 5.97 3.35v.41c0-.18 0-.37.05-.55v-8.22c0-1.97 1.65-3.63 3.63-3.63s3.76 1.65 3.76 3.63l-.01.01zm-7.11 17.21c0-4.5-2.89-5.97-4.91-5.97-2.62 0-5.05 2.07-5.05 5.97s2.43 6.01 5.05 6.01c2.02 0 4.91-1.42 4.91-6.01zm35.38-1.15c0 2.89-1.56 3.86-4.5 3.86l-11.7-.14c.64 2.34 2.52 3.72 5.51 3.72 1.38 0 1.61-.18 2.89-.5.96-.32 1.74-.73 2.66-.73 1.51 0 2.43 1.06 2.43 2.43 0 .87-.37 1.93-1.74 2.98-1.56.96-3.67 1.7-6.56 1.7-6.24 0-12.81-3.72-12.81-12.07s7.02-12.3 12.25-12.3 11.57 4.18 11.57 11.06v-.01zm-16.2-1.15h9c-.46-2.62-2.25-3.58-4.36-3.58s-4.22.96-4.64 3.58zm37.57-6.56c0 2.07-1.51 3.44-4.64 3.44s-5.14 2.43-5.23 3.76v10.19c0 1.97-1.7 3.63-3.67 3.63s-3.67-1.65-3.67-3.63v-16.89c0-2.07 1.7-3.72 3.67-3.72s3.67 1.65 3.67 3.72v1.42c.14-1.7 2.89-5.23 6.56-5.23 2.2 0 3.3 1.56 3.3 3.3l.01.01zm26.38.41v17.03c0 2.02-1.79 3.63-3.76 3.63-1.7 0-3.21-1.19-3.58-2.85-.69 1.19-2.71 2.89-6.06 2.89-5.05 0-11.02-3.86-11.02-12.25s6.06-12.21 11.02-12.21c3.12 0 5.37 1.74 5.97 3.35v.41c0-1.97 1.7-3.63 3.67-3.63s3.76 1.65 3.76 3.63h0zm-7.11 8.45c0-4.5-2.89-5.97-4.91-5.97-2.62 0-5.05 2.07-5.05 5.97s2.43 6.01 5.05 6.01c2.02 0 4.91-1.42 4.91-6.01z"/><use xlink:href="#S" x="119.8" y="46"/><path d="M282.94 130.56c0-1.97 1.74-3.63 3.72-3.63s3.72 1.65 3.72 3.63-1.74 3.58-3.72 3.58-3.72-1.65-3.72-3.58zm7.39 9.32v16.84c0 2.07-1.7 3.72-3.67 3.72s-3.67-1.65-3.67-3.72v-16.84c0-2.07 1.7-3.72 3.67-3.72s3.67 1.65 3.67 3.72z"/><use xlink:href="#T" x="133.09" y="46"/><path d="M347.09 147.45v9.32c0 2.02-1.65 3.63-3.67 3.63a3.61 3.61 0 0 1-3.63-3.63v-9.32c0-3.58-1.65-5.19-4.08-5.19-3.76 0-4.59 3.81-4.59 4.31v10.19c0 2.02-1.7 3.63-3.67 3.63s-3.67-1.61-3.67-3.63v-16.89c0-2.07 1.7-3.72 3.67-3.72s3.67 1.65 3.67 3.72v1.42c.14-1.7 2.75-5.23 7.44-5.23s8.54 3.3 8.54 11.38l-.01.01z"/></g><defs ><path id="B" d="M171.09 371.43c.43 0 .84.38.84.84a.86.86 0 0 1-.84.84h-10.12c-.59 0-1.03-.43-1.03-1.03v-16.87c0-.59.43-1 1.03-1h9.85c.43 0 .84.38.84.84a.86.86 0 0 1-.84.84h-8.99v6.91h6.45c.46 0 .81.38.81.81s-.35.81-.81.81h-6.45v7.02h9.26v-.01z"/><path id="C" d="M173.5 410.08c0 4.83-3.86 7.21-6.99 7.21s-6.96-2.38-6.96-7.21 3.86-7.18 6.96-7.18 6.99 2.38 6.99 7.18zm-12.12 0c0 3.78 2.78 5.59 5.13 5.59s5.15-1.81 5.15-5.59-2.78-5.56-5.15-5.56-5.13 1.81-5.13 5.56z"/><path id="D" d="M88.64 315.66c1.81-.68 10.35 9.45 10.35 9.45.35.8 13.4-18.44 13.4-18.44.7-1.05 2.49-.44 2.31.79-1 6.64-5.01 14.68-14.85 24.99-.91.96-9-4.75-11.56-12.34-.56-1.67-1.37-3.8.36-4.46l-.01.01z"/><path id="E" d="M123.45 203.93c0 4.47-3.57 6.67-6.47 6.67s-6.45-2.2-6.45-6.67 3.57-6.65 6.45-6.65 6.47 2.2 6.47 6.65zm-11.22 0c0 3.5 2.57 5.17 4.75 5.17s4.77-1.67 4.77-5.17-2.57-5.15-4.77-5.15-4.75 1.67-4.75 5.15z"/><path id="F" d="M137.98 193.45v16.25a.91.91 0 0 1-.87.88c-.45 0-.85-.42-.85-.88v-2.1c-.72 1.8-2.55 3-4.65 3-2.8 0-6.2-2.17-6.2-6.67s3.4-6.65 6.2-6.65c1.92 0 3.8.95 4.65 2.77v-1.83c0-.07 0-.15.03-.2v-4.57c0-.47.38-.88.85-.88.45 0 .85.4.85.88h-.01zm-1.62 10.47c0-3.6-2.45-5.15-4.57-5.15s-4.67 1.65-4.67 5.15 2.55 5.17 4.67 5.17 4.57-1.65 4.57-5.17z"/><path id="G" d="M162.89 198.13c0 .5-.42.83-1.15.83-2.47 0-4.17 1.97-4.45 3.7v7.02c0 .48-.38.88-.85.88s-.85-.4-.85-.88v-11.45c0-.47.38-.87.85-.87s.85.4.85.87v2.25c.15-.83 1.8-3.17 4.57-3.17.65 0 1.02.35 1.02.82h.01z"/><path id="H" d="M174.45 200.05v-1.83c0-.47.4-.87.85-.87.5 0 .87.4.87.87v11.47a.91.91 0 0 1-.87.88c-.45 0-.85-.42-.85-.88v-2.1c-.72 1.8-2.55 3-4.65 3-2.8 0-6.2-2.17-6.2-6.67s3.4-6.65 6.2-6.65c1.92 0 3.8.95 4.65 2.77v.01zm.1 3.87c0-3.6-2.45-5.15-4.57-5.15s-4.67 1.65-4.67 5.15 2.55 5.17 4.67 5.17 4.57-1.65 4.57-5.17z"/><path id="I" d="M184.57 209.48c0 .82-1.25 1.07-2.2 1.07-1.2 0-2.35-.45-2.35-2.47v-9.2h-1.22a.68.68 0 0 1-.72-.72c0-.44.3-.73.72-.73h1.22v-2.27a.85.85 0 0 1 1.7 0v2.27h2.1a.7.7 0 0 1 .75.73c0 .45-.32.72-.75.72h-2.1v9.1c0 .8.35 1.1 1 1.1.4 0 .73-.1 1-.17.47-.15.85.15.85.58v-.01z"/><path id="J" d="M222.75 209.48c0 .82-1.25 1.07-2.2 1.07-1.2 0-2.35-.45-2.35-2.47v-9.2h-1.22a.68.68 0 0 1-.72-.72c0-.44.3-.73.72-.73h1.22v-2.27a.85.85 0 1 1 1.7 0v2.27h2.1a.7.7 0 0 1 .75.73c0 .45-.32.72-.75.72h-2.1v9.1c0 .8.35 1.1 1 1.1.4 0 .73-.1 1-.17.47-.15.85.15.85.58v-.01z"/><path id="K" d="M254.91 210.55c-.47 0-.85-.42-.85-.88v-16.25c0-.45.38-.85.85-.85s.85.4.85.85v16.25c0 .45-.38.88-.85.88z"/><path id="L" d="M115.75 232.78v6.9c0 .45-.38.88-.85.88s-.85-.42-.85-.88v-6.9c0-2.9-1.77-3.95-3.62-3.95-2.65 0-4.1 2.17-4.37 3.82v7.02c0 .45-.38.88-.85.88s-.85-.42-.85-.88v-11.45c0-.47.38-.87.85-.87s.85.4.85.87v2.25c.15-.83 1.72-3.17 4.77-3.17 2.33 0 4.92 1.35 4.92 5.47v.01z"/><path id="M" d="M125.93 223.2c0-.47.4-.88.87-.88s.88.4.88.88a.89.89 0 0 1-.88.88.88.88 0 0 1-.87-.88zm1.72 5.02v11.47c0 .47-.38.88-.85.88s-.85-.4-.85-.88v-11.47c0-.47.38-.87.85-.87s.85.4.85.87z"/><path id="N" d="M149.33 229.38c.15.25.23.45.23.67 0 .42-.33.7-.73.7-.32 0-.55-.17-.85-.62-.5-.75-1.4-1.4-2.85-1.4-1.67 0-2.67.85-2.67 2.08 0 .95.65 1.67 2.22 2.07l1.6.42c2.32.58 3.8 1.52 3.8 3.47 0 2.45-2.35 3.77-4.95 3.77-2.08 0-3.87-.92-4.45-2.25-.1-.2-.3-.48-.3-.85 0-.45.27-.78.7-.78.4 0 .6.23.78.6.52 1.25 1.82 1.78 3.27 1.78 1.75 0 3.27-.7 3.27-2.17 0-1.17-.92-1.72-2.27-2.07l-2-.53c-2.32-.6-3.35-1.87-3.35-3.45 0-2.1 1.88-3.55 4.37-3.55 1.92 0 3.4.83 4.17 2.1l.01.01z"/><path id="O" d="M203.93 232.78v6.9c0 .45-.38.88-.85.88-.45 0-.85-.42-.85-.88v-6.9c0-2.9-1.77-3.95-3.6-3.95-2.67 0-4.12 2.17-4.4 3.82v7.02c0 .45-.38.88-.85.88s-.85-.42-.85-.88v-6.9c0-2.9-1.77-3.95-3.62-3.95-2.65 0-4.1 2.17-4.37 3.82v7.02c0 .45-.38.88-.85.88s-.85-.42-.85-.88v-11.45c0-.47.38-.87.85-.87s.85.4.85.87v2.25c.15-.83 1.72-3.17 4.77-3.17 1.85 0 3.9.85 4.62 3.32.72-1.57 2.4-3.32 5.1-3.32 2.33 0 4.9 1.35 4.9 5.47v.02z"/><path id="P" d="M206.14 242.97l1.45-4c.15-.47.43-.65.83-.65h.72c.48 0 .58.28.35.73l-1.97 4.1c-.18.38-.45.47-.8.47h-.15c-.4 0-.58-.27-.42-.65h-.01z"/><path id="Q" d="M250.31 228.23v11.95c0 4.12-3.52 5.37-6.17 5.37-1.67 0-2.92-.5-3.52-.85-.3-.15-.5-.4-.5-.72 0-.38.33-.7.7-.7.17 0 .35.08.55.15.62.35 1.67.62 2.82.62 2.4 0 4.42-1.17 4.42-3.87v-.27c-.03-.08-.03-.12-.03-.2v-2.1c-.72 1.8-2.55 3-4.65 3-2.8 0-6.2-2.17-6.2-6.67s3.4-6.65 6.2-6.65c1.92 0 3.8.95 4.65 2.77v-1.83c0-.47.4-.87.85-.87.5 0 .87.4.87.87h.01zm-1.62 5.7c0-3.6-2.45-5.15-4.57-5.15s-4.67 1.65-4.67 5.15 2.55 5.17 4.67 5.17 4.57-1.65 4.57-5.17z"/><path id="R" d="M100.04 267.65c0 .3-.2.5-.38.73-1.1 1.45-2.77 2.17-4.62 2.17-2.92 0-6.45-2.2-6.45-6.62s3.52-6.65 6.45-6.65c1.85 0 3.52.72 4.62 2.17.17.22.38.42.38.72 0 .42-.35.7-.75.7-.3 0-.58-.17-.78-.45-.77-1.1-2.15-1.65-3.4-1.65-2.27 0-4.82 1.67-4.82 5.15s2.55 5.12 4.82 5.12c1.25 0 2.62-.55 3.4-1.65.2-.27.48-.45.78-.45.4 0 .75.27.75.7v.01z"/><path id="S" d="M159.23 110.63c0 2.39-2.02 3.76-5.74 3.76s-7.16-1.1-7.16-8.67v-9.78h-.92c-1.79 0-2.94-1.19-2.94-2.8s1.15-2.85 2.94-2.85h.92v-2.66c0-2.02 1.7-3.67 3.67-3.67s3.67 1.65 3.67 3.67v2.66h2.66c1.79 0 2.89 1.19 2.89 2.85s-1.1 2.8-2.89 2.8h-2.66v10.14c0 1.24.37 2.02 1.24 2.02.46 0 1.24-.18 1.74-.14 1.61 0 2.57.96 2.57 2.66l.01.01z"/><path id="T" d="M186.32 102.32c0 8.22-7.16 12.16-12.39 12.16s-12.44-3.95-12.44-12.16 7.16-12.3 12.44-12.3 12.39 4.13 12.39 12.3zm-17.58 0c0 3.44 2.29 5.83 5.19 5.83s5.19-2.39 5.19-5.83-2.34-5.97-5.19-5.97-5.19 2.39-5.19 5.97z"/></defs></svg>