<svg width="443" height="473" viewBox="0 0 443 473" fill="none" xmlns="http://www.w3.org/2000/svg">
<path d="M73.9699 426.75L27.3799 422.55C14.8699 421.42 -0.610115 430.85 1.52989 448.67C3.01989 461.09 9.40989 471.39 23.3099 471.6C51.9299 472.03 75.0599 458.23 74.8299 455.81C74.5999 453.39 73.9699 426.76 73.9699 426.76V426.75Z" fill="#AD8E6F" stroke="black" stroke-width="2.66" stroke-linecap="round" stroke-linejoin="round"/>
<path d="M26.08 446.95C26.08 446.95 243.52 451.74 355.17 458.98C360.58 459.54 369.48 458.59 369.87 448.95C369.87 448.8 369.88 448.65 369.89 448.5C370.23 439.11 360.2 418.12 347.93 418.64C124.49 428.01 24.06 422.11 24.04 422.56C37.7 422.97 37.65 441.62 26.07 446.95H26.08Z" fill="#FFE9C7" stroke="black" stroke-width="2.66" stroke-linecap="round" stroke-linejoin="round"/>
<path d="M398.65 350.39L414.14 345.81L411.36 119.38C411.36 119.38 402.17 118.18 402.15 118.18L410.95 114.85L410.7 96.3701L399.11 93.0201L409.97 87.8001C409.97 87.8001 408.1 31.5201 408.06 31.5201C323.3 31.3201 220.37 31.0301 114.88 30.7801C113.78 15.4901 73.12 1.38014 60.02 1.35014C46.66 1.32014 34.44 16.1201 34.65 42.2701C34.65 42.8301 34.91 47.3401 35.03 67.8901C35.03 69.0201 46.34 69.9901 46.35 71.1801C46.35 72.5801 35.07 74.2301 35.07 75.7201C35.18 105.13 41.18 201.38 41.18 201.38C41.18 201.38 46.61 206.75 55.14 206.77L40.96 214.39C40.96 214.39 43.05 352.34 41.76 403.07C41.73 404.27 59.46 406.85 59.47 406.86C59.47 406.86 42.63 410.51 42.81 411.5C46.67 433.69 45.18 470.1 28.75 471.59C119.18 462.84 240.72 466.21 375.47 466.21C418.12 466.21 415.09 417.31 415.11 407.13C415.16 381.03 413.88 356.97 413.88 356.97L398.66 350.39H398.65Z" fill="#FFE9C7" stroke="black" stroke-width="2.66" stroke-linecap="round" stroke-linejoin="round"/>
<path d="M97.8498 20.8901L56.1498 23.6701C56.1498 23.6701 52.0098 50.0701 72.4098 50.3601C92.8098 50.6501 98.6897 41.8101 98.5197 40.2001C98.3497 38.5901 97.8397 20.8901 97.8397 20.8901H97.8498Z" fill="#AD8E6F" stroke="black" stroke-width="2.66" stroke-linecap="round" stroke-linejoin="round"/>
<path d="M72.4201 50.3601C72.4201 50.3601 304.9 40.6001 424.84 50.4701C430.64 51.2401 440.45 41.8901 441.2 28.4301C441.21 28.2201 441.22 28.0101 441.23 27.8001C441.92 14.6901 431.37 4.28009 418.15 5.03009C177.34 18.5901 60.3401 0.720086 60.3101 1.35009C75.0001 1.90009 88.0701 11.7901 87.8701 27.7701C87.7601 36.3301 83.3201 47.0101 72.4301 50.3701L72.4201 50.3601Z" fill="#FFE9C7" stroke="black" stroke-width="2.66" stroke-linecap="round" stroke-linejoin="round"/>
<g style="mix-blend-mode:color-dodge" opacity="0.49">
<path d="M418.16 5.03001C201.98 17.21 92.4298 4.05001 65.0298 1.68001C64.0598 1.61001 63.2398 1.56001 62.5698 1.51001C67.2698 2.00001 71.7398 3.45001 75.5798 5.76001C80.6398 7.78001 84.8198 10.52 84.1498 14.08C111.01 16.65 112.49 13.17 179.55 15.81C259.33 18.95 398.61 17.26 437.49 14.32C433.37 8.33001 426.27 4.58001 418.15 5.04001L418.16 5.03001Z" fill="#FFF5E3"/>
</g>
<g style="mix-blend-mode:multiply" opacity="0.3">
<path d="M361.55 396.88C362.26 399.27 365.38 399.92 368.96 398.13C370.41 397.41 371.76 396.46 373.12 395.55C373.25 395.48 373.38 395.41 373.52 395.34C376.88 393.69 379.57 389.9 378.88 387.58C378.16 385.17 375.05 384.57 371.47 386.33C370.01 387.05 368.65 388 367.28 388.92C367.16 388.99 367.03 389.05 366.91 389.12C363.56 390.8 360.85 394.54 361.55 396.88Z" fill="#C4A062"/>
</g>
<g style="mix-blend-mode:multiply" opacity="0.3">
<path d="M358.66 377.37C357.1 379.08 357.09 381 358.86 381.75C359.57 382.05 360.43 382.18 361.26 382.34C361.33 382.37 361.4 382.39 361.46 382.42C363.09 383.14 366.13 382.31 367.65 380.65C369.23 378.92 369.19 377.04 367.45 376.27C366.74 375.96 365.87 375.83 365.04 375.67C364.98 375.65 364.91 375.62 364.85 375.6C363.2 374.9 360.19 375.69 358.66 377.37V377.37Z" fill="#C4A062"/>
</g>
<path d="M150.33 319.68C150.33 325.62 146.61 329.1 140.91 329.1H136.86C136.27 329.1 135.83 328.67 135.83 328.07V311.2C135.83 310.61 136.26 310.2 136.86 310.2H140.91C146.61 310.2 150.33 313.66 150.33 319.67V319.68ZM148.47 319.68C148.47 314.5 145.69 311.82 140.91 311.82H137.72V327.48H140.91C145.69 327.48 148.47 324.78 148.47 319.68Z" fill="black"/>
<path d="M164.93 315.85C164.93 316.01 164.88 316.12 164.82 316.23L157.32 333.77C157.16 334.18 156.81 334.36 156.45 334.36C155.97 334.36 155.64 333.96 155.64 333.5C155.64 333.34 155.69 333.23 155.72 333.12L157.64 328.64L152.24 316.22C152.21 316.11 152.16 316 152.16 315.84C152.16 315.38 152.54 314.98 153.02 314.98C153.37 314.98 153.72 315.17 153.88 315.57L158.52 326.53L163.19 315.57C163.35 315.17 163.68 314.98 164.06 314.98C164.52 314.98 164.92 315.39 164.92 315.84L164.93 315.85Z" fill="black"/>
<path d="M179.4 320.84V328.29C179.4 328.78 178.99 329.23 178.48 329.23C177.97 329.23 177.56 328.77 177.56 328.29V320.84C177.56 317.71 175.64 316.58 173.65 316.58C170.79 316.58 169.22 318.93 168.93 320.71V328.29C168.93 328.78 168.53 329.23 168.01 329.23C167.49 329.23 167.09 328.77 167.09 328.29V315.93C167.09 315.42 167.5 314.98 168.01 314.98C168.52 314.98 168.93 315.41 168.93 315.93V318.36C169.09 317.47 170.79 314.93 174.09 314.93C176.6 314.93 179.41 316.39 179.41 320.84H179.4Z" fill="black"/>
<path d="M196.02 322.08C196.02 326.91 192.16 329.29 189.03 329.29C185.9 329.29 182.07 326.91 182.07 322.08C182.07 317.25 185.93 314.9 189.03 314.9C192.13 314.9 196.02 317.28 196.02 322.08ZM183.9 322.08C183.9 325.86 186.68 327.67 189.03 327.67C191.38 327.67 194.19 325.86 194.19 322.08C194.19 318.3 191.41 316.52 189.03 316.52C186.65 316.52 183.9 318.33 183.9 322.08Z" fill="black"/>
<path d="M155.87 354.93V372.21C155.87 372.72 155.47 373.18 154.95 373.18C154.41 373.18 153.98 372.72 153.98 372.21V358.44L146.69 371.94C146.5 372.32 146.18 372.48 145.85 372.48C145.52 372.48 145.23 372.29 145.01 371.94L137.72 358.44V372.21C137.72 372.72 137.29 373.18 136.77 373.18C136.25 373.18 135.82 372.72 135.82 372.21V354.93C135.82 354.42 136.23 354.12 136.63 354.12C137.06 354.12 137.41 354.36 137.66 354.77L145.84 369.83L154.05 354.77C154.27 354.37 154.64 354.12 155.05 354.12C155.48 354.12 155.86 354.42 155.86 354.93H155.87Z" fill="black"/>
<path d="M171.09 371.43C171.52 371.43 171.93 371.81 171.93 372.27C171.93 372.73 171.53 373.11 171.09 373.11H160.97C160.38 373.11 159.94 372.68 159.94 372.08V355.21C159.94 354.62 160.37 354.21 160.97 354.21H170.82C171.25 354.21 171.66 354.59 171.66 355.05C171.66 355.51 171.26 355.89 170.82 355.89H161.83V362.8H168.28C168.74 362.8 169.09 363.18 169.09 363.61C169.09 364.04 168.74 364.42 168.28 364.42H161.83V371.44H171.09V371.43Z" fill="black"/>
<path d="M185.54 371.43C185.97 371.43 186.38 371.81 186.38 372.27C186.38 372.73 185.98 373.11 185.54 373.11H175.42C174.83 373.11 174.39 372.68 174.39 372.08V355.21C174.39 354.62 174.82 354.21 175.42 354.21H185.27C185.7 354.21 186.11 354.59 186.11 355.05C186.11 355.51 185.71 355.89 185.27 355.89H176.28V362.8H182.73C183.19 362.8 183.54 363.18 183.54 363.61C183.54 364.04 183.19 364.42 182.73 364.42H176.28V371.44H185.54V371.43Z" fill="black"/>
<path d="M197.05 354.93C197.05 355.12 196.97 355.31 196.86 355.44L191.97 361.89C192.75 361.54 193.43 361.46 193.94 361.46C197.13 361.46 200.07 364.05 200.07 367.43C200.07 370.81 197.13 373.37 193.94 373.37C190.75 373.37 187.79 370.81 187.79 367.35C187.79 364.19 189.95 361.98 192.08 359.09L195.54 354.45C195.67 354.26 195.94 354.1 196.21 354.1C196.7 354.1 197.05 354.48 197.05 354.94V354.93ZM189.57 367.43C189.57 369.97 191.76 371.75 193.94 371.75C196.12 371.75 198.29 370 198.29 367.43C198.29 364.86 196.13 363.16 193.94 363.16C191.32 363.16 189.57 364.81 189.57 367.43Z" fill="black"/>
<path d="M148.6 404.01C148.6 407.63 146.01 409.89 141.8 409.89H137.72V416.26C137.72 416.77 137.29 417.21 136.77 417.21C136.23 417.21 135.82 416.78 135.82 416.26V399.2C135.82 398.61 136.25 398.2 136.85 398.2H141.79C146 398.2 148.59 400.6 148.59 404L148.6 404.01ZM146.77 404.01C146.77 401.39 144.88 399.85 141.75 399.85H137.73V408.27H141.75C144.88 408.27 146.77 406.87 146.77 404.01Z" fill="black"/>
<path d="M158.84 403.82C158.84 404.36 158.38 404.71 157.6 404.71C154.93 404.71 153.09 406.84 152.8 408.71V416.29C152.8 416.8 152.4 417.23 151.88 417.23C151.36 417.23 150.96 416.8 150.96 416.29V403.93C150.96 403.42 151.37 402.98 151.88 402.98C152.39 402.98 152.8 403.41 152.8 403.93V406.36C152.96 405.47 154.74 402.93 157.74 402.93C158.44 402.93 158.85 403.31 158.85 403.82H158.84Z" fill="black"/>
<path d="M173.5 410.08C173.5 414.91 169.64 417.29 166.51 417.29C163.38 417.29 159.55 414.91 159.55 410.08C159.55 405.25 163.41 402.9 166.51 402.9C169.61 402.9 173.5 405.28 173.5 410.08ZM161.38 410.08C161.38 413.86 164.16 415.67 166.51 415.67C168.86 415.67 171.66 413.86 171.66 410.08C171.66 406.3 168.88 404.52 166.51 404.52C164.14 404.52 161.38 406.33 161.38 410.08Z" fill="black"/>
<path d="M189.39 411.78C189.39 415.15 186.96 417.1 182.43 417.1H177.6C177.01 417.1 176.57 416.67 176.57 416.07V399.2C176.57 398.61 177 398.2 177.6 398.2H182.32C186.1 398.2 188.26 400.03 188.26 402.9C188.26 404.63 187.42 406.06 185.35 406.73C188.21 407.62 189.4 409.43 189.4 411.78H189.39ZM178.46 406.11H182.32C185.02 406.11 186.42 405.14 186.42 403.06C186.42 401.09 185.02 399.82 182.32 399.82H178.46V406.11ZM187.56 411.67C187.56 409.24 185.86 407.62 182.43 407.62H178.46V415.48H182.43C185.89 415.48 187.56 414.16 187.56 411.67Z" fill="black"/>
<path d="M205.62 410.08C205.62 414.91 201.76 417.29 198.63 417.29C195.5 417.29 191.67 414.91 191.67 410.08C191.67 405.25 195.53 402.9 198.63 402.9C201.73 402.9 205.62 405.28 205.62 410.08ZM193.5 410.08C193.5 413.86 196.28 415.67 198.63 415.67C200.98 415.67 203.78 413.86 203.78 410.08C203.78 406.3 201 404.52 198.63 404.52C196.26 404.52 193.5 406.33 193.5 410.08Z" fill="black"/>
<path d="M213.77 416.07C213.77 416.96 212.42 417.23 211.39 417.23C210.1 417.23 208.85 416.74 208.85 414.56V404.63H207.53C207.07 404.63 206.75 404.33 206.75 403.85C206.75 403.37 207.07 403.07 207.53 403.07H208.85V400.61C208.85 400.1 209.25 399.69 209.77 399.69C210.29 399.69 210.69 400.1 210.69 400.61V403.07H212.96C213.42 403.07 213.77 403.37 213.77 403.85C213.77 404.33 213.42 404.63 212.96 404.63H210.69V414.46C210.69 415.32 211.07 415.65 211.77 415.65C212.2 415.65 212.55 415.54 212.85 415.46C213.36 415.3 213.77 415.62 213.77 416.08V416.07Z" fill="black"/>
<path d="M88.6398 315.66C90.4498 314.98 98.9898 325.11 98.9898 325.11C99.3398 325.91 112.39 306.67 112.39 306.67C113.09 305.62 114.88 306.23 114.7 307.46C113.7 314.1 109.69 322.14 99.8498 332.45C98.9398 333.41 90.8498 327.7 88.2898 320.11C87.7298 318.44 86.9198 316.31 88.6498 315.65L88.6398 315.66Z" fill="#DB354D"/>
<path d="M88.6398 359.51C90.4498 358.83 98.9898 368.96 98.9898 368.96C99.3398 369.76 112.39 350.52 112.39 350.52C113.09 349.47 114.88 350.08 114.7 351.31C113.7 357.95 109.69 365.99 99.8498 376.3C98.9398 377.26 90.8498 371.55 88.2898 363.96C87.7298 362.29 86.9198 360.16 88.6498 359.5L88.6398 359.51Z" fill="#DB354D"/>
<path d="M88.6398 403.36C90.4498 402.68 98.9898 412.81 98.9898 412.81C99.3398 413.61 112.39 394.37 112.39 394.37C113.09 393.32 114.88 393.93 114.7 395.16C113.7 401.8 109.69 409.84 99.8498 420.15C98.9398 421.11 90.8498 415.4 88.2898 407.81C87.7298 406.14 86.9198 404.01 88.6498 403.35L88.6398 403.36Z" fill="#DB354D"/>
<path d="M107.64 193.6V209.6C107.64 210.07 107.26 210.5 106.79 210.5C106.29 210.5 105.89 210.08 105.89 209.6V196.85L99.1396 209.35C98.9696 209.7 98.6696 209.85 98.3696 209.85C98.0696 209.85 97.7896 209.67 97.5996 209.35L90.8496 196.85V209.6C90.8496 210.07 90.4496 210.5 89.9696 210.5C89.4896 210.5 89.0996 210.08 89.0996 209.6V193.6C89.0996 193.12 89.4796 192.85 89.8496 192.85C90.2496 192.85 90.5796 193.07 90.7996 193.45L98.3696 207.4L105.97 193.45C106.17 193.07 106.52 192.85 106.89 192.85C107.29 192.85 107.64 193.12 107.64 193.6Z" fill="black"/>
<path d="M123.45 203.93C123.45 208.4 119.88 210.6 116.98 210.6C114.08 210.6 110.53 208.4 110.53 203.93C110.53 199.46 114.1 197.28 116.98 197.28C119.86 197.28 123.45 199.48 123.45 203.93ZM112.23 203.93C112.23 207.43 114.8 209.1 116.98 209.1C119.16 209.1 121.75 207.43 121.75 203.93C121.75 200.43 119.18 198.78 116.98 198.78C114.78 198.78 112.23 200.45 112.23 203.93Z" fill="black"/>
<path d="M137.98 193.45V209.7C137.98 210.15 137.58 210.58 137.11 210.58C136.66 210.58 136.26 210.16 136.26 209.7V207.6C135.54 209.4 133.71 210.6 131.61 210.6C128.81 210.6 125.41 208.43 125.41 203.93C125.41 199.43 128.81 197.28 131.61 197.28C133.53 197.28 135.41 198.23 136.26 200.05V198.22C136.26 198.15 136.26 198.07 136.29 198.02V193.45C136.29 192.98 136.67 192.57 137.14 192.57C137.59 192.57 137.99 192.97 137.99 193.45H137.98ZM136.36 203.92C136.36 200.32 133.91 198.77 131.79 198.77C129.67 198.77 127.12 200.42 127.12 203.92C127.12 207.42 129.67 209.09 131.79 209.09C133.91 209.09 136.36 207.44 136.36 203.92Z" fill="black"/>
<path d="M153.16 203.63C153.16 204.28 152.76 204.6 152.06 204.6H142.31C142.51 207.67 144.88 209.1 147.16 209.1C148.36 209.1 149.46 208.72 150.31 208.02C150.64 207.77 150.84 207.64 151.06 207.64C151.48 207.64 151.73 207.94 151.73 208.31C151.73 208.54 151.63 208.76 151.26 209.11C150.21 210.06 148.69 210.53 147.11 210.53C143.96 210.53 140.56 208.41 140.56 203.91C140.56 199.41 144.06 197.26 146.91 197.26C149.76 197.26 153.16 199.48 153.16 203.61V203.63ZM142.31 203.23H151.51C151.31 200.18 148.94 198.78 146.91 198.78C144.88 198.78 142.54 200.18 142.31 203.23Z" fill="black"/>
<path d="M162.89 198.13C162.89 198.63 162.47 198.96 161.74 198.96C159.27 198.96 157.57 200.93 157.29 202.66V209.68C157.29 210.16 156.91 210.56 156.44 210.56C155.97 210.56 155.59 210.16 155.59 209.68V198.23C155.59 197.76 155.97 197.36 156.44 197.36C156.91 197.36 157.29 197.76 157.29 198.23V200.48C157.44 199.65 159.09 197.31 161.86 197.31C162.51 197.31 162.88 197.66 162.88 198.13H162.89Z" fill="black"/>
<path d="M174.45 200.05V198.22C174.45 197.75 174.85 197.35 175.3 197.35C175.8 197.35 176.17 197.75 176.17 198.22V209.69C176.17 210.14 175.77 210.57 175.3 210.57C174.85 210.57 174.45 210.15 174.45 209.69V207.59C173.73 209.39 171.9 210.59 169.8 210.59C167 210.59 163.6 208.42 163.6 203.92C163.6 199.42 167 197.27 169.8 197.27C171.72 197.27 173.6 198.22 174.45 200.04V200.05ZM174.55 203.92C174.55 200.32 172.1 198.77 169.98 198.77C167.86 198.77 165.31 200.42 165.31 203.92C165.31 207.42 167.86 209.09 169.98 209.09C172.1 209.09 174.55 207.44 174.55 203.92Z" fill="black"/>
<path d="M184.57 209.48C184.57 210.3 183.32 210.55 182.37 210.55C181.17 210.55 180.02 210.1 180.02 208.08V198.88H178.8C178.38 198.88 178.08 198.6 178.08 198.16C178.08 197.72 178.38 197.43 178.8 197.43H180.02V195.16C180.02 194.69 180.4 194.31 180.87 194.31C181.34 194.31 181.72 194.69 181.72 195.16V197.43H183.82C184.25 197.43 184.57 197.71 184.57 198.16C184.57 198.61 184.25 198.88 183.82 198.88H181.72V207.98C181.72 208.78 182.07 209.08 182.72 209.08C183.12 209.08 183.45 208.98 183.72 208.91C184.19 208.76 184.57 209.06 184.57 209.49V209.48Z" fill="black"/>
<path d="M198.48 203.93C198.48 208.4 194.91 210.6 192.01 210.6C189.11 210.6 185.56 208.4 185.56 203.93C185.56 199.46 189.13 197.28 192.01 197.28C194.89 197.28 198.48 199.48 198.48 203.93ZM187.26 203.93C187.26 207.43 189.83 209.1 192.01 209.1C194.19 209.1 196.78 207.43 196.78 203.93C196.78 200.43 194.21 198.78 192.01 198.78C189.81 198.78 187.26 200.45 187.26 203.93Z" fill="black"/>
<path d="M208.35 198.13C208.35 198.63 207.93 198.96 207.2 198.96C204.73 198.96 203.03 200.93 202.75 202.66V209.68C202.75 210.16 202.37 210.56 201.9 210.56C201.43 210.56 201.05 210.16 201.05 209.68V198.23C201.05 197.76 201.43 197.36 201.9 197.36C202.37 197.36 202.75 197.76 202.75 198.23V200.48C202.9 199.65 204.55 197.31 207.32 197.31C207.97 197.31 208.34 197.66 208.34 198.13H208.35Z" fill="black"/>
<path d="M222.75 209.48C222.75 210.3 221.5 210.55 220.55 210.55C219.35 210.55 218.2 210.1 218.2 208.08V198.88H216.98C216.56 198.88 216.26 198.6 216.26 198.16C216.26 197.72 216.56 197.43 216.98 197.43H218.2V195.16C218.2 194.69 218.58 194.31 219.05 194.31C219.52 194.31 219.9 194.69 219.9 195.16V197.43H222C222.43 197.43 222.75 197.71 222.75 198.16C222.75 198.61 222.43 198.88 222 198.88H219.9V207.98C219.9 208.78 220.25 209.08 220.9 209.08C221.3 209.08 221.63 208.98 221.9 208.91C222.37 208.76 222.75 209.06 222.75 209.49V209.48Z" fill="black"/>
<path d="M236.66 203.93C236.66 208.4 233.09 210.6 230.19 210.6C227.29 210.6 223.74 208.4 223.74 203.93C223.74 199.46 227.31 197.28 230.19 197.28C233.07 197.28 236.66 199.48 236.66 203.93ZM225.44 203.93C225.44 207.43 228.01 209.1 230.19 209.1C232.37 209.1 234.96 207.43 234.96 203.93C234.96 200.43 232.39 198.78 230.19 198.78C227.99 198.78 225.44 200.45 225.44 203.93Z" fill="black"/>
<path d="M251.48 203.93C251.48 208.4 247.91 210.6 245.01 210.6C242.11 210.6 238.56 208.4 238.56 203.93C238.56 199.46 242.13 197.28 245.01 197.28C247.89 197.28 251.48 199.48 251.48 203.93ZM240.26 203.93C240.26 207.43 242.83 209.1 245.01 209.1C247.19 209.1 249.78 207.43 249.78 203.93C249.78 200.43 247.21 198.78 245.01 198.78C242.81 198.78 240.26 200.45 240.26 203.93Z" fill="black"/>
<path d="M254.91 210.55C254.44 210.55 254.06 210.13 254.06 209.67V193.42C254.06 192.97 254.44 192.57 254.91 192.57C255.38 192.57 255.76 192.97 255.76 193.42V209.67C255.76 210.12 255.38 210.55 254.91 210.55Z" fill="black"/>
<path d="M273.05 193.78C273.05 194.16 272.75 194.45 272.4 194.45C272.18 194.45 271.9 194.35 271.62 194.2C271.27 193.98 270.75 193.75 270 193.75C268.58 193.75 267.75 194.63 267.75 196.45V197.42H270.9C271.32 197.42 271.65 197.7 271.65 198.15C271.65 198.6 271.32 198.87 270.9 198.87H267.75V209.69C267.75 210.14 267.38 210.57 266.9 210.57C266.42 210.57 266.05 210.15 266.05 209.69V198.87H265.13C264.71 198.87 264.41 198.59 264.41 198.15C264.41 197.71 264.71 197.42 265.13 197.42H266.05V196.4C266.05 193.15 268.17 192.25 269.9 192.25C271.05 192.25 272 192.62 272.67 193.12C272.87 193.27 273.05 193.5 273.05 193.77V193.78Z" fill="black"/>
<path d="M285.7 203.93C285.7 208.4 282.13 210.6 279.23 210.6C276.33 210.6 272.78 208.4 272.78 203.93C272.78 199.46 276.35 197.28 279.23 197.28C282.11 197.28 285.7 199.48 285.7 203.93ZM274.48 203.93C274.48 207.43 277.05 209.1 279.23 209.1C281.41 209.1 284 207.43 284 203.93C284 200.43 281.43 198.78 279.23 198.78C277.03 198.78 274.48 200.45 274.48 203.93Z" fill="black"/>
<path d="M295.57 198.13C295.57 198.63 295.15 198.96 294.42 198.96C291.95 198.96 290.25 200.93 289.97 202.66V209.68C289.97 210.16 289.59 210.56 289.12 210.56C288.65 210.56 288.27 210.16 288.27 209.68V198.23C288.27 197.76 288.65 197.36 289.12 197.36C289.59 197.36 289.97 197.76 289.97 198.23V200.48C290.12 199.65 291.77 197.31 294.54 197.31C295.19 197.31 295.56 197.66 295.56 198.13H295.57Z" fill="black"/>
<path d="M99.4398 230.05V228.22C99.4398 227.75 99.8398 227.35 100.29 227.35C100.79 227.35 101.16 227.75 101.16 228.22V239.69C101.16 240.14 100.76 240.57 100.29 240.57C99.8398 240.57 99.4398 240.15 99.4398 239.69V237.59C98.7198 239.39 96.8898 240.59 94.7898 240.59C91.9898 240.59 88.5898 238.42 88.5898 233.92C88.5898 229.42 91.9898 227.27 94.7898 227.27C96.7098 227.27 98.5898 228.22 99.4398 230.04V230.05ZM99.5398 233.92C99.5398 230.32 97.0898 228.77 94.9698 228.77C92.8498 228.77 90.2999 230.42 90.2999 233.92C90.2999 237.42 92.8498 239.09 94.9698 239.09C97.0898 239.09 99.5398 237.44 99.5398 233.92Z" fill="black"/>
<path d="M115.75 232.78V239.68C115.75 240.13 115.37 240.56 114.9 240.56C114.43 240.56 114.05 240.14 114.05 239.68V232.78C114.05 229.88 112.28 228.83 110.43 228.83C107.78 228.83 106.33 231 106.06 232.65V239.67C106.06 240.12 105.68 240.55 105.21 240.55C104.74 240.55 104.36 240.13 104.36 239.67V228.22C104.36 227.75 104.74 227.35 105.21 227.35C105.68 227.35 106.06 227.75 106.06 228.22V230.47C106.21 229.64 107.78 227.3 110.83 227.3C113.16 227.3 115.75 228.65 115.75 232.77V232.78Z" fill="black"/>
<path d="M123.95 239.48C123.95 240.3 122.7 240.55 121.75 240.55C120.55 240.55 119.4 240.1 119.4 238.08V228.88H118.18C117.76 228.88 117.46 228.6 117.46 228.16C117.46 227.72 117.76 227.43 118.18 227.43H119.4V225.16C119.4 224.69 119.78 224.31 120.25 224.31C120.72 224.31 121.1 224.69 121.1 225.16V227.43H123.2C123.63 227.43 123.95 227.71 123.95 228.16C123.95 228.61 123.63 228.88 123.2 228.88H121.1V237.98C121.1 238.78 121.45 239.08 122.1 239.08C122.5 239.08 122.83 238.98 123.1 238.91C123.57 238.76 123.95 239.06 123.95 239.49V239.48Z" fill="black"/>
<path d="M125.93 223.2C125.93 222.73 126.33 222.32 126.8 222.32C127.27 222.32 127.68 222.72 127.68 223.2C127.68 223.68 127.28 224.08 126.8 224.08C126.32 224.08 125.93 223.68 125.93 223.2ZM127.65 228.22V239.69C127.65 240.16 127.27 240.57 126.8 240.57C126.33 240.57 125.95 240.17 125.95 239.69V228.22C125.95 227.75 126.33 227.35 126.8 227.35C127.27 227.35 127.65 227.75 127.65 228.22Z" fill="black"/>
<path d="M138.46 233.4C138.46 233.8 138.16 234.1 137.78 234.1H131.08C130.7 234.1 130.38 233.8 130.38 233.4C130.38 233.02 130.7 232.73 131.08 232.73H137.78C138.16 232.73 138.46 233.03 138.46 233.4Z" fill="black"/>
<path d="M149.33 229.38C149.48 229.63 149.56 229.83 149.56 230.05C149.56 230.47 149.23 230.75 148.83 230.75C148.51 230.75 148.28 230.58 147.98 230.13C147.48 229.38 146.58 228.73 145.13 228.73C143.46 228.73 142.46 229.58 142.46 230.81C142.46 231.76 143.11 232.48 144.68 232.88L146.28 233.3C148.6 233.88 150.08 234.82 150.08 236.77C150.08 239.22 147.73 240.54 145.13 240.54C143.05 240.54 141.26 239.62 140.68 238.29C140.58 238.09 140.38 237.81 140.38 237.44C140.38 236.99 140.65 236.66 141.08 236.66C141.48 236.66 141.68 236.89 141.86 237.26C142.38 238.51 143.68 239.04 145.13 239.04C146.88 239.04 148.4 238.34 148.4 236.87C148.4 235.7 147.48 235.15 146.13 234.8L144.13 234.27C141.81 233.67 140.78 232.4 140.78 230.82C140.78 228.72 142.66 227.27 145.15 227.27C147.07 227.27 148.55 228.1 149.32 229.37L149.33 229.38Z" fill="black"/>
<path d="M165.11 233.93C165.11 238.43 161.71 240.6 158.91 240.6C156.81 240.6 154.99 239.4 154.26 237.6V239.7C154.26 239.78 154.26 239.82 154.23 239.9V244.42C154.23 244.87 153.85 245.27 153.38 245.27C152.91 245.27 152.53 244.87 152.53 244.42V228.22C152.53 227.75 152.91 227.35 153.4 227.35C153.85 227.35 154.25 227.75 154.25 228.22V230.05C155.1 228.22 156.97 227.28 158.9 227.28C161.7 227.28 165.1 229.48 165.1 233.93H165.11ZM163.41 233.93C163.41 230.43 160.86 228.78 158.74 228.78C156.62 228.78 154.17 230.33 154.17 233.93C154.17 237.53 156.62 239.1 158.74 239.1C160.86 239.1 163.41 237.45 163.41 233.93Z" fill="black"/>
<path d="M177.92 230.05V228.22C177.92 227.75 178.32 227.35 178.77 227.35C179.27 227.35 179.64 227.75 179.64 228.22V239.69C179.64 240.14 179.24 240.57 178.77 240.57C178.32 240.57 177.92 240.15 177.92 239.69V237.59C177.2 239.39 175.37 240.59 173.27 240.59C170.47 240.59 167.07 238.42 167.07 233.92C167.07 229.42 170.47 227.27 173.27 227.27C175.19 227.27 177.07 228.22 177.92 230.04V230.05ZM178.02 233.92C178.02 230.32 175.57 228.77 173.45 228.77C171.33 228.77 168.78 230.42 168.78 233.92C168.78 237.42 171.33 239.09 173.45 239.09C175.57 239.09 178.02 237.44 178.02 233.92Z" fill="black"/>
<path d="M203.93 232.78V239.68C203.93 240.13 203.55 240.56 203.08 240.56C202.63 240.56 202.23 240.14 202.23 239.68V232.78C202.23 229.88 200.46 228.83 198.63 228.83C195.96 228.83 194.51 231 194.23 232.65V239.67C194.23 240.12 193.85 240.55 193.38 240.55C192.91 240.55 192.53 240.13 192.53 239.67V232.77C192.53 229.87 190.76 228.82 188.91 228.82C186.26 228.82 184.81 230.99 184.54 232.64V239.66C184.54 240.11 184.16 240.54 183.69 240.54C183.22 240.54 182.84 240.12 182.84 239.66V228.21C182.84 227.74 183.22 227.34 183.69 227.34C184.16 227.34 184.54 227.74 184.54 228.21V230.46C184.69 229.63 186.26 227.29 189.31 227.29C191.16 227.29 193.21 228.14 193.93 230.61C194.65 229.04 196.33 227.29 199.03 227.29C201.36 227.29 203.93 228.64 203.93 232.76V232.78Z" fill="black"/>
<path d="M206.14 242.97L207.59 238.97C207.74 238.5 208.02 238.32 208.42 238.32H209.14C209.62 238.32 209.72 238.6 209.49 239.05L207.52 243.15C207.34 243.53 207.07 243.62 206.72 243.62H206.57C206.17 243.62 205.99 243.35 206.15 242.97H206.14Z" fill="black"/>
<path d="M219.46 240.55C218.99 240.55 218.61 240.13 218.61 239.67V223.42C218.61 222.97 218.99 222.57 219.46 222.57C219.93 222.57 220.31 222.97 220.31 223.42V239.67C220.31 240.12 219.93 240.55 219.46 240.55Z" fill="black"/>
<path d="M235.77 233.93C235.77 238.4 232.2 240.6 229.3 240.6C226.4 240.6 222.85 238.4 222.85 233.93C222.85 229.46 226.42 227.28 229.3 227.28C232.18 227.28 235.77 229.48 235.77 233.93ZM224.55 233.93C224.55 237.43 227.12 239.1 229.3 239.1C231.48 239.1 234.07 237.43 234.07 233.93C234.07 230.43 231.5 228.78 229.3 228.78C227.1 228.78 224.55 230.45 224.55 233.93Z" fill="black"/>
<path d="M250.31 228.23V240.18C250.31 244.3 246.79 245.55 244.14 245.55C242.47 245.55 241.22 245.05 240.62 244.7C240.32 244.55 240.12 244.3 240.12 243.98C240.12 243.6 240.45 243.28 240.82 243.28C240.99 243.28 241.17 243.36 241.37 243.43C241.99 243.78 243.04 244.05 244.19 244.05C246.59 244.05 248.61 242.88 248.61 240.18V239.91C248.58 239.83 248.58 239.79 248.58 239.71V237.61C247.86 239.41 246.03 240.61 243.93 240.61C241.13 240.61 237.73 238.44 237.73 233.94C237.73 229.44 241.13 227.29 243.93 227.29C245.85 227.29 247.73 228.24 248.58 230.06V228.23C248.58 227.76 248.98 227.36 249.43 227.36C249.93 227.36 250.3 227.76 250.3 228.23H250.31ZM248.69 233.93C248.69 230.33 246.24 228.78 244.12 228.78C242 228.78 239.45 230.43 239.45 233.93C239.45 237.43 242 239.1 244.12 239.1C246.24 239.1 248.69 237.45 248.69 233.93Z" fill="black"/>
<path d="M265.45 228.23V240.18C265.45 244.3 261.93 245.55 259.28 245.55C257.61 245.55 256.36 245.05 255.76 244.7C255.46 244.55 255.26 244.3 255.26 243.98C255.26 243.6 255.59 243.28 255.96 243.28C256.13 243.28 256.31 243.36 256.51 243.43C257.13 243.78 258.18 244.05 259.33 244.05C261.73 244.05 263.75 242.88 263.75 240.18V239.91C263.72 239.83 263.72 239.79 263.72 239.71V237.61C263 239.41 261.17 240.61 259.07 240.61C256.27 240.61 252.87 238.44 252.87 233.94C252.87 229.44 256.27 227.29 259.07 227.29C260.99 227.29 262.87 228.24 263.72 230.06V228.23C263.72 227.76 264.12 227.36 264.57 227.36C265.07 227.36 265.44 227.76 265.44 228.23H265.45ZM263.83 233.93C263.83 230.33 261.38 228.78 259.26 228.78C257.14 228.78 254.59 230.43 254.59 233.93C254.59 237.43 257.14 239.1 259.26 239.1C261.38 239.1 263.83 237.45 263.83 233.93Z" fill="black"/>
<path d="M268.63 223.2C268.63 222.73 269.03 222.32 269.5 222.32C269.97 222.32 270.38 222.72 270.38 223.2C270.38 223.68 269.98 224.08 269.5 224.08C269.02 224.08 268.63 223.68 268.63 223.2ZM270.35 228.22V239.69C270.35 240.16 269.97 240.57 269.5 240.57C269.03 240.57 268.65 240.17 268.65 239.69V228.22C268.65 227.75 269.03 227.35 269.5 227.35C269.97 227.35 270.35 227.75 270.35 228.22Z" fill="black"/>
<path d="M284.91 232.78V239.68C284.91 240.13 284.53 240.56 284.06 240.56C283.59 240.56 283.21 240.14 283.21 239.68V232.78C283.21 229.88 281.44 228.83 279.59 228.83C276.94 228.83 275.49 231 275.22 232.65V239.67C275.22 240.12 274.84 240.55 274.37 240.55C273.9 240.55 273.52 240.13 273.52 239.67V228.22C273.52 227.75 273.9 227.35 274.37 227.35C274.84 227.35 275.22 227.75 275.22 228.22V230.47C275.37 229.64 276.94 227.3 279.99 227.3C282.32 227.3 284.91 228.65 284.91 232.77V232.78Z" fill="black"/>
<path d="M299.96 228.23V240.18C299.96 244.3 296.44 245.55 293.79 245.55C292.12 245.55 290.87 245.05 290.27 244.7C289.97 244.55 289.77 244.3 289.77 243.98C289.77 243.6 290.1 243.28 290.47 243.28C290.64 243.28 290.82 243.36 291.02 243.43C291.64 243.78 292.69 244.05 293.84 244.05C296.24 244.05 298.26 242.88 298.26 240.18V239.91C298.23 239.83 298.23 239.79 298.23 239.71V237.61C297.51 239.41 295.68 240.61 293.58 240.61C290.78 240.61 287.38 238.44 287.38 233.94C287.38 229.44 290.78 227.29 293.58 227.29C295.5 227.29 297.38 228.24 298.23 230.06V228.23C298.23 227.76 298.63 227.36 299.08 227.36C299.58 227.36 299.95 227.76 299.95 228.23H299.96ZM298.34 233.93C298.34 230.33 295.89 228.78 293.77 228.78C291.65 228.78 289.1 230.43 289.1 233.93C289.1 237.43 291.65 239.1 293.77 239.1C295.89 239.1 298.34 237.45 298.34 233.93Z" fill="black"/>
<path d="M302.32 242.97L303.77 238.97C303.92 238.5 304.2 238.32 304.6 238.32H305.32C305.8 238.32 305.9 238.6 305.67 239.05L303.7 243.15C303.52 243.53 303.25 243.62 302.9 243.62H302.75C302.35 243.62 302.17 243.35 302.33 242.97H302.32Z" fill="black"/>
<path d="M100.04 267.65C100.04 267.95 99.8399 268.15 99.6599 268.38C98.5599 269.83 96.8898 270.55 95.0398 270.55C92.1198 270.55 88.5898 268.35 88.5898 263.93C88.5898 259.51 92.1098 257.28 95.0398 257.28C96.8898 257.28 98.5599 258 99.6599 259.45C99.8299 259.67 100.04 259.87 100.04 260.17C100.04 260.59 99.6898 260.87 99.2898 260.87C98.9898 260.87 98.7098 260.7 98.5098 260.42C97.7398 259.32 96.3598 258.77 95.1098 258.77C92.8398 258.77 90.2898 260.44 90.2898 263.92C90.2898 267.4 92.8398 269.04 95.1098 269.04C96.3598 269.04 97.7298 268.49 98.5098 267.39C98.7098 267.12 98.9898 266.94 99.2898 266.94C99.6898 266.94 100.04 267.21 100.04 267.64V267.65Z" fill="black"/>
<path d="M102.37 265.15V258.25C102.37 257.8 102.75 257.37 103.22 257.37C103.69 257.37 104.07 257.79 104.07 258.25V265.15C104.07 268.05 105.84 269.1 107.69 269.1C110.34 269.1 111.79 266.93 112.06 265.28V258.26C112.06 257.81 112.44 257.38 112.91 257.38C113.38 257.38 113.76 257.8 113.76 258.26V269.71C113.76 270.18 113.38 270.59 112.91 270.59C112.44 270.59 112.06 270.19 112.06 269.71V267.46C111.91 268.28 110.34 270.63 107.29 270.63C104.96 270.63 102.37 269.28 102.37 265.16V265.15Z" fill="black"/>
<path d="M125.18 259.38C125.33 259.63 125.41 259.83 125.41 260.05C125.41 260.47 125.08 260.75 124.68 260.75C124.36 260.75 124.13 260.58 123.83 260.13C123.33 259.38 122.43 258.73 120.98 258.73C119.31 258.73 118.31 259.58 118.31 260.81C118.31 261.76 118.96 262.48 120.53 262.88L122.13 263.3C124.45 263.88 125.93 264.82 125.93 266.77C125.93 269.22 123.58 270.54 120.98 270.54C118.9 270.54 117.11 269.62 116.53 268.29C116.43 268.09 116.23 267.81 116.23 267.44C116.23 266.99 116.5 266.66 116.93 266.66C117.33 266.66 117.53 266.89 117.71 267.26C118.23 268.51 119.53 269.04 120.98 269.04C122.73 269.04 124.25 268.34 124.25 266.87C124.25 265.7 123.33 265.15 121.98 264.8L119.98 264.27C117.66 263.67 116.63 262.4 116.63 260.82C116.63 258.72 118.51 257.27 121 257.27C122.92 257.27 124.4 258.1 125.17 259.37L125.18 259.38Z" fill="black"/>
<path d="M133.5 269.48C133.5 270.3 132.25 270.55 131.3 270.55C130.1 270.55 128.95 270.1 128.95 268.08V258.88H127.73C127.31 258.88 127.01 258.6 127.01 258.16C127.01 257.72 127.31 257.43 127.73 257.43H128.95V255.16C128.95 254.69 129.33 254.31 129.8 254.31C130.27 254.31 130.65 254.69 130.65 255.16V257.43H132.75C133.18 257.43 133.5 257.71 133.5 258.16C133.5 258.61 133.18 258.88 132.75 258.88H130.65V267.98C130.65 268.78 131 269.08 131.65 269.08C132.05 269.08 132.38 268.98 132.65 268.91C133.12 268.76 133.5 269.06 133.5 269.49V269.48Z" fill="black"/>
<path d="M147.41 263.93C147.41 268.4 143.84 270.6 140.94 270.6C138.04 270.6 134.49 268.4 134.49 263.93C134.49 259.46 138.06 257.28 140.94 257.28C143.82 257.28 147.41 259.48 147.41 263.93ZM136.19 263.93C136.19 267.43 138.76 269.1 140.94 269.1C143.12 269.1 145.71 267.43 145.71 263.93C145.71 260.43 143.14 258.78 140.94 258.78C138.74 258.78 136.19 260.45 136.19 263.93Z" fill="black"/>
<path d="M171.08 262.78V269.68C171.08 270.13 170.7 270.56 170.23 270.56C169.78 270.56 169.38 270.14 169.38 269.68V262.78C169.38 259.88 167.61 258.83 165.78 258.83C163.11 258.83 161.66 261 161.38 262.65V269.67C161.38 270.12 161 270.55 160.53 270.55C160.06 270.55 159.68 270.13 159.68 269.67V262.77C159.68 259.87 157.91 258.82 156.06 258.82C153.41 258.82 151.96 260.99 151.69 262.64V269.66C151.69 270.11 151.31 270.54 150.84 270.54C150.37 270.54 149.99 270.12 149.99 269.66V258.21C149.99 257.74 150.37 257.34 150.84 257.34C151.31 257.34 151.69 257.74 151.69 258.21V260.46C151.84 259.63 153.41 257.29 156.46 257.29C158.31 257.29 160.36 258.14 161.08 260.61C161.8 259.04 163.48 257.29 166.18 257.29C168.51 257.29 171.08 258.64 171.08 262.76V262.78Z" fill="black"/>
<path d="M191.68 267.65C191.68 267.95 191.48 268.15 191.3 268.38C190.2 269.83 188.53 270.55 186.68 270.55C183.76 270.55 180.23 268.35 180.23 263.93C180.23 259.51 183.75 257.28 186.68 257.28C188.53 257.28 190.2 258 191.3 259.45C191.47 259.67 191.68 259.87 191.68 260.17C191.68 260.59 191.33 260.87 190.93 260.87C190.63 260.87 190.35 260.7 190.15 260.42C189.38 259.32 188 258.77 186.75 258.77C184.48 258.77 181.93 260.44 181.93 263.92C181.93 267.4 184.48 269.04 186.75 269.04C188 269.04 189.37 268.49 190.15 267.39C190.35 267.12 190.63 266.94 190.93 266.94C191.33 266.94 191.68 267.21 191.68 267.64V267.65Z" fill="black"/>
<path d="M206.23 263.93C206.23 268.4 202.66 270.6 199.76 270.6C196.86 270.6 193.31 268.4 193.31 263.93C193.31 259.46 196.88 257.28 199.76 257.28C202.64 257.28 206.23 259.48 206.23 263.93ZM195.01 263.93C195.01 267.43 197.58 269.1 199.76 269.1C201.94 269.1 204.53 267.43 204.53 263.93C204.53 260.43 201.96 258.78 199.76 258.78C197.56 258.78 195.01 260.45 195.01 263.93Z" fill="black"/>
<path d="M229.9 262.78V269.68C229.9 270.13 229.52 270.56 229.05 270.56C228.6 270.56 228.2 270.14 228.2 269.68V262.78C228.2 259.88 226.43 258.83 224.6 258.83C221.93 258.83 220.48 261 220.2 262.65V269.67C220.2 270.12 219.82 270.55 219.35 270.55C218.88 270.55 218.5 270.13 218.5 269.67V262.77C218.5 259.87 216.73 258.82 214.88 258.82C212.23 258.82 210.78 260.99 210.51 262.64V269.66C210.51 270.11 210.13 270.54 209.66 270.54C209.19 270.54 208.81 270.12 208.81 269.66V258.21C208.81 257.74 209.19 257.34 209.66 257.34C210.13 257.34 210.51 257.74 210.51 258.21V260.46C210.66 259.63 212.23 257.29 215.28 257.29C217.13 257.29 219.18 258.14 219.9 260.61C220.62 259.04 222.3 257.29 225 257.29C227.33 257.29 229.9 258.64 229.9 262.76V262.78Z" fill="black"/>
<path d="M254.17 262.78V269.68C254.17 270.13 253.79 270.56 253.32 270.56C252.87 270.56 252.47 270.14 252.47 269.68V262.78C252.47 259.88 250.7 258.83 248.87 258.83C246.2 258.83 244.75 261 244.47 262.65V269.67C244.47 270.12 244.09 270.55 243.62 270.55C243.15 270.55 242.77 270.13 242.77 269.67V262.77C242.77 259.87 241 258.82 239.15 258.82C236.5 258.82 235.05 260.99 234.78 262.64V269.66C234.78 270.11 234.4 270.54 233.93 270.54C233.46 270.54 233.08 270.12 233.08 269.66V258.21C233.08 257.74 233.46 257.34 233.93 257.34C234.4 257.34 234.78 257.74 234.78 258.21V260.46C234.93 259.63 236.5 257.29 239.55 257.29C241.4 257.29 243.45 258.14 244.17 260.61C244.89 259.04 246.57 257.29 249.27 257.29C251.6 257.29 254.17 258.64 254.17 262.76V262.78Z" fill="black"/>
<path d="M267.54 260.05V258.22C267.54 257.75 267.94 257.35 268.39 257.35C268.89 257.35 269.26 257.75 269.26 258.22V269.69C269.26 270.14 268.86 270.57 268.39 270.57C267.94 270.57 267.54 270.15 267.54 269.69V267.59C266.82 269.39 264.99 270.59 262.89 270.59C260.09 270.59 256.69 268.42 256.69 263.92C256.69 259.42 260.09 257.27 262.89 257.27C264.81 257.27 266.69 258.22 267.54 260.04V260.05ZM267.64 263.92C267.64 260.32 265.19 258.77 263.07 258.77C260.95 258.77 258.4 260.42 258.4 263.92C258.4 267.42 260.95 269.09 263.07 269.09C265.19 269.09 267.64 267.44 267.64 263.92Z" fill="black"/>
<path d="M283.85 262.78V269.68C283.85 270.13 283.47 270.56 283 270.56C282.53 270.56 282.15 270.14 282.15 269.68V262.78C282.15 259.88 280.38 258.83 278.53 258.83C275.88 258.83 274.43 261 274.16 262.65V269.67C274.16 270.12 273.78 270.55 273.31 270.55C272.84 270.55 272.46 270.13 272.46 269.67V258.22C272.46 257.75 272.84 257.35 273.31 257.35C273.78 257.35 274.16 257.75 274.16 258.22V260.47C274.31 259.64 275.88 257.3 278.93 257.3C281.26 257.3 283.85 258.65 283.85 262.77V262.78Z" fill="black"/>
<path d="M298.91 253.45V269.7C298.91 270.15 298.51 270.58 298.04 270.58C297.59 270.58 297.19 270.16 297.19 269.7V267.6C296.47 269.4 294.64 270.6 292.54 270.6C289.74 270.6 286.34 268.43 286.34 263.93C286.34 259.43 289.74 257.28 292.54 257.28C294.46 257.28 296.34 258.23 297.19 260.05V258.22C297.19 258.15 297.19 258.07 297.22 258.02V253.45C297.22 252.98 297.6 252.57 298.07 252.57C298.52 252.57 298.92 252.97 298.92 253.45H298.91ZM297.29 263.92C297.29 260.32 294.84 258.77 292.72 258.77C290.6 258.77 288.05 260.42 288.05 263.92C288.05 267.42 290.6 269.09 292.72 269.09C294.84 269.09 297.29 267.44 297.29 263.92Z" fill="black"/>
<path d="M310.33 259.38C310.48 259.63 310.56 259.83 310.56 260.05C310.56 260.47 310.23 260.75 309.83 260.75C309.51 260.75 309.28 260.58 308.98 260.13C308.48 259.38 307.58 258.73 306.13 258.73C304.46 258.73 303.46 259.58 303.46 260.81C303.46 261.76 304.11 262.48 305.68 262.88L307.28 263.3C309.6 263.88 311.08 264.82 311.08 266.77C311.08 269.22 308.73 270.54 306.13 270.54C304.05 270.54 302.26 269.62 301.68 268.29C301.58 268.09 301.38 267.81 301.38 267.44C301.38 266.99 301.65 266.66 302.08 266.66C302.48 266.66 302.68 266.89 302.86 267.26C303.38 268.51 304.68 269.04 306.13 269.04C307.88 269.04 309.4 268.34 309.4 266.87C309.4 265.7 308.48 265.15 307.13 264.8L305.13 264.27C302.81 263.67 301.78 262.4 301.78 260.82C301.78 258.72 303.66 257.27 306.15 257.27C308.07 257.27 309.55 258.1 310.32 259.37L310.33 259.38Z" fill="black"/>
<path d="M110.53 93.78V110.81C110.53 112.83 108.74 114.44 106.77 114.44C105.07 114.44 103.56 113.25 103.19 111.59C102.5 112.78 100.48 114.48 97.1299 114.48C92.0799 114.48 86.1099 110.62 86.1099 102.23C86.1099 93.84 92.1699 90.02 97.1299 90.02C100.25 90.02 102.5 91.76 103.1 93.37V93.78C103.1 91.81 104.8 90.15 106.77 90.15C108.74 90.15 110.53 91.8 110.53 93.78ZM103.42 102.23C103.42 97.73 100.53 96.26 98.5099 96.26C95.8899 96.26 93.4599 98.33 93.4599 102.23C93.4599 106.13 95.8899 108.24 98.5099 108.24C100.53 108.24 103.42 106.82 103.42 102.23Z" fill="#DB354D"/>
<path d="M115.95 103.06V93.7399C115.95 91.7199 117.6 90.1099 119.62 90.1099C121.64 90.1099 123.25 91.7199 123.25 93.7399V103.06C123.25 106.64 124.9 108.25 127.33 108.25C131.09 108.25 131.92 104.44 131.92 103.94V93.7499C131.92 91.7299 133.62 90.1199 135.59 90.1199C137.56 90.1199 139.26 91.7299 139.26 93.7499V110.64C139.26 112.71 137.56 114.36 135.59 114.36C133.62 114.36 131.92 112.71 131.92 110.64V109.22C131.78 110.92 129.17 114.45 124.48 114.45C119.79 114.45 115.94 111.15 115.94 103.07L115.95 103.06Z" fill="#DB354D"/>
<path d="M159.23 110.63C159.23 113.02 157.21 114.39 153.49 114.39C149.77 114.39 146.33 113.29 146.33 105.72V95.94H145.41C143.62 95.94 142.47 94.75 142.47 93.14C142.47 91.53 143.62 90.29 145.41 90.29H146.33V87.63C146.33 85.61 148.03 83.96 150 83.96C151.97 83.96 153.67 85.61 153.67 87.63V90.29H156.33C158.12 90.29 159.22 91.48 159.22 93.14C159.22 94.8 158.12 95.94 156.33 95.94H153.67V106.08C153.67 107.32 154.04 108.1 154.91 108.1C155.37 108.1 156.15 107.92 156.65 107.96C158.26 107.96 159.22 108.92 159.22 110.62L159.23 110.63Z" fill="#DB354D"/>
<path d="M186.32 102.32C186.32 110.54 179.16 114.48 173.93 114.48C168.7 114.48 161.49 110.53 161.49 102.32C161.49 94.11 168.65 90.02 173.93 90.02C179.21 90.02 186.32 94.15 186.32 102.32ZM168.74 102.32C168.74 105.76 171.03 108.15 173.93 108.15C176.83 108.15 179.12 105.76 179.12 102.32C179.12 98.88 176.78 96.35 173.93 96.35C171.08 96.35 168.74 98.74 168.74 102.32Z" fill="#DB354D"/>
<path d="M207.28 101.63C207.28 103.33 205.86 104.66 204.3 104.66H193.61C192 104.66 190.58 103.33 190.58 101.63C190.58 99.9299 192 98.5999 193.61 98.5999H204.3C205.86 98.5999 207.28 99.9799 207.28 101.63Z" fill="#DB354D"/>
<path d="M126.36 147.45V156.77C126.36 158.79 124.66 160.4 122.69 160.4C120.72 160.4 119.02 158.79 119.02 156.77V147.45C119.02 143.87 117.37 142.26 114.98 142.26C111.22 142.26 110.34 146.07 110.34 146.57V156.76C110.34 158.78 108.69 160.39 106.67 160.39C104.65 160.39 103.04 158.78 103.04 156.76V147.44C103.04 143.86 101.39 142.25 98.9598 142.25C95.1998 142.25 94.3698 146.06 94.3698 146.56V156.75C94.3698 158.77 92.6698 160.38 90.6998 160.38C88.7298 160.38 87.0298 158.77 87.0298 156.75V139.86C87.0298 137.79 88.7298 136.14 90.6998 136.14C92.6698 136.14 94.3698 137.79 94.3698 139.86V141.28C94.5098 139.58 97.1198 136.05 101.81 136.05C105.21 136.05 108.1 137.75 109.48 141.6C110.72 138.8 113.56 136.05 117.79 136.05C122.56 136.05 126.37 139.35 126.37 147.43L126.36 147.45Z" fill="#DB354D"/>
<path d="M155.43 148.32C155.43 156.54 148.27 160.48 143.04 160.48C137.81 160.48 130.6 156.53 130.6 148.32C130.6 140.11 137.76 136.02 143.04 136.02C148.32 136.02 155.43 140.15 155.43 148.32ZM137.85 148.32C137.85 151.76 140.14 154.15 143.04 154.15C145.94 154.15 148.23 151.76 148.23 148.32C148.23 144.88 145.89 142.35 143.04 142.35C140.19 142.35 137.85 144.74 137.85 148.32Z" fill="#DB354D"/>
<path d="M183.05 131.02V156.81C183.05 158.83 181.26 160.44 179.29 160.44C177.59 160.44 176.08 159.25 175.71 157.59C175.02 158.78 173 160.48 169.65 160.48C164.6 160.48 158.63 156.62 158.63 148.23C158.63 139.84 164.69 136.02 169.65 136.02C172.77 136.02 175.02 137.76 175.62 139.37V139.78C175.62 139.6 175.62 139.41 175.67 139.23V131.01C175.67 129.04 177.32 127.38 179.3 127.38C181.28 127.38 183.06 129.03 183.06 131.01L183.05 131.02ZM175.94 148.23C175.94 143.73 173.05 142.26 171.03 142.26C168.41 142.26 165.98 144.33 165.98 148.23C165.98 152.13 168.41 154.24 171.03 154.24C173.05 154.24 175.94 152.82 175.94 148.23Z" fill="#DB354D"/>
<path d="M211.32 147.08C211.32 149.97 209.76 150.94 206.82 150.94L195.12 150.8C195.76 153.14 197.64 154.52 200.63 154.52C202.01 154.52 202.24 154.34 203.52 154.02C204.48 153.7 205.26 153.29 206.18 153.29C207.69 153.29 208.61 154.35 208.61 155.72C208.61 156.59 208.24 157.65 206.87 158.7C205.31 159.66 203.2 160.4 200.31 160.4C194.07 160.4 187.5 156.68 187.5 148.33C187.5 139.98 194.52 136.03 199.75 136.03C204.98 136.03 211.32 140.21 211.32 147.09V147.08ZM195.12 145.93H204.12C203.66 143.31 201.87 142.35 199.76 142.35C197.65 142.35 195.54 143.31 195.12 145.93Z" fill="#DB354D"/>
<path d="M232.69 139.37C232.69 141.44 231.18 142.81 228.05 142.81C224.92 142.81 222.91 145.24 222.82 146.57V156.76C222.82 158.73 221.12 160.39 219.15 160.39C217.18 160.39 215.48 158.74 215.48 156.76V139.87C215.48 137.8 217.18 136.15 219.15 136.15C221.12 136.15 222.82 137.8 222.82 139.87V141.29C222.96 139.59 225.71 136.06 229.38 136.06C231.58 136.06 232.68 137.62 232.68 139.36L232.69 139.37Z" fill="#DB354D"/>
<path d="M259.07 139.78V156.81C259.07 158.83 257.28 160.44 255.31 160.44C253.61 160.44 252.1 159.25 251.73 157.59C251.04 158.78 249.02 160.48 245.67 160.48C240.62 160.48 234.65 156.62 234.65 148.23C234.65 139.84 240.71 136.02 245.67 136.02C248.79 136.02 251.04 137.76 251.64 139.37V139.78C251.64 137.81 253.34 136.15 255.31 136.15C257.28 136.15 259.07 137.8 259.07 139.78V139.78ZM251.96 148.23C251.96 143.73 249.07 142.26 247.05 142.26C244.43 142.26 242 144.33 242 148.23C242 152.13 244.43 154.24 247.05 154.24C249.07 154.24 251.96 152.82 251.96 148.23Z" fill="#DB354D"/>
<path d="M279.03 156.63C279.03 159.02 277.01 160.39 273.29 160.39C269.57 160.39 266.13 159.29 266.13 151.72V141.94H265.21C263.42 141.94 262.27 140.75 262.27 139.14C262.27 137.53 263.42 136.29 265.21 136.29H266.13V133.63C266.13 131.61 267.83 129.96 269.8 129.96C271.77 129.96 273.47 131.61 273.47 133.63V136.29H276.13C277.92 136.29 279.02 137.48 279.02 139.14C279.02 140.8 277.92 141.94 276.13 141.94H273.47V152.08C273.47 153.32 273.84 154.1 274.71 154.1C275.17 154.1 275.95 153.92 276.45 153.96C278.06 153.96 279.02 154.92 279.02 156.62L279.03 156.63Z" fill="#DB354D"/>
<path d="M282.94 130.56C282.94 128.59 284.68 126.93 286.66 126.93C288.64 126.93 290.38 128.58 290.38 130.56C290.38 132.54 288.64 134.14 286.66 134.14C284.68 134.14 282.94 132.49 282.94 130.56ZM290.33 139.88V156.72C290.33 158.79 288.63 160.44 286.66 160.44C284.69 160.44 282.99 158.79 282.99 156.72V139.88C282.99 137.81 284.69 136.16 286.66 136.16C288.63 136.16 290.33 137.81 290.33 139.88Z" fill="#DB354D"/>
<path d="M319.41 148.32C319.41 156.54 312.25 160.48 307.02 160.48C301.79 160.48 294.58 156.53 294.58 148.32C294.58 140.11 301.74 136.02 307.02 136.02C312.3 136.02 319.41 140.15 319.41 148.32ZM301.83 148.32C301.83 151.76 304.12 154.15 307.02 154.15C309.92 154.15 312.21 151.76 312.21 148.32C312.21 144.88 309.87 142.35 307.02 142.35C304.17 142.35 301.83 144.74 301.83 148.32Z" fill="#DB354D"/>
<path d="M347.09 147.45V156.77C347.09 158.79 345.44 160.4 343.42 160.4C341.4 160.4 339.79 158.79 339.79 156.77V147.45C339.79 143.87 338.14 142.26 335.71 142.26C331.95 142.26 331.12 146.07 331.12 146.57V156.76C331.12 158.78 329.42 160.39 327.45 160.39C325.48 160.39 323.78 158.78 323.78 156.76V139.87C323.78 137.8 325.48 136.15 327.45 136.15C329.42 136.15 331.12 137.8 331.12 139.87V141.29C331.26 139.59 333.87 136.06 338.56 136.06C343.25 136.06 347.1 139.36 347.1 147.44L347.09 147.45Z" fill="#DB354D"/>
</svg>
