<svg width="277" height="60" viewBox="0 0 277 60" fill="none" xmlns="http://www.w3.org/2000/svg">
<path d="M272.922 58.5937C273.222 58.2937 273.512 57.9737 273.772 57.6137C275.342 55.4937 275.882 52.7637 275.892 50.1237C275.922 43.4437 272.582 36.8437 267.222 32.8737C267.002 32.7137 266.782 32.5537 266.552 32.4037C260.802 28.4937 253.092 27.6537 246.642 30.2337C247.082 30.0537 242.532 23.2337 241.992 22.6037C239.752 19.9937 236.932 17.7537 233.692 16.5137C227.882 14.2837 220.402 15.3537 216.382 20.4137C205.782 5.85367 185.882 -1.21633 168.472 3.40367C151.062 8.02367 137.282 24.0237 135.302 41.9237C126.582 37.3537 114.672 40.2237 109.002 48.2737C105.352 44.0237 98.5717 42.8637 93.7117 45.6537C92.4717 36.9037 85.9617 29.6937 78.2517 25.3737C52.8017 11.1237 22.6517 26.2637 20.0117 40.5237C20.0117 40.5237 18.2717 40.1037 15.6317 40.2037C3.71166 40.6637 -4.33826 58.6037 7.59174 58.6037H272.932L272.922 58.5937Z" fill="white" stroke="black" stroke-width="2.13" stroke-linecap="round" stroke-linejoin="round"/>
<g style="mix-blend-mode:multiply" opacity="0.3">
<path d="M273.763 57.6233C275.053 55.8833 275.643 53.7333 275.813 51.5533C264.653 57.1233 249.243 53.3833 242.503 42.7033C233.663 47.8633 221.983 38.4233 214.123 31.8633C194.383 49.6433 163.283 59.1733 139.103 48.1833C132.413 53.7833 128.313 54.2333 119.603 53.7533C113.663 53.4333 108.943 52.2333 108.943 52.2333C108.943 52.2333 96.5325 58.6033 89.9725 50.5933C69.4525 59.2233 45.9726 56.5133 24.5726 50.3733C13.3426 54.9533 6.46261 46.7233 7.57261 43.5033C6.52261 43.9133 4.70251 45.6133 2.72251 47.7433C-1.10749 51.8733 1.87254 58.5933 7.50254 58.5933H272.912C273.212 58.2933 273.503 57.9733 273.763 57.6133V57.6233Z" fill="#7AC6FF"/>
</g>
<path opacity="0.3" d="M36.8635 30.8139C35.3135 29.9139 33.4035 30.3939 32.4835 32.0739C32.1135 32.7539 31.8935 33.5139 31.6535 34.2539C31.6235 34.3139 31.5935 34.3839 31.5535 34.4439C30.6735 36.0039 31.1936 38.3739 32.7036 39.2439C34.2736 40.1539 36.1436 39.6539 37.0836 37.9839C37.4636 37.3039 37.6735 36.5439 37.9235 35.7939C37.9535 35.7339 37.9835 35.6739 38.0135 35.6139C38.8735 34.0339 38.3835 31.6939 36.8635 30.8139Z" fill="#7AC6FF"/>
<path opacity="0.3" d="M153.492 33.0334C152.892 29.9434 151.202 27.3434 149.522 27.2034C148.842 27.1434 148.232 27.3934 147.612 27.5834C147.552 27.5834 147.492 27.5834 147.422 27.5834C145.842 27.4134 144.812 30.0234 145.392 33.0234C146.002 36.1434 147.672 38.6734 149.362 38.8534C150.052 38.9334 150.662 38.6734 151.292 38.4834C151.352 38.4834 151.402 38.4834 151.462 38.4834C153.042 38.6234 154.082 36.0634 153.492 33.0434V33.0334Z" fill="#7AC6FF"/>
<path opacity="0.3" d="M159.442 33.4232C160.312 32.6732 160.812 31.6632 160.532 31.1032C160.422 30.8732 160.222 30.7232 160.042 30.5532C160.032 30.5332 160.022 30.5132 160.012 30.4932C159.762 29.9532 158.722 30.0932 157.882 30.8132C157.002 31.5632 156.522 32.5632 156.792 33.1332C156.902 33.3632 157.102 33.5232 157.282 33.6832C157.292 33.7032 157.302 33.7232 157.312 33.7432C157.572 34.2732 158.592 34.1532 159.442 33.4232Z" fill="#7AC6FF"/>
<path opacity="0.3" d="M160.233 25.984C161.313 25.244 161.793 24.094 161.253 23.314C161.033 22.994 160.714 22.754 160.414 22.504C160.394 22.474 160.373 22.444 160.353 22.414C159.863 21.674 158.393 21.604 157.353 22.314C156.263 23.054 155.804 24.194 156.334 24.984C156.544 25.304 156.874 25.544 157.184 25.794C157.204 25.824 157.223 25.844 157.243 25.874C157.753 26.604 159.193 26.694 160.243 25.974L160.233 25.984Z" fill="#7AC6FF"/>
<path opacity="0.3" d="M29.2427 39.9038C29.1427 38.9638 28.6127 38.2238 27.9827 38.2538C27.7327 38.2538 27.4927 38.3638 27.2427 38.4438C27.2227 38.4438 27.1927 38.4438 27.1727 38.4438C26.5827 38.4438 26.0827 39.3138 26.1827 40.2138C26.2827 41.1638 26.8127 41.8738 27.4427 41.8638C27.7027 41.8638 27.9427 41.7538 28.1827 41.6738C28.2027 41.6738 28.2227 41.6738 28.2527 41.6738C28.8427 41.6538 29.3427 40.8138 29.2427 39.9038Z" fill="#7AC6FF"/>
</svg>
