<svg width="131" height="74" viewBox="0 0 131 74" fill="none" xmlns="http://www.w3.org/2000/svg">
<path d="M128.845 72.2276C130.025 68.2576 129.275 63.6676 126.585 60.4876C122.885 56.0976 115.945 54.8576 110.955 57.6876C116.685 43.8076 114.445 26.7576 104.725 15.3076C95.0052 3.85762 78.0552 -1.10238 63.9252 4.00762C49.8052 9.10762 39.8252 24.3076 41.4552 39.2376C35.2552 37.2776 28.0652 38.8876 23.2852 43.2876C18.5052 47.6876 16.3152 54.7276 17.7652 61.0676C13.6952 60.4576 9.27522 61.0476 6.00522 63.5576C3.37522 65.5776 1.73525 68.9976 2.03525 72.2276H128.855H128.845Z" fill="white" stroke="black" stroke-width="2.13" stroke-linecap="round" stroke-linejoin="round"/>
<g style="mix-blend-mode:multiply" opacity="0.3">
<path d="M129.366 68.9173C124.486 70.7973 119.046 71.2073 113.966 69.9673C112.016 69.4873 110.036 68.7373 108.676 67.2573C107.316 65.7773 106.736 63.4273 107.786 61.7073C100.916 64.3773 93.5255 65.5973 86.1655 65.7173C73.7655 65.9073 61.1956 62.8973 50.7356 56.2473C49.0956 55.2073 47.3756 53.8673 47.0856 51.9473C46.4756 58.0473 42.6955 63.7373 37.3055 66.6473C31.9155 69.5673 25.0856 69.6273 19.6456 66.8173C16.8156 69.1773 12.5156 68.2073 9.21556 66.5673C7.89556 65.9073 6.52555 65.0673 5.95555 63.7073C5.94555 63.6773 5.94553 63.6573 5.93553 63.6273C3.35553 65.6573 1.74558 69.0273 2.04558 72.2273H128.866C129.186 71.1573 129.346 70.0373 129.386 68.9173H129.366Z" fill="#7AC6FF"/>
</g>
<path opacity="0.3" d="M66.8962 19.7675C64.4162 18.3275 61.3563 19.0875 59.8863 21.7775C59.2863 22.8675 58.9462 24.0775 58.5562 25.2675C58.5062 25.3675 58.4562 25.4775 58.3962 25.5775C56.9862 28.0775 57.8263 31.8675 60.2363 33.2575C62.7463 34.7075 65.7463 33.9175 67.2463 31.2475C67.8563 30.1575 68.1962 28.9375 68.5862 27.7375C68.6362 27.6375 68.6763 27.5475 68.7263 27.4475C70.1063 24.9275 69.3163 21.1675 66.8863 19.7675H66.8962Z" fill="#7AC6FF"/>
<path opacity="0.3" d="M55.7158 33.5772C55.5958 31.8872 54.6158 30.5772 53.3758 30.6772C52.8758 30.7172 52.3957 30.9172 51.9157 31.0972C51.8657 31.0972 51.8257 31.1072 51.7757 31.1172C50.6157 31.1872 49.5757 32.7872 49.6857 34.4372C49.8057 36.1472 50.7857 37.4172 52.0257 37.3372C52.5257 37.3072 53.0158 37.0972 53.4958 36.9172C53.5358 36.9172 53.5858 36.9072 53.6258 36.8972C54.7858 36.8072 55.8258 35.2372 55.7158 33.5772Z" fill="#7AC6FF"/>
</svg>
