<svg width="321" height="151" viewBox="0 0 321 151" fill="none" xmlns="http://www.w3.org/2000/svg">
<path d="M-132.948 140.506C-131.629 145.513 -127.092 149 -121.906 149H310.924C325.342 149 322.593 94.1446 291.946 103.958C283.631 106.618 277.349 113.503 272.186 120.544C269.593 108.943 263.2 98.7942 251.218 95.7094C240.712 93.0046 229.446 96.7376 220.46 102.773C218.247 77.9384 212.949 52.5002 198.442 32.2256C183.934 11.9287 158.474 -2.04222 134.064 3.05436C121.345 5.71442 110.078 13.1358 100.466 21.876C75.6095 44.4753 60.0067 76.9772 57.9726 110.507C56.5196 100.538 47.2653 92.7811 37.2956 91.3281C27.326 89.8751 17.1105 93.854 9.35382 100.292C17.8928 77.6925 6.49262 49.4825 -15.3467 39.1775C-36.8954 28.9844 -64.0549 36.5398 -80.9764 53.3273C-93.472 65.7334 -101.34 84.6891 -95.3273 101.231C-104.202 93.407 -119.223 95.8659 -127.159 104.651C-135.072 113.458 -136.569 126.669 -133.552 138.114L-132.926 140.506H-132.948Z" fill="white" stroke="black" stroke-width="2.13" stroke-linecap="round" stroke-linejoin="round"/>
<g style="mix-blend-mode:multiply" opacity="0.3">
<path d="M317.429 142.943C314.59 143.256 311.751 143.479 308.912 143.479C294.829 143.502 278.377 139.791 267.514 130.336C258.483 132.683 249.005 134.024 239.818 132.392C230.63 130.76 221.734 125.843 216.861 117.885C204.544 124.524 191.646 127.877 178.301 131.878C163.391 136.349 147.99 139.098 132.454 140.126C117.41 141.11 102.322 139.97 87.479 137.355C82.0024 136.393 76.4363 135.164 71.3621 133.219C69.6185 132.549 55.6476 126.088 55.5359 126.178C47.9804 132.571 37.4296 134.404 27.8176 133.063C23.101 132.414 18.4962 130.894 14.3385 128.547C13.3102 127.966 2.98294 120.031 3.72061 119.472C-20.4882 137.422 -55.1807 139.948 -81.7366 125.708C-94.9252 133.979 -132.345 130.738 -131.808 111.179C-132.211 116.007 -134.804 133.465 -133.574 138.115C-133.574 138.159 -133.574 138.182 -133.552 138.226C-131.831 144.687 -125.751 149.001 -119.067 149.001H315.864C316.311 146.944 316.825 144.932 317.451 142.943H317.429Z" fill="#7AC6FF"/>
</g>
<path opacity="0.3" d="M109.273 57.2846C103.551 53.9762 96.4648 55.7198 93.0671 61.9341C91.6811 64.46 90.8987 67.2542 90.0046 69.9813C89.8928 70.2272 89.7811 70.4507 89.647 70.6966C86.3834 76.4862 88.3281 85.2263 93.8941 88.4452C99.6837 91.7983 106.613 89.9653 110.1 83.7957C111.509 81.2921 112.291 78.4533 113.185 75.7038C113.297 75.4802 113.409 75.2567 113.52 75.0332C116.717 69.2213 114.884 60.5258 109.273 57.2846V57.2846Z" fill="#7AC6FF"/>
<path opacity="0.3" d="M122.485 94.1885C122.105 90.7238 120.138 87.9967 117.813 88.0637C116.874 88.1084 115.98 88.4661 115.086 88.779C114.997 88.779 114.907 88.779 114.818 88.779C112.627 88.8237 110.817 91.9756 111.174 95.3286C111.554 98.8157 113.521 101.476 115.846 101.453C116.785 101.453 117.679 101.051 118.596 100.738C118.685 100.738 118.752 100.738 118.841 100.738C121.032 100.649 122.865 97.5639 122.485 94.1885Z" fill="#7AC6FF"/>
</svg>
