<svg xmlns="http://www.w3.org/2000/svg" xmlns:xlink="http://www.w3.org/1999/xlink" width="1081" height="950" fill="none" xmlns:v="https://vecta.io/nano"><style><![CDATA[.B{stroke-linejoin:round}.C{stroke-width:1.59}.D{stroke:#000}.E{fill:#a7a7a8}.F{opacity:.2}.G{fill-rule:evenodd}.H{fill:#ffc404}.I{fill:#fff}.J{stroke-linecap:round}.K{opacity:.3}.L{fill:#bec6de}.M{opacity:.35}.N{fill:#474757}.O{stroke-miterlimit:10}.P{fill:#bac2d6}.Q{fill:#ffd491}.R{opacity:.4}.S{fill:#000}.T{fill:#ffa487}.U{opacity:.7}.V{fill:#c954ff}.W{fill:#efa500}.X{opacity:.47}.Y{fill:#7d59e0}.Z{fill:#9696a8}.a{fill:#aba7b5}.b{fill:#565761}]]></style><g class="G"><path d="M763.459 571.997l34.46-147.013S820.237 380.969 826 374.49s82.603-54.02 91.013-55.455 29.312 3.239 31.466 5.044 10.809 96.354 10.809 100.905-24.265 147.607-24.265 147.607l-171.564-.594z" fill="url(#A)"/><path d="M947.043 420.248c2.153-5.761 1.087-91.434 1.436-96.129-2.052-1.763-22.195-6.273-30.912-5.105l-.554.123c-.492 0-1.005.287-1.518.41-11.569 4.326-65.208 37.21-83.608 50.31-2.051 1.578-3.938 3.157-5.866 4.715 0 0-10.81 29.173-10.81 36.717s11.651 28.702 15.364 30.977 58.828 7.709 75.402 3.424 38.912-19.681 41.066-25.442z" fill="#8684e0"/><path opacity=".51" d="M797.919 425.025l17.292-10.886s2.502 10.66 13.025 25.687c3.651 5.208-49.004 64.865-49.004 64.865l18.687-79.666z" class="Y"/></g><g style="mix-blend-mode:multiply" opacity=".74" class="G"><path d="M905.978 445.691c-5.025 7.995-16.41 126.86-16.41 126.86h45.373l24.266-147.607-12.307-4.777c-11.115 12.008-25.245 20.822-40.922 25.524z" fill="#b19fcc"/></g><path d="M878.326 447.084l21.538 32.228c9.067-13.246 17.288-27.05 24.615-41.33a114.93 114.93 0 0 1-46.153 9.102z" class="G Y"/><g style="mix-blend-mode:color-dodge" opacity=".58" class="G"><path d="M914.348 385.601s-2.544-40.469 6.153-66.792l-3.548.287-8.862 44.59a123.94 123.94 0 0 0-14.174 3.137l.329.307-24.123-21.998-10.666 6.602c15.569 2.48 49.886 32.289 70.746 52.134l-5.722 34.113 2.994-1.701s-1.395-16.626 4.698-30.608l14.871 14.576.451-2.747c-4.513-5.064-18.379-18.205-33.147-31.9zm-6.544-20.152l-2.379 11.911-10.256-9.471c3.302-1.969 8.82-2.358 12.635-2.44z" fill="#6d6ad1"/></g><g class="G"><path d="M833.938 572.55l25.209-42.499 10.974-8.569s75.649-12.772 82.602-11.829 34.584 62.897 34.584 62.897H833.938z" fill="url(#B)"/><path d="M870.123 521.482c4.102 5.494 12.02 22.408 19.446 25.38 12.307 4.941 44.675-6.745 51.382-13.94s11.774-23.269 11.774-23.269-53.885 6.191-82.602 11.829z" fill="#8684e0"/><path opacity=".51" d="M889.648 546.861l-7.794 25.688h-47.916l25.209-42.499 10.974-8.569s12.635 15.314 19.527 25.38z" class="Y"/></g><g style="mix-blend-mode:multiply" opacity=".74" class="G"><path d="M909.793 572.549l28.02-13.92 4.594-27.266s6.154-6.622 10.256-21.752c0 0 2.339-.512 10.954 14.741 5.189 9.164 12.43 24.17 23.63 48.156l-77.454.041z" fill="#b19fcc"/></g><path d="M1152 572.548l-32.61 75.157-70.16 35.077-125.387 235.516-141.595 31.304-35.137-37.578-22.543-71.405-99.012-27.553-50.132 30.075-323.394-52.626-17.559-15.027-12.512-43.852-95.3-31.305-57.639 36.328-76.346-36.307-29.148-68.617-35.342-25.647L-96 572.548h1248z" fill="url(#C)" class="G"/><g style="mix-blend-mode:multiply" class="M E G"><path d="M445.049 761.099l130.375 82.044-323.395-52.626 1.17-1.394 47.075-56.849 91.197 13.162 53.578 15.663z"/></g><g style="mix-blend-mode:multiply" opacity=".6" class="G Z"><path d="M126.679 700.331L97.224 688.42 61.492 572.548l-23.548 84.629-53.557 23.658 8.287 19.517 76.346 36.307 57.659-36.328z"/></g><g style="mix-blend-mode:multiply" opacity=".66" class="G N"><path d="M55.545 572.548L76.98 686.78l-7.959 49.879 57.64-36.328-29.435-11.911-35.732-115.872h-5.949z"/></g><g style="mix-blend-mode:multiply" class="M E G"><path d="M221.938 731.636l-6.892-32.555-36.983-38.214-51.383 13.141-29.455 14.412 29.906 12.055 94.807 31.161z"/></g><g style="mix-blend-mode:multiply" opacity=".81" class="G Z"><path d="M933.259 635.815l1.272 7.503 84.019 50.617-56.369 95.104-77.085 60.068-43.014-49.858-32.388 61.195-62.583 51.581 35.138 37.578 141.595-31.305 125.366-235.515 70.2-35.077-186.151-11.891z"/></g><g style="mix-blend-mode:multiply" opacity=".6" class="G Z"><path d="M885.096 849.107l-43.014-49.859 32.594-116.466-51.711-110.234-36.635 96.478-188.978 34.114-40.43 33.519-111.873 24.437-53.578-15.663-36.675-70.154-17.538-14.412-28.84-88.319H199.375l.636 46.353-21.948 41.966-51.383 13.141-29.455 14.412 29.435 11.911 95.278 31.305 12.533 43.852 17.559 15.027 323.394 52.626 50.132-30.075 99.012 27.553 22.543 71.405 35.137 37.578 141.596-31.304-129.247-24.397 90.499-44.794z"/></g><g style="mix-blend-mode:multiply" opacity=".33" class="G N"><path d="M391.47 745.434l-36.675-70.155-17.538-14.412-36.984 71.405 91.197 13.162z"/></g><g style="mix-blend-mode:multiply" class="M E G"><path d="M76.979 731.637l-20.492-21.915-18.543-52.544-45.27 43.175L69.02 736.66l7.959-5.023z"/></g><path d="M-96 572.549l1248-.001-323.6 11.563-5.456-11.563s-211.418 21.301-330.43 21.301c-202.639 0-427.042-10.476-427.042-10.476l-4.841-10.825h-13.62l-17.23 8.631-114.171 7.463L-96 572.549z" fill="#ded8e8" class="G"/><g style="mix-blend-mode:multiply" class="M E G"><path d="M874.676 682.782l-51.712-110.234-48.88 128.706-34.789 34.769-39.793 28.825-104.817-59.494-37.763 31.305-14.092 3.075 82.726 73.332 99.012 27.553 2.974-27.553 3.877-26.098 143.257-104.186z"/></g><g style="mix-blend-mode:multiply" opacity=".33" class="G N"><path d="M699.501 764.85l31.917 22.121-6.851 53.651-99.012-27.553 73.946-48.219z"/></g><g class="G"><path d="M147.15 668.781l38.891-23.187-3.835 19.558-35.056 3.629z" fill="#5b5b6b"/><path d="M384.086 572.551s71.054-59.453 79.997-63.697 45.435 0 45.435 0l7.323 30.915s1.558-93.033 4.697-103.489 103.894-64.209 115.893-64.742 89.331 46.989 111.012 67.879 85.392 109.106 88.018 111.73 3.651 21.404 3.651 21.404H384.086z" fill="url(#D)"/></g><g style="mix-blend-mode:multiply" class="M E G"><path d="M836.462 551.146s-120.817 7.257-134.929 5.166-120.14-37.947-120.14-37.947l-24.922 54.184h283.642l-3.651-21.403z"/></g><g style="mix-blend-mode:multiply" class="M E G"><path d="M509.457 508.852s-3.754 17.406-11.057 26.262c0 0-10.071 19.087-46.398 29.604v7.831h62.152l2.625-32.802-7.322-30.895z"/></g><g style="mix-blend-mode:multiply" class="M E G"><path d="M690.189 571.504l2.626-13.059 143.647-7.299 3.651 21.403-149.924-1.045z"/></g><g class="G"><path d="M836.463 551.147s-124.468 8.877-143.585 3.383-98.992-25.442-130.211-60.293-40.799-59.453-38.256-61.503 95.32-60.089 113.084-61.134 103.402 59.74 110.95 67.817 88.018 111.73 88.018 111.73zm-432.85 5.165s35.138 9.82 52.183 5.535 44.306-12.977 53.66-52.995c0 0-36.286-3.957-43.876 0s-61.967 47.46-61.967 47.46z" style="mix-blend-mode:soft-light" class="a"/><path d="M567.035 498.746l9.887 26.261s14.461 10.066 54.993 10.251l-64.88-36.512zm109.822 51.314l15.959 8.385 28.984-.779a210.21 210.21 0 0 1-44.943-7.606z" class="b"/><path d="M438.525 562.729l13.477 2.05 10.687-3.423 12.451-5.946s-22.4 6.725-36.615 7.319z" fill="#797a7c"/></g><g style="mix-blend-mode:color-dodge" opacity=".45" class="G"><path d="M870.123 521.113s76.244-5.945 75.505-2.235-11.692 18.779-10.543 18.246c2.585-1.168 8.656-4.776 13.189-15.642s4.451-11.829 4.451-11.829-10.071.328-39.198 4.797l-43.404 6.663z" fill="#f2f2f2"/></g><g style="mix-blend-mode:color-dodge" opacity=".45" class="G"><path d="M878.471 531.834s12.861 11.993 15.712 12.301 19.22 1.517 19.22 1.517-18.461 4.572-22.769 1.742-12.163-15.56-12.163-15.56z" fill="#f2f2f2"/></g><g style="mix-blend-mode:color-dodge" opacity=".46" class="G a"><path d="M530.051 428.92s79.751-39.526 94.827-39.28 110.417 45.102 116.55 52.441 38.563 37.066 43.076 40.326-33.681-40.531-33.681-40.531 10.543 8.59-3.959-3.977-103.114-65.828-109.432-66.361-107.381 57.382-107.381 57.382z"/></g><g style="mix-blend-mode:color-dodge" opacity=".46" class="G a"><path d="M436.885 532.859s24.614-19.927 35.814-20.214l36.101-1.148s-11.815-6.335-33.024-4.694-38.891 26.056-38.891 26.056z"/></g><path d="M83.85 645.041l16.143-2.481a1.13 1.13 0 0 1 .704.175c.209.134.369.333.453.567s.089.489.013.725-.228.442-.432.584l-14.358 8.507-2.503-8.097m309.036 167.924l3.344-7.831a.62.62 0 0 1 .283-.326c.131-.07.283-.091.428-.059a.61.61 0 0 1 .361.236.62.62 0 0 1 .118.416l-.164 8.979-5.354-.779" class="b"/><g style="mix-blend-mode:multiply" opacity=".52" class="N"><path d="M940.581 885.191l-5.969-5.987c-.091-.102-.145-.233-.154-.37a.62.62 0 0 1 .107-.387c.078-.113.192-.197.323-.238a.62.62 0 0 1 .401.011l8.205 3.485-2.728 4.613"/></g><g style="mix-blend-mode:multiply" opacity=".52" class="N"><path d="M945.606 875.371l-8.718-8.529c-.15-.141-.246-.331-.27-.536a.88.88 0 0 1 .614-.947c.197-.062.409-.052.6.028l11.938 4.879-3.754 6.745"/></g><path d="M804.976 509.426l-12.799 8.734c-.213.158-.475.235-.739.217a1.11 1.11 0 0 1-1.028-1.014c-.022-.264.052-.527.208-.741l9.087-13.612 5.271 6.416zm6.338 8.817l-8.677 5.883a.75.75 0 0 1-.502.128c-.177-.017-.342-.096-.467-.223a.76.76 0 0 1-.214-.471c-.015-.178.034-.354.137-.5l6.154-9.205 3.179 5.208" class="b"/><g style="mix-blend-mode:multiply" opacity=".33" class="N"><path d="M79.461 629.582l8.431-.43c.636 0 .882 1.23.328 1.578l-7.384 4.511-1.785-5.741"/></g><g style="mix-blend-mode:multiply" class="F E"><path d="M658.334 611.932c.615.656.636 1.558 0 1.763-3.898 1.209-11.508 2.234-11.918 0s-3.466-3.67-2.502-4.982 5.087-4.797 6.625-4.1c4.636 1.988 3.282 2.665 7.795 7.319z"/></g><g style="mix-blend-mode:multiply" class="F E"><path d="M825.179 681.142c-.266-.641-.574-1.264-.923-1.865l-.389-.861a5.63 5.63 0 0 0-.718-.964c-.569-.604-1.272-1.068-2.052-1.353-.837-.285-1.735-.349-2.605-.184a2.05 2.05 0 0 0-1.23.963v.123a2.02 2.02 0 0 0-.308.41 5.05 5.05 0 0 1-.205.492c-.082.372-.082.756 0 1.128a11.37 11.37 0 0 0 1.333 4.1 5.77 5.77 0 0 0 1.723 1.927c.712.497 1.576.73 2.441.656a3.53 3.53 0 0 0 1.559-.471 3.9 3.9 0 0 0 1.169-1.148 3.39 3.39 0 0 0 .205-2.953z"/></g><g style="mix-blend-mode:multiply" class="F E"><path d="M914.798 737.707c-1.743 2.829.862 18.143 10.072 13.12s14.009-16.851 7.035-18.696-14.153.758-17.107 5.576z"/></g><g style="mix-blend-mode:multiply" class="F E"><path d="M794.227 814.257c-.246-.533-.554-1.005-.821-1.558l-.451-.964c-.233-.397-.508-.768-.82-1.107-.673-.703-1.502-1.237-2.421-1.558a5.95 5.95 0 0 0-2.995-.205c-.59.177-1.089.573-1.395 1.107v.123c-.132.145-.249.303-.348.472 0 .184-.144.389-.226.574-.122.422-.122.87 0 1.291a12.71 12.71 0 0 0 1.518 4.552c.466.87 1.134 1.615 1.949 2.173.651.483 1.432.763 2.242.803a4.1 4.1 0 0 0 3.986-2.872c.267-.939.19-1.943-.218-2.831z"/></g><g style="mix-blend-mode:multiply" class="F E"><path d="M633.228 619.763l-1.621-.656-.984-.451c-.434-.144-.881-.247-1.334-.308-.974-.1-1.959.033-2.871.39a5.72 5.72 0 0 0-2.38 1.783 2.28 2.28 0 0 0-.351.836 2.27 2.27 0 0 0 .003.907v.123a2.81 2.81 0 0 0 0 .594c0 .185.123.39.205.595a2.33 2.33 0 0 0 .82.963c1.202 1.08 2.592 1.928 4.103 2.502a6.32 6.32 0 0 0 2.892.389c.992-.089 1.922-.525 2.625-1.23a4.19 4.19 0 0 0 .985-1.538 4.1 4.1 0 0 0-.141-2.835c-.384-.899-1.076-1.63-1.951-2.064z"/></g><g style="mix-blend-mode:multiply" class="F E"><path d="M812.689 678.191a10.59 10.59 0 0 0 1.661-4.244c.194-1.025.095-2.084-.287-3.055-.353-.778-.794-1.514-1.313-2.193a9.39 9.39 0 0 0-3.795-3.26c-.391-.17-.796-.307-1.21-.41a5.64 5.64 0 0 0-2.954-.553 5.47 5.47 0 0 0-3.139 1.502c-.855.829-1.416 1.914-1.599 3.09-.248 1.566.042 3.17.821 4.551a38.42 38.42 0 0 0 2.194 3.772c.422.821 1.016 1.541 1.742 2.11a6.4 6.4 0 0 0 2.463 1.191 5.77 5.77 0 0 0 5.416-2.501z"/></g><g style="mix-blend-mode:multiply" class="F E"><path d="M814.35 698.181c.221-.59.406-1.192.554-1.804 0-.267.205-.513.287-.8.083-.377.125-.762.123-1.148-.025-.916-.22-1.82-.575-2.665a8.84 8.84 0 0 0-1.682-2.542 2.38 2.38 0 0 0-1.456-.677h-.102a1.96 1.96 0 0 0-.472 0h-.472c-.299.09-.555.288-.718.554a7.71 7.71 0 0 0-1.641 3.239 5.86 5.86 0 0 0 0 2.542c.198.97.628 1.877 1.251 2.645a5.78 5.78 0 0 0 1.354 1.209 4.11 4.11 0 0 0 1.539.534 2.06 2.06 0 0 0 1.17-.238c.358-.194.65-.489.84-.849z"/></g><g style="mix-blend-mode:multiply" class="F E"><path d="M715.708 440.134a25.41 25.41 0 0 0-2.852-1.537l-1.292-.738c-.572-.259-1.171-.459-1.784-.595a8.52 8.52 0 0 0-3.939.185c-1.312.376-2.505 1.081-3.466 2.05a3.14 3.14 0 0 0-.59 1.107c-.12.406-.156.831-.108 1.25-.007.055-.007.11 0 .164-.03.266-.03.534 0 .8 0 .287.144.553.205.84a3.44 3.44 0 0 0 1.006 1.415 17.4 17.4 0 0 0 5.292 3.916 8.96 8.96 0 0 0 4 .984 5.83 5.83 0 0 0 3.733-1.353c.663-.557 1.189-1.258 1.538-2.05.344-.787.499-1.644.452-2.501-.045-.78-.266-1.539-.646-2.22a5.17 5.17 0 0 0-1.549-1.717z"/></g><g style="mix-blend-mode:multiply" class="F E"><path d="M697.123 447.597c-.055-2.4-.636-4.758-1.702-6.909-.67-1.472-1.744-2.723-3.098-3.608-1.153-.679-2.377-1.229-3.651-1.64-2.483-.919-5.165-1.167-7.774-.718-.645.125-1.277.31-1.887.554a9.12 9.12 0 0 0-4.267 2.05c-1.374 1.253-2.303 2.918-2.647 4.745s-.084 3.716.74 5.382a11.01 11.01 0 0 0 5.148 5.064c1.994 1.057 4.049 1.994 6.154 2.809 2.667.984 5.743 1.865 8.369.43 1.443-.807 2.637-1.994 3.451-3.433a9.01 9.01 0 0 0 1.164-4.726z"/></g><g style="mix-blend-mode:multiply" class="F E"><path d="M717.225 471.562a20.05 20.05 0 0 0-.902-2.788l-.369-1.271a8.66 8.66 0 0 0-.882-1.579c-.857-1.15-1.922-2.13-3.139-2.89-1.352-.839-2.847-1.423-4.41-1.722a3.61 3.61 0 0 0-2.461.451h-.124c-.239.068-.467.172-.676.307l-.534.492a2.05 2.05 0 0 0-.431 1.353 12 12 0 0 0 .821 5.597 9.56 9.56 0 0 0 2.215 3.301 9.46 9.46 0 0 0 3.959 2.234 8.99 8.99 0 0 0 2.831.328 6.15 6.15 0 0 0 2.42-.697 3.13 3.13 0 0 0 1.682-3.116z"/></g><g style="mix-blend-mode:multiply" class="F E"><path d="M944.255 607.586c.856-1.284 1.423-2.739 1.661-4.264.184-1.019.084-2.068-.287-3.034-.353-.785-.794-1.528-1.313-2.214a9.69 9.69 0 0 0-3.795-3.26 12.04 12.04 0 0 0-1.21-.41c-.922-.43-1.94-.613-2.954-.533-1.183.143-2.287.67-3.142 1.499s-1.416 1.916-1.596 3.093c-.258 1.567.032 3.174.82 4.551a32.5 32.5 0 0 0 2.175 3.752c.43.82 1.028 1.541 1.757 2.113s1.569.984 2.468 1.208c1.045.117 2.102-.055 3.057-.496s1.77-1.134 2.359-2.005z"/></g><g style="mix-blend-mode:multiply" class="F E"><path d="M945.894 627.554c.237-.579.429-1.175.574-1.784 0-.266.205-.512.267-.799.083-.377.124-.762.123-1.148a7.11 7.11 0 0 0-.574-2.686c-.393-.936-.957-1.791-1.662-2.522-.387-.395-.905-.635-1.456-.676h-.103a2.06 2.06 0 0 0-.471 0h-.472c-.303.082-.561.281-.718.553-.793.929-1.355 2.032-1.641 3.219-.187.844-.187 1.719 0 2.563a5.76 5.76 0 0 0 1.251 2.624 5.51 5.51 0 0 0 1.354 1.23c.463.279.981.454 1.518.512a2.05 2.05 0 0 0 2.01-1.086z"/></g><g style="mix-blend-mode:multiply" class="F E"><path d="M508.8 646.21c-.317-.76-.68-1.499-1.087-2.215l-.492-1.025a6.65 6.65 0 0 0-.841-1.148 6.5 6.5 0 0 0-2.544-1.64 6.17 6.17 0 0 0-3.097-.205c-.628.179-1.159.599-1.477 1.169v.123a2.19 2.19 0 0 0-.369.492l-.246.594c-.123.436-.123.897 0 1.333.22 1.671.756 3.285 1.579 4.756a6.59 6.59 0 0 0 2.051 2.276 4.43 4.43 0 0 0 2.934.799 4.11 4.11 0 0 0 1.846-.635c.556-.355 1.031-.823 1.394-1.374.296-.491.48-1.041.54-1.612a3.93 3.93 0 0 0-.191-1.688z"/></g><g style="mix-blend-mode:multiply" class="F E"><path d="M491.53 638.029a19.32 19.32 0 0 0 3.016-7.647c.342-1.857.165-3.772-.513-5.535-.642-1.449-1.44-2.823-2.38-4.1a17.3 17.3 0 0 0-6.912-5.904 14.32 14.32 0 0 0-2.174-.759 10.54 10.54 0 0 0-5.375-.984 9.99 9.99 0 0 0-5.694 2.728 9.98 9.98 0 0 0-2.921 5.596 12.95 12.95 0 0 0 1.498 8.2 64.85 64.85 0 0 0 3.979 6.827c1.867 2.706 4.103 5.617 7.651 6.007a10.53 10.53 0 0 0 5.523-.862 10.51 10.51 0 0 0 4.302-3.567z"/></g><g style="mix-blend-mode:multiply" class="F E"><path d="M496.615 674.295a23.7 23.7 0 0 0 1.026-3.239c.164-.492.369-.943.492-1.476.156-.672.239-1.36.246-2.05-.056-1.669-.41-3.314-1.046-4.859-.738-1.701-1.765-3.261-3.035-4.612a4.27 4.27 0 0 0-2.667-1.21h-.185c-.272-.086-.555-.134-.841-.144h-.841a2.21 2.21 0 0 0-1.312 1.005c-1.451 1.688-2.478 3.698-2.995 5.863a10.94 10.94 0 0 0-.103 4.634c.358 1.75 1.132 3.388 2.257 4.776a10.81 10.81 0 0 0 2.461 2.214c.853.511 1.803.839 2.79.964a3.65 3.65 0 0 0 2.171-.341c.672-.334 1.224-.866 1.582-1.525z"/></g><g style="mix-blend-mode:multiply" class="F E"><path d="M762.617 836.295c-.394.122-.757.327-1.064.601a2.87 2.87 0 0 0-.718.989c-.165.377-.247.786-.241 1.198a2.88 2.88 0 0 0 .279 1.189c1.805 3.711 4.103 6.15 8.574 6.273 5.498 0 7.877-7.605 5.354-10.742-1.723-2.173-8.266-.656-12.184.492z"/></g><g style="mix-blend-mode:multiply" class="F E"><path d="M648.591 637.497c-.337.546-.553 1.158-.632 1.795s-.018 1.283.177 1.895a4.46 4.46 0 0 0 .952 1.648 4.45 4.45 0 0 0 1.555 1.099c5.866 2.563 11.179 3.157 16.409-1.189 6.564-5.433 1.662-16.893-4.451-18.061-4.246-.82-10.461 7.523-14.01 12.813z"/></g><g style="mix-blend-mode:multiply" class="F E"><path d="M304.745 668.719c-1.128 1.558-8.02-1.209-9.169-2.788-7.282-9.902-8.205-22.92-3.61-20.501s20.861 12.075 12.779 23.289z"/></g><g style="mix-blend-mode:multiply" class="F E"><path d="M317.36 647.91a2.93 2.93 0 0 0-1.245-.288c-.431-.004-.857.088-1.249.268s-.739.444-1.017.774a2.92 2.92 0 0 0-.591 1.132c-.923 3.977-.595 7.401 3.036 10.251 4.533 3.587 11.507-.697 11.466-4.695.041-2.727-6.4-5.802-10.4-7.442z"/></g><g style="mix-blend-mode:multiply" class="F E"><path d="M594.214 754.497c2.625.451 12.635 2.501 14.194 3.116s1.026 10.455-1.19 10.25-14.973-10.947-15.527-12.526 1.743-.984 2.523-.84z"/></g><g style="mix-blend-mode:multiply" class="F E"><path d="M26.11 640.325a2.05 2.05 0 0 1-.254.857c-.147.264-.35.492-.594.668a2.05 2.05 0 0 1-.822.351c-.297.056-.602.045-.894-.031-8.492-2.194-23.138-7.872-20.697-10.497 2.728-2.952-.574-6.929 3.015-7.441s15.856-.513 17.579 1.537c5.149 6.109 1.805 5.617 2.667 14.556z"/></g><g style="mix-blend-mode:multiply" class="F E"><path d="M-.434 662.836c-.527.794-.882 1.689-1.041 2.629a6.8 6.8 0 0 0 .118 2.824c.964 5.085 2.236 8.529 4.595 8.611 2.954.102 4.246-10.435 2.892-14.74-.944-2.973-4.451-.903-6.564.676z"/></g><g style="mix-blend-mode:multiply" class="F E"><path d="M53.739 654.204a56.84 56.84 0 0 1 7.63 4.285c.841.82.533 14.351-.636 14.084s-8.061-15.006-8.349-17.179 1.005-1.374 1.354-1.19z"/></g><g style="mix-blend-mode:multiply" class="F E"><path d="M433.028 661.913c.411 5.31 1.477 25.708 1.026 29.05s-21.907 7.626-22.707 3.28 15.364-34.852 18.461-36.697 3.097 2.788 3.22 4.367z"/></g><g style="mix-blend-mode:multiply" opacity=".52" class="G N"><path d="M909.815 829.837l-37.661 54.041c-.738 1.127-36.532 17.774-36.532 17.774l-41.024-7.749 90.499-44.795 24.718-19.271z"/></g><path d="M960.99 659.268l57-5.966 101.4-5.596-186.132-11.891v10.127l27.732 13.326zm-774.949-13.674l-38.891 23.187 28.799 13.162 39.097 17.138-32.84-33.929 3.835-19.558zm642.358-61.483l-25.927 122.473-55.075 45.246-43.506 16.052-33.763 57.587-44.573-12.403 73.946-48.218 75.341-65.583 48.122-126.717 5.435 11.563z" class="G N"/><use xlink:href="#E" class="T"/><g class="C D"><use xlink:href="#E" class="O"/><path d="M460.725 556.799l-11.096-1.466" class="B J"/></g><path d="M473.853 522.087c-6.989.149-28.973-.78-39.787-15.813 3.58 12.469 10.945 33.002 12.49 38.446.126.413.371.781.706 1.059a2.25 2.25 0 0 0 1.178.502l23.717 3.364a2.24 2.24 0 0 0 .907-.054 2.23 2.23 0 0 0 .808-.41c.237-.191.432-.428.571-.697a2.13 2.13 0 0 0 .238-.865l1.489-23.209a2.16 2.16 0 0 0-.138-.901c-.109-.288-.278-.55-.497-.769a2.23 2.23 0 0 0-.771-.503c-.29-.112-.6-.163-.911-.15z" class="P"/><path d="M439.154 511.683c1.356 8.622 5.896 17.82 13.187 22.652 6.31 4.181 15.202 5.11 22.756 4.348-.113 2.936-.49 5.909-.49 8.845-.017.301-.098.596-.238.865a2.17 2.17 0 0 1-.571.696 2.22 2.22 0 0 1-.808.411 2.24 2.24 0 0 1-.907.053l-23.717-3.307c-.434-.051-.844-.226-1.179-.503s-.58-.645-.705-1.058c-1.545-5.445-8.911-26.015-12.49-38.447 1.492 2.014 3.225 3.842 5.162 5.445z" class="I R"/><g class="C D O"><use xlink:href="#F" fill="#878787"/><path d="M473.853 522.087c-6.989.149-28.973-.78-39.787-15.813 3.58 12.469 10.945 33.002 12.49 38.446.126.413.371.781.706 1.059a2.25 2.25 0 0 0 1.178.502l23.717 3.364a2.24 2.24 0 0 0 .907-.054 2.23 2.23 0 0 0 .808-.41c.237-.191.432-.428.571-.697a2.13 2.13 0 0 0 .238-.865l1.489-23.209a2.16 2.16 0 0 0-.138-.901c-.109-.288-.278-.55-.497-.769a2.23 2.23 0 0 0-.771-.503c-.29-.112-.6-.163-.911-.15h0z"/><use xlink:href="#E"/></g><path d="M504.427 461.288c.546.082 1.041.361 1.389.784a2.17 2.17 0 0 1 .495 1.501l-7.215 101.255a3.1 3.1 0 0 1-.905 2.115c-.564.566-1.324.899-2.128.932H462.55c-.451-.047-.883-.209-1.251-.469a2.59 2.59 0 0 1-.853-1.019c-.19-.406-.27-.855-.231-1.301s.194-.874.451-1.243c.174-.266.414-.483.697-.632l12.434-7.043c.428-.242.763-.619.951-1.07a2.17 2.17 0 0 0 .085-1.42l-34.079-107.182a2.16 2.16 0 0 1-.021-1.071c.083-.354.253-.681.496-.954a2.22 2.22 0 0 1 .894-.608c.345-.126.716-.167 1.08-.117l61.224 17.542z" class="T"/><g class="C D"><use xlink:href="#G" class="O"/><path d="M486.344 556.799l-11.096-1.466" class="B J"/></g><path d="M499.456 522.087c-6.989.149-28.973-.78-39.786-15.813 3.579 12.469 10.945 33.002 12.508 38.446.122.416.365.786.701 1.064s.748.451 1.183.497l23.699 3.364a2.24 2.24 0 0 0 .907-.054 2.22 2.22 0 0 0 .807-.41c.238-.191.433-.428.572-.697s.22-.563.238-.865l1.488-23.209a2.15 2.15 0 0 0-.131-.905 2.17 2.17 0 0 0-.496-.772c-.22-.219-.484-.39-.775-.502s-.603-.16-.915-.144z" class="P"/><path d="M464.755 511.683c1.357 8.622 5.897 17.82 13.187 22.652 6.311 4.181 15.203 5.11 22.775 4.348-.131 2.936-.508 5.909-.508 8.845-.018.301-.099.596-.238.865s-.334.506-.572.696-.512.331-.808.411a2.24 2.24 0 0 1-.907.053l-23.698-3.307c-.436-.046-.848-.219-1.183-.497a2.17 2.17 0 0 1-.701-1.064c-1.563-5.445-8.929-26.015-12.508-38.447 1.492 2.014 3.225 3.842 5.161 5.445z" class="I R"/><g class="C D"><g class="O"><use xlink:href="#F" x="25.623" fill="#878787"/><path d="M499.456 522.087c-6.989.149-28.973-.78-39.786-15.813 3.579 12.469 10.945 33.002 12.508 38.446.122.416.365.786.701 1.064s.748.451 1.183.497l23.699 3.364a2.24 2.24 0 0 0 .907-.054 2.22 2.22 0 0 0 .807-.41c.238-.191.433-.428.572-.697s.22-.563.238-.865l1.488-23.209a2.15 2.15 0 0 0-.131-.905 2.17 2.17 0 0 0-.496-.772c-.22-.219-.484-.39-.775-.502s-.603-.16-.915-.144h0z"/><use xlink:href="#G"/></g><path d="M279.424 343.421l15.448-.985c29.745-1.858 55.873-17.969 68.533-52.198.207-.538.414-1.077.659-1.598.528-1.152.961-1.969.961-1.969 3.447-6.244 7.648-11.466 15.409-13.008 4.833-1.025 9.863-.653 14.487 1.073s8.643 4.731 11.577 8.655 4.658 8.601 4.963 13.468-.82 9.717-3.24 13.968c-.151.372-18.424 39.023-55.158 52.514-49.677 18.117-74.901.204-74.901.204l1.262-20.124z" class="B T"/></g><g style="mix-blend-mode:color-dodge" class="K Q"><path d="M399.159 286.746c-2.787 3.44-4.588 7.552-5.219 11.911-1.676 10.926-3.334 13.472-9.852 22.392-4.691 6.466-13.187 14.327-20.722 17.114-11.962 4.441-34.191 4.478-40.69-1.487 9.193-5.574 17.105-10.61 23.924-18.062 7.799-8.529 12.848-18.47 17.086-29.081.113-.297 1.018-2.285 1.357-2.861 3.353-6.058 7.403-11.15 14.731-12.896a26.03 26.03 0 0 1 13.028.236 25.77 25.77 0 0 1 11.236 6.509c-1.963 1.796-3.611 3.899-4.879 6.225z"/></g><g style="mix-blend-mode:multiply" class="U"><path d="M370.394 354.366a82.19 82.19 0 0 1-17.331 8.845c-49.677 18.118-74.901.205-74.901.205l1.187-18.973c2.411 7.916 50.26 32.798 91.045 9.923z" fill="#ffa66b"/></g><path d="M639.23 191.54c7.683-63.092-57.635-122.717-145.892-133.175s-166.033 32.211-173.717 95.303 57.635 122.718 145.892 133.176 166.033-32.211 173.717-95.304z" class="B C D T"/><g style="mix-blend-mode:color-dodge" class="K Q"><path d="M320.737 143.941c8.609-32.519 34.21-57.084 75.221-74.942a23.33 23.33 0 0 0 6.612-1.858c4.012-1.245 6.951-2.657 10.474-2.732-37.94 18.842-64.86 48.667-73.375 81.112-9.136 34.562 1.62 74.087 29.915 104.896-4.182-3.345-8.213-7.061-12.15-10.778-5.105-4.645-9.909-8.845-14.751-13.769-1.18-1.15-2.264-2.393-3.24-3.716a73.19 73.19 0 0 0-4.653-7.043c-13.789-22.522-20.514-46.623-14.053-71.17z"/></g><path d="M382.319 75.298c-31.761 15.683-54.612 40.175-61.356 70.389-13.865 62.214 45.833 124.668 133.336 139.534a224.07 224.07 0 0 0 38.016 3.196" class="B C D J"/><g opacity=".6" class="V"><g style="mix-blend-mode:darken" class="K"><path d="M505.58 187.015a4.59 4.59 0 0 1 3.364-.418 4.53 4.53 0 0 1 2.72 1.998c.468.873.853 1.788 1.149 2.731a1.95 1.95 0 0 0 .132.242c.582 1.006.743 2.197.447 3.318a4.45 4.45 0 0 1-2.029 2.683c-1.028.564-2.236.714-3.374.42s-2.115-1.011-2.73-1.999a14.2 14.2 0 0 1-1.149-2.75l-.132-.223c-.585-1.008-.745-2.202-.446-3.324a4.43 4.43 0 0 1 2.048-2.678z"/></g><g style="mix-blend-mode:darken" class="K"><path d="M498.89 200.486c.151-1.338.924-2.397 1.884-2.36.366.03.724.124 1.055.279h.113c.848 0 1.583 1.245 1.432 2.546s-.923 2.378-1.884 2.378a4.58 4.58 0 0 1-1.074-.279h-.094c-.81-.037-1.545-1.245-1.432-2.564z"/></g><g style="mix-blend-mode:darken" class="K"><path d="M517.012 197.998c0-.669.471-1.208.923-1.19.187.03.37.08.546.149.433 0 .791.632.716 1.282s-.452 1.208-.923 1.189c-.188-.016-.372-.06-.547-.13-.414-.018-.791-.539-.715-1.3z"/></g><g style="mix-blend-mode:darken" class="K"><path d="M517.163 205.672c-.64-.911-.753-1.988-.169-2.453a4.23 4.23 0 0 1 .829-.409c.546-.446 1.657 0 2.279.818s.754 1.988.17 2.452a2.85 2.85 0 0 1-.829.409c-.547.446-1.715.093-2.28-.817z"/></g></g><g style="mix-blend-mode:color-dodge" class="K Q"><path d="M338.559 134.036c.649.656 1.013 1.536 1.013 2.453s-.364 1.796-1.013 2.452c-.578.527-1.209.994-1.883 1.394l-.151.149a3.57 3.57 0 0 1-2.487 1.005c-.93 0-1.824-.361-2.486-1.005-.645-.659-1.005-1.538-1.005-2.453s.36-1.794 1.005-2.453c.574-.536 1.206-1.01 1.884-1.412l.15-.13a3.57 3.57 0 0 1 2.487-1.006c.931 0 1.824.362 2.486 1.006z"/></g><g style="mix-blend-mode:color-dodge" class="K Q"><path d="M326.802 131.584c1.074-.149 2.054.242 2.204.948.038.283.038.571 0 .854.151.651-.678 1.431-1.714 1.58s-2.034-.242-2.204-.929c-.047-.29-.047-.584 0-.874-.132-.65.659-1.43 1.714-1.579z"/></g><g style="mix-blend-mode:color-dodge" class="K Q"><path d="M332.209 144.87c.546 0 1.036.111 1.111.464a1.85 1.85 0 0 1 0 .446c0 .334-.339.724-.866.779s-1.018-.111-1.093-.464c-.028-.141-.028-.286 0-.427-.132-.39.32-.798.848-.798z"/></g><g style="mix-blend-mode:color-dodge" class="K Q"><path d="M326.256 146.394c.602-.669 1.412-.948 1.883-.595.187.152.347.335.471.539.453.316.377 1.245-.188 1.858s-1.413.929-1.884.595c-.181-.165-.339-.352-.471-.558-.49-.278-.377-1.189.189-1.839z"/></g><use xlink:href="#H" class="T"/><use xlink:href="#H" class="B C D J"/><path d="M598.205 199.205c-.606-5.543-3.418-10.623-7.818-14.122 5.04.318 9.806 2.377 13.461 5.816s5.965 8.037 6.526 12.989c1.319 11.614-7.535 21.053-19.365 22.298-2.703.435-5.468.316-8.122-.349a20.05 20.05 0 0 1-7.307-3.516c3.159.481 6.389.205 9.418-.804s5.766-2.722 7.983-4.994 3.846-5.036 4.752-8.06 1.061-6.218.453-9.314l.019.056z" fill="#ef8c87"/><g class="C D B"><g class="J"><path d="M601.086 205.077c-3.446-.853-7.046-.899-10.514-.135a22.91 22.91 0 0 0-9.454 4.538h-.095"/><use xlink:href="#H"/></g><path d="M337.446 331.992l13.187 28.71c.304.66.464 1.376.469 2.101s-.145 1.444-.44 2.108-.728 1.26-1.272 1.748-1.186.858-1.884 1.085a103.4 103.4 0 0 1-70.549-2.843l.772-23.841s24.735 4.516 52.427-11.354c.623-.357 1.315-.582 2.031-.659a5.23 5.23 0 0 1 2.128.208 5.17 5.17 0 0 1 1.859 1.042c.54.471.973 1.048 1.272 1.695z" class="P"/></g><g style="mix-blend-mode:color-dodge" class="K I"><path d="M333.679 341.506c-4.351.725-7.968 1.153-12.64 1.524s-9.137.539-13.714.576a229.26 229.26 0 0 1-28.258-1.654l-1.299-.167v-.724s24.734 4.515 52.426-11.354a5.2 5.2 0 0 1 2.04-.675c.72-.081 1.45-.012 2.141.204a5.18 5.18 0 0 1 1.871 1.048c.543.474.977 1.057 1.276 1.708l3.768 8.065c-2.524.558-5.105 1.022-7.611 1.449z"/></g><g style="mix-blend-mode:color-dodge" class="K Q"><path d="M277.316 353.585l1.394.166-1.394-.166z"/></g><path d="M277.69 341.061a56.26 56.26 0 0 0 9.834.576l6.744 5.928c9.419 7.433 20.194 13.602 32.251 15.349 5.198.804 10.481.923 15.711.353 2.936-.287 5.822-.943 8.59-1.951a5.1 5.1 0 0 1-.346 3.89 5.22 5.22 0 0 1-3.007 2.539 103.4 103.4 0 0 1-70.549-2.843l.772-23.841z" style="mix-blend-mode:multiply" class="P"/><path d="M328.027 348.437l-6.781 11.15c-.727 1.21-1.741 2.228-2.955 2.966s-2.592 1.174-4.015 1.27l-54.631 3.085c-1.23.064-2.461-.12-3.617-.539l-22.436-8.343c-1.526-.574-2.862-1.553-3.86-2.828s-1.617-2.799-1.792-4.401l-.64-6.02c-.18-1.649.128-3.314.885-4.795l6.97-13.602c.432-.839.718-1.743.848-2.676l2.656-18.192c.175-1.229.618-2.407 1.298-3.453a8.67 8.67 0 0 1 2.639-2.604l24.904-15.907c1.553-.997 3.385-1.485 5.235-1.395a8.87 8.87 0 0 1 5.07 1.897l2.995 2.36c1.096.872 2.388 1.471 3.768 1.747l12.753 2.49c1.388.275 2.689.874 3.793 1.747a8.74 8.74 0 0 1 2.556 3.27l3.07 7.284a8.83 8.83 0 0 0 4.314 4.367l5.972 2.769a8.85 8.85 0 0 1 2.989 2.277 8.71 8.71 0 0 1 1.758 3.297l7.14 26.015c.323 1.128.411 2.309.259 3.472a8.6 8.6 0 0 1-1.145 3.292z" fill="#ceccd4" class="B C D"/><path opacity=".6" d="M312.749 317.126c-3.768-2.936-5.859-7.433-7.648-11.651-1.884-4.664-4.484-9.57-10.004-10.647a14.93 14.93 0 0 0-7.648.892c-1.446.796-3.031 1.319-4.672 1.542-4.069-.353-8.985-6.039-11.642-8.641-1.486-1.495-2.864-3.091-4.125-4.775l.471-.298a8.89 8.89 0 0 1 5.234-1.395c1.851.09 3.625.754 5.07 1.897l2.995 2.36c1.093.873 2.387 1.467 3.768 1.728l12.772 2.509c1.388.275 2.689.874 3.793 1.747a8.74 8.74 0 0 1 2.556 3.27l3.07 7.284a8.83 8.83 0 0 0 4.314 4.367l5.972 2.769a8.84 8.84 0 0 1 2.989 2.277 8.71 8.71 0 0 1 1.758 3.297l2.713 9.867c-3.636-3.121-7.874-5.388-11.736-8.399z" class="I"/><path d="M228.185 339.983l6.97-13.603c.432-.839.718-1.743.848-2.675l2.656-18.192a8.69 8.69 0 0 1 1.884-4.219c.942 3.438 1.884 6.857 2.995 10.258 4.484 14.327 7.253 29.471 15.542 42.293.743 1.212 1.919 2.107 3.296 2.508a6.03 6.03 0 0 0 1.752.446c16.955 1.859 34.173 4.442 51.259 4.516l2.92 1.245c-1.231.743-2.629 1.176-4.069 1.263l-54.593 3.085a9.54 9.54 0 0 1-3.617-.539l-22.436-8.343c-1.526-.574-2.862-1.552-3.86-2.828s-1.617-2.799-1.792-4.401l-.64-6.02a8.5 8.5 0 0 1 .885-4.794z" fill="#aaa7b5"/><path d="M300.675 299.66l-1.827 4.998m7.592-2.712l-4.012 3.548" class="B C D J"/><path d="M268.913 324.02c7.686 0 7.704-11.799 0-11.799s-7.724 11.799 0 11.799z" class="I"/><g class="C D"><path d="M257.402 300.478l1.846 4.998m-7.592-2.713l3.994 3.549" class="B J"/><path d="M252.92 313.262a11.51 11.51 0 0 1 2.432-5.38c1.268-1.556 2.922-2.763 4.802-3.502 1.954-.578 4.029-.637 6.013-.17s3.81 1.442 5.29 2.827c1.804 1.67 3.108 3.798 3.767 6.151a11.35 11.35 0 0 1 .372 5.136c-.27 1.718-.931 3.353-1.933 4.783s-2.32 2.618-3.853 3.475-3.244 1.36-5.003 1.471a11.08 11.08 0 0 1-5.941-1.143c-1.832-.923-3.364-2.337-4.42-4.078-1.721-2.884-2.266-6.305-1.526-9.57z" class="I O"/></g><path d="M264.091 318.649c3.183 0 5.764-2.454 5.764-5.481s-2.581-5.481-5.764-5.481-5.765 2.454-5.765 5.481 2.581 5.481 5.765 5.481z" class="S"/><g class="I"><path d="M261.115 319.914c1.03 0 1.865-.799 1.865-1.784s-.835-1.784-1.865-1.784-1.865.799-1.865 1.784.835 1.784 1.865 1.784zm37.733 3.549c1.987 0 3.598-1.539 3.598-3.437s-1.611-3.438-3.598-3.438-3.598 1.539-3.598 3.438 1.611 3.437 3.598 3.437z"/><path d="M294.61 320.025c1.987 0 3.598-1.539 3.598-3.438s-1.611-3.437-3.598-3.437-3.598 1.539-3.598 3.437 1.611 3.438 3.598 3.438z"/><path d="M305.931 309.433c-2.204-3.716-5.35-6.504-8.967-6.671-1.757-.025-3.474.522-4.884 1.557s-2.435 2.499-2.915 4.167a16.27 16.27 0 0 0-.66 6.819c1.187 7.191 7.253 12.729 13.3 11.001a9.63 9.63 0 0 0 4.161-3.07c1.076-1.379 1.748-3.023 1.943-4.753a14.17 14.17 0 0 0-1.978-9.05z" class="C D O"/></g><path d="M298.991 317.248c2.446-.903 3.556-3.934 2.48-6.769s-3.931-4.4-6.377-3.497-3.556 3.934-2.479 6.769 3.931 4.4 6.376 3.497z" class="S"/><g class="B C D"><path d="M287.035 325.119s-3.015 3.546-8.139 0" class="J"/><path d="M328.027 348.437l-6.781 11.15c-.727 1.21-1.741 2.228-2.955 2.966s-2.593 1.174-4.015 1.27l-54.631 3.085c-1.23.064-2.461-.12-3.617-.539l-22.436-8.343c-1.526-.574-2.862-1.553-3.86-2.828s-1.617-2.799-1.792-4.401l-.64-6.02c-.18-1.649.128-3.314.885-4.795l6.97-13.602c.432-.839.718-1.743.848-2.676l2.656-18.192c.175-1.229.618-2.407 1.298-3.453a8.67 8.67 0 0 1 2.639-2.604l24.904-15.907c1.553-.997 3.385-1.485 5.235-1.395a8.87 8.87 0 0 1 5.07 1.897l2.995 2.36c1.096.872 2.388 1.471 3.768 1.747l12.753 2.49c1.388.275 2.689.874 3.793 1.747a8.74 8.74 0 0 1 2.556 3.27l3.07 7.284a8.83 8.83 0 0 0 4.314 4.367l5.972 2.769a8.85 8.85 0 0 1 2.989 2.277 8.71 8.71 0 0 1 1.758 3.297l7.14 26.015c.323 1.128.411 2.309.259 3.472a8.6 8.6 0 0 1-1.145 3.292h0z"/></g><path d="M260.783 293.857c3.101-.371 5.379-2.582 5.09-4.939s-3.038-3.967-6.138-3.596-5.379 2.582-5.09 4.939 3.038 3.967 6.138 3.596zm41.77-.733c.581-2.31-1.412-4.786-4.451-5.53s-5.975.527-6.556 2.837 1.412 4.787 4.452 5.531 5.974-.527 6.555-2.838z" class="S"/><g class="P"><path d="M261.151 360.183l-1.074 3.214a8.25 8.25 0 0 0-.389 3.527c.127 1.19.512 2.339 1.128 3.369a8.39 8.39 0 0 0 2.443 2.604 8.54 8.54 0 0 0 3.317 1.371l18.273 3.308c2.396.436 4.871.018 6.983-1.181a10.16 10.16 0 0 0 4.546-5.36l1.677-4.609a7.7 7.7 0 0 0 .42-3.552c-.14-1.2-.561-2.352-1.23-3.364s-1.566-1.858-2.622-2.47-2.241-.974-3.463-1.057l-21.363-1.505a8.56 8.56 0 0 0-5.314 1.39c-1.566 1.033-2.738 2.551-3.332 4.315z" class="B C D"/><path d="M278.711 370.142c4.031.353 7.309 1.413 10.831-.947s4.635-8.883 3.561-12.376c5.35 1.858 5.519 5.407 5.35 8.325l-1.281 4.329c-3.071 6.69-5.181 8.901-10.342 7.879l-18.593-3.716a10.6 10.6 0 0 1-5.096-2.594 10.38 10.38 0 0 1-2.967-4.839 75.02 75.02 0 0 0 18.537 3.939z" style="mix-blend-mode:multiply"/></g><path d="M261.151 360.183l-1.074 3.214a8.25 8.25 0 0 0-.389 3.527c.127 1.19.512 2.339 1.128 3.369a8.39 8.39 0 0 0 2.443 2.604 8.54 8.54 0 0 0 3.317 1.371l18.273 3.308c2.396.436 4.871.018 6.983-1.181a10.16 10.16 0 0 0 4.546-5.36l1.677-4.609a7.7 7.7 0 0 0 .42-3.552c-.14-1.2-.561-2.352-1.23-3.364s-1.566-1.858-2.622-2.47-2.241-.974-3.463-1.057l-21.363-1.505a8.56 8.56 0 0 0-5.314 1.39c-1.566 1.033-2.738 2.551-3.332 4.315h0z" class="B C D"/><path d="M397.521 255.1c18.028.167 33.626 12.376 38.58 30.642a59.4 59.4 0 0 1 2.054 20.441c-.358 4.459-2.468 20.719-7.347 22.688-14.725 5.87-31.196 5.803-45.871-.185-8.431-2.824-16.139-7.421-22.592-13.472a60.62 60.62 0 0 1-14.783-21.574c-2.148-5.426 10.399-19.233 13.94-22.689 6.912-6.878 15.521-11.86 24.98-14.457 3.598-.956 7.312-1.425 11.039-1.394z" class="I"/><g style="mix-blend-mode:multiply" class="R L"><path d="M353.835 304.307c9.419 5.574 27.937-45.434 35.208-49.02 2.751-1.357 13.922.669 17.35 1.356a41.38 41.38 0 0 1 18.651 10.469c5.172 5.053 8.896 11.365 10.793 18.296 1.867 6.648 2.561 13.562 2.053 20.441-.357 4.46-2.467 20.738-7.365 22.689-18.838 7.581-37.884 2.768-48.094-1.264-7.045-2.416-20.081-10.294-29.745-23.06.301.037.734-.093 1.149.093z"/></g><path d="M397.521 255.1c18.028.167 33.626 12.376 38.58 30.642a59.4 59.4 0 0 1 2.054 20.441c-.358 4.459-2.468 20.719-7.347 22.688-14.725 5.87-31.196 5.803-45.871-.185-8.431-2.824-16.139-7.421-22.592-13.472a60.62 60.62 0 0 1-14.783-21.574c-2.148-5.426 10.399-19.233 13.94-22.689 6.912-6.878 15.521-11.86 24.98-14.457 3.598-.956 7.312-1.425 11.039-1.394h0z" class="B C D"/><path d="M502.26 485.483l-39.729-1.989a22.8 22.8 0 0 1-11.836-4.267 22.35 22.35 0 0 1-7.681-9.855l-10.266-29.248 4.615 30.883a9.18 9.18 0 0 1-.431 4.074 9.25 9.25 0 0 1-2.166 3.495 9.44 9.44 0 0 1-3.479 2.238c-1.313.481-2.72.666-4.115.543l-4.635-.278c-.501-.03-.983-.204-1.385-.501a2.53 2.53 0 0 1-.875-1.172c-3.768-10.666-25.356-71.894-25.338-78.807 0-7.581 118.229-25.216 130.153 16.427-3.409 27.65-7.196 50.339-9.532 64.034-.237 1.302-.935 2.479-1.97 3.32s-2.34 1.291-3.681 1.27l-8.27-.186" class="I"/><path d="M502.26 485.483l-39.729-1.989a22.8 22.8 0 0 1-11.836-4.267 22.35 22.35 0 0 1-7.681-9.855l-10.266-29.248 4.615 30.883a9.18 9.18 0 0 1-.431 4.074c-.449 1.31-1.189 2.504-2.166 3.496a9.45 9.45 0 0 1-3.479 2.237c-1.313.481-2.72.666-4.115.543l-4.635-.278c-.501-.03-.983-.204-1.385-.501a2.53 2.53 0 0 1-.875-1.172c-3.768-10.666-25.356-71.894-25.338-78.807 0-7.581 118.229-25.216 130.153 16.427-3.409 27.65-7.196 50.339-9.532 64.034-.237 1.302-.935 2.479-1.97 3.32s-2.34 1.291-3.681 1.27l-8.27-.186" class="B C D J"/><g style="mix-blend-mode:multiply" class="R L"><path d="M501.676 485.464l-32.703-1.579c-.697-8.641-2.675-17.17-4.163-25.7-1.3-7.432-2.656-15.237-6.537-21.945-4.052-6.732-10.456-11.773-18.009-14.178-7.931-2.825-16.389-3.847-24.659-5.185a53.42 53.42 0 0 1-13.055-3.326 51.23 51.23 0 0 1-5.218-2.694c-1.12-3.338-1.921-6.773-2.393-10.258 0-7.581 118.229-25.216 130.153 16.427-3.259 26.424-7.384 52.606-9.419 64.09a5.56 5.56 0 0 1-1.986 3.285 5.7 5.7 0 0 1-3.665 1.249l-8.364-.186"/></g><path d="M533.304 397.903c0 3.884-.471 18.917-2.637 19.251-51.861 7.043-133.845 2.156-136.52-8.529-3.127-12.45-3.259-15.312 0-14.159s139.157.185 139.157 3.437z" class="B C D H"/><g style="mix-blend-mode:color-dodge" opacity=".36"><path d="M393.827 394.467c.226.092 0 .092 1.469.223 1.034 6.303 2.571 12.517 4.597 18.582-3.542-1.394-5.651-2.955-6.066-4.664-2.713-12.413-2.826-15.294 0-14.141z" fill="#a7dae8"/></g><g class="I"><path d="M458.8 248.058c19.29.502 44.232 7.433 56.326 17.449 37.808 46.752 23.303 138.251 23.303 138.251s-90.706 12.506-150.027-5.723c-19.761-51.399-52.05-153.266 70.398-149.977z"/><path d="M463.718 239.397c26.015.707 44.722 12.228 58.153 28.859-13.046-10.882-29.54-16.916-46.624-17.059-122.448-3.289-99.07 97.798-79.29 149.196a49.13 49.13 0 0 1-8.213-3.586c-19.988-47.868-53.407-160.884 75.974-157.41z"/><path opacity=".1" d="M536.339 311.311s-154.246 92.353-166.698 21.462c15.899 59.203 4.182 27.52 16.106 60.894 2.072-18.062 76.389-48.946 119.792 6.169 5.425 6.002 4.314 5.891 6.838 5.816 1.564 0 25.771-1.468 25.884-2.341 6.574-58.441-1.922-92-1.922-92z"/></g><path d="M538.26 403.887s-115.082 12.283-150.516-7.08c-19.988-47.868-53.407-160.884 75.974-157.41 57.456 1.543 74.071 53.276 77.236 99.248 1.285 21.782.383 43.635-2.694 65.242h0z" class="B C D"/><g style="mix-blend-mode:multiply" opacity=".16" class="L"><path d="M460.458 388.166c-.358-4.329-.508-8.659-1.074-13.007-.508-3.977-1.205-8.474-3.767-11.67s-7.159-3.475-10.983-3.586c-5.218-.167-10.342-.558-15.541-1.189-20.854-2.472-41.294-7.861-59.114-19.4-7.686-50.376 3.767-102.407 89.481-99.954 19.328.558 41.858 6.207 56.043 22.392 21.25 24.157 23.717 52.903 25.149 80.628 1.036 20.515.21 41.081-2.468 61.451 0 0-28.577 4.59-75.993 4.07l-1.733-19.735z"/></g><g class="I"><path d="M407.205 266.211l2.75 37.536c.547 6.727.773 14.216 3.09 20.961a15.98 15.98 0 0 0 3.579 6.132c2.68 2.314 6.141 3.554 9.702 3.475h.245c34.755 3.669 69.839 3.045 104.438-1.858l18.575-3.252c6.687-1.449 11.811-4.999 11.02-10.48-1.771-12.19-11.058-43.464-25.846-59.891"/><path d="M407.203 264.745c-.584 3.196-4.069 26.869-5.256 33.447l-3.051 17.077c-.641 3.717-.622 7.694-3.523 10.295-1.153 1.019-2.565 1.708-4.086 1.993a8.61 8.61 0 0 1-4.542-.376l-20.1-7.898c-1.483-.638-2.755-1.672-3.674-2.985a8.5 8.5 0 0 1-1.526-4.448c-1.073-11.149 5.275-39.84 22.38-56.917 0 0 24.49-24.621 77.067-22.912s72.564 24.046 78.31 33.448c6.631 10.778-123.427 18.582-125.895 15.609s-5.972-2.62-6.104-8.232 0-8.101 0-8.101z"/></g><g style="mix-blend-mode:multiply" class="R L"><path d="M560.658 318.261s-107.189 8.12-152.306-49.225c-.659-.634-1.122-1.439-1.338-2.322-3.485-36.96 88.54-50.47 128.1-7.192 18.047 20.236 25.544 58.739 25.544 58.739z"/></g><g class="C D B"><path d="M407.277 264.801l.358 6.541 1.055 12.357c.565 6.727.716 13.323 1.262 20.05s.773 14.216 3.09 20.961c.715 2.281 1.938 4.376 3.579 6.132 2.68 2.314 6.141 3.554 9.702 3.475h.245c34.755 3.669 69.839 3.045 104.438-1.858l19.761-3.104c8.233-1.43 10.682-4.924 9.891-10.406-1.752-12.189-10.098-35.937-22.229-55.43m-131.227 1.225c-.584 3.196-4.069 26.87-5.256 33.448l-3.052 17.077c-.64 3.717-.621 7.693-3.522 10.295a8.55 8.55 0 0 1-4.086 1.993 8.6 8.6 0 0 1-4.542-.377l-20.101-7.897a8.67 8.67 0 0 1-3.673-2.986c-.918-1.313-1.447-2.853-1.526-4.447-1.074-11.149 4.879-39.208 20.722-55.04 0 0 21.476-27.186 80.721-24.919 57.344 2.211 75.523 31.385 75.523 31.385M403.529 403.069l1.281 10.944m16.635-7.709l.697 10.739m7.629-9.774l.924 11.074m27.485-10.182l.697 11.613m20.213-11.631l.264 10.683m14.977-11.259l-.095 12.207m22.604-13.732l-.471 12.616" class="J"/><path d="M384.07 363.155c6.481-1.746 7.931-10.35 2.638-15.627 6.706 2.694 12.885-2.788 11.303-9.942 4.351 6.095 12.923 5.854 15.541-.446.358 7.192 8.025 12.264 13.921 9.291-3.767 5.575 0 13.974 6.971 15.368-6.481 1.858-7.931 10.369-2.638 15.627-6.706-2.675-12.885 2.788-11.303 9.942-4.351-6.114-12.923-5.872-15.541.427-.358-7.191-8.025-12.283-13.922-9.291 3.768-5.574 0-13.974-6.97-15.349z" class="H"/></g><g style="mix-blend-mode:multiply" class="R"><path d="M426.249 353.772c-3.579-.465-7.159-.966-10.681-1.654l-15.071-3.159c-2.298-.464-4.596-.966-6.876-1.524 1.777-.893 3.183-2.367 3.98-4.17s.935-3.823.391-5.715c4.351 6.095 12.923 5.853 15.541-.446.358 7.191 8.025 12.264 13.921 9.291-.718 1.075-1.197 2.289-1.405 3.561s-.14 2.572.2 3.816z" fill="#f7764d"/></g><g class="H"><path d="M417.446 375.325c5.722-3.519 6.883-11.873 2.593-18.66s-12.406-9.436-18.128-5.916-6.882 11.873-2.592 18.66 12.406 9.436 18.127 5.916z" stroke-width="1.593" class="B D"/><path d="M416.792 361.984a14.93 14.93 0 0 0-2.048-7.418c-1.32-2.257-3.211-4.138-5.487-5.46a16.68 16.68 0 0 1 8.653 5.16 16.3 16.3 0 0 1 4.025 9.148c.81 7.619-4.276 13.473-11.303 13.008-1.109-.064-2.204-.27-3.259-.613 2.703-1.233 5.011-3.174 6.672-5.612a15.89 15.89 0 0 0 2.747-8.213z" style="mix-blend-mode:overlay"/></g><g class="C D B"><path d="M380.453 257.98c22.581 13.74 47.666 22.994 73.846 27.241a213.49 213.49 0 0 0 93.569-4.404m-123.22-130.912s-10.172 7.005-17.462-4.942" class="J"/><path d="M471.933 184.692c20.391 0 36.922-16.306 36.922-36.421s-16.531-36.421-36.922-36.421-36.923 16.306-36.923 36.421 16.531 36.421 36.923 36.421z" class="I"/><path d="M471.932 172.465c13.546 0 24.527-10.832 24.527-24.194s-10.981-24.194-24.527-24.194-24.528 10.832-24.528 24.194 10.982 24.194 24.528 24.194z" class="S"/><path d="M372.767 153.157c17.833 0 32.289-14.259 32.289-31.849s-14.456-31.85-32.289-31.85-32.288 14.259-32.288 31.85 14.456 31.849 32.288 31.849z" class="I"/><path d="M372.767 142.474c11.85 0 21.457-9.476 21.457-21.165s-9.607-21.165-21.457-21.165-21.456 9.476-21.456 21.165 9.606 21.165 21.456 21.165z" class="S"/></g><path d="M494.708 152.099c5.264 0 9.532-4.01 9.532-8.956s-4.268-8.957-9.532-8.957-9.532 4.01-9.532 8.957 4.267 8.956 9.532 8.956z" class="I"/><g style="mix-blend-mode:multiply" opacity=".36" class="P"><path d="M476.284 134.018c-13.921-5.222-28.502-3.921-39.259 2.341a36.31 36.31 0 0 1 7.649-12.814 36.92 36.92 0 0 1 12.203-8.731 37.35 37.35 0 0 1 14.724-3.191c5.079-.054 10.113.926 14.79 2.879s8.895 4.837 12.391 8.471 6.193 7.94 7.925 12.649a35.96 35.96 0 0 1 2.139 14.72c-.321 5-1.683 9.88-4.003 14.336-2.864-12.988-13.394-24.974-28.559-30.66z"/></g><path d="M492.693 159.01c1.477 0 2.675-.89 2.675-1.988s-1.198-1.988-2.675-1.988-2.675.89-2.675 1.988 1.197 1.988 2.675 1.988zm-101.2-33.149c5.264 0 9.532-4.01 9.532-8.956s-4.268-8.957-9.532-8.957-9.532 4.01-9.532 8.957 4.268 8.956 9.532 8.956z" class="I"/><g style="mix-blend-mode:multiply" opacity=".36" class="P"><path d="M380.209 110.567c5.203 2.855 9.693 6.821 13.141 11.608s5.768 10.275 6.79 16.061c2.372-3.698 3.946-7.838 4.625-12.163a31.43 31.43 0 0 0-.68-12.973c-1.127-4.232-3.125-8.19-5.871-11.628s-6.18-6.279-10.088-8.35a32.64 32.64 0 0 0-12.628-3.686c-4.421-.36-8.87.181-13.07 1.591s-8.06 3.658-11.34 6.604a31.89 31.89 0 0 0-7.727 10.519c10.569-5.166 24.622-4.664 36.848 2.416z"/></g><path d="M389.439 131.399c1.477 0 2.675-.891 2.675-1.989s-1.198-1.988-2.675-1.988-2.675.89-2.675 1.988 1.197 1.989 2.675 1.989zm60.039 31.923c3.028 0 5.482-2.421 5.482-5.407s-2.454-5.407-5.482-5.407-5.482 2.421-5.482 5.407 2.454 5.407 5.482 5.407zm-99.297-30.94c3.028 0 5.482-2.421 5.482-5.407s-2.454-5.407-5.482-5.407-5.482 2.421-5.482 5.407 2.455 5.407 5.482 5.407z" class="I"/><g class="C D B"><path d="M512.245 121.197l-9.382 5.76m3.091-13.342l-7.046 8.398m-134.467-43.5l2.562 10.609m7.29-11.63l-.961 10.869" class="J"/><path d="M412.913 68.182c-5.011.892-10.003 1.858-14.939 2.917-17.595 4.277-34.797 9.995-51.428 17.096l-6.066 2.546a100.8 100.8 0 0 1 3.486-19.771s39.089-28.022 58.153-69.572c0 0 19.46 28.765 18.085 65.576-2.431.353-4.88.781-7.291 1.208z" class="L"/><path d="M412.913 68.182l-2.261.409c.685-16.097-2.289-32.141-8.703-46.957-13.309 21.16-30.046 40.024-49.544 55.84-.509 2.174-1.263 5.277-1.884 9.105l-4.013 1.617-7.742 3.27c-.132-8.38 1.375-14.475 4.559-19.604 15.07-24.157 39.71-28.914 58.775-70.464 0 0 19.459 28.765 18.084 65.576-2.411.353-4.86.781-7.271 1.208z" class="H"/></g><g style="mix-blend-mode:multiply" class="U H"><path d="M412.916 68.182l-2.167.39c.332-15.429-2.667-30.752-8.797-44.95-13.309 21.16-30.046 40.024-49.545 55.84-.414 1.858-.979 4.125-1.488 6.968l-4.37 1.858-2.92 1.226 1.017-3.363c10.154-34.358 35.397-33.095 57.475-82.765 0 0 18.839 27.725 18.141 63.57-2.373.353-4.916.799-7.346 1.227z"/></g><path d="M333.775 229.604a311.45 311.45 0 0 0 5.651 10.127c4.785 8.102 9.796 15.702 14.656 22.578l8.082 10.963a326.84 326.84 0 0 0 22.738 26.907s138.083 11.15 216.299-21.332c43.931-18.248 54.254-75.407 48.98-124.036-4.616-44.207-26.204-84.27-64.634-107.554-5.972-3.623-12.264-7.284-18.744-10.833C502.659 1.155 417.887 9.089 368.155 48.539c-24.057 19.084-41.143 43.204-50.713 75.537-10.398 35.213-1.149 72.916 16.333 105.528zm11.642-129.871c28.54-11.632 73.695-10.22 104.137 0 6.539 2.175 12.948 4.713 19.196 7.6 26.55 12.405 50.264 30.006 69.701 51.733-20.985 20.125-88.256 35.306-135.37 16.873-70.813-27.595-57.664-76.206-57.664-76.206z" class="B C D I"/><g style="mix-blend-mode:color-dodge" opacity=".1" class="I"><path d="M545.121 27.134s8.76 2.156 10.964 22.726-23.284 64.127-64.728 51.677c19.743 11.15 39.768 28.134 46.907 36.533 0-14.624 7.404-39.246 23.039-57.363s40.86-20.57 47.717-15.739c-17.274-17.82-47.961-32.965-63.899-37.833z"/></g><g style="mix-blend-mode:multiply" class="M L"><path d="M521.251 174.045l.244.557c2.393 4.627 17.878 35.641-17.839 48.983 14.543 20.552 6.48 58.701-43.705 61.953 27.711 1.077 77.708-7.303 77.708-7.303s40.633-88.767 36.244-106.625-25.77-20.291-30.442-16.724"/></g><g style="mix-blend-mode:multiply" class="M L"><path d="M417.981 190.954s-6.047 55.598 11.661 78.324c13.186 16.854 33.72 15.516 32.627 15.516l-56.326.371s1.47-70.612 5.124-80.628 6.914-13.583 6.914-13.583z"/></g><g style="mix-blend-mode:multiply" class="M L"><path d="M534.421 27.134c-16.072 9.373-29.399 22.705-38.675 38.688-15.692 26.777 8.797 42.479 8.797 42.479s-28.803-18.582-45.814-19.753 24.132-37.071 24.132-37.071 34.549-23.804 51.56-24.343z"/></g><g style="mix-blend-mode:color-dodge" opacity=".1" class="I"><path d="M319.927 116.141c20.911-51.045 43.328-71.058 91.516-91.443 8.873-1.858 16.954-4.98 25.771-6.671-53.237 16.036-97.827 56.638-113.368 110.75-10.229 35.604-5.539 64.202 2.091 84.846-12.81-28.895-17.746-68.884-6.01-97.482z"/></g><g style="mix-blend-mode:color-dodge" class="K L"><path d="M333.776 229.605a309.58 309.58 0 0 0 5.652 10.127l3.541 5.854a140.12 140.12 0 0 1-17.03-31.962c2.431 5.463 5.068 10.797 7.837 15.981z"/></g><g style="mix-blend-mode:multiply" class="M L"><path d="M538.77 282.806a75.8 75.8 0 0 0 3.522-17.578c.249-2.81.205-5.636-.131-8.437 45.607-20.44 70.153-72.34 36.678-103.298 27.71 4.868 65.293-64.945-1.357-111.084 2.449 2.118 17.068 9.979 19.554 12.041 39.372 32.482 47.303 66.264 51.937 89.473 6.857 50.172-.433 115.21-47.717 134.925-20.1 8.344-44.157 13.807-68.797 17.319a66.52 66.52 0 0 0 6.311-13.361z"/></g><g style="mix-blend-mode:color-dodge" class="F L"><path d="M328.932 157.32c.226-.984.905-1.709 1.564-1.598.26.057.509.158.735.298.64 0 1.055 1.059.829 2.025s-.829 1.691-1.451 1.691c-.271-.06-.532-.161-.772-.298-.697-.185-1.112-1.133-.905-2.118z"/></g><path d="M538.45 159.066c-34.851-43.11-114.574-86.388-193.034-59.333 0 0-5.746 2.881-6.989-.632-.415-1.208-1.037-3.717 6.857-8.12 15.183-8.548 50.316-19.474 97.789-8.381 75.71 17.671 109.713 74.124 109.713 74.124s4.351 6.82-.094 9.291-8.214-.446-14.242-6.95z" class="B C D H"/><g style="mix-blend-mode:multiply" class="U H"><path d="M422.332 93.472c3.694-4.083 7.075-8.43 10.116-13.008 3.466.595 7.008 1.301 10.625 2.156a185.82 185.82 0 0 1 43.158 15.795 13.36 13.36 0 0 0-5.168-.413c-1.733.201-3.408.739-4.929 1.584-1.569.91-2.832 2.255-3.632 3.867s-1.103 3.421-.871 5.201a188.97 188.97 0 0 0-49.299-15.182z"/></g><path d="M333.776 229.606a311.45 311.45 0 0 0 5.651 10.127c4.785 8.102 9.796 15.702 14.656 22.577l8.082 10.964a327.17 327.17 0 0 0 22.738 26.907s138.083 11.149 216.28-21.333c17.256-7.154 29.331-20.329 37.319-36.625-8.666 8.752-59.472 49.781-245.405 42.739-30.141-23.897-79.327-76.559-79.007-145.573-4.22 30.642 4.71 62.287 19.686 90.217z" class="B C D H"/><g style="mix-blend-mode:multiply" class="U H"><path d="M507.386 297.671c3.127-3.623 4.936-8.269 2.995-12.914a11.08 11.08 0 0 0-1.299-2.304c92.853-9.013 122.994-33.671 129.474-40.231-7.987 16.297-20.063 29.472-37.318 36.626-27.278 11.335-61.846 17.355-95.302 20.44.489-.557.998-1.078 1.45-1.617z"/></g><path d="M518.031 222.6c12.226 20.068 12.81 61.507 7.536 73.938a81.62 81.62 0 0 1-4.503 9.05c2.845-.149 42.16-10.889 59.152-32.482 22.606-28.728 23.755-65.391 23.755-65.391 17.858-.13 30.894-13.49 37.789-29.49l.66-1.56c26.279-63.384 6.31-162.929 6.31-162.929-34.662 69.237-77.556 80.498-77.556 80.498s-10.437 33.169-35.529 58.311c6.635 7.938 11.011 17.475 12.678 27.632 5.199 31.905-30.292 42.423-30.292 42.423z" class="B C D I"/><g style="mix-blend-mode:multiply" class="M L"><path d="M610.621 81.933s15.579-5.352 11.906 7.842c0 0 14.279 2.007 7.78 17.059 0 0 10.474 8.845-.754 20.44 0 0 10.794 11.149-3.278 20.44 0 0 5.878 13.008-7.535 20.441 0 0 2.675 13.007-14.11 16.984 0 0-2.355 10.35-18.706 10.332 0 0 7.629 12.412-3.768 19.121 0 0 12.622 23.562-9.532 24.956 0 0-.207 18.73-17.651 8.9 0 0-10.493 10.537-20.025-10.87 0 0 2.505 31.961-1.733 58.998 0 0 52.897-2.917 61.657-41.903s.245-53.739.245-53.739 36.056 13.007 48.697-51.64.81-110.954.81-110.954l-34.003 43.594z"/></g><g class="C D B"><path d="M649.766 59.801s-24.659 44.374-76.219 49.54m79.139-14.79s-35.435 26.442-82.436 23.06m81.005 3.436s-36.094 16.722-84.282 2.787m78.611 23.972s-54.047 3.419-82.135-17.541m73.808 40.621s-59.491-4.757-79.234-34.489m67.348 55.58s-63.691-15.72-73.092-50.172m41.179 101.254c1.734-3.048-13.789-50.321-42.8-48.481m29.576 74.476s-7.705-50.357-31.441-65.167m9.985 86.184s.81-53.312-17.35-74.329M595.87 198.2s-23.171-2.062-43.78-30.437" class="J"/><path d="M394.037 183.67c12.283 4.576 25.12 7.543 38.185 8.827 21.799 2.206 43.825.398 64.954-5.334l1.997-.557c15.944-5.076 30.526-13.624 42.668-25.012 3.214 5.787 5.405 12.071 6.481 18.583 5.274 31.868-30.292 42.385-30.292 42.385 12.226 20.069 12.81 61.508 7.535 73.939a81.61 81.61 0 0 1-4.502 9.05c2.844-.149 42.141-4.702 62.787-22.949 32.025-28.357 20.119-74.924 20.119-74.924 17.859-.13 30.895-13.49 37.79-29.49l.659-1.561c26.279-63.346 6.311-162.891 6.311-162.891-34.662 69.237-77.557 80.498-77.557 80.498s-10.436 33.169-35.529 58.311c-10.848 11.276-24.421 19.652-39.447 24.343l-1.733.483c-34.021 9.291-70.002 7.265-97.732-3.624l-2.694 9.923zm154.831-30.308c13.019-15.244 23.302-32.57 30.405-51.231 11.303-4.627 37.958-18.953 63.578-57.604 3.768 33.448 6.443 88.86-9.946 128.384-.163.446-.352.892-.565 1.338-12.754 25.142-40.936 23.228-40.936 23.228s13.3 47.254-10.813 73.251c-11.849 12.784-32.966 18.433-43.327 20.719 1.851-9.8 2.345-19.801 1.469-29.732a125.95 125.95 0 0 0-6.819-34.042 64.29 64.29 0 0 0 9.852-6.467c13.789-11.149 19.61-25.829 16.822-42.739-.914-5.511-2.547-10.883-4.86-15.981a86.28 86.28 0 0 0-4.86-9.124z" class="H"/><path d="M548.87 153.362l-7.026 8.25" class="J"/></g><g style="mix-blend-mode:color-dodge" opacity=".5" class="H"><path d="M465.641 182.574s46.078 5.073 76.746-30.976c30.141-35.455 34.983-59.723 34.983-59.723l-6.198 2.36s-14.75 43.333-40.483 63.012-47.058 25.699-65.048 25.327z"/></g><g class="B C D"><path d="M310.207 143.754c.546-3.455 1.262-7.004 2.166-10.572-.947 3.476-1.671 7.007-2.166 10.572z" class="L"/><path d="M319.232 216.244c-1.187-8.195-3.617-15.367-2.977-21.202l-.264-3.122c1.205-11.48 6.142-22.268 14.072-30.754-2.731-15.571-5.312-18.898-3.654-28.04 3.353-18.582 10.794-25.086 10.794-25.086a73.18 73.18 0 0 1 3.014-30.215s-21.117 27.093-27.824 55.264a118.33 118.33 0 0 0-2.166 10.573c-3.864 24.55-.747 49.676 9.005 72.582z" class="I"/><path d="M327.633 152.859s-17.971 10.908-18.404 23.6m16.879-33.987s-11.472 1.413-16.389 7.432m17.255-21.442s-7.385-1.504-12.81 1.021m18.555-13.435c-1.498-1.632-3.31-2.954-5.332-3.889a17.02 17.02 0 0 0-6.442-1.555" class="J"/><g class="H"><path d="M316.293 177.036a66.15 66.15 0 0 1 9.928-15.962 64.3 64.3 0 0 1-3.014-30.401c2.02-10.802 6.843-20.904 13.997-29.322.584 3.716 1.884 4.608 1.997 8.399-4.201 5.129-8.496 16.835-9.419 22.466-1.639 9.142 0 17.932 4.012 30.958-8.308 8.801-13.583 19.969-15.07 31.905-.686 7.074-.452 14.206.697 21.221a111.51 111.51 0 0 1-7.31-22.633c.89-5.655 2.29-11.221 4.182-16.631z"/><path d="M335.094 85.296c4.615-10.703 9.645-15.275 9.645-15.275s-14.958 66.542 41.274 97.259l-2.034 11.632c-66.443-18.954-53.689-55.356-48.885-93.617z"/><path d="M373.447 282.211c0 .688.547 4.664.603 4.85 3.112 4.51 6.72 8.666 10.757 12.395 9.174.873 18.273 1.598 27.485 1.616v-11.298a613.2 613.2 0 0 1 5.952-77.506c.17-1.264.377-2.546.566-3.717a320.97 320.97 0 0 1 19.61-69.478 274.5 274.5 0 0 1 17.67-36.31c4.452-7.558 9.346-14.855 14.656-21.853 15.162-19.944 33.863-37.012 55.196-50.376 6.895-4.311 17.294-6.485 24.829-2.118-9.419-23.655-37.13-23.395-56.91-13.007-24.908 12.816-46.218 31.507-62.034 54.409l-.377.595-.17.241c-2.656 3.995-5.18 8.065-7.648 12.134-.006.043-.006.087 0 .13-1.601 2.62-2.807 4.738-3.636 6.281l-.188.297-.264.539c-.358.725-.64 1.245-.791 1.542-.052.089-.096.182-.132.279l-1.639 2.843-.226.446-.15.279-6.5 13.008c-5.274 10.74-9.984 21.852-14.147 33.057l-6.424 17.969-.848 2.193c-2.33 6.596-4.311 13.307-5.934 20.106-2.712 11.001-4.841 22.187-6.631 33.299-1.262 7.823-2.053 15.832-2.618 23.785-1.017 14.364-1.752 29.063-.057 43.371z"/></g></g><g style="mix-blend-mode:multiply" class="U H"><path d="M373.484 238.878c.283-3.939.622-7.916 1.055-11.855a3.89 3.89 0 0 0 0 .483c.145 3.824.954 7.595 2.393 11.149.392.984.978 1.88 1.724 2.639s1.637 1.364 2.621 1.78a8.19 8.19 0 0 0 3.115.646 8.18 8.18 0 0 0 3.127-.587c.593-.259 1.156-.583 1.676-.966a74.83 74.83 0 0 0 .773 3.902c1.299 5.891 6.141 14.866 13.714 13.565s9.419-11.372 10.04-17.448a31.85 31.85 0 0 1 1.564-4.98c-1.639 17.504-2.656 35.064-2.939 52.662v11.297c-9.212 0-18.31-.743-27.485-1.616-4.037-3.728-7.644-7.885-10.756-12.394 0-.186-.528-4.163-.603-4.85-1.752-14.402-1.017-29.1-.019-43.427z"/></g><g style="mix-blend-mode:color-dodge" class="K H"><path d="M373.486 238.878c.566-7.935 1.489-15.944 2.619-23.786 1.614-11.207 3.828-22.322 6.631-33.299 1.884-7.433 4.22-15.033 6.782-22.298l6.423-17.969c3.768-9.812 7.95-19.53 12.245-29.063.055-.134.118-.264.189-.39l1.714-3.605c2.091-4.348 4.276-8.659 6.499-13.008l.151-.279.226-.446 1.469-2.75.226-.427 2.054-3.716c0-.149.15-.297.245-.446l2.543-4.46c-.007-.043-.007-.087 0-.13 2.467-4.051 4.992-8.139 7.648-12.134l.169-.242.358-.52c15.758-23.032 37.145-41.776 62.185-54.502 2.317-1.152 4.729-2.248 7.177-3.326 2.129.149 5.464-1.468 7.536-1.319-34.418 13.212-57.72 37.833-75.937 65.354-10.416 15.875-18.312 33.227-23.416 51.454-6.536 22.615-10.907 50.172-13.733 73.809-1.111 7.303-6.273 50.172-7.083 65.558-.546 10.22-.527 19.604-.81 32.723l-2.731-.149c-4.239-4.589-9.419-9.978-11.153-15.925-.101-.434-.17-.875-.207-1.319-1.752-14.364-1.036-29.081-.019-43.389z"/></g><g style="mix-blend-mode:color-dodge" class="K H"><path d="M408.469 112.055l9.984-20.032.207-.409.735-1.524.264-.539.188-.297.848-1.375 7.761-12.617 2.769-4.553.151-.242.377-.595a4.64 4.64 0 0 0 0 .688c.048 1.886.333 3.758.847 5.575a75.33 75.33 0 0 0 7.423 17.746c3.033 5.37 8.59 12.32 15.993 8.938-.81 1.32-1.488 2.732-2.185 3.977-2.581 4.627-5.199 9.18-7.535 13.937-2.506 5.054-4.597 10.443-6.725 15.683l-1.15 2.955v-.261c-.791-11.149-2.524-24.807-8.514-34.321-.585-.935-1.358-1.741-2.272-2.369a8.18 8.18 0 0 0-3.042-1.279c-1.092-.216-2.217-.208-3.306.023s-2.117.681-3.022 1.321a40.51 40.51 0 0 0-10.06 9.997v.093c.038-.223.075-.334.264-.52z"/></g><path d="M387.842 300.124c.188-39.487 2.392-67.063 8.326-97.389 10.813-55.301 29.651-110.174 68.684-151.965 9.922-10.861 21.276-20.361 33.758-28.245 10.305-6.299 26.487-14.215 39.089-9.291" class="B C D J"/><g style="mix-blend-mode:color-dodge" opacity=".5" class="H"><path d="M410.727 115.362a8.11 8.11 0 0 1 3.391-3.623 1.88 1.88 0 0 1 .527-.204 2.04 2.04 0 0 1 .867-.149c.736.144 1.389.558 1.83 1.157a2.91 2.91 0 0 1 .544 2.076 12.88 12.88 0 0 1-1.526 5.983c-.222.478-.549.901-.957 1.239a3.62 3.62 0 0 1-1.402.717c-.516.133-1.055.152-1.579.054a3.62 3.62 0 0 1-1.45-.617c-2.035-1.542-1.243-4.608-.245-6.633z"/></g><g style="mix-blend-mode:color-dodge" opacity=".5" class="H"><path d="M404.701 125.396c.293-.816.903-1.485 1.695-1.858.307-.24.673-.394 1.061-.446a2.21 2.21 0 0 1 1.143.149c.676.362 1.2.949 1.48 1.657s.295 1.489.046 2.207l-.829 2.639a2.65 2.65 0 0 1-.957 1.476c-.479.371-1.071.571-1.68.567a2.76 2.76 0 0 1-1.572-.809c-.42-.433-.681-.992-.745-1.587-.199-1.341-.077-2.71.358-3.995z"/></g><path d="M430.6 384.58c42.423 9.923 56.684 63.718 25.921 97.816 41.255-18.061 83.943 15.238 77.538 60.485l12.339-4.05s-.151-7.693 8.477-16.724c26.882-16.297 63.013-9.292 78.762 20.774l12.339-4.05s-2.844-21.723 4.408-41.476c16.578-18.006 42.876-25.903 66.8-14.959l12.339-4.05s-20.025-18.583-23.999-42.962c4.106-23.544 21.494-44.914 47.264-50.804-42.404-9.923-56.665-63.737-25.921-97.835a54.96 54.96 0 0 1-33.433 4.041c-11.296-2.185-21.596-7.856-29.411-16.194-11.039-25.346-2.374-52.402-2.374-52.402l-12.338 4.051c-13.187 21.314-35.567 31.032-56.515 29.118-22.191-9.291-30.819-33.187-30.819-33.187l-12.226 4.032v2.732c.014 12.952-3.999 25.596-11.497 36.229s-18.121 18.741-30.437 23.234c-19.874-.205-29.331-5.78-29.331-5.78l-12.245 4.107c27.372 34.098 7.781 87.912-35.623 97.835l-.018.019z" class="B C D W"/><use xlink:href="#I" class="H"/><g class="B C D"><use xlink:href="#I"/><path d="M599.787 492.19l6.781-.223c29.553-2.045 57.102-15.483 76.69-37.406 20.144-21.985 31.26-50.585 31.178-80.219-.227-59.351-45.758-105.918-103.61-105.918-2.242 0-4.521 0-6.782.204-29.552 2.046-57.097 15.491-76.671 37.425-20.23 22.005-31.379 50.681-31.253 80.386.226 59.259 45.758 105.751 103.667 105.751z" class="H"/></g><path d="M691.452 432.652c11-19.734 16.522-41.982 16.01-64.496s-7.043-44.495-18.93-63.721c-.69-1.016-1.406-2.02-2.147-3.011 17.547 19.804 27.136 45.259 26.957 71.56.245 61.563-48.094 114.504-107.961 118.257a102.36 102.36 0 0 1-39.975-5.314c5.84.966 79.874 16.891 126.046-53.275z" fill="#dcf2ae" class="F"/><path d="M662.311 282.378l-4.88 5.574c-.376.446-1.243 0-1.073-.613l2.015-7.562 5.011 2.471m-91.535 205.593l3.862-7.005c.064-.116.168-.207.293-.256a.59.59 0 0 1 .705.215c.074.111.107.243.094.375l-.942 8.38-4.992-1.208m-6.818-3.661l2.449-3.233c.189-.26.791 0 .773.353l-.434 4.441-3.466-1.449" class="S"/><path d="M688.97 421.207c24.56-48.974 7.003-106.957-39.214-129.508s-103.593-1.132-128.152 47.842-7.003 106.957 39.214 129.509 103.593 1.131 128.152-47.843z" class="B C D H"/><g style="mix-blend-mode:multiply" class="X W"><path d="M546.192 450.659a135.92 135.92 0 0 0 45.626 8.808c12.681.366 25.311-1.744 37.162-6.209a96.46 96.46 0 0 0 31.899-19.806 82.52 82.52 0 0 0 14.166-18.025 87.96 87.96 0 0 0 4.691-10.406c1.671-3.513 3.154-7.111 4.445-10.777 4.924-16.62 5.1-34.259.509-50.971-6.65-22.446-21.311-41.76-41.274-54.372 33.211 13.008 56.514 45.805 56.627 85.478.207 53.889-42.047 100.103-94.398 103.392-14.434.981-28.89-1.586-42.071-7.472s-24.675-14.908-33.451-26.255c5.331 2.397 10.775 4.515 16.069 6.615z"/></g><g style="mix-blend-mode:color-dodge" class="F H"><path d="M537.942 352.005c-1.148-.58-2.028-1.571-2.459-2.77a4.92 4.92 0 0 1 .142-3.678c.527-.985 1.159-1.913 1.884-2.768l.132-.26a5.01 5.01 0 0 1 2.839-2.485 5.1 5.1 0 0 1 3.792.181c1.169.587 2.064 1.596 2.499 2.818a4.97 4.97 0 0 1-.163 3.741c-.528.985-1.16 1.913-1.884 2.768l-.132.26c-.598 1.151-1.628 2.025-2.871 2.435a5.08 5.08 0 0 1-3.779-.242z"/></g><g style="mix-blend-mode:color-dodge" class="F H"><path d="M578.971 339.48c-2.506 1.301-5.237 1.208-6.236-.371-.36-.671-.614-1.391-.753-2.137a.86.86 0 0 0-.113-.167c-.961-1.468.339-4.107 2.769-5.37s5.218-1.189 6.235.372c.374.666.635 1.387.773 2.136-.007.062-.007.124 0 .186 1.036 1.468-.226 3.995-2.675 5.351z"/></g><g style="mix-blend-mode:color-dodge" class="F H"><path d="M548.961 331.453c-1.262.65-2.637.613-3.146-.186-.165-.345-.291-.706-.377-1.077-.471-.744.17-2.063 1.394-2.695s2.619-.613 3.146.186c.184.337.312.701.377 1.078.471.743-.151 2.044-1.394 2.694z"/></g><g style="mix-blend-mode:color-dodge" class="F H"><path d="M562.13 322.348c-.848 2.155-2.6 3.567-4.088 3.103-.595-.223-1.153-.529-1.658-.911-.05-.01-.101-.01-.151 0-1.413-.39-2.053-2.731-1.224-4.812s2.581-3.53 4.088-3.103a6.03 6.03 0 0 1 1.657.91c.049.019.103.019.151 0 1.394.409 2.035 2.713 1.225 4.813z"/></g><g class="X"><g style="mix-blend-mode:multiply" class="X"><use xlink:href="#J" class="W"/><use xlink:href="#J" stroke="#efa500" class="C O"/></g><g style="mix-blend-mode:multiply" class="X"><use xlink:href="#K" class="W"/><use xlink:href="#K" stroke="#efa500" class="C O"/></g></g><path d="M581.927 357.562a7.12 7.12 0 0 0-3.562 1.689c-1 .885-1.725 2.033-2.089 3.309-1.012-1.339-2.38-2.377-3.953-2.996a9.29 9.29 0 0 0-4.958-.516c-4.462.715-8.493 3.048-11.303 6.541-3.737 4.59-5.664 10.359-5.425 16.241.113 8.176 3.202 12.729 5.764 15.107a14.59 14.59 0 0 0 5.406 3.125 14.73 14.73 0 0 0 6.236.592c3.273-.336 6.278-1.932 8.365-4.441v3.103c0 2.731-1.884 5.742-6.556 6.281-1.538.158-3.091.108-4.615-.149a12.8 12.8 0 0 0-1.715-.167c-.688-.178-1.404-.222-2.11-.13-1.384.242-2.632.974-3.509 2.058s-1.324 2.447-1.257 3.832a5.53 5.53 0 0 0 1.142 3.323c.733.957 1.76 1.656 2.927 1.992 2.463.61 4.998.885 7.536.817.565 0 1.149 0 1.752-.148 4.414-.529 8.583-2.288 12.018-5.073 2.094-1.687 3.771-3.822 4.903-6.243a17.36 17.36 0 0 0 1.634-7.731v-6.392l-.358-28.245a5.99 5.99 0 0 0-.486-2.383c-.324-.754-.799-1.435-1.398-2.003a5.37 5.37 0 0 0-2.034-1.187 5.41 5.41 0 0 0-2.355-.206zm-5.256 21.183c.094 7.433-4.219 9.96-6.781 10.276a5.72 5.72 0 0 1-2.466-.225c-.795-.254-1.522-.678-2.131-1.243a9.54 9.54 0 0 1-2.015-3.281 9.47 9.47 0 0 1-.547-3.799c0-6.448 3.56-9.811 6.989-10.22h.433c.739-.03 1.476.086 2.168.342a5.54 5.54 0 0 1 1.864 1.145c.864.947 1.53 2.053 1.957 3.256a9.49 9.49 0 0 1 .529 3.749zm74.807-25.995c-1.17-1.046-2.563-1.819-4.075-2.262a10.7 10.7 0 0 0-4.666-.303c-2.737.451-5.309 1.591-7.467 3.31s-3.83 3.958-4.853 6.502a10.53 10.53 0 0 0-4.566-5.581 10.77 10.77 0 0 0-7.133-1.388c-2.241.307-4.374 1.143-6.217 2.437a13.92 13.92 0 0 0-4.37 4.996 6.15 6.15 0 0 0-1.884-3.939 5.21 5.21 0 0 0-1.945-1.151c-.726-.237-1.496-.314-2.256-.224a7.34 7.34 0 0 0-4.359 2.631c-1.086 1.364-1.638 3.069-1.556 4.802l.358 28.003a6.16 6.16 0 0 0 .476 2.447 6.23 6.23 0 0 0 1.408 2.068c1.019.941 2.372 1.448 3.767 1.413h.434c1.703-.31 3.238-1.211 4.326-2.541s1.659-2.998 1.608-4.706l-.226-16.892s.697-6.726 6.348-7.432c.65-.121 1.318-.093 1.955.081a4.37 4.37 0 0 1 1.719.922c1.488 1.769 2.206 4.047 1.996 6.337l.208 15.441a6.18 6.18 0 0 0 .47 2.467c.323.782.804 1.492 1.413 2.086a5.15 5.15 0 0 0 1.948 1.136 5.21 5.21 0 0 0 2.253.202 7.26 7.26 0 0 0 4.377-2.477c1.11-1.317 1.703-2.983 1.67-4.696l-.207-16.891c0-.836 1.187-6.801 6.386-7.433.641-.11 1.298-.077 1.924.097a4.36 4.36 0 0 1 1.693.907 8.61 8.61 0 0 1 1.997 6.336l.207 15.46a6.06 6.06 0 0 0 .469 2.442c.324.773.806 1.473 1.415 2.055.558.528 1.228.926 1.961 1.167a5.28 5.28 0 0 0 2.278.227c1.701-.313 3.234-1.216 4.322-2.544a7.11 7.11 0 0 0 1.612-4.703l-.207-15.442c-.113-7.266-1.79-12.413-5.011-15.367z" class="B C D I"/><defs><linearGradient id="A" x1="828.339" y1="221.471" x2="903.599" y2="832.287" gradientUnits="userSpaceOnUse"><stop offset=".01" stop-color="#7560e0"/><stop offset="1" stop-color="#321a70"/></linearGradient><linearGradient id="B" x1="897.3" y1="492.945" x2="918.487" y2="619.378" gradientUnits="userSpaceOnUse"><stop offset=".01" stop-color="#7560e0"/><stop offset="1" stop-color="#321a70"/></linearGradient><linearGradient id="C" x1="534.502" y1="909.728" x2="524.483" y2="389.844" gradientUnits="userSpaceOnUse"><stop offset=".17" stop-color="#cfccd4"/><stop offset="1" stop-color="#2c2733"/></linearGradient><linearGradient id="D" x1="579.259" y1="260.567" x2="656.199" y2="990.185" gradientUnits="userSpaceOnUse"><stop offset=".12" stop-color="#cfccd4"/><stop offset="1" stop-color="#2c2733"/></linearGradient><path id="E" d="M478.826 461.288c.548.078 1.046.357 1.395.78s.523.961.489 1.506l-7.234 101.254a3.1 3.1 0 0 1-.898 2.109c-.56.566-1.316.901-2.116.938h-33.513c-.451-.046-.883-.208-1.251-.469s-.663-.612-.853-1.018a2.55 2.55 0 0 1-.231-1.301 2.57 2.57 0 0 1 .451-1.244c.17-.27.411-.488.697-.632l12.434-7.042a2.18 2.18 0 0 0 .944-1.072c.185-.451.21-.951.073-1.418L410.35 431.352c-.098-.349-.107-.717-.024-1.07a2.16 2.16 0 0 1 .497-.951c.243-.272.551-.479.896-.603s.716-.161 1.08-.107l66.027 32.667z"/><path id="F" d="M436.835 573.357h34.455c1.269 0 2.298-1.015 2.298-2.267v-.948c0-1.252-1.029-2.266-2.298-2.266h-34.455c-1.27 0-2.299 1.014-2.299 2.266v.948c0 1.252 1.029 2.267 2.299 2.267z"/><path id="G" d="M504.427 461.288c.546.082 1.041.361 1.389.784a2.17 2.17 0 0 1 .495 1.501l-7.215 101.255a3.1 3.1 0 0 1-.905 2.115c-.564.566-1.324.899-2.128.932H462.55c-.451-.047-.883-.209-1.251-.469a2.59 2.59 0 0 1-.853-1.019c-.19-.406-.27-.855-.231-1.301s.194-.874.451-1.243c.174-.266.414-.483.697-.632l12.434-7.043a2.2 2.2 0 0 0 .95-1.07c.188-.45.218-.95.086-1.42l-34.079-107.182a2.16 2.16 0 0 1-.021-1.071c.083-.354.253-.681.496-.954a2.22 2.22 0 0 1 .894-.608c.345-.126.716-.167 1.08-.117l61.224 17.542z"/><path id="H" d="M572.51 217.953c2.605 3.302 6.175 5.736 10.227 6.973a21 21 0 0 0 12.433-.056 20.72 20.72 0 0 0 10.162-7.065c2.574-3.325 4.052-7.35 4.234-11.53s-.942-8.315-3.218-11.846-5.597-6.287-9.512-7.897a20.99 20.99 0 0 0-12.382-1.105 20.79 20.79 0 0 0-10.795 6.084"/><path id="I" d="M442.941 380.548c42.423 9.923 56.684 63.737 25.921 97.835 41.274-18.043 83.943 15.238 77.557 60.504 24.32-39.134 79.12-39.134 99.578 0-1.884-45.266 44.063-78.547 83.547-60.504-27.372-34.098-7.78-87.912 35.604-97.835-42.423-9.923-56.684-63.737-25.94-97.835-41.274 18.062-83.943-15.238-77.556-60.485-24.339 39.134-79.121 39.134-99.579 0 1.884 45.247-44.062 78.547-83.528 60.485 27.372 34.098 7.78 87.912-35.623 97.835h.019z"/><path id="J" d="M592.327 394.82l-.132 5.24c.189 13.435-11.114 19.139-18.838 20.031-3.237.326-6.508.055-9.645-.799a5.81 5.81 0 0 1-2.925-2.218c-.706-1.033-1.051-2.264-.986-3.508s.54-2.433 1.351-3.387 1.914-1.624 3.144-1.906a4.77 4.77 0 0 1 2.11.167c2.244.332 4.514.457 6.782.372 1.975-.034 3.858-.832 5.243-2.223a7.38 7.38 0 0 0 2.16-5.21v-3.568c-.954 1.689-2.31 3.125-3.951 4.183a12.23 12.23 0 0 1-5.468 1.894c-8.006.91-17.557-4.962-17.764-20.143-.208-14.755 9.287-23.154 17.161-24.064a8.84 8.84 0 0 1 5.634.859 8.67 8.67 0 0 1 3.898 4.102v.743c-.062-1.666.469-3.301 1.501-4.622s2.501-2.242 4.151-2.606c.796-.036 1.592.09 2.337.371s1.423.71 1.993 1.261 1.017 1.212 1.315 1.942.442 1.511.421 2.298l.508 30.791zm-11.491-14.216c-.113-8.12-4.728-10.257-7.931-9.886-4.144.484-7.95 4.665-7.855 11.707s4.012 10.425 8.157 9.942c3.202-.353 7.742-3.475 7.629-11.763z"/><path id="K" d="M655.247 354.85a10.83 10.83 0 0 0-4.192-2.6 10.96 10.96 0 0 0-4.926-.485c-6.462.613-10.87 5.575-13.093 10.387-2.222-5.704-6.499-8.529-12.131-7.99-2.393.28-4.679 1.141-6.652 2.506a14.43 14.43 0 0 0-4.651 5.317c-.092-1.628-.759-3.172-1.884-4.367a5.33 5.33 0 0 0-1.993-1.317 5.39 5.39 0 0 0-2.378-.318 7.88 7.88 0 0 0-4.66 2.799 7.68 7.68 0 0 0-1.688 5.117l-.188 30.717a6.97 6.97 0 0 0 1.883 4.998c.511.533 1.128.956 1.812 1.244s1.42.433 2.163.429h.452c1.825-.325 3.471-1.287 4.637-2.709s1.773-3.212 1.712-5.04l.113-18.582s.866-7.433 6.782-7.916a4.57 4.57 0 0 1 2.028.181 4.51 4.51 0 0 1 1.739 1.045 9.75 9.75 0 0 1 1.884 6.987V392.2c-.039.92.107 1.839.431 2.704a6.95 6.95 0 0 0 1.453 2.332c.553.578 1.232 1.024 1.986 1.305s1.563.386 2.366.311c1.823-.328 3.466-1.291 4.631-2.712a7.57 7.57 0 0 0 1.717-5.036l.113-18.583c0-.91 1.394-7.433 6.857-7.934.68-.103 1.375-.047 2.029.163s1.25.567 1.739 1.045a9.83 9.83 0 0 1 1.884 7.024l-.095 16.947a6.83 6.83 0 0 0 .436 2.676c.323.855.816 1.638 1.448 2.304a5.36 5.36 0 0 0 2.018 1.336c.768.287 1.592.395 2.409.317 1.823-.328 3.467-1.29 4.632-2.712a7.57 7.57 0 0 0 1.717-5.036v-16.947c.489-7.768-1.168-13.454-4.54-16.854z"/></defs></svg>