<svg xmlns="http://www.w3.org/2000/svg" width="36" height="18" fill="none" xmlns:v="https://vecta.io/nano"><path d="M26.825 17.16c-1.52 0-2.827-.213-3.92-.64-1.093-.453-2.04-1.053-2.84-1.8a18.31 18.31 0 0 1-2.08-2.48l-1.72-2.68a19.36 19.36 0 0 0-1.72-2.48c-.613-.773-1.32-1.387-2.12-1.84-.773-.453-1.72-.68-2.84-.68-.88 0-1.68.2-2.4.6-.693.4-1.24.933-1.64 1.6-.373.64-.56 1.387-.56 2.24 0 .827.187 1.573.56 2.24.4.667.947 1.2 1.64 1.6.72.4 1.52.6 2.4.6 1.12 0 2.067-.227 2.84-.68.8-.453 1.507-1.053 2.12-1.8a24 24 0 0 0 1.72-2.48l1.72-2.68a15.54 15.54 0 0 1 2.08-2.48 8.46 8.46 0 0 1 2.84-1.8c1.093-.453 2.4-.68 3.92-.68 1.573 0 2.973.347 4.2 1.04a7.76 7.76 0 0 1 2.92 2.88c.72 1.227 1.08 2.627 1.08 4.2s-.36 2.987-1.08 4.24c-.72 1.227-1.693 2.2-2.92 2.92-1.227.693-2.627 1.04-4.2 1.04zm-17.6 0c-1.573 0-2.987-.347-4.24-1.04-1.227-.72-2.2-1.693-2.92-2.92-.72-1.253-1.08-2.653-1.08-4.2 0-1.573.36-2.973 1.08-4.2.72-1.253 1.693-2.227 2.92-2.92C6.238 1.187 7.652.84 9.225.84c1.547 0 2.853.227 3.92.68 1.093.427 2.027 1.027 2.8 1.8.8.747 1.493 1.573 2.08 2.48l1.68 2.68a29.31 29.31 0 0 0 1.76 2.48c.613.747 1.32 1.347 2.12 1.8s1.747.68 2.84.68c.88 0 1.667-.2 2.36-.6s1.24-.933 1.64-1.6.6-1.427.6-2.28c0-.827-.2-1.573-.6-2.24s-.947-1.187-1.64-1.56c-.693-.4-1.48-.6-2.36-.6-1.093 0-2.04.227-2.84.68s-1.507 1.067-2.12 1.84a24.9 24.9 0 0 0-1.76 2.44l-1.68 2.68a14.31 14.31 0 0 1-2.08 2.52c-.773.747-1.707 1.347-2.8 1.8-1.067.427-2.373.64-3.92.64z" fill="#3a2657"/></svg>