<svg width="1081" height="1183" viewBox="0 0 1081 1183" fill="none" xmlns="http://www.w3.org/2000/svg">
<path d="M1526 168.332C1520.25 161.093 1506.11 163.252 1505.85 173.195C1502.53 172.435 1499.45 173.171 1497.49 175.252C1496.09 164.374 1491.76 157.207 1480.21 154.311C1468.65 151.422 1458.25 159.47 1457.01 168.344C1455.3 167.168 1441.36 166.365 1443.4 181.641C1440.37 177.587 1415.42 161.074 1394.69 180.296C1386.84 158.8 1363.26 166.884 1363.26 166.884C1354.46 144.701 1327.29 153.714 1327.29 153.714C1324.69 139.748 1309.31 144.61 1309.31 144.61C1305.66 113.142 1279.13 115.019 1279.13 115.019C1277.43 97.1127 1263.28 75.6412 1242.34 75.1284C1221.4 74.6156 1209.39 95.4174 1209.39 95.4174C1200.14 83.9849 1187.36 90.235 1187.36 90.235C1184.16 77.9941 1166.88 73.8856 1147.72 76.9082C1128.57 79.9367 1110.69 97.728 1110.69 97.728C1107.66 98.4339 1104.52 100.093 1101.52 103.236C1097.37 90.4402 1084.46 95.7733 1084.46 95.7733C1079.79 82.5852 1068.57 89.0405 1068.57 89.0405C1067.23 80.6788 1058.81 83.9064 1058.81 83.9064C1057.01 65.0232 1042.53 66.6702 1042.53 66.6702C1041.71 55.9194 1034.12 43.2622 1022.7 43.3587C1011.27 43.4552 1004.59 56.215 1004.59 56.215C999.607 49.5124 992.597 53.5183 992.597 53.5183C978.687 31.4737 960.282 55.4187 960.282 55.4187L960.131 56.5046C955.438 51.1956 945.135 53.5846 944.852 61.8559C942.264 61.2948 939.851 62.0127 938.301 63.8648C937.305 54.5378 933.988 48.4747 924.999 46.3088C916.011 44.137 907.813 51.3584 906.758 59.0384C905.437 58.0732 894.56 57.7655 896.02 70.8691C893.692 67.4605 882.894 45.0721 858.222 59.503C858.222 59.503 858.222 59.497 858.222 59.4909C855.459 32.801 832.181 25.6639 823.404 46.9182C824.327 39.0632 818.783 26.587 794.491 24.8073C791.083 16.6929 786.19 12.0716 776.635 12.3069C767.08 12.5422 760.752 21.0004 761.687 28.1314C760.119 27.5885 749.321 26.1345 749.321 36.2036C746.106 33.718 727.955 31.4073 716.023 50.725C705.346 35.7752 688.835 47.0811 688.835 47.0811C677.271 31.8055 658.179 44.5955 658.179 44.5955C653.178 34.3454 642.314 41.398 642.314 41.398C632.747 17.8271 612.629 24.9641 612.629 24.9641C607.478 11.4743 591.933 -2.11195 575.621 1.97842C559.31 6.06878 554.472 24.7288 554.472 24.7288C544.863 17.8633 536.315 25.4347 536.315 25.4347C531.224 16.6446 516.969 17.1635 502.793 23.6127C488.618 30.056 478.598 47.6542 478.598 47.6542C476.402 48.8487 474.333 50.8034 472.68 53.8802C466.732 44.8669 457.877 51.7566 457.877 51.7566C451.44 42.5503 444.141 49.9528 444.141 49.9528C441.324 43.7689 435.491 48.0705 435.491 48.0705C430.056 33.8447 419.198 38.2186 419.198 38.2186C416.266 30.0741 407.682 21.9054 398.863 24.4272C390.044 26.949 387.607 38.2548 387.607 38.2548C382.316 34.1343 377.75 38.7374 377.75 38.7374C362.265 24.6564 353.15 47.1293 353.15 47.1293L353.271 48.0041C348.499 44.9031 341.043 48.9573 342.594 55.4126C340.47 55.5333 338.757 56.6072 337.955 58.3688C335.186 51.3645 331.325 47.3827 323.906 47.6301C316.486 47.8774 311.69 55.2196 312.517 61.3853C311.286 60.9207 296.374 66.0488 300.313 75.8765C297.78 73.7348 293.491 105.734 284.503 122.499C279.249 114.542 262.738 113.51 257.919 115.266C257.647 115.194 259.071 75.7498 259.077 75.9369C258.594 76.1239 258.148 76.3169 257.738 76.51C255.126 77.4511 251.199 79.2912 248.496 81.6803C248.997 85.2397 249.491 88.8052 249.998 92.3647C253.316 115.779 256.742 139.175 260.114 162.577L327.845 153.419C327.869 152.2 327.905 150.987 327.935 149.769L340.223 148.11C349.38 147.042 357.94 141.902 365.143 135.633L366.838 148.152L488.786 131.67C489.118 130.011 489.426 128.345 489.721 126.68L494.891 163.445L729.891 136.164L795.48 128.551C802.055 127.899 808.576 127.465 814.802 127.145C813.281 139.132 811.761 151.12 810.235 163.102L894.585 174.612C895.019 173.159 895.465 171.711 895.906 170.263L911.21 172.35C922.556 174.112 934.543 170.788 945.268 165.647L943.145 181.237L1095.01 201.96C1095.97 200.078 1096.89 198.183 1097.79 196.277L1091.79 242.128L1382.95 287.454L1464.22 300.105C1503.85 306.952 1540.3 319.664 1542.81 314.475C1544.3 311.386 1565.86 177.02 1565.24 176.682C1566.74 162.16 1540.94 144.876 1526 168.314L1526 168.332Z" fill="#4CB96B" stroke="black" stroke-width="2.13" stroke-linecap="round" stroke-linejoin="round"/>
<g style="mix-blend-mode:multiply" opacity="0.43">
<path d="M1513.12 194.183C1507.37 186.943 1493.24 189.103 1492.98 199.045C1489.65 198.285 1486.57 199.021 1484.61 201.103C1483.21 190.225 1478.88 183.058 1467.33 180.162C1455.78 177.272 1445.38 185.32 1444.13 194.195C1442.42 193.019 1428.48 192.216 1430.52 207.492C1427.5 203.456 1402.77 187.076 1382.09 205.893C1374.43 183.77 1350.49 191.981 1350.49 191.981C1341.69 169.798 1314.52 178.811 1314.52 178.811C1311.92 164.844 1296.53 169.707 1296.53 169.707C1292.88 138.239 1266.36 140.115 1266.36 140.115C1264.65 122.209 1250.5 100.738 1229.56 100.225C1208.63 99.7123 1196.62 120.514 1196.62 120.514C1187.36 109.081 1174.58 115.332 1174.58 115.332C1171.39 103.091 1154.11 98.9823 1134.95 102.005C1120.45 104.297 1107.68 110.059 1102.32 112.725C1096.4 102.487 1089.41 108.068 1087.76 111.012C1082.83 99.5976 1072.39 105.6 1072.39 105.6C1071.06 97.2387 1062.63 100.466 1062.63 100.466C1060.83 81.5831 1046.35 83.2301 1046.35 83.2301C1045.54 72.4793 1037.95 59.8221 1026.52 59.9186C1015.1 60.0152 1008.41 72.7749 1008.41 72.7749C1003.43 66.0723 996.422 70.0782 996.422 70.0782C973.475 46.628 954.389 73.4627 954.389 73.4627C949.961 67.3996 938.922 69.6559 938.627 78.2167C936.039 77.6556 933.626 78.3736 932.076 80.2257C931.08 70.8987 927.763 64.8355 918.774 62.6697C909.786 60.4978 901.588 67.7193 900.533 75.3993C899.761 74.8322 895.731 74.5004 892.799 76.9317C888.492 73.2154 882.653 69.5111 875.487 68.0752C859.061 64.7873 853.306 68.0752 853.306 68.0752C853.306 68.0752 848.378 55.3396 837.906 52.673C833.068 51.4423 827.265 54.1089 822.336 57.3365C818.711 38.049 796.035 29.1866 789.84 45.3067C784.429 41.2948 774.361 45.2283 775.779 52.1482C773.203 52.1964 771.05 53.2401 769.946 55.0199C767.153 47.7441 762.797 43.533 753.815 43.527C744.833 43.527 738.469 50.8812 738.982 57.234C737.534 56.7151 728.287 48.5344 732.268 58.7422C729.391 56.4738 708.501 49.4212 696.31 66.0059C687.08 52.0396 670.763 61.8432 670.763 61.8432C660.683 48.0276 642.109 58.9534 642.109 58.9534C637.929 49.747 627.379 55.7619 627.379 55.7619C619.585 34.6344 599.178 50.5554 599.178 50.5554C595.027 38.4714 581.111 26.0675 565.596 29.3314C550.081 32.5952 544.597 49.0472 544.597 49.0472C535.923 42.7427 527.514 49.2704 527.514 49.2704C523.177 41.3551 509.773 41.4999 496.14 46.9055C485.825 50.9958 477.343 57.1797 473.833 59.9488C467.806 53.8917 463.56 58.9594 462.824 61.2761C457.346 54.2356 450.62 60.1901 450.62 60.1901C448.286 54.6398 442.597 58.3259 442.597 58.3259C438.212 45.5843 427.8 49.2221 427.8 49.2221C425.46 41.9283 414.855 38.5196 406.452 40.5588C398.049 42.5979 398.139 48.5465 398.139 48.5465C393.38 44.7698 388.862 48.7516 388.862 48.7516C368.147 36.5046 358.429 58.3501 358.429 58.3501C354.182 54.9233 346.413 58.3863 347.583 64.3589C345.586 64.4193 343.638 70.8384 342.793 72.3828C340.549 66.1025 336.013 58.7724 329.034 58.8267C322.054 58.881 318.58 63.4962 319.044 68.9862C317.916 68.5458 309.845 70.217 313.048 79.0191C310.78 77.0644 294.342 71.0495 285.058 85.7217C279.822 77.4264 269.537 80.7325 265.007 86.9887C264.681 87.3386 264.391 87.7006 264.156 88.0746C262.328 85.1848 260.06 84.0747 257.889 83.8395C260.024 106.578 262.25 129.31 264.385 152.048C278.127 150.311 286.035 149.165 285.945 148.827C285.173 146.009 284.346 143.204 283.496 140.411L339.65 134.613C352.873 133.479 366.301 135.808 374.764 126.987L476.861 116.448C476.819 115.543 476.788 114.644 476.758 113.739L479.557 145.111L601.398 134.71C605.457 128.719 613.263 130.987 619.778 126.553C626.896 121.703 632.397 120.997 641.174 120.146C651.013 119.193 660.882 118.499 670.721 117.558C691.405 115.579 712.096 113.431 732.823 111.947C753.351 110.475 773.945 109.751 794.461 110.36C799.07 110.499 804.704 116.924 809.318 116.955C810.29 116.961 811.249 116.888 812.214 116.78C809.892 135.096 807.569 153.412 805.21 171.722C823.41 173.755 833.924 174.72 833.906 174.238C833.761 170.123 833.544 166.015 833.291 161.912L907.253 172.006C924.596 174.702 941.16 182.207 954.709 172.832L1089.17 191.184C1089.39 189.936 1089.63 188.687 1089.86 187.438L1084.01 231.352L1243.83 256.232C1250.85 249.318 1260.21 254.941 1269.92 250.953C1280.54 246.591 1287.82 247.388 1299.36 249.041C1312.3 250.899 1325.2 253.113 1338.15 254.983C1365.35 258.911 1392.59 262.621 1419.7 267.242C1446.54 271.815 1473.24 277.438 1499.44 284.871C1505.32 286.542 1510.64 297.16 1516.56 298.686C1521.26 299.899 1526.18 299.555 1530.83 300.906C1532.23 301.311 1533.72 301.136 1535.13 301.576C1536.98 299.652 1538.36 291.61 1538.69 290.91C1542.36 283.326 1552.71 202.744 1552.34 202.539C1553.84 188.017 1528.04 170.733 1513.1 194.171L1513.12 194.183Z" fill="#44A66C"/>
</g>
<path d="M308.759 74.609C304.597 56.0998 290.433 59.5627 290.433 59.5627C288.274 48.999 279.147 37.3975 267.824 38.9359C256.508 40.4743 251.483 53.9701 251.483 53.9701C245.698 47.9432 239.243 52.8058 239.243 52.8058C222.666 32.6857 207.423 58.7603 207.423 58.7603L207.411 59.8583C202.084 55.1828 192.167 58.8508 192.927 67.0919C190.291 66.8626 187.987 67.8822 186.678 69.9093C184.518 60.7814 180.464 55.1888 171.271 54.1692C162.078 53.1497 154.863 61.3425 154.779 69.0948C153.349 68.3045 142.521 69.3724 145.616 82.1864C142.871 79.0975 129.347 58.2475 106.683 75.6708C106.683 75.6708 106.683 75.6648 106.683 75.6587C100.579 49.5299 73.9221 48.1242 70.5561 67.5745C70.4837 59.6653 63.4138 47.9854 39.0856 49.2825C34.682 41.6628 29.247 37.6931 19.8004 39.129C10.3478 40.5709 5.14191 49.7531 6.96366 56.7091C5.33494 56.3652 -5.23966 60.0936 1.00979 70.772C-2.49497 68.7087 -19.8861 85.1547 -29.2844 105.824C-41.7591 92.3339 -62.9144 84.6841 -62.9144 84.6841C-76.3061 70.9832 -93.6368 86.0777 -93.6368 86.0777C-99.8923 76.5396 -109.779 84.9073 -109.779 84.9073C-122.236 62.73 -144.097 76.3405 -144.097 76.3405C-150.901 63.6048 -165.246 48.088 -180.912 54.1994C-196.578 60.3108 -199.027 79.4354 -199.027 79.4354C-209.427 73.8368 -216.955 82.4217 -216.955 82.4217C-223.114 74.3435 -237.187 76.6542 -250.44 84.8349C-263.693 93.0157 -271.415 111.736 -271.415 111.736C-273.441 113.196 -275.251 115.398 -276.5 118.656C-283.539 110.469 -291.454 118.415 -291.454 118.415C-298.994 110.095 -305.31 118.354 -305.31 118.354C-308.887 112.575 -314.129 117.576 -314.129 117.576C-321.314 104.147 -331.532 109.86 -331.532 109.86C-335.465 102.15 -345.008 95.1272 -353.442 98.741C-361.869 102.355 -362.87 113.878 -362.87 113.878C-368.637 110.457 -372.588 115.597 -372.588 115.597C-389.72 103.579 -395.933 127.024 -395.933 127.024L-395.704 127.874C-400.825 125.395 -407.714 130.36 -405.362 136.574C-407.455 136.96 -409.017 138.239 -409.59 140.091C-413.216 133.491 -417.553 130.028 -424.882 131.211C-432.211 132.393 -436.042 140.278 -434.443 146.293C-434.823 146.203 -436.368 146.764 -438.195 147.85V214.182C-438.195 223.841 -437.399 233.663 -436.916 243.478L-407.648 235.672C-407.774 234.459 -407.895 233.253 -408.016 232.04L-396.036 228.842C-387.09 226.634 -379.242 220.451 -372.884 213.326L-369.626 225.53L-250.724 193.815C-250.603 192.126 -250.507 190.436 -250.428 188.747L-240.668 224.565L-10.9764 167.897L53.1348 152.079C59.5773 150.601 65.9896 149.352 72.1305 148.254C72.1305 160.338 72.1305 172.416 72.1305 184.5L157.258 185.296C157.506 183.8 157.765 182.304 158.024 180.814L173.467 180.959C184.946 181.278 196.414 176.47 206.409 170.021L206.265 185.755L285.565 186.497C287.839 173.912 290.433 161.382 293.262 148.911C299.005 123.603 305.725 98.5298 312.662 73.5231C310.533 73.6679 308.747 74.6211 308.747 74.6211L308.759 74.609Z" fill="#4CB96B" stroke="black" stroke-width="2.13" stroke-linecap="round" stroke-linejoin="round"/>
<g style="mix-blend-mode:multiply" opacity="0.43">
<path d="M296.32 75.5022C294.16 64.9384 285.034 53.337 273.711 54.8754C262.394 56.4138 257.37 69.9096 257.37 69.9096C251.585 63.8826 245.13 68.7452 245.13 68.7452C219.408 48.3718 203.863 77.3965 203.863 77.3965C198.706 71.9367 188.04 75.5685 188.831 84.0992C186.195 83.8699 183.89 84.8895 182.581 86.9166C180.422 77.7887 176.368 72.1961 167.175 71.1765C157.982 70.157 150.767 78.3498 150.682 86.1021C149.844 85.6376 145.808 85.8186 143.208 88.5938C138.467 85.4506 132.212 82.5125 124.919 81.9937C108.209 80.8052 102.919 84.7869 102.919 84.7869C102.919 84.7869 96.428 72.7753 85.7026 71.448C80.7441 70.8326 75.3271 74.2111 70.8451 78.036C64.8188 59.3579 41.2145 53.4275 37.0944 70.1931C31.219 66.8931 21.7302 72.0694 24.0043 78.7479C21.4587 79.122 19.45 80.4251 18.5753 82.3315C14.8895 75.466 10.0396 71.8341 1.1299 72.9623C-7.77979 74.0905 -13.1666 82.1928 -11.8576 88.4309C-13.3596 88.0991 -23.5603 81.143 -18.3242 90.7717C-21.4671 88.8834 -43.0747 84.5215 -53.0823 102.506C-64.0007 89.8124 -78.9488 101.595 -78.9488 101.595C-90.6936 89.1609 -107.735 102.337 -107.735 102.337C-113.037 93.7339 -122.749 101.028 -122.749 101.028C-133.137 81.0525 -151.378 99.4109 -151.378 99.4109C-157.019 87.9482 -172.383 77.3965 -187.367 82.5849C-202.351 87.7733 -205.717 104.792 -205.717 104.792C-215.116 99.6281 -222.638 107.163 -222.638 107.163C-227.934 99.8574 -241.217 101.691 -254.06 108.768C-263.784 114.125 -271.409 121.329 -274.552 124.52C-281.29 119.272 -284.867 124.834 -285.307 127.229C-291.629 120.937 -297.553 127.688 -297.553 127.688C-300.569 122.475 -305.751 126.849 -305.751 126.849C-311.705 114.759 -321.574 119.682 -321.574 119.682C-324.813 112.744 -335.761 110.693 -343.839 113.775C-351.922 116.858 -351.077 122.747 -351.077 122.747C-356.271 119.603 -360.253 124.122 -360.253 124.122C-382.343 114.584 -389.238 137.479 -389.238 137.479C-393.883 134.613 -401.158 139.03 -399.239 144.809C-401.212 145.117 -402.34 151.735 -402.979 153.376C-405.995 147.428 -411.418 140.731 -418.338 141.66C-425.257 142.589 -428.122 147.608 -426.964 152.996C-428.14 152.7 -435.934 155.373 -431.651 163.705C-432.489 163.149 -434.975 162.347 -438.178 162.112V214.164C-438.178 217.676 -438.069 221.211 -437.912 224.758L-398.25 215.51C-385.281 212.723 -371.66 213.338 -364.373 203.522L-264.418 180.205C-264.568 179.312 -264.719 178.425 -264.858 177.532L-258.132 208.3L-138.572 182.63C-135.302 176.175 -127.267 177.442 -121.368 172.223C-114.919 166.516 -109.545 165.122 -100.949 163.174C-91.3089 160.99 -81.609 159.059 -71.9634 156.881C-51.6949 152.308 -31.4385 147.578 -11.0614 143.488C9.11664 139.44 29.4515 136.128 49.8889 134.149C54.4795 133.702 60.8737 139.367 65.4583 138.818C66.4234 138.704 67.3705 138.511 68.3055 138.281C68.3055 156.742 68.3115 175.209 68.2753 193.67C86.5833 193.393 97.1399 193.031 97.0614 192.548C96.4039 188.488 95.6619 184.44 94.9019 180.398L169.545 181.092C187.087 181.58 204.472 186.944 216.724 175.933L287.441 176.591C289.238 167.324 291.199 158.088 293.286 148.887C298.449 126.137 304.403 103.574 310.592 81.0827C304.826 73.4268 296.338 75.4901 296.338 75.4901L296.32 75.5022Z" fill="#44A66C"/>
</g>
<path d="M436.999 84.1176C-62.2817 109.523 -448.759 185.556 -448.759 187.415C-448.759 187.415 -452.245 179.554 -458 166.408L-454.58 1181.46H1536.08L1532.66 287.954C1300.16 183.023 907.626 60.1667 436.999 84.1176V84.1176Z" fill="#4CB96B" stroke="black" stroke-width="2.13" stroke-linecap="round" stroke-linejoin="round"/>
</svg>
