<svg xmlns="http://www.w3.org/2000/svg" width="1921" height="1430" fill="none" xmlns:v="https://vecta.io/nano"><style><![CDATA[.B{fill-rule:evenodd}.C{fill:#a7a7a8}.D{opacity:.2}.E{fill:#474757}]]></style><path d="M.848 276.964l1920.002-200V1229.96L.848 1429.96V276.964z" fill="#fff"/><g clip-path="url(#B)"><g class="B"><path d="M1738.45 38.819s10.7 52.736 9.48 65.339c-1.21 12.603-25.39 40.437-25.39 40.437s-25.52 54.759-33.76 81.548c-8.23 26.789-68.8 97.722-68.8 97.722h-128.83c-45.1 0-114.34-23.588-114.34-23.588s-65.3-119.086-70.9-124.68c-5.61-5.594-37.14-16.849-37.14-16.849S1217.05 65.946 1213 41.414l143.48 5.931 381.97-8.526z" fill="url(#A)"/><path d="M1738.45 38.819l-67.83-8.492-39.4-6.739-224.94 3.37S1350.3.404 1338.12 0c-12.19-.404-39.67 30.328-39.67 30.328L1213 41.414s39.03 13.479 69.11 13.007l-28.6 9.604a55.34 55.34 0 0 0 18.1 9.065c11.38 3.37 96.86 5.964 137.44 5.493s58.3-14.557 58.3-14.557l-18.6-7.043 21.94-2.595s66.41 11.625 91.73 12.434a321.01 321.01 0 0 0 57.86-5.358l-42.16-13.479s22.52.27 60.77 3.707c34.4 3.167 75.65-7.683 99.56-12.872z" fill="#ceccd4"/></g><g style="mix-blend-mode:multiply" opacity=".35" class="B C"><path d="M1638.79 51.725v36.798l37.44 6.369s1.65.708 5.77 11.288 23.19 36.629 23.19 36.629l17.35 1.921-13.9 31.035s-20.02.202-27.99 5.122-25.63 19.68-25.63 19.68l-10.6 28.979-11.27-62.037c-.71-8.458-11.01-44.851-9.39-50.984s-.64-30.125-.64-30.125l-2.84-24.936s-54.25 7.312-59.89 9.3c-5.63 1.988-8.13 24.667-8.13 24.667l-18.54 42.728 20.7 62.104-7.97 52.669-2.6 39.595L1514.48 324h-23.33l-20.46-109.281c-1.38-6.368 5.03-21.128 5.03-21.128l-9.28-64.699.91-64.867-18.6-7.043 21.94-2.595 80.32 11.356c11.41 1.078 69.58-5.391 69.58-5.391l-34.94-12.738 53.14 4.111z"/></g><g style="mix-blend-mode:multiply" opacity=".35" class="B C"><path d="M1341.29 78.683L1294.8 86.4l7.39 17.759 20.26 48.524 24.31 23.082 27.24 10.11 21.2 14.759h-18.46l1.42 19.646 9.85 46.771.54 37.068-11.74-3.775-70.9-124.68s-33.76-10.446-37.14-16.848c-3.37-6.403-51.41-95.398-55.77-117.402l69.11 13.007-28.6 9.604s20.26 8.963 33.76 11.086c13.51 2.123 54.02 3.572 54.02 3.572z"/></g><g style="mix-blend-mode:color-dodge" opacity=".46" class="B"><path d="M1403.71 26.52l16.88 9.031s-12.39 3.033-19.61 5.189c-7.23 2.157-46.76-1.281-53.82-3.37-7.05-2.089-32.88-10.851-32.88-10.851l-1.38-8.795S1332.24-.977 1338.12 0c5.87.977 55.33 21.061 65.59 26.52z" fill="#aba7b5"/></g><g style="mix-blend-mode:multiply" opacity=".33" class="B E"><path d="M1296.35 30.664l16.48 10.109 25.83.674h54.99s-42.23-3.942-48.65-5.425c-6.41-1.483-30.72-9.503-30.72-9.503l-1.38-8.795-16.55 12.94z"/></g><g style="mix-blend-mode:multiply" opacity=".34" class="B E"><path d="M1638.79 88.523l-15.67 36.663-2.53-64.8-43.76-12.738 61.96 4.077v36.798z"/></g><g style="mix-blend-mode:multiply" opacity=".34" class="B E"><path d="M1282.11 54.421l-28.6 9.604 12.29 89.635s-38.55-73.325-52.8-112.246l69.11 13.007z"/></g><g style="mix-blend-mode:multiply" opacity=".34" class="B E"><path d="M1551.01 65.777l-36.53 35.382-22.62 24.026-4.59 20.556-20.26-12.873.34-68.81-18.6-7.043 21.94-2.595 80.32 11.356z"/></g><g style="mix-blend-mode:multiply" class="D C"><path d="M1359.92 166.768c.45-1.062.96-2.098 1.52-3.1.24-.472.41-.977.68-1.416.33-.593.74-1.137 1.21-1.617.94-1.013 2.09-1.798 3.38-2.291a8.83 8.83 0 0 1 4.39-.27 3.27 3.27 0 0 1 1.17.607 3.45 3.45 0 0 1 .86 1.01h0c.19.203.36.43.5.674 0 .304.24.573.34.843.17.618.17 1.269 0 1.887-.31 2.367-1.06 4.654-2.23 6.739-.69 1.257-1.66 2.34-2.83 3.168a6.21 6.21 0 0 1-3.99 1.213 6.46 6.46 0 0 1-2.6-.775c-.78-.489-1.43-1.145-1.92-1.921-.43-.705-.7-1.499-.78-2.321s.02-1.654.3-2.43h0z"/></g><g style="mix-blend-mode:multiply" class="D C"><path d="M1384.13 155.345c-2.18-3.257-3.62-6.949-4.22-10.817a13.93 13.93 0 0 1 .71-7.717c.92-1.991 2.05-3.878 3.38-5.627 2.43-3.569 5.77-6.42 9.69-8.256a17.61 17.61 0 0 1 3.03-1.045c2.35-1.116 4.94-1.604 7.53-1.415 3.01.389 5.81 1.738 7.99 3.845s3.61 4.859 4.1 7.848c.62 3.978-.12 8.049-2.09 11.558a100.4 100.4 0 0 1-5.44 9.57c-2.63 3.808-5.91 7.852-10.77 8.424-2.68.31-5.39-.12-7.85-1.243-2.45-1.123-4.55-2.896-6.06-5.125h0z"/></g><g style="mix-blend-mode:multiply" class="D C"><path d="M1377.01 206.126c-.61-1.475-1.09-2.996-1.45-4.549l-.71-2.055a13.77 13.77 0 0 1-.31-2.932c.05-2.318.55-4.605 1.45-6.739a21.65 21.65 0 0 1 4.26-6.47 6.12 6.12 0 0 1 3.71-1.719h.27c.38-.146.78-.215 1.18-.202h1.19c.76.236 1.42.738 1.85 1.415a19.32 19.32 0 0 1 4.19 8.189c.46 2.143.46 4.36 0 6.503-.48 2.476-1.57 4.794-3.17 6.74-.94 1.218-2.09 2.266-3.38 3.1a9.94 9.94 0 0 1-3.88 1.348c-1.04.145-2.09-.03-3.02-.5a5.06 5.06 0 0 1-2.18-2.129z"/></g><g style="mix-blend-mode:multiply" class="D C"><path d="M1645.98 198.309c1.58 2.156 11.24-1.719 12.86-3.909 10.13-13.85 11.38-32.08 5.03-28.576s-29.24 16.782-17.89 32.485z"/></g><g style="mix-blend-mode:multiply" class="D C"><path d="M1628.25 169.161a4.12 4.12 0 0 1 1.73-.366c.6.004 1.18.138 1.72.391a4.08 4.08 0 0 1 1.4 1.075c.39.455.67.988.82 1.562.91 2.533.99 5.29.23 7.871a12.73 12.73 0 0 1-4.48 6.484c-6.35 5.021-16.17-.977-16.1-6.74.06-3.673 9.11-7.986 14.68-10.277z"/></g><g style="mix-blend-mode:multiply" class="D C"><path d="M1466.2 233.792c-.57 7.413-2.06 35.989-1.45 40.673s30.72 10.682 31.84 4.583c1.11-6.1-21.51-48.727-25.86-51.355-4.36-2.629-4.53 3.909-4.53 6.099z"/></g></g><defs><linearGradient id="A" x1="1472.99" y1="383.779" x2="1483.11" y2="-38.045" gradientUnits="userSpaceOnUse"><stop offset=".12" stop-color="#cfccd4"/><stop offset="1" stop-color="#2c2733"/></linearGradient><clipPath id="B"><path fill="#fff" transform="translate(1213)" d="M0 0h535v324H0z"/></clipPath></defs></svg>