<svg xmlns="http://www.w3.org/2000/svg" xmlns:xlink="http://www.w3.org/1999/xlink" width="389" height="378" fill="none" xmlns:v="https://vecta.io/nano"><style><![CDATA[.B{fill:#ffc404}.C{opacity:.2}.D{stroke:#000}.E{stroke-width:1.59}.F{stroke-linejoin:round}]]></style><path d="M1.039 191.407c49.07 11.634 65.565 74.704 29.982 114.681 47.719-21.176 97.094 17.864 89.686 70.912l14.272-4.749s-.174-9.019 9.805-19.607c31.094-19.106 72.886-10.893 91.102 24.356l14.273-4.749s-3.291-25.468 5.098-48.626c19.175-21.11 49.593-30.369 77.266-17.537l14.272-4.75s-23.162-21.785-27.76-50.368c4.75-27.603 24.862-52.657 54.67-59.563-49.048-11.633-65.543-74.725-29.982-114.702-12.062 5.64-25.604 7.299-38.671 4.738a62.78 62.78 0 0 1-34.019-18.986c-12.769-29.716-2.746-61.436-2.746-61.436l-14.272 4.749c-15.252 24.988-41.138 36.382-65.368 34.138C162.979 29.017 152.999 1 152.999 1l-14.141 4.728V8.93a74.24 74.24 0 0 1-13.299 42.475 74.26 74.26 0 0 1-35.205 27.239c-22.988-.24-33.926-6.775-33.926-6.775l-14.163 4.815c31.66 39.977 8.999 103.068-41.204 114.702l-.022.021z" fill="#efa500" class="D E F"/><use xlink:href="#B" class="B"/><g class="D E F"><use xlink:href="#B"/><path d="M196.732 317.569l7.844-.261c34.183-2.399 66.048-18.153 88.705-43.855a139.68 139.68 0 0 0 36.062-94.049C329.081 109.82 276.416 55.225 209.5 55.225c-2.592 0-5.229 0-7.844.24a130.31 130.31 0 0 0-88.683 43.877c-23.399 25.799-36.294 59.419-36.149 94.245.261 69.475 52.927 123.983 119.908 123.983z" class="B"/></g><path d="M302.763 247.768a149.93 149.93 0 0 0-3.377-150.322l-2.484-3.529c20.295 23.218 31.387 53.062 31.18 83.897.284 72.176-55.628 134.244-124.875 138.644-15.675 1.051-31.4-1.068-46.238-6.23 6.755 1.132 92.388 19.803 145.794-62.46z" fill="#dcf2ae" class="C"/><path d="M164.416 312.471l4.467-8.213c.075-.137.195-.243.339-.301a.67.67 0 0 1 .453-.018c.148.046.276.142.362.271a.68.68 0 0 1 .11.44l-1.09 9.825-5.774-1.416m-7.89-4.292l2.833-3.79c.218-.305.915 0 .893.414l-.501 5.206-4.009-1.699" fill="#000"/><path d="M299.885 234.349c28.407-57.417 8.1-125.396-45.358-151.835s-119.822-1.326-148.229 56.091-8.1 125.397 45.358 151.836 119.822 1.326 148.229-56.091z" class="B D E F"/><g style="mix-blend-mode:multiply" opacity=".47"><path d="M134.737 268.877a155.39 155.39 0 0 0 52.774 10.327c14.668.428 29.276-2.045 42.985-7.28s26.247-13.125 36.896-23.22a96.58 96.58 0 0 0 16.385-21.132 103.88 103.88 0 0 0 5.426-12.2 130.79 130.79 0 0 0 5.142-12.636 110.24 110.24 0 0 0 .589-59.758 113.51 113.51 0 0 0-47.741-63.746c38.415 15.25 65.368 53.702 65.499 100.215.24 63.179-48.634 117.36-109.187 121.216a101.13 101.13 0 0 1-48.663-8.761 101.12 101.12 0 0 1-38.691-30.78c6.166 2.81 12.463 5.294 18.586 7.755z" fill="#efa500"/></g><g style="mix-blend-mode:color-dodge" class="C B"><path d="M125.192 153.217c-1.328-.679-2.345-1.841-2.843-3.247s-.44-2.949.163-4.313c.61-1.155 1.341-2.244 2.179-3.246l.153-.305a5.82 5.82 0 0 1 3.284-2.913c1.434-.505 3.008-.429 4.386.212 1.352.689 2.388 1.872 2.891 3.304s.435 3.003-.189 4.386c-.611 1.156-1.341 2.243-2.179 3.246l-.153.305a5.8 5.8 0 0 1-3.321 2.855c-1.438.48-3.007.378-4.371-.284h0z"/></g><g style="mix-blend-mode:color-dodge" class="C B"><path d="M172.648 138.533c-2.898 1.525-6.057 1.416-7.212-.435a8.71 8.71 0 0 1-.872-2.506.98.98 0 0 0-.13-.196c-1.112-1.721.392-4.815 3.203-6.296s6.035-1.394 7.212.436a8.19 8.19 0 0 1 .893 2.505c-.007.073-.007.146 0 .218 1.199 1.721-.261 4.684-3.094 6.274z"/></g><g style="mix-blend-mode:color-dodge" class="C B"><path d="M137.947 129.122c-1.46.763-3.05.719-3.639-.218-.19-.404-.336-.828-.435-1.263h0c-.545-.872.196-2.418 1.612-3.159s3.029-.719 3.639.218c.213.395.36.821.436 1.263.544.872-.175 2.397-1.613 3.159z"/></g><g style="mix-blend-mode:color-dodge" class="C B"><path d="M153.176 118.447c-.981 2.527-3.007 4.183-4.729 3.638-.687-.261-1.333-.62-1.917-1.067-.058-.012-.117-.012-.174 0-1.635-.458-2.376-3.203-1.417-5.643s2.985-4.139 4.729-3.638c.691.252 1.338.612 1.917 1.067.056.022.118.022.174 0 1.613.48 2.354 3.181 1.417 5.643z"/></g><path d="M176.352 170.432l-.672 9.332c-.131 2.028-1.958 3.497-3.947 3.363s-3.571-1.871-3.44-3.898l.672-9.333c.254-3.61-1.286-5.311-3.681-5.494-3.776-.282-4.907 3.475-4.948 4.003l-.054.891-.673 9.333c-.131 2.027-1.915 3.533-3.943 3.403-1.988-.134-3.532-1.874-3.401-3.902l.673-9.332c.254-3.611-1.287-5.311-3.722-5.492-3.776-.282-4.864 3.512-4.908 4l-.727 10.224c-.13 2.028-1.958 3.497-3.946 3.363s-3.571-1.871-3.441-3.899l1.194-16.918c.168-2.07 1.949-3.616 3.937-3.483s3.575 1.911 3.407 3.982l-.095 1.42c.275-1.716 3.134-5.038 7.839-4.745 3.408.229 6.176 2.16 7.28 6.113 1.45-2.732 4.487-5.3 8.71-4.971 4.788.327 8.368 3.933 7.803 12.006l.083.034zm31.455.251c-.494 8.25-7.956 11.753-13.202 11.45-5.285-.31-12.243-4.725-11.75-12.974.525-8.202 7.95-11.918 13.227-11.568 5.246.302 12.201 4.922 11.685 13.084l.04.008zm-17.639-1.067c-.206 3.454 1.93 5.971 4.849 6.185 2.848.158 5.342-2.064 5.548-5.519.191-3.58-1.976-6.144-4.824-6.303-2.887-.166-5.342 2.065-5.582 5.676l.009-.039zm34.52-19.955c.403.161 1.329.563 1.892 1.61.846 1.609.202 2.978-1.207 3.702-.886.483-1.973.684-3.261.201-1.208-.362-2.013-.201-2.697.161-1.047.563-1.409 1.409-1.006 2.133.12.201.362 1.006 2.214.644l2.777-.523c3.502-.684 7.165-.644 9.178 3.139 2.496 4.748-.644 9.135-4.911 11.388-3.784 2.013-6.521 1.409-8.292 1.006-.363-.12-2.214-.804-3.019-2.334-.524-1.006-.645-2.736 1.167-3.702 1.288-.684 2.455-.282 3.381.04 1.933.523 3.019.242 3.986-.281 1.65-.846 1.69-1.811 1.408-2.415-.08-.161-.523-1.087-2.656-.684l-2.214.443c-4.911.965-7.85-.363-9.46-3.381-2.335-4.427.684-8.531 4.468-10.544 2.617-1.368 5.918-1.851 8.212-.724l.04.121zm30.373 7.526c.825 2.25-.636 4.259-4.134 5.495-3.327 1.183-7.15 1.39-9.719-5.783l-3.339-9.251-.865.311c-1.689.628-3.197-.142-3.732-1.653-.567-1.557.123-3.077 1.812-3.705l.865-.311-.906-2.507c-.676-1.9.36-4.058 2.221-4.741s4.026.315 4.742 2.221l.906 2.508 2.508-.906c1.683-.588 3.158.136 3.686 1.687.534 1.511-.07 3.004-1.8 3.625l-2.508.906 3.448 9.594c.426 1.168 1.019 1.792 1.844 1.475.429-.136 1.114-.597 1.583-.727 1.511-.533 2.767.033 3.328 1.63l.06.132zm-109.997 54.568c-1.972 8.21-8.735 10.584-13.646 9.377-3.18-.765-4.831-2.857-5.193-4.185l-1.892 7.807c-.483 1.972-2.576 3.139-4.468 2.656-1.933-.483-3.221-2.455-2.738-4.427l6.079-25.232c.483-1.932 2.657-3.099 4.549-2.656 1.932.483 3.18 2.495 2.737 4.426l.08-.402c.966-1.409 3.583-2.616 6.642-1.851 4.831 1.167 9.823 6.559 7.89 14.527l-.04-.04zm-7.165-1.73c.926-3.823-.966-6.399-3.543-7.003-1.972-.482-5.152.282-6.199 4.669-1.087 4.467 1.409 6.559 3.381 7.042 2.577.604 5.435-.845 6.361-4.668v-.04zm36.309 6.318c-1.207 8.169-8.896 11.067-14.089 10.302-5.233-.764-11.794-5.714-10.627-13.883 1.167-8.13 8.896-11.188 14.17-10.423 5.192.764 11.714 5.915 10.546 14.044v-.04zm-17.47-2.535c-.483 3.42 1.449 6.117 4.307 6.559 2.818.403 5.515-1.609 5.998-5.03.523-3.541-1.449-6.278-4.307-6.68s-5.515 1.609-6.039 5.191l.041-.04zm48.024 3.058c0 8.451-5.998 12.315-11.07 12.315-3.26 0-5.354-1.65-6.038-2.858v8.009c0 2.012-1.731 3.662-3.744 3.662-1.972 0-3.703-1.61-3.703-3.662v-25.957c0-1.972 1.811-3.662 3.784-3.662s3.703 1.65 3.703 3.662v-.402c.604-1.61 2.858-3.381 5.998-3.381 4.992 0 11.07 4.065 11.07 12.274h0zm-7.366 0c0-3.903-2.456-5.996-5.072-5.996-2.013 0-4.952 1.489-4.952 5.996 0 4.628 2.899 6.037 4.952 6.037 2.616 0 5.072-2.093 5.072-6.037zm14.331-.161l-2.335-9.054c-.524-1.972.684-3.944 2.657-4.467 1.932-.483 3.945.644 4.428 2.616l2.334 9.054c.886 3.501 2.899 4.628 5.274 4.024 3.663-.965 3.502-4.869 3.381-5.352l-2.576-9.94c-.523-1.972.724-3.944 2.657-4.467 1.932-.483 3.985.644 4.508 2.616l4.267 16.459c.523 2.013-.724 4.065-2.657 4.548a3.75 3.75 0 0 1-4.508-2.696l-.362-1.369c.281 1.69-1.369 5.795-5.918 6.962-4.629 1.208-9.138-1.046-11.191-8.934h.041zm37.959-.523c-1.811.845-4.026.121-4.911-1.73l-11.07-23.341c-.886-1.851 0-4.065 1.771-4.91 1.812-.845 4.066-.08 4.911 1.771l11.07 23.341c.886 1.851 0 4.024-1.771 4.869h0zm18.839-36.58l10.185 13.763c1.207 1.65.724 3.984-.886 5.191-1.369 1.006-3.301.966-4.589-.161.161 1.368-.443 3.944-3.18 5.956-4.066 3.018-11.191 3.461-16.223-3.3-4.871-6.6-2.415-13.481 1.61-16.459 2.536-1.852 5.395-1.811 6.803-.845l.242.321c-1.167-1.609-.805-3.943.805-5.11 1.57-1.167 4.026-.926 5.193.684l.04-.04zm-.684 11.066c-2.697-3.622-5.918-3.098-7.528-1.891-2.093 1.569-2.858 4.668-.523 7.847 2.375 3.179 5.555 3.381 7.689 1.851 1.61-1.207 3.099-4.064.362-7.807zm15.135-29.498c1.65 1.288 1.771 3.341-.161 5.795-2.013 2.536-1.248 5.594-.282 6.48l8.051 6.318c1.57 1.207 1.811 3.581.604 5.151s-3.583 1.891-5.153.644l-13.364-10.464c-1.651-1.287-1.892-3.662-.685-5.231s3.583-1.892 5.233-.604l1.127.886c-1.247-1.167-2.334-5.514-.08-8.451 1.369-1.731 3.301-1.65 4.67-.564l.04.04z" fill="#fff" stroke-width="1.5" stroke-miterlimit="10" class="D"/><defs ><path id="B" d="M15.312 186.681c49.07 11.634 65.565 74.725 29.982 114.702 47.741-21.154 97.094 17.864 89.708 70.934 28.13-45.881 91.516-45.881 115.179 0-2.179-53.07 50.966-92.088 96.636-70.934-31.66-39.977-8.999-103.068 41.183-114.702-49.07-11.634-65.565-74.725-30.005-114.702-47.74 21.176-97.094-17.864-89.707-70.913-28.152 45.881-91.516 45.881-115.179 0 2.179 53.048-50.966 92.088-96.615 70.913 31.66 39.977 8.999 103.068-41.204 114.702h.022z"/></defs></svg>