<svg width="443" height="138" viewBox="0 0 443 138" fill="none" xmlns="http://www.w3.org/2000/svg">
<rect x="0.831055" y="39" width="385.398" height="60" rx="30" fill="white"/>
<path d="M66.1518 75.9986L66.1537 61.8386L60.5857 61.8393L60.5861 59.1993L74.8421 59.1973L74.8417 61.8373L69.2737 61.8381L69.2718 75.9981L66.1518 75.9986ZM84.1671 63.0361C85.1911 63.0359 86.103 63.2358 86.903 63.6357C87.7189 64.0356 88.3589 64.6515 88.8227 65.4834C89.2866 66.2993 89.5185 67.3553 89.5183 68.6513L89.5173 75.9953L86.5173 75.9957L86.5183 69.0357C86.5184 67.8997 86.2465 67.0518 85.7026 66.4918C85.1747 65.9319 84.4307 65.652 83.4707 65.6522C82.7667 65.6522 82.1427 65.7963 81.5987 66.0844C81.0546 66.3725 80.6306 66.8045 80.3265 67.3806C80.0384 67.9406 79.8943 68.6526 79.8942 69.5166L79.8933 75.9966L76.8933 75.9971L76.8957 58.1891L79.8957 58.1886L79.8946 66.6366L79.2467 65.5807C79.6948 64.7647 80.3429 64.1406 81.191 63.7085C82.055 63.2603 83.0471 63.0362 84.1671 63.0361ZM99.3704 76.1619C97.9464 76.1621 96.6985 75.8823 95.6266 75.3225C94.5706 74.7466 93.7467 73.9627 93.1549 72.9708C92.579 71.9789 92.2911 70.8509 92.2913 69.5869C92.2915 68.3069 92.5716 67.1789 93.1318 66.2028C93.7079 65.2107 94.492 64.4346 95.4841 63.8745C96.4922 63.3143 97.6362 63.0342 98.9162 63.034C100.164 63.0338 101.276 63.3057 102.252 63.8495C103.228 64.3934 103.996 65.1613 104.556 66.1532C105.116 67.1451 105.395 68.3131 105.395 69.6571C105.395 69.7851 105.387 69.9291 105.371 70.0891C105.371 70.2491 105.363 70.4011 105.347 70.5451L94.6672 70.5466L94.6675 68.5546L103.763 68.5533L102.587 69.1775C102.603 68.4415 102.452 67.7935 102.132 67.2336C101.812 66.6736 101.372 66.2337 100.812 65.9137C100.268 65.5938 99.6359 65.4339 98.9159 65.434C98.1799 65.4341 97.5318 65.5942 96.9718 65.9143C96.4278 66.2344 95.9957 66.6824 95.6756 67.2585C95.3716 67.8185 95.2195 68.4825 95.2194 69.2505L95.2193 69.7305C95.2192 70.4985 95.3951 71.1785 95.747 71.7704C96.0989 72.3624 96.5949 72.8183 97.2348 73.1382C97.8748 73.4582 98.6108 73.618 99.4428 73.6179C100.163 73.6178 100.811 73.5057 101.387 73.2817C101.963 73.0576 102.475 72.7055 102.923 72.2255L104.531 74.0732C103.955 74.7453 103.227 75.2654 102.347 75.6335C101.482 75.9857 100.49 76.1618 99.3704 76.1619ZM115.197 75.9917L115.199 59.1917L117.767 59.1914L125.11 71.4544L123.766 71.4546L130.991 59.1896L133.559 59.1892L133.581 75.9892L130.629 75.9896L130.607 63.8216L131.231 63.8215L125.085 74.0704L123.693 74.0706L117.455 63.8234L118.175 63.8233L118.173 75.9913L115.197 75.9917ZM143.591 76.1558C142.279 76.156 141.111 75.8762 140.087 75.3163C139.063 74.7404 138.255 73.9565 137.663 72.9646C137.071 71.9727 136.776 70.8448 136.776 69.5808C136.776 68.3008 137.072 67.1727 137.664 66.1966C138.256 65.2045 139.064 64.4284 140.088 63.8683C141.113 63.3082 142.281 63.028 143.593 63.0278C144.921 63.0276 146.097 63.3075 147.12 63.8673C148.16 64.4272 148.968 65.1951 149.544 66.171C150.136 67.1469 150.432 68.2829 150.432 69.5789C150.432 70.8429 150.135 71.9709 149.543 72.963C148.967 73.9551 148.159 74.7392 147.119 75.3153C146.095 75.8755 144.919 76.1556 143.591 76.1558ZM143.591 73.5878C144.327 73.5877 144.983 73.4276 145.559 73.1075C146.135 72.7875 146.583 72.3234 146.903 71.7153C147.239 71.1073 147.408 70.3953 147.408 69.5793C147.408 68.7473 147.24 68.0353 146.904 67.4433C146.584 66.8354 146.136 66.3715 145.56 66.0515C144.984 65.7316 144.336 65.5717 143.616 65.5718C142.88 65.5719 142.224 65.732 141.648 66.0521C141.088 66.3722 140.64 66.8362 140.304 67.4443C139.968 68.0363 139.8 68.7483 139.8 69.5803C139.8 70.3963 139.967 71.1083 140.303 71.7163C140.639 72.3242 141.087 72.7882 141.647 73.1081C142.223 73.428 142.871 73.5879 143.591 73.5878ZM157.26 76.1539C156.188 76.1541 155.156 76.0182 154.164 75.7463C153.188 75.4585 152.412 75.1146 151.836 74.7147L152.988 72.4345C153.564 72.8024 154.252 73.1063 155.052 73.3462C155.852 73.5861 156.652 73.706 157.452 73.7059C158.396 73.7058 159.076 73.5777 159.492 73.3216C159.924 73.0655 160.14 72.7215 160.14 72.2895C160.14 71.9375 159.996 71.6735 159.708 71.4976C159.42 71.3056 159.044 71.1617 158.58 71.0657C158.116 70.9698 157.596 70.8819 157.02 70.8019C156.46 70.722 155.892 70.6181 155.316 70.4902C154.756 70.3463 154.244 70.1463 153.78 69.8904C153.316 69.6185 152.94 69.2585 152.653 68.8105C152.365 68.3626 152.221 67.7706 152.221 67.0346C152.221 66.2186 152.453 65.5146 152.917 64.9225C153.381 64.3144 154.029 63.8504 154.861 63.5302C155.709 63.1941 156.709 63.026 157.861 63.0258C158.725 63.0257 159.597 63.1216 160.477 63.3135C161.357 63.5053 162.085 63.7772 162.661 64.1292L161.509 66.4093C160.901 66.0414 160.285 65.7935 159.661 65.6656C159.053 65.5217 158.445 65.4497 157.837 65.4498C156.925 65.45 156.245 65.5861 155.797 65.8581C155.365 66.1302 155.149 66.4742 155.149 66.8902C155.149 67.2742 155.293 67.5622 155.581 67.7541C155.869 67.9461 156.245 68.0981 156.709 68.21C157.173 68.3219 157.685 68.4179 158.245 68.4978C158.821 68.5617 159.389 68.6656 159.949 68.8095C160.509 68.9535 161.02 69.1534 161.484 69.4093C161.964 69.6493 162.348 69.9932 162.636 70.4412C162.924 70.8891 163.068 71.4731 163.068 72.1931C163.068 72.9931 162.828 73.6891 162.348 74.2812C161.884 74.8733 161.22 75.3374 160.356 75.6735C159.492 75.9936 158.46 76.1537 157.26 76.1539ZM170.475 76.1521C169.067 76.1523 167.979 75.7924 167.211 75.0725C166.443 74.3366 166.06 73.2567 166.06 71.8327L166.061 60.3367L169.061 60.3363L169.06 71.7603C169.06 72.3683 169.212 72.8403 169.516 73.1762C169.835 73.5122 170.275 73.6801 170.835 73.68C171.507 73.6799 172.067 73.5039 172.516 73.1518L173.355 75.2877C173.003 75.5757 172.571 75.7918 172.059 75.9359C171.547 76.0799 171.019 76.152 170.475 76.1521ZM163.949 65.665L163.949 63.265L172.493 63.2638L172.493 65.6638L163.949 65.665ZM182.744 75.9824L182.746 59.1824L189.658 59.1814C191.146 59.1812 192.418 59.421 193.474 59.9009C194.546 60.3807 195.37 61.0686 195.946 61.9645C196.522 62.8605 196.809 63.9244 196.809 65.1564C196.809 66.3884 196.521 67.4525 195.945 68.3485C195.369 69.2446 194.545 69.9327 193.473 70.4129C192.417 70.893 191.144 71.1332 189.656 71.1334L184.472 71.1341L185.865 69.6699L185.864 75.9819L182.744 75.9824ZM185.865 70.0059L184.473 68.4941L189.513 68.4934C190.889 68.4932 191.921 68.2051 192.609 67.629C193.313 67.0369 193.665 66.2129 193.665 65.1569C193.665 64.0849 193.314 63.2609 192.61 62.685C191.922 62.1091 190.89 61.8212 189.514 61.8214L184.474 61.8221L185.866 60.2859L185.865 70.0059ZM205.349 76.1472C204.037 76.1474 202.869 75.8676 201.845 75.3077C200.821 74.7319 200.013 73.948 199.421 72.9561C198.829 71.9641 198.533 70.8362 198.534 69.5722C198.534 68.2922 198.83 67.1641 199.422 66.1881C200.014 65.196 200.822 64.4199 201.846 63.8597C202.87 63.2996 204.038 63.0194 205.35 63.0192C206.678 63.0191 207.854 63.2989 208.878 63.8587C209.918 64.4186 210.726 65.1865 211.302 66.1624C211.894 67.1383 212.19 68.2743 212.19 69.5703C212.189 70.8343 211.893 71.9623 211.301 72.9544C210.725 73.9465 209.917 74.7306 208.877 75.3067C207.853 75.8669 206.677 76.1471 205.349 76.1472ZM205.349 73.5792C206.085 73.5791 206.741 73.419 207.317 73.099C207.893 72.7789 208.341 72.3148 208.661 71.7068C208.997 71.0987 209.165 70.3867 209.166 69.5707C209.166 68.7387 208.998 68.0267 208.662 67.4348C208.342 66.8268 207.894 66.3629 207.318 66.043C206.742 65.723 206.094 65.5631 205.374 65.5632C204.638 65.5633 203.982 65.7234 203.406 66.0435C202.846 66.3636 202.398 66.8276 202.062 67.4357C201.726 68.0277 201.558 68.7398 201.558 69.5718C201.557 70.3878 201.725 71.0997 202.061 71.7077C202.397 72.3156 202.845 72.7796 203.405 73.0995C203.981 73.4194 204.629 73.5793 205.349 73.5792ZM222.161 76.1449C221.121 76.145 220.169 75.9052 219.305 75.4253C218.458 74.9454 217.778 74.2255 217.266 73.2656C216.77 72.2896 216.522 71.0577 216.522 69.5697C216.522 68.0657 216.763 66.8337 217.243 65.8736C217.739 64.9135 218.411 64.2014 219.259 63.7373C220.107 63.2572 221.075 63.0171 222.163 63.0169C223.427 63.0167 224.539 63.2886 225.499 63.8324C226.475 64.3763 227.243 65.1362 227.803 66.1121C228.379 67.088 228.666 68.24 228.666 69.568C228.666 70.896 228.378 72.056 227.802 73.0481C227.242 74.0242 226.474 74.7843 225.497 75.3284C224.537 75.8726 223.425 76.1447 222.161 76.1449ZM215.057 80.6339L215.059 63.1619L217.915 63.1615L217.915 66.1855L217.818 69.5935L218.058 73.0015L218.057 80.6335L215.057 80.6339ZM221.826 73.5769C222.546 73.5768 223.186 73.4168 223.746 73.0967C224.322 72.7766 224.778 72.3125 225.114 71.7045C225.45 71.0964 225.618 70.3844 225.618 69.5684C225.618 68.7364 225.45 68.0244 225.115 67.4325C224.779 66.8245 224.323 66.3606 223.747 66.0407C223.187 65.7208 222.547 65.5608 221.827 65.5609C221.107 65.561 220.459 65.7211 219.883 66.0412C219.307 66.3613 218.851 66.8254 218.515 67.4334C218.178 68.0255 218.01 68.7375 218.01 69.5695C218.01 70.3855 218.178 71.0975 218.514 71.7054C218.85 72.3134 219.306 72.7773 219.882 73.0972C220.458 73.4171 221.106 73.577 221.826 73.5769ZM236.935 76.1429C235.847 76.143 234.887 75.9431 234.055 75.5433C233.223 75.1274 232.575 74.5035 232.111 73.6715C231.647 72.8236 231.415 71.7596 231.415 70.4796L231.416 63.1596L234.416 63.1592L234.415 70.0712C234.415 71.2232 234.671 72.0872 235.183 72.6631C235.711 73.223 236.455 73.5029 237.415 73.5028C238.119 73.5027 238.727 73.3586 239.239 73.0705C239.767 72.7825 240.175 72.3504 240.463 71.7744C240.767 71.1983 240.919 70.4863 240.919 69.6383L240.92 63.1583L243.92 63.1579L243.919 75.9739L241.063 75.9743L241.063 72.5183L241.567 73.5742C241.135 74.4063 240.503 75.0464 239.671 75.4945C238.839 75.9266 237.927 76.1427 236.935 76.1429ZM247.846 75.9733L247.849 58.1653L250.849 58.1649L250.846 75.9729L247.846 75.9733ZM262.68 75.9713L262.68 73.3793L262.512 72.8273L262.513 68.2913C262.513 67.4113 262.249 66.7313 261.721 66.2514C261.193 65.7555 260.393 65.5076 259.321 65.5077C258.601 65.5078 257.889 65.6199 257.185 65.844C256.497 66.0681 255.913 66.3802 255.433 66.7803L254.257 64.5964C254.946 64.0684 255.762 63.6762 256.706 63.4201C257.666 63.148 258.658 63.0118 259.682 63.0117C261.538 63.0114 262.97 63.4592 263.978 64.3551C265.001 65.235 265.513 66.6029 265.513 68.4589L265.512 75.9709L262.68 75.9713ZM258.648 76.1398C257.688 76.14 256.848 75.9801 256.128 75.6602C255.408 75.3243 254.848 74.8684 254.448 74.2924C254.064 73.7005 253.872 73.0365 253.872 72.3005C253.873 71.5805 254.041 70.9325 254.377 70.3564C254.729 69.7804 255.297 69.3243 256.081 68.9882C256.865 68.6521 257.905 68.4839 259.201 68.4838L262.921 68.4832L262.921 70.4752L259.417 70.4757C258.393 70.4759 257.705 70.644 257.353 70.98C257.001 71.3001 256.825 71.7001 256.824 72.1801C256.824 72.7241 257.04 73.1561 257.472 73.476C257.904 73.7959 258.504 73.9559 259.272 73.9558C260.008 73.9556 260.664 73.7876 261.24 73.4515C261.832 73.1154 262.256 72.6193 262.513 71.9633L263.016 73.7632C262.728 74.5153 262.208 75.0993 261.456 75.5154C260.72 75.9315 259.784 76.1397 258.648 76.1398ZM269.362 75.9704L269.364 63.1543L272.22 63.154L272.219 66.682L271.883 65.65C272.268 64.7859 272.868 64.1299 273.684 63.6817C274.516 63.2336 275.548 63.0095 276.78 63.0093L276.779 65.8653C276.651 65.8333 276.531 65.8174 276.419 65.8174C276.307 65.8014 276.195 65.7934 276.083 65.7934C274.947 65.7936 274.043 66.1297 273.371 66.8018C272.699 67.4579 272.363 68.4419 272.363 69.7539L272.362 75.9699L269.362 75.9704Z" fill="#3A2657"/>
<path d="M301.362 69.8631C319.109 74.0705 325.075 96.8805 312.206 111.339C329.464 103.68 347.321 117.799 344.642 136.985L349.803 135.267C349.803 135.267 349.74 132.005 353.35 128.176C364.595 121.266 379.71 124.237 386.298 136.985L391.459 135.267C391.459 135.267 390.269 126.057 393.303 117.681C400.238 110.046 411.239 106.698 421.247 111.339L426.409 109.621C426.409 109.621 418.032 101.742 416.369 91.4045C418.087 81.4217 425.361 72.3608 436.141 69.8631C418.403 65.6557 412.437 42.8379 425.298 28.3798C420.936 30.4195 416.038 31.0196 411.312 30.0933C406.587 29.167 402.278 26.7624 399.009 23.2269C394.391 12.4798 398.016 1.00788 398.016 1.00788L392.854 2.72552C387.338 11.7628 377.976 15.8836 369.213 15.072C359.93 11.1325 356.32 1 356.32 1L351.206 2.70976C351.206 3.09846 351.206 3.48453 351.206 3.86798C351.212 9.3598 349.533 14.7213 346.396 19.2296C343.26 23.738 338.816 27.1763 333.664 29.081C325.35 28.9944 321.394 26.6306 321.394 26.6306L316.272 28.3719C327.722 42.83 319.527 65.6478 301.37 69.8552L301.362 69.8631Z" fill="#EFA500" stroke="black" stroke-width="1.59" stroke-linecap="round" stroke-linejoin="round"/>
<path d="M306.524 68.1536C324.271 72.3611 330.237 95.1789 317.368 109.637C334.634 101.986 352.483 116.098 349.812 135.291C359.985 118.698 382.91 118.698 391.468 135.291C390.68 116.098 409.9 101.986 426.417 109.637C414.967 95.1789 423.163 72.3611 441.311 68.1536C423.565 63.9462 417.599 41.1284 430.46 26.6703C413.194 34.3288 395.345 20.2095 398.016 1.02393C387.835 17.6173 364.919 17.6173 356.36 1.02393C357.148 20.2095 337.928 34.3288 321.419 26.6703C332.869 41.1284 324.673 63.9462 306.517 68.1536H306.524Z" fill="#FFC404"/>
<path d="M306.524 68.1536C324.271 72.3611 330.237 95.1789 317.368 109.637C334.634 101.986 352.483 116.098 349.812 135.291C359.985 118.698 382.91 118.698 391.468 135.291C390.68 116.098 409.9 101.986 426.417 109.637C414.967 95.1789 423.163 72.3611 441.311 68.1536C423.565 63.9462 417.599 41.1284 430.46 26.6703C413.194 34.3288 395.345 20.2095 398.016 1.02393C387.835 17.6173 364.919 17.6173 356.36 1.02393C357.148 20.2095 337.928 34.3288 321.419 26.6703C332.869 41.1284 324.673 63.9462 306.517 68.1536H306.524Z" stroke="black" stroke-width="1.59" stroke-linecap="round" stroke-linejoin="round"/>
<path d="M372.137 115.491C373.075 115.491 374.028 115.491 374.974 115.397C387.337 114.529 398.861 108.832 407.055 99.536C415.482 90.2141 420.132 78.0871 420.097 65.522C420.003 40.3563 400.956 20.6113 376.755 20.6113C375.817 20.6113 374.864 20.6113 373.918 20.698C361.556 21.5653 350.033 27.2663 341.845 36.5665C333.382 45.8968 328.718 58.0559 328.771 70.6513C328.866 95.7777 347.913 115.491 372.137 115.491Z" fill="#FFC404" stroke="black" stroke-width="1.59" stroke-linecap="round" stroke-linejoin="round"/>
<path opacity="0.2" d="M410.485 90.2465C415.086 81.8793 417.396 72.4457 417.182 62.8996C416.967 53.3534 414.236 44.0331 409.263 35.8809C408.974 35.4502 408.675 35.0247 408.365 34.6045C415.705 43.0015 419.717 53.7949 419.642 64.9468C419.744 91.0502 399.523 113.498 374.479 115.089C368.81 115.469 363.123 114.703 357.757 112.836C360.2 113.246 391.17 119.998 410.485 90.2465Z" fill="#DCF2AE"/>
<path d="M360.45 113.647L362.065 110.677C362.092 110.627 362.136 110.589 362.188 110.568C362.24 110.547 362.298 110.545 362.352 110.561C362.405 110.578 362.452 110.613 362.483 110.659C362.514 110.706 362.528 110.763 362.522 110.818L362.128 114.372L360.04 113.86" fill="black"/>
<path d="M357.186 112.308L358.21 110.937C358.289 110.827 358.541 110.937 358.534 111.087L358.352 112.97L356.902 112.355" fill="black"/>
<path d="M409.444 85.3934C419.718 64.6277 412.373 40.0423 393.04 30.4803C373.706 20.9183 349.704 30.0006 339.43 50.7662C329.157 71.5319 336.501 96.1173 355.835 105.679C375.168 115.241 399.17 106.159 409.444 85.3934Z" fill="#FFC404" stroke="black" stroke-width="1.59" stroke-linecap="round" stroke-linejoin="round"/>
<g style="mix-blend-mode:multiply" opacity="0.47">
<path d="M349.717 97.8813C355.813 100.226 362.272 101.49 368.803 101.616C374.108 101.771 379.391 100.876 384.349 98.9833C389.307 97.0903 393.842 94.2363 397.693 90.5853C400.013 88.3248 402.008 85.7526 403.619 82.9426C404.367 81.5154 405.022 80.0416 405.581 78.5303C406.28 77.0404 406.901 75.515 407.441 73.9604C409.5 66.9133 409.574 59.4344 407.654 52.3481C404.872 42.8307 398.739 34.6416 390.388 29.2939C404.281 34.8093 414.029 48.7159 414.076 65.5377C414.163 88.387 396.487 107.982 374.587 109.377C368.549 109.793 362.502 108.704 356.988 106.209C351.474 103.713 346.666 99.8876 342.995 95.0764C345.225 96.0928 347.502 96.991 349.717 97.8813Z" fill="#EFA500"/>
</g>
<g style="mix-blend-mode:color-dodge" opacity="0.2">
<path d="M346.264 56.0512C345.784 55.8055 345.416 55.3854 345.236 54.877C345.055 54.3686 345.077 53.8105 345.295 53.3172C345.515 52.8992 345.78 52.5057 346.083 52.1432L346.138 52.0329C346.381 51.5401 346.808 51.162 347.326 50.9794C347.844 50.7968 348.414 50.8243 348.912 51.0559C349.401 51.305 349.776 51.733 349.958 52.2509C350.14 52.7688 350.115 53.3369 349.889 53.8372C349.668 54.255 349.404 54.6485 349.101 55.0112L349.046 55.1215C348.796 55.6094 348.365 55.98 347.845 56.1538C347.325 56.3276 346.757 56.2908 346.264 56.0512V56.0512Z" fill="#FFC404"/>
</g>
<g style="mix-blend-mode:color-dodge" opacity="0.2">
<path d="M363.427 50.7408C362.379 51.2923 361.236 51.253 360.818 50.5832C360.668 50.2991 360.561 49.9935 360.503 49.6771C360.49 49.6518 360.474 49.628 360.456 49.6062C360.054 48.9838 360.598 47.8649 361.614 47.3292C362.631 46.7934 363.797 46.8249 364.223 47.4868C364.379 47.7692 364.488 48.0752 364.546 48.3928C364.543 48.419 364.543 48.4455 364.546 48.4716C364.979 49.0941 364.451 50.1656 363.427 50.7408Z" fill="#FFC404"/>
</g>
<g style="mix-blend-mode:color-dodge" opacity="0.2">
<path d="M350.876 47.3373C350.348 47.613 349.773 47.5973 349.56 47.2585C349.491 47.1123 349.439 46.959 349.403 46.8015V46.8015C349.206 46.4863 349.474 45.9269 349.986 45.659C350.498 45.3911 351.081 45.399 351.302 45.7378C351.379 45.8806 351.432 46.0349 351.46 46.1948C351.657 46.5099 351.397 47.0615 350.876 47.3373Z" fill="#FFC404"/>
</g>
<g style="mix-blend-mode:color-dodge" opacity="0.2">
<path d="M356.385 43.4761C356.03 44.3901 355.297 44.9889 354.675 44.7919C354.426 44.6976 354.192 44.5676 353.981 44.4059C353.96 44.4016 353.939 44.4016 353.918 44.4059C353.327 44.2404 353.059 43.2476 353.406 42.3652C353.753 41.4827 354.486 40.8681 355.116 41.0494C355.366 41.1405 355.6 41.2708 355.809 41.4354C355.83 41.4433 355.852 41.4433 355.873 41.4354C356.456 41.6088 356.724 42.5858 356.385 43.4761Z" fill="#FFC404"/>
</g>
<g style="mix-blend-mode:multiply" opacity="0.47">
<g style="mix-blend-mode:multiply" opacity="0.47">
<path d="M369.016 74.2047C369.016 74.4489 368.961 76.4266 368.961 76.4266C369.039 82.1232 364.311 84.542 361.08 84.9202C359.726 85.0584 358.358 84.9435 357.045 84.5814C356.546 84.4089 356.117 84.0787 355.822 83.6407C355.527 83.2028 355.382 82.6808 355.409 82.1534C355.437 81.6261 355.635 81.122 355.975 80.7172C356.314 80.3124 356.775 80.0288 357.29 79.9092C357.585 79.8655 357.887 79.8898 358.172 79.9801C359.111 80.1209 360.061 80.1736 361.009 80.1376C361.836 80.1232 362.623 79.7848 363.203 79.1953C363.782 78.6058 364.106 77.8124 364.106 76.986V75.4732C363.707 76.1894 363.14 76.798 362.454 77.2468C361.767 77.6955 360.982 77.9711 360.166 78.0497C356.817 78.4358 352.821 75.946 352.735 69.5088C352.648 63.2528 356.62 59.6915 359.914 59.3054C360.718 59.1601 361.548 59.2883 362.27 59.6696C362.993 60.0509 363.567 60.6634 363.901 61.4091V61.7242C363.875 61.0177 364.097 60.3242 364.529 59.7643C364.961 59.2045 365.575 58.8135 366.265 58.6593C366.599 58.644 366.932 58.6976 367.243 58.8167C367.555 58.9358 367.839 59.1178 368.077 59.3515C368.315 59.5851 368.502 59.8653 368.627 60.1746C368.752 60.4839 368.812 60.8156 368.803 61.1491L369.016 74.2047ZM364.209 68.1772C364.161 64.7341 362.231 63.828 360.891 63.9855C359.157 64.1904 357.565 65.9632 357.605 68.9494C357.644 71.9355 359.283 73.3695 361.017 73.1647C362.357 73.015 364.256 71.6913 364.209 68.1772V68.1772Z" fill="#EFA500"/>
<path d="M369.016 74.2047C369.016 74.4489 368.961 76.4266 368.961 76.4266C369.039 82.1232 364.311 84.542 361.08 84.9202C359.726 85.0584 358.358 84.9435 357.045 84.5814C356.546 84.4089 356.117 84.0787 355.822 83.6407C355.527 83.2028 355.382 82.6808 355.409 82.1534C355.437 81.6261 355.635 81.122 355.975 80.7172C356.314 80.3124 356.775 80.0288 357.29 79.9092C357.585 79.8655 357.887 79.8898 358.172 79.9801C359.111 80.1209 360.061 80.1736 361.009 80.1376C361.836 80.1232 362.623 79.7848 363.203 79.1953C363.782 78.6058 364.106 77.8124 364.106 76.986V75.4732C363.707 76.1894 363.14 76.798 362.454 77.2468C361.767 77.6955 360.982 77.9711 360.166 78.0497C356.817 78.4358 352.821 75.946 352.735 69.5088C352.648 63.2528 356.62 59.6915 359.914 59.3054C360.718 59.1601 361.548 59.2883 362.27 59.6696C362.993 60.0509 363.567 60.6634 363.901 61.4091V61.7242C363.875 61.0177 364.097 60.3242 364.529 59.7643C364.961 59.2045 365.575 58.8135 366.265 58.6593C366.599 58.644 366.932 58.6976 367.243 58.8167C367.555 58.9358 367.839 59.1178 368.077 59.3515C368.315 59.5851 368.502 59.8653 368.627 60.1746C368.752 60.4839 368.812 60.8156 368.803 61.1491L369.016 74.2047ZM364.209 68.1772C364.161 64.7341 362.231 63.828 360.891 63.9855C359.157 64.1904 357.565 65.9632 357.605 68.9494C357.644 71.9355 359.283 73.3695 361.017 73.1647C362.357 73.015 364.256 71.6913 364.209 68.1772V68.1772Z" stroke="#EFA500" stroke-width="1.59" stroke-miterlimit="10"/>
</g>
<g style="mix-blend-mode:multiply" opacity="0.47">
<path d="M395.335 57.2567C394.844 56.7586 394.244 56.3812 393.582 56.1543C392.92 55.9273 392.215 55.857 391.521 55.9488C388.818 56.2088 386.974 58.3125 386.044 60.3532C385.115 57.9343 383.326 56.7367 380.969 56.9652C379.968 57.0837 379.012 57.4488 378.187 58.0278C377.362 58.6067 376.693 59.3813 376.241 60.2822C376.203 59.592 375.924 58.937 375.453 58.4307C375.221 58.1834 374.936 57.9923 374.619 57.8721C374.302 57.752 373.962 57.7058 373.625 57.7373C372.854 57.8873 372.163 58.3082 371.675 58.9239C371.188 59.5396 370.938 60.3094 370.969 61.0938L370.89 74.1179C370.864 74.9005 371.147 75.6619 371.678 76.2374C371.892 76.4632 372.15 76.6426 372.436 76.7646C372.722 76.8866 373.03 76.9485 373.341 76.9465H373.53C374.294 76.8088 374.982 76.4011 375.47 75.7979C375.957 75.1946 376.212 74.4361 376.186 73.6609L376.233 65.7819C376.233 65.7819 376.596 62.6302 379.07 62.4254C379.355 62.3859 379.645 62.4123 379.919 62.5024C380.192 62.5926 380.441 62.7441 380.646 62.9454C381.275 63.7973 381.557 64.8562 381.434 65.9079V73.0936C381.418 73.484 381.479 73.8736 381.615 74.2401C381.75 74.6067 381.956 74.9427 382.222 75.2289C382.454 75.4741 382.738 75.6634 383.053 75.7821C383.369 75.9009 383.707 75.9461 384.043 75.9143C384.805 75.7751 385.493 75.367 385.98 74.7641C386.468 74.1612 386.722 73.4036 386.698 72.6288L386.746 64.7497C386.746 64.3636 387.329 61.5981 389.614 61.3853C389.899 61.3418 390.189 61.3655 390.463 61.4544C390.737 61.5433 390.986 61.6951 391.19 61.8975C391.82 62.7549 392.102 63.8191 391.978 64.8757L391.939 72.0615C391.924 72.4481 391.986 72.8338 392.121 73.1963C392.257 73.5587 392.462 73.8907 392.727 74.1731C392.961 74.4242 393.25 74.618 393.571 74.7396C393.892 74.8612 394.237 74.9073 394.579 74.8743C395.342 74.7351 396.029 74.327 396.516 73.7241C397.004 73.1212 397.259 72.3635 397.235 71.5887V64.403C397.44 61.1096 396.746 58.6986 395.335 57.2567Z" fill="#EFA500"/>
<path d="M395.335 57.2567C394.844 56.7586 394.244 56.3812 393.582 56.1543C392.92 55.9273 392.215 55.857 391.521 55.9488C388.818 56.2088 386.974 58.3125 386.044 60.3532C385.115 57.9343 383.326 56.7367 380.969 56.9652C379.968 57.0837 379.012 57.4488 378.187 58.0278C377.362 58.6067 376.693 59.3813 376.241 60.2822C376.203 59.592 375.924 58.937 375.453 58.4307C375.221 58.1834 374.936 57.9923 374.619 57.8721C374.302 57.752 373.962 57.7058 373.625 57.7373C372.854 57.8873 372.163 58.3082 371.675 58.9239C371.188 59.5396 370.938 60.3094 370.969 61.0938L370.89 74.1179C370.864 74.9005 371.147 75.6619 371.678 76.2374C371.892 76.4632 372.15 76.6426 372.436 76.7646C372.722 76.8866 373.03 76.9485 373.341 76.9465H373.53C374.294 76.8088 374.982 76.4011 375.47 75.7979C375.957 75.1946 376.212 74.4361 376.186 73.6609L376.233 65.7819C376.233 65.7819 376.596 62.6302 379.07 62.4254C379.355 62.3859 379.645 62.4123 379.919 62.5024C380.192 62.5926 380.441 62.7441 380.646 62.9454C381.275 63.7973 381.557 64.8562 381.434 65.9079V73.0936C381.418 73.484 381.479 73.8736 381.615 74.2401C381.75 74.6067 381.956 74.9427 382.222 75.2289C382.454 75.4741 382.738 75.6634 383.053 75.7821C383.369 75.9009 383.707 75.9461 384.043 75.9143C384.805 75.7751 385.493 75.367 385.98 74.7641C386.468 74.1612 386.722 73.4036 386.698 72.6288L386.746 64.7497C386.746 64.3636 387.329 61.5981 389.614 61.3853C389.899 61.3418 390.189 61.3655 390.463 61.4544C390.737 61.5433 390.986 61.6951 391.19 61.8975C391.82 62.7549 392.102 63.8191 391.978 64.8757L391.939 72.0615C391.924 72.4481 391.986 72.8338 392.121 73.1963C392.257 73.5587 392.462 73.8907 392.727 74.1731C392.961 74.4242 393.25 74.618 393.571 74.7396C393.892 74.8612 394.237 74.9073 394.579 74.8743C395.342 74.7351 396.029 74.327 396.516 73.7241C397.004 73.1212 397.259 72.3635 397.235 71.5887V64.403C397.44 61.1096 396.746 58.6986 395.335 57.2567Z" stroke="#EFA500" stroke-width="1.59" stroke-miterlimit="10"/>
</g>
</g>
<path d="M364.665 58.4068C364.11 58.4994 363.593 58.7479 363.175 59.1232C362.756 59.4985 362.453 59.9851 362.3 60.5263C361.877 59.9583 361.305 59.5185 360.647 59.2556C359.989 58.9928 359.271 58.9172 358.573 59.0371C356.706 59.3403 355.02 60.3294 353.845 61.8106C352.281 63.7568 351.475 66.2028 351.575 68.6969C351.622 72.1637 352.915 74.094 353.987 75.1026C354.635 75.7032 355.407 76.1554 356.248 76.4275C357.089 76.6997 357.979 76.7853 358.857 76.6784C360.226 76.5359 361.483 75.8592 362.356 74.7953V76.1111C362.356 77.2693 361.568 78.5457 359.613 78.7742C358.97 78.8413 358.32 78.8201 357.683 78.7112C357.445 78.6714 357.206 78.6477 356.965 78.6403C356.678 78.5648 356.378 78.5461 356.083 78.5851C355.504 78.6879 354.982 78.9982 354.615 79.4579C354.248 79.9176 354.061 80.4953 354.089 81.0828C354.092 81.5915 354.26 82.0856 354.567 82.4916C354.873 82.8975 355.303 83.1938 355.791 83.3362V83.3362C356.821 83.5951 357.882 83.7117 358.943 83.6829C359.18 83.6829 359.424 83.6829 359.676 83.6199C361.523 83.3959 363.267 82.6497 364.704 81.4689C365.58 80.7536 366.281 79.8484 366.755 78.8218C367.229 77.7952 367.463 76.6742 367.438 75.5438C367.438 75.4729 367.438 73.0619 367.438 72.8334L367.289 60.8572C367.29 60.5101 367.221 60.1664 367.085 59.8468C366.95 59.5272 366.751 59.2384 366.501 58.9977C366.258 58.7686 365.967 58.5966 365.65 58.4943C365.332 58.3921 364.995 58.3622 364.665 58.4068V58.4068ZM362.466 67.389C362.505 70.5406 360.701 71.6121 359.629 71.7461C359.282 71.7909 358.93 71.7583 358.598 71.6507C358.265 71.543 357.961 71.363 357.706 71.1236C357.334 70.7215 357.047 70.2482 356.863 69.7323C356.679 69.2164 356.601 68.6685 356.634 68.1217C356.634 65.3877 358.124 63.9616 359.558 63.7882H359.739C360.048 63.7754 360.357 63.8247 360.646 63.9329C360.936 64.0412 361.201 64.2063 361.426 64.4185C361.787 64.8199 362.066 65.2893 362.244 65.7993C362.423 66.3092 362.498 66.8496 362.466 67.389V67.389Z" fill="white" stroke="black" stroke-width="1.59" stroke-linecap="round" stroke-linejoin="round"/>
<path d="M393.762 56.3663C393.272 55.9231 392.69 55.5954 392.057 55.4072C391.424 55.219 390.757 55.1752 390.105 55.279C388.96 55.47 387.884 55.9533 386.982 56.6821C386.079 57.411 385.379 58.3607 384.951 59.4391C384.612 58.4507 383.936 57.613 383.041 57.0728C382.147 56.5326 381.09 56.3244 380.057 56.4845C379.12 56.6146 378.228 56.9691 377.457 57.5178C376.686 58.0665 376.059 58.7932 375.629 59.6361C375.577 59.0022 375.297 58.4086 374.841 57.9657C374.609 57.7453 374.331 57.5787 374.027 57.4779C373.723 57.3771 373.401 57.3446 373.083 57.3827C372.361 57.5237 371.714 57.9197 371.26 58.4983C370.805 59.0769 370.574 59.7996 370.609 60.5343L370.759 72.4081C370.755 72.7638 370.822 73.1167 370.958 73.4456C371.093 73.7746 371.293 74.0729 371.547 74.3227C371.973 74.7216 372.539 74.9367 373.123 74.9215H373.304C374.017 74.7901 374.659 74.408 375.114 73.8444C375.569 73.2808 375.808 72.5729 375.786 71.8487L375.692 64.6866C375.692 64.6866 375.983 61.8344 378.347 61.535C378.619 61.4841 378.899 61.4959 379.165 61.5697C379.431 61.6434 379.677 61.7771 379.884 61.9604C380.507 62.7105 380.807 63.6764 380.719 64.6472L380.806 71.1947C380.8 71.553 380.867 71.9087 381.003 72.2405C381.138 72.5722 381.339 72.8731 381.594 73.1251C381.827 73.3442 382.105 73.5087 382.409 73.6069C382.713 73.705 383.035 73.7342 383.351 73.6924C384.068 73.5734 384.718 73.2007 385.182 72.6423C385.647 72.0839 385.895 71.3772 385.881 70.6511L385.794 63.489C385.794 63.1344 386.291 60.6052 388.466 60.3374C388.734 60.2908 389.009 60.3048 389.271 60.3784C389.533 60.452 389.775 60.5834 389.979 60.7628C390.602 61.5128 390.902 62.4788 390.814 63.4496L390.901 70.005C390.895 70.3598 390.962 70.7121 391.097 71.0401C391.233 71.3681 391.434 71.6648 391.689 71.9117C391.922 72.1353 392.202 72.3043 392.509 72.4065C392.816 72.5087 393.141 72.5416 393.462 72.5027C394.174 72.3697 394.815 71.9873 395.27 71.424C395.725 70.8607 395.964 70.1536 395.944 69.4298L395.858 62.8823C395.81 59.8016 395.109 57.6191 393.762 56.3663Z" fill="white" stroke="black" stroke-width="1.59" stroke-linecap="round" stroke-linejoin="round"/>
</svg>
