<svg xmlns="http://www.w3.org/2000/svg" xmlns:xlink="http://www.w3.org/1999/xlink" width="405" height="138" fill="none" xmlns:v="https://vecta.io/nano"><style><![CDATA[.B{fill:#ffc404}.C{stroke-width:1.59}.D{opacity:.2}.E{fill:#efa500}.F{stroke:#000}.G{stroke-linejoin:round}.H{opacity:.47}.I{stroke-miterlimit:10}]]></style><rect y="39" width="348" height="60" rx="30" fill="#fff"/><path d="M75.922 75.997l.002-16.8h2.568l7.343 12.263h-1.344l7.226-12.265h2.568l.022 16.8h-2.952l-.023-12.168h.624l-6.145 10.249h-1.392L78.18 63.828h.72l-.001 12.168-2.976.001zm28.394.164c-1.312 0-2.48-.28-3.504-.839-1.024-.576-1.832-1.36-2.424-2.352s-.888-2.12-.888-3.384c0-1.28.296-2.408.888-3.384.592-.992 1.4-1.768 2.425-2.328s2.192-.84 3.504-.841c1.328 0 2.504.28 3.528.839 1.039.56 1.847 1.328 2.423 2.304.592.976.888 2.112.888 3.408 0 1.264-.296 2.392-.889 3.384-.576.992-1.384 1.776-2.424 2.352-1.024.56-2.2.84-3.528.841zm0-2.568c.736 0 1.392-.16 1.968-.48s1.025-.784 1.345-1.392c.336-.608.504-1.32.504-2.136 0-.832-.168-1.544-.504-2.136a3.32 3.32 0 0 0-1.344-1.392c-.576-.32-1.224-.48-1.944-.48-.736 0-1.392.16-1.968.48-.56.32-1.008.784-1.344 1.392-.336.592-.504 1.304-.504 2.136 0 .816.168 1.528.504 2.136s.783 1.072 1.343 1.392c.576.32 1.224.48 1.944.48zm13.669 2.566c-1.072 0-2.104-.136-3.096-.407-.976-.288-1.752-.632-2.328-1.032l1.152-2.28c.576.368 1.264.672 2.064.912s1.6.36 2.4.36c.944 0 1.624-.128 2.04-.384.432-.256.648-.6.648-1.032 0-.352-.144-.616-.432-.792-.288-.192-.664-.336-1.128-.432l-1.56-.264-1.703-.312c-.56-.144-1.072-.344-1.536-.6a3.31 3.31 0 0 1-1.128-1.08c-.288-.448-.432-1.04-.432-1.776 0-.816.232-1.52.696-2.112.464-.608 1.112-1.072 1.944-1.392.848-.336 1.848-.504 3-.505a12.25 12.25 0 0 1 2.616.288c.88.192 1.608.464 2.184.816l-1.152 2.28c-.608-.368-1.224-.616-1.848-.744a7.89 7.89 0 0 0-1.824-.216c-.912 0-1.592.136-2.04.408-.432.272-.648.616-.648 1.032 0 .384.144.672.432.864s.664.344 1.128.456a16.58 16.58 0 0 0 1.536.288c.576.064 1.144.168 1.704.312s1.072.344 1.536.6a2.87 2.87 0 0 1 1.152 1.032c.287.448.431 1.032.431 1.752 0 .8-.24 1.496-.72 2.088-.464.592-1.128 1.056-1.992 1.392-.864.32-1.896.48-3.096.481zm13.215-.002c-1.408 0-2.496-.36-3.263-1.079-.768-.736-1.152-1.816-1.152-3.24l.001-11.496 3-.001-.001 11.424c0 .608.152 1.08.456 1.416.32.336.76.504 1.32.504.672 0 1.232-.176 1.68-.528l.839 2.136c-.352.288-.784.504-1.296.648s-1.04.216-1.584.216zm-6.526-10.487v-2.4l8.544-.001v2.4l-8.544.001zm18.795 10.317l.002-16.8 6.912-.001c1.488 0 2.76.24 3.816.719 1.072.48 1.896 1.168 2.472 2.064s.864 1.96.863 3.192-.288 2.296-.864 3.192-1.4 1.584-2.472 2.064c-1.056.48-2.328.72-3.816.721l-5.184.001 1.392-1.464-.001 6.312h-3.12zm3.121-5.977l-1.392-1.512 5.04-.001c1.376 0 2.408-.288 3.096-.865.704-.592 1.056-1.416 1.056-2.472.001-1.072-.351-1.896-1.055-2.472-.688-.576-1.72-.864-3.096-.863l-5.04.001 1.392-1.536-.001 9.72zm19.484 6.141c-1.312 0-2.48-.28-3.504-.839-1.024-.576-1.832-1.36-2.424-2.352s-.887-2.12-.887-3.384c0-1.28.296-2.408.888-3.384a6.28 6.28 0 0 1 2.424-2.328c1.024-.56 2.192-.84 3.504-.841 1.328 0 2.504.28 3.528.84 1.04.56 1.848 1.328 2.424 2.304.592.976.888 2.112.888 3.408 0 1.264-.297 2.392-.889 3.384-.576.992-1.384 1.776-2.424 2.352-1.024.56-2.2.84-3.528.841zm0-2.568c.736 0 1.392-.16 1.968-.48a3.32 3.32 0 0 0 1.344-1.392c.337-.608.505-1.32.505-2.136 0-.832-.168-1.544-.504-2.136a3.32 3.32 0 0 0-1.344-1.392c-.576-.32-1.224-.48-1.944-.48-.736 0-1.392.16-1.968.48-.56.32-1.008.784-1.344 1.392-.336.592-.504 1.304-.504 2.136 0 .816.168 1.528.503 2.136a3.52 3.52 0 0 0 1.344 1.392c.576.32 1.224.48 1.944.48zm16.813 2.565a5.78 5.78 0 0 1-2.856-.719c-.848-.48-1.528-1.2-2.04-2.16-.496-.976-.744-2.208-.744-3.696.001-1.504.241-2.736.721-3.696.496-.96 1.168-1.672 2.016-2.136.848-.48 1.816-.72 2.904-.721 1.264 0 2.376.272 3.336.816a5.95 5.95 0 0 1 2.304 2.28c.576.976.864 2.128.863 3.456s-.288 2.488-.864 3.48c-.56.976-1.328 1.736-2.304 2.28-.96.544-2.072.816-3.336.817zm-7.105 4.489l.002-17.472h2.856v3.024l-.097 3.408.24 3.408-.001 7.632h-3zm6.769-7.057c.72 0 1.36-.16 1.92-.48.576-.32 1.032-.784 1.368-1.392s.504-1.32.504-2.136c.001-.832-.167-1.544-.503-2.136-.336-.608-.792-1.072-1.368-1.392-.56-.32-1.2-.48-1.92-.48s-1.368.16-1.944.48-1.032.784-1.368 1.392c-.336.592-.504 1.304-.505 2.136 0 .816.168 1.528.504 2.136s.792 1.072 1.368 1.392 1.224.48 1.944.48zm15.109 2.566c-1.088 0-2.048-.2-2.88-.6-.832-.416-1.48-1.04-1.944-1.872-.464-.848-.696-1.912-.696-3.192l.001-7.32h3l-.001 6.912c0 1.152.256 2.016.768 2.592.528.56 1.272.84 2.232.84.704 0 1.312-.144 1.824-.432.528-.288.936-.72 1.224-1.296.304-.576.456-1.288.457-2.136v-6.48h3l-.001 12.816h-2.856v-3.456l.504 1.056c-.432.832-1.064 1.472-1.896 1.92-.832.432-1.744.648-2.736.648zm10.912-.17l.002-17.808h3l-.002 17.808h-3zm14.833-.002l.001-2.592-.168-.552v-4.536c0-.88-.264-1.56-.792-2.04-.528-.496-1.328-.744-2.4-.744-.72 0-1.432.112-2.136.336-.688.224-1.272.536-1.752.936l-1.175-2.184c.688-.528 1.504-.92 2.448-1.176.96-.272 1.952-.408 2.976-.408 1.856 0 3.288.447 4.296 1.343 1.024.88 1.535 2.248 1.535 4.104l-.001 7.512h-2.832zm-4.032.169c-.96 0-1.8-.16-2.52-.48-.72-.336-1.28-.792-1.68-1.368a3.58 3.58 0 0 1-.575-1.992c0-.72.168-1.368.504-1.944.352-.576.92-1.032 1.704-1.368s1.824-.504 3.12-.504l3.72-.001v1.992h-3.504c-1.024 0-1.712.168-2.064.504-.352.32-.528.72-.528 1.2 0 .544.216.976.648 1.296s1.031.48 1.799.48c.736 0 1.392-.168 1.969-.504.592-.336 1.016-.832 1.272-1.488l.503 1.8c-.288.752-.808 1.336-1.56 1.752-.736.416-1.672.624-2.808.624zm10.714-.17l.002-12.816h2.856l-.001 3.528-.335-1.032c.384-.864.984-1.52 1.8-1.968.832-.448 1.864-.672 3.096-.672v2.856a1.49 1.49 0 0 0-.36-.048 2.36 2.36 0 0 0-.336-.024c-1.136 0-2.04.336-2.713 1.008-.672.656-1.008 1.64-1.008 2.952l-.001 6.216-3 .001z" fill="#3a2657"/><path d="M263.362 69.863c17.747 4.207 23.713 27.017 10.844 41.476 17.258-7.659 35.115 6.46 32.436 25.646l5.161-1.718s-.063-3.262 3.547-7.091c11.245-6.91 26.36-3.939 32.948 8.809l5.161-1.718s-1.19-9.21 1.844-17.586c6.935-7.635 17.936-10.983 27.944-6.342l5.162-1.718s-8.377-7.879-10.04-18.216c1.718-9.983 8.992-19.044 19.772-21.541-17.738-4.207-23.704-27.025-10.843-41.483a22.71 22.71 0 0 1-13.986 1.713c-4.725-.926-9.034-3.331-12.303-6.866-4.618-10.747-.993-22.219-.993-22.219l-5.162 1.718c-5.516 9.037-14.878 13.158-23.641 12.346C321.93 11.133 318.32 1 318.32 1l-5.114 1.71v1.158c.006 5.492-1.673 10.853-4.81 15.362a26.85 26.85 0 0 1-12.732 9.851c-8.314-.087-12.27-2.45-12.27-2.45l-5.122 1.741c11.45 14.458 3.255 37.276-14.902 41.483l-.008.008z" class="C E F G"/><use xlink:href="#B" class="B"/><g class="C F G"><use xlink:href="#B"/><path d="M334.137 115.491l2.837-.094c12.363-.868 23.887-6.565 32.081-15.861a50.51 50.51 0 0 0 13.042-34.014c-.094-25.166-19.141-44.911-43.342-44.911-.938 0-1.891 0-2.837.087-12.362.867-23.885 6.568-32.073 15.868-8.463 9.33-13.127 21.489-13.074 34.085.095 25.126 19.142 44.84 43.366 44.84z" class="B"/></g><path d="M372.485 90.247a54.23 54.23 0 0 0 6.697-27.347c-.215-9.546-2.946-18.867-7.919-27.019-.289-.431-.588-.856-.898-1.276a45.64 45.64 0 0 1 11.277 30.342c.102 26.103-20.119 48.551-45.163 50.142a42.28 42.28 0 0 1-16.722-2.253c2.443.41 33.413 7.162 52.728-22.589z" fill="#dcf2ae" class="D"/><path d="M322.45 113.647l1.615-2.97c.027-.05.071-.088.123-.109a.25.25 0 0 1 .164-.007c.053.017.1.052.131.098s.045.104.039.159l-.394 3.554-2.088-.512m-2.854-1.552l1.024-1.371c.079-.11.331 0 .324.15l-.182 1.883-1.45-.615" fill="#000"/><path d="M371.444 85.393c10.274-20.766 2.929-45.351-16.404-54.913s-43.336-.48-53.61 20.286-2.929 45.351 16.405 54.913 43.335.48 53.609-20.286z" class="B C F G"/><g style="mix-blend-mode:multiply" class="H E"><path d="M311.717 97.881c6.096 2.345 12.555 3.609 19.086 3.735a40.29 40.29 0 0 0 15.546-2.633c4.958-1.893 9.493-4.747 13.344-8.398 2.32-2.261 4.315-4.833 5.926-7.643a37.61 37.61 0 0 0 1.962-4.412c.699-1.49 1.32-3.015 1.86-4.57a39.88 39.88 0 0 0 .213-21.612c-2.782-9.517-8.915-17.707-17.266-23.054 13.893 5.515 23.641 19.422 23.688 36.244.087 22.849-17.589 42.444-39.489 43.839a36.59 36.59 0 0 1-17.599-3.168 36.57 36.57 0 0 1-13.993-11.133c2.23 1.016 4.507 1.915 6.722 2.805z"/></g><g style="mix-blend-mode:color-dodge" class="D B"><path d="M308.264 56.051a2.11 2.11 0 0 1-.969-2.734c.22-.418.485-.812.788-1.174l.055-.11c.243-.493.67-.871 1.188-1.053s1.088-.155 1.586.077c.489.249.864.677 1.046 1.195s.157 1.086-.069 1.586c-.221.418-.485.811-.788 1.174l-.055.11c-.25.488-.681.858-1.201 1.032s-1.088.137-1.581-.103h0z"/></g><g style="mix-blend-mode:color-dodge" class="D B"><path d="M325.427 50.741c-1.048.551-2.191.512-2.609-.158-.15-.284-.257-.59-.315-.906-.013-.025-.029-.049-.047-.071-.402-.622.142-1.741 1.158-2.277s2.183-.504 2.609.158a2.98 2.98 0 0 1 .323.906c-.003.026-.003.053 0 .079.433.622-.095 1.694-1.119 2.269z"/></g><g style="mix-blend-mode:color-dodge" class="D B"><path d="M312.876 47.337c-.528.276-1.103.26-1.316-.079a2.24 2.24 0 0 1-.157-.457h0c-.197-.315.071-.875.583-1.142s1.095-.26 1.316.079a1.51 1.51 0 0 1 .158.457c.197.315-.063.867-.584 1.142z"/></g><g style="mix-blend-mode:color-dodge" class="D B"><path d="M318.385 43.476c-.355.914-1.088 1.513-1.71 1.316a2.73 2.73 0 0 1-.694-.386c-.021-.004-.042-.004-.063 0-.591-.166-.859-1.158-.512-2.041s1.08-1.497 1.71-1.316a2.51 2.51 0 0 1 .693.386c.021.008.043.008.064 0 .583.173.851 1.15.512 2.041z"/></g><g class="H"><g style="mix-blend-mode:multiply" class="H"><use xlink:href="#C" class="E"/><use xlink:href="#C" stroke="#efa500" class="C I"/></g><g style="mix-blend-mode:multiply" class="H"><use xlink:href="#D" class="E"/><use xlink:href="#D" stroke="#efa500" class="C I"/></g></g><path d="M326.665 58.407a2.96 2.96 0 0 0-1.49.716c-.419.375-.722.862-.875 1.403-.423-.568-.995-1.008-1.653-1.271a3.84 3.84 0 0 0-2.074-.218c-1.867.303-3.553 1.292-4.728 2.773a10.33 10.33 0 0 0-2.27 6.886c.047 3.467 1.34 5.397 2.412 6.406a6.08 6.08 0 0 0 2.261 1.325c.841.272 1.731.358 2.609.251 1.369-.142 2.626-.819 3.499-1.883v1.316c0 1.158-.788 2.435-2.743 2.663a7.09 7.09 0 0 1-1.93-.063 5.34 5.34 0 0 0-.718-.071 2.29 2.29 0 0 0-.882-.055 2.42 2.42 0 0 0-1.994 2.498 2.36 2.36 0 0 0 1.702 2.253h0c1.03.259 2.091.375 3.152.347.237 0 .481 0 .733-.063a9.77 9.77 0 0 0 5.028-2.151 7.45 7.45 0 0 0 2.051-2.647 7.43 7.43 0 0 0 .683-3.278v-2.71l-.149-11.976a2.56 2.56 0 0 0-.204-1.01c-.135-.32-.334-.608-.584-.849-.243-.229-.534-.401-.851-.503a2.24 2.24 0 0 0-.985-.088h0zm-2.199 8.982c.039 3.152-1.765 4.223-2.837 4.357a2.36 2.36 0 0 1-1.031-.095c-.333-.108-.637-.288-.892-.527a4.05 4.05 0 0 1-.843-1.391c-.184-.516-.262-1.064-.229-1.611 0-2.734 1.49-4.16 2.924-4.334h.181a2.3 2.3 0 0 1 .907.145 2.32 2.32 0 0 1 .78.486 4.07 4.07 0 0 1 1.04 2.971h0zm31.296-11.023a4.42 4.42 0 0 0-1.705-.959c-.633-.188-1.3-.232-1.952-.128a6.73 6.73 0 0 0-3.123 1.403 6.74 6.74 0 0 0-2.031 2.757 4.45 4.45 0 0 0-1.91-2.366c-.894-.54-1.951-.748-2.984-.588a5.88 5.88 0 0 0-4.428 3.152 2.63 2.63 0 0 0-.788-1.67c-.232-.22-.51-.387-.814-.488s-.626-.133-.944-.095a3.06 3.06 0 0 0-2.474 3.152l.15 11.874a2.63 2.63 0 0 0 .788 1.914 2.22 2.22 0 0 0 1.576.599h.181a3.03 3.03 0 0 0 2.482-3.073l-.094-7.162s.291-2.852 2.655-3.152a1.81 1.81 0 0 1 1.537.426c.623.75.923 1.716.835 2.687l.087 6.547a2.64 2.64 0 0 0 .197 1.046c.135.332.336.633.591.885.233.219.511.384.815.482a2.15 2.15 0 0 0 .942.086c.717-.119 1.367-.492 1.831-1.05a3.02 3.02 0 0 0 .699-1.991l-.087-7.162c0-.355.497-2.884 2.672-3.152a1.82 1.82 0 0 1 .805.041c.262.074.504.205.708.384.623.75.923 1.716.835 2.687l.087 6.555c-.006.355.061.707.196 1.035s.337.625.592.872a2.17 2.17 0 0 0 .82.495c.307.102.632.135.953.096a3.04 3.04 0 0 0 2.482-3.073l-.086-6.547c-.048-3.081-.749-5.263-2.096-6.516z" fill="#fff" class="C F G"/><defs ><path id="B" d="M268.524 68.154c17.747 4.207 23.713 27.025 10.844 41.483 17.266-7.651 35.115 6.461 32.444 25.654 10.173-16.593 33.098-16.593 41.656 0-.788-19.193 18.432-33.305 34.949-25.654-11.45-14.458-3.254-37.276 14.894-41.483-17.746-4.207-23.712-27.025-10.851-41.483-17.266 7.659-35.115-6.461-32.444-25.646-10.181 16.593-33.097 16.593-41.656 0 .788 19.186-18.432 33.305-34.941 25.646 11.45 14.458 3.254 37.276-14.902 41.483h.007z"/><path id="C" d="M331.016 74.205l-.055 2.222c.078 5.697-4.65 8.115-7.881 8.494a10.98 10.98 0 0 1-4.035-.339c-.499-.172-.928-.503-1.223-.941a2.44 2.44 0 0 1-.413-1.487c.028-.527.226-1.031.566-1.436a2.43 2.43 0 0 1 1.315-.808c.295-.044.597-.019.882.071.939.141 1.889.194 2.837.158.827-.014 1.614-.353 2.194-.942s.903-1.383.903-2.209v-1.513c-.399.716-.966 1.325-1.652 1.774s-1.472.724-2.288.803c-3.349.386-7.345-2.104-7.431-8.541-.087-6.256 3.885-9.817 7.179-10.203.804-.145 1.634-.017 2.356.364s1.297.994 1.631 1.739v.315c-.026-.707.196-1.4.628-1.96s1.046-.951 1.736-1.105c.334-.015.667.038.978.157s.596.301.834.535.425.514.55.823.185.641.176.974l.213 13.056zm-4.807-6.028c-.048-3.443-1.978-4.349-3.318-4.192-1.734.205-3.326 1.978-3.286 4.964s1.678 4.42 3.412 4.215c1.34-.15 3.239-1.473 3.192-4.987h0z"/><path id="D" d="M357.335 57.257a4.52 4.52 0 0 0-1.753-1.102c-.662-.227-1.367-.297-2.061-.206-2.703.26-4.547 2.364-5.477 4.404-.929-2.419-2.718-3.617-5.075-3.388a6.09 6.09 0 0 0-4.728 3.317c-.038-.69-.317-1.345-.788-1.852-.232-.247-.517-.438-.834-.559a2.22 2.22 0 0 0-.994-.135 3.29 3.29 0 0 0-2.656 3.357l-.079 13.024a2.98 2.98 0 0 0 .788 2.119c.214.226.472.405.758.527a2.27 2.27 0 0 0 .905.182h.189a3.23 3.23 0 0 0 2.656-3.286l.047-7.879s.363-3.152 2.837-3.356c.285-.04.575-.013.849.077a1.88 1.88 0 0 1 .727.443 4.17 4.17 0 0 1 .788 2.962v7.186c-.016.39.045.78.181 1.147a2.95 2.95 0 0 0 .607.989c.232.245.516.434.831.553s.654.164.99.132a3.24 3.24 0 0 0 1.937-1.15c.488-.603.742-1.361.718-2.135l.048-7.879c0-.386.583-3.152 2.868-3.364.285-.044.575-.02.849.069s.523.241.727.443c.63.857.912 1.922.788 2.978l-.039 7.186c-.015.387.047.772.182 1.135a2.93 2.93 0 0 0 .606.977c.234.251.523.445.844.566a2.24 2.24 0 0 0 1.008.135c.763-.139 1.45-.547 1.937-1.15s.743-1.361.719-2.135v-7.186c.205-3.293-.489-5.704-1.9-7.146z"/></defs></svg>