<svg xmlns="http://www.w3.org/2000/svg" width="186" height="40" fill="none" xmlns:v="https://vecta.io/nano"><path d="M0 2.29C1.017.536 2.519 0 4.505 0h176.942c2.034 0 3.536.536 4.505 2.29v35.372c-.921 1.705-2.325 2.339-4.311 2.339-59.094-.049-118.188-.049-177.33 0C2.325 40 .92 39.415 0 37.661V2.29zm50.472 17.735l-5.377 3.605c-1.937 1.316-2.422 3.167-1.356 4.823 1.114 1.754 3.051 1.998 5.086.682l4.166-2.777c.436 2.826-.872 6.724 3.391 6.821 4.456.097 3.051-3.995 3.584-6.772 1.55 1.023 2.906 2.046 4.359 2.826.872.438 2.083.877 2.858.536.969-.39 1.938-1.413 2.373-2.436.581-1.364-.145-2.631-1.356-3.459-1.841-1.315-3.73-2.582-5.716-3.898l5.28-3.557c2.034-1.413 2.519-3.264 1.356-4.969-1.114-1.657-3.003-1.9-5.086-.536l-4.263 2.826c0-1.462.048-2.485 0-3.508-.145-2.192-1.453-3.557-3.342-3.557s-3.197 1.413-3.294 3.605c-.048 1.023 0 2.095 0 3.459-1.695-1.169-3.051-2.095-4.408-2.923-1.937-1.218-3.875-.926-4.941.682-1.066 1.656-.581 3.557 1.259 4.823l5.425 3.703zm85.056 0l5.474-3.654c1.889-1.315 2.373-3.216 1.259-4.872s-3.003-1.9-4.941-.682c-1.404.877-2.761 1.851-4.407 2.923 0-1.364.048-2.387 0-3.41-.097-2.192-1.405-3.605-3.294-3.605-1.889-.049-3.246 1.364-3.342 3.557-.049 1.072 0 2.095 0 3.557-1.696-1.121-3.004-2.144-4.408-2.875-.872-.438-2.083-.974-2.81-.682-1.017.439-2.082 1.462-2.518 2.485-.582 1.315.145 2.631 1.356 3.459 1.841 1.316 3.73 2.534 5.764 3.898l-5.619 3.8c-1.792 1.267-2.179 3.118-1.065 4.726 1.065 1.559 2.857 1.9 4.65.828 1.501-.926 2.954-1.9 4.698-3.021v2.582c0 2.923 1.211 4.434 3.391 4.385 2.131-.049 3.293-1.559 3.293-4.336v-2.68l4.166 2.777c2.18 1.413 4.117 1.218 5.231-.585 1.066-1.705.533-3.557-1.501-4.921-1.841-1.315-3.536-2.436-5.377-3.654zM23.395 26.358l4.166 2.777c2.083 1.316 3.972 1.072 5.086-.633 1.066-1.656.533-3.605-1.453-4.969l-5.231-3.557 5.425-3.654c1.841-1.267 2.325-3.264 1.259-4.872-1.114-1.657-3.003-1.9-4.941-.682-1.453.926-2.809 1.9-4.456 3.021 0-1.413.048-2.485 0-3.557-.097-2.095-1.502-3.557-3.391-3.508-1.841.049-3.149 1.413-3.197 3.459-.048 1.121 0 2.192 0 3.605-1.744-1.169-3.052-2.144-4.456-2.923-.872-.439-2.083-.974-2.809-.682-1.017.438-2.034 1.462-2.519 2.485-.63 1.364.194 2.631 1.356 3.459 1.841 1.315 3.73 2.534 5.764 3.898l-5.183 3.508c-2.131 1.462-2.664 3.313-1.453 5.067 1.163 1.705 3.003 1.851 5.134.487l4.117-2.728c.484 2.875-.969 6.821 3.391 6.87 4.359 0 2.906-4.044 3.391-6.87zm63.598-6.334l-5.328 3.557c-1.986 1.364-2.519 3.313-1.356 4.97 1.163 1.705 3.003 1.9 5.086.536l4.262-2.826v3.41c.049 2.193 1.308 3.605 3.197 3.654 1.986.049 3.342-1.364 3.391-3.654v-3.264l.678.292 3.633 2.387c2.083 1.364 3.972 1.121 5.086-.585 1.114-1.656.581-3.605-1.404-4.969l-5.28-3.557 5.231-3.508c1.986-1.364 2.567-3.264 1.502-4.969-1.114-1.754-3.052-1.998-5.232-.585l-4.214 2.777c0-1.51.049-2.582 0-3.654-.097-1.998-1.453-3.41-3.294-3.41s-3.197 1.413-3.294 3.41c-.048 1.121 0 2.241 0 3.313-.291.049-.387.049-.387.049l-3.972-2.582c-2.034-1.315-3.972-1.023-5.086.682-1.066 1.608-.533 3.557 1.356 4.823l5.425 3.703zm79.001 6.675h-9.445c-2.325 0-3.73 1.267-3.73 3.264 0 2.046 1.357 3.313 3.682 3.313h19.036c2.276 0 3.778-1.315 3.778-3.264s-1.453-3.313-3.73-3.313h-9.591z" fill="#fff"/></svg>