<svg width="469" height="284" viewBox="0 0 469 284" fill="none" xmlns="http://www.w3.org/2000/svg">
<g clip-path="url(#clip0_169_13738)">
<path fill-rule="evenodd" clip-rule="evenodd" d="M460.624 34.0269C460.624 34.0269 470.006 80.2525 468.941 91.2995C467.875 102.346 446.685 126.744 446.685 126.744C446.685 126.744 424.311 174.742 417.089 198.224C409.868 221.706 356.774 283.882 356.774 283.882H243.837C204.298 283.882 143.597 263.206 143.597 263.206C143.597 263.206 86.3597 158.821 81.4468 153.918C76.534 149.015 48.8918 139.15 48.8918 139.15C48.8918 139.15 3.55146 57.8043 0 36.3012L125.781 41.4998L460.624 34.0269Z" fill="url(#paint0_linear_169_13738)"/>
<path fill-rule="evenodd" clip-rule="evenodd" d="M460.624 34.0269L401.167 26.5835L366.629 20.6761C366.629 20.6761 216.491 20.9124 169.434 23.6298C169.434 23.6298 120.365 0.354496 109.681 4.94227e-05C98.997 -0.354397 74.9062 26.5835 74.9062 26.5835L0 36.3012C0 36.3012 34.2124 48.1161 60.582 47.7026L35.5146 56.1207C40.2673 59.7209 45.6452 62.4146 51.3778 64.0662C61.3515 67.0199 136.287 69.2943 171.861 68.8807C207.435 68.4672 222.973 56.1207 222.973 56.1207L206.665 49.9474L225.903 47.6731C225.903 47.6731 284.117 57.8634 306.314 58.5723C323.33 58.543 340.309 56.9711 357.04 53.8759L320.075 42.061C320.075 42.061 339.816 42.2973 373.347 45.3101C403.505 48.0866 439.671 38.5756 460.624 34.0269Z" fill="#CECCD4"/>
<g style="mix-blend-mode:multiply" opacity="0.35">
<path fill-rule="evenodd" clip-rule="evenodd" d="M373.259 45.3396V77.5942L406.081 83.1767C406.081 83.1767 407.531 83.797 411.141 93.0717C414.752 102.346 431.473 125.179 431.473 125.179L446.686 126.862L434.492 154.066C434.492 154.066 416.942 154.243 409.958 158.556C402.973 162.868 387.495 175.805 387.495 175.805L378.202 201.207C378.202 201.207 368.938 154.243 368.317 146.829C367.695 139.416 358.669 107.515 360.089 102.14C361.51 96.7639 359.527 75.7334 359.527 75.7334L357.041 53.8759C357.041 53.8759 309.481 60.2854 304.538 62.0281C299.596 63.7708 297.406 83.6493 297.406 83.6493L281.158 121.102L299.3 175.54L292.315 221.706L290.037 256.412L264.288 284H243.838C243.838 284 227.117 193.793 225.903 188.211C224.69 182.628 230.313 169.691 230.313 169.691L222.174 112.98L222.973 56.1207L206.666 49.9474L225.903 47.6731C225.903 47.6731 286.308 56.6819 296.311 57.6271C306.314 58.5723 357.307 52.9011 357.307 52.9011L326.676 41.7361L373.259 45.3396Z" fill="#A7A7A8"/>
</g>
<g style="mix-blend-mode:multiply" opacity="0.35">
<path fill-rule="evenodd" clip-rule="evenodd" d="M112.463 68.9694L71.7099 75.7334L78.1913 91.2995L95.9486 133.833L117.257 154.066L141.141 162.927L159.727 175.864H143.538L144.781 193.085L153.423 234.082L153.897 266.573L143.597 263.265C143.597 263.265 99.2042 182.953 81.4469 153.977C81.4469 153.977 51.8513 144.821 48.8918 139.209C45.9322 133.597 3.81782 55.589 0 36.3013L60.582 47.7026L35.5146 56.1207C35.5146 56.1207 53.2719 63.9776 65.1101 65.8384C76.9483 67.6993 112.463 68.9694 112.463 68.9694Z" fill="#A7A7A8"/>
</g>
<g style="mix-blend-mode:color-dodge" opacity="0.46">
<path fill-rule="evenodd" clip-rule="evenodd" d="M167.184 23.2457L181.982 31.1617C181.982 31.1617 171.12 33.82 164.787 35.7104C158.454 37.6008 123.797 34.588 117.612 32.7567C111.426 30.9254 88.7857 23.2457 88.7857 23.2457L87.5723 15.5365C87.5723 15.5365 104.53 -0.856613 109.68 -3.44254e-05C114.83 0.856544 158.187 18.4607 167.184 23.2457Z" fill="#ABA7B5"/>
</g>
<g style="mix-blend-mode:multiply" opacity="0.33">
<path fill-rule="evenodd" clip-rule="evenodd" d="M73.0723 26.8789L87.5149 35.7401L110.155 36.3308H158.367C158.367 36.3308 121.343 32.8749 115.719 31.5753C110.096 30.2757 88.7875 23.2458 88.7875 23.2458L87.5741 15.5366L73.0723 26.8789Z" fill="#474757"/>
</g>
<g style="mix-blend-mode:multiply" opacity="0.34">
<path fill-rule="evenodd" clip-rule="evenodd" d="M373.259 77.5942L359.527 109.731L357.307 52.9307L318.951 41.7656L373.259 45.3396V77.5942Z" fill="#474757"/>
</g>
<g style="mix-blend-mode:multiply" opacity="0.34">
<path fill-rule="evenodd" clip-rule="evenodd" d="M60.582 47.7026L35.5146 56.1207L46.2874 134.69C46.2874 134.69 12.4893 70.4167 0 36.3013L60.582 47.7026Z" fill="#474757"/>
</g>
<g style="mix-blend-mode:multiply" opacity="0.34">
<path fill-rule="evenodd" clip-rule="evenodd" d="M296.311 57.6564L264.288 88.6705L244.459 109.73L240.434 127.748L222.677 116.465L222.973 56.15L206.666 49.9768L225.903 47.7024L296.311 57.6564Z" fill="#474757"/>
</g>
<g style="mix-blend-mode:multiply" opacity="0.2">
<path d="M128.799 146.18C129.189 145.248 129.634 144.341 130.131 143.462C130.338 143.049 130.486 142.606 130.723 142.222C131.01 141.702 131.369 141.224 131.789 140.804C132.607 139.916 133.62 139.228 134.748 138.795C135.99 138.393 137.314 138.312 138.596 138.559C138.971 138.667 139.321 138.848 139.625 139.091C139.93 139.334 140.184 139.635 140.371 139.977C140.543 140.154 140.693 140.353 140.815 140.567C140.815 140.833 141.022 141.07 141.111 141.306C141.26 141.847 141.26 142.419 141.111 142.96C140.842 145.035 140.179 147.04 139.158 148.867C138.551 149.969 137.701 150.918 136.672 151.644C135.666 152.391 134.432 152.767 133.18 152.707C132.38 152.645 131.603 152.413 130.901 152.028C130.219 151.6 129.643 151.024 129.214 150.344C128.835 149.726 128.601 149.03 128.529 148.309C128.458 147.588 128.55 146.86 128.799 146.18Z" fill="#A7A7A8"/>
</g>
<g style="mix-blend-mode:multiply" opacity="0.2">
<path d="M150.02 136.166C148.112 133.312 146.85 130.076 146.321 126.685C145.886 124.417 146.101 122.072 146.942 119.921C147.749 118.176 148.741 116.522 149.902 114.988C152.033 111.861 154.966 109.361 158.396 107.752C159.254 107.367 160.146 107.061 161.06 106.836C163.114 105.858 165.389 105.43 167.659 105.595C170.296 105.937 172.752 107.119 174.661 108.966C176.57 110.813 177.83 113.225 178.255 115.845C178.8 119.332 178.154 122.901 176.42 125.976C174.987 128.858 173.396 131.658 171.655 134.365C169.346 137.702 166.476 141.247 162.214 141.749C159.864 142.02 157.485 141.643 155.335 140.659C153.185 139.675 151.347 138.121 150.02 136.166Z" fill="#A7A7A8"/>
</g>
<g style="mix-blend-mode:multiply" opacity="0.2">
<path d="M143.776 180.679C143.245 179.386 142.82 178.052 142.503 176.691C142.296 176.071 142.03 175.51 141.882 174.89C141.701 174.045 141.611 173.184 141.615 172.32C141.66 170.288 142.092 168.283 142.888 166.412C143.781 164.315 145.044 162.394 146.617 160.741C147.498 159.883 148.647 159.351 149.873 159.235H150.109C150.439 159.107 150.791 159.047 151.145 159.058H152.181C152.854 159.265 153.431 159.705 153.809 160.298C155.593 162.361 156.852 164.823 157.479 167.476C157.882 169.355 157.882 171.298 157.479 173.176C157.061 175.347 156.105 177.378 154.697 179.084C153.873 180.152 152.872 181.071 151.737 181.801C150.698 182.429 149.538 182.831 148.334 182.983C147.429 183.11 146.507 182.957 145.692 182.545C144.877 182.133 144.209 181.482 143.776 180.679Z" fill="#A7A7A8"/>
</g>
<g style="mix-blend-mode:multiply" opacity="0.2">
<path d="M379.562 173.826C380.953 175.717 389.417 172.32 390.838 170.4C399.717 158.26 400.812 142.281 395.248 145.352C389.684 148.424 369.618 160.062 379.562 173.826Z" fill="#A7A7A8"/>
</g>
<g style="mix-blend-mode:multiply" opacity="0.2">
<path d="M364.025 148.277C364.501 148.062 365.018 147.952 365.54 147.956C366.062 147.96 366.577 148.077 367.05 148.299C367.523 148.52 367.942 148.842 368.278 149.241C368.614 149.64 368.859 150.107 368.997 150.61C369.795 152.831 369.864 155.248 369.193 157.51C368.523 159.772 367.148 161.763 365.268 163.193C359.704 167.594 351.092 162.336 351.151 157.286C351.21 154.066 359.141 150.285 364.025 148.277Z" fill="#A7A7A8"/>
</g>
<g style="mix-blend-mode:multiply" opacity="0.2">
<path d="M221.967 204.929C221.464 211.427 220.161 236.475 220.694 240.58C221.227 244.686 247.626 249.944 248.603 244.597C249.579 239.251 229.75 201.887 225.932 199.583C222.115 197.279 221.967 203.009 221.967 204.929Z" fill="#A7A7A8"/>
</g>
</g>
<defs>
<linearGradient id="paint0_linear_169_13738" x1="227.915" y1="336.399" x2="236.788" y2="-33.3483" gradientUnits="userSpaceOnUse">
<stop offset="0.12" stop-color="#CFCCD4"/>
<stop offset="1" stop-color="#2C2733"/>
</linearGradient>
<clipPath id="clip0_169_13738">
<rect width="469" height="284" fill="white"/>
</clipPath>
</defs>
</svg>
