<svg width="754" height="868" viewBox="0 0 754 868" fill="none" xmlns="http://www.w3.org/2000/svg">
<g style="mix-blend-mode:soft-light" opacity="0.15">
<path fill-rule="evenodd" clip-rule="evenodd" d="M332.347 83.2777C335.439 84.5305 383.867 104.026 398.365 112.134C398.446 112.181 398.532 112.219 398.623 112.246C439.437 124.988 471.152 107.387 498.705 143.21L498.808 143.363C527.907 193.272 545.598 194.973 596.51 204.476C596.801 204.518 597.098 204.464 597.354 204.322C597.611 204.181 597.813 203.96 597.93 203.694C598.047 203.427 598.073 203.131 598.002 202.849C597.932 202.567 597.77 202.316 597.541 202.134C582.693 190.817 535.408 154.343 527.989 143.21C519.179 129.969 523.867 115.373 506.886 110.555H506.783C409.751 90.1224 405.217 25.6679 264.053 13.9239C263.783 13.8986 263.513 13.955 263.277 14.0857C263.041 14.2163 262.851 14.415 262.732 14.6552C262.614 14.8954 262.572 15.1656 262.613 15.4299C262.653 15.6941 262.775 15.9398 262.96 16.1342C272.945 26.7985 312.718 68.8549 332.1 83.1147C332.178 83.1761 332.26 83.2307 332.347 83.2777V83.2777Z" fill="white"/>
</g>
<g style="mix-blend-mode:soft-light" opacity="0.15">
<path fill-rule="evenodd" clip-rule="evenodd" d="M404.837 180.769C438.006 257.375 497.892 282.696 560.52 330.406C560.622 330.484 560.712 330.577 560.788 330.681C604.065 389.869 654.451 418.134 707.743 446.114C708.018 446.238 708.327 446.266 708.619 446.195C708.912 446.123 709.172 445.956 709.357 445.72C709.542 445.485 709.641 445.194 709.638 444.896C709.635 444.598 709.53 444.309 709.34 444.077C578.995 307.162 607.321 276.361 406.692 179.129C406.452 179.011 406.182 178.967 405.916 179.002C405.651 179.038 405.402 179.151 405.202 179.328C405.003 179.504 404.861 179.736 404.796 179.993C404.731 180.25 404.745 180.52 404.837 180.769Z" fill="white"/>
</g>
<g style="mix-blend-mode:soft-light" opacity="0.15">
<path fill-rule="evenodd" clip-rule="evenodd" d="M61.0336 52.7642C63.2387 54.0068 95.655 72.3307 105.104 79.2468L105.289 79.3588C131.049 91.7445 159.952 85.8063 173.976 111.413L174.037 111.556C187.906 147.755 204.043 151.279 235.861 162.27C236.099 162.348 236.358 162.346 236.594 162.262C236.831 162.179 237.032 162.019 237.166 161.809C237.3 161.599 237.359 161.351 237.334 161.104C237.308 160.857 237.2 160.625 237.026 160.446C227.051 150.648 199.179 122.862 195.459 115.059C190.936 105.526 196.49 96.7864 184.723 91.6325C172.955 86.4786 144.372 78.1264 141.384 68.5926C127.803 41.3869 49.6787 6.46038 21.4561 0.0536341C21.2275 -0.0196222 20.9811 -0.0177916 20.7537 0.0588562C20.5263 0.135504 20.3301 0.28285 20.1944 0.478867C20.0587 0.674884 19.9909 0.909045 20.001 1.14634C20.0111 1.38364 20.0986 1.61133 20.2505 1.79537C26.4329 10.443 48.8956 41.2952 60.807 52.6012L61.0336 52.7642Z" fill="white"/>
</g>
<path d="M438.574 593.52C439.19 592.894 439.981 592.464 440.845 592.285C441.71 592.106 442.608 592.186 443.426 592.515C444.245 592.844 444.945 593.406 445.438 594.131C445.931 594.856 446.194 595.709 446.194 596.583C446.194 597.456 445.931 598.31 445.438 599.035C444.945 599.759 444.245 600.322 443.426 600.651C442.608 600.98 441.71 601.06 440.845 600.881C439.981 600.701 439.19 600.271 438.574 599.646C437.768 598.826 437.316 597.727 437.316 596.583C437.316 595.439 437.768 594.34 438.574 593.52V593.52ZM425.59 657.189C426.034 657.65 426.607 657.969 427.235 658.104C427.864 658.24 428.519 658.186 429.116 657.95C429.713 657.713 430.225 657.305 430.586 656.779C430.946 656.252 431.139 655.63 431.139 654.994C431.139 654.358 430.946 653.736 430.586 653.209C430.225 652.682 429.713 652.274 429.116 652.038C428.519 651.802 427.864 651.748 427.235 651.883C426.607 652.019 426.034 652.338 425.59 652.798C425.015 653.388 424.694 654.175 424.694 654.994C424.694 655.813 425.015 656.6 425.59 657.189V657.189ZM375.541 511.892C375.83 512.176 376.198 512.369 376.598 512.446C376.998 512.524 377.412 512.483 377.788 512.328C378.165 512.173 378.486 511.911 378.712 511.575C378.938 511.24 379.059 510.846 379.059 510.443C379.059 510.039 378.938 509.645 378.712 509.31C378.486 508.974 378.165 508.713 377.788 508.558C377.412 508.403 376.998 508.361 376.598 508.439C376.198 508.517 375.83 508.71 375.541 508.994C375.347 509.183 375.194 509.409 375.089 509.658C374.985 509.907 374.931 510.173 374.931 510.443C374.931 510.712 374.985 510.979 375.089 511.227C375.194 511.476 375.347 511.702 375.541 511.892V511.892ZM446.875 607.505C447.165 607.789 447.532 607.982 447.932 608.06C448.332 608.138 448.747 608.096 449.123 607.941C449.499 607.786 449.821 607.525 450.047 607.189C450.273 606.854 450.394 606.46 450.394 606.056C450.394 605.653 450.273 605.259 450.047 604.924C449.821 604.588 449.499 604.326 449.123 604.171C448.747 604.016 448.332 603.975 447.932 604.053C447.532 604.13 447.165 604.323 446.875 604.607C446.679 604.796 446.524 605.021 446.417 605.27C446.311 605.519 446.256 605.786 446.256 606.056C446.256 606.327 446.311 606.594 446.417 606.843C446.524 607.092 446.679 607.317 446.875 607.505V607.505ZM479.724 572.07C480.013 572.354 480.381 572.547 480.781 572.625C481.181 572.702 481.595 572.661 481.972 572.506C482.348 572.351 482.669 572.089 482.896 571.754C483.122 571.418 483.242 571.024 483.242 570.621C483.242 570.218 483.122 569.824 482.896 569.488C482.669 569.153 482.348 568.891 481.972 568.736C481.595 568.581 481.181 568.54 480.781 568.617C480.381 568.695 480.013 568.888 479.724 569.172C479.339 569.558 479.123 570.079 479.123 570.621C479.123 571.163 479.339 571.684 479.724 572.07V572.07ZM452.202 562.19C452.49 562.478 452.858 562.674 453.259 562.754C453.66 562.834 454.076 562.794 454.454 562.64C454.832 562.486 455.155 562.225 455.383 561.888C455.61 561.552 455.732 561.157 455.732 560.752C455.732 560.348 455.61 559.952 455.383 559.616C455.155 559.28 454.832 559.018 454.454 558.864C454.076 558.71 453.66 558.671 453.259 558.751C452.858 558.831 452.49 559.027 452.202 559.314C452 559.501 451.839 559.727 451.728 559.978C451.618 560.23 451.561 560.5 451.561 560.774C451.561 561.048 451.618 561.319 451.728 561.57C451.839 561.821 452 562.047 452.202 562.234V562.19ZM423.349 578.481C423.494 578.627 423.68 578.726 423.883 578.767C424.085 578.808 424.296 578.789 424.487 578.711C424.679 578.633 424.843 578.501 424.958 578.331C425.073 578.161 425.135 577.961 425.135 577.756C425.135 577.552 425.073 577.352 424.958 577.182C424.843 577.012 424.679 576.879 424.487 576.802C424.296 576.724 424.085 576.704 423.883 576.745C423.68 576.786 423.494 576.886 423.349 577.032C423.251 577.133 423.175 577.252 423.125 577.383C423.075 577.514 423.052 577.653 423.059 577.793C423.065 577.932 423.1 578.069 423.161 578.195C423.222 578.321 423.309 578.433 423.415 578.525L423.349 578.481ZM504.094 678.749C504.239 678.895 504.425 678.995 504.628 679.036C504.831 679.077 505.041 679.057 505.233 678.979C505.424 678.902 505.588 678.769 505.703 678.599C505.818 678.429 505.88 678.229 505.88 678.025C505.88 677.82 505.818 677.62 505.703 677.45C505.588 677.28 505.424 677.148 505.233 677.07C505.041 676.992 504.831 676.973 504.628 677.014C504.425 677.055 504.239 677.154 504.094 677.3C503.996 677.401 503.92 677.52 503.87 677.651C503.82 677.782 503.798 677.921 503.804 678.061C503.81 678.2 503.845 678.337 503.906 678.463C503.968 678.589 504.054 678.701 504.161 678.793L504.094 678.749ZM446.254 577.537C446.449 577.727 446.712 577.834 446.986 577.834C447.26 577.834 447.524 577.727 447.719 577.537C447.82 577.444 447.9 577.332 447.955 577.208C448.01 577.083 448.039 576.948 448.039 576.812C448.039 576.676 448.01 576.542 447.955 576.417C447.9 576.292 447.82 576.18 447.719 576.088C447.518 575.932 447.267 575.854 447.012 575.869C446.757 575.884 446.517 575.991 446.336 576.169C446.156 576.348 446.048 576.586 446.032 576.838C446.017 577.09 446.096 577.338 446.254 577.537V577.537ZM417.001 596.945C417.29 597.229 417.658 597.422 418.058 597.5C418.458 597.577 418.872 597.536 419.249 597.381C419.625 597.226 419.946 596.964 420.172 596.629C420.399 596.293 420.519 595.899 420.519 595.496C420.519 595.093 420.399 594.699 420.172 594.363C419.946 594.028 419.625 593.766 419.249 593.611C418.872 593.456 418.458 593.415 418.058 593.492C417.658 593.57 417.29 593.763 417.001 594.047C416.808 594.243 416.656 594.476 416.555 594.731C416.454 594.986 416.405 595.258 416.411 595.532C416.417 595.806 416.478 596.075 416.591 596.326C416.704 596.576 416.866 596.801 417.068 596.989L417.001 596.945ZM482.742 664.852C483.032 665.136 483.4 665.329 483.8 665.406C484.2 665.484 484.614 665.443 484.99 665.288C485.366 665.133 485.688 664.871 485.914 664.535C486.14 664.2 486.261 663.806 486.261 663.403C486.261 662.999 486.14 662.605 485.914 662.27C485.688 661.934 485.366 661.673 484.99 661.518C484.614 661.363 484.2 661.321 483.8 661.399C483.4 661.477 483.032 661.67 482.742 661.954C482.358 662.34 482.142 662.86 482.142 663.403C482.142 663.945 482.358 664.465 482.742 664.852V664.852ZM432.804 752.342C432.992 752.535 433.218 752.689 433.468 752.794C433.718 752.899 433.986 752.953 434.258 752.953C434.529 752.953 434.798 752.899 435.047 752.794C435.297 752.689 435.523 752.535 435.711 752.342C436.002 752.057 436.2 751.693 436.281 751.297C436.362 750.9 436.322 750.489 436.166 750.115C436.01 749.741 435.746 749.421 435.406 749.196C435.066 748.971 434.666 748.851 434.258 748.851C433.849 748.851 433.449 748.971 433.109 749.196C432.769 749.421 432.505 749.741 432.349 750.115C432.193 750.489 432.153 750.9 432.234 751.297C432.315 751.693 432.513 752.057 432.804 752.342ZM584.884 767.996C585.758 768.843 586.865 769.416 588.067 769.643C589.269 769.87 590.512 769.741 591.641 769.272C592.769 768.803 593.732 768.015 594.409 767.007C595.086 765.999 595.448 764.815 595.448 763.605C595.448 762.394 595.086 761.211 594.409 760.203C593.732 759.194 592.769 758.407 591.641 757.938C590.512 757.469 589.269 757.34 588.067 757.567C586.865 757.794 585.758 758.367 584.884 759.214C584.292 759.783 583.82 760.464 583.495 761.215C583.171 761.967 583.001 762.774 582.995 763.591C582.988 764.408 583.146 765.218 583.459 765.974C583.772 766.731 584.234 767.418 584.817 767.996H584.884ZM29.6984 489.454C30.3143 490.08 31.105 490.51 31.9693 490.689C32.8336 490.868 33.7322 490.788 34.5503 490.459C35.3684 490.13 36.0688 489.567 36.5619 488.843C37.0549 488.118 37.3183 487.264 37.3183 486.391C37.3183 485.517 37.0549 484.664 36.5619 483.939C36.0688 483.215 35.3684 482.652 34.5503 482.323C33.7322 481.994 32.8336 481.914 31.9693 482.093C31.105 482.272 30.3143 482.702 29.6984 483.328C28.8917 484.148 28.4403 485.247 28.4403 486.391C28.4403 487.535 28.8917 488.634 29.6984 489.454V489.454ZM684.695 711.55C685.312 712.173 686.103 712.6 686.966 712.776C687.83 712.953 688.727 712.871 689.543 712.541C690.359 712.211 691.058 711.649 691.549 710.925C692.041 710.201 692.304 709.348 692.304 708.476C692.304 707.604 692.041 706.751 691.549 706.027C691.058 705.303 690.359 704.741 689.543 704.411C688.727 704.081 687.83 703.999 686.966 704.176C686.103 704.353 685.312 704.78 684.695 705.402C683.881 706.223 683.426 707.327 683.426 708.476C683.426 709.625 683.881 710.729 684.695 711.55V711.55ZM484.341 601.775C484.956 602.401 485.747 602.831 486.611 603.01C487.476 603.189 488.374 603.109 489.192 602.78C490.011 602.452 490.711 601.889 491.204 601.164C491.697 600.44 491.96 599.586 491.96 598.712C491.96 597.839 491.697 596.985 491.204 596.261C490.711 595.536 490.011 594.973 489.192 594.644C488.374 594.316 487.476 594.236 486.611 594.415C485.747 594.594 484.956 595.024 484.341 595.65C483.527 596.471 483.072 597.574 483.072 598.723C483.072 599.873 483.527 600.976 484.341 601.797V601.775ZM671.711 769.072C672.161 769.517 672.734 769.82 673.358 769.943C673.983 770.066 674.63 770.004 675.218 769.763C675.806 769.522 676.309 769.114 676.663 768.59C677.016 768.067 677.205 767.451 677.205 766.821C677.205 766.192 677.016 765.576 676.663 765.052C676.309 764.529 675.806 764.121 675.218 763.88C674.63 763.639 673.983 763.576 673.358 763.699C672.734 763.822 672.161 764.126 671.711 764.571C671.406 764.865 671.164 765.217 670.999 765.605C670.833 765.994 670.748 766.411 670.748 766.832C670.748 767.254 670.833 767.671 670.999 768.059C671.164 768.447 671.406 768.799 671.711 769.094V769.072ZM697.501 831.49C697.945 831.95 698.518 832.269 699.146 832.404C699.775 832.54 700.43 832.486 701.027 832.25C701.624 832.014 702.136 831.606 702.497 831.079C702.857 830.552 703.05 829.93 703.05 829.294C703.05 828.658 702.857 828.036 702.497 827.509C702.136 826.982 701.624 826.575 701.027 826.338C700.43 826.102 699.775 826.048 699.146 826.184C698.518 826.319 697.945 826.638 697.501 827.099C696.92 827.689 696.594 828.481 696.594 829.305C696.594 830.129 696.92 830.921 697.501 831.512V831.49ZM573.897 749.993C574.197 750.292 574.553 750.529 574.945 750.691C575.337 750.852 575.758 750.936 576.183 750.936C576.609 750.936 577.029 750.852 577.422 750.691C577.814 750.529 578.17 750.292 578.469 749.993C578.924 749.545 579.234 748.974 579.361 748.352C579.487 747.73 579.423 747.084 579.179 746.498C578.934 745.911 578.518 745.41 577.985 745.057C577.452 744.704 576.825 744.516 576.183 744.516C575.542 744.516 574.915 744.704 574.382 745.057C573.848 745.41 573.433 745.911 573.188 746.498C572.943 747.084 572.88 747.73 573.006 748.352C573.133 748.974 573.443 749.545 573.897 749.993V749.993ZM386.794 867.079C387.245 867.521 387.818 867.821 388.442 867.942C389.065 868.062 389.711 867.997 390.297 867.755C390.884 867.514 391.384 867.106 391.737 866.583C392.089 866.06 392.277 865.446 392.277 864.817C392.277 864.189 392.089 863.574 391.737 863.052C391.384 862.529 390.884 862.121 390.297 861.879C389.711 861.637 389.065 861.572 388.442 861.693C387.818 861.813 387.245 862.114 386.794 862.556C386.491 862.854 386.251 863.208 386.087 863.598C385.923 863.988 385.839 864.406 385.839 864.828C385.839 865.25 385.923 865.669 386.087 866.059C386.251 866.449 386.491 866.803 386.794 867.1V867.079ZM621.661 623.774C621.949 624.061 622.317 624.257 622.718 624.337C623.118 624.417 623.534 624.378 623.912 624.224C624.291 624.07 624.614 623.808 624.841 623.472C625.069 623.136 625.19 622.74 625.19 622.336C625.19 621.931 625.069 621.536 624.841 621.2C624.614 620.864 624.291 620.602 623.912 620.448C623.534 620.294 623.118 620.254 622.718 620.335C622.317 620.415 621.949 620.611 621.661 620.898C621.466 621.084 621.31 621.308 621.204 621.555C621.098 621.802 621.043 622.067 621.043 622.336C621.043 622.604 621.098 622.87 621.204 623.117C621.31 623.364 621.466 623.588 621.661 623.774V623.774ZM692.996 719.41C693.384 719.794 693.911 720.01 694.461 720.01C695.01 720.01 695.537 719.794 695.925 719.41C696.314 719.025 696.532 718.504 696.532 717.961C696.532 717.417 696.314 716.896 695.925 716.512C695.733 716.321 695.505 716.17 695.253 716.067C695.002 715.964 694.733 715.911 694.461 715.911C694.188 715.911 693.919 715.964 693.668 716.067C693.416 716.17 693.188 716.321 692.996 716.512C692.803 716.702 692.651 716.928 692.547 717.176C692.442 717.425 692.389 717.692 692.389 717.961C692.389 718.23 692.442 718.496 692.547 718.745C692.651 718.993 692.803 719.219 692.996 719.41V719.41ZM589.611 745.909C590 746.294 590.527 746.509 591.076 746.509C591.626 746.509 592.153 746.294 592.541 745.909C592.93 745.525 593.148 745.004 593.148 744.46C593.148 743.917 592.93 743.396 592.541 743.011C592.351 742.817 592.123 742.663 591.871 742.558C591.62 742.453 591.349 742.399 591.076 742.399C590.803 742.399 590.533 742.453 590.281 742.558C590.029 742.663 589.802 742.817 589.611 743.011C589.226 743.397 589.011 743.918 589.011 744.46C589.011 745.003 589.226 745.523 589.611 745.909V745.909ZM0.600756 762.529C0.991144 762.91 1.51737 763.123 2.06563 763.123C2.61388 763.123 3.14011 762.91 3.53049 762.529C3.91544 762.143 4.13125 761.622 4.13125 761.08C4.13125 760.538 3.91544 760.017 3.53049 759.631C3.14011 759.25 2.61388 759.037 2.06563 759.037C1.51737 759.037 0.991144 759.25 0.600756 759.631C0.215809 760.017 0 760.538 0 761.08C0 761.622 0.215809 762.143 0.600756 762.529V762.529ZM63.5235 747.314C63.7119 747.508 63.9378 747.661 64.1876 747.766C64.4373 747.871 64.7059 747.925 64.9773 747.925C65.2487 747.925 65.5173 747.871 65.7671 747.766C66.0169 747.661 66.2427 747.508 66.4311 747.314C66.7214 747.029 66.9196 746.666 67.0006 746.269C67.0816 745.873 67.0416 745.461 66.8859 745.087C66.7301 744.713 66.4656 744.393 66.1258 744.168C65.786 743.943 65.3863 743.823 64.9773 743.823C64.5684 743.823 64.1686 743.943 63.8289 744.168C63.4891 744.393 63.2245 744.713 63.0687 745.087C62.913 745.461 62.8731 745.873 62.9541 746.269C63.035 746.666 63.2332 747.029 63.5235 747.314ZM725.778 684.04C726.066 684.327 726.433 684.523 726.834 684.604C727.235 684.684 727.651 684.644 728.029 684.49C728.407 684.336 728.731 684.074 728.958 683.738C729.186 683.402 729.307 683.007 729.307 682.602C729.307 682.198 729.186 681.802 728.958 681.466C728.731 681.13 728.407 680.868 728.029 680.714C727.651 680.56 727.235 680.521 726.834 680.601C726.433 680.681 726.066 680.877 725.778 681.164C725.585 681.352 725.432 681.576 725.328 681.823C725.223 682.07 725.17 682.335 725.17 682.602C725.17 682.87 725.223 683.135 725.328 683.382C725.432 683.628 725.585 683.852 725.778 684.04ZM178.405 491.935C178.694 492.219 179.062 492.412 179.462 492.489C179.862 492.567 180.276 492.526 180.652 492.371C181.029 492.216 181.35 491.954 181.576 491.618C181.802 491.283 181.923 490.889 181.923 490.486C181.923 490.082 181.802 489.688 181.576 489.353C181.35 489.017 181.029 488.756 180.652 488.601C180.276 488.446 179.862 488.404 179.462 488.482C179.062 488.56 178.694 488.752 178.405 489.037C178.212 489.226 178.058 489.452 177.953 489.701C177.849 489.949 177.795 490.216 177.795 490.486C177.795 490.755 177.849 491.022 177.953 491.27C178.058 491.519 178.212 491.745 178.405 491.935V491.935ZM698.322 674.161C698.612 674.445 698.979 674.638 699.379 674.715C699.779 674.793 700.194 674.751 700.57 674.596C700.946 674.441 701.268 674.18 701.494 673.844C701.72 673.509 701.841 673.115 701.841 672.712C701.841 672.308 701.72 671.914 701.494 671.579C701.268 671.243 700.946 670.982 700.57 670.827C700.194 670.672 699.779 670.63 699.379 670.708C698.979 670.785 698.612 670.978 698.322 671.262C698.13 671.45 697.977 671.674 697.873 671.921C697.768 672.168 697.714 672.433 697.714 672.701C697.714 672.968 697.768 673.233 697.873 673.48C697.977 673.727 698.13 673.951 698.322 674.139V674.161ZM514.259 704.327C514.445 704.543 514.674 704.718 514.932 704.842C515.189 704.965 515.47 705.035 515.757 705.045C516.043 705.055 516.328 705.007 516.595 704.902C516.861 704.798 517.102 704.639 517.303 704.437C517.504 704.235 517.66 703.994 517.762 703.729C517.864 703.464 517.909 703.181 517.894 702.898C517.879 702.615 517.805 702.339 517.676 702.086C517.547 701.832 517.366 701.609 517.145 701.429C516.756 701.044 516.229 700.828 515.68 700.828C515.13 700.828 514.603 701.044 514.215 701.429C513.826 701.813 513.608 702.334 513.608 702.878C513.608 703.421 513.826 703.942 514.215 704.327H514.259ZM669.624 690.429C669.82 690.62 670.083 690.726 670.357 690.726C670.631 690.726 670.894 690.62 671.089 690.429C671.247 690.231 671.326 689.982 671.311 689.73C671.296 689.478 671.187 689.24 671.007 689.061C670.826 688.883 670.586 688.776 670.331 688.761C670.076 688.746 669.825 688.824 669.624 688.98C669.42 689.161 669.295 689.415 669.279 689.687C669.262 689.958 669.354 690.225 669.536 690.429H669.624ZM506.225 723.559C506.37 723.705 506.556 723.805 506.759 723.846C506.961 723.887 507.172 723.867 507.363 723.789C507.555 723.712 507.719 723.579 507.834 723.409C507.949 723.239 508.011 723.039 508.011 722.835C508.011 722.63 507.949 722.43 507.834 722.26C507.719 722.09 507.555 721.958 507.363 721.88C507.172 721.802 506.961 721.783 506.759 721.824C506.556 721.865 506.37 721.964 506.225 722.11C506.032 722.303 505.924 722.563 505.924 722.835C505.924 723.106 506.032 723.366 506.225 723.559V723.559ZM534.59 704.81C534.735 704.955 534.921 705.055 535.124 705.096C535.327 705.137 535.537 705.118 535.729 705.04C535.92 704.962 536.084 704.83 536.199 704.66C536.314 704.49 536.376 704.29 536.376 704.085C536.376 703.88 536.314 703.68 536.199 703.51C536.084 703.34 535.92 703.208 535.729 703.13C535.537 703.053 535.327 703.033 535.124 703.074C534.921 703.115 534.735 703.215 534.59 703.361C534.488 703.457 534.407 703.573 534.351 703.701C534.296 703.829 534.267 703.968 534.267 704.107C534.267 704.247 534.296 704.385 534.351 704.513C534.407 704.641 534.488 704.757 534.59 704.854V704.81ZM750.192 790.697C750.337 790.843 750.523 790.943 750.726 790.984C750.929 791.025 751.139 791.005 751.331 790.927C751.522 790.85 751.686 790.718 751.801 790.548C751.917 790.378 751.978 790.178 751.978 789.973C751.978 789.768 751.917 789.568 751.801 789.398C751.686 789.228 751.522 789.096 751.331 789.018C751.139 788.94 750.929 788.921 750.726 788.962C750.523 789.003 750.337 789.103 750.192 789.248C750 789.441 749.892 789.702 749.892 789.973C749.892 790.244 750 790.504 750.192 790.697V790.697ZM751.235 862.49C751.381 862.636 751.566 862.735 751.769 862.776C751.972 862.817 752.182 862.798 752.374 862.72C752.565 862.642 752.729 862.51 752.844 862.34C752.96 862.17 753.021 861.97 753.021 861.765C753.021 861.561 752.96 861.361 752.844 861.191C752.729 861.021 752.565 860.888 752.374 860.811C752.182 860.733 751.972 860.713 751.769 860.754C751.566 860.795 751.381 860.895 751.235 861.041C751.14 861.139 751.066 861.256 751.018 861.384C750.971 861.512 750.951 861.649 750.959 861.785C750.967 861.921 751.004 862.054 751.067 862.175C751.13 862.296 751.217 862.404 751.324 862.49H751.235ZM711.773 863.522C711.918 863.668 712.104 863.767 712.306 863.808C712.509 863.849 712.72 863.83 712.911 863.752C713.103 863.674 713.266 863.542 713.382 863.372C713.497 863.202 713.559 863.002 713.559 862.797C713.559 862.593 713.497 862.393 713.382 862.223C713.266 862.053 713.103 861.92 712.911 861.843C712.72 861.765 712.509 861.745 712.306 861.786C712.104 861.827 711.918 861.927 711.773 862.073C711.591 862.277 711.499 862.544 711.516 862.815C711.532 863.087 711.657 863.341 711.861 863.522H711.773ZM710.752 850.063C710.843 850.178 710.957 850.272 711.088 850.34C711.219 850.407 711.362 850.447 711.51 850.455C711.657 850.464 711.804 850.442 711.942 850.39C712.08 850.338 712.205 850.258 712.309 850.155C712.413 850.052 712.494 849.928 712.547 849.792C712.599 849.655 712.622 849.51 712.613 849.364C712.604 849.219 712.564 849.076 712.496 848.947C712.428 848.818 712.332 848.705 712.217 848.614C712.123 848.515 712.01 848.435 711.884 848.381C711.758 848.326 711.622 848.298 711.484 848.298C711.347 848.298 711.211 848.326 711.084 848.381C710.958 848.435 710.845 848.515 710.752 848.614C710.571 848.819 710.478 849.086 710.495 849.357C710.511 849.628 710.636 849.882 710.84 850.063H710.752ZM582.176 757.326C582.371 757.516 582.634 757.623 582.908 757.623C583.183 757.623 583.446 757.516 583.641 757.326C583.742 757.233 583.822 757.121 583.877 756.997C583.932 756.872 583.961 756.737 583.961 756.601C583.961 756.465 583.932 756.331 583.877 756.206C583.822 756.081 583.742 755.969 583.641 755.877C583.55 755.762 583.435 755.668 583.304 755.6C583.174 755.533 583.03 755.493 582.883 755.485C582.736 755.476 582.588 755.498 582.451 755.55C582.313 755.602 582.188 755.682 582.083 755.785C581.979 755.888 581.898 756.012 581.846 756.148C581.794 756.285 581.771 756.431 581.78 756.576C581.789 756.722 581.828 756.864 581.897 756.993C581.965 757.122 582.06 757.236 582.176 757.326V757.326ZM692.485 689.485C692.677 689.674 692.936 689.78 693.207 689.78C693.477 689.78 693.736 689.674 693.928 689.485C694.029 689.393 694.109 689.281 694.164 689.156C694.219 689.031 694.248 688.897 694.248 688.761C694.248 688.625 694.219 688.49 694.164 688.365C694.109 688.241 694.029 688.129 693.928 688.036C693.736 687.847 693.477 687.741 693.207 687.741C692.936 687.741 692.677 687.847 692.485 688.036C692.384 688.129 692.304 688.241 692.249 688.365C692.194 688.49 692.165 688.625 692.165 688.761C692.165 688.897 692.194 689.031 692.249 689.156C692.304 689.281 692.384 689.393 692.485 689.485V689.485ZM575.473 742.177C575.618 742.323 575.804 742.422 576.007 742.463C576.21 742.504 576.42 742.485 576.612 742.407C576.803 742.329 576.967 742.197 577.082 742.027C577.198 741.857 577.259 741.657 577.259 741.452C577.259 741.248 577.198 741.048 577.082 740.878C576.967 740.708 576.803 740.575 576.612 740.498C576.42 740.42 576.21 740.4 576.007 740.441C575.804 740.482 575.618 740.582 575.473 740.728C575.297 740.915 575.197 741.16 575.193 741.415C575.189 741.671 575.281 741.919 575.451 742.111L575.473 742.177ZM663.21 708.959C663.402 709.149 663.631 709.3 663.882 709.403C664.133 709.506 664.403 709.559 664.675 709.559C664.947 709.559 665.216 709.506 665.468 709.403C665.719 709.3 665.947 709.149 666.14 708.959C666.332 708.769 666.485 708.543 666.589 708.294C666.693 708.046 666.746 707.779 666.746 707.51C666.746 707.241 666.693 706.975 666.589 706.726C666.485 706.477 666.332 706.251 666.14 706.061C665.949 705.867 665.722 705.713 665.47 705.608C665.218 705.503 664.948 705.448 664.675 705.448C664.402 705.448 664.131 705.503 663.88 705.608C663.628 705.713 663.4 705.867 663.21 706.061C662.842 706.441 662.634 706.946 662.63 707.473C662.626 707.999 662.825 708.507 663.188 708.893L663.21 708.959ZM536.987 741.892C537.177 742.085 537.405 742.239 537.657 742.345C537.908 742.45 538.179 742.504 538.452 742.504C538.725 742.504 538.996 742.45 539.247 742.345C539.499 742.239 539.726 742.085 539.917 741.892C540.305 741.507 540.524 740.986 540.524 740.442C540.524 739.899 540.305 739.378 539.917 738.993C539.528 738.609 539.001 738.393 538.452 738.393C537.902 738.393 537.376 738.609 536.987 738.993C536.615 739.367 536.405 739.87 536.401 740.394C536.397 740.919 536.599 741.424 536.965 741.804L536.987 741.892ZM564.398 743.933C564.686 744.22 565.054 744.417 565.454 744.497C565.855 744.577 566.271 744.537 566.649 744.383C567.027 744.229 567.351 743.967 567.578 743.631C567.806 743.295 567.927 742.9 567.927 742.495C567.927 742.091 567.806 741.695 567.578 741.359C567.351 741.023 567.027 740.761 566.649 740.607C566.271 740.453 565.855 740.414 565.454 740.494C565.054 740.574 564.686 740.77 564.398 741.057C564.033 741.43 563.826 741.928 563.822 742.447C563.818 742.966 564.016 743.467 564.376 743.845L564.398 743.933ZM728.885 776.866C729.173 777.153 729.541 777.349 729.942 777.429C730.342 777.509 730.758 777.47 731.136 777.316C731.514 777.162 731.838 776.9 732.065 776.564C732.293 776.228 732.414 775.832 732.414 775.428C732.414 775.023 732.293 774.628 732.065 774.292C731.838 773.955 731.514 773.694 731.136 773.54C730.758 773.386 730.342 773.346 729.942 773.426C729.541 773.506 729.173 773.702 728.885 773.99C728.532 774.36 728.334 774.849 728.33 775.358C728.326 775.866 728.516 776.358 728.863 776.734L728.885 776.866ZM154.545 651.723C154.834 652.007 155.202 652.2 155.602 652.277C156.002 652.355 156.417 652.314 156.793 652.159C157.169 652.004 157.491 651.742 157.717 651.406C157.943 651.071 158.064 650.677 158.064 650.274C158.064 649.87 157.943 649.476 157.717 649.141C157.491 648.805 157.169 648.544 156.793 648.389C156.417 648.234 156.002 648.192 155.602 648.27C155.202 648.347 154.834 648.54 154.545 648.825C154.172 649.202 153.961 649.708 153.957 650.236C153.953 650.764 154.156 651.273 154.523 651.657L154.545 651.723ZM102.786 840.052C103.076 840.336 103.444 840.529 103.844 840.607C104.244 840.684 104.658 840.643 105.034 840.488C105.41 840.333 105.732 840.071 105.958 839.736C106.184 839.4 106.305 839.006 106.305 838.603C106.305 838.2 106.184 837.806 105.958 837.47C105.732 837.135 105.41 836.873 105.034 836.718C104.658 836.563 104.244 836.522 103.844 836.599C103.444 836.677 103.076 836.87 102.786 837.154C102.402 837.54 102.186 838.061 102.186 838.603C102.186 839.145 102.402 839.666 102.786 840.052V840.052ZM640.926 849.756C641.215 850.04 641.583 850.233 641.983 850.311C642.383 850.388 642.798 850.347 643.174 850.192C643.55 850.037 643.872 849.775 644.098 849.44C644.324 849.104 644.445 848.71 644.445 848.307C644.445 847.904 644.324 847.51 644.098 847.174C643.872 846.839 643.55 846.577 643.174 846.422C642.798 846.267 642.383 846.226 641.983 846.303C641.583 846.381 641.215 846.574 640.926 846.858C640.73 847.046 640.574 847.272 640.468 847.52C640.362 847.769 640.307 848.037 640.307 848.307C640.307 848.577 640.362 848.845 640.468 849.094C640.574 849.343 640.73 849.568 640.926 849.756V849.756ZM183.132 633.368C183.42 633.655 183.788 633.852 184.189 633.932C184.59 634.012 185.006 633.972 185.384 633.818C185.762 633.664 186.085 633.402 186.313 633.066C186.54 632.73 186.662 632.335 186.662 631.93C186.662 631.526 186.54 631.13 186.313 630.794C186.085 630.458 185.762 630.196 185.384 630.042C185.006 629.888 184.59 629.849 184.189 629.929C183.788 630.009 183.42 630.205 183.132 630.492C182.937 630.679 182.782 630.902 182.676 631.149C182.569 631.396 182.515 631.662 182.515 631.93C182.515 632.199 182.569 632.464 182.676 632.711C182.782 632.959 182.937 633.182 183.132 633.368V633.368ZM678.857 864.246C679.147 864.53 679.515 864.723 679.915 864.801C680.314 864.879 680.729 864.837 681.105 864.682C681.481 864.527 681.803 864.266 682.029 863.93C682.255 863.595 682.376 863.201 682.376 862.797C682.376 862.394 682.255 862 682.029 861.664C681.803 861.329 681.481 861.067 681.105 860.912C680.729 860.757 680.314 860.716 679.915 860.794C679.515 860.871 679.147 861.064 678.857 861.348C678.661 861.537 678.506 861.762 678.399 862.011C678.293 862.26 678.238 862.527 678.238 862.797C678.238 863.068 678.293 863.335 678.399 863.584C678.506 863.833 678.661 864.058 678.857 864.246V864.246ZM268.894 743.845C269.182 744.133 269.55 744.329 269.95 744.409C270.351 744.489 270.767 744.449 271.145 744.295C271.523 744.141 271.847 743.88 272.074 743.544C272.302 743.207 272.423 742.812 272.423 742.407C272.423 742.003 272.302 741.608 272.074 741.271C271.847 740.935 271.523 740.674 271.145 740.52C270.767 740.365 270.351 740.326 269.95 740.406C269.55 740.486 269.182 740.682 268.894 740.969C268.698 741.156 268.543 741.379 268.437 741.626C268.331 741.873 268.276 742.139 268.276 742.407C268.276 742.676 268.331 742.942 268.437 743.189C268.543 743.436 268.698 743.659 268.894 743.845V743.845ZM596.137 799.106C596.327 799.3 596.555 799.454 596.806 799.559C597.058 799.664 597.328 799.719 597.602 799.719C597.875 799.719 598.145 799.664 598.397 799.559C598.648 799.454 598.876 799.3 599.066 799.106C599.354 798.82 599.549 798.456 599.627 798.06C599.706 797.665 599.664 797.255 599.507 796.883C599.35 796.511 599.086 796.192 598.747 795.969C598.408 795.745 598.009 795.626 597.602 795.626C597.194 795.626 596.795 795.745 596.456 795.969C596.117 796.192 595.853 796.511 595.696 796.883C595.539 797.255 595.498 797.665 595.576 798.06C595.654 798.456 595.85 798.82 596.137 799.106Z" fill="#604F72"/>
</svg>
