<svg width="1589" height="1862" viewBox="0 0 1589 1862" fill="none" xmlns="http://www.w3.org/2000/svg">
<path fill-rule="evenodd" clip-rule="evenodd" d="M1305.2 1798.62C1304.99 1799.38 1304.57 1800.06 1303.98 1800.58C1303.39 1801.09 1302.65 1801.43 1301.87 1801.54C1301.08 1801.65 1300.28 1801.52 1299.57 1801.18C1298.86 1800.84 1298.26 1800.3 1297.86 1799.63C1297.45 1798.96 1297.26 1798.18 1297.3 1797.4C1297.34 1796.62 1297.62 1795.87 1298.09 1795.24C1298.57 1794.61 1299.22 1794.14 1299.96 1793.87C1300.71 1793.61 1301.52 1793.57 1302.29 1793.76C1302.8 1793.89 1303.29 1794.12 1303.71 1794.43C1304.14 1794.74 1304.5 1795.14 1304.77 1795.59C1305.04 1796.04 1305.22 1796.54 1305.29 1797.06C1305.36 1797.58 1305.33 1798.11 1305.2 1798.62Z" fill="#779BFF"/>
<path d="M1223.99 1562.28C1226.21 1562.28 1228.01 1560.51 1228.01 1558.32C1228.01 1556.13 1226.21 1554.35 1223.99 1554.35C1221.77 1554.35 1219.98 1556.13 1219.98 1558.32C1219.98 1560.51 1221.77 1562.28 1223.99 1562.28Z" fill="#779BFF"/>
<path fill-rule="evenodd" clip-rule="evenodd" d="M1041.19 1652.16C1040.99 1652.92 1040.56 1653.6 1039.97 1654.12C1039.38 1654.64 1038.64 1654.97 1037.86 1655.08C1037.07 1655.19 1036.27 1655.06 1035.56 1654.72C1034.85 1654.38 1034.25 1653.84 1033.85 1653.17C1033.44 1652.5 1033.25 1651.72 1033.29 1650.94C1033.34 1650.16 1033.61 1649.41 1034.08 1648.78C1034.56 1648.15 1035.21 1647.68 1035.95 1647.42C1036.7 1647.15 1037.51 1647.11 1038.28 1647.3C1038.79 1647.43 1039.28 1647.66 1039.7 1647.97C1040.13 1648.29 1040.49 1648.68 1040.76 1649.13C1041.03 1649.58 1041.21 1650.08 1041.28 1650.6C1041.35 1651.12 1041.32 1651.65 1041.19 1652.16Z" fill="#779BFF"/>
<path fill-rule="evenodd" clip-rule="evenodd" d="M906.964 1464.15C906.765 1464.9 906.343 1465.59 905.752 1466.11C905.16 1466.63 904.426 1466.97 903.641 1467.08C902.856 1467.19 902.055 1467.06 901.34 1466.73C900.626 1466.39 900.028 1465.85 899.623 1465.17C899.219 1464.5 899.025 1463.72 899.067 1462.94C899.108 1462.16 899.383 1461.41 899.857 1460.78C900.331 1460.15 900.982 1459.68 901.729 1459.42C902.476 1459.15 903.285 1459.11 904.054 1459.3C904.568 1459.43 905.052 1459.66 905.477 1459.97C905.902 1460.28 906.26 1460.68 906.53 1461.13C906.801 1461.58 906.978 1462.08 907.053 1462.59C907.127 1463.11 907.097 1463.64 906.964 1464.15V1464.15Z" fill="#779BFF"/>
<path fill-rule="evenodd" clip-rule="evenodd" d="M889.504 1588.51C889.305 1589.26 888.883 1589.95 888.292 1590.47C887.7 1590.99 886.966 1591.33 886.181 1591.44C885.396 1591.55 884.595 1591.43 883.88 1591.09C883.166 1590.75 882.568 1590.21 882.163 1589.53C881.759 1588.86 881.565 1588.09 881.607 1587.3C881.648 1586.52 881.923 1585.77 882.397 1585.14C882.871 1584.51 883.522 1584.04 884.269 1583.78C885.016 1583.51 885.825 1583.47 886.594 1583.67C887.108 1583.79 887.592 1584.02 888.017 1584.33C888.442 1584.64 888.8 1585.04 889.07 1585.49C889.341 1585.94 889.518 1586.44 889.593 1586.95C889.667 1587.47 889.637 1588 889.504 1588.51V1588.51Z" fill="#779BFF"/>
<path fill-rule="evenodd" clip-rule="evenodd" d="M1055.4 1583.51C1055.2 1584.26 1054.78 1584.95 1054.19 1585.47C1053.6 1585.99 1052.86 1586.33 1052.08 1586.44C1051.29 1586.55 1050.49 1586.42 1049.78 1586.09C1049.06 1585.75 1048.47 1585.21 1048.06 1584.53C1047.66 1583.86 1047.46 1583.08 1047.51 1582.3C1047.55 1581.52 1047.82 1580.77 1048.3 1580.14C1048.77 1579.51 1049.42 1579.04 1050.17 1578.78C1050.91 1578.51 1051.72 1578.47 1052.49 1578.66C1053.01 1578.79 1053.49 1579.02 1053.92 1579.33C1054.34 1579.64 1054.7 1580.04 1054.97 1580.49C1055.24 1580.94 1055.42 1581.44 1055.49 1581.95C1055.57 1582.47 1055.54 1583 1055.4 1583.51V1583.51Z" fill="#779BFF"/>
<path d="M1348.82 1829.64C1350.38 1829.64 1351.65 1828.39 1351.65 1826.84C1351.65 1825.29 1350.38 1824.04 1348.82 1824.04C1347.25 1824.04 1345.98 1825.29 1345.98 1826.84C1345.98 1828.39 1347.25 1829.64 1348.82 1829.64Z" fill="#779BFF"/>
<path d="M994.234 1642.71C995.801 1642.71 997.072 1641.45 997.072 1639.9C997.072 1638.36 995.801 1637.1 994.234 1637.1C992.667 1637.1 991.397 1638.36 991.397 1639.9C991.397 1641.45 992.667 1642.71 994.234 1642.71Z" fill="#779BFF"/>
<path d="M1250.85 1757.83C1251.25 1756.34 1250.34 1754.8 1248.83 1754.41C1247.31 1754.01 1245.76 1754.91 1245.36 1756.4C1244.96 1757.9 1245.87 1759.43 1247.38 1759.83C1248.9 1760.22 1250.45 1759.33 1250.85 1757.83Z" fill="#779BFF"/>
<path d="M1424.93 1641.28C1426.49 1641.28 1427.76 1640.03 1427.76 1638.48C1427.76 1636.93 1426.49 1635.68 1424.93 1635.68C1423.36 1635.68 1422.09 1636.93 1422.09 1638.48C1422.09 1640.03 1423.36 1641.28 1424.93 1641.28Z" fill="#779BFF"/>
<path d="M1396.26 1756.78C1397.83 1756.78 1399.1 1755.52 1399.1 1753.98C1399.1 1752.43 1397.83 1751.17 1396.26 1751.17C1394.7 1751.17 1393.43 1752.43 1393.43 1753.98C1393.43 1755.52 1394.7 1756.78 1396.26 1756.78Z" fill="#779BFF"/>
<path fill-rule="evenodd" clip-rule="evenodd" d="M1238.62 1720.61C1238.47 1721.14 1238.12 1721.58 1237.64 1721.85C1237.16 1722.12 1236.6 1722.19 1236.07 1722.05C1235.56 1721.88 1235.14 1721.53 1234.89 1721.07C1234.63 1720.61 1234.57 1720.07 1234.7 1719.56C1234.84 1719.05 1235.16 1718.61 1235.61 1718.33C1236.07 1718.05 1236.61 1717.95 1237.13 1718.05C1237.4 1718.12 1237.65 1718.24 1237.88 1718.41C1238.1 1718.58 1238.28 1718.79 1238.42 1719.02C1238.56 1719.26 1238.65 1719.53 1238.68 1719.8C1238.71 1720.07 1238.69 1720.35 1238.62 1720.61V1720.61Z" fill="#779BFF"/>
<path fill-rule="evenodd" clip-rule="evenodd" d="M1111.27 1655.98C1111.13 1656.51 1110.79 1656.96 1110.31 1657.24C1109.83 1657.51 1109.26 1657.59 1108.73 1657.45C1108.19 1657.31 1107.74 1656.97 1107.46 1656.49C1107.18 1656.02 1107.1 1655.46 1107.24 1654.93C1107.31 1654.67 1107.43 1654.43 1107.6 1654.21C1107.77 1654 1107.97 1653.82 1108.21 1653.68C1108.45 1653.54 1108.71 1653.46 1108.98 1653.42C1109.25 1653.38 1109.53 1653.4 1109.79 1653.47C1110.05 1653.54 1110.3 1653.66 1110.52 1653.82C1110.74 1653.98 1110.92 1654.19 1111.06 1654.42C1111.2 1654.65 1111.29 1654.91 1111.32 1655.18C1111.36 1655.45 1111.34 1655.72 1111.27 1655.98Z" fill="#779BFF"/>
<path fill-rule="evenodd" clip-rule="evenodd" d="M915.723 1666.97C915.653 1667.24 915.532 1667.48 915.366 1667.7C915.201 1667.91 914.994 1668.09 914.757 1668.23C914.521 1668.36 914.259 1668.45 913.988 1668.49C913.717 1668.53 913.441 1668.51 913.177 1668.44C912.912 1668.37 912.664 1668.25 912.446 1668.09C912.228 1667.92 912.045 1667.72 911.907 1667.49C911.769 1667.25 911.68 1666.99 911.643 1666.73C911.606 1666.46 911.623 1666.19 911.693 1665.93C911.833 1665.4 912.181 1664.95 912.658 1664.67C913.136 1664.4 913.704 1664.32 914.239 1664.46C914.773 1664.6 915.23 1664.94 915.508 1665.41C915.787 1665.88 915.864 1666.45 915.723 1666.97Z" fill="#779BFF"/>
<path fill-rule="evenodd" clip-rule="evenodd" d="M927.93 1621.35C927.823 1621.75 927.6 1622.1 927.29 1622.37C926.98 1622.63 926.596 1622.81 926.187 1622.86C925.778 1622.91 925.363 1622.84 924.994 1622.66C924.625 1622.48 924.319 1622.19 924.115 1621.84C923.91 1621.49 923.817 1621.08 923.846 1620.67C923.875 1620.27 924.025 1619.88 924.278 1619.56C924.531 1619.24 924.875 1619 925.266 1618.87C925.657 1618.74 926.078 1618.73 926.475 1618.84C926.739 1618.91 926.985 1619.03 927.201 1619.19C927.417 1619.36 927.598 1619.56 927.733 1619.8C927.868 1620.03 927.955 1620.29 927.989 1620.56C928.023 1620.82 928.003 1621.09 927.93 1621.35V1621.35Z" fill="#779BFF"/>
<path fill-rule="evenodd" clip-rule="evenodd" d="M996.752 1514.26C996.645 1514.66 996.422 1515.01 996.111 1515.28C995.801 1515.55 995.417 1515.72 995.008 1515.77C994.6 1515.82 994.184 1515.75 993.816 1515.57C993.447 1515.39 993.14 1515.1 992.936 1514.75C992.732 1514.4 992.638 1513.99 992.667 1513.59C992.696 1513.18 992.847 1512.79 993.1 1512.47C993.352 1512.15 993.696 1511.91 994.087 1511.78C994.479 1511.65 994.899 1511.64 995.297 1511.75C995.826 1511.89 996.276 1512.24 996.549 1512.71C996.822 1513.18 996.894 1513.74 996.752 1514.26V1514.26Z" fill="#779BFF"/>
<path d="M1312.62 1785.73C1313.36 1785.73 1313.95 1785.14 1313.95 1784.41C1313.95 1783.68 1313.36 1783.09 1312.62 1783.09C1311.88 1783.09 1311.28 1783.68 1311.28 1784.41C1311.28 1785.14 1311.88 1785.73 1312.62 1785.73Z" fill="#779BFF"/>
<path fill-rule="evenodd" clip-rule="evenodd" d="M1242.54 1754.29C1242.5 1754.46 1242.42 1754.62 1242.31 1754.76C1242.2 1754.89 1242.07 1755.01 1241.92 1755.1C1241.77 1755.18 1241.6 1755.24 1241.42 1755.26C1241.25 1755.28 1241.07 1755.27 1240.9 1755.23C1240.73 1755.18 1240.57 1755.11 1240.43 1755C1240.29 1754.9 1240.17 1754.77 1240.09 1754.62C1240 1754.47 1239.94 1754.3 1239.92 1754.13C1239.9 1753.96 1239.91 1753.78 1239.95 1753.62C1240 1753.45 1240.08 1753.29 1240.18 1753.15C1240.29 1753.02 1240.42 1752.9 1240.57 1752.81C1240.73 1752.72 1240.89 1752.67 1241.07 1752.64C1241.24 1752.62 1241.42 1752.63 1241.59 1752.68C1241.76 1752.72 1241.92 1752.8 1242.06 1752.9C1242.2 1753.01 1242.32 1753.14 1242.41 1753.29C1242.49 1753.44 1242.55 1753.61 1242.58 1753.78C1242.6 1753.95 1242.59 1754.12 1242.54 1754.29V1754.29Z" fill="#779BFF"/>
<path fill-rule="evenodd" clip-rule="evenodd" d="M1235.81 1784.61C1235.72 1784.95 1235.5 1785.24 1235.19 1785.42C1234.89 1785.59 1234.52 1785.65 1234.18 1785.56C1234.01 1785.51 1233.85 1785.44 1233.71 1785.33C1233.57 1785.23 1233.45 1785.1 1233.36 1784.94C1233.27 1784.79 1233.22 1784.63 1233.19 1784.46C1233.17 1784.28 1233.18 1784.11 1233.22 1783.94C1233.27 1783.77 1233.35 1783.62 1233.45 1783.48C1233.56 1783.34 1233.69 1783.22 1233.85 1783.14C1234 1783.05 1234.17 1782.99 1234.34 1782.97C1234.51 1782.95 1234.69 1782.96 1234.86 1783C1235.03 1783.04 1235.19 1783.12 1235.33 1783.23C1235.47 1783.33 1235.59 1783.46 1235.67 1783.61C1235.76 1783.76 1235.82 1783.93 1235.84 1784.1C1235.87 1784.27 1235.85 1784.44 1235.81 1784.61V1784.61Z" fill="#779BFF"/>
<path fill-rule="evenodd" clip-rule="evenodd" d="M1254.46 1781.28C1254.41 1781.44 1254.34 1781.6 1254.23 1781.74C1254.12 1781.88 1253.99 1781.99 1253.83 1782.08C1253.68 1782.17 1253.51 1782.22 1253.34 1782.25C1253.16 1782.27 1252.99 1782.26 1252.82 1782.21C1252.65 1782.17 1252.49 1782.09 1252.35 1781.98C1252.21 1781.88 1252.09 1781.75 1252 1781.6C1251.91 1781.45 1251.85 1781.28 1251.83 1781.11C1251.81 1780.94 1251.82 1780.76 1251.86 1780.59C1251.91 1780.43 1251.99 1780.27 1252.09 1780.13C1252.2 1779.99 1252.33 1779.88 1252.48 1779.79C1252.64 1779.7 1252.8 1779.64 1252.98 1779.62C1253.15 1779.6 1253.33 1779.61 1253.5 1779.65C1253.84 1779.74 1254.14 1779.97 1254.32 1780.27C1254.5 1780.57 1254.55 1780.94 1254.46 1781.28V1781.28Z" fill="#779BFF"/>
<path fill-rule="evenodd" clip-rule="evenodd" d="M1218.38 1777.86C1218.33 1778.02 1218.25 1778.18 1218.15 1778.32C1218.04 1778.46 1217.91 1778.57 1217.76 1778.66C1217.6 1778.75 1217.44 1778.81 1217.26 1778.83C1217.09 1778.85 1216.91 1778.84 1216.74 1778.8C1216.57 1778.75 1216.41 1778.68 1216.27 1778.57C1216.13 1778.47 1216.01 1778.33 1215.92 1778.18C1215.84 1778.03 1215.78 1777.87 1215.75 1777.7C1215.73 1777.52 1215.74 1777.35 1215.79 1777.18C1215.88 1776.84 1216.1 1776.55 1216.41 1776.38C1216.71 1776.2 1217.08 1776.15 1217.42 1776.24C1217.77 1776.33 1218.06 1776.55 1218.24 1776.85C1218.42 1777.16 1218.47 1777.52 1218.38 1777.86Z" fill="#779BFF"/>
<path fill-rule="evenodd" clip-rule="evenodd" d="M828.627 1722.42C828.583 1722.59 828.506 1722.75 828.4 1722.89C828.294 1723.02 828.161 1723.14 828.01 1723.23C827.858 1723.31 827.691 1723.37 827.517 1723.39C827.343 1723.41 827.167 1723.4 826.997 1723.36C826.654 1723.27 826.361 1723.05 826.182 1722.74C826.003 1722.44 825.954 1722.08 826.044 1721.74C826.135 1721.4 826.358 1721.11 826.665 1720.93C826.972 1720.76 827.338 1720.71 827.681 1720.8C827.851 1720.84 828.011 1720.92 828.151 1721.03C828.291 1721.13 828.408 1721.27 828.496 1721.42C828.583 1721.57 828.64 1721.73 828.663 1721.91C828.685 1722.08 828.673 1722.25 828.627 1722.42V1722.42Z" fill="#779BFF"/>
<path fill-rule="evenodd" clip-rule="evenodd" d="M1264.72 1762.12C1264.67 1762.29 1264.56 1762.44 1264.4 1762.53C1264.25 1762.62 1264.06 1762.64 1263.89 1762.6C1263.72 1762.55 1263.57 1762.44 1263.48 1762.29C1263.39 1762.14 1263.37 1761.95 1263.42 1761.79C1263.46 1761.62 1263.57 1761.47 1263.73 1761.38C1263.88 1761.3 1264.07 1761.27 1264.24 1761.32C1264.41 1761.36 1264.56 1761.47 1264.65 1761.62C1264.74 1761.77 1264.76 1761.95 1264.72 1762.12Z" fill="#779BFF"/>
<path fill-rule="evenodd" clip-rule="evenodd" d="M1058.14 1861.27C1058.07 1861.47 1057.93 1861.65 1057.74 1861.75C1057.55 1861.86 1057.32 1861.89 1057.11 1861.83C1056.9 1861.78 1056.72 1861.64 1056.61 1861.45C1056.49 1861.27 1056.46 1861.05 1056.51 1860.84C1056.57 1860.62 1056.71 1860.44 1056.9 1860.33C1057.1 1860.22 1057.33 1860.19 1057.54 1860.25C1057.76 1860.3 1057.94 1860.44 1058.05 1860.63C1058.17 1860.83 1058.2 1861.05 1058.14 1861.27V1861.27Z" fill="#779BFF"/>
<path d="M1108.87 1722.81C1109.24 1722.81 1109.54 1722.51 1109.54 1722.15C1109.54 1721.78 1109.24 1721.49 1108.87 1721.49C1108.5 1721.49 1108.2 1721.78 1108.2 1722.15C1108.2 1722.51 1108.5 1722.81 1108.87 1722.81Z" fill="#779BFF"/>
<path fill-rule="evenodd" clip-rule="evenodd" d="M965.149 1675.02C965.105 1675.19 964.994 1675.34 964.841 1675.42C964.688 1675.51 964.506 1675.54 964.334 1675.49C964.164 1675.44 964.019 1675.33 963.93 1675.18C963.84 1675.03 963.813 1674.85 963.854 1674.68C963.878 1674.59 963.918 1674.51 963.972 1674.44C964.027 1674.38 964.095 1674.32 964.172 1674.28C964.249 1674.23 964.334 1674.21 964.422 1674.19C964.51 1674.18 964.599 1674.19 964.684 1674.22C964.768 1674.24 964.848 1674.28 964.917 1674.33C964.987 1674.38 965.045 1674.45 965.088 1674.52C965.132 1674.6 965.16 1674.68 965.17 1674.76C965.18 1674.85 965.173 1674.94 965.149 1675.02Z" fill="#779BFF"/>
<path fill-rule="evenodd" clip-rule="evenodd" d="M1186.57 1732.09C1186.52 1732.26 1186.41 1732.41 1186.25 1732.5C1186.1 1732.59 1185.91 1732.61 1185.74 1732.57C1185.57 1732.52 1185.42 1732.41 1185.33 1732.26C1185.25 1732.11 1185.22 1731.92 1185.27 1731.76C1185.31 1731.59 1185.43 1731.44 1185.58 1731.35C1185.74 1731.27 1185.92 1731.24 1186.09 1731.29C1186.26 1731.34 1186.4 1731.45 1186.49 1731.6C1186.58 1731.75 1186.61 1731.92 1186.57 1732.09V1732.09Z" fill="#779BFF"/>
<path fill-rule="evenodd" clip-rule="evenodd" d="M1094.24 1714.23C1094.19 1714.4 1094.07 1714.55 1093.92 1714.64C1093.76 1714.73 1093.58 1714.75 1093.41 1714.71C1093.24 1714.66 1093.09 1714.55 1093.01 1714.4C1092.92 1714.25 1092.9 1714.07 1092.94 1713.9C1092.96 1713.82 1093 1713.74 1093.05 1713.67C1093.1 1713.6 1093.17 1713.54 1093.25 1713.49C1093.32 1713.45 1093.41 1713.42 1093.49 1713.41C1093.58 1713.4 1093.67 1713.4 1093.76 1713.43C1093.93 1713.47 1094.07 1713.58 1094.16 1713.73C1094.25 1713.88 1094.28 1714.06 1094.24 1714.23V1714.23Z" fill="#779BFF"/>
<path fill-rule="evenodd" clip-rule="evenodd" d="M871.171 1659.66C871.123 1659.83 871.01 1659.98 870.855 1660.07C870.699 1660.15 870.515 1660.18 870.342 1660.13C870.173 1660.09 870.029 1659.98 869.942 1659.83C869.855 1659.68 869.831 1659.5 869.876 1659.33C869.896 1659.25 869.934 1659.17 869.986 1659.09C870.039 1659.02 870.105 1658.97 870.181 1658.92C870.257 1658.88 870.342 1658.85 870.429 1658.84C870.517 1658.83 870.606 1658.83 870.691 1658.86C870.86 1658.9 871.005 1659.01 871.095 1659.16C871.184 1659.31 871.211 1659.49 871.171 1659.66V1659.66Z" fill="#779BFF"/>
<path fill-rule="evenodd" clip-rule="evenodd" d="M848.299 1651.41C848.277 1651.5 848.238 1651.57 848.186 1651.64C848.133 1651.71 848.068 1651.77 847.993 1651.81C847.918 1651.85 847.835 1651.88 847.749 1651.89C847.663 1651.91 847.575 1651.9 847.491 1651.88C847.407 1651.86 847.328 1651.82 847.259 1651.77C847.19 1651.72 847.131 1651.65 847.088 1651.58C847.044 1651.5 847.015 1651.42 847.003 1651.34C846.991 1651.25 846.996 1651.17 847.018 1651.08C847.04 1651 847.079 1650.92 847.131 1650.85C847.184 1650.78 847.249 1650.73 847.324 1650.68C847.399 1650.64 847.482 1650.61 847.568 1650.6C847.654 1650.59 847.742 1650.59 847.826 1650.62C847.91 1650.64 847.989 1650.68 848.058 1650.73C848.127 1650.78 848.186 1650.84 848.23 1650.92C848.273 1650.99 848.302 1651.07 848.314 1651.16C848.326 1651.24 848.321 1651.33 848.299 1651.41Z" fill="#779BFF"/>
<path fill-rule="evenodd" clip-rule="evenodd" d="M1252.22 1770.01C1252.2 1770.1 1252.16 1770.18 1252.1 1770.25C1252.05 1770.32 1251.98 1770.38 1251.91 1770.42C1251.83 1770.47 1251.74 1770.49 1251.65 1770.5C1251.57 1770.52 1251.48 1770.51 1251.39 1770.49C1251.22 1770.44 1251.07 1770.33 1250.98 1770.18C1250.89 1770.02 1250.87 1769.84 1250.92 1769.67C1250.96 1769.5 1251.08 1769.36 1251.23 1769.27C1251.38 1769.18 1251.57 1769.16 1251.74 1769.21C1251.91 1769.25 1252.05 1769.36 1252.14 1769.51C1252.23 1769.66 1252.26 1769.84 1252.22 1770.01V1770.01Z" fill="#779BFF"/>
<path fill-rule="evenodd" clip-rule="evenodd" d="M1129.46 1738.67C1129.44 1738.76 1129.4 1738.84 1129.35 1738.91C1129.3 1738.98 1129.23 1739.04 1129.16 1739.08C1129.08 1739.13 1129 1739.16 1128.91 1739.17C1128.82 1739.18 1128.73 1739.17 1128.65 1739.15C1128.56 1739.13 1128.48 1739.09 1128.41 1739.03C1128.34 1738.98 1128.28 1738.91 1128.24 1738.84C1128.2 1738.76 1128.17 1738.68 1128.16 1738.59C1128.14 1738.51 1128.15 1738.42 1128.17 1738.34C1128.2 1738.25 1128.24 1738.17 1128.29 1738.1C1128.34 1738.04 1128.41 1737.98 1128.49 1737.93C1128.56 1737.89 1128.65 1737.86 1128.73 1737.85C1128.82 1737.84 1128.91 1737.85 1129 1737.87C1129.16 1737.92 1129.31 1738.03 1129.4 1738.18C1129.48 1738.33 1129.51 1738.51 1129.46 1738.67V1738.67Z" fill="#779BFF"/>
<path d="M958.165 1696.63C958.535 1696.63 958.834 1696.33 958.834 1695.97C958.834 1695.6 958.535 1695.31 958.165 1695.31C957.796 1695.31 957.496 1695.6 957.496 1695.97C957.496 1696.33 957.796 1696.63 958.165 1696.63Z" fill="#779BFF"/>
<path d="M1261.37 1751.56C1262.11 1751.56 1262.71 1750.97 1262.71 1750.24C1262.71 1749.51 1262.11 1748.92 1261.37 1748.92C1260.63 1748.92 1260.03 1749.51 1260.03 1750.24C1260.03 1750.97 1260.63 1751.56 1261.37 1751.56Z" fill="#779BFF"/>
<path fill-rule="evenodd" clip-rule="evenodd" d="M1203.61 1733.8C1203.54 1734.06 1203.4 1734.28 1203.2 1734.46C1203.01 1734.63 1202.76 1734.75 1202.5 1734.78C1202.24 1734.82 1201.97 1734.78 1201.73 1734.66C1201.49 1734.55 1201.29 1734.37 1201.16 1734.14C1201.02 1733.92 1200.96 1733.66 1200.98 1733.4C1200.99 1733.14 1201.08 1732.89 1201.24 1732.68C1201.4 1732.47 1201.62 1732.31 1201.87 1732.22C1202.12 1732.14 1202.39 1732.13 1202.65 1732.19C1202.99 1732.28 1203.28 1732.5 1203.47 1732.8C1203.65 1733.1 1203.7 1733.46 1203.61 1733.8V1733.8Z" fill="#779BFF"/>
<path fill-rule="evenodd" clip-rule="evenodd" d="M972.41 1615.61C972.321 1615.95 972.099 1616.24 971.793 1616.41C971.488 1616.59 971.123 1616.64 970.78 1616.55C970.584 1616.54 970.394 1616.48 970.223 1616.38C970.053 1616.28 969.907 1616.15 969.795 1615.99C969.683 1615.83 969.608 1615.65 969.576 1615.46C969.543 1615.26 969.554 1615.07 969.607 1614.88C969.661 1614.69 969.755 1614.52 969.884 1614.37C970.013 1614.23 970.174 1614.11 970.354 1614.03C970.534 1613.95 970.729 1613.91 970.926 1613.92C971.123 1613.92 971.317 1613.97 971.493 1614.05C971.818 1614.15 972.093 1614.36 972.264 1614.65C972.434 1614.94 972.486 1615.28 972.41 1615.61V1615.61Z" fill="#779BFF"/>
<path fill-rule="evenodd" clip-rule="evenodd" d="M1269.3 1587.5C1269.24 1587.75 1269.1 1587.98 1268.9 1588.16C1268.71 1588.33 1268.46 1588.45 1268.2 1588.49C1267.94 1588.52 1267.67 1588.49 1267.44 1588.38C1267.2 1588.26 1267 1588.09 1266.86 1587.86C1266.72 1587.64 1266.65 1587.38 1266.67 1587.12C1266.68 1586.86 1266.77 1586.61 1266.92 1586.4C1267.08 1586.19 1267.29 1586.03 1267.54 1585.94C1267.79 1585.85 1268.05 1585.83 1268.31 1585.89C1268.49 1585.93 1268.65 1586 1268.79 1586.11C1268.94 1586.21 1269.06 1586.34 1269.15 1586.49C1269.24 1586.64 1269.31 1586.81 1269.33 1586.98C1269.36 1587.15 1269.35 1587.33 1269.3 1587.5V1587.5Z" fill="#779BFF"/>
<path fill-rule="evenodd" clip-rule="evenodd" d="M1242.95 1491.36C1242.86 1491.7 1242.64 1491.99 1242.33 1492.17C1242.02 1492.34 1241.66 1492.39 1241.31 1492.3C1240.97 1492.21 1240.68 1491.99 1240.5 1491.69C1240.32 1491.39 1240.27 1491.02 1240.36 1490.69C1240.41 1490.52 1240.48 1490.36 1240.59 1490.22C1240.7 1490.08 1240.83 1489.97 1240.98 1489.88C1241.13 1489.79 1241.3 1489.74 1241.48 1489.71C1241.65 1489.69 1241.83 1489.7 1242 1489.74C1242.17 1489.79 1242.33 1489.87 1242.47 1489.97C1242.61 1490.08 1242.73 1490.21 1242.81 1490.36C1242.9 1490.51 1242.96 1490.67 1242.98 1490.85C1243.01 1491.02 1243 1491.19 1242.95 1491.36Z" fill="#779BFF"/>
<path fill-rule="evenodd" clip-rule="evenodd" d="M1149.26 1765.74C1149.22 1765.91 1149.14 1766.07 1149.03 1766.21C1148.93 1766.35 1148.79 1766.46 1148.64 1766.55C1148.49 1766.63 1148.32 1766.69 1148.14 1766.71C1147.97 1766.74 1147.79 1766.72 1147.62 1766.68C1147.45 1766.63 1147.29 1766.56 1147.15 1766.45C1147.01 1766.35 1146.89 1766.21 1146.8 1766.06C1146.72 1765.91 1146.66 1765.75 1146.63 1765.58C1146.61 1765.4 1146.62 1765.23 1146.67 1765.06C1146.71 1764.89 1146.79 1764.74 1146.9 1764.6C1147 1764.46 1147.14 1764.34 1147.29 1764.26C1147.44 1764.17 1147.61 1764.11 1147.78 1764.09C1147.96 1764.07 1148.13 1764.08 1148.3 1764.12C1148.65 1764.21 1148.94 1764.43 1149.12 1764.74C1149.3 1765.04 1149.35 1765.4 1149.26 1765.74V1765.74Z" fill="#779BFF"/>
<path fill-rule="evenodd" clip-rule="evenodd" d="M966.139 1612.62C966.048 1612.96 965.825 1613.25 965.518 1613.42C965.211 1613.6 964.845 1613.65 964.502 1613.56C964.158 1613.47 963.865 1613.25 963.686 1612.95C963.508 1612.64 963.458 1612.28 963.549 1611.94C963.639 1611.6 963.863 1611.31 964.17 1611.14C964.477 1610.96 964.842 1610.91 965.186 1611C965.529 1611.09 965.822 1611.31 966.001 1611.61C966.18 1611.92 966.229 1612.28 966.139 1612.62Z" fill="#779BFF"/>
<path fill-rule="evenodd" clip-rule="evenodd" d="M964.567 1532.77C964.501 1533.02 964.36 1533.25 964.163 1533.43C963.965 1533.6 963.72 1533.71 963.458 1533.75C963.196 1533.79 962.928 1533.75 962.69 1533.63C962.451 1533.52 962.252 1533.34 962.117 1533.11C961.983 1532.89 961.919 1532.63 961.934 1532.37C961.949 1532.11 962.042 1531.85 962.202 1531.65C962.361 1531.44 962.58 1531.28 962.83 1531.19C963.08 1531.11 963.35 1531.1 963.607 1531.16C963.95 1531.25 964.244 1531.47 964.424 1531.77C964.604 1532.07 964.655 1532.43 964.567 1532.77V1532.77Z" fill="#779BFF"/>
<path d="M913.497 1522.14C914.236 1522.14 914.835 1521.55 914.835 1520.82C914.835 1520.09 914.236 1519.5 913.497 1519.5C912.758 1519.5 912.158 1520.09 912.158 1520.82C912.158 1521.55 912.758 1522.14 913.497 1522.14Z" fill="#779BFF"/>
<path fill-rule="evenodd" clip-rule="evenodd" d="M1094.88 1491.04C1094.81 1491.3 1094.67 1491.53 1094.47 1491.7C1094.27 1491.88 1094.03 1491.99 1093.77 1492.02C1093.5 1492.06 1093.24 1492.02 1093 1491.91C1092.76 1491.79 1092.56 1491.61 1092.43 1491.39C1092.29 1491.16 1092.23 1490.9 1092.24 1490.64C1092.26 1490.38 1092.35 1490.13 1092.51 1489.92C1092.67 1489.71 1092.89 1489.55 1093.14 1489.47C1093.39 1489.38 1093.66 1489.37 1093.92 1489.44C1094.26 1489.52 1094.55 1489.74 1094.73 1490.04C1094.91 1490.35 1094.96 1490.71 1094.88 1491.04Z" fill="#779BFF"/>
<path fill-rule="evenodd" clip-rule="evenodd" d="M1212.02 1486.03C1211.97 1486.2 1211.89 1486.36 1211.79 1486.49C1211.68 1486.63 1211.54 1486.75 1211.39 1486.83C1211.24 1486.92 1211.07 1486.98 1210.9 1487C1210.72 1487.02 1210.54 1487.01 1210.37 1486.96C1210.12 1486.9 1209.89 1486.75 1209.72 1486.56C1209.54 1486.36 1209.43 1486.12 1209.4 1485.86C1209.36 1485.6 1209.41 1485.34 1209.53 1485.1C1209.64 1484.87 1209.83 1484.67 1210.06 1484.54C1210.29 1484.41 1210.55 1484.35 1210.81 1484.37C1211.08 1484.39 1211.33 1484.48 1211.54 1484.64C1211.75 1484.8 1211.91 1485.02 1211.99 1485.26C1212.08 1485.51 1212.09 1485.78 1212.02 1486.03V1486.03Z" fill="#779BFF"/>
<path fill-rule="evenodd" clip-rule="evenodd" d="M925.675 1613.65C925.585 1613.99 925.361 1614.28 925.054 1614.46C924.747 1614.63 924.382 1614.68 924.038 1614.59C923.695 1614.5 923.402 1614.28 923.223 1613.98C923.044 1613.68 922.995 1613.32 923.085 1612.98C923.13 1612.81 923.208 1612.65 923.315 1612.51C923.421 1612.38 923.554 1612.26 923.706 1612.17C923.858 1612.08 924.026 1612.03 924.201 1612C924.375 1611.98 924.552 1611.99 924.722 1612.04C924.892 1612.08 925.052 1612.16 925.192 1612.26C925.332 1612.37 925.449 1612.5 925.538 1612.65C925.626 1612.8 925.684 1612.97 925.708 1613.14C925.731 1613.31 925.72 1613.48 925.675 1613.65Z" fill="#779BFF"/>
<path fill-rule="evenodd" clip-rule="evenodd" d="M914.515 1516.99C914.446 1517.25 914.303 1517.47 914.103 1517.64C913.904 1517.82 913.657 1517.93 913.395 1517.96C913.133 1517.99 912.866 1517.95 912.629 1517.83C912.392 1517.72 912.195 1517.53 912.063 1517.31C911.931 1517.08 911.87 1516.82 911.888 1516.56C911.906 1516.3 912.001 1516.05 912.162 1515.84C912.323 1515.64 912.543 1515.48 912.793 1515.4C913.044 1515.31 913.314 1515.3 913.57 1515.37C913.741 1515.41 913.902 1515.49 914.042 1515.6C914.183 1515.7 914.301 1515.83 914.389 1515.99C914.477 1516.14 914.534 1516.3 914.556 1516.48C914.577 1516.65 914.564 1516.83 914.515 1516.99Z" fill="#779BFF"/>
<path fill-rule="evenodd" clip-rule="evenodd" d="M985.388 1535.47C985.298 1535.81 985.074 1536.1 984.767 1536.28C984.46 1536.45 984.095 1536.5 983.751 1536.41C983.408 1536.32 983.115 1536.1 982.936 1535.8C982.757 1535.5 982.708 1535.14 982.798 1534.8C982.843 1534.63 982.921 1534.47 983.028 1534.33C983.134 1534.2 983.267 1534.08 983.419 1533.99C983.571 1533.9 983.739 1533.85 983.914 1533.82C984.088 1533.8 984.265 1533.81 984.435 1533.86C984.605 1533.9 984.765 1533.98 984.905 1534.08C985.045 1534.19 985.162 1534.32 985.251 1534.47C985.339 1534.62 985.397 1534.79 985.42 1534.96C985.444 1535.13 985.433 1535.3 985.388 1535.47V1535.47Z" fill="#779BFF"/>
<path fill-rule="evenodd" clip-rule="evenodd" d="M1113.79 1514.01C1113.75 1514.17 1113.67 1514.33 1113.56 1514.47C1113.45 1514.61 1113.32 1514.72 1113.17 1514.81C1113.01 1514.9 1112.84 1514.95 1112.67 1514.97C1112.49 1515 1112.32 1514.99 1112.15 1514.94C1111.98 1514.9 1111.82 1514.82 1111.68 1514.71C1111.54 1514.61 1111.42 1514.48 1111.33 1514.33C1111.24 1514.18 1111.19 1514.01 1111.16 1513.84C1111.14 1513.67 1111.15 1513.49 1111.19 1513.32C1111.24 1513.16 1111.32 1513 1111.42 1512.86C1111.53 1512.72 1111.66 1512.61 1111.82 1512.52C1111.97 1512.43 1112.14 1512.37 1112.31 1512.35C1112.48 1512.33 1112.66 1512.34 1112.83 1512.38C1113.18 1512.47 1113.47 1512.69 1113.65 1513C1113.83 1513.3 1113.88 1513.66 1113.79 1514.01Z" fill="#779BFF"/>
<path fill-rule="evenodd" clip-rule="evenodd" d="M1202.84 1668.87C1202.75 1669.21 1202.53 1669.5 1202.22 1669.68C1201.92 1669.86 1201.55 1669.91 1201.21 1669.82C1201.04 1669.77 1200.88 1669.7 1200.74 1669.59C1200.6 1669.49 1200.48 1669.36 1200.39 1669.21C1200.3 1669.06 1200.25 1668.89 1200.22 1668.72C1200.2 1668.55 1200.21 1668.37 1200.25 1668.2C1200.3 1668.03 1200.38 1667.88 1200.48 1667.74C1200.59 1667.6 1200.72 1667.48 1200.88 1667.4C1201.03 1667.31 1201.2 1667.25 1201.37 1667.23C1201.54 1667.21 1201.72 1667.22 1201.89 1667.26C1202.06 1667.3 1202.22 1667.38 1202.36 1667.49C1202.5 1667.59 1202.62 1667.72 1202.7 1667.87C1202.79 1668.02 1202.85 1668.19 1202.87 1668.36C1202.89 1668.53 1202.88 1668.7 1202.84 1668.87V1668.87Z" fill="#779BFF"/>
<path fill-rule="evenodd" clip-rule="evenodd" d="M1011.37 1524.38C1011.33 1524.55 1011.25 1524.71 1011.14 1524.84C1011.04 1524.98 1010.9 1525.1 1010.75 1525.18C1010.6 1525.27 1010.43 1525.33 1010.25 1525.35C1010.08 1525.37 1009.9 1525.36 1009.73 1525.31C1009.39 1525.22 1009.09 1525 1008.91 1524.7C1008.74 1524.4 1008.69 1524.04 1008.78 1523.7C1008.87 1523.36 1009.09 1523.07 1009.4 1522.89C1009.71 1522.72 1010.07 1522.67 1010.41 1522.76C1010.76 1522.85 1011.05 1523.07 1011.23 1523.37C1011.41 1523.68 1011.46 1524.04 1011.37 1524.38Z" fill="#779BFF"/>
<path fill-rule="evenodd" clip-rule="evenodd" d="M893.898 1468.1C893.853 1468.27 893.774 1468.42 893.666 1468.56C893.559 1468.7 893.425 1468.82 893.272 1468.9C893.12 1468.99 892.951 1469.04 892.776 1469.07C892.602 1469.09 892.424 1469.08 892.254 1469.03C891.923 1468.93 891.644 1468.71 891.474 1468.41C891.305 1468.12 891.259 1467.77 891.345 1467.44C891.432 1467.11 891.644 1466.82 891.938 1466.64C892.233 1466.46 892.585 1466.4 892.923 1466.47C893.27 1466.56 893.568 1466.78 893.751 1467.09C893.933 1467.39 893.986 1467.76 893.898 1468.1Z" fill="#779BFF"/>
<path d="M1194.14 1605.07C1194.88 1605.07 1195.47 1604.48 1195.47 1603.75C1195.47 1603.02 1194.88 1602.43 1194.14 1602.43C1193.4 1602.43 1192.8 1603.02 1192.8 1603.75C1192.8 1604.48 1193.4 1605.07 1194.14 1605.07Z" fill="#779BFF"/>
<path d="M1024.77 1458.64C1025.51 1458.64 1026.11 1458.05 1026.11 1457.32C1026.11 1456.59 1025.51 1456 1024.77 1456C1024.04 1456 1023.44 1456.59 1023.44 1457.32C1023.44 1458.05 1024.04 1458.64 1024.77 1458.64Z" fill="#779BFF"/>
<path fill-rule="evenodd" clip-rule="evenodd" d="M1270.48 1678.71C1270.44 1678.89 1270.37 1679.05 1270.26 1679.2C1270.16 1679.34 1270.03 1679.47 1269.87 1679.56C1269.72 1679.65 1269.55 1679.72 1269.37 1679.74C1269.19 1679.77 1269.01 1679.76 1268.84 1679.71C1268.66 1679.67 1268.5 1679.59 1268.35 1679.48C1268.21 1679.37 1268.09 1679.24 1268 1679.08C1267.92 1678.93 1267.86 1678.76 1267.84 1678.58C1267.82 1678.4 1267.84 1678.22 1267.89 1678.05C1267.99 1677.73 1268.21 1677.45 1268.51 1677.28C1268.82 1677.12 1269.17 1677.07 1269.51 1677.16C1269.84 1677.24 1270.13 1677.45 1270.31 1677.74C1270.49 1678.03 1270.55 1678.38 1270.48 1678.71Z" fill="#779BFF"/>
<path d="M1437.62 1625.94C1438.18 1623.83 1436.91 1621.66 1434.76 1621.1C1432.62 1620.54 1430.42 1621.8 1429.85 1623.92C1429.29 1626.04 1430.57 1628.21 1432.71 1628.77C1434.85 1629.33 1437.05 1628.06 1437.62 1625.94Z" fill="#779BFF"/>
<path d="M1538.22 1698.7C1538.78 1696.58 1537.5 1694.41 1535.36 1693.85C1533.21 1693.29 1531.02 1694.56 1530.45 1696.67C1529.88 1698.79 1531.16 1700.96 1533.31 1701.52C1535.45 1702.08 1537.65 1700.82 1538.22 1698.7Z" fill="#779BFF"/>
<path d="M1588.04 1603.37C1588.44 1601.87 1587.53 1600.34 1586.02 1599.94C1584.5 1599.55 1582.95 1600.44 1582.55 1601.94C1582.15 1603.43 1583.05 1604.97 1584.57 1605.36C1586.08 1605.76 1587.64 1604.86 1588.04 1603.37Z" fill="#779BFF"/>
<path fill-rule="evenodd" clip-rule="evenodd" d="M1498.2 1618.62C1498.7 1618.32 1499.27 1618.18 1499.85 1618.21C1500.43 1618.23 1500.99 1618.43 1501.46 1618.77C1501.92 1619.12 1502.28 1619.59 1502.47 1620.13C1502.66 1620.67 1502.68 1621.26 1502.53 1621.81C1502.38 1622.37 1502.07 1622.87 1501.63 1623.24C1501.19 1623.62 1500.65 1623.86 1500.07 1623.93C1499.49 1624 1498.91 1623.89 1498.39 1623.63C1497.87 1623.37 1497.45 1622.96 1497.17 1622.46C1496.81 1621.81 1496.71 1621.05 1496.91 1620.34C1497.1 1619.62 1497.56 1619.01 1498.2 1618.62V1618.62Z" fill="#779BFF"/>
<path d="M1499.86 1692.05C1500.6 1692.05 1501.2 1691.46 1501.2 1690.73C1501.2 1690 1500.6 1689.4 1499.86 1689.4C1499.12 1689.4 1498.52 1690 1498.52 1690.73C1498.52 1691.46 1499.12 1692.05 1499.86 1692.05Z" fill="#779BFF"/>
<path d="M1460.49 1557.87C1460.86 1557.87 1461.16 1557.58 1461.16 1557.21C1461.16 1556.85 1460.86 1556.55 1460.49 1556.55C1460.12 1556.55 1459.82 1556.85 1459.82 1557.21C1459.82 1557.58 1460.12 1557.87 1460.49 1557.87Z" fill="#779BFF"/>
<path d="M1407.57 1546.09C1408.31 1546.09 1408.91 1545.5 1408.91 1544.77C1408.91 1544.04 1408.31 1543.45 1407.57 1543.45C1406.83 1543.45 1406.23 1544.04 1406.23 1544.77C1406.23 1545.5 1406.83 1546.09 1407.57 1546.09Z" fill="#779BFF"/>
<path d="M1535.24 1764.61C1535.98 1764.61 1536.58 1764.02 1536.58 1763.29C1536.58 1762.56 1535.98 1761.97 1535.24 1761.97C1534.51 1761.97 1533.91 1762.56 1533.91 1763.29C1533.91 1764.02 1534.51 1764.61 1535.24 1764.61Z" fill="#779BFF"/>
<path d="M1520.11 1658.42C1520.85 1658.42 1521.45 1657.83 1521.45 1657.1C1521.45 1656.37 1520.85 1655.78 1520.11 1655.78C1519.37 1655.78 1518.77 1656.37 1518.77 1657.1C1518.77 1657.83 1519.37 1658.42 1520.11 1658.42Z" fill="#779BFF"/>
<path d="M1371.88 1610.12C1372.62 1610.12 1373.22 1609.53 1373.22 1608.8C1373.22 1608.07 1372.62 1607.47 1371.88 1607.47C1371.14 1607.47 1370.54 1608.07 1370.54 1608.8C1370.54 1609.53 1371.14 1610.12 1371.88 1610.12Z" fill="#779BFF"/>
<path d="M1560.43 1661.99C1560.8 1661.99 1561.1 1661.69 1561.1 1661.33C1561.1 1660.96 1560.8 1660.67 1560.43 1660.67C1560.06 1660.67 1559.76 1660.96 1559.76 1661.33C1559.76 1661.69 1560.06 1661.99 1560.43 1661.99Z" fill="#779BFF"/>
<path d="M1372.39 1777.6C1372.76 1777.6 1373.06 1777.3 1373.06 1776.94C1373.06 1776.57 1372.76 1776.28 1372.39 1776.28C1372.02 1776.28 1371.72 1776.57 1371.72 1776.94C1371.72 1777.3 1372.02 1777.6 1372.39 1777.6Z" fill="#779BFF"/>
<path d="M1393.02 1651.96C1393.76 1651.96 1394.36 1651.37 1394.36 1650.64C1394.36 1649.91 1393.76 1649.32 1393.02 1649.32C1392.28 1649.32 1391.68 1649.91 1391.68 1650.64C1391.68 1651.37 1392.28 1651.96 1393.02 1651.96Z" fill="#779BFF"/>
<path d="M1426.73 1617.83C1428.3 1617.83 1429.57 1616.58 1429.57 1615.03C1429.57 1613.48 1428.3 1612.23 1426.73 1612.23C1425.16 1612.23 1423.89 1613.48 1423.89 1615.03C1423.89 1616.58 1425.16 1617.83 1426.73 1617.83Z" fill="#779BFF"/>
<path d="M1455.77 1606.63C1456.51 1606.63 1457.11 1606.03 1457.11 1605.3C1457.11 1604.57 1456.51 1603.98 1455.77 1603.98C1455.03 1603.98 1454.43 1604.57 1454.43 1605.3C1454.43 1606.03 1455.03 1606.63 1455.77 1606.63Z" fill="#779BFF"/>
<path d="M1440.2 1595.96C1440.94 1595.96 1441.54 1595.37 1441.54 1594.64C1441.54 1593.91 1440.94 1593.32 1440.2 1593.32C1439.47 1593.32 1438.87 1593.91 1438.87 1594.64C1438.87 1595.37 1439.47 1595.96 1440.2 1595.96Z" fill="#779BFF"/>
<path fill-rule="evenodd" clip-rule="evenodd" d="M1418.57 1599.87C1418.65 1599.83 1418.73 1599.8 1418.82 1599.79C1418.9 1599.78 1418.99 1599.78 1419.08 1599.81C1419.16 1599.83 1419.24 1599.87 1419.31 1599.92C1419.38 1599.98 1419.44 1600.04 1419.49 1600.12C1419.53 1600.19 1419.56 1600.28 1419.57 1600.36C1419.58 1600.45 1419.57 1600.54 1419.55 1600.62C1419.53 1600.7 1419.49 1600.78 1419.44 1600.85C1419.38 1600.92 1419.31 1600.98 1419.24 1601.02C1419.08 1601.11 1418.9 1601.13 1418.73 1601.09C1418.56 1601.04 1418.41 1600.93 1418.32 1600.78C1418.23 1600.63 1418.21 1600.44 1418.26 1600.27C1418.3 1600.11 1418.41 1599.96 1418.57 1599.87V1599.87Z" fill="#779BFF"/>
<path d="M1433.4 1604.26C1433.76 1604.26 1434.06 1603.96 1434.06 1603.59C1434.06 1603.23 1433.76 1602.93 1433.4 1602.93C1433.03 1602.93 1432.73 1603.23 1432.73 1603.59C1432.73 1603.96 1433.03 1604.26 1433.4 1604.26Z" fill="#779BFF"/>
<path fill-rule="evenodd" clip-rule="evenodd" d="M1411.74 1609.47C1412.05 1609.29 1412.42 1609.24 1412.76 1609.33C1413.1 1609.42 1413.4 1609.64 1413.58 1609.95C1413.76 1610.25 1413.81 1610.61 1413.72 1610.95C1413.63 1611.29 1413.4 1611.58 1413.1 1611.76C1412.95 1611.84 1412.78 1611.9 1412.6 1611.92C1412.43 1611.95 1412.25 1611.94 1412.08 1611.89C1411.91 1611.85 1411.75 1611.77 1411.61 1611.67C1411.47 1611.56 1411.35 1611.43 1411.26 1611.28C1411.18 1611.13 1411.12 1610.97 1411.09 1610.79C1411.07 1610.62 1411.08 1610.45 1411.13 1610.28C1411.17 1610.11 1411.25 1609.95 1411.35 1609.81C1411.46 1609.68 1411.59 1609.56 1411.74 1609.47V1609.47Z" fill="#779BFF"/>
<path fill-rule="evenodd" clip-rule="evenodd" d="M1453.39 1781.99C1453.88 1781.69 1454.46 1781.55 1455.04 1781.57C1455.62 1781.59 1456.18 1781.79 1456.65 1782.13C1457.11 1782.47 1457.47 1782.94 1457.66 1783.49C1457.85 1784.03 1457.88 1784.61 1457.73 1785.17C1457.58 1785.72 1457.27 1786.22 1456.83 1786.6C1456.39 1786.98 1455.85 1787.22 1455.28 1787.29C1454.7 1787.36 1454.11 1787.26 1453.6 1787C1453.08 1786.74 1452.65 1786.33 1452.37 1785.83C1452.01 1785.18 1451.91 1784.43 1452.1 1783.71C1452.29 1783 1452.75 1782.38 1453.39 1781.99V1781.99Z" fill="#779BFF"/>
<path d="M1480.62 1705.58C1482.19 1705.58 1483.46 1704.33 1483.46 1702.78C1483.46 1701.23 1482.19 1699.98 1480.62 1699.98C1479.06 1699.98 1477.79 1701.23 1477.79 1702.78C1477.79 1704.33 1479.06 1705.58 1480.62 1705.58Z" fill="#779BFF"/>
<path d="M986.669 1670.98C988.236 1670.98 989.506 1669.73 989.506 1668.18C989.506 1666.63 988.236 1665.38 986.669 1665.38C985.102 1665.38 983.831 1666.63 983.831 1668.18C983.831 1669.73 985.102 1670.98 986.669 1670.98Z" fill="#779BFF"/>
<path fill-rule="evenodd" clip-rule="evenodd" d="M1435.37 1816.84C1435.73 1816.64 1436.14 1816.54 1436.55 1816.57C1436.96 1816.59 1437.36 1816.74 1437.69 1816.98C1438.01 1817.23 1438.26 1817.57 1438.4 1817.95C1438.53 1818.33 1438.55 1818.75 1438.45 1819.14C1438.35 1819.54 1438.13 1819.89 1437.82 1820.17C1437.52 1820.44 1437.14 1820.62 1436.73 1820.68C1436.32 1820.74 1435.91 1820.68 1435.53 1820.51C1435.16 1820.34 1434.85 1820.06 1434.63 1819.71C1434.48 1819.48 1434.38 1819.22 1434.34 1818.94C1434.29 1818.67 1434.31 1818.39 1434.38 1818.12C1434.45 1817.85 1434.57 1817.6 1434.74 1817.38C1434.91 1817.16 1435.13 1816.97 1435.37 1816.84V1816.84Z" fill="#779BFF"/>
<path fill-rule="evenodd" clip-rule="evenodd" d="M1456.73 1790.29C1456.88 1790.2 1457.05 1790.14 1457.22 1790.11C1457.4 1790.09 1457.57 1790.1 1457.74 1790.14C1457.91 1790.19 1458.07 1790.26 1458.21 1790.37C1458.35 1790.48 1458.47 1790.61 1458.55 1790.76C1458.64 1790.91 1458.7 1791.08 1458.72 1791.25C1458.75 1791.42 1458.74 1791.6 1458.69 1791.76C1458.65 1791.93 1458.57 1792.09 1458.46 1792.23C1458.36 1792.37 1458.22 1792.48 1458.07 1792.57C1457.76 1792.74 1457.4 1792.79 1457.05 1792.7C1456.71 1792.61 1456.42 1792.38 1456.24 1792.08C1456.06 1791.78 1456.02 1791.42 1456.11 1791.08C1456.2 1790.75 1456.43 1790.46 1456.73 1790.29V1790.29Z" fill="#779BFF"/>
<path d="M1483.87 1776C1484.61 1776 1485.21 1775.41 1485.21 1774.68C1485.21 1773.95 1484.61 1773.36 1483.87 1773.36C1483.13 1773.36 1482.53 1773.95 1482.53 1774.68C1482.53 1775.41 1483.13 1776 1483.87 1776Z" fill="#779BFF"/>
<path fill-rule="evenodd" clip-rule="evenodd" d="M1527.58 1703.63C1527.88 1703.45 1528.25 1703.4 1528.59 1703.49C1528.94 1703.58 1529.23 1703.8 1529.41 1704.1C1529.59 1704.41 1529.64 1704.77 1529.55 1705.11C1529.46 1705.45 1529.24 1705.74 1528.93 1705.91C1528.62 1706.09 1528.26 1706.13 1527.91 1706.04C1527.57 1705.95 1527.28 1705.73 1527.1 1705.42C1527.01 1705.28 1526.95 1705.11 1526.93 1704.94C1526.9 1704.77 1526.91 1704.59 1526.96 1704.43C1527 1704.26 1527.08 1704.1 1527.19 1703.97C1527.29 1703.83 1527.43 1703.71 1527.58 1703.63V1703.63Z" fill="#779BFF"/>
<path d="M1468.3 1765.34C1469.04 1765.34 1469.64 1764.75 1469.64 1764.02C1469.64 1763.29 1469.04 1762.7 1468.3 1762.7C1467.56 1762.7 1466.96 1763.29 1466.96 1764.02C1466.96 1764.75 1467.56 1765.34 1468.3 1765.34Z" fill="#779BFF"/>
<path d="M1447 1770.49C1447.37 1770.49 1447.67 1770.19 1447.67 1769.82C1447.67 1769.46 1447.37 1769.16 1447 1769.16C1446.63 1769.16 1446.33 1769.46 1446.33 1769.82C1446.33 1770.19 1446.63 1770.49 1447 1770.49Z" fill="#779BFF"/>
<path fill-rule="evenodd" clip-rule="evenodd" d="M1407.83 1815.37C1407.99 1815.29 1408.17 1815.27 1408.34 1815.31C1408.51 1815.36 1408.66 1815.47 1408.75 1815.62C1408.81 1815.73 1408.84 1815.86 1408.83 1815.99C1408.82 1816.12 1408.78 1816.25 1408.7 1816.35C1408.62 1816.45 1408.51 1816.53 1408.38 1816.57C1408.25 1816.61 1408.12 1816.62 1407.99 1816.58C1407.86 1816.55 1407.75 1816.48 1407.66 1816.38C1407.58 1816.28 1407.52 1816.16 1407.5 1816.03C1407.49 1815.9 1407.51 1815.77 1407.57 1815.65C1407.62 1815.54 1407.72 1815.44 1407.83 1815.37Z" fill="#779BFF"/>
<path fill-rule="evenodd" clip-rule="evenodd" d="M1480.42 1845.06C1480.57 1844.97 1480.76 1844.95 1480.93 1844.99C1481.1 1845.04 1481.25 1845.15 1481.34 1845.3C1481.43 1845.46 1481.45 1845.64 1481.4 1845.81C1481.36 1845.98 1481.24 1846.12 1481.09 1846.21C1480.94 1846.3 1480.75 1846.32 1480.58 1846.27C1480.41 1846.23 1480.26 1846.12 1480.17 1845.96C1480.08 1845.81 1480.06 1845.63 1480.11 1845.46C1480.15 1845.29 1480.27 1845.15 1480.42 1845.06V1845.06Z" fill="#779BFF"/>
<path d="M1461.49 1773.63C1461.86 1773.63 1462.16 1773.34 1462.16 1772.97C1462.16 1772.61 1461.86 1772.31 1461.49 1772.31C1461.12 1772.31 1460.82 1772.61 1460.82 1772.97C1460.82 1773.34 1461.12 1773.63 1461.49 1773.63Z" fill="#779BFF"/>
<path fill-rule="evenodd" clip-rule="evenodd" d="M1439.84 1778.85C1440.15 1778.67 1440.51 1778.62 1440.86 1778.71C1441.2 1778.8 1441.49 1779.02 1441.67 1779.32C1441.85 1779.63 1441.9 1779.99 1441.81 1780.33C1441.72 1780.67 1441.5 1780.96 1441.19 1781.13C1441.04 1781.22 1440.87 1781.28 1440.7 1781.3C1440.53 1781.33 1440.35 1781.31 1440.18 1781.27C1440.01 1781.23 1439.85 1781.15 1439.71 1781.04C1439.57 1780.94 1439.45 1780.81 1439.36 1780.66C1439.27 1780.51 1439.21 1780.34 1439.19 1780.17C1439.17 1780 1439.18 1779.82 1439.22 1779.66C1439.27 1779.49 1439.34 1779.33 1439.45 1779.19C1439.56 1779.05 1439.69 1778.94 1439.84 1778.85V1778.85Z" fill="#779BFF"/>
<path fill-rule="evenodd" clip-rule="evenodd" d="M1351.74 1755.03C1351.89 1754.94 1352.06 1754.88 1352.24 1754.86C1352.41 1754.83 1352.59 1754.84 1352.76 1754.89C1352.93 1754.93 1353.09 1755.01 1353.23 1755.11C1353.37 1755.22 1353.49 1755.35 1353.57 1755.5C1353.75 1755.8 1353.79 1756.17 1353.7 1756.5C1353.61 1756.84 1353.39 1757.13 1353.08 1757.31C1352.93 1757.4 1352.76 1757.46 1352.59 1757.48C1352.42 1757.51 1352.24 1757.5 1352.07 1757.45C1351.9 1757.41 1351.74 1757.33 1351.6 1757.22C1351.46 1757.12 1351.35 1756.99 1351.26 1756.84C1351.17 1756.69 1351.11 1756.52 1351.09 1756.35C1351.07 1756.18 1351.08 1756 1351.12 1755.83C1351.17 1755.66 1351.24 1755.51 1351.35 1755.37C1351.46 1755.23 1351.59 1755.11 1351.74 1755.03V1755.03Z" fill="#779BFF"/>
<path fill-rule="evenodd" clip-rule="evenodd" d="M1469.6 1831.95C1469.75 1831.87 1469.92 1831.81 1470.09 1831.79C1470.26 1831.76 1470.44 1831.77 1470.61 1831.82C1470.78 1831.86 1470.94 1831.94 1471.08 1832.04C1471.22 1832.15 1471.34 1832.28 1471.43 1832.43C1471.6 1832.73 1471.65 1833.1 1471.56 1833.43C1471.46 1833.77 1471.24 1834.06 1470.93 1834.24C1470.63 1834.39 1470.28 1834.42 1469.95 1834.33C1469.62 1834.23 1469.34 1834.01 1469.17 1833.72C1469 1833.43 1468.95 1833.08 1469.03 1832.75C1469.11 1832.43 1469.31 1832.14 1469.6 1831.95V1831.95Z" fill="#779BFF"/>
<path d="M439.215 689.18C439.831 688.554 440.622 688.124 441.486 687.945C442.35 687.766 443.249 687.846 444.067 688.175C444.885 688.504 445.585 689.066 446.079 689.791C446.572 690.516 446.835 691.369 446.835 692.243C446.835 693.116 446.572 693.97 446.079 694.695C445.585 695.419 444.885 695.982 444.067 696.311C443.249 696.64 442.35 696.72 441.486 696.541C440.622 696.362 439.831 695.932 439.215 695.306C438.408 694.486 437.957 693.387 437.957 692.243C437.957 691.099 438.408 690 439.215 689.18V689.18ZM426.231 752.85C426.675 753.31 427.248 753.629 427.876 753.764C428.504 753.9 429.16 753.846 429.757 753.61C430.354 753.374 430.866 752.966 431.226 752.439C431.587 751.912 431.78 751.29 431.78 750.654C431.78 750.018 431.587 749.396 431.226 748.869C430.866 748.342 430.354 747.935 429.757 747.698C429.16 747.462 428.504 747.408 427.876 747.544C427.248 747.679 426.675 747.998 426.231 748.459C425.656 749.048 425.335 749.835 425.335 750.654C425.335 751.473 425.656 752.26 426.231 752.85V752.85ZM376.181 607.552C376.471 607.836 376.838 608.029 377.238 608.106C377.638 608.184 378.053 608.143 378.429 607.988C378.805 607.833 379.127 607.571 379.353 607.236C379.579 606.9 379.7 606.506 379.7 606.103C379.7 605.7 379.579 605.305 379.353 604.97C379.127 604.635 378.805 604.373 378.429 604.218C378.053 604.063 377.638 604.022 377.238 604.099C376.838 604.177 376.471 604.37 376.181 604.654C375.988 604.844 375.835 605.069 375.73 605.318C375.625 605.567 375.571 605.833 375.571 606.103C375.571 606.372 375.625 606.639 375.73 606.888C375.835 607.136 375.988 607.362 376.181 607.552V607.552ZM447.516 703.166C447.805 703.45 448.173 703.643 448.573 703.72C448.973 703.798 449.387 703.756 449.764 703.601C450.14 703.446 450.461 703.185 450.688 702.849C450.914 702.514 451.034 702.12 451.034 701.717C451.034 701.313 450.914 700.919 450.688 700.584C450.461 700.248 450.14 699.987 449.764 699.832C449.387 699.677 448.973 699.635 448.573 699.713C448.173 699.79 447.805 699.983 447.516 700.267C447.32 700.456 447.164 700.681 447.058 700.93C446.951 701.179 446.897 701.446 446.897 701.717C446.897 701.987 446.951 702.254 447.058 702.503C447.164 702.752 447.32 702.977 447.516 703.166V703.166ZM480.365 667.73C480.654 668.014 481.022 668.207 481.422 668.285C481.822 668.362 482.236 668.321 482.612 668.166C482.989 668.011 483.31 667.75 483.536 667.414C483.762 667.079 483.883 666.684 483.883 666.281C483.883 665.878 483.762 665.484 483.536 665.148C483.31 664.813 482.989 664.551 482.612 664.396C482.236 664.241 481.822 664.2 481.422 664.278C481.022 664.355 480.654 664.548 480.365 664.832C479.98 665.218 479.764 665.739 479.764 666.281C479.764 666.824 479.98 667.344 480.365 667.73V667.73ZM452.843 657.851C453.131 658.138 453.499 658.334 453.899 658.414C454.3 658.494 454.716 658.454 455.094 658.3C455.472 658.146 455.796 657.885 456.023 657.549C456.251 657.212 456.372 656.817 456.372 656.413C456.372 656.008 456.251 655.613 456.023 655.276C455.796 654.94 455.472 654.679 455.094 654.525C454.716 654.371 454.3 654.331 453.899 654.411C453.499 654.491 453.131 654.687 452.843 654.974C452.641 655.161 452.479 655.387 452.369 655.639C452.259 655.89 452.202 656.161 452.202 656.434C452.202 656.708 452.259 656.979 452.369 657.23C452.479 657.481 452.641 657.708 452.843 657.894V657.851ZM423.989 674.141C424.135 674.287 424.32 674.387 424.523 674.428C424.726 674.469 424.936 674.449 425.128 674.371C425.319 674.294 425.483 674.161 425.598 673.991C425.714 673.821 425.775 673.621 425.775 673.417C425.775 673.212 425.714 673.012 425.598 672.842C425.483 672.672 425.319 672.54 425.128 672.462C424.936 672.384 424.726 672.365 424.523 672.406C424.32 672.447 424.135 672.546 423.989 672.692C423.891 672.793 423.815 672.912 423.765 673.043C423.716 673.174 423.693 673.313 423.699 673.453C423.705 673.592 423.74 673.729 423.802 673.855C423.863 673.981 423.949 674.093 424.056 674.185L423.989 674.141ZM504.735 774.409C504.88 774.555 505.066 774.655 505.269 774.696C505.471 774.737 505.682 774.717 505.873 774.639C506.065 774.562 506.229 774.43 506.344 774.26C506.459 774.09 506.521 773.889 506.521 773.685C506.521 773.48 506.459 773.28 506.344 773.11C506.229 772.94 506.065 772.808 505.873 772.73C505.682 772.652 505.471 772.633 505.269 772.674C505.066 772.715 504.88 772.815 504.735 772.96C504.637 773.061 504.561 773.18 504.511 773.311C504.461 773.442 504.438 773.581 504.445 773.721C504.451 773.86 504.486 773.997 504.547 774.123C504.608 774.249 504.695 774.361 504.801 774.453L504.735 774.409ZM446.895 673.197C447.09 673.387 447.353 673.494 447.627 673.494C447.901 673.494 448.164 673.387 448.359 673.197C448.46 673.105 448.541 672.992 448.596 672.868C448.651 672.743 448.679 672.609 448.679 672.473C448.679 672.337 448.651 672.202 448.596 672.077C448.541 671.953 448.46 671.841 448.359 671.748C448.159 671.592 447.907 671.514 447.652 671.529C447.398 671.544 447.157 671.651 446.977 671.829C446.796 672.008 446.688 672.246 446.673 672.498C446.658 672.75 446.737 672.999 446.895 673.197V673.197ZM417.642 692.605C417.931 692.889 418.299 693.082 418.699 693.16C419.099 693.237 419.513 693.196 419.889 693.041C420.265 692.886 420.587 692.624 420.813 692.289C421.039 691.954 421.16 691.559 421.16 691.156C421.16 690.753 421.039 690.359 420.813 690.023C420.587 689.688 420.265 689.426 419.889 689.271C419.513 689.116 419.099 689.075 418.699 689.153C418.299 689.23 417.931 689.423 417.642 689.707C417.449 689.904 417.297 690.136 417.196 690.391C417.094 690.646 417.045 690.918 417.052 691.192C417.058 691.466 417.119 691.736 417.232 691.986C417.345 692.236 417.506 692.461 417.708 692.649L417.642 692.605ZM483.383 760.512C483.672 760.796 484.04 760.989 484.44 761.066C484.84 761.144 485.254 761.103 485.631 760.948C486.007 760.793 486.329 760.531 486.555 760.196C486.781 759.86 486.901 759.466 486.901 759.063C486.901 758.66 486.781 758.265 486.555 757.93C486.329 757.595 486.007 757.333 485.631 757.178C485.254 757.023 484.84 756.982 484.44 757.059C484.04 757.137 483.672 757.33 483.383 757.614C482.998 758 482.782 758.52 482.782 759.063C482.782 759.605 482.998 760.126 483.383 760.512V760.512ZM433.444 848.002C433.633 848.195 433.859 848.349 434.108 848.454C434.358 848.559 434.627 848.613 434.898 848.613C435.17 848.613 435.438 848.559 435.688 848.454C435.938 848.349 436.164 848.195 436.352 848.002C436.642 847.717 436.84 847.354 436.921 846.957C437.002 846.561 436.962 846.149 436.807 845.775C436.651 845.401 436.386 845.081 436.047 844.856C435.707 844.631 435.307 844.511 434.898 844.511C434.489 844.511 434.09 844.631 433.75 844.856C433.41 845.081 433.145 845.401 432.99 845.775C432.834 846.149 432.794 846.561 432.875 846.957C432.956 847.354 433.154 847.717 433.444 848.002ZM585.524 863.656C586.399 864.503 587.506 865.076 588.708 865.303C589.91 865.53 591.153 865.401 592.281 864.932C593.409 864.464 594.373 863.676 595.05 862.667C595.727 861.659 596.088 860.476 596.088 859.265C596.088 858.055 595.727 856.871 595.05 855.863C594.373 854.855 593.409 854.067 592.281 853.598C591.153 853.129 589.91 853 588.708 853.227C587.506 853.454 586.399 854.027 585.524 854.874C584.932 855.444 584.46 856.124 584.136 856.875C583.812 857.627 583.641 858.434 583.635 859.251C583.629 860.068 583.787 860.878 584.1 861.635C584.413 862.391 584.874 863.078 585.458 863.656H585.524ZM30.339 585.114C30.9549 585.74 31.7456 586.17 32.6099 586.349C33.4742 586.528 34.3729 586.448 35.1909 586.119C36.009 585.79 36.7094 585.228 37.2025 584.503C37.6956 583.778 37.9589 582.925 37.9589 582.051C37.9589 581.178 37.6956 580.324 37.2025 579.599C36.7094 578.875 36.009 578.312 35.1909 577.983C34.3729 577.654 33.4742 577.574 32.6099 577.753C31.7456 577.932 30.9549 578.362 30.339 578.988C29.5323 579.808 29.0809 580.907 29.0809 582.051C29.0809 583.195 29.5323 584.294 30.339 585.114V585.114ZM685.335 807.21C685.953 807.833 686.743 808.26 687.607 808.436C688.47 808.613 689.367 808.531 690.184 808.201C691 807.872 691.698 807.309 692.19 806.585C692.682 805.861 692.944 805.008 692.944 804.136C692.944 803.264 692.682 802.412 692.19 801.688C691.698 800.964 691 800.401 690.184 800.071C689.367 799.741 688.47 799.66 687.607 799.836C686.743 800.013 685.953 800.44 685.335 801.063C684.522 801.883 684.066 802.987 684.066 804.136C684.066 805.286 684.522 806.389 685.335 807.21V807.21ZM484.981 697.435C485.597 698.061 486.388 698.491 487.252 698.67C488.116 698.849 489.015 698.769 489.833 698.441C490.651 698.112 491.352 697.549 491.845 696.824C492.338 696.1 492.601 695.246 492.601 694.373C492.601 693.499 492.338 692.645 491.845 691.921C491.352 691.196 490.651 690.633 489.833 690.305C489.015 689.976 488.116 689.896 487.252 690.075C486.388 690.254 485.597 690.684 484.981 691.31C484.168 692.131 483.712 693.234 483.712 694.384C483.712 695.533 484.168 696.636 484.981 697.457V697.435ZM672.351 864.732C672.801 865.177 673.375 865.481 673.999 865.604C674.623 865.727 675.271 865.664 675.859 865.423C676.447 865.182 676.95 864.774 677.303 864.25C677.657 863.727 677.846 863.111 677.846 862.481C677.846 861.852 677.657 861.236 677.303 860.713C676.95 860.189 676.447 859.781 675.859 859.54C675.271 859.299 674.623 859.236 673.999 859.359C673.375 859.482 672.801 859.786 672.351 860.231C672.047 860.526 671.804 860.877 671.639 861.266C671.474 861.654 671.389 862.071 671.389 862.492C671.389 862.914 671.474 863.331 671.639 863.719C671.804 864.108 672.047 864.459 672.351 864.754V864.732ZM698.142 927.15C698.585 927.61 699.158 927.929 699.787 928.065C700.415 928.2 701.07 928.146 701.668 927.91C702.265 927.674 702.777 927.266 703.137 926.739C703.498 926.212 703.691 925.59 703.691 924.954C703.691 924.318 703.498 923.696 703.137 923.17C702.777 922.643 702.265 922.235 701.668 921.998C701.07 921.762 700.415 921.708 699.787 921.844C699.158 921.979 698.585 922.298 698.142 922.759C697.56 923.349 697.235 924.141 697.235 924.965C697.235 925.79 697.56 926.581 698.142 927.172V927.15ZM574.538 845.653C574.837 845.952 575.193 846.189 575.586 846.351C575.978 846.512 576.399 846.596 576.824 846.596C577.249 846.596 577.67 846.512 578.062 846.351C578.455 846.189 578.811 845.952 579.11 845.653C579.565 845.205 579.875 844.634 580.001 844.012C580.127 843.39 580.064 842.745 579.819 842.158C579.574 841.571 579.159 841.07 578.626 840.717C578.093 840.364 577.466 840.176 576.824 840.176C576.182 840.176 575.555 840.364 575.022 840.717C574.489 841.07 574.074 841.571 573.829 842.158C573.584 842.745 573.521 843.39 573.647 844.012C573.773 844.634 574.083 845.205 574.538 845.653V845.653ZM387.434 962.739C387.885 963.181 388.459 963.481 389.082 963.602C389.706 963.722 390.351 963.657 390.938 963.416C391.524 963.174 392.025 962.766 392.377 962.243C392.73 961.72 392.918 961.106 392.918 960.477C392.918 959.849 392.73 959.235 392.377 958.712C392.025 958.189 391.524 957.781 390.938 957.539C390.351 957.297 389.706 957.232 389.082 957.353C388.459 957.473 387.885 957.774 387.434 958.216C387.132 958.514 386.891 958.868 386.727 959.258C386.564 959.648 386.479 960.066 386.479 960.488C386.479 960.911 386.564 961.329 386.727 961.719C386.891 962.109 387.132 962.463 387.434 962.761V962.739ZM622.302 719.434C622.59 719.721 622.957 719.917 623.358 719.997C623.759 720.078 624.175 720.038 624.553 719.884C624.931 719.73 625.254 719.468 625.482 719.132C625.71 718.796 625.831 718.401 625.831 717.996C625.831 717.592 625.71 717.196 625.482 716.86C625.254 716.524 624.931 716.262 624.553 716.108C624.175 715.954 623.759 715.915 623.358 715.995C622.957 716.075 622.59 716.271 622.302 716.558C622.106 716.744 621.951 716.968 621.845 717.215C621.739 717.462 621.684 717.728 621.684 717.996C621.684 718.265 621.739 718.53 621.845 718.777C621.951 719.024 622.106 719.248 622.302 719.434V719.434ZM693.636 815.07C694.025 815.454 694.552 815.67 695.101 815.67C695.651 815.67 696.177 815.454 696.566 815.07C696.954 814.686 697.173 814.164 697.173 813.621C697.173 813.077 696.954 812.556 696.566 812.172C696.374 811.981 696.145 811.831 695.894 811.728C695.643 811.625 695.373 811.572 695.101 811.572C694.829 811.572 694.56 811.625 694.308 811.728C694.057 811.831 693.829 811.981 693.636 812.172C693.444 812.362 693.291 812.588 693.187 812.837C693.083 813.085 693.029 813.352 693.029 813.621C693.029 813.89 693.083 814.156 693.187 814.405C693.291 814.654 693.444 814.88 693.636 815.07V815.07ZM590.252 841.569C590.64 841.954 591.167 842.17 591.717 842.17C592.266 842.17 592.793 841.954 593.182 841.569C593.57 841.185 593.788 840.664 593.788 840.12C593.788 839.577 593.57 839.056 593.182 838.671C592.991 838.478 592.764 838.323 592.512 838.218C592.26 838.113 591.99 838.059 591.717 838.059C591.444 838.059 591.173 838.113 590.922 838.218C590.67 838.323 590.442 838.478 590.252 838.671C589.867 839.058 589.651 839.578 589.651 840.12C589.651 840.663 589.867 841.183 590.252 841.569V841.569ZM1.24138 858.189C1.63177 858.57 2.15799 858.784 2.70625 858.784C3.25451 858.784 3.78073 858.57 4.17112 858.189C4.55607 857.803 4.77188 857.283 4.77188 856.74C4.77188 856.198 4.55607 855.677 4.17112 855.291C3.78073 854.91 3.25451 854.697 2.70625 854.697C2.15799 854.697 1.63177 854.91 1.24138 855.291C0.856434 855.677 0.640625 856.198 0.640625 856.74C0.640625 857.283 0.856434 857.803 1.24138 858.189V858.189ZM64.1642 842.975C64.3526 843.168 64.5784 843.321 64.8282 843.426C65.078 843.531 65.3466 843.585 65.6179 843.585C65.8893 843.585 66.1579 843.531 66.4077 843.426C66.6575 843.321 66.8833 843.168 67.0717 842.975C67.362 842.69 67.5602 842.326 67.6412 841.929C67.7222 841.533 67.6823 841.121 67.5265 840.747C67.3708 840.373 67.1062 840.054 66.7664 839.828C66.4266 839.603 66.0269 839.483 65.6179 839.483C65.209 839.483 64.8093 839.603 64.4695 839.828C64.1297 840.054 63.8651 840.373 63.7094 840.747C63.5536 841.121 63.5137 841.533 63.5947 841.929C63.6756 842.326 63.8739 842.69 64.1642 842.975ZM726.418 779.7C726.706 779.988 727.074 780.184 727.475 780.264C727.876 780.344 728.292 780.304 728.67 780.15C729.048 779.996 729.371 779.735 729.599 779.398C729.826 779.062 729.948 778.667 729.948 778.262C729.948 777.858 729.826 777.462 729.599 777.126C729.371 776.79 729.048 776.529 728.67 776.374C728.292 776.22 727.876 776.181 727.475 776.261C727.074 776.341 726.706 776.537 726.418 776.824C726.226 777.012 726.073 777.236 725.968 777.483C725.864 777.73 725.81 777.995 725.81 778.262C725.81 778.53 725.864 778.795 725.968 779.042C726.073 779.289 726.226 779.513 726.418 779.7ZM179.045 587.595C179.335 587.879 179.703 588.072 180.103 588.149C180.503 588.227 180.917 588.186 181.293 588.031C181.669 587.876 181.991 587.614 182.217 587.279C182.443 586.943 182.564 586.549 182.564 586.146C182.564 585.743 182.443 585.348 182.217 585.013C181.991 584.677 181.669 584.416 181.293 584.261C180.917 584.106 180.503 584.065 180.103 584.142C179.703 584.22 179.335 584.413 179.045 584.697C178.852 584.887 178.699 585.112 178.594 585.361C178.489 585.61 178.436 585.876 178.436 586.146C178.436 586.415 178.489 586.682 178.594 586.931C178.699 587.179 178.852 587.405 179.045 587.595V587.595ZM698.963 769.821C699.252 770.105 699.62 770.298 700.02 770.375C700.42 770.453 700.834 770.412 701.211 770.257C701.587 770.102 701.908 769.84 702.135 769.504C702.361 769.169 702.481 768.775 702.481 768.372C702.481 767.968 702.361 767.574 702.135 767.239C701.908 766.903 701.587 766.642 701.211 766.487C700.834 766.332 700.42 766.29 700.02 766.368C699.62 766.446 699.252 766.639 698.963 766.923C698.77 767.111 698.618 767.334 698.513 767.581C698.409 767.828 698.355 768.093 698.355 768.361C698.355 768.628 698.409 768.893 698.513 769.14C698.618 769.387 698.77 769.611 698.963 769.799V769.821ZM514.9 799.987C515.085 800.203 515.314 800.378 515.572 800.502C515.83 800.626 516.111 800.695 516.397 800.705C516.684 800.716 516.969 800.667 517.235 800.562C517.501 800.458 517.743 800.299 517.944 800.098C518.145 799.896 518.301 799.654 518.403 799.39C518.505 799.125 518.549 798.842 518.534 798.559C518.52 798.276 518.445 797.999 518.316 797.746C518.187 797.493 518.006 797.269 517.785 797.089C517.397 796.704 516.87 796.489 516.32 796.489C515.771 796.489 515.244 796.704 514.856 797.089C514.467 797.473 514.249 797.994 514.249 798.538C514.249 799.081 514.467 799.602 514.856 799.987H514.9ZM670.265 786.089C670.46 786.28 670.723 786.386 670.997 786.386C671.271 786.386 671.535 786.28 671.73 786.089C671.888 785.891 671.966 785.642 671.951 785.39C671.936 785.138 671.828 784.9 671.648 784.722C671.467 784.543 671.227 784.436 670.972 784.421C670.717 784.406 670.466 784.484 670.265 784.64C670.06 784.822 669.936 785.075 669.919 785.347C669.903 785.618 669.995 785.885 670.176 786.089H670.265ZM506.865 819.219C507.011 819.365 507.197 819.465 507.399 819.506C507.602 819.547 507.813 819.527 508.004 819.45C508.195 819.372 508.359 819.24 508.475 819.07C508.59 818.9 508.651 818.699 508.651 818.495C508.651 818.29 508.59 818.09 508.475 817.92C508.359 817.75 508.195 817.618 508.004 817.54C507.813 817.462 507.602 817.443 507.399 817.484C507.197 817.525 507.011 817.625 506.865 817.77C506.673 817.963 506.565 818.224 506.565 818.495C506.565 818.766 506.673 819.026 506.865 819.219V819.219ZM535.231 800.47C535.376 800.616 535.562 800.715 535.764 800.756C535.967 800.797 536.178 800.778 536.369 800.7C536.561 800.622 536.724 800.49 536.84 800.32C536.955 800.15 537.017 799.95 537.017 799.745C537.017 799.541 536.955 799.34 536.84 799.17C536.724 799 536.561 798.868 536.369 798.791C536.178 798.713 535.967 798.693 535.764 798.734C535.562 798.775 535.376 798.875 535.231 799.021C535.129 799.117 535.047 799.233 534.992 799.361C534.936 799.49 534.908 799.628 534.908 799.767C534.908 799.907 534.936 800.045 534.992 800.173C535.047 800.302 535.129 800.417 535.231 800.514V800.47ZM750.833 886.357C750.978 886.503 751.164 886.603 751.367 886.644C751.569 886.685 751.78 886.665 751.971 886.588C752.163 886.51 752.327 886.378 752.442 886.208C752.557 886.038 752.619 885.838 752.619 885.633C752.619 885.428 752.557 885.228 752.442 885.058C752.327 884.888 752.163 884.756 751.971 884.678C751.78 884.601 751.569 884.581 751.367 884.622C751.164 884.663 750.978 884.763 750.833 884.908C750.64 885.102 750.532 885.362 750.532 885.633C750.532 885.904 750.64 886.164 750.833 886.357V886.357ZM751.876 958.15C752.021 958.296 752.207 958.396 752.41 958.437C752.613 958.478 752.823 958.458 753.015 958.38C753.206 958.303 753.37 958.17 753.485 958C753.6 957.83 753.662 957.63 753.662 957.426C753.662 957.221 753.6 957.021 753.485 956.851C753.37 956.681 753.206 956.549 753.015 956.471C752.823 956.393 752.613 956.374 752.41 956.415C752.207 956.456 752.021 956.555 751.876 956.701C751.78 956.799 751.707 956.916 751.659 957.044C751.612 957.172 751.591 957.309 751.6 957.445C751.608 957.581 751.645 957.714 751.708 957.835C751.77 957.957 751.858 958.064 751.965 958.15H751.876ZM712.413 959.182C712.559 959.328 712.744 959.427 712.947 959.468C713.15 959.509 713.36 959.49 713.552 959.412C713.743 959.335 713.907 959.202 714.022 959.032C714.138 958.862 714.199 958.662 714.199 958.457C714.199 958.253 714.138 958.053 714.022 957.883C713.907 957.713 713.743 957.58 713.552 957.503C713.36 957.425 713.15 957.405 712.947 957.446C712.744 957.487 712.559 957.587 712.413 957.733C712.232 957.937 712.14 958.204 712.156 958.476C712.173 958.747 712.297 959.001 712.502 959.182H712.413ZM711.392 945.724C711.483 945.838 711.598 945.932 711.729 946C711.859 946.068 712.003 946.107 712.15 946.116C712.297 946.124 712.445 946.102 712.582 946.05C712.72 945.998 712.845 945.918 712.95 945.815C713.054 945.712 713.135 945.588 713.187 945.452C713.24 945.316 713.262 945.17 713.253 945.024C713.245 944.879 713.205 944.737 713.136 944.607C713.068 944.478 712.973 944.365 712.857 944.275C712.764 944.175 712.65 944.095 712.524 944.041C712.398 943.986 712.262 943.958 712.125 943.958C711.987 943.958 711.851 943.986 711.725 944.041C711.599 944.095 711.486 944.175 711.392 944.275C711.211 944.479 711.119 944.746 711.135 945.017C711.152 945.288 711.276 945.542 711.481 945.724H711.392ZM582.817 852.986C583.012 853.176 583.275 853.283 583.549 853.283C583.823 853.283 584.086 853.176 584.282 852.986C584.382 852.893 584.463 852.781 584.518 852.657C584.573 852.532 584.601 852.398 584.601 852.261C584.601 852.125 584.573 851.991 584.518 851.866C584.463 851.742 584.382 851.629 584.282 851.537C584.19 851.422 584.076 851.328 583.945 851.261C583.814 851.193 583.671 851.154 583.524 851.145C583.376 851.136 583.229 851.159 583.091 851.21C582.953 851.262 582.828 851.342 582.724 851.445C582.62 851.549 582.539 851.672 582.487 851.809C582.434 851.945 582.412 852.091 582.42 852.236C582.429 852.382 582.469 852.524 582.537 852.653C582.606 852.782 582.701 852.896 582.817 852.986V852.986ZM693.126 785.145C693.317 785.334 693.577 785.44 693.847 785.44C694.118 785.44 694.377 785.334 694.568 785.145C694.669 785.053 694.75 784.941 694.805 784.816C694.86 784.691 694.888 784.557 694.888 784.421C694.888 784.285 694.86 784.15 694.805 784.025C694.75 783.901 694.669 783.789 694.568 783.696C694.377 783.507 694.118 783.401 693.847 783.401C693.577 783.401 693.317 783.507 693.126 783.696C693.025 783.789 692.944 783.901 692.889 784.025C692.834 784.15 692.806 784.285 692.806 784.421C692.806 784.557 692.834 784.691 692.889 784.816C692.944 784.941 693.025 785.053 693.126 785.145V785.145ZM576.114 837.837C576.259 837.983 576.445 838.083 576.648 838.124C576.85 838.165 577.061 838.145 577.252 838.067C577.444 837.99 577.608 837.857 577.723 837.687C577.838 837.517 577.9 837.317 577.9 837.113C577.9 836.908 577.838 836.708 577.723 836.538C577.608 836.368 577.444 836.236 577.252 836.158C577.061 836.08 576.85 836.061 576.648 836.102C576.445 836.143 576.259 836.242 576.114 836.388C575.938 836.575 575.838 836.82 575.834 837.075C575.83 837.331 575.921 837.579 576.092 837.771L576.114 837.837ZM663.851 804.619C664.043 804.81 664.271 804.961 664.523 805.063C664.774 805.166 665.043 805.219 665.315 805.219C665.587 805.219 665.857 805.166 666.108 805.063C666.36 804.961 666.588 804.81 666.78 804.619C666.973 804.429 667.125 804.203 667.229 803.954C667.334 803.706 667.387 803.439 667.387 803.17C667.387 802.901 667.334 802.635 667.229 802.386C667.125 802.137 666.973 801.912 666.78 801.721C666.59 801.527 666.362 801.373 666.111 801.268C665.859 801.163 665.589 801.109 665.315 801.109C665.042 801.109 664.772 801.163 664.52 801.268C664.269 801.373 664.041 801.527 663.851 801.721C663.482 802.101 663.275 802.606 663.271 803.133C663.267 803.659 663.466 804.168 663.828 804.553L663.851 804.619ZM537.628 837.552C537.818 837.746 538.046 837.9 538.297 838.005C538.549 838.11 538.819 838.164 539.093 838.164C539.366 838.164 539.636 838.11 539.888 838.005C540.139 837.9 540.367 837.746 540.557 837.552C540.946 837.167 541.164 836.646 541.164 836.103C541.164 835.559 540.946 835.038 540.557 834.654C540.169 834.269 539.642 834.053 539.093 834.053C538.543 834.053 538.016 834.269 537.628 834.654C537.256 835.028 537.046 835.53 537.042 836.054C537.037 836.579 537.24 837.084 537.605 837.464L537.628 837.552ZM565.038 839.593C565.326 839.881 565.694 840.077 566.095 840.157C566.496 840.237 566.912 840.197 567.29 840.043C567.668 839.889 567.991 839.628 568.219 839.291C568.446 838.955 568.568 838.56 568.568 838.155C568.568 837.751 568.446 837.355 568.219 837.019C567.991 836.683 567.668 836.422 567.29 836.268C566.912 836.113 566.496 836.074 566.095 836.154C565.694 836.234 565.326 836.43 565.038 836.717C564.673 837.09 564.467 837.588 564.463 838.107C564.459 838.626 564.657 839.127 565.016 839.506L565.038 839.593ZM729.526 872.526C729.814 872.813 730.181 873.009 730.582 873.089C730.983 873.169 731.399 873.13 731.777 872.976C732.155 872.822 732.479 872.56 732.706 872.224C732.934 871.888 733.055 871.492 733.055 871.088C733.055 870.683 732.934 870.288 732.706 869.952C732.479 869.616 732.155 869.354 731.777 869.2C731.399 869.046 730.983 869.006 730.582 869.086C730.181 869.167 729.814 869.363 729.526 869.65C729.173 870.02 728.975 870.509 728.971 871.018C728.967 871.526 729.157 872.018 729.503 872.394L729.526 872.526ZM155.186 747.383C155.475 747.667 155.843 747.86 156.243 747.937C156.643 748.015 157.057 747.974 157.433 747.819C157.81 747.664 158.131 747.402 158.357 747.067C158.584 746.731 158.704 746.337 158.704 745.934C158.704 745.531 158.584 745.136 158.357 744.801C158.131 744.465 157.81 744.204 157.433 744.049C157.057 743.894 156.643 743.852 156.243 743.93C155.843 744.008 155.475 744.201 155.186 744.485C154.813 744.862 154.602 745.368 154.598 745.896C154.593 746.424 154.796 746.934 155.164 747.317L155.186 747.383ZM103.427 935.712C103.716 935.996 104.084 936.189 104.484 936.267C104.884 936.344 105.298 936.303 105.675 936.148C106.051 935.993 106.373 935.731 106.599 935.396C106.825 935.06 106.945 934.666 106.945 934.263C106.945 933.86 106.825 933.466 106.599 933.13C106.373 932.795 106.051 932.533 105.675 932.378C105.298 932.223 104.884 932.182 104.484 932.259C104.084 932.337 103.716 932.53 103.427 932.814C103.042 933.2 102.826 933.721 102.826 934.263C102.826 934.805 103.042 935.326 103.427 935.712V935.712ZM641.567 945.416C641.856 945.7 642.224 945.893 642.624 945.971C643.024 946.048 643.438 946.007 643.814 945.852C644.191 945.697 644.512 945.435 644.738 945.1C644.964 944.765 645.085 944.37 645.085 943.967C645.085 943.564 644.964 943.17 644.738 942.834C644.512 942.499 644.191 942.237 643.814 942.082C643.438 941.927 643.024 941.886 642.624 941.964C642.224 942.041 641.856 942.234 641.567 942.518C641.371 942.706 641.215 942.932 641.109 943.181C641.002 943.429 640.947 943.697 640.947 943.967C640.947 944.237 641.002 944.505 641.109 944.754C641.215 945.003 641.371 945.228 641.567 945.416V945.416ZM183.773 729.028C184.061 729.316 184.429 729.512 184.83 729.592C185.23 729.672 185.646 729.632 186.024 729.478C186.403 729.324 186.726 729.063 186.953 728.726C187.181 728.39 187.302 727.995 187.302 727.59C187.302 727.186 187.181 726.79 186.953 726.454C186.726 726.118 186.403 725.857 186.024 725.702C185.646 725.548 185.23 725.509 184.83 725.589C184.429 725.669 184.061 725.865 183.773 726.152C183.578 726.339 183.422 726.562 183.316 726.809C183.21 727.056 183.155 727.322 183.155 727.59C183.155 727.859 183.21 728.125 183.316 728.372C183.422 728.619 183.578 728.842 183.773 729.028V729.028ZM679.498 959.906C679.787 960.191 680.155 960.384 680.555 960.461C680.955 960.539 681.369 960.497 681.746 960.342C682.122 960.187 682.443 959.926 682.67 959.59C682.896 959.255 683.016 958.861 683.016 958.457C683.016 958.054 682.896 957.66 682.67 957.325C682.443 956.989 682.122 956.727 681.746 956.573C681.369 956.418 680.955 956.376 680.555 956.454C680.155 956.531 679.787 956.724 679.498 957.008C679.302 957.197 679.146 957.422 679.04 957.671C678.933 957.92 678.879 958.187 678.879 958.457C678.879 958.728 678.933 958.995 679.04 959.244C679.146 959.493 679.302 959.718 679.498 959.906V959.906ZM269.534 839.506C269.822 839.793 270.19 839.989 270.591 840.069C270.992 840.149 271.408 840.11 271.786 839.956C272.164 839.801 272.487 839.54 272.715 839.204C272.942 838.868 273.064 838.472 273.064 838.068C273.064 837.663 272.942 837.268 272.715 836.932C272.487 836.595 272.164 836.334 271.786 836.18C271.408 836.026 270.992 835.986 270.591 836.066C270.19 836.146 269.822 836.342 269.534 836.63C269.339 836.816 269.184 837.039 269.078 837.286C268.971 837.533 268.917 837.799 268.917 838.068C268.917 838.336 268.971 838.602 269.078 838.849C269.184 839.096 269.339 839.319 269.534 839.506V839.506ZM596.777 894.766C596.968 894.96 597.195 895.114 597.447 895.219C597.699 895.325 597.969 895.379 598.242 895.379C598.515 895.379 598.786 895.325 599.037 895.219C599.289 895.114 599.517 894.96 599.707 894.766C599.994 894.48 600.189 894.116 600.268 893.721C600.346 893.325 600.304 892.915 600.148 892.543C599.991 892.171 599.727 891.853 599.387 891.629C599.048 891.405 598.65 891.286 598.242 891.286C597.835 891.286 597.436 891.405 597.097 891.629C596.758 891.853 596.493 892.171 596.337 892.543C596.18 892.915 596.138 893.325 596.217 893.721C596.295 894.116 596.49 894.48 596.777 894.766Z" fill="#604F72"/>
<g style="mix-blend-mode:soft-light" opacity="0.15">
<path fill-rule="evenodd" clip-rule="evenodd" d="M313.512 72.0365C316.604 73.1202 365.059 89.984 379.564 96.9973C379.645 97.0385 379.731 97.0711 379.822 97.0943C420.657 108.116 452.389 92.8915 479.957 123.879L480.06 124.011C509.174 167.184 526.875 168.655 577.813 176.875C578.104 176.911 578.401 176.865 578.658 176.742C578.914 176.62 579.117 176.429 579.234 176.199C579.351 175.968 579.376 175.711 579.306 175.468C579.236 175.224 579.073 175.006 578.844 174.849C563.989 165.06 516.679 133.509 509.256 123.879C500.441 112.425 505.132 99.7991 488.142 95.6317H488.039C390.956 77.9573 386.42 22.203 245.181 12.0442C244.912 12.0223 244.641 12.0711 244.405 12.1841C244.169 12.2972 243.979 12.469 243.86 12.6768C243.741 12.8845 243.7 13.1183 243.74 13.3469C243.781 13.5755 243.902 13.788 244.088 13.9561C254.078 23.1809 293.872 59.5605 313.264 71.8955C313.342 71.9486 313.424 71.9958 313.512 72.0365V72.0365Z" fill="white"/>
</g>
<g style="mix-blend-mode:soft-light" opacity="0.15">
<path fill-rule="evenodd" clip-rule="evenodd" d="M386.039 156.368C419.225 222.634 479.143 244.537 541.804 285.807C541.906 285.875 541.996 285.955 542.072 286.045C585.371 337.244 635.784 361.694 689.104 385.897C689.379 386.004 689.688 386.028 689.981 385.967C690.274 385.905 690.534 385.76 690.719 385.556C690.904 385.352 691.003 385.101 691 384.843C690.997 384.585 690.892 384.336 690.702 384.135C560.289 265.701 588.629 239.057 387.895 154.95C387.655 154.848 387.385 154.81 387.119 154.84C386.853 154.871 386.605 154.969 386.405 155.122C386.205 155.274 386.063 155.475 385.998 155.697C385.933 155.919 385.947 156.153 386.039 156.368Z" fill="white"/>
</g>
<g style="mix-blend-mode:soft-light" opacity="0.15">
<path fill-rule="evenodd" clip-rule="evenodd" d="M42.0552 45.642C44.2614 46.7169 76.6947 62.5674 86.1485 68.5499L86.334 68.6468C112.107 79.3607 141.025 74.224 155.056 96.3742L155.118 96.4976C168.995 127.811 185.139 130.859 216.975 140.366C217.213 140.434 217.471 140.432 217.708 140.36C217.945 140.287 218.146 140.149 218.28 139.968C218.414 139.786 218.473 139.571 218.448 139.358C218.422 139.144 218.314 138.944 218.14 138.789C208.16 130.313 180.273 106.277 176.551 99.5285C172.026 91.2816 177.582 83.722 165.809 79.2638C154.036 74.8055 125.438 67.5807 122.448 59.3339C108.86 35.8004 30.6942 5.58835 2.45683 0.0463944C2.22816 -0.0169736 1.98163 -0.01539 1.7541 0.0509117C1.52657 0.117213 1.33025 0.244671 1.19451 0.414229C1.05876 0.583787 0.99087 0.78634 1.00099 0.991607C1.0111 1.19687 1.09868 1.39383 1.25063 1.55303C7.43627 9.03335 29.9107 35.7211 41.8284 45.501L42.0552 45.642Z" fill="white"/>
</g>
<g style="mix-blend-mode:soft-light" opacity="0.15">
<path fill-rule="evenodd" clip-rule="evenodd" d="M1194.35 930.278C1197.44 931.531 1245.87 951.026 1260.36 959.134C1260.45 959.181 1260.53 959.219 1260.62 959.246C1301.44 971.988 1333.15 954.387 1360.7 990.21L1360.81 990.363C1389.91 1040.27 1407.6 1041.97 1458.51 1051.48C1458.8 1051.52 1459.1 1051.46 1459.35 1051.32C1459.61 1051.18 1459.81 1050.96 1459.93 1050.69C1460.05 1050.43 1460.07 1050.13 1460 1049.85C1459.93 1049.57 1459.77 1049.32 1459.54 1049.13C1444.69 1037.82 1397.41 1001.34 1389.99 990.21C1381.18 976.969 1385.87 962.373 1368.89 957.555H1368.78C1271.75 937.122 1267.22 872.668 1126.05 860.924C1125.78 860.899 1125.51 860.955 1125.28 861.086C1125.04 861.216 1124.85 861.415 1124.73 861.655C1124.61 861.895 1124.57 862.166 1124.61 862.43C1124.65 862.694 1124.77 862.94 1124.96 863.134C1134.94 873.798 1174.72 915.855 1194.1 930.115C1194.18 930.176 1194.26 930.231 1194.35 930.278V930.278Z" fill="white"/>
</g>
<g style="mix-blend-mode:soft-light" opacity="0.15">
<path fill-rule="evenodd" clip-rule="evenodd" d="M1266.84 1027.77C1300.01 1104.38 1359.89 1129.7 1422.52 1177.41C1422.62 1177.48 1422.71 1177.58 1422.79 1177.68C1466.06 1236.87 1516.45 1265.13 1569.74 1293.11C1570.02 1293.24 1570.33 1293.27 1570.62 1293.19C1570.91 1293.12 1571.17 1292.96 1571.36 1292.72C1571.54 1292.48 1571.64 1292.19 1571.64 1291.9C1571.63 1291.6 1571.53 1291.31 1571.34 1291.08C1440.99 1154.16 1469.32 1123.36 1268.69 1026.13C1268.45 1026.01 1268.18 1025.97 1267.92 1026C1267.65 1026.04 1267.4 1026.15 1267.2 1026.33C1267 1026.5 1266.86 1026.74 1266.8 1026.99C1266.73 1027.25 1266.75 1027.52 1266.84 1027.77Z" fill="white"/>
</g>
<g style="mix-blend-mode:soft-light" opacity="0.15">
<path fill-rule="evenodd" clip-rule="evenodd" d="M923.034 899.764C925.239 901.007 957.655 919.331 967.104 926.247L967.289 926.359C993.049 938.745 1021.95 932.806 1035.98 958.413L1036.04 958.556C1049.91 994.755 1066.04 998.279 1097.86 1009.27C1098.1 1009.35 1098.36 1009.35 1098.59 1009.26C1098.83 1009.18 1099.03 1009.02 1099.17 1008.81C1099.3 1008.6 1099.36 1008.35 1099.33 1008.1C1099.31 1007.86 1099.2 1007.63 1099.03 1007.45C1089.05 997.648 1061.18 969.862 1057.46 962.059C1052.94 952.526 1058.49 943.786 1046.72 938.632C1034.96 933.479 1006.37 925.126 1003.38 915.593C989.803 888.387 911.679 853.46 883.456 847.054C883.228 846.98 882.981 846.982 882.754 847.059C882.526 847.136 882.33 847.283 882.194 847.479C882.059 847.675 881.991 847.909 882.001 848.146C882.011 848.384 882.099 848.611 882.251 848.795C888.433 857.443 910.896 888.295 922.807 899.601L923.034 899.764Z" fill="white"/>
</g>
</svg>
