<svg xmlns="http://www.w3.org/2000/svg" xmlns:xlink="http://www.w3.org/1999/xlink" width="1690" height="1812" fill="none" xmlns:v="https://vecta.io/nano"><style><![CDATA[.B{fill-rule:evenodd}.C{opacity:.15}.D{fill:#fff}]]></style><g fill="#779bff"><path d="M1305.2 1748.62c-.21.76-.63 1.44-1.22 1.96a4.13 4.13 0 0 1-2.11.96 4.04 4.04 0 0 1-2.3-.36c-.71-.34-1.31-.88-1.71-1.55a3.89 3.89 0 0 1-.56-2.23c.04-.78.32-1.53.79-2.16.48-.63 1.13-1.1 1.87-1.37a4.11 4.11 0 0 1 2.33-.11c.51.13 1 .36 1.42.67.43.31.79.71 1.06 1.16s.45.95.52 1.47a4.1 4.1 0 0 1-.09 1.56z" class="B"/><path d="M1223.99 1512.28c2.22 0 4.02-1.77 4.02-3.96s-1.8-3.97-4.02-3.97-4.01 1.78-4.01 3.97 1.79 3.96 4.01 3.96z"/><path d="M1041.19 1602.16c-.2.76-.63 1.44-1.22 1.96a4.05 4.05 0 0 1-2.11.96 4.04 4.04 0 0 1-2.3-.36c-.71-.34-1.31-.88-1.71-1.55a3.89 3.89 0 0 1-.56-2.23c.05-.78.32-1.53.79-2.16.48-.63 1.13-1.1 1.87-1.36.75-.27 1.56-.31 2.33-.12.51.13 1 .36 1.42.67.43.32.79.71 1.06 1.16s.45.95.52 1.47a4.1 4.1 0 0 1-.09 1.56zm-134.226-188.01a3.98 3.98 0 0 1-1.212 1.96c-.592.52-1.326.86-2.111.97s-1.586-.02-2.301-.35a3.99 3.99 0 0 1-1.717-1.56 3.92 3.92 0 0 1-.556-2.23c.041-.78.316-1.53.79-2.16s1.125-1.1 1.872-1.36a4.01 4.01 0 0 1 2.325-.12c.514.13.998.36 1.423.67s.783.71 1.053 1.16a3.97 3.97 0 0 1 .523 1.46c.074.52.044 1.05-.089 1.56h0zm-17.46 124.36a3.98 3.98 0 0 1-1.212 1.96c-.592.52-1.326.86-2.111.97a4.05 4.05 0 0 1-2.301-.35 3.99 3.99 0 0 1-1.717-1.56 3.9 3.9 0 0 1-.556-2.23c.041-.78.316-1.53.79-2.16s1.125-1.1 1.872-1.36c.747-.27 1.556-.31 2.325-.11a3.95 3.95 0 0 1 1.423.66c.425.31.783.71 1.053 1.16a3.97 3.97 0 0 1 .523 1.46c.074.52.044 1.05-.089 1.56h0zm165.896-5a3.99 3.99 0 0 1-1.21 1.96c-.59.52-1.33.86-2.11.97a4.12 4.12 0 0 1-2.3-.35c-.72-.34-1.31-.88-1.72-1.56-.4-.67-.6-1.45-.55-2.23a3.88 3.88 0 0 1 .79-2.16 3.93 3.93 0 0 1 1.87-1.36 3.99 3.99 0 0 1 2.32-.12 4.17 4.17 0 0 1 1.43.67c.42.31.78.71 1.05 1.16a3.88 3.88 0 0 1 .52 1.46c.08.52.05 1.05-.09 1.56h0z" class="B"/><path d="M1348.82 1779.64c1.56 0 2.83-1.25 2.83-2.8s-1.27-2.8-2.83-2.8c-1.57 0-2.84 1.25-2.84 2.8s1.27 2.8 2.84 2.8zm-354.586-186.93c1.567 0 2.838-1.26 2.838-2.81 0-1.54-1.271-2.8-2.838-2.8s-2.837 1.26-2.837 2.8c0 1.55 1.27 2.81 2.837 2.81zm256.616 115.12c.4-1.49-.51-3.03-2.02-3.42-1.52-.4-3.07.5-3.47 1.99-.4 1.5.51 3.03 2.02 3.43 1.52.39 3.07-.5 3.47-2zm174.08-116.55c1.56 0 2.83-1.25 2.83-2.8s-1.27-2.8-2.83-2.8c-1.57 0-2.84 1.25-2.84 2.8s1.27 2.8 2.84 2.8zm-28.67 115.5c1.57 0 2.84-1.26 2.84-2.8 0-1.55-1.27-2.81-2.84-2.81-1.56 0-2.83 1.26-2.83 2.81 0 1.54 1.27 2.8 2.83 2.8z"/><path d="M1238.62 1670.61a2.06 2.06 0 0 1-.98 1.24 2.1 2.1 0 0 1-1.57.2c-.51-.17-.93-.52-1.18-.98-.26-.46-.32-1-.19-1.51.14-.51.46-.95.91-1.23.46-.28 1-.38 1.52-.28.27.07.52.19.75.36a2.24 2.24 0 0 1 .54.61 2 2 0 0 1 .26.78 2.21 2.21 0 0 1-.06.81h0zm-127.35-64.63a2.06 2.06 0 0 1-.96 1.26c-.48.27-1.05.35-1.58.21-.54-.14-.99-.48-1.27-.96a2.03 2.03 0 0 1-.22-1.56c.07-.26.19-.5.36-.72.17-.21.37-.39.61-.53a2.13 2.13 0 0 1 .77-.26 2.01 2.01 0 0 1 .81.05 2.24 2.24 0 0 1 .73.35c.22.16.4.37.54.6a1.86 1.86 0 0 1 .26.76 1.96 1.96 0 0 1-.05.8zm-195.547 10.99c-.07.27-.191.51-.357.73a2.19 2.19 0 0 1-.609.53c-.236.13-.498.22-.769.26s-.547.02-.811-.05-.513-.19-.731-.35c-.218-.17-.401-.37-.539-.6-.138-.24-.227-.5-.264-.76-.037-.27-.02-.54.05-.8a2.08 2.08 0 0 1 .965-1.26c.478-.27 1.046-.35 1.581-.21a2.08 2.08 0 0 1 1.269.95 2.04 2.04 0 0 1 .215 1.56zm12.207-45.62a2.05 2.05 0 0 1-.64 1.02c-.31.26-.694.44-1.103.49s-.824-.02-1.193-.2a2.08 2.08 0 0 1-.879-.82c-.205-.35-.298-.76-.269-1.17.029-.4.179-.79.432-1.11s.597-.56.988-.69.812-.14 1.209-.03c.264.07.51.19.726.35a2.06 2.06 0 0 1 .532.61c.135.23.222.49.256.76a1.98 1.98 0 0 1-.059.79h0zm68.822-107.09c-.107.4-.33.75-.641 1.02a2.06 2.06 0 0 1-1.103.49 2.13 2.13 0 0 1-1.192-.2 2.08 2.08 0 0 1-.88-.82 2.03 2.03 0 0 1-.269-1.16c.029-.41.18-.8.433-1.12a2.1 2.1 0 0 1 .987-.69 2.08 2.08 0 0 1 1.21-.03c.529.14.979.49 1.252.96s.345 1.03.203 1.55h0z" class="B"/><path d="M1312.62 1735.73a1.32 1.32 0 1 0 0-2.64 1.33 1.33 0 0 0-1.34 1.32 1.33 1.33 0 0 0 1.34 1.32z"/><path d="M1242.54 1704.29c-.04.17-.12.33-.23.47a1.59 1.59 0 0 1-.39.34 1.4 1.4 0 0 1-.5.16 1.52 1.52 0 0 1-.52-.03c-.17-.05-.33-.12-.47-.23-.14-.1-.26-.23-.34-.38-.09-.15-.15-.32-.17-.49a1.45 1.45 0 0 1 .03-.51 1.58 1.58 0 0 1 .23-.47 1.59 1.59 0 0 1 .39-.34 1.48 1.48 0 0 1 .5-.17c.17-.02.35-.01.52.04a1.35 1.35 0 0 1 .47.22c.14.11.26.24.35.39.08.15.14.32.17.49.02.17.01.34-.04.51h0zm-6.73 30.32c-.09.34-.31.63-.62.81-.3.17-.67.23-1.01.14-.17-.05-.33-.12-.47-.23a1.2 1.2 0 0 1-.35-.39 1.38 1.38 0 0 1-.17-.48c-.02-.18-.01-.35.03-.52.05-.17.13-.32.23-.46a1.19 1.19 0 0 1 .4-.34c.15-.09.32-.15.49-.17a1.52 1.52 0 0 1 .52.03c.17.04.33.12.47.23.14.1.26.23.34.38.09.15.15.32.17.49s.01.34-.03.51h0zm18.65-3.33a1.42 1.42 0 0 1-.23.46c-.11.14-.24.25-.4.34a1.43 1.43 0 0 1-.49.17c-.18.02-.35.01-.52-.04-.17-.04-.33-.12-.47-.23-.14-.1-.26-.23-.35-.38s-.15-.32-.17-.49a1.52 1.52 0 0 1 .03-.52c.05-.16.13-.32.23-.46.11-.14.24-.25.39-.34.16-.09.32-.15.5-.17a1.52 1.52 0 0 1 .52.03c.34.09.64.32.82.62a1.32 1.32 0 0 1 .14 1.01h0zm-36.08-3.42c-.05.16-.13.32-.23.46-.11.14-.24.25-.39.34-.16.09-.32.15-.5.17a1.52 1.52 0 0 1-.52-.03c-.17-.05-.33-.12-.47-.23a1.31 1.31 0 0 1-.35-.39c-.08-.15-.14-.31-.17-.48-.02-.18-.01-.35.04-.52a1.28 1.28 0 0 1 .62-.8 1.32 1.32 0 0 1 1.01-.14 1.34 1.34 0 0 1 .82.61c.18.31.23.67.14 1.01zm-389.753-55.44a1.33 1.33 0 0 1-.227.47c-.106.13-.239.25-.39.34-.152.08-.319.14-.493.16s-.35.01-.52-.03c-.343-.09-.636-.31-.815-.62a1.3 1.3 0 0 1-.138-1c.091-.34.314-.63.621-.81a1.38 1.38 0 0 1 1.016-.13c.17.04.33.12.47.23.14.1.257.24.345.39a1.27 1.27 0 0 1 .167.49c.022.17.01.34-.036.51h0zm436.093 39.7a.69.69 0 0 1-.32.41c-.15.09-.34.11-.51.07-.17-.05-.32-.16-.41-.31a.63.63 0 0 1-.06-.5.64.64 0 0 1 .31-.41c.15-.08.34-.11.51-.06a.66.66 0 0 1 .41.3.67.67 0 0 1 .07.5zm-206.58 99.15c-.07.2-.21.38-.4.48-.19.11-.42.14-.63.08-.21-.05-.39-.19-.5-.38a.77.77 0 0 1-.1-.61.84.84 0 0 1 .39-.51c.2-.11.43-.14.64-.08a.79.79 0 0 1 .51.38c.12.2.15.42.09.64h0z" class="B"/><use xlink:href="#B"/><path d="M965.149 1625.02c-.044.17-.155.32-.308.4-.153.09-.335.12-.507.07a.69.69 0 0 1-.404-.31.67.67 0 0 1-.076-.5c.024-.09.064-.17.118-.24a.75.75 0 0 1 .2-.16c.077-.05.162-.07.25-.09.088-.01.177 0 .262.03.084.02.164.06.233.11a.67.67 0 0 1 .253.43.66.66 0 0 1-.021.26zm221.421 57.07a.69.69 0 0 1-.32.41c-.15.09-.34.11-.51.07-.17-.05-.32-.16-.41-.31-.08-.15-.11-.34-.06-.5.04-.17.16-.32.31-.41a.7.7 0 0 1 .51-.06.69.69 0 0 1 .4.31.65.65 0 0 1 .08.49h0zm-92.33-17.86a.73.73 0 0 1-.32.41c-.16.09-.34.11-.51.07-.17-.05-.32-.16-.4-.31a.67.67 0 0 1-.07-.5c.02-.08.06-.16.11-.23s.12-.13.2-.18a.68.68 0 0 1 .24-.08.62.62 0 0 1 .27.02.64.64 0 0 1 .4.3c.09.15.12.33.08.5h0zm-223.069-54.57c-.048.17-.161.32-.316.41-.156.08-.34.11-.513.06-.169-.04-.313-.15-.4-.3a.66.66 0 0 1-.066-.5c.02-.08.058-.16.11-.24.053-.07.119-.12.195-.17.076-.04.161-.07.248-.08a.58.58 0 0 1 .262.02.65.65 0 0 1 .404.3.68.68 0 0 1 .076.5h0zm-22.872-8.25a.62.62 0 0 1-.113.23.6.6 0 0 1-.193.17c-.075.04-.158.07-.244.08-.086.02-.174.01-.258-.01a.66.66 0 0 1-.232-.11.67.67 0 0 1-.171-.19.72.72 0 0 1-.085-.24.67.67 0 0 1 .015-.26c.022-.08.061-.16.113-.23a.75.75 0 0 1 .193-.17c.075-.04.158-.07.244-.08s.174-.01.258.02a.66.66 0 0 1 .232.11c.069.05.128.11.172.19.043.07.072.15.084.24a.62.62 0 0 1-.015.25zm403.921 118.6c-.02.09-.06.17-.12.24-.05.07-.12.13-.19.17-.08.05-.17.07-.26.08-.08.02-.17.01-.26-.01-.17-.05-.32-.16-.41-.31-.09-.16-.11-.34-.06-.51.04-.17.16-.31.31-.4a.65.65 0 0 1 .51-.06.64.64 0 0 1 .4.3c.09.15.12.33.08.5h0zm-122.76-31.34a.66.66 0 0 1-.11.24c-.05.07-.12.13-.19.17a.58.58 0 0 1-.25.09c-.09.01-.18 0-.26-.02-.09-.02-.17-.06-.24-.12-.07-.05-.13-.12-.17-.19-.04-.08-.07-.16-.08-.25a.53.53 0 0 1 .01-.25.9.9 0 0 1 .12-.24c.05-.06.12-.12.2-.17a.68.68 0 0 1 .24-.08c.09-.01.18 0 .27.02.16.05.31.16.4.31.08.15.11.33.06.49h0z" class="B"/><path d="M958.165 1646.63c.37 0 .669-.3.669-.66a.66.66 0 0 0-.669-.66.66.66 0 0 0-.669.66.67.67 0 0 0 .669.66z"/><use xlink:href="#C"/><path d="M1203.61 1683.8c-.07.26-.21.48-.41.66a1.29 1.29 0 0 1-.7.32c-.26.04-.53 0-.77-.12a1.25 1.25 0 0 1-.57-.52c-.14-.22-.2-.48-.18-.74.01-.26.1-.51.26-.72a1.38 1.38 0 0 1 .63-.46c.25-.08.52-.09.78-.03.34.09.63.31.82.61.18.3.23.66.14 1h0zm-231.2-118.19c-.089.34-.311.63-.617.8a1.33 1.33 0 0 1-1.013.14 1.23 1.23 0 0 1-.557-.17c-.17-.1-.316-.23-.428-.39a1.3 1.3 0 0 1-.219-.53c-.033-.2-.022-.39.031-.58s.148-.36.277-.51c.129-.14.29-.26.47-.34a1.25 1.25 0 0 1 .572-.11 1.38 1.38 0 0 1 .567.13c.325.1.6.31.771.6a1.31 1.31 0 0 1 .146.96h0zm296.89-28.11a1.3 1.3 0 0 1-.4.66 1.38 1.38 0 0 1-.7.33c-.26.03-.53 0-.76-.11-.24-.11-.44-.29-.58-.52a1.21 1.21 0 0 1-.19-.74 1.33 1.33 0 0 1 .25-.72c.16-.21.37-.37.62-.46a1.35 1.35 0 0 1 .77-.05c.18.04.34.11.48.22.15.1.27.23.36.38s.16.32.18.49c.03.17.02.35-.03.52h0zm-26.35-96.14c-.09.34-.31.63-.62.81a1.39 1.39 0 0 1-1.02.13 1.35 1.35 0 0 1-.81-.61c-.18-.3-.23-.67-.14-1 .05-.17.12-.33.23-.47s.24-.25.39-.34a1.41 1.41 0 0 1 .5-.17 1.52 1.52 0 0 1 .52.03 1.58 1.58 0 0 1 .47.23 1.26 1.26 0 0 1 .34.39c.09.15.15.31.17.49.03.17.02.34-.03.51zm-93.69 274.38c-.04.17-.12.33-.23.47-.1.14-.24.25-.39.34a1.4 1.4 0 0 1-.5.16c-.17.03-.35.01-.52-.03-.17-.05-.33-.12-.47-.23a1.31 1.31 0 0 1-.35-.39c-.08-.15-.14-.31-.17-.48-.02-.18-.01-.35.04-.52.04-.17.12-.32.23-.46.1-.14.24-.26.39-.34.15-.09.32-.15.49-.17.18-.02.35-.01.52.03a1.32 1.32 0 0 1 .82.62c.18.3.23.66.14 1h0zm-183.121-153.12c-.091.34-.314.63-.621.8a1.34 1.34 0 0 1-1.016.14c-.344-.09-.637-.31-.816-.61a1.33 1.33 0 0 1-.137-1.01 1.29 1.29 0 0 1 .621-.8 1.34 1.34 0 0 1 1.016-.14c.343.09.636.31.815.61a1.33 1.33 0 0 1 .138 1.01zm-1.572-79.85c-.066.25-.207.48-.404.66-.198.17-.443.28-.705.32s-.53 0-.768-.12c-.239-.11-.438-.29-.573-.52-.134-.22-.198-.48-.183-.74s.108-.52.268-.72a1.37 1.37 0 0 1 .628-.46c.25-.08.52-.09.777-.03.343.09.637.31.817.61s.231.66.143 1h0z" class="B"/><path d="M913.497 1472.14c.739 0 1.338-.59 1.338-1.32s-.599-1.33-1.338-1.33a1.34 1.34 0 0 0-1.339 1.33 1.33 1.33 0 0 0 1.339 1.32z"/><path d="M1094.88 1441.04c-.07.26-.21.49-.41.66s-.44.29-.7.32a1.35 1.35 0 0 1-.77-.11c-.24-.12-.44-.3-.57-.52-.14-.23-.2-.49-.19-.75.02-.26.11-.51.27-.72s.38-.37.63-.45c.25-.09.52-.1.78-.03.34.08.63.3.81.6a1.36 1.36 0 0 1 .15 1zm117.14-5.01a1.42 1.42 0 0 1-.23.46 1.19 1.19 0 0 1-.4.34c-.15.09-.32.15-.49.17-.18.02-.36.01-.53-.04a1.3 1.3 0 0 1-.65-.4c-.18-.2-.29-.44-.32-.7a1.26 1.26 0 0 1 .13-.76 1.3 1.3 0 0 1 .53-.56c.23-.13.49-.19.75-.17.27.02.52.11.73.27s.37.38.45.62a1.27 1.27 0 0 1 .03.77h0zm-286.345 127.62a1.34 1.34 0 0 1-.621.81 1.38 1.38 0 0 1-1.016.13c-.343-.09-.636-.31-.815-.61a1.3 1.3 0 0 1-.138-1 1.34 1.34 0 0 1 .23-.47c.106-.13.239-.25.391-.34s.32-.14.495-.17a1.31 1.31 0 0 1 .521.04 1.35 1.35 0 0 1 .47.22c.14.11.257.24.346.39a1.35 1.35 0 0 1 .17.49c.023.17.012.34-.033.51zm-11.16-96.66c-.069.26-.212.48-.412.65a1.27 1.27 0 0 1-.708.32 1.35 1.35 0 0 1-.766-.13c-.237-.11-.434-.3-.566-.52a1.32 1.32 0 0 1-.175-.75c.018-.26.113-.51.274-.72a1.35 1.35 0 0 1 .631-.44 1.29 1.29 0 0 1 .777-.03c.171.04.332.12.472.23.141.1.259.23.347.39a1.25 1.25 0 0 1 .126 1zm70.873 18.48a1.34 1.34 0 0 1-.621.81 1.38 1.38 0 0 1-1.016.13c-.343-.09-.636-.31-.815-.61a1.3 1.3 0 0 1-.138-1 1.34 1.34 0 0 1 .23-.47c.106-.13.239-.25.391-.34s.32-.14.495-.17a1.31 1.31 0 0 1 .521.04 1.35 1.35 0 0 1 .47.22c.14.11.257.24.346.39a1.33 1.33 0 0 1 .169.49c.024.17.013.34-.032.51h0zm128.402-21.46c-.04.16-.12.32-.23.46s-.24.25-.39.34a1.56 1.56 0 0 1-.5.17c-.18.02-.35.01-.52-.04-.17-.04-.33-.12-.47-.23-.14-.1-.26-.23-.35-.38a1.43 1.43 0 0 1-.17-.49 1.52 1.52 0 0 1 .03-.52c.05-.16.13-.32.23-.46.11-.14.24-.25.4-.34.15-.09.32-.15.49-.17a1.52 1.52 0 0 1 .52.03c.35.09.64.32.82.62s.23.66.14 1.01zm89.05 154.86c-.09.34-.31.63-.62.81a1.32 1.32 0 0 1-1.01.14c-.17-.05-.33-.12-.47-.23-.14-.1-.26-.23-.35-.38a1.43 1.43 0 0 1-.17-.49 1.52 1.52 0 0 1 .03-.52c.05-.17.13-.32.23-.46a1.19 1.19 0 0 1 .4-.34c.15-.09.32-.15.49-.17a1.52 1.52 0 0 1 .52.03c.17.04.33.12.47.23.14.1.26.23.34.38.09.15.15.32.17.49s.01.34-.03.51h0zm-191.47-144.49a1.11 1.11 0 0 1-.23.46c-.1.14-.24.26-.39.34a1.24 1.24 0 0 1-.5.17c-.17.02-.35.01-.52-.04a1.37 1.37 0 0 1-.82-.61 1.34 1.34 0 0 1-.13-1c.09-.34.31-.63.62-.81a1.37 1.37 0 0 1 1.01-.13 1.34 1.34 0 0 1 .82.61c.18.31.23.67.14 1.01zm-117.472-56.28a1.28 1.28 0 0 1-.232.46 1.21 1.21 0 0 1-.394.34c-.152.09-.321.15-.496.17s-.352.01-.522-.04c-.331-.1-.61-.32-.78-.62-.169-.29-.215-.64-.129-.97a1.34 1.34 0 0 1 .593-.8 1.36 1.36 0 0 1 .985-.17 1.35 1.35 0 0 1 .828.62c.182.3.235.67.147 1.01z" class="B"/><path d="M1194.14 1555.07a1.32 1.32 0 1 0 0-2.64 1.33 1.33 0 0 0-1.34 1.32 1.33 1.33 0 0 0 1.34 1.32z"/><use xlink:href="#D"/><path d="M1270.48 1628.71c-.04.18-.11.34-.22.49-.1.14-.23.27-.39.36-.15.09-.32.16-.5.18-.18.03-.36.02-.53-.03-.18-.04-.34-.12-.49-.23-.14-.11-.26-.24-.35-.4a1.4 1.4 0 0 1-.16-.5 1.35 1.35 0 0 1 .67-1.3 1.39 1.39 0 0 1 1-.12 1.31 1.31 0 0 1 .8.58c.18.29.24.64.17.97z" class="B"/><path d="M1437.62 1575.94c.56-2.11-.71-4.28-2.86-4.84-2.14-.56-4.34.7-4.91 2.82-.56 2.12.72 4.29 2.86 4.85s4.34-.71 4.91-2.83zm100.6 72.76c.56-2.12-.72-4.29-2.86-4.85-2.15-.56-4.34.71-4.91 2.82-.57 2.12.71 4.29 2.86 4.85 2.14.56 4.34-.7 4.91-2.82zm49.82-95.33c.4-1.5-.51-3.03-2.02-3.43-1.52-.39-3.07.5-3.47 2-.4 1.49.5 3.03 2.02 3.42 1.51.4 3.07-.5 3.47-1.99z"/><path d="M1498.2 1568.62a2.9 2.9 0 0 1 1.65-.41c.58.02 1.14.22 1.61.56a2.96 2.96 0 0 1 1.01 1.36c.19.54.21 1.13.06 1.68a2.81 2.81 0 0 1-.9 1.43c-.44.38-.98.62-1.56.69s-1.16-.04-1.68-.3a2.87 2.87 0 0 1-1.22-1.17c-.36-.65-.46-1.41-.26-2.12.19-.72.65-1.33 1.29-1.72h0z" class="B"/><path d="M1499.86 1642.05a1.33 1.33 0 0 0 1.34-1.32 1.34 1.34 0 0 0-2.68 0 1.33 1.33 0 0 0 1.34 1.32zm-39.37-134.18a.66.66 0 0 0 .67-.66.67.67 0 0 0-.67-.66.67.67 0 0 0-.67.66.66.66 0 0 0 .67.66z"/><use xlink:href="#C" x="146.2" y="-205.47"/><use xlink:href="#D" x="510.47" y="305.97"/><use xlink:href="#C" x="258.74" y="-93.14"/><path d="M1371.88 1560.12a1.33 1.33 0 0 0 1.34-1.32 1.34 1.34 0 1 0-2.68 0 1.33 1.33 0 0 0 1.34 1.32z"/><use xlink:href="#B" x="451.56" y="-60.82"/><use xlink:href="#B" x="263.52" y="54.79"/><use xlink:href="#C" x="131.65" y="-99.6"/><path d="M1426.73 1567.83c1.57 0 2.84-1.25 2.84-2.8s-1.27-2.8-2.84-2.8-2.84 1.25-2.84 2.8 1.27 2.8 2.84 2.8zm29.04-11.2a1.34 1.34 0 0 0 1.34-1.33 1.33 1.33 0 0 0-1.34-1.32 1.33 1.33 0 0 0-1.34 1.32 1.34 1.34 0 0 0 1.34 1.33z"/><use xlink:href="#D" x="415.43" y="137.32"/><path d="M1418.57 1549.87c.08-.04.16-.07.25-.08.08-.01.17-.01.26.02.08.02.16.06.23.11a.86.86 0 0 1 .18.2.68.68 0 0 1 .08.24c.01.09 0 .18-.02.26s-.06.16-.11.23c-.06.07-.13.13-.2.17-.16.09-.34.11-.51.07-.17-.05-.32-.16-.41-.31a.65.65 0 0 1-.06-.51c.04-.16.15-.31.31-.4h0z" class="B"/><path d="M1433.4 1554.26a.67.67 0 0 0 .66-.67c0-.36-.3-.66-.66-.66a.67.67 0 0 0-.67.66.67.67 0 0 0 .67.67z"/><path d="M1411.74 1559.47a1.35 1.35 0 0 1 1.02-.14c.34.09.64.31.82.62.18.3.23.66.14 1s-.32.63-.62.81a1.4 1.4 0 0 1-.5.16c-.17.03-.35.02-.52-.03a1.35 1.35 0 0 1-.47-.22c-.14-.11-.26-.24-.35-.39a1.58 1.58 0 0 1-.17-.49c-.02-.17-.01-.34.04-.51a1.35 1.35 0 0 1 .22-.47 1.59 1.59 0 0 1 .39-.34h0zm41.65 172.52a2.97 2.97 0 0 1 1.65-.42c.58.02 1.14.22 1.61.56a2.86 2.86 0 0 1 1.01 1.36 2.83 2.83 0 0 1 .07 1.68c-.15.55-.46 1.05-.9 1.43a2.92 2.92 0 0 1-1.55.69c-.58.07-1.17-.03-1.68-.29-.52-.26-.95-.67-1.23-1.17a2.85 2.85 0 0 1-.27-2.12c.19-.71.65-1.33 1.29-1.72h0z" class="B"/><path d="M1480.62 1655.58c1.57 0 2.84-1.25 2.84-2.8s-1.27-2.8-2.84-2.8c-1.56 0-2.83 1.25-2.83 2.8s1.27 2.8 2.83 2.8zm-493.951-34.6c1.567 0 2.837-1.25 2.837-2.8s-1.27-2.8-2.837-2.8-2.838 1.25-2.838 2.8 1.271 2.8 2.838 2.8z"/><path d="M1435.37 1766.84a2.12 2.12 0 0 1 1.18-.27c.41.02.81.17 1.14.41a2.21 2.21 0 0 1 .71.97c.13.38.15.8.05 1.19-.1.4-.32.75-.63 1.03-.3.27-.68.45-1.09.51s-.82 0-1.2-.17c-.37-.17-.68-.45-.9-.8-.15-.23-.25-.49-.29-.77-.05-.27-.03-.55.04-.82a2.04 2.04 0 0 1 .36-.74c.17-.22.39-.41.63-.54h0zm21.36-26.55a1.45 1.45 0 0 1 .49-.18c.18-.02.35-.01.52.03.17.05.33.12.47.23a1.26 1.26 0 0 1 .34.39c.09.15.15.32.17.49.03.17.02.35-.03.51-.04.17-.12.33-.23.47-.1.14-.24.25-.39.34a1.39 1.39 0 0 1-1.02.13c-.34-.09-.63-.32-.81-.62s-.22-.66-.13-1c.09-.33.32-.62.62-.79h0z" class="B"/><use xlink:href="#C" x="222.5" y="24.44"/><path d="M1527.58 1653.63a1.32 1.32 0 0 1 1.01-.14 1.34 1.34 0 0 1 .82.61c.18.31.23.67.14 1.01a1.28 1.28 0 0 1-.62.8c-.31.18-.67.22-1.02.13-.34-.09-.63-.31-.81-.62a1.15 1.15 0 0 1-.17-.48c-.03-.17-.02-.35.03-.51a1.11 1.11 0 0 1 .23-.46c.1-.14.24-.26.39-.34h0z" class="B"/><use xlink:href="#C" x="206.93" y="13.78"/><path d="M1447 1720.49a.67.67 0 0 0 .67-.67.67.67 0 0 0-.67-.66.67.67 0 0 0-.67.66.67.67 0 0 0 .67.67z"/><path d="M1407.83 1765.37c.16-.08.34-.1.51-.06.17.05.32.16.41.31a.67.67 0 0 1 .08.37c-.01.13-.05.26-.13.36a.66.66 0 0 1-.32.22.65.65 0 0 1-.39.01.63.63 0 0 1-.33-.2.75.75 0 0 1-.16-.35c-.01-.13.01-.26.07-.38.05-.11.15-.21.26-.28zm72.59 29.69c.16-.09.34-.11.51-.07.17.05.32.16.41.31.09.16.11.34.06.51-.04.17-.16.31-.31.4a.65.65 0 0 1-.51.06.64.64 0 0 1-.41-.31c-.09-.15-.11-.33-.06-.5.04-.17.16-.31.31-.4h0z" class="B"/><path d="M1461.49 1723.63a.66.66 0 0 0 .67-.66.67.67 0 0 0-.67-.66.67.67 0 0 0-.67.66.66.66 0 0 0 .67.66z"/><path d="M1439.84 1728.85c.31-.18.67-.23 1.02-.14a1.35 1.35 0 0 1 .81.61c.18.31.23.67.14 1.01a1.28 1.28 0 0 1-.62.8c-.15.09-.32.15-.49.17-.17.03-.35.01-.52-.03s-.33-.12-.47-.23c-.14-.1-.26-.23-.35-.38s-.15-.32-.17-.49a1.45 1.45 0 0 1 .03-.51c.05-.17.12-.33.23-.47s.24-.25.39-.34h0zm-88.1-23.82a1.24 1.24 0 0 1 .5-.17c.17-.03.35-.02.52.03a1.35 1.35 0 0 1 .47.22 1.26 1.26 0 0 1 .34.39 1.3 1.3 0 0 1 .13 1c-.09.34-.31.63-.62.81-.15.09-.32.15-.49.17-.17.03-.35.02-.52-.03-.17-.04-.33-.12-.47-.23a1.24 1.24 0 0 1-.34-.38c-.09-.15-.15-.32-.17-.49a1.52 1.52 0 0 1 .03-.52c.05-.17.12-.32.23-.46a1.26 1.26 0 0 1 .39-.34h0zm117.86 76.92c.15-.08.32-.14.49-.16.17-.03.35-.02.52.03a1.35 1.35 0 0 1 .47.22c.14.11.26.24.35.39.17.3.22.67.13 1a1.38 1.38 0 0 1-.63.81 1.38 1.38 0 0 1-.98.09c-.33-.1-.61-.32-.78-.61s-.22-.64-.14-.97a1.35 1.35 0 0 1 .57-.8h0z" class="B"/></g><g fill="#604f72"><path d="M1375.51 111.929c.62-.626 1.41-1.056 2.27-1.235a4.47 4.47 0 0 1 2.58.23c.82.329 1.52.892 2.02 1.616.49.725.75 1.578.75 2.452a4.38 4.38 0 0 1-.75 2.452c-.5.724-1.2 1.287-2.02 1.616a4.47 4.47 0 0 1-2.58.23c-.86-.179-1.65-.609-2.27-1.235-.8-.82-1.26-1.919-1.26-3.063s.46-2.243 1.26-3.063h0zm-12.98 63.67a3.19 3.19 0 0 0 1.64.914 3.24 3.24 0 0 0 1.88-.154c.6-.236 1.11-.644 1.47-1.171s.56-1.149.56-1.785-.2-1.258-.56-1.785a3.2 3.2 0 0 0-1.47-1.171 3.24 3.24 0 0 0-1.88-.154c-.63.135-1.2.454-1.64.915-.58.589-.9 1.376-.9 2.195a3.13 3.13 0 0 0 .9 2.196h0zm-50.05-145.298c.29.284.66.477 1.06.555s.81.036 1.19-.119c.37-.155.69-.417.92-.752a2 2 0 0 0 0-2.266c-.23-.335-.55-.597-.92-.752-.38-.155-.79-.196-1.19-.119s-.77.271-1.06.555c-.2.19-.35.416-.45.664a1.93 1.93 0 0 0-.16.785 1.93 1.93 0 0 0 .16.785c.1.249.25.474.45.664h0zm71.33 95.614a2.08 2.08 0 0 0 1.06.554c.4.078.81.036 1.19-.119a1.99 1.99 0 0 0 .92-.752c.23-.335.35-.729.35-1.132s-.12-.798-.35-1.133c-.22-.336-.54-.597-.92-.752s-.79-.197-1.19-.119a2.07 2.07 0 0 0-1.06.555c-.19.188-.35.413-.46.662a2.12 2.12 0 0 0-.16.787c0 .27.06.537.16.786a2.19 2.19 0 0 0 .46.663h0zm32.85-35.436c.29.284.66.477 1.06.555s.81.036 1.19-.119a2 2 0 0 0 1.27-1.885 2 2 0 0 0-1.27-1.885c-.38-.155-.79-.196-1.19-.119s-.77.271-1.06.555c-.38.386-.6.907-.6 1.449s.22 1.063.6 1.449h0zm-27.52-9.88c.29.287.66.483 1.06.563a2.07 2.07 0 0 0 1.19-.113c.38-.154.7-.416.93-.752a2.01 2.01 0 0 0 0-2.272c-.23-.336-.55-.598-.93-.752a2.07 2.07 0 0 0-1.19-.114 2.09 2.09 0 0 0-1.06.563c-.2.187-.36.413-.47.664s-.17.522-.17.796.06.545.17.796.27.477.47.664V80.6zm-28.85 16.291c.14.146.33.245.53.286a1.04 1.04 0 0 0 .6-.056c.2-.078.36-.21.48-.38a1.06 1.06 0 0 0 0-1.15c-.12-.17-.28-.302-.48-.38a1.04 1.04 0 0 0-.6-.056c-.2.041-.39.141-.53.287-.1.101-.18.22-.23.351s-.07.27-.06.41c0 .14.04.276.1.402a1.1 1.1 0 0 0 .25.33l-.06-.044zm80.74 100.268c.15.146.33.246.54.287.2.041.41.021.6-.056s.36-.21.47-.38a.99.99 0 0 0 .18-.575.99.99 0 0 0-.18-.575c-.11-.17-.28-.302-.47-.38s-.4-.097-.6-.056a1.06 1.06 0 0 0-.54.286c-.1.101-.17.22-.22.351s-.07.27-.07.41c.01.139.04.276.1.402a1.13 1.13 0 0 0 .26.33l-.07-.044zm-57.84-101.212a1.06 1.06 0 0 0 .73.297c.28 0 .54-.107.74-.297.1-.093.18-.205.23-.329a.91.91 0 0 0 0-.79c-.05-.125-.13-.237-.23-.329-.2-.156-.46-.234-.71-.219-.26.015-.5.122-.68.3a1.05 1.05 0 0 0-.3.668.99.99 0 0 0 .22.699h0zm-29.25 19.408c.29.284.66.477 1.06.555a2.09 2.09 0 0 0 1.19-.119c.37-.155.69-.417.92-.752a2 2 0 0 0 0-2.266c-.23-.335-.55-.597-.92-.752a2.08 2.08 0 0 0-2.25.436c-.19.197-.35.429-.45.684s-.15.527-.14.801c0 .274.07.544.18.794s.27.475.48.663l-.07-.044zm65.74 67.907a2.08 2.08 0 0 0 2.25.436c.37-.155.7-.417.92-.752a2 2 0 0 0 0-2.266c-.22-.335-.55-.597-.92-.752a2.09 2.09 0 0 0-1.19-.119c-.4.078-.77.271-1.06.555a2.07 2.07 0 0 0-.6 1.449c0 .542.22 1.063.6 1.449h0zm-49.94 87.49c.19.193.42.347.67.452a2.01 2.01 0 0 0 .79.159 1.96 1.96 0 0 0 .78-.159c.25-.105.48-.259.67-.452a2.03 2.03 0 0 0 .57-1.045c.08-.396.04-.808-.12-1.182a2.01 2.01 0 0 0-.76-.919c-.34-.225-.74-.345-1.14-.345-.41 0-.81.12-1.15.345a2.01 2.01 0 0 0-.76.919c-.16.374-.2.786-.12 1.182a2.03 2.03 0 0 0 .57 1.045zm152.08 15.654c.88.847 1.98 1.42 3.18 1.647 1.21.227 2.45.098 3.58-.371s2.09-1.256 2.77-2.265c.67-1.008 1.04-2.191 1.04-3.402a6.16 6.16 0 0 0-1.04-3.402 6.21 6.21 0 0 0-2.77-2.265c-1.13-.469-2.37-.598-3.58-.371-1.2.227-2.3.8-3.18 1.647-.59.57-1.06 1.25-1.39 2.001-.32.752-.49 1.559-.5 2.376 0 .817.15 1.627.47 2.384a6.15 6.15 0 0 0 1.35 2.021h.07zM966.636 7.863a4.45 4.45 0 0 0 2.271 1.235c.864.179 1.763.099 2.581-.23a4.43 4.43 0 0 0 2.011-1.616 4.36 4.36 0 0 0 .757-2.452 4.36 4.36 0 0 0-.757-2.452 4.43 4.43 0 0 0-2.011-1.616c-.818-.329-1.717-.409-2.581-.23a4.45 4.45 0 0 0-2.271 1.235c-.807.82-1.258 1.919-1.258 3.063s.451 2.243 1.258 3.063h0zm654.994 222.096a4.47 4.47 0 0 0 2.27 1.226c.87.177 1.76.095 2.58-.235s1.52-.892 2.01-1.616a4.37 4.37 0 0 0 .75-2.449c0-.872-.26-1.724-.75-2.448s-1.19-1.287-2.01-1.617-1.71-.411-2.58-.235c-.86.177-1.65.604-2.27 1.227a4.38 4.38 0 0 0-1.27 3.073c0 1.15.46 2.253 1.27 3.074h0zm-200.35-109.775c.61.626 1.4 1.056 2.27 1.235.86.179 1.76.099 2.58-.229a4.4 4.4 0 0 0 2.01-1.617c.49-.724.76-1.578.76-2.451s-.27-1.728-.76-2.452a4.39 4.39 0 0 0-2.01-1.616c-.82-.329-1.72-.409-2.58-.23-.87.179-1.66.609-2.27 1.235a4.34 4.34 0 0 0 0 6.147v-.022zm187.37 167.297c.45.445 1.02.749 1.65.872.62.123 1.27.06 1.86-.181a3.22 3.22 0 0 0 1.44-1.173c.35-.523.54-1.139.54-1.768s-.19-1.246-.54-1.769a3.22 3.22 0 0 0-1.44-1.173c-.59-.241-1.24-.304-1.86-.181-.63.123-1.2.427-1.65.872a3 3 0 0 0-.71 1.035c-.17.388-.25.805-.25 1.226s.08.839.25 1.227a3 3 0 0 0 .71 1.035v-.022zm25.79 62.418a3.24 3.24 0 0 0 1.64.915 3.25 3.25 0 0 0 1.88-.155c.6-.236 1.11-.644 1.47-1.171a3.17 3.17 0 0 0 .56-1.785c0-.636-.2-1.258-.56-1.784a3.2 3.2 0 0 0-1.47-1.172 3.24 3.24 0 0 0-1.88-.154c-.62.135-1.2.454-1.64.915-.58.59-.91 1.382-.91 2.206s.33 1.616.91 2.207v-.022zm-123.61-81.497c.3.299.66.536 1.05.698s.82.245 1.24.245c.43 0 .85-.083 1.24-.245s.75-.399 1.05-.698a3.26 3.26 0 0 0 .89-1.641c.12-.622.06-1.267-.18-1.854-.25-.587-.66-1.088-1.2-1.441-.53-.353-1.16-.541-1.8-.541s-1.27.188-1.8.541-.95.854-1.19 1.441c-.25.587-.31 1.232-.19 1.854a3.26 3.26 0 0 0 .89 1.641h0zm-187.1 117.086a3.25 3.25 0 0 0 1.65.863 3.24 3.24 0 0 0 1.85-.186 3.18 3.18 0 0 0 1.44-1.173 3.1 3.1 0 0 0 .54-1.766 3.1 3.1 0 0 0-.54-1.765 3.18 3.18 0 0 0-1.44-1.173c-.58-.242-1.23-.307-1.85-.186s-1.2.421-1.65.863a3.36 3.36 0 0 0-.71 1.042 3.24 3.24 0 0 0-.24 1.23 3.24 3.24 0 0 0 .24 1.231 3.36 3.36 0 0 0 .71 1.042v-.022zm234.87-243.305c.29.287.65.483 1.06.563.4.081.81.041 1.19-.113s.7-.416.93-.752.35-.731.35-1.136a2.01 2.01 0 0 0-.35-1.136c-.23-.336-.55-.598-.93-.752a2.07 2.07 0 0 0-1.19-.113c-.41.08-.77.276-1.06.563-.2.186-.35.41-.46.657-.1.247-.16.513-.16.781a2.09 2.09 0 0 0 .16.781c.11.247.26.471.46.657h0zm71.33 95.636a2.1 2.1 0 0 0 1.47.6c.55 0 1.07-.216 1.46-.6s.61-.906.61-1.449-.22-1.065-.61-1.449a2.06 2.06 0 0 0-.67-.444 2.08 2.08 0 0 0-1.58 0 2.1 2.1 0 0 0-.68.444c-.19.19-.34.416-.45.665a2.1 2.1 0 0 0-.15.784 2.1 2.1 0 0 0 .15.784c.11.249.26.475.45.665h0zm-103.38 26.499a2.07 2.07 0 0 0 1.46.601c.55 0 1.08-.216 1.47-.601s.61-.905.61-1.449-.22-1.064-.61-1.449c-.19-.193-.42-.348-.67-.453a2.06 2.06 0 0 0-.8-.159c-.27 0-.54.054-.79.159s-.48.26-.67.453c-.39.387-.6.907-.6 1.449a2.03 2.03 0 0 0 .6 1.449h0zm-589.012 16.62a2.1 2.1 0 0 0 2.93 0 2.05 2.05 0 0 0 .601-1.449c0-.542-.216-1.063-.601-1.449s-.917-.594-1.465-.594a2.1 2.1 0 0 0-1.465.594 2.05 2.05 0 0 0 0 2.898h0zm62.922-15.214a2.06 2.06 0 0 0 .67.451 1.96 1.96 0 0 0 .78.16 2.01 2.01 0 0 0 .79-.16 2.06 2.06 0 0 0 .67-.451 2.03 2.03 0 0 0 .57-1.046c.08-.396.04-.808-.12-1.182-.15-.374-.42-.693-.76-.918s-.74-.346-1.15-.346a2.07 2.07 0 0 0-1.14.346c-.34.225-.61.544-.76.918a1.99 1.99 0 0 0-.118 1.182c.081.397.278.761.568 1.046zm662.26-63.275c.28.288.65.484 1.05.564s.82.04 1.2-.114c.37-.154.7-.415.93-.752.22-.336.34-.731.34-1.136a2.08 2.08 0 0 0-.34-1.136c-.23-.336-.56-.597-.93-.752-.38-.154-.8-.193-1.2-.113s-.77.276-1.05.563c-.2.188-.35.412-.45.659-.11.247-.16.512-.16.779a1.91 1.91 0 0 0 .16.78 1.84 1.84 0 0 0 .45.658zM1115.34 10.344c.29.284.66.477 1.06.555s.81.036 1.19-.119a2 2 0 0 0 .92-.752 2 2 0 0 0 0-2.266 2 2 0 0 0-.92-.752c-.38-.155-.79-.196-1.19-.119s-.77.271-1.06.555a2.18 2.18 0 0 0-.45.664c-.1.249-.16.515-.16.785s.06.536.16.785a2.18 2.18 0 0 0 .45.664h0zm519.92 182.226a2.08 2.08 0 0 0 2.25.436c.37-.155.7-.417.92-.752a2 2 0 0 0 .35-1.133c0-.404-.12-.798-.35-1.133-.22-.336-.55-.597-.92-.752-.38-.155-.79-.197-1.19-.119s-.77.271-1.06.555a1.99 1.99 0 0 0-.45.658c-.1.247-.16.512-.16.78s.06.532.16.779.26.471.45.659v.022zm-184.06 30.166a1.98 1.98 0 0 0 .67.515 2.08 2.08 0 0 0 .82.203 2.05 2.05 0 0 0 .84-.143 2.03 2.03 0 0 0 .71-.464c.2-.202.36-.443.46-.708s.15-.548.13-.831c-.01-.283-.09-.56-.22-.813a2.07 2.07 0 0 0-1.99-1.257c-.55 0-1.08.215-1.47.6s-.6.905-.6 1.449.21 1.064.6 1.449h.05zm155.36-13.898c.2.191.46.297.73.297a1.06 1.06 0 0 0 .74-.297 1.09 1.09 0 0 0 .22-.699 1.06 1.06 0 0 0-.31-.668 1.04 1.04 0 0 0-.67-.301 1.05 1.05 0 0 0-.71.219c-.2.182-.33.435-.34.707a1.01 1.01 0 0 0 .25.742h.09zm-163.4 33.13c.15.146.33.246.54.287.2.041.41.021.6-.056s.36-.21.47-.38a.99.99 0 0 0 .18-.575.99.99 0 0 0-.18-.575c-.11-.17-.28-.302-.47-.38s-.4-.097-.6-.056a1.06 1.06 0 0 0-.54.286c-.19.193-.3.454-.3.725s.11.531.3.724h0zm28.37-18.749c.14.146.33.245.53.286s.41.022.61-.056c.19-.078.35-.21.47-.38a1.06 1.06 0 0 0 0-1.149 1.07 1.07 0 0 0-.47-.38c-.2-.078-.41-.098-.61-.057s-.39.141-.53.287c-.1.096-.19.212-.24.34a.96.96 0 0 0-.09.406c0 .14.03.278.09.406.05.129.14.244.24.341v-.044zm215.6 85.887c.14.146.33.246.53.287a1.07 1.07 0 0 0 .61-.056c.19-.078.35-.21.47-.38a1.07 1.07 0 0 0 .18-.575 1.07 1.07 0 0 0-.18-.575c-.12-.17-.28-.302-.47-.38a1.07 1.07 0 0 0-.61-.056 1.03 1.03 0 0 0-.53.286 1.04 1.04 0 0 0-.3.725c0 .271.11.531.3.724h0zm1.04 71.793c.15.146.33.246.54.287.2.041.41.021.6-.057s.36-.21.47-.38a.99.99 0 0 0 .18-.574.99.99 0 0 0-.18-.575c-.11-.17-.28-.302-.47-.38s-.4-.097-.6-.056c-.21.041-.39.14-.54.286-.09.098-.17.215-.21.343-.05.128-.07.265-.06.401 0 .136.04.269.1.39.07.122.15.229.26.315h-.09zm-39.46 1.032c.15.146.33.245.53.286a1.06 1.06 0 0 0 .61-.056 1.07 1.07 0 0 0 .65-.955 1.07 1.07 0 0 0-.65-.954 1.06 1.06 0 0 0-.61-.056c-.2.04-.38.14-.53.286a1.06 1.06 0 0 0-.26.743c.02.271.14.525.35.706h-.09zm-1.02-13.458c.09.114.2.208.34.276a1.03 1.03 0 0 0 .42.116c.14.008.29-.014.43-.066s.26-.132.37-.235a1.04 1.04 0 0 0 .23-.363.9.9 0 0 0 .07-.428c-.01-.145-.05-.287-.12-.417a.9.9 0 0 0-.28-.332.91.91 0 0 0-.33-.234.97.97 0 0 0-.4-.083c-.14 0-.27.028-.4.083-.12.054-.24.134-.33.234a1.06 1.06 0 0 0-.26.742 1.03 1.03 0 0 0 .35.707h-.09zm-128.58-92.738c.2.19.46.297.74.297a1.06 1.06 0 0 0 .73-.297c.1-.092.18-.205.23-.329a.91.91 0 0 0 0-.791c-.05-.124-.13-.237-.23-.329-.09-.115-.21-.209-.34-.276a1.03 1.03 0 0 0-.42-.116 1.05 1.05 0 0 0-.43.065c-.14.052-.26.132-.37.235a1.24 1.24 0 0 0-.24.364c-.05.136-.07.282-.06.427s.05.288.11.417c.07.129.17.243.28.333h0zm110.31-67.841a1.02 1.02 0 0 0 .72.295c.27 0 .53-.106.73-.295a.91.91 0 0 0 .32-.724c0-.136-.03-.271-.09-.396-.05-.124-.13-.236-.23-.329-.2-.189-.46-.295-.73-.295a1.02 1.02 0 0 0-.72.295c-.1.093-.18.205-.23.329-.06.125-.09.26-.09.396a.91.91 0 0 0 .32.724h0zm-117.01 52.692c.15.146.33.246.53.287a1.06 1.06 0 0 0 .61-.057 1.07 1.07 0 0 0 .47-.38.99.99 0 0 0 .18-.574.99.99 0 0 0-.18-.575c-.12-.17-.28-.302-.47-.38a1.06 1.06 0 0 0-.61-.056c-.2.041-.38.14-.53.286a.99.99 0 0 0-.28.687c0 .256.09.504.26.696l.02.066zm87.74-33.218c.19.191.42.342.67.445a2.1 2.1 0 0 0 .79.156 2.19 2.19 0 0 0 .8-.156c.25-.103.47-.254.67-.445.19-.19.34-.416.45-.665a2.1 2.1 0 0 0 .15-.784 2.1 2.1 0 0 0-.15-.784c-.11-.249-.26-.474-.45-.665a2.05 2.05 0 0 0-.67-.453 2.06 2.06 0 0 0-.8-.159c-.27 0-.54.054-.79.159a2.05 2.05 0 0 0-.67.453c-.37.38-.58.885-.58 1.412-.01.526.19 1.035.56 1.42l.02.066zm-126.23 32.933a2.05 2.05 0 0 0 .67.453c.26.105.53.159.8.159s.54-.054.79-.159a1.95 1.95 0 0 0 .67-.453c.39-.385.61-.906.61-1.449s-.22-1.065-.61-1.449c-.38-.385-.91-.601-1.46-.601s-1.08.216-1.47.601c-.37.374-.58.876-.58 1.4-.01.525.2 1.03.56 1.41l.02.088zm27.42 2.041c.28.288.65.484 1.05.564s.82.04 1.2-.114a2.12 2.12 0 0 0 .93-.751 2.08 2.08 0 0 0 0-2.273 2.12 2.12 0 0 0-.93-.751 2.1 2.1 0 0 0-1.2-.114c-.4.08-.77.276-1.05.563-.37.373-.58.871-.58 1.39s.19 1.02.55 1.399l.03.087zm164.48 32.933c.29.287.66.483 1.06.563s.82.041 1.19-.113c.38-.154.71-.416.93-.752a2.01 2.01 0 0 0 .35-1.136c0-.405-.12-.8-.35-1.136-.22-.336-.55-.598-.93-.752-.37-.154-.79-.194-1.19-.114a2.1 2.1 0 0 0-1.06.564c-.35.37-.55.859-.55 1.368-.01.508.18 1 .53 1.376l.02.132zm-574.34-125.143a2.08 2.08 0 0 0 2.25.436 2 2 0 0 0 1.27-1.885 2 2 0 0 0-.35-1.133c-.22-.336-.54-.597-.92-.752a2.09 2.09 0 0 0-1.19-.119c-.4.078-.77.271-1.06.555a2.07 2.07 0 0 0-.59 1.411 2.04 2.04 0 0 0 .57 1.421l.02.066zm-51.76 188.329c.29.284.66.477 1.06.555s.82.036 1.19-.119a2.08 2.08 0 0 0 .93-.752 2.07 2.07 0 0 0 0-2.266 2.08 2.08 0 0 0-.93-.752c-.37-.155-.79-.196-1.19-.118a2.08 2.08 0 0 0-1.06.554c-.38.386-.6.907-.6 1.449s.22 1.063.6 1.449h0zm538.14 9.704c.29.284.66.477 1.06.555s.82.036 1.19-.119c.38-.155.7-.416.93-.752a2.07 2.07 0 0 0 0-2.266 2.08 2.08 0 0 0-.93-.752c-.37-.155-.79-.196-1.19-.118a2.08 2.08 0 0 0-1.06.554 1.99 1.99 0 0 0-.45.663c-.11.249-.17.516-.17.786a1.95 1.95 0 0 0 .17.787c.1.249.26.474.45.662h0zm-457.79-216.388c.29.288.66.484 1.06.564s.81.04 1.19-.114a2.06 2.06 0 0 0 .93-.752c.23-.336.35-.731.35-1.136a2.01 2.01 0 0 0-.35-1.136c-.23-.336-.55-.597-.93-.752a2.07 2.07 0 0 0-1.19-.113c-.4.08-.77.276-1.06.563-.2.187-.35.41-.46.657-.1.247-.16.513-.16.781s.06.535.16.782a1.99 1.99 0 0 0 .46.656h0zm495.72 230.879a2.08 2.08 0 0 0 1.06.554c.4.078.82.036 1.19-.119.38-.155.7-.416.93-.752.22-.335.34-.729.34-1.133s-.12-.797-.34-1.132c-.23-.336-.55-.597-.93-.752-.37-.155-.79-.197-1.19-.119a2.08 2.08 0 0 0-1.06.554 2 2 0 0 0-.45.663c-.11.249-.16.516-.16.786s.05.538.16.787a2 2 0 0 0 .45.663h0zm-409.96-120.401c.29.287.66.483 1.06.563a2.07 2.07 0 0 0 1.19-.113c.38-.155.7-.416.93-.752a2.01 2.01 0 0 0 .35-1.136c0-.405-.12-.8-.35-1.136a2.06 2.06 0 0 0-.93-.752c-.38-.154-.79-.194-1.19-.114s-.77.276-1.06.564c-.19.186-.35.409-.46.656-.1.247-.16.513-.16.782s.06.534.16.781c.11.247.27.47.46.657h0zm327.24 55.26a2.05 2.05 0 0 0 .67.453c.26.106.53.16.8.16a2.03 2.03 0 0 0 .79-.16 1.95 1.95 0 0 0 .67-.453c.29-.286.49-.65.56-1.045.08-.396.04-.806-.12-1.178-.15-.372-.42-.69-.76-.914-.33-.224-.73-.343-1.14-.343a2.09 2.09 0 0 0-1.15.343c-.34.224-.6.542-.76.914-.15.372-.19.782-.12 1.178a2.1 2.1 0 0 0 .56 1.045z"/><path d="M439.215 639.18c.616-.626 1.407-1.056 2.271-1.235s1.763-.099 2.581.23 1.518.891 2.012 1.616a4.36 4.36 0 0 1 0 4.904 4.44 4.44 0 0 1-2.012 1.616c-.818.329-1.717.409-2.581.23s-1.655-.609-2.271-1.235c-.807-.82-1.258-1.919-1.258-3.063s.451-2.243 1.258-3.063h0zm-12.984 63.67a3.23 3.23 0 0 0 1.645.914 3.25 3.25 0 0 0 1.881-.154c.597-.236 1.109-.644 1.469-1.171a3.16 3.16 0 0 0 0-3.57 3.21 3.21 0 0 0-1.469-1.171 3.25 3.25 0 0 0-1.881-.154c-.628.135-1.201.454-1.645.915a3.14 3.14 0 0 0-.896 2.195c0 .819.321 1.606.896 2.196h0zm-50.05-145.298a2.07 2.07 0 0 0 1.057.554 2.08 2.08 0 0 0 1.191-.118c.376-.155.698-.417.924-.752a2.03 2.03 0 0 0 .347-1.133c0-.403-.121-.798-.347-1.133s-.548-.597-.924-.752a2.09 2.09 0 0 0-1.191-.119 2.08 2.08 0 0 0-1.057.555c-.193.19-.346.415-.451.664s-.159.515-.159.785a2.02 2.02 0 0 0 .159.785 2.06 2.06 0 0 0 .451.664h0zm71.335 95.614c.289.284.657.477 1.057.554s.814.036 1.191-.119a2.06 2.06 0 0 0 .924-.752c.226-.335.346-.729.346-1.132s-.12-.798-.346-1.133a2.06 2.06 0 0 0-.924-.752c-.377-.155-.791-.197-1.191-.119s-.768.27-1.057.554a2.02 2.02 0 0 0-.458.663 1.99 1.99 0 0 0 0 1.573 2.02 2.02 0 0 0 .458.663h0zm32.849-35.436c.289.284.657.477 1.057.555a2.09 2.09 0 0 0 1.19-.119 2.05 2.05 0 0 0 .924-.752c.226-.335.347-.73.347-1.133a2.03 2.03 0 0 0-.347-1.133 2.06 2.06 0 0 0-.924-.752 2.08 2.08 0 0 0-1.19-.118c-.4.077-.768.27-1.057.554-.385.386-.601.907-.601 1.449a2.05 2.05 0 0 0 .601 1.449h0zm-27.522-9.879c.288.287.656.483 1.056.563s.817.04 1.195-.114.702-.415.929-.751.349-.732.349-1.136-.121-.8-.349-1.137-.551-.597-.929-.751-.794-.194-1.195-.114-.768.276-1.056.563c-.202.187-.364.413-.474.665a1.98 1.98 0 0 0-.167.795c0 .274.057.545.167.796a1.99 1.99 0 0 0 .474.664v-.043zm-28.854 16.29a1.05 1.05 0 0 0 1.139.23c.191-.077.355-.21.47-.38a1.02 1.02 0 0 0 0-1.149c-.115-.17-.279-.302-.47-.38a1.05 1.05 0 0 0-.605-.056c-.203.041-.388.14-.534.286a1.03 1.03 0 0 0-.224.351 1.04 1.04 0 0 0-.066.41 1.01 1.01 0 0 0 .103.402 1.02 1.02 0 0 0 .254.33l-.067-.044zm80.746 100.268c.145.146.331.246.534.287a1.05 1.05 0 0 0 .604-.057 1.03 1.03 0 0 0 .648-.954c0-.205-.062-.405-.177-.575a1.04 1.04 0 0 0-.471-.38 1.05 1.05 0 0 0-1.138.23 1.03 1.03 0 0 0-.224.351c-.05.131-.073.27-.066.41s.041.276.102.402.148.238.254.33l-.066-.044zm-57.84-101.212a1.05 1.05 0 0 0 1.464 0 .99.99 0 0 0 .237-.329.98.98 0 0 0 .083-.395c0-.136-.028-.271-.083-.396a1 1 0 0 0-.237-.329 1.05 1.05 0 0 0-1.382.081c-.181.179-.289.417-.304.669s.064.501.222.699h0zm-29.253 19.408c.289.284.657.477 1.057.555a2.09 2.09 0 0 0 1.19-.119c.376-.155.698-.417.924-.752s.347-.73.347-1.133a2.03 2.03 0 0 0-.347-1.133c-.226-.335-.548-.597-.924-.752a2.08 2.08 0 0 0-1.19-.118c-.4.077-.768.27-1.057.554-.193.197-.345.429-.446.684s-.151.527-.144.801.067.544.18.794a2.07 2.07 0 0 0 .476.663l-.066-.044zm65.741 67.907c.289.284.657.477 1.057.554s.814.037 1.191-.118.698-.417.924-.752a2.03 2.03 0 0 0 .346-1.133c0-.403-.12-.798-.346-1.133s-.548-.597-.924-.752a2.09 2.09 0 0 0-1.191-.119c-.4.078-.768.271-1.057.555a2.05 2.05 0 0 0-.601 1.449c0 .542.216 1.063.601 1.449h0zm-49.939 87.49a2.04 2.04 0 0 0 1.454.611 2.04 2.04 0 0 0 .79-.159 2.02 2.02 0 0 0 .664-.452c.29-.285.488-.648.569-1.045s.041-.808-.114-1.182-.421-.694-.76-.919-.74-.345-1.149-.345a2.08 2.08 0 0 0-1.148.345 2.04 2.04 0 0 0-.76.919 2.02 2.02 0 0 0-.115 1.182c.081.397.279.76.569 1.045zm152.08 15.654c.875.847 1.982 1.42 3.184 1.647s2.445.098 3.573-.371a6.19 6.19 0 0 0 2.769-2.265 6.1 6.1 0 0 0 0-6.804 6.2 6.2 0 0 0-2.769-2.265c-1.128-.469-2.371-.598-3.573-.371s-2.309.8-3.184 1.647c-.592.57-1.064 1.25-1.388 2.001s-.495 1.559-.501 2.376a6.12 6.12 0 0 0 .465 2.384c.313.756.774 1.443 1.358 2.021h.066zM30.339 535.114a4.45 4.45 0 0 0 2.271 1.235c.864.179 1.763.099 2.581-.23a4.43 4.43 0 0 0 2.012-1.616c.493-.725.756-1.578.756-2.452a4.36 4.36 0 0 0-.756-2.452c-.493-.724-1.194-1.287-2.012-1.616s-1.717-.409-2.581-.23a4.45 4.45 0 0 0-2.271 1.235c-.807.82-1.258 1.919-1.258 3.063s.451 2.243 1.258 3.063h0zM685.335 757.21a4.45 4.45 0 0 0 2.272 1.226 4.48 4.48 0 0 0 2.577-.235c.816-.329 1.514-.892 2.006-1.616s.754-1.577.754-2.449-.262-1.724-.754-2.448-1.19-1.287-2.006-1.617a4.49 4.49 0 0 0-2.577-.235 4.46 4.46 0 0 0-2.272 1.227c-.813.82-1.269 1.924-1.269 3.073a4.37 4.37 0 0 0 1.269 3.074h0zM484.981 647.435c.616.626 1.407 1.056 2.271 1.235a4.49 4.49 0 0 0 2.581-.229 4.43 4.43 0 0 0 2.012-1.617c.493-.724.756-1.578.756-2.451s-.263-1.728-.756-2.452-1.194-1.288-2.012-1.616-1.717-.409-2.581-.23-1.655.609-2.271 1.235a4.37 4.37 0 0 0-1.269 3.074c0 1.149.456 2.252 1.269 3.073v-.022zm187.37 167.297c.45.445 1.024.749 1.648.872a3.25 3.25 0 0 0 1.86-.181c.588-.241 1.091-.649 1.444-1.173s.543-1.139.543-1.769-.189-1.245-.543-1.768-.856-.932-1.444-1.173a3.25 3.25 0 0 0-1.86-.181c-.624.123-1.198.427-1.648.872-.304.295-.547.646-.712 1.035s-.25.805-.25 1.226.085.839.25 1.227.408.74.712 1.035v-.022zm25.791 62.418a3.23 3.23 0 0 0 1.645.915 3.26 3.26 0 0 0 1.881-.155c.597-.236 1.109-.644 1.469-1.171a3.16 3.16 0 0 0 .554-1.785c0-.636-.193-1.258-.554-1.784s-.872-.935-1.469-1.172a3.25 3.25 0 0 0-1.881-.154c-.629.135-1.202.454-1.645.915a3.14 3.14 0 0 0-.907 2.206c0 .825.325 1.616.907 2.207v-.022zm-123.604-81.497a3.21 3.21 0 0 0 1.048.698 3.26 3.26 0 0 0 2.476 0 3.21 3.21 0 0 0 1.048-.698c.455-.448.765-1.019.891-1.641s.063-1.267-.182-1.854-.66-1.088-1.193-1.441-1.16-.541-1.802-.541-1.269.188-1.802.541-.948.854-1.193 1.441-.308 1.232-.182 1.854.436 1.193.891 1.641h0zM387.434 912.739c.451.442 1.025.742 1.648.863s1.269.055 1.856-.186a3.21 3.21 0 0 0 1.439-1.173c.353-.523.541-1.137.541-1.766s-.188-1.242-.541-1.765a3.21 3.21 0 0 0-1.439-1.173c-.587-.242-1.232-.307-1.856-.186a3.23 3.23 0 0 0-1.648.863 3.22 3.22 0 0 0-.707 1.042 3.19 3.19 0 0 0 0 2.461 3.22 3.22 0 0 0 .707 1.042v-.022zm234.868-243.305a2.07 2.07 0 0 0 1.056.563 2.08 2.08 0 0 0 1.195-.113c.378-.154.701-.416.929-.752a2.02 2.02 0 0 0 .349-1.136c0-.404-.121-.8-.349-1.136s-.551-.598-.929-.752-.794-.193-1.195-.113a2.07 2.07 0 0 0-1.056.563c-.196.186-.351.41-.457.657a1.98 1.98 0 0 0 0 1.562c.106.247.261.471.457.657h0zm71.334 95.636c.389.384.916.6 1.465.6s1.076-.216 1.465-.6a2.04 2.04 0 0 0 0-2.898 2.06 2.06 0 0 0-.672-.444 2.09 2.09 0 0 0-.793-.156c-.272 0-.541.053-.793.156a2.07 2.07 0 0 0-.672.444c-.192.19-.345.416-.449.665a2.03 2.03 0 0 0-.158.784c0 .269.054.535.158.784s.257.475.449.665h0zm-103.384 26.499a2.08 2.08 0 0 0 1.465.601c.549 0 1.076-.216 1.465-.601a2.04 2.04 0 0 0 0-2.898c-.191-.193-.418-.348-.67-.453s-.522-.159-.795-.159-.544.054-.795.159-.48.26-.67.453c-.385.387-.601.907-.601 1.449a2.05 2.05 0 0 0 .601 1.449h0zM1.241 808.189a2.1 2.1 0 0 0 2.93 0 2.05 2.05 0 0 0 .601-1.449c0-.542-.216-1.063-.601-1.449-.39-.381-.917-.594-1.465-.594s-1.074.213-1.465.594c-.385.386-.601.907-.601 1.449a2.05 2.05 0 0 0 .601 1.449h0zm62.923-15.214a2.02 2.02 0 0 0 .664.451 2.04 2.04 0 0 0 1.58 0 2.02 2.02 0 0 0 .664-.451c.29-.285.488-.649.569-1.046a2.02 2.02 0 0 0-.115-1.182 2.05 2.05 0 0 0-.76-.919 2.08 2.08 0 0 0-2.297 0 2.05 2.05 0 0 0-.76.919 2.02 2.02 0 0 0-.115 1.182c.081.397.279.761.569 1.046zM726.418 729.7c.288.288.656.484 1.057.564s.817.04 1.195-.114.701-.415.929-.752a2.03 2.03 0 0 0 0-2.272 2.07 2.07 0 0 0-.929-.752c-.378-.154-.794-.193-1.195-.113a2.07 2.07 0 0 0-1.057.563 2.04 2.04 0 0 0-.45.659 2.01 2.01 0 0 0 0 1.559c.105.247.258.471.45.658zM179.045 537.595a2.07 2.07 0 0 0 1.058.554 2.08 2.08 0 0 0 1.19-.118c.376-.155.698-.417.924-.752a2.03 2.03 0 0 0 .347-1.133c0-.403-.121-.798-.347-1.133s-.548-.597-.924-.752a2.09 2.09 0 0 0-1.19-.119 2.08 2.08 0 0 0-1.058.555c-.193.19-.346.415-.451.664s-.158.515-.158.785a2.02 2.02 0 0 0 .158.785 2.06 2.06 0 0 0 .451.664h0zm519.918 182.226c.289.284.657.477 1.057.554s.814.037 1.191-.118.697-.417.924-.753.346-.729.346-1.132-.12-.798-.346-1.133a2.06 2.06 0 0 0-.924-.752c-.377-.155-.791-.197-1.191-.119s-.768.271-1.057.555a2.02 2.02 0 0 0-.45.658 2.01 2.01 0 0 0 0 1.559c.105.247.257.471.45.659v.022zM514.9 749.987c.185.216.414.391.672.515a2.07 2.07 0 0 0 .825.203c.287.011.572-.038.838-.143a2.07 2.07 0 0 0 .709-.464c.201-.202.357-.444.459-.708s.146-.548.131-.831a2.01 2.01 0 0 0-.218-.813c-.129-.253-.31-.477-.531-.657a2.08 2.08 0 0 0-2.929 0c-.389.384-.607.905-.607 1.449a2.04 2.04 0 0 0 .607 1.449h.044zm155.365-13.898c.195.191.458.297.732.297s.538-.106.733-.297c.158-.198.236-.447.221-.699s-.123-.49-.303-.668a1.05 1.05 0 0 0-1.383-.082 1.03 1.03 0 0 0-.346.707c-.016.271.076.538.257.742h.089zm-163.4 33.13a1.05 1.05 0 0 0 .534.287 1.06 1.06 0 0 0 .605-.056 1.05 1.05 0 0 0 .471-.38 1.03 1.03 0 0 0 .176-.575c0-.205-.061-.405-.176-.575a1.05 1.05 0 0 0-1.076-.436 1.06 1.06 0 0 0-.534.286 1.03 1.03 0 0 0-.3.725c0 .271.108.531.3.724h0zm28.366-18.749c.145.146.331.245.533.286a1.05 1.05 0 0 0 .605-.056c.192-.078.355-.21.471-.38s.177-.37.177-.575a1.03 1.03 0 0 0-.177-.575c-.116-.17-.279-.302-.471-.379a1.05 1.05 0 0 0-.605-.057c-.202.041-.388.141-.533.287-.102.096-.184.212-.239.34a1.02 1.02 0 0 0-.084.406 1.01 1.01 0 0 0 .084.406c.055.129.137.244.239.341v-.044zm215.602 85.887c.145.146.331.246.534.287s.413.021.604-.056a1.04 1.04 0 0 0 .471-.38c.115-.17.177-.37.177-.575s-.062-.405-.177-.575a1.04 1.04 0 0 0-.471-.38c-.191-.077-.402-.097-.604-.056a1.05 1.05 0 0 0-.534.286c-.193.194-.301.454-.301.725s.108.531.301.724h0zm1.043 71.793c.145.146.331.246.534.287a1.05 1.05 0 0 0 .605-.057c.191-.077.355-.21.47-.38s.177-.37.177-.574-.062-.405-.177-.575-.279-.302-.47-.38a1.05 1.05 0 0 0-.605-.056 1.04 1.04 0 0 0-.534.286.98.98 0 0 0-.276.744.97.97 0 0 0 .108.39c.062.122.15.229.257.315h-.089zm-39.463 1.032c.146.146.331.245.534.286a1.05 1.05 0 0 0 .605-.056c.191-.077.355-.21.47-.38a1.02 1.02 0 0 0 0-1.149c-.115-.17-.279-.303-.47-.38a1.05 1.05 0 0 0-1.139.23 1.03 1.03 0 0 0 .089 1.449h-.089zm-1.021-13.458a1.05 1.05 0 0 0 .337.276c.13.068.274.107.421.116a1.06 1.06 0 0 0 .8-.301 1.03 1.03 0 0 0 .237-.363c.053-.136.075-.282.066-.428a1.01 1.01 0 0 0-.117-.417c-.068-.129-.163-.242-.279-.332-.093-.1-.207-.18-.333-.234a1 1 0 0 0-.799 0c-.126.054-.239.134-.333.234-.181.204-.273.471-.257.742a1.03 1.03 0 0 0 .346.707h-.089zm-128.575-92.738a1.05 1.05 0 0 0 .732.297c.274 0 .537-.107.733-.297a1.01 1.01 0 0 0 .236-.329.98.98 0 0 0 0-.791 1 1 0 0 0-.236-.329c-.092-.115-.206-.209-.337-.276a1.05 1.05 0 0 0-.421-.116 1.06 1.06 0 0 0-.433.065c-.138.052-.263.132-.367.235s-.185.227-.237.364a1.02 1.02 0 0 0-.067.427 1.03 1.03 0 0 0 .117.417c.069.129.164.243.28.333h0zm110.309-67.841c.191.189.451.295.721.295s.53-.106.721-.295a.98.98 0 0 0 .32-.724c0-.136-.028-.271-.083-.396a1 1 0 0 0-.237-.329c-.191-.189-.45-.295-.721-.295s-.53.106-.721.295a1 1 0 0 0-.237.329c-.055.125-.083.26-.083.396a.98.98 0 0 0 .32.724h0zm-117.012 52.692c.145.146.331.246.534.287a1.05 1.05 0 0 0 .604-.057c.192-.077.356-.21.471-.38s.177-.37.177-.574-.062-.405-.177-.575a1.04 1.04 0 0 0-.471-.38 1.05 1.05 0 0 0-.604-.056 1.04 1.04 0 0 0-.534.286c-.176.187-.276.432-.28.687a1.02 1.02 0 0 0 .258.696l.022.066zm87.737-33.218c.192.191.42.342.672.444s.52.156.792.156a2.09 2.09 0 0 0 .793-.156c.252-.102.48-.253.672-.444a2.03 2.03 0 0 0 .449-.665 2.01 2.01 0 0 0 .158-.784c0-.269-.053-.535-.158-.784a2.04 2.04 0 0 0-.449-.665c-.19-.194-.418-.348-.669-.453s-.522-.159-.796-.159-.543.054-.795.159-.479.259-.669.453a2.05 2.05 0 0 0-.023 2.832l.023.066zm-126.223 32.933c.19.194.418.348.669.453s.522.159.796.159.543-.054.795-.159.479-.259.669-.453a2.04 2.04 0 0 0 .607-1.449c0-.544-.218-1.065-.607-1.449a2.08 2.08 0 0 0-2.929 0c-.372.374-.582.876-.586 1.4a2.01 2.01 0 0 0 .563 1.41l.023.088zm27.41 2.041c.288.288.656.484 1.057.564s.817.04 1.195-.114.701-.415.929-.752a2.03 2.03 0 0 0 0-2.272 2.06 2.06 0 0 0-.929-.751 2.08 2.08 0 0 0-1.195-.114 2.07 2.07 0 0 0-1.057.563 2.01 2.01 0 0 0-.022 2.789l.022.087zm164.488 32.933a2.07 2.07 0 0 0 1.056.563c.401.08.817.041 1.195-.113a2.06 2.06 0 0 0 .929-.752c.228-.336.349-.732.349-1.136a2.02 2.02 0 0 0-.349-1.136 2.06 2.06 0 0 0-.929-.752c-.378-.154-.794-.194-1.195-.114s-.768.277-1.056.564c-.353.37-.551.859-.555 1.368a2.01 2.01 0 0 0 .532 1.376l.023.132zm-574.34-125.143c.289.284.657.477 1.057.554a2.08 2.08 0 0 0 1.19-.118 2.06 2.06 0 0 0 .924-.752 2.02 2.02 0 0 0 0-2.266 2.05 2.05 0 0 0-.924-.752 2.08 2.08 0 0 0-1.19-.119c-.4.078-.768.271-1.057.555a2.03 2.03 0 0 0-.588 1.411c-.005.528.198 1.038.566 1.421l.022.066zm-51.759 188.329c.289.284.657.477 1.057.555a2.09 2.09 0 0 0 1.191-.119c.376-.155.698-.417.924-.752a2.03 2.03 0 0 0 0-2.266c-.226-.335-.548-.597-.924-.752a2.09 2.09 0 0 0-1.191-.119c-.4.078-.768.271-1.057.555-.385.386-.601.907-.601 1.449s.216 1.063.601 1.449h0zm538.14 9.704c.289.284.657.477 1.057.555a2.09 2.09 0 0 0 1.19-.119 2.06 2.06 0 0 0 .924-.752c.226-.335.347-.73.347-1.133a2.03 2.03 0 0 0-.347-1.133 2.06 2.06 0 0 0-.924-.752 2.08 2.08 0 0 0-1.19-.118c-.4.077-.768.27-1.057.554a2.01 2.01 0 0 0-.458.663c-.107.248-.162.516-.162.786s.055.538.162.787.262.474.458.662h0zM183.773 679.028c.288.288.656.484 1.057.564s.816.04 1.194-.114.702-.415.929-.752a2.02 2.02 0 0 0 .349-1.136c0-.404-.121-.8-.349-1.136a2.06 2.06 0 0 0-.929-.752c-.378-.154-.794-.193-1.194-.113a2.07 2.07 0 0 0-1.057.563 2.01 2.01 0 0 0-.457.657 1.98 1.98 0 0 0-.161.781c0 .269.055.535.161.782s.262.47.457.656h0zm495.725 230.878a2.06 2.06 0 0 0 1.057.555c.4.078.814.036 1.191-.119a2.06 2.06 0 0 0 .924-.752c.226-.335.346-.729.346-1.133s-.12-.797-.346-1.132-.548-.598-.924-.752-.791-.197-1.191-.119-.768.27-1.057.554a2.02 2.02 0 0 0-.458.663 1.99 1.99 0 0 0 0 1.573c.106.249.262.474.458.662h0zm-409.964-120.4a2.07 2.07 0 0 0 1.057.563c.401.08.817.041 1.195-.113a2.07 2.07 0 0 0 .929-.752 2.03 2.03 0 0 0 0-2.272c-.228-.337-.551-.598-.929-.752s-.794-.194-1.195-.114-.769.276-1.057.564a1.99 1.99 0 0 0-.456.656c-.107.247-.161.513-.161.782s.054.534.161.781.261.47.456.657h0zm327.243 55.26a2.04 2.04 0 0 0 .67.453 2.05 2.05 0 0 0 .795.16c.273 0 .544-.054.795-.16a2.03 2.03 0 0 0 .67-.453 2.04 2.04 0 0 0 .561-1.045 2.03 2.03 0 0 0-.12-1.178 2.05 2.05 0 0 0-.761-.914c-.339-.224-.737-.343-1.145-.343a2.08 2.08 0 0 0-1.145.343c-.339.224-.604.542-.76.914s-.199.782-.12 1.178a2.03 2.03 0 0 0 .56 1.045z"/><path d="M1279.87 1011.24c.61-.62 1.4-1.05 2.27-1.23a4.47 4.47 0 0 1 2.58.23c.82.33 1.52.89 2.01 1.61a4.4 4.4 0 0 1 .76 2.45c0 .88-.27 1.73-.76 2.46-.49.72-1.19 1.28-2.01 1.61a4.47 4.47 0 0 1-2.58.23c-.87-.18-1.66-.61-2.27-1.23a4.36 4.36 0 0 1-1.26-3.07c0-1.14.45-2.24 1.26-3.06h0zm-12.99 63.67a3.31 3.31 0 0 0 1.65.92c.63.13 1.28.08 1.88-.16.6-.23 1.11-.64 1.47-1.17a3.17 3.17 0 0 0 .55-1.78c0-.64-.19-1.26-.55-1.79s-.87-.93-1.47-1.17a3.18 3.18 0 0 0-1.88-.15 3.22 3.22 0 0 0-1.65.91 3.17 3.17 0 0 0-.89 2.2c0 .81.32 1.6.89 2.19h0zm-50.05-145.297c.29.284.66.477 1.06.555s.82.036 1.19-.119c.38-.155.7-.416.93-.752a2.07 2.07 0 0 0 0-2.266 2.08 2.08 0 0 0-.93-.752c-.37-.155-.79-.196-1.19-.118a2.08 2.08 0 0 0-1.06.554 2.19 2.19 0 0 0-.45.664c-.1.249-.16.516-.16.785s.06.536.16.785c.11.249.26.475.45.664h0zm71.34 95.617c.29.28.66.47 1.06.55s.81.04 1.19-.12c.37-.15.69-.41.92-.75.23-.33.35-.73.35-1.13 0-.41-.12-.8-.35-1.13-.23-.34-.55-.6-.92-.76a2.2 2.2 0 0 0-1.19-.12c-.4.08-.77.27-1.06.56-.2.19-.35.41-.46.66a1.96 1.96 0 0 0-.16.79 1.88 1.88 0 0 0 .16.78c.11.25.26.48.46.67h0zm32.85-35.438a2.05 2.05 0 0 0 1.05.554c.4.078.82.037 1.19-.118a2.08 2.08 0 0 0 .93-.752c.22-.336.35-.73.35-1.133a2.08 2.08 0 0 0-.35-1.133c-.23-.336-.55-.597-.93-.752-.37-.155-.79-.196-1.19-.119s-.76.271-1.05.555a2.03 2.03 0 0 0-.6 1.449 2.03 2.03 0 0 0 .6 1.449h0zm-27.52-9.88c.28.287.65.483 1.05.563s.82.041 1.2-.113a2.12 2.12 0 0 0 .93-.752c.22-.336.34-.731.34-1.136a2.08 2.08 0 0 0-.34-1.136 2.12 2.12 0 0 0-.93-.752c-.38-.154-.8-.193-1.2-.113s-.77.276-1.05.563a1.91 1.91 0 0 0-.48.664c-.11.251-.17.522-.17.796s.06.545.17.796a1.91 1.91 0 0 0 .48.664v-.044zm-28.86 16.291a1.06 1.06 0 0 0 .54.286c.2.041.41.022.6-.056s.36-.21.47-.38a.99.99 0 0 0 .18-.575.99.99 0 0 0-.18-.575c-.11-.17-.28-.302-.47-.38s-.4-.097-.6-.056c-.21.041-.39.141-.54.287-.1.1-.17.22-.22.35a1.15 1.15 0 0 0-.07.41c.01.14.04.277.1.403.07.125.15.238.26.33l-.07-.044zm80.75 100.267c.14.15.33.25.53.29a1.07 1.07 0 0 0 .61-.06 1.09 1.09 0 0 0 .47-.38c.11-.17.17-.37.17-.57 0-.21-.06-.41-.17-.58a1.09 1.09 0 0 0-.47-.38c-.2-.08-.41-.1-.61-.05a1.05 1.05 0 0 0-.53.28c-.1.1-.18.22-.23.35s-.07.27-.06.41a.91.91 0 0 0 .1.4 1.03 1.03 0 0 0 .25.33l-.06-.04zm-57.84-101.211c.19.19.46.297.73.297s.54-.107.73-.297c.1-.093.18-.205.24-.33.05-.124.08-.259.08-.395s-.03-.271-.08-.395c-.06-.125-.14-.237-.24-.329-.2-.157-.45-.235-.71-.22a1.04 1.04 0 0 0-.67.301 1 1 0 0 0-.3.668.99.99 0 0 0 .22.7h0zm-29.26 19.411c.29.28.66.47 1.06.55s.82.04 1.19-.12a2.01 2.01 0 0 0 .93-.75c.22-.33.34-.73.34-1.13 0-.41-.12-.8-.34-1.14-.23-.33-.55-.59-.93-.75a2.19 2.19 0 0 0-1.19-.12c-.4.08-.77.27-1.06.56a2.15 2.15 0 0 0-.44.68c-.1.26-.15.53-.15.8a2.17 2.17 0 0 0 .18.8 2.24 2.24 0 0 0 .48.66l-.07-.04zm65.75 67.9c.28.29.65.48 1.05.56a2.1 2.1 0 0 0 1.19-.12c.38-.16.7-.42.93-.75.22-.34.34-.73.34-1.14a2.08 2.08 0 0 0-.34-1.13c-.23-.33-.55-.6-.93-.75-.37-.16-.79-.2-1.19-.12s-.77.27-1.05.56c-.39.38-.61.9-.61 1.44a2.02 2.02 0 0 0 .61 1.45h0zm-49.94 87.49c.19.2.41.35.66.46.25.1.52.15.79.15s.54-.05.79-.15c.25-.11.48-.26.66-.46.29-.28.49-.64.57-1.04s.04-.81-.11-1.18c-.16-.38-.42-.7-.76-.92a2.05 2.05 0 0 0-2.3 0c-.34.22-.6.54-.76.92-.15.37-.19.78-.11 1.18s.28.76.57 1.04zm152.08 15.66a6.21 6.21 0 0 0 3.18 1.64c1.2.23 2.45.1 3.57-.37 1.13-.46 2.09-1.25 2.77-2.26a6.08 6.08 0 0 0 1.04-3.4 6.11 6.11 0 0 0-1.04-3.41 6.26 6.26 0 0 0-2.77-2.26c-1.12-.47-2.37-.6-3.57-.37s-2.31.8-3.18 1.65c-.6.57-1.07 1.25-1.39 2-.33.75-.5 1.56-.5 2.37-.01.82.15 1.63.46 2.39a6.42 6.42 0 0 0 1.36 2.02h.07zM870.991 907.175c.616.626 1.407 1.056 2.271 1.235a4.49 4.49 0 0 0 2.581-.229 4.43 4.43 0 0 0 2.012-1.617c.493-.724.756-1.578.756-2.451a4.36 4.36 0 0 0-.756-2.452 4.43 4.43 0 0 0-2.012-1.616c-.818-.329-1.716-.409-2.581-.23s-1.655.609-2.271 1.235a4.37 4.37 0 0 0-1.258 3.063c0 1.144.452 2.243 1.258 3.062h0zm654.999 222.095c.61.62 1.41 1.05 2.27 1.23.86.17 1.76.09 2.58-.24a4.45 4.45 0 0 0 2-1.61 4.4 4.4 0 0 0 .76-2.45c0-.87-.27-1.73-.76-2.45a4.47 4.47 0 0 0-4.58-1.85c-.86.17-1.66.6-2.27 1.22a4.35 4.35 0 0 0-1.27 3.08 4.33 4.33 0 0 0 1.27 3.07h0zm-200.36-109.77c.62.62 1.41 1.05 2.27 1.23.87.18 1.77.1 2.59-.23a4.53 4.53 0 0 0 2.01-1.61 4.4 4.4 0 0 0 .75-2.46 4.39 4.39 0 0 0-.75-2.45c-.5-.72-1.2-1.29-2.01-1.61-.82-.33-1.72-.41-2.59-.23-.86.18-1.65.61-2.27 1.23-.81.82-1.27 1.93-1.27 3.08a4.39 4.39 0 0 0 1.27 3.07v-.02zM1513 1186.79c.45.45 1.03.75 1.65.88a3.2 3.2 0 0 0 1.86-.19c.59-.24 1.09-.64 1.45-1.17a3.18 3.18 0 0 0 .54-1.77c0-.63-.19-1.24-.54-1.77a3.26 3.26 0 0 0-1.45-1.17 3.28 3.28 0 0 0-1.86-.18 3.27 3.27 0 0 0-1.65.87c-.3.3-.54.65-.71 1.04-.16.39-.25.8-.25 1.22 0 .43.09.84.25 1.23.17.39.41.74.71 1.04v-.03zm25.79 62.42a3.31 3.31 0 0 0 1.65.92c.63.13 1.28.08 1.88-.16.6-.23 1.11-.64 1.47-1.17a3.17 3.17 0 0 0 .55-1.78c0-.64-.19-1.26-.55-1.79s-.87-.93-1.47-1.17a3.18 3.18 0 0 0-1.88-.15 3.22 3.22 0 0 0-1.65.91 3.14 3.14 0 0 0-.9 2.21c0 .82.32 1.61.9 2.2v-.02zm-123.6-81.5a3.22 3.22 0 0 0 1.05.7 3.27 3.27 0 0 0 1.24.25c.42 0 .84-.09 1.23-.25a3.12 3.12 0 0 0 1.05-.7c.46-.44.77-1.01.89-1.64.13-.62.07-1.26-.18-1.85a3.16 3.16 0 0 0-1.19-1.44 3.28 3.28 0 0 0-1.8-.54 3.31 3.31 0 0 0-1.81.54c-.53.35-.94.85-1.19 1.44-.24.59-.31 1.23-.18 1.85a3.19 3.19 0 0 0 .89 1.64h0zm-187.1 117.09c.45.44 1.02.74 1.64.86a3.28 3.28 0 0 0 1.86-.18 3.14 3.14 0 0 0 1.44-1.18 3.15 3.15 0 0 0 .54-1.76c0-.63-.19-1.24-.54-1.77a3.18 3.18 0 0 0-1.44-1.17c-.59-.24-1.23-.31-1.86-.19a3.24 3.24 0 0 0-1.64.87 3.06 3.06 0 0 0-.71 1.04c-.16.39-.25.81-.25 1.23s.09.84.25 1.23a3.06 3.06 0 0 0 .71 1.04v-.02zm234.86-243.3a2.14 2.14 0 0 0 2.26.45 2.07 2.07 0 0 0 .92-.76c.23-.33.35-.73.35-1.13 0-.41-.12-.8-.35-1.14a2.05 2.05 0 0 0-.92-.75 2.14 2.14 0 0 0-1.2-.11c-.4.08-.77.27-1.06.56-.19.19-.35.41-.45.66a1.88 1.88 0 0 0-.16.78 1.91 1.91 0 0 0 .16.78c.1.25.26.47.45.66h0zm71.34 95.63a2.05 2.05 0 0 0 1.46.6c.55 0 1.08-.21 1.47-.6a2.02 2.02 0 0 0 .61-1.45c0-.54-.22-1.06-.61-1.45a2 2 0 0 0-.67-.44c-.26-.1-.52-.16-.8-.16-.27 0-.54.06-.79.16a2 2 0 0 0-.67.44c-.19.19-.35.42-.45.67a2.09 2.09 0 0 0-.16.78c0 .27.06.54.16.79s.26.47.45.66h0zm-103.39 26.5c.39.39.92.6 1.47.6s1.08-.21 1.46-.6a2.02 2.02 0 0 0 .61-1.45c0-.54-.22-1.06-.61-1.45a1.93 1.93 0 0 0-.67-.45 1.96 1.96 0 0 0-.79-.16 2.04 2.04 0 0 0-.8.16c-.25.1-.48.26-.67.45-.38.39-.6.91-.6 1.45s.22 1.06.6 1.45h0zm-589.006 16.62c.39.38.916.6 1.465.6s1.074-.22 1.464-.6c.385-.39.601-.91.601-1.45s-.216-1.06-.601-1.45c-.39-.38-.916-.59-1.464-.59s-1.075.21-1.465.59c-.385.39-.601.91-.601 1.45s.216 1.06.601 1.45h0zm62.923-15.21c.188.19.414.34.664.45a2.13 2.13 0 0 0 .789.16c.272 0 .54-.06.79-.16.25-.11.476-.26.664-.45a2.06 2.06 0 0 0 .57-1.05c.081-.4.041-.81-.115-1.18-.156-.38-.42-.69-.76-.92a2.05 2.05 0 0 0-1.149-.35c-.409 0-.808.12-1.148.35s-.605.54-.76.92c-.156.37-.196.78-.115 1.18a2.05 2.05 0 0 0 .57 1.05zm662.253-63.28a2.08 2.08 0 0 0 1.06.57c.4.08.81.04 1.19-.12a2.01 2.01 0 0 0 .93-.75c.23-.34.35-.73.35-1.14 0-.4-.12-.8-.35-1.13a2.01 2.01 0 0 0-.93-.75c-.38-.16-.79-.2-1.19-.12a2.08 2.08 0 0 0-1.06.57c-.19.18-.34.41-.45.65-.1.25-.16.52-.16.78a2.05 2.05 0 0 0 .16.78 2.15 2.15 0 0 0 .45.66zM1019.7 909.656c.29.284.65.477 1.05.555s.82.036 1.2-.119a2.1 2.1 0 0 0 .92-.752 2 2 0 0 0 0-2.266c-.23-.335-.55-.597-.92-.752-.38-.155-.8-.196-1.2-.118a2.05 2.05 0 0 0-1.05.554 1.88 1.88 0 0 0-.45.664c-.11.249-.16.516-.16.785a1.93 1.93 0 0 0 .16.785 1.87 1.87 0 0 0 .45.664h0zm519.92 182.224c.28.29.65.48 1.05.56a2.19 2.19 0 0 0 1.19-.12c.38-.16.7-.42.93-.75.22-.34.34-.73.34-1.14a2.08 2.08 0 0 0-.34-1.13 2.01 2.01 0 0 0-.93-.75c-.37-.16-.79-.2-1.19-.12s-.77.27-1.05.55a1.94 1.94 0 0 0-.45.66 1.91 1.91 0 0 0-.16.78 1.91 1.91 0 0 0 .16.78 1.85 1.85 0 0 0 .45.66v.02zm-184.07 30.17a2.21 2.21 0 0 0 .67.51 2 2 0 0 0 .83.21 2.02 2.02 0 0 0 .84-.15 2.07 2.07 0 0 0 .71-.46 2.12 2.12 0 0 0 .46-.71c.1-.26.14-.55.13-.83a2.08 2.08 0 0 0-.22-.81 2.01 2.01 0 0 0-.53-.66c-.39-.38-.92-.6-1.47-.6a2.09 2.09 0 0 0-1.46.6c-.39.38-.61.91-.61 1.45s.22 1.06.61 1.45h.04zm155.37-13.9c.19.19.46.3.73.3s.54-.11.73-.3c.16-.2.24-.45.22-.7-.01-.25-.12-.49-.3-.67s-.42-.28-.68-.3a1.1 1.1 0 0 0-.7.22c-.21.18-.33.44-.35.71a1.05 1.05 0 0 0 .26.74h.09zm-163.4 33.13c.14.15.33.25.53.29a1.07 1.07 0 0 0 .61-.06 1.09 1.09 0 0 0 .47-.38c.11-.17.17-.37.17-.57 0-.21-.06-.41-.17-.58a1.09 1.09 0 0 0-.47-.38c-.2-.08-.41-.1-.61-.05a1.05 1.05 0 0 0-.53.28c-.19.19-.3.46-.3.73s.11.53.3.72h0zm28.36-18.75c.15.15.33.25.54.29a1.03 1.03 0 0 0 .6-.06c.19-.08.36-.21.47-.38a.99.99 0 0 0 .18-.57c0-.21-.06-.41-.18-.58-.11-.17-.28-.3-.47-.38a.95.95 0 0 0-.6-.05 1.08 1.08 0 0 0-.54.28c-.1.1-.18.21-.24.34a1.15 1.15 0 0 0-.08.41c0 .14.03.28.08.4a1.21 1.21 0 0 0 .24.35v-.05zm215.61 85.89a1.15 1.15 0 0 0 .53.29 1.03 1.03 0 0 0 .6-.06c.2-.08.36-.21.47-.38.12-.17.18-.37.18-.58a.99.99 0 0 0-.18-.57c-.11-.17-.27-.3-.47-.38a1.03 1.03 0 0 0-.6-.06c-.2.04-.39.14-.53.29a.99.99 0 0 0-.31.72c0 .28.11.54.31.73h0zm1.04 71.79c.14.15.33.25.53.29s.42.02.61-.06a1.09 1.09 0 0 0 .47-.38c.11-.17.17-.37.17-.57 0-.21-.06-.41-.17-.58a1.09 1.09 0 0 0-.47-.38 1.06 1.06 0 0 0-.61-.05 1.05 1.05 0 0 0-.53.28c-.1.1-.17.22-.22.35-.05.12-.07.26-.06.4.01.13.05.27.11.39s.15.23.26.31h-.09zm-39.46 1.03c.14.15.33.25.53.29a1.03 1.03 0 0 0 .6-.06.93.93 0 0 0 .47-.38.99.99 0 0 0 .18-.57c0-.21-.06-.41-.18-.58-.11-.17-.27-.3-.47-.38-.19-.07-.4-.09-.6-.05a1.05 1.05 0 0 0-.53.28c-.19.21-.28.48-.26.75a1.04 1.04 0 0 0 .34.7h-.08zm-1.03-13.45c.1.11.21.2.34.27s.28.11.42.12c.15.01.3-.02.43-.07.14-.05.27-.13.37-.23.11-.11.19-.23.24-.37.05-.13.07-.28.07-.42a1.02 1.02 0 0 0-.12-.42c-.07-.13-.16-.24-.28-.33a1.12 1.12 0 0 0-.33-.24 1.14 1.14 0 0 0-.4-.08c-.14 0-.28.03-.4.08-.13.06-.24.14-.34.24a1 1 0 0 0-.25.74c.01.27.14.52.34.71h-.09zm-128.57-92.74c.19.19.46.29.73.29a1.02 1.02 0 0 0 .73-.29c.1-.09.19-.21.24-.33.06-.13.08-.26.08-.4a.88.88 0 0 0-.32-.72c-.09-.12-.2-.21-.33-.28a1.05 1.05 0 0 0-.42-.11c-.15-.01-.3.01-.44.06a.95.95 0 0 0-.36.24.88.88 0 0 0-.24.36 1.05 1.05 0 0 0-.07.43c.01.14.05.29.12.41.07.13.16.25.28.34h0zm110.31-67.84c.19.19.45.29.72.29s.53-.1.72-.29c.1-.1.18-.21.24-.33.05-.13.08-.26.08-.4 0-.13-.03-.27-.08-.39-.06-.13-.14-.24-.24-.33-.19-.19-.45-.3-.72-.3s-.53.11-.72.3c-.1.09-.18.2-.24.33-.05.12-.08.26-.08.39 0 .14.03.27.08.4.06.12.14.23.24.33h0zm-117.01 52.69a1.15 1.15 0 0 0 .53.29 1.03 1.03 0 0 0 .6-.06 1.06 1.06 0 0 0 .48-.38c.11-.17.17-.37.17-.58 0-.2-.06-.4-.17-.57a1.06 1.06 0 0 0-.48-.38 1.03 1.03 0 0 0-.6-.06c-.2.04-.39.14-.53.29-.18.19-.28.43-.28.69a.98.98 0 0 0 .25.69l.03.07zm87.73-33.22a2.24 2.24 0 0 0 .68.45c.25.1.52.15.79.15s.54-.05.79-.15c.25-.11.48-.26.67-.45a1.94 1.94 0 0 0 .45-.66 1.96 1.96 0 0 0 .16-.79 1.91 1.91 0 0 0-.16-.78c-.1-.25-.25-.48-.45-.67-.19-.19-.42-.35-.67-.45a1.96 1.96 0 0 0-.79-.16 1.97 1.97 0 0 0-.8.16c-.25.1-.48.26-.67.45a2.08 2.08 0 0 0-.58 1.41c0 .53.2 1.04.56 1.42l.02.07zm-126.22 32.93c.19.2.42.35.67.46.25.1.52.16.79.16.28 0 .55-.06.8-.16.25-.11.48-.26.67-.46a2.02 2.02 0 0 0 .61-1.45c0-.54-.22-1.06-.61-1.44a2.08 2.08 0 0 0-1.47-.61c-.54 0-1.07.22-1.46.61-.37.37-.58.87-.59 1.4 0 .52.2 1.03.57 1.41l.02.08zm27.41 2.04a2.08 2.08 0 0 0 1.06.57c.4.08.81.04 1.19-.12a2.01 2.01 0 0 0 .93-.75c.23-.33.35-.73.35-1.13 0-.41-.12-.8-.35-1.14a2.01 2.01 0 0 0-.93-.75c-.38-.16-.79-.19-1.19-.11s-.77.27-1.06.56c-.36.37-.57.87-.57 1.39a1.98 1.98 0 0 0 .55 1.4l.02.08zm164.49 32.94a2.11 2.11 0 0 0 1.05.56 2.13 2.13 0 0 0 1.2-.11c.38-.16.7-.42.93-.75a2.04 2.04 0 0 0 .35-1.14c0-.41-.12-.8-.35-1.14-.23-.33-.55-.59-.93-.75a2.13 2.13 0 0 0-1.2-.11c-.4.08-.76.27-1.05.56-.35.37-.55.86-.56 1.37a2.03 2.03 0 0 0 .54 1.38l.02.13zm-574.342-125.15c.289.29.657.48 1.057.56s.814.04 1.191-.12a2.06 2.06 0 0 0 .924-.75c.226-.34.347-.73.347-1.13 0-.41-.121-.8-.347-1.14-.226-.33-.548-.59-.924-.75a2.11 2.11 0 0 0-1.191-.12c-.4.08-.768.27-1.057.56a2.01 2.01 0 0 0-.588 1.41 2.02 2.02 0 0 0 .566 1.42l.022.06zm-51.759 188.33a2.06 2.06 0 0 0 1.058.56c.4.08.814.03 1.19-.12.376-.16.698-.42.924-.75.226-.34.347-.73.347-1.14 0-.4-.121-.79-.347-1.13a2.06 2.06 0 0 0-.924-.75 2.02 2.02 0 0 0-1.19-.12 2.06 2.06 0 0 0-1.058.56 2.03 2.03 0 0 0-.6 1.44c0 .55.216 1.07.6 1.45h0zm538.141 9.71c.29.28.66.47 1.06.55s.81.04 1.19-.12c.37-.15.69-.41.92-.75.23-.33.35-.73.35-1.13s-.12-.8-.35-1.13c-.23-.34-.55-.6-.92-.76-.38-.15-.79-.19-1.19-.11a2.05 2.05 0 0 0-1.06.55c-.2.19-.35.41-.46.66a1.96 1.96 0 0 0-.16.79 1.96 1.96 0 0 0 .16.79c.11.24.26.47.46.66h0zm-457.79-216.39c.28.29.65.48 1.05.56a2.14 2.14 0 0 0 1.2-.11 2.13 2.13 0 0 0 .93-.75c.22-.34.34-.73.34-1.14 0-.4-.12-.8-.34-1.13-.23-.34-.56-.6-.93-.76a2.14 2.14 0 0 0-1.2-.11 2.07 2.07 0 0 0-1.05.56c-.2.19-.36.41-.46.66a1.91 1.91 0 0 0-.16.78 1.88 1.88 0 0 0 .16.78c.1.25.26.47.46.66h0zm495.72 230.88a2.05 2.05 0 0 0 1.06.55c.4.08.81.04 1.19-.12.37-.15.7-.41.92-.75.23-.33.35-.73.35-1.13s-.12-.8-.35-1.13a2.07 2.07 0 0 0-.92-.76c-.38-.15-.79-.19-1.19-.11a2.05 2.05 0 0 0-1.06.55c-.2.19-.35.41-.46.66-.1.25-.16.52-.16.79s.06.54.16.79c.11.24.26.47.46.66h0zm-409.96-120.4a2.07 2.07 0 0 0 1.05.56 2.14 2.14 0 0 0 1.2-.11c.38-.16.7-.42.93-.75.22-.34.35-.74.35-1.14 0-.41-.13-.8-.35-1.14-.23-.33-.55-.59-.93-.75a2.14 2.14 0 0 0-1.2-.11c-.4.08-.77.27-1.05.56-.2.19-.35.41-.46.66a1.88 1.88 0 0 0-.16.78 1.91 1.91 0 0 0 .16.78c.11.25.26.47.46.66h0zm327.24 55.26c.19.19.42.35.67.45a1.96 1.96 0 0 0 .79.16 1.97 1.97 0 0 0 .8-.16c.25-.1.48-.26.67-.45.29-.29.48-.65.56-1.05a2 2 0 0 0-.12-1.18c-.16-.37-.42-.69-.76-.91a2.12 2.12 0 0 0-1.15-.34 2.11 2.11 0 0 0-1.14.34c-.34.22-.6.54-.76.91a2 2 0 0 0-.12 1.18c.08.4.27.76.56 1.05z"/></g><g style="mix-blend-mode:soft-light" class="C B D"><path d="M753.604 127.679c3.875 1.571 64.581 26.008 82.754 36.171a1.45 1.45 0 0 0 .323.141c51.161 15.972 90.917-6.09 125.455 38.814l.129.192c36.476 62.562 58.655 64.694 122.475 76.607a1.68 1.68 0 0 0 1.05-.193 1.66 1.66 0 0 0 .73-.788c.14-.334.18-.706.09-1.06s-.29-.668-.58-.896c-18.61-14.185-77.89-59.907-87.186-73.862-11.043-16.598-5.166-34.894-26.452-40.934h-.13C850.63 136.259 844.947 55.464 667.995 40.743a1.68 1.68 0 0 0-.972.203c-.296.164-.534.413-.683.714a1.63 1.63 0 0 0-.15.971 1.64 1.64 0 0 0 .436.883c12.516 13.368 62.372 66.087 86.668 83.962.097.077.2.145.31.204h0z"/></g><g style="mix-blend-mode:soft-light" class="C B D"><path d="M844.471 249.886c41.577 96.027 116.646 127.768 195.149 187.573a1.82 1.82 0 0 1 .34.345c54.25 74.194 117.41 109.625 184.21 144.698a1.7 1.7 0 0 0 1.1.101c.36-.09.69-.3.92-.595a1.62 1.62 0 0 0 .35-1.033 1.61 1.61 0 0 0-.37-1.027c-163.39-171.625-127.88-210.235-379.374-332.117a1.7 1.7 0 0 0-.972-.159c-.333.045-.645.187-.895.408s-.428.512-.51.834-.063.661.052.972z"/></g><g style="mix-blend-mode:soft-light" class="C B D"><path d="M413.507 89.43c2.764 1.558 43.398 24.527 55.242 33.196l.233.141c32.29 15.526 68.52 8.082 86.099 40.18l.078.179c17.385 45.377 37.612 49.795 77.497 63.571.299.099.622.095.919-.009s.549-.305.717-.568a1.38 1.38 0 0 0 .21-.884c-.032-.31-.168-.6-.386-.824-12.503-12.283-47.441-47.114-52.104-56.894-5.67-11.951 1.291-22.905-13.459-29.366s-50.58-16.93-54.326-28.881c-17.023-34.103-114.954-77.884-150.331-85.915-.287-.092-.596-.09-.881.006s-.531.281-.701.526-.255.539-.242.837.122.583.312.814c7.75 10.84 35.907 49.514 50.839 63.686l.284.204z"/></g><g style="mix-blend-mode:soft-light" class="C B D"><path d="M1312.71 711.414c3.09 1.253 51.52 20.749 66.02 28.856.08.048.17.085.26.112 40.81 12.743 72.53-4.858 100.08 30.965l.1.152c29.1 49.91 46.79 51.611 97.7 61.114.29.041.59-.013.85-.154a1.31 1.31 0 0 0 .57-.629c.12-.266.15-.563.08-.845a1.33 1.33 0 0 0-.47-.715c-14.84-11.316-62.13-47.791-69.55-58.923-8.81-13.242-4.12-27.838-21.1-32.655h-.1c-97.04-20.433-101.57-84.887-242.73-96.631a1.36 1.36 0 0 0-.78.161c-.24.131-.43.33-.54.57-.12.24-.16.51-.12.775a1.33 1.33 0 0 0 .34.704c9.99 10.664 49.76 52.721 69.14 66.98a1.65 1.65 0 0 0 .25.163h0z"/></g><g style="mix-blend-mode:soft-light" class="C B D"><path d="M1385.2 808.906c33.17 76.606 93.06 101.927 155.68 149.637.11.078.2.171.27.275 43.28 59.192 93.66 87.452 146.96 115.432a1.37 1.37 0 0 0 .87.08 1.32 1.32 0 0 0 1.02-1.3c0-.3-.11-.58-.3-.82-130.34-136.911-102.02-167.712-302.64-264.944-.24-.118-.51-.162-.78-.127s-.51.149-.71.326a1.29 1.29 0 0 0-.41.665c-.07.257-.05.527.04.776z"/></g><g style="mix-blend-mode:soft-light" class="C B D"><path d="M1041.4 680.901c2.2 1.243 34.62 19.566 44.07 26.482l.18.113c25.76 12.385 54.67 6.447 68.69 32.054l.06.142c13.87 36.2 30.01 39.724 61.82 50.714.24.079.5.076.74-.007a1.13 1.13 0 0 0 .57-.453c.13-.21.19-.458.17-.705a1.16 1.16 0 0 0-.31-.658c-9.98-9.798-37.85-37.585-41.57-45.387-4.52-9.534 1.03-18.273-10.73-23.427-11.77-5.154-40.35-13.506-43.34-23.04-13.58-27.205-91.71-62.132-119.93-68.539-.23-.073-.48-.071-.7.006-.23.076-.43.224-.56.42a1.07 1.07 0 0 0-.2.667c.01.237.1.465.25.649 6.19 8.648 28.65 39.5 40.56 50.806l.23.163z"/></g><defs ><path id="B" d="M1108.87 1672.81a.67.67 0 0 0 .67-.66.66.66 0 0 0-.67-.66.66.66 0 0 0-.67.66.67.67 0 0 0 .67.66z"/><path id="C" d="M1261.37 1701.56a1.33 1.33 0 0 0 1.34-1.32 1.33 1.33 0 0 0-1.34-1.32 1.33 1.33 0 0 0-1.34 1.32 1.33 1.33 0 0 0 1.34 1.32z"/><path id="D" d="M1024.77 1408.64a1.33 1.33 0 0 0 1.34-1.32 1.33 1.33 0 0 0-1.34-1.32c-.73 0-1.33.59-1.33 1.32s.6 1.32 1.33 1.32z"/></defs></svg>