<svg width="763" height="406" viewBox="0 0 763 406" fill="none" xmlns="http://www.w3.org/2000/svg">
<path fill-rule="evenodd" clip-rule="evenodd" d="M479.196 342.619C478.994 343.375 478.57 344.056 477.978 344.575C477.386 345.094 476.651 345.429 475.866 345.537C475.082 345.645 474.283 345.522 473.569 345.182C472.855 344.843 472.259 344.302 471.856 343.629C471.453 342.956 471.26 342.18 471.302 341.399C471.344 340.618 471.619 339.867 472.093 339.24C472.566 338.613 473.217 338.138 473.963 337.875C474.709 337.612 475.517 337.573 476.286 337.763C476.801 337.89 477.286 338.117 477.712 338.431C478.139 338.745 478.497 339.139 478.768 339.591C479.039 340.042 479.216 340.543 479.289 341.062C479.363 341.582 479.331 342.111 479.196 342.619Z" fill="#779BFF"/>
<path d="M397.992 106.284C400.21 106.284 402.008 104.508 402.008 102.318C402.008 100.128 400.21 98.3531 397.992 98.3531C395.775 98.3531 393.977 100.128 393.977 102.318C393.977 104.508 395.775 106.284 397.992 106.284Z" fill="#779BFF"/>
<path fill-rule="evenodd" clip-rule="evenodd" d="M215.187 196.16C214.985 196.916 214.562 197.597 213.969 198.116C213.377 198.635 212.642 198.97 211.858 199.078C211.073 199.186 210.274 199.062 209.56 198.723C208.847 198.383 208.251 197.843 207.847 197.17C207.444 196.497 207.251 195.721 207.293 194.94C207.336 194.159 207.611 193.407 208.084 192.78C208.558 192.153 209.208 191.679 209.954 191.416C210.7 191.153 211.509 191.114 212.277 191.304C212.793 191.431 213.278 191.658 213.704 191.972C214.13 192.285 214.489 192.68 214.76 193.131C215.03 193.583 215.207 194.083 215.281 194.603C215.354 195.123 215.322 195.652 215.187 196.16Z" fill="#779BFF"/>
<path fill-rule="evenodd" clip-rule="evenodd" d="M80.964 8.14643C80.7649 8.90426 80.3431 9.58695 79.7517 10.1084C79.1603 10.6299 78.4258 10.9669 77.6408 11.0769C76.8558 11.1868 76.0554 11.0648 75.3404 10.7263C74.6255 10.3878 74.0281 9.84787 73.6234 9.17459C73.2187 8.50132 73.025 7.72483 73.0665 6.94299C73.1081 6.16115 73.3831 5.40896 73.8569 4.78122C74.3308 4.15348 74.9822 3.67828 75.7291 3.41553C76.476 3.15278 77.2849 3.11422 78.054 3.30473C78.5681 3.43209 79.0516 3.65869 79.4766 3.97147C79.9016 4.28425 80.2597 4.67701 80.5302 5.12711C80.8007 5.57721 80.9783 6.07574 81.0528 6.59395C81.1272 7.11216 81.097 7.63979 80.964 8.14643V8.14643Z" fill="#779BFF"/>
<path fill-rule="evenodd" clip-rule="evenodd" d="M63.504 132.507C63.305 133.265 62.8832 133.947 62.2918 134.469C61.7004 134.99 60.9659 135.327 60.1809 135.437C59.3959 135.547 58.5954 135.425 57.8805 135.087C57.1656 134.748 56.5681 134.208 56.1635 133.535C55.7588 132.862 55.5651 132.085 55.6066 131.303C55.6482 130.522 55.9232 129.769 56.397 129.142C56.8709 128.514 57.5223 128.039 58.2692 127.776C59.0161 127.513 59.825 127.475 60.5941 127.665C61.1082 127.792 61.5917 128.019 62.0167 128.332C62.4417 128.645 62.7998 129.037 63.0703 129.487C63.3408 129.938 63.5184 130.436 63.5929 130.954C63.6673 131.473 63.6371 132 63.504 132.507V132.507Z" fill="#779BFF"/>
<path fill-rule="evenodd" clip-rule="evenodd" d="M229.402 127.507C229.203 128.264 228.781 128.947 228.19 129.469C227.599 129.99 226.864 130.327 226.079 130.437C225.294 130.547 224.494 130.425 223.779 130.086C223.064 129.748 222.466 129.208 222.062 128.535C221.657 127.861 221.463 127.085 221.505 126.303C221.547 125.521 221.822 124.769 222.295 124.141C222.769 123.514 223.421 123.038 224.167 122.776C224.914 122.513 225.723 122.474 226.492 122.665C227.007 122.792 227.49 123.019 227.915 123.332C228.34 123.644 228.698 124.037 228.969 124.487C229.239 124.937 229.417 125.436 229.491 125.954C229.566 126.472 229.535 127 229.402 127.507V127.507Z" fill="#779BFF"/>
<path d="M522.816 373.641C524.383 373.641 525.654 372.386 525.654 370.839C525.654 369.292 524.383 368.038 522.816 368.038C521.249 368.038 519.979 369.292 519.979 370.839C519.979 372.386 521.249 373.641 522.816 373.641Z" fill="#779BFF"/>
<path d="M168.234 186.705C169.801 186.705 171.072 185.451 171.072 183.903C171.072 182.356 169.801 181.102 168.234 181.102C166.667 181.102 165.397 182.356 165.397 183.903C165.397 185.451 166.667 186.705 168.234 186.705Z" fill="#779BFF"/>
<path d="M424.848 301.833C425.248 300.337 424.345 298.804 422.83 298.408C421.315 298.013 419.762 298.905 419.362 300.401C418.962 301.897 419.865 303.43 421.38 303.826C422.895 304.221 424.448 303.329 424.848 301.833Z" fill="#779BFF"/>
<path d="M598.927 185.283C600.494 185.283 601.764 184.028 601.764 182.481C601.764 180.934 600.494 179.679 598.927 179.679C597.36 179.679 596.09 180.934 596.09 182.481C596.09 184.028 597.36 185.283 598.927 185.283Z" fill="#779BFF"/>
<path d="M570.264 300.777C571.831 300.777 573.101 299.523 573.101 297.976C573.101 296.429 571.831 295.174 570.264 295.174C568.697 295.174 567.426 296.429 567.426 297.976C567.426 299.523 568.697 300.777 570.264 300.777Z" fill="#779BFF"/>
<path fill-rule="evenodd" clip-rule="evenodd" d="M412.615 264.612C412.469 265.135 412.119 265.579 411.642 265.849C411.165 266.118 410.599 266.19 410.069 266.049C409.563 265.883 409.14 265.534 408.886 265.071C408.632 264.609 408.566 264.068 408.702 263.559C408.837 263.051 409.163 262.612 409.615 262.332C410.066 262.053 410.608 261.953 411.131 262.055C411.401 262.123 411.654 262.244 411.875 262.41C412.097 262.576 412.282 262.785 412.421 263.024C412.559 263.262 412.648 263.525 412.681 263.798C412.714 264.071 412.692 264.348 412.615 264.612V264.612Z" fill="#779BFF"/>
<path fill-rule="evenodd" clip-rule="evenodd" d="M285.274 199.982C285.133 200.51 284.786 200.961 284.308 201.235C283.831 201.51 283.262 201.586 282.728 201.447C282.193 201.308 281.737 200.965 281.458 200.494C281.18 200.022 281.103 199.461 281.244 198.933C281.314 198.672 281.435 198.427 281.6 198.212C281.766 197.997 281.973 197.816 282.21 197.68C282.446 197.544 282.707 197.455 282.978 197.419C283.25 197.382 283.525 197.399 283.79 197.468C284.055 197.537 284.303 197.656 284.521 197.82C284.739 197.983 284.922 198.188 285.059 198.421C285.197 198.655 285.287 198.913 285.324 199.181C285.361 199.448 285.344 199.721 285.274 199.982Z" fill="#779BFF"/>
<path fill-rule="evenodd" clip-rule="evenodd" d="M89.723 210.974C89.6533 211.235 89.5321 211.481 89.3664 211.696C89.2007 211.911 88.9937 212.091 88.7573 212.227C88.5208 212.364 88.2596 212.452 87.9884 212.489C87.7172 212.525 87.4414 212.508 87.1768 212.439C86.9121 212.371 86.6638 212.251 86.446 212.087C86.2282 211.924 86.0452 211.719 85.9074 211.486C85.7696 211.252 85.6797 210.994 85.6428 210.727C85.606 210.459 85.6229 210.187 85.6927 209.925C85.8335 209.397 86.1809 208.947 86.6584 208.672C87.1359 208.397 87.7045 208.321 88.2389 208.46C88.7734 208.599 89.23 208.942 89.5083 209.413C89.7866 209.885 89.8639 210.446 89.723 210.974Z" fill="#779BFF"/>
<path fill-rule="evenodd" clip-rule="evenodd" d="M101.93 165.354C101.823 165.747 101.6 166.099 101.29 166.367C100.98 166.635 100.596 166.805 100.187 166.857C99.7784 166.909 99.3632 166.84 98.9943 166.659C98.6253 166.478 98.3192 166.192 98.1148 165.839C97.9103 165.486 97.8167 165.08 97.8458 164.675C97.8749 164.269 98.0255 163.88 98.2784 163.559C98.5312 163.238 98.875 162.998 99.2662 162.87C99.6573 162.742 100.078 162.731 100.475 162.839C100.739 162.909 100.985 163.03 101.201 163.194C101.417 163.359 101.598 163.564 101.733 163.797C101.868 164.031 101.955 164.289 101.989 164.556C102.023 164.823 102.003 165.094 101.93 165.354V165.354Z" fill="#779BFF"/>
<path fill-rule="evenodd" clip-rule="evenodd" d="M170.752 58.2645C170.644 58.6574 170.422 59.0101 170.111 59.2778C169.801 59.5455 169.417 59.7162 169.008 59.7682C168.6 59.8202 168.184 59.7511 167.815 59.5698C167.447 59.3885 167.14 59.1031 166.936 58.7498C166.731 58.3965 166.638 57.9912 166.667 57.5853C166.696 57.1794 166.847 56.7912 167.1 56.4699C167.352 56.1486 167.696 55.9086 168.087 55.7805C168.478 55.6524 168.899 55.6419 169.297 55.7502C169.826 55.8947 170.276 56.2402 170.549 56.7112C170.822 57.1822 170.894 57.7406 170.752 58.2645V58.2645Z" fill="#779BFF"/>
<path d="M486.616 329.73C487.355 329.73 487.955 329.139 487.955 328.409C487.955 327.679 487.355 327.087 486.616 327.087C485.877 327.087 485.278 327.679 485.278 328.409C485.278 329.139 485.877 329.73 486.616 329.73Z" fill="#779BFF"/>
<path fill-rule="evenodd" clip-rule="evenodd" d="M416.544 298.292C416.498 298.46 416.419 298.618 416.312 298.756C416.205 298.894 416.071 299.009 415.918 299.096C415.765 299.183 415.597 299.239 415.422 299.261C415.247 299.284 415.07 299.272 414.899 299.226C414.73 299.183 414.571 299.106 414.431 299.002C414.291 298.897 414.174 298.766 414.086 298.617C413.998 298.467 413.941 298.301 413.918 298.13C413.896 297.958 413.908 297.784 413.954 297.617C413.999 297.449 414.077 297.291 414.183 297.153C414.29 297.015 414.423 296.899 414.575 296.812C414.727 296.724 414.895 296.667 415.069 296.644C415.243 296.621 415.421 296.631 415.591 296.676C415.761 296.72 415.92 296.797 416.06 296.902C416.2 297.008 416.318 297.139 416.406 297.289C416.495 297.439 416.552 297.605 416.576 297.777C416.599 297.949 416.589 298.124 416.544 298.292V298.292Z" fill="#779BFF"/>
<path fill-rule="evenodd" clip-rule="evenodd" d="M409.807 328.61C409.718 328.949 409.496 329.239 409.191 329.417C408.885 329.595 408.521 329.645 408.177 329.558C408.007 329.514 407.848 329.437 407.708 329.332C407.568 329.226 407.45 329.095 407.362 328.945C407.273 328.795 407.216 328.629 407.192 328.457C407.169 328.285 407.18 328.11 407.224 327.942C407.269 327.774 407.347 327.616 407.454 327.478C407.56 327.34 407.693 327.224 407.845 327.137C407.997 327.049 408.165 326.992 408.34 326.969C408.514 326.946 408.691 326.956 408.861 327.001C409.031 327.044 409.19 327.12 409.33 327.225C409.469 327.33 409.587 327.46 409.675 327.61C409.763 327.76 409.82 327.925 409.842 328.097C409.865 328.269 409.853 328.443 409.807 328.61V328.61Z" fill="#779BFF"/>
<path fill-rule="evenodd" clip-rule="evenodd" d="M428.46 325.276C428.414 325.444 428.336 325.602 428.228 325.74C428.121 325.878 427.987 325.994 427.834 326.08C427.682 326.167 427.513 326.223 427.338 326.246C427.163 326.268 426.986 326.256 426.816 326.21C426.646 326.166 426.486 326.089 426.346 325.984C426.206 325.878 426.089 325.747 426 325.597C425.912 325.447 425.854 325.281 425.831 325.109C425.807 324.937 425.818 324.762 425.863 324.594C425.908 324.426 425.986 324.268 426.092 324.13C426.199 323.992 426.332 323.876 426.484 323.789C426.636 323.701 426.804 323.644 426.978 323.621C427.152 323.598 427.33 323.608 427.5 323.653C427.844 323.744 428.138 323.966 428.318 324.27C428.498 324.574 428.549 324.935 428.46 325.276V325.276Z" fill="#779BFF"/>
<path fill-rule="evenodd" clip-rule="evenodd" d="M392.376 321.857C392.331 322.025 392.253 322.182 392.147 322.32C392.04 322.458 391.907 322.575 391.755 322.662C391.603 322.749 391.435 322.806 391.261 322.83C391.087 322.853 390.909 322.842 390.739 322.798C390.569 322.753 390.41 322.676 390.27 322.571C390.13 322.466 390.012 322.334 389.924 322.184C389.835 322.034 389.778 321.869 389.754 321.696C389.73 321.524 389.741 321.349 389.786 321.181C389.877 320.842 390.1 320.553 390.407 320.376C390.714 320.2 391.08 320.151 391.423 320.24C391.767 320.33 392.06 320.551 392.239 320.854C392.417 321.157 392.467 321.518 392.376 321.857Z" fill="#779BFF"/>
<path fill-rule="evenodd" clip-rule="evenodd" d="M2.6271 266.423C2.58318 266.59 2.50601 266.747 2.40006 266.885C2.29412 267.023 2.1615 267.139 2.00991 267.226C1.85832 267.313 1.69078 267.369 1.51699 267.391C1.3432 267.414 1.16663 267.402 0.997512 267.356C0.654072 267.267 0.360721 267.046 0.181995 266.743C0.00326931 266.44 -0.0461923 266.079 0.0444914 265.74C0.135175 265.401 0.358576 265.111 0.665548 264.935C0.97252 264.758 1.33792 264.71 1.68136 264.799C1.8516 264.844 2.01116 264.922 2.15091 265.028C2.29065 265.134 2.40782 265.266 2.49568 265.417C2.58355 265.568 2.64039 265.734 2.66295 265.907C2.6855 266.079 2.67332 266.255 2.6271 266.423V266.423Z" fill="#779BFF"/>
<path fill-rule="evenodd" clip-rule="evenodd" d="M438.718 306.123C438.67 306.294 438.556 306.439 438.401 306.528C438.246 306.616 438.062 306.641 437.888 306.597C437.717 306.551 437.57 306.44 437.482 306.288C437.393 306.136 437.369 305.955 437.416 305.785C437.462 305.616 437.574 305.471 437.729 305.384C437.883 305.296 438.066 305.273 438.238 305.318C438.409 305.362 438.556 305.472 438.646 305.623C438.736 305.774 438.762 305.953 438.718 306.123Z" fill="#779BFF"/>
<path fill-rule="evenodd" clip-rule="evenodd" d="M232.138 405.266C232.075 405.474 231.932 405.649 231.741 405.755C231.549 405.86 231.323 405.888 231.111 405.832C230.899 405.776 230.718 405.64 230.605 405.454C230.493 405.268 230.458 405.046 230.508 404.835C230.569 404.624 230.711 404.445 230.904 404.335C231.097 404.225 231.325 404.193 231.541 404.246C231.757 404.304 231.941 404.443 232.053 404.635C232.165 404.826 232.196 405.053 232.138 405.266V405.266Z" fill="#779BFF"/>
<path d="M282.873 266.811C283.243 266.811 283.543 266.515 283.543 266.15C283.543 265.785 283.243 265.489 282.873 265.489C282.504 265.489 282.204 265.785 282.204 266.15C282.204 266.515 282.504 266.811 282.873 266.811Z" fill="#779BFF"/>
<path fill-rule="evenodd" clip-rule="evenodd" d="M139.149 219.021C139.105 219.19 138.994 219.335 138.841 219.424C138.688 219.513 138.506 219.538 138.334 219.495C138.164 219.444 138.019 219.332 137.93 219.179C137.84 219.027 137.813 218.847 137.854 218.676C137.878 218.592 137.918 218.513 137.972 218.444C138.027 218.375 138.095 218.318 138.172 218.275C138.249 218.232 138.334 218.205 138.422 218.195C138.509 218.185 138.599 218.192 138.684 218.216C138.768 218.238 138.848 218.276 138.917 218.328C138.987 218.381 139.045 218.446 139.088 218.521C139.132 218.596 139.159 218.679 139.17 218.765C139.18 218.851 139.173 218.938 139.149 219.021Z" fill="#779BFF"/>
<path fill-rule="evenodd" clip-rule="evenodd" d="M360.57 276.093C360.522 276.263 360.409 276.408 360.254 276.497C360.098 276.586 359.914 276.611 359.741 276.567C359.569 276.521 359.423 276.41 359.334 276.258C359.245 276.105 359.222 275.925 359.268 275.755C359.314 275.585 359.427 275.441 359.581 275.353C359.735 275.266 359.918 275.242 360.09 275.288C360.259 275.335 360.404 275.445 360.494 275.595C360.583 275.745 360.61 275.923 360.57 276.093V276.093Z" fill="#779BFF"/>
<path fill-rule="evenodd" clip-rule="evenodd" d="M268.236 258.233C268.188 258.403 268.075 258.548 267.92 258.637C267.765 258.726 267.58 258.751 267.407 258.707C267.238 258.66 267.094 258.549 267.007 258.398C266.92 258.248 266.896 258.07 266.941 257.902C266.961 257.817 266.999 257.737 267.051 257.667C267.104 257.597 267.17 257.538 267.246 257.493C267.322 257.449 267.407 257.42 267.494 257.409C267.582 257.398 267.671 257.404 267.756 257.428C267.928 257.472 268.075 257.581 268.165 257.732C268.255 257.883 268.28 258.063 268.236 258.233V258.233Z" fill="#779BFF"/>
<path fill-rule="evenodd" clip-rule="evenodd" d="M45.1711 203.661C45.1234 203.831 45.0097 203.976 44.8546 204.065C44.6995 204.154 44.5154 204.179 44.3418 204.135C44.1728 204.088 44.0293 203.977 43.9423 203.826C43.8552 203.676 43.8314 203.498 43.8762 203.33C43.8964 203.245 43.9339 203.165 43.9863 203.095C44.0387 203.025 44.1049 202.966 44.1811 202.921C44.2572 202.877 44.3416 202.848 44.4293 202.837C44.5169 202.826 44.6059 202.832 44.691 202.856C44.8606 202.903 45.0051 203.013 45.0946 203.163C45.1841 203.313 45.2115 203.491 45.1711 203.661V203.661Z" fill="#779BFF"/>
<path fill-rule="evenodd" clip-rule="evenodd" d="M22.2986 195.412C22.2766 195.495 22.2383 195.573 22.1859 195.642C22.1334 195.71 22.0678 195.767 21.9928 195.811C21.9178 195.854 21.8349 195.882 21.7488 195.894C21.6627 195.906 21.5752 195.901 21.4911 195.879C21.407 195.857 21.3281 195.819 21.2588 195.768C21.1896 195.716 21.1313 195.651 21.0874 195.577C21.0435 195.503 21.0148 195.421 21.0029 195.336C20.9911 195.252 20.9963 195.165 21.0182 195.082C21.0402 194.999 21.0785 194.921 21.131 194.853C21.1835 194.785 21.2491 194.727 21.3241 194.684C21.399 194.641 21.4819 194.612 21.568 194.6C21.6541 194.589 21.7417 194.594 21.8257 194.616C21.9098 194.637 21.9887 194.675 22.058 194.727C22.1273 194.779 22.1855 194.843 22.2294 194.917C22.2733 194.991 22.302 195.073 22.3139 195.158C22.3258 195.243 22.3206 195.329 22.2986 195.412Z" fill="#779BFF"/>
<path fill-rule="evenodd" clip-rule="evenodd" d="M426.219 314.012C426.197 314.097 426.158 314.177 426.105 314.248C426.051 314.318 425.983 314.377 425.906 314.421C425.829 314.465 425.743 314.494 425.655 314.505C425.566 314.516 425.476 314.509 425.39 314.486C425.218 314.44 425.072 314.329 424.983 314.176C424.895 314.024 424.871 313.843 424.917 313.674C424.963 313.504 425.076 313.36 425.23 313.272C425.384 313.185 425.567 313.161 425.739 313.207C425.909 313.254 426.053 313.364 426.143 313.514C426.232 313.664 426.26 313.842 426.219 314.012V314.012Z" fill="#779BFF"/>
<path fill-rule="evenodd" clip-rule="evenodd" d="M303.462 282.674C303.441 282.759 303.404 282.839 303.351 282.909C303.299 282.979 303.233 283.038 303.157 283.082C303.081 283.127 302.996 283.155 302.908 283.167C302.821 283.178 302.732 283.171 302.647 283.148C302.562 283.125 302.482 283.086 302.412 283.033C302.342 282.98 302.284 282.914 302.24 282.839C302.196 282.763 302.168 282.68 302.156 282.594C302.145 282.508 302.151 282.42 302.174 282.336C302.197 282.252 302.236 282.173 302.29 282.104C302.344 282.036 302.411 281.978 302.487 281.934C302.563 281.891 302.648 281.863 302.735 281.852C302.822 281.841 302.911 281.846 302.996 281.869C303.165 281.916 303.308 282.027 303.395 282.177C303.483 282.328 303.506 282.506 303.462 282.674V282.674Z" fill="#779BFF"/>
<path d="M132.165 240.631C132.535 240.631 132.834 240.335 132.834 239.97C132.834 239.605 132.535 239.309 132.165 239.309C131.796 239.309 131.496 239.605 131.496 239.97C131.496 240.335 131.796 240.631 132.165 240.631Z" fill="#779BFF"/>
<path d="M435.371 295.562C436.111 295.562 436.71 294.97 436.71 294.24C436.71 293.51 436.111 292.918 435.371 292.918C434.632 292.918 434.033 293.51 434.033 294.24C434.033 294.97 434.632 295.562 435.371 295.562Z" fill="#779BFF"/>
<path fill-rule="evenodd" clip-rule="evenodd" d="M377.608 277.803C377.542 278.056 377.401 278.284 377.204 278.458C377.006 278.633 376.761 278.745 376.499 278.782C376.237 278.818 375.969 278.777 375.731 278.664C375.492 278.55 375.293 278.369 375.158 278.144C375.024 277.919 374.96 277.659 374.975 277.398C374.99 277.137 375.083 276.886 375.243 276.677C375.402 276.468 375.621 276.311 375.871 276.225C376.121 276.139 376.391 276.128 376.648 276.193C376.991 276.281 377.285 276.5 377.465 276.802C377.645 277.104 377.696 277.463 377.608 277.803V277.803Z" fill="#779BFF"/>
<path fill-rule="evenodd" clip-rule="evenodd" d="M146.41 159.606C146.321 159.945 146.099 160.236 145.793 160.413C145.488 160.591 145.123 160.642 144.78 160.555C144.584 160.538 144.394 160.478 144.223 160.381C144.053 160.283 143.907 160.149 143.795 159.989C143.683 159.829 143.608 159.647 143.576 159.455C143.543 159.263 143.554 159.067 143.608 158.88C143.661 158.692 143.755 158.519 143.884 158.372C144.013 158.225 144.174 158.108 144.354 158.029C144.534 157.951 144.729 157.912 144.926 157.916C145.123 157.921 145.317 157.968 145.493 158.055C145.818 158.149 146.093 158.362 146.264 158.65C146.434 158.939 146.486 159.281 146.41 159.606V159.606Z" fill="#779BFF"/>
<path fill-rule="evenodd" clip-rule="evenodd" d="M443.301 131.501C443.236 131.754 443.098 131.982 442.902 132.157C442.707 132.332 442.463 132.447 442.202 132.485C441.941 132.524 441.674 132.486 441.435 132.375C441.196 132.265 440.996 132.087 440.859 131.864C440.722 131.642 440.655 131.384 440.665 131.123C440.676 130.863 440.765 130.612 440.92 130.401C441.076 130.19 441.291 130.029 441.538 129.939C441.786 129.848 442.055 129.832 442.312 129.892C442.485 129.931 442.649 130.004 442.794 130.106C442.938 130.209 443.06 130.339 443.153 130.489C443.245 130.639 443.306 130.806 443.331 130.98C443.357 131.154 443.346 131.331 443.301 131.501V131.501Z" fill="#779BFF"/>
<path fill-rule="evenodd" clip-rule="evenodd" d="M416.951 35.3609C416.86 35.7 416.637 35.9897 416.33 36.1662C416.023 36.3427 415.658 36.3915 415.314 36.302C414.971 36.2124 414.677 35.9918 414.499 35.6887C414.32 35.3856 414.27 35.0248 414.361 34.6857C414.406 34.5178 414.484 34.3602 414.591 34.222C414.697 34.0839 414.83 33.9678 414.982 33.8804C415.134 33.793 415.302 33.7361 415.476 33.7128C415.651 33.6895 415.828 33.7003 415.998 33.7446C416.168 33.789 416.328 33.8659 416.468 33.9712C416.607 34.0764 416.725 34.2078 416.814 34.3579C416.902 34.508 416.96 34.6738 416.983 34.8459C417.007 35.018 416.996 35.193 416.951 35.3609Z" fill="#779BFF"/>
<path fill-rule="evenodd" clip-rule="evenodd" d="M323.264 309.744C323.218 309.912 323.14 310.07 323.032 310.208C322.925 310.346 322.791 310.461 322.638 310.548C322.486 310.635 322.317 310.691 322.142 310.713C321.967 310.735 321.79 310.723 321.62 310.678C321.45 310.633 321.29 310.556 321.15 310.451C321.01 310.346 320.893 310.215 320.804 310.065C320.716 309.914 320.658 309.749 320.635 309.577C320.611 309.404 320.622 309.229 320.667 309.062C320.712 308.894 320.79 308.736 320.896 308.598C321.003 308.46 321.136 308.344 321.288 308.256C321.44 308.169 321.608 308.112 321.782 308.089C321.956 308.065 322.134 308.076 322.304 308.12C322.648 308.212 322.942 308.433 323.122 308.737C323.302 309.041 323.353 309.403 323.264 309.744V309.744Z" fill="#779BFF"/>
<path fill-rule="evenodd" clip-rule="evenodd" d="M140.139 156.618C140.048 156.957 139.824 157.246 139.517 157.423C139.211 157.599 138.845 157.648 138.502 157.559C138.158 157.469 137.865 157.249 137.686 156.945C137.507 156.642 137.458 156.282 137.549 155.942C137.639 155.603 137.863 155.314 138.17 155.137C138.477 154.961 138.842 154.912 139.186 155.001C139.529 155.091 139.822 155.311 140.001 155.615C140.18 155.918 140.229 156.279 140.139 156.618Z" fill="#779BFF"/>
<path fill-rule="evenodd" clip-rule="evenodd" d="M138.567 76.7713C138.501 77.0245 138.36 77.2528 138.163 77.427C137.966 77.6013 137.72 77.7139 137.458 77.7504C137.196 77.787 136.928 77.7459 136.69 77.6324C136.451 77.5189 136.252 77.338 136.118 77.1127C135.983 76.8874 135.919 76.6278 135.934 76.3667C135.949 76.1056 136.043 75.8548 136.202 75.6459C136.361 75.4371 136.58 75.2797 136.83 75.1936C137.08 75.1075 137.35 75.0965 137.607 75.1622C137.95 75.2501 138.244 75.4689 138.424 75.7706C138.604 76.0723 138.656 76.4322 138.567 76.7713V76.7713Z" fill="#779BFF"/>
<path d="M87.4969 66.1384C88.2362 66.1384 88.8355 65.5466 88.8355 64.8166C88.8355 64.0867 88.2362 63.4949 87.4969 63.4949C86.7576 63.4949 86.1583 64.0867 86.1583 64.8166C86.1583 65.5466 86.7576 66.1384 87.4969 66.1384Z" fill="#779BFF"/>
<path fill-rule="evenodd" clip-rule="evenodd" d="M268.876 35.0449C268.81 35.2981 268.67 35.5263 268.472 35.7006C268.275 35.8749 268.029 35.9875 267.767 36.024C267.505 36.0605 267.238 36.0195 266.999 35.9059C266.76 35.7924 266.561 35.6116 266.427 35.3863C266.292 35.1609 266.229 34.9013 266.244 34.6402C266.259 34.3791 266.352 34.1283 266.511 33.9195C266.671 33.7107 266.889 33.5533 267.139 33.4671C267.389 33.381 267.66 33.3701 267.916 33.4357C268.259 33.5236 268.553 33.7425 268.733 34.0442C268.913 34.3458 268.965 34.7057 268.876 35.0449Z" fill="#779BFF"/>
<path fill-rule="evenodd" clip-rule="evenodd" d="M386.018 30.0302C385.972 30.1983 385.894 30.3559 385.786 30.4939C385.679 30.6319 385.545 30.7476 385.392 30.8343C385.239 30.9211 385.071 30.9772 384.896 30.9995C384.721 31.0218 384.544 31.0097 384.374 30.9641C384.118 30.8956 383.889 30.754 383.716 30.557C383.542 30.3601 383.431 30.1168 383.397 29.8577C383.363 29.5987 383.408 29.3355 383.525 29.1015C383.643 28.8675 383.828 28.6731 384.057 28.5429C384.287 28.4126 384.55 28.3524 384.814 28.3697C385.078 28.3871 385.331 28.4813 385.54 28.6405C385.75 28.7996 385.907 29.0165 385.992 29.2639C386.077 29.5112 386.086 29.7779 386.018 30.0302V30.0302Z" fill="#779BFF"/>
<path fill-rule="evenodd" clip-rule="evenodd" d="M99.6752 157.652C99.5845 157.991 99.3611 158.281 99.0541 158.457C98.7471 158.634 98.3817 158.683 98.0383 158.593C97.6949 158.504 97.4015 158.283 97.2228 157.98C97.0441 157.677 96.9946 157.316 97.0853 156.977C97.1302 156.809 97.2081 156.651 97.3147 156.513C97.4213 156.375 97.5543 156.259 97.7063 156.172C97.8583 156.084 98.0263 156.027 98.2006 156.004C98.3749 155.981 98.5521 155.992 98.7222 156.036C98.8922 156.08 99.0517 156.157 99.1917 156.262C99.3316 156.368 99.4492 156.499 99.5377 156.649C99.6262 156.799 99.6839 156.965 99.7074 157.137C99.731 157.309 99.7201 157.484 99.6752 157.652Z" fill="#779BFF"/>
<path fill-rule="evenodd" clip-rule="evenodd" d="M88.5154 60.9946C88.446 61.2466 88.3026 61.4727 88.1031 61.6444C87.9037 61.816 87.6573 61.9254 87.3949 61.9588C87.1326 61.9923 86.8661 61.9482 86.6291 61.8322C86.3921 61.7162 86.1952 61.5334 86.0633 61.307C85.9314 61.0806 85.8704 60.8206 85.888 60.56C85.9056 60.2994 86.001 60.0498 86.1622 59.8426C86.3233 59.6355 86.543 59.4802 86.7935 59.3963C87.044 59.3123 87.3141 59.3036 87.5696 59.3711C87.7409 59.4143 87.9017 59.491 88.0424 59.5966C88.1832 59.7022 88.3012 59.8345 88.3893 59.9858C88.4775 60.1372 88.534 60.3044 88.5557 60.4776C88.5773 60.6509 88.5636 60.8266 88.5154 60.9946Z" fill="#779BFF"/>
<path fill-rule="evenodd" clip-rule="evenodd" d="M159.388 79.4726C159.297 79.8117 159.074 80.1014 158.767 80.2779C158.46 80.4544 158.095 80.5032 157.751 80.4137C157.408 80.3241 157.114 80.1035 156.936 79.8004C156.757 79.4973 156.708 79.1365 156.798 78.7974C156.843 78.6295 156.921 78.4719 157.028 78.3337C157.134 78.1956 157.267 78.0795 157.419 77.9921C157.571 77.9047 157.739 77.8477 157.913 77.8245C158.088 77.8012 158.265 77.812 158.435 77.8563C158.605 77.9007 158.765 77.9776 158.905 78.0829C159.045 78.1881 159.162 78.3195 159.251 78.4696C159.339 78.6197 159.397 78.7855 159.42 78.9576C159.444 79.1297 159.433 79.3047 159.388 79.4726V79.4726Z" fill="#779BFF"/>
<path fill-rule="evenodd" clip-rule="evenodd" d="M287.791 58.0059C287.746 58.174 287.667 58.3316 287.56 58.4696C287.452 58.6076 287.318 58.7233 287.166 58.81C287.013 58.8968 286.844 58.9529 286.669 58.9752C286.495 58.9974 286.317 58.9854 286.147 58.9398C285.977 58.8954 285.818 58.8185 285.678 58.7132C285.538 58.608 285.42 58.4766 285.332 58.3265C285.243 58.1764 285.185 58.0106 285.162 57.8385C285.138 57.6664 285.149 57.4914 285.194 57.3235C285.239 57.1556 285.317 56.998 285.424 56.8599C285.53 56.7217 285.663 56.6056 285.815 56.5182C285.967 56.4308 286.135 56.3739 286.309 56.3506C286.484 56.3273 286.661 56.3381 286.831 56.3824C287.175 56.4736 287.469 56.6952 287.649 56.9992C287.829 57.3032 287.88 57.665 287.791 58.0059Z" fill="#779BFF"/>
<path fill-rule="evenodd" clip-rule="evenodd" d="M376.837 212.871C376.748 213.21 376.526 213.5 376.221 213.678C375.915 213.855 375.551 213.906 375.207 213.819C375.037 213.775 374.878 213.698 374.738 213.592C374.598 213.487 374.48 213.356 374.392 213.206C374.303 213.056 374.246 212.89 374.222 212.718C374.198 212.546 374.209 212.371 374.254 212.203C374.299 212.035 374.377 211.877 374.484 211.739C374.59 211.601 374.723 211.485 374.875 211.397C375.027 211.31 375.195 211.253 375.37 211.23C375.544 211.206 375.721 211.217 375.891 211.262C376.061 211.305 376.22 211.381 376.36 211.486C376.499 211.59 376.617 211.721 376.704 211.871C376.792 212.021 376.849 212.186 376.872 212.358C376.895 212.529 376.883 212.704 376.837 212.871V212.871Z" fill="#779BFF"/>
<path fill-rule="evenodd" clip-rule="evenodd" d="M185.374 68.3801C185.329 68.5482 185.25 68.7057 185.143 68.8437C185.035 68.9817 184.901 69.0974 184.749 69.1842C184.596 69.2709 184.427 69.327 184.252 69.3493C184.078 69.3716 183.9 69.3596 183.73 69.3139C183.387 69.2244 183.093 69.0038 182.915 68.7007C182.736 68.3976 182.686 68.0368 182.777 67.6976C182.868 67.3585 183.091 67.0689 183.398 66.8924C183.705 66.7159 184.071 66.6671 184.414 66.7566C184.758 66.8477 185.052 67.0693 185.232 67.3733C185.412 67.6773 185.463 68.0391 185.374 68.3801Z" fill="#779BFF"/>
<path fill-rule="evenodd" clip-rule="evenodd" d="M67.8981 12.0982C67.8526 12.2663 67.7738 12.4239 67.6665 12.5618C67.5591 12.6998 67.4252 12.8155 67.2724 12.9023C67.1197 12.9891 66.9511 13.0452 66.7763 13.0674C66.6015 13.0897 66.424 13.0777 66.254 13.0321C65.9232 12.9333 65.6439 12.7121 65.4745 12.4146C65.3051 12.1171 65.2588 11.7665 65.3453 11.4361C65.4318 11.1057 65.6443 10.8212 65.9384 10.642C66.2325 10.4628 66.5854 10.4028 66.9233 10.4747C67.2703 10.5627 67.5679 10.7831 67.7506 11.0874C67.9334 11.3918 67.9864 11.7553 67.8981 12.0982Z" fill="#779BFF"/>
<path d="M368.136 149.074C368.875 149.074 369.475 148.482 369.475 147.752C369.475 147.022 368.875 146.43 368.136 146.43C367.397 146.43 366.797 147.022 366.797 147.752C366.797 148.482 367.397 149.074 368.136 149.074Z" fill="#779BFF"/>
<path d="M198.775 2.64354C199.514 2.64354 200.113 2.05176 200.113 1.32177C200.113 0.591776 199.514 0 198.775 0C198.035 0 197.436 0.591776 197.436 1.32177C197.436 2.05176 198.035 2.64354 198.775 2.64354Z" fill="#779BFF"/>
<path fill-rule="evenodd" clip-rule="evenodd" d="M444.48 222.713C444.442 222.887 444.368 223.052 444.264 223.198C444.16 223.343 444.027 223.466 443.874 223.56C443.72 223.653 443.549 223.715 443.371 223.742C443.193 223.768 443.011 223.759 442.836 223.715C442.661 223.67 442.498 223.591 442.355 223.482C442.212 223.374 442.093 223.238 442.004 223.083C441.916 222.927 441.86 222.756 441.84 222.579C441.821 222.402 441.837 222.223 441.89 222.052C441.99 221.726 442.214 221.45 442.515 221.283C442.816 221.115 443.171 221.07 443.506 221.155C443.84 221.24 444.129 221.45 444.31 221.741C444.492 222.031 444.552 222.38 444.48 222.713Z" fill="#779BFF"/>
<path d="M611.618 169.945C612.185 167.828 610.906 165.658 608.761 165.098C606.617 164.539 604.42 165.802 603.853 167.919C603.287 170.036 604.566 172.206 606.71 172.766C608.854 173.325 611.052 172.062 611.618 169.945Z" fill="#779BFF"/>
<path d="M712.216 242.699C712.782 240.582 711.503 238.412 709.359 237.853C707.215 237.293 705.017 238.556 704.451 240.673C703.884 242.791 705.163 244.961 707.307 245.52C709.452 246.08 711.649 244.817 712.216 242.699Z" fill="#779BFF"/>
<path d="M762.037 147.368C762.437 145.872 761.534 144.339 760.019 143.943C758.504 143.548 756.951 144.44 756.551 145.936C756.151 147.432 757.054 148.965 758.569 149.361C760.084 149.756 761.637 148.864 762.037 147.368Z" fill="#779BFF"/>
<path fill-rule="evenodd" clip-rule="evenodd" d="M672.201 162.624C672.697 162.325 673.272 162.179 673.853 162.205C674.433 162.232 674.992 162.43 675.458 162.773C675.924 163.116 676.275 163.589 676.466 164.131C676.657 164.673 676.679 165.26 676.53 165.814C676.381 166.369 676.067 166.867 675.628 167.243C675.19 167.62 674.647 167.859 674.07 167.928C673.493 167.998 672.908 167.895 672.391 167.633C671.874 167.371 671.448 166.963 671.168 166.46C670.807 165.812 670.713 165.052 670.906 164.337C671.098 163.623 671.562 163.009 672.201 162.624V162.624Z" fill="#779BFF"/>
<path d="M673.859 236.047C674.599 236.047 675.198 235.455 675.198 234.725C675.198 233.995 674.599 233.404 673.859 233.404C673.12 233.404 672.521 233.995 672.521 234.725C672.521 235.455 673.12 236.047 673.859 236.047Z" fill="#779BFF"/>
<path d="M634.487 101.873C634.857 101.873 635.156 101.577 635.156 101.212C635.156 100.847 634.857 100.552 634.487 100.552C634.118 100.552 633.818 100.847 633.818 101.212C633.818 101.577 634.118 101.873 634.487 101.873Z" fill="#779BFF"/>
<path d="M581.569 90.0909C582.308 90.0909 582.908 89.4991 582.908 88.7692C582.908 88.0392 582.308 87.4474 581.569 87.4474C580.83 87.4474 580.23 88.0392 580.23 88.7692C580.23 89.4991 580.83 90.0909 581.569 90.0909Z" fill="#779BFF"/>
<path d="M709.245 308.609C709.984 308.609 710.583 308.017 710.583 307.287C710.583 306.557 709.984 305.965 709.245 305.965C708.505 305.965 707.906 306.557 707.906 307.287C707.906 308.017 708.505 308.609 709.245 308.609Z" fill="#779BFF"/>
<path d="M694.113 202.425C694.852 202.425 695.451 201.833 695.451 201.103C695.451 200.373 694.852 199.781 694.113 199.781C693.373 199.781 692.774 200.373 692.774 201.103C692.774 201.833 693.373 202.425 694.113 202.425Z" fill="#779BFF"/>
<path d="M545.878 154.117C546.617 154.117 547.217 153.526 547.217 152.796C547.217 152.066 546.617 151.474 545.878 151.474C545.139 151.474 544.539 152.066 544.539 152.796C544.539 153.526 545.139 154.117 545.878 154.117Z" fill="#779BFF"/>
<path d="M734.431 205.988C734.8 205.988 735.1 205.692 735.1 205.327C735.1 204.962 734.8 204.667 734.431 204.667C734.061 204.667 733.761 204.962 733.761 205.327C733.761 205.692 734.061 205.988 734.431 205.988Z" fill="#779BFF"/>
<path d="M546.387 321.598C546.757 321.598 547.057 321.302 547.057 320.937C547.057 320.572 546.757 320.276 546.387 320.276C546.018 320.276 545.718 320.572 545.718 320.937C545.718 321.302 546.018 321.598 546.387 321.598Z" fill="#779BFF"/>
<path d="M567.019 195.959C567.758 195.959 568.358 195.367 568.358 194.637C568.358 193.907 567.758 193.315 567.019 193.315C566.28 193.315 565.681 193.907 565.681 194.637C565.681 195.367 566.28 195.959 567.019 195.959Z" fill="#779BFF"/>
<path d="M600.731 161.833C602.298 161.833 603.568 160.579 603.568 159.031C603.568 157.484 602.298 156.23 600.731 156.23C599.164 156.23 597.894 157.484 597.894 159.031C597.894 160.579 599.164 161.833 600.731 161.833Z" fill="#779BFF"/>
<path d="M629.773 150.626C630.512 150.626 631.112 150.034 631.112 149.304C631.112 148.574 630.512 147.982 629.773 147.982C629.034 147.982 628.434 148.574 628.434 149.304C628.434 150.034 629.034 150.626 629.773 150.626Z" fill="#779BFF"/>
<path d="M614.205 139.964C614.944 139.964 615.543 139.373 615.543 138.643C615.543 137.913 614.944 137.321 614.205 137.321C613.465 137.321 612.866 137.913 612.866 138.643C612.866 139.373 613.465 139.964 614.205 139.964Z" fill="#779BFF"/>
<path fill-rule="evenodd" clip-rule="evenodd" d="M592.569 143.873C592.645 143.829 592.73 143.801 592.817 143.79C592.904 143.779 592.993 143.785 593.078 143.808C593.163 143.83 593.243 143.869 593.313 143.922C593.383 143.975 593.442 144.042 593.485 144.117C593.529 144.193 593.558 144.276 593.569 144.362C593.581 144.449 593.575 144.536 593.552 144.62C593.529 144.704 593.489 144.783 593.435 144.852C593.382 144.921 593.315 144.979 593.238 145.022C593.084 145.11 592.9 145.133 592.729 145.088C592.557 145.042 592.41 144.93 592.321 144.778C592.233 144.626 592.209 144.445 592.255 144.275C592.302 144.105 592.414 143.961 592.569 143.873V143.873Z" fill="#779BFF"/>
<path d="M607.395 148.255C607.765 148.255 608.064 147.959 608.064 147.594C608.064 147.229 607.765 146.933 607.395 146.933C607.026 146.933 606.726 147.229 606.726 147.594C606.726 147.959 607.026 148.255 607.395 148.255Z" fill="#779BFF"/>
<path fill-rule="evenodd" clip-rule="evenodd" d="M585.745 153.471C586.052 153.294 586.417 153.244 586.761 153.333C587.105 153.422 587.399 153.642 587.578 153.945C587.758 154.248 587.808 154.609 587.718 154.949C587.628 155.288 587.405 155.578 587.098 155.755C586.946 155.843 586.778 155.9 586.604 155.924C586.43 155.948 586.252 155.937 586.082 155.893C585.912 155.849 585.752 155.773 585.612 155.668C585.471 155.563 585.354 155.431 585.265 155.281C585.176 155.131 585.118 154.966 585.094 154.793C585.07 154.621 585.081 154.446 585.125 154.278C585.17 154.11 585.247 153.952 585.354 153.814C585.46 153.675 585.593 153.559 585.745 153.471V153.471Z" fill="#779BFF"/>
<path fill-rule="evenodd" clip-rule="evenodd" d="M627.387 325.995C627.882 325.693 628.457 325.545 629.037 325.569C629.618 325.594 630.179 325.789 630.646 326.131C631.113 326.472 631.466 326.944 631.66 327.486C631.853 328.027 631.877 328.614 631.73 329.169C631.582 329.724 631.27 330.223 630.832 330.602C630.395 330.98 629.853 331.22 629.276 331.291C628.699 331.363 628.113 331.262 627.595 331.001C627.077 330.741 626.65 330.333 626.368 329.831C626.006 329.185 625.91 328.426 626.1 327.712C626.29 326.997 626.75 326.383 627.387 325.995V325.995Z" fill="#779BFF"/>
<path d="M654.624 249.582C656.191 249.582 657.462 248.328 657.462 246.781C657.462 245.233 656.191 243.979 654.624 243.979C653.057 243.979 651.787 245.233 651.787 246.781C651.787 248.328 653.057 249.582 654.624 249.582Z" fill="#779BFF"/>
<path d="M160.668 214.983C162.235 214.983 163.506 213.728 163.506 212.181C163.506 210.634 162.235 209.379 160.668 209.379C159.102 209.379 157.831 210.634 157.831 212.181C157.831 213.728 159.102 214.983 160.668 214.983Z" fill="#779BFF"/>
<path fill-rule="evenodd" clip-rule="evenodd" d="M609.374 360.839C609.731 360.636 610.141 360.542 610.552 360.567C610.963 360.593 611.357 360.738 611.685 360.984C612.014 361.23 612.261 361.566 612.397 361.95C612.533 362.334 612.551 362.749 612.449 363.143C612.347 363.537 612.13 363.893 611.825 364.166C611.519 364.439 611.139 364.617 610.732 364.678C610.324 364.738 609.908 364.679 609.534 364.508C609.161 364.336 608.847 364.059 608.632 363.712C608.482 363.478 608.381 363.215 608.337 362.941C608.293 362.667 608.307 362.387 608.376 362.118C608.446 361.849 608.57 361.597 608.741 361.377C608.913 361.157 609.128 360.974 609.374 360.839V360.839Z" fill="#779BFF"/>
<path fill-rule="evenodd" clip-rule="evenodd" d="M630.733 334.286C630.883 334.196 631.05 334.137 631.224 334.113C631.398 334.088 631.575 334.098 631.744 334.142C631.914 334.187 632.073 334.264 632.212 334.37C632.35 334.476 632.466 334.609 632.552 334.76C632.641 334.91 632.699 335.076 632.723 335.248C632.747 335.42 632.737 335.595 632.692 335.763C632.648 335.931 632.57 336.089 632.463 336.228C632.357 336.366 632.224 336.482 632.072 336.57C631.763 336.743 631.397 336.788 631.054 336.697C630.711 336.605 630.418 336.384 630.239 336.082C630.065 335.778 630.019 335.419 630.112 335.083C630.204 334.747 630.428 334.46 630.733 334.286V334.286Z" fill="#779BFF"/>
<path d="M657.869 320.003C658.608 320.003 659.207 319.411 659.207 318.681C659.207 317.951 658.608 317.359 657.869 317.359C657.13 317.359 656.53 317.951 656.53 318.681C656.53 319.411 657.13 320.003 657.869 320.003Z" fill="#779BFF"/>
<path fill-rule="evenodd" clip-rule="evenodd" d="M701.577 247.629C701.884 247.451 702.249 247.402 702.593 247.491C702.937 247.58 703.231 247.8 703.41 248.103C703.59 248.406 703.64 248.766 703.55 249.106C703.46 249.445 703.237 249.736 702.93 249.913C702.621 250.085 702.255 250.131 701.912 250.04C701.569 249.948 701.276 249.727 701.097 249.424C701.008 249.276 700.95 249.111 700.926 248.94C700.902 248.769 700.913 248.595 700.958 248.428C701.002 248.261 701.08 248.104 701.186 247.967C701.293 247.83 701.425 247.715 701.577 247.629V247.629Z" fill="#779BFF"/>
<path d="M642.3 309.341C643.04 309.341 643.639 308.75 643.639 308.02C643.639 307.29 643.04 306.698 642.3 306.698C641.561 306.698 640.962 307.29 640.962 308.02C640.962 308.75 641.561 309.341 642.3 309.341Z" fill="#779BFF"/>
<path d="M620.999 314.486C621.369 314.486 621.669 314.19 621.669 313.825C621.669 313.46 621.369 313.164 620.999 313.164C620.63 313.164 620.33 313.46 620.33 313.825C620.33 314.19 620.63 314.486 620.999 314.486Z" fill="#779BFF"/>
<path fill-rule="evenodd" clip-rule="evenodd" d="M581.831 359.373C581.986 359.289 582.168 359.267 582.339 359.313C582.51 359.358 582.657 359.467 582.748 359.617C582.813 359.731 582.843 359.861 582.834 359.991C582.825 360.121 582.777 360.246 582.696 360.349C582.615 360.452 582.505 360.53 582.38 360.571C582.255 360.613 582.12 360.617 581.992 360.583C581.864 360.549 581.75 360.479 581.663 360.38C581.576 360.282 581.52 360.161 581.503 360.031C581.486 359.902 581.508 359.77 581.566 359.653C581.624 359.536 581.717 359.439 581.831 359.373Z" fill="#779BFF"/>
<path fill-rule="evenodd" clip-rule="evenodd" d="M654.421 389.059C654.575 388.971 654.758 388.948 654.93 388.993C655.102 389.039 655.248 389.151 655.337 389.303C655.426 389.455 655.45 389.636 655.403 389.806C655.357 389.976 655.244 390.121 655.09 390.208C654.935 390.296 654.752 390.319 654.58 390.274C654.408 390.228 654.262 390.116 654.173 389.964C654.084 389.812 654.061 389.631 654.107 389.461C654.153 389.291 654.266 389.146 654.421 389.059V389.059Z" fill="#779BFF"/>
<path d="M635.491 317.632C635.861 317.632 636.16 317.336 636.16 316.971C636.16 316.606 635.861 316.311 635.491 316.311C635.121 316.311 634.822 316.606 634.822 316.971C634.822 317.336 635.121 317.632 635.491 317.632Z" fill="#779BFF"/>
<path fill-rule="evenodd" clip-rule="evenodd" d="M613.841 322.848C614.148 322.671 614.513 322.621 614.857 322.71C615.201 322.799 615.495 323.019 615.674 323.322C615.853 323.625 615.904 323.986 615.814 324.326C615.724 324.665 615.501 324.955 615.194 325.133C615.042 325.22 614.874 325.278 614.7 325.301C614.525 325.325 614.348 325.315 614.178 325.271C614.008 325.226 613.848 325.15 613.708 325.045C613.567 324.94 613.449 324.809 613.361 324.659C613.272 324.509 613.214 324.343 613.19 324.171C613.166 323.998 613.176 323.823 613.221 323.655C613.266 323.487 613.343 323.329 613.45 323.191C613.556 323.052 613.689 322.936 613.841 322.848V322.848Z" fill="#779BFF"/>
<path fill-rule="evenodd" clip-rule="evenodd" d="M525.741 299.025C525.893 298.937 526.061 298.88 526.235 298.856C526.409 298.832 526.587 298.843 526.757 298.887C526.927 298.931 527.087 299.007 527.228 299.113C527.368 299.218 527.486 299.349 527.574 299.499C527.749 299.805 527.795 300.166 527.702 300.504C527.61 300.843 527.386 301.132 527.08 301.309C526.929 301.399 526.762 301.458 526.589 301.482C526.415 301.507 526.238 301.497 526.068 301.453C525.899 301.408 525.74 301.331 525.601 301.225C525.462 301.119 525.347 300.986 525.261 300.835C525.172 300.685 525.114 300.52 525.089 300.347C525.065 300.175 525.076 300 525.121 299.832C525.165 299.664 525.243 299.506 525.349 299.367C525.456 299.229 525.589 299.113 525.741 299.025V299.025Z" fill="#779BFF"/>
<path fill-rule="evenodd" clip-rule="evenodd" d="M643.595 375.955C643.747 375.867 643.915 375.809 644.09 375.785C644.264 375.762 644.441 375.772 644.612 375.816C644.782 375.86 644.942 375.937 645.082 376.042C645.222 376.147 645.34 376.279 645.429 376.429C645.603 376.734 645.65 377.095 645.557 377.434C645.464 377.773 645.241 378.062 644.934 378.239C644.629 378.391 644.277 378.422 643.949 378.326C643.621 378.229 643.344 378.013 643.172 377.721C643.001 377.429 642.95 377.083 643.028 376.755C643.107 376.426 643.31 376.14 643.595 375.955V375.955Z" fill="#779BFF"/>
</svg>
