<svg xmlns="http://www.w3.org/2000/svg" xmlns:xlink="http://www.w3.org/1999/xlink" width="1711" height="1317" fill="none" xmlns:v="https://vecta.io/nano"><style><![CDATA[.B{fill-rule:evenodd}.C{opacity:.4}.D{fill:#bac2d6}.E{opacity:.15}]]></style><g fill="#779bff"><path d="M1392.48 462.992c-.2.756-.63 1.437-1.22 1.956a4 4 0 0 1-2.11.962 4.08 4.08 0 0 1-2.3-.355 3.99 3.99 0 0 1-1.71-1.553c-.4-.673-.6-1.449-.55-2.23.04-.781.31-1.532.79-2.159.47-.627 1.12-1.102 1.87-1.365.74-.263 1.55-.302 2.32-.112a4.04 4.04 0 0 1 2.48 1.828 3.88 3.88 0 0 1 .52 1.471 3.72 3.72 0 0 1-.09 1.557z" class="B"/><path d="M1311.28 226.657c2.21 0 4.01-1.776 4.01-3.966s-1.8-3.965-4.01-3.965c-2.22 0-4.02 1.775-4.02 3.965s1.8 3.966 4.02 3.966z"/><path d="M1128.47 316.533a3.9 3.9 0 0 1-1.22 1.956 4 4 0 0 1-2.11.962 4.08 4.08 0 0 1-2.3-.355 3.99 3.99 0 0 1-1.71-1.553c-.4-.673-.59-1.449-.55-2.23s.31-1.532.79-2.159c.47-.627 1.12-1.102 1.87-1.365.74-.263 1.55-.302 2.32-.112a4.04 4.04 0 0 1 2.48 1.828 3.88 3.88 0 0 1 .52 1.471 3.72 3.72 0 0 1-.09 1.557zM994.248 128.519c-.199.758-.621 1.441-1.212 1.962s-1.326.859-2.111.969-1.585-.012-2.3-.351a3.99 3.99 0 0 1-1.717-1.551 3.92 3.92 0 0 1-.557-2.232 3.93 3.93 0 0 1 .79-2.162 4.01 4.01 0 0 1 1.872-1.365 4.06 4.06 0 0 1 2.325-.111 4.03 4.03 0 0 1 1.423.667c.425.312.783.705 1.053 1.155a3.92 3.92 0 0 1 .523 1.467c.074.518.044 1.046-.089 1.552h0zm-17.46 124.361a3.96 3.96 0 0 1-1.212 1.962 4.04 4.04 0 0 1-2.111.968c-.785.11-1.585-.012-2.3-.35a4 4 0 0 1-1.717-1.552 3.92 3.92 0 0 1-.557-2.232c.041-.781.316-1.534.79-2.161a4.02 4.02 0 0 1 1.872-1.366c.747-.263 1.556-.301 2.325-.111a4.03 4.03 0 0 1 1.423.667c.425.313.783.705 1.053 1.156a3.94 3.94 0 0 1 .523 1.466 3.93 3.93 0 0 1-.089 1.553h0zm165.902-5.001c-.2.758-.62 1.441-1.22 1.962a4.01 4.01 0 0 1-2.11.969 4.07 4.07 0 0 1-2.3-.351c-.71-.338-1.31-.878-1.71-1.552-.41-.673-.6-1.449-.56-2.231s.32-1.534.79-2.162 1.12-1.103 1.87-1.366 1.56-.301 2.33-.11c.51.127.99.354 1.42.666a4.04 4.04 0 0 1 1.05 1.156c.27.45.45.949.53 1.467a4.06 4.06 0 0 1-.09 1.552h0z" class="B"/><path d="M1436.1 494.014c1.57 0 2.84-1.255 2.84-2.802s-1.27-2.801-2.84-2.801-2.84 1.254-2.84 2.801 1.27 2.802 2.84 2.802zm-354.58-186.936c1.57 0 2.84-1.254 2.84-2.801s-1.27-2.802-2.84-2.802-2.84 1.254-2.84 2.802 1.27 2.801 2.84 2.801zm256.61 115.128c.4-1.496-.5-3.029-2.02-3.425-1.51-.395-3.06.497-3.46 1.993s.5 3.029 2.01 3.425c1.52.395 3.07-.497 3.47-1.993zm174.08-116.551c1.57 0 2.84-1.254 2.84-2.801s-1.27-2.802-2.84-2.802-2.84 1.255-2.84 2.802 1.27 2.801 2.84 2.801zm-28.66 115.496c1.56 0 2.84-1.255 2.84-2.802s-1.28-2.802-2.84-2.802c-1.57 0-2.84 1.255-2.84 2.802s1.27 2.802 2.84 2.802z"/><path d="M1325.9 384.985c-.15.523-.5.968-.97 1.237-.48.269-1.05.341-1.58.2a2.09 2.09 0 0 1-1.18-.978 2.04 2.04 0 0 1-.18-1.511c.13-.509.46-.948.91-1.228s.99-.378 1.52-.277c.26.068.52.189.74.355s.41.375.54.614a2.14 2.14 0 0 1 .27.774c.03.273.01.55-.07.814h0zm-127.34-64.63c-.14.528-.49.979-.97 1.254-.47.274-1.04.351-1.58.212-.53-.14-.99-.483-1.27-.954a2.03 2.03 0 0 1-.21-1.561 2.14 2.14 0 0 1 .35-.721c.17-.215.38-.396.61-.532a2.13 2.13 0 0 1 .77-.261c.27-.037.55-.02.81.049.27.069.52.188.74.352.21.164.4.368.53.601.14.234.23.492.27.76a1.97 1.97 0 0 1-.05.801zm-195.55 10.992a1.99 1.99 0 0 1-.36.721 2.09 2.09 0 0 1-.61.532 2.13 2.13 0 0 1-.77.261c-.27.037-.54.02-.81-.049a2.13 2.13 0 0 1-.73-.352c-.218-.164-.401-.368-.539-.601a2.04 2.04 0 0 1-.264-.76 2.02 2.02 0 0 1 .05-.801c.141-.528.488-.979.966-1.253a2.1 2.1 0 0 1 1.577-.212 2.07 2.07 0 0 1 1.27.953c.28.472.36 1.033.22 1.561zm12.2-45.62c-.1.393-.33.745-.64 1.013s-.69.438-1.1.49-.82-.017-1.19-.198a2.04 2.04 0 0 1-.88-.82c-.21-.353-.3-.759-.27-1.165s.18-.794.43-1.115c.26-.321.6-.561.99-.689a2.11 2.11 0 0 1 1.21-.031 2.17 2.17 0 0 1 .73.355c.21.165.39.37.53.603a2.04 2.04 0 0 1 .25.759 1.8 1.8 0 0 1-.06.798h0zm68.83-107.09c-.11.393-.33.746-.64 1.014s-.7.438-1.11.49-.82-.017-1.19-.198a2.04 2.04 0 0 1-.88-.82c-.2-.353-.3-.759-.27-1.165s.18-.794.43-1.115c.26-.322.6-.562.99-.69a2.11 2.11 0 0 1 1.21-.03c.53.145.98.49 1.25.961.28.471.35 1.029.21 1.553h0z" class="B"/><use xlink:href="#B"/><path d="M1329.83 418.665a1.55 1.55 0 0 1-.23.464 1.43 1.43 0 0 1-.4.34c-.15.087-.32.143-.49.165-.18.023-.36.011-.53-.035a1.22 1.22 0 0 1-.46-.224 1.36 1.36 0 0 1-.35-.386c-.09-.149-.14-.315-.17-.486a1.27 1.27 0 0 1 .04-.513 1.19 1.19 0 0 1 .23-.464c.1-.138.24-.254.39-.342s.32-.144.49-.167c.18-.023.35-.013.52.032s.33.121.47.226a1.36 1.36 0 0 1 .35.387c.09.15.15.316.17.488s.01.347-.03.515h0zm-6.74 30.318a1.32 1.32 0 0 1-.62.807 1.34 1.34 0 0 1-1.01.141c-.17-.044-.33-.121-.47-.226s-.26-.237-.34-.387c-.09-.15-.15-.316-.17-.488-.03-.172-.02-.347.03-.515a1.19 1.19 0 0 1 .23-.464c.1-.138.24-.254.39-.341a1.33 1.33 0 0 1 .49-.168c.18-.023.36-.012.53.032a1.28 1.28 0 0 1 .46.224c.14.105.26.236.35.385a1.4 1.4 0 0 1 .17.487 1.27 1.27 0 0 1-.04.513h0zm18.65-3.334a1.19 1.19 0 0 1-.23.464c-.1.138-.24.254-.39.34a1.33 1.33 0 0 1-.5.165 1.33 1.33 0 0 1-.52-.035c-.17-.044-.33-.121-.47-.226a1.36 1.36 0 0 1-.35-.387c-.08-.15-.14-.316-.17-.488a1.28 1.28 0 0 1 .04-.515 1.19 1.19 0 0 1 .23-.464c.1-.138.24-.254.39-.341a1.33 1.33 0 0 1 .49-.168c.18-.023.35-.013.52.032a1.34 1.34 0 0 1 .82.617 1.31 1.31 0 0 1 .14 1.006h0zm-36.08-3.42a1.19 1.19 0 0 1-.23.464c-.11.138-.24.254-.39.342s-.32.144-.49.167c-.18.024-.36.013-.53-.032s-.33-.121-.47-.226-.25-.237-.34-.387-.15-.316-.17-.488c-.03-.172-.01-.347.03-.515a1.31 1.31 0 0 1 .62-.805c.31-.177.67-.225 1.02-.136a1.34 1.34 0 0 1 .81.613c.18.304.23.664.14 1.003zm-389.749-55.433c-.044.167-.121.325-.227.462a1.33 1.33 0 0 1-.39.341c-.152.087-.319.143-.493.165s-.35.011-.519-.034a1.34 1.34 0 0 1-.816-.614c-.179-.303-.228-.664-.137-1.003s.314-.628.621-.805.672-.225 1.015-.136c.171.045.33.123.47.229s.257.238.345.389.144.317.167.49a1.3 1.3 0 0 1-.036.516h0zm436.089 39.7c-.05.171-.16.316-.31.405a.7.7 0 0 1-.52.069c-.17-.045-.32-.156-.4-.309-.09-.152-.12-.333-.07-.502a.69.69 0 0 1 .31-.402c.16-.087.34-.111.51-.065s.32.153.41.304a.63.63 0 0 1 .07.5zm-206.58 99.143a.8.8 0 0 1-.4.489.83.83 0 0 1-.62.077.82.82 0 0 1-.51-.378c-.11-.186-.15-.408-.1-.618a.86.86 0 0 1 .4-.501.87.87 0 0 1 .64-.089.85.85 0 0 1 .51.389.82.82 0 0 1 .08.631h0z" class="B"/><use xlink:href="#C"/><path d="M1052.43 339.394c-.04.169-.15.314-.3.403-.16.089-.34.114-.51.071-.17-.051-.32-.163-.41-.316a.68.68 0 0 1-.07-.503c.02-.084.06-.163.12-.232a.59.59 0 0 1 .2-.169.62.62 0 0 1 .25-.08.69.69 0 0 1 .26.021.7.7 0 0 1 .23.112.6.6 0 0 1 .17.193c.05.075.07.158.08.244s.01.173-.02.256zm221.42 57.072a.66.66 0 0 1-.31.404c-.16.089-.34.114-.52.07-.17-.046-.31-.157-.4-.309a.68.68 0 0 1-.07-.503c.05-.17.16-.314.32-.402.15-.087.33-.111.5-.065a.69.69 0 0 1 .41.307c.09.15.11.328.07.498h0zm-92.33-17.86c-.05.17-.16.315-.32.404a.68.68 0 0 1-.51.07c-.17-.047-.31-.158-.4-.308a.62.62 0 0 1-.06-.497c.02-.085.05-.165.11-.235a.58.58 0 0 1 .19-.174.68.68 0 0 1 .25-.084.64.64 0 0 1 .26.019c.17.044.32.153.41.304s.11.331.07.501h0zm-223.065-54.572c-.048.17-.161.316-.316.404a.69.69 0 0 1-.513.07.67.67 0 0 1-.4-.308.66.66 0 0 1 .239-.905c.076-.045.161-.073.248-.085a.68.68 0 0 1 .262.019c.17.047.314.157.404.307a.67.67 0 0 1 .076.498h0zm-22.872-8.249a.64.64 0 0 1-.113.229c-.052.069-.118.126-.193.17a.68.68 0 0 1-.244.083.66.66 0 0 1-.258-.015.68.68 0 0 1-.232-.111c-.069-.052-.127-.117-.171-.191a.65.65 0 0 1-.085-.241.64.64 0 0 1 .016-.254c.021-.083.06-.161.112-.229a.65.65 0 0 1 .193-.169.66.66 0 0 1 .244-.084.68.68 0 0 1 .258.016c.084.021.163.059.232.111a.65.65 0 0 1 .256.431.64.64 0 0 1-.015.254zm403.917 118.6a.69.69 0 0 1-.11.236c-.06.07-.12.129-.2.173a.68.68 0 0 1-.25.084c-.09.011-.18.004-.27-.019-.17-.046-.31-.157-.4-.309a.68.68 0 0 1-.07-.503.69.69 0 0 1 .31-.402c.16-.087.34-.111.51-.065a.69.69 0 0 1 .41.307c.09.15.11.328.07.498h0zm-122.75-31.338c-.02.085-.06.165-.11.235-.06.07-.12.129-.2.173a.68.68 0 0 1-.25.085c-.09.011-.17.004-.26-.019a.71.71 0 0 1-.23-.115c-.07-.053-.13-.119-.18-.194-.04-.076-.07-.159-.08-.245a.75.75 0 0 1 .02-.258.66.66 0 0 1 .11-.232.74.74 0 0 1 .2-.17c.08-.043.16-.071.25-.082s.17-.006.26.017c.17.047.31.158.4.308s.11.329.07.497h0z" class="B"/><use xlink:href="#C" x="-150.71" y="-26.18"/><path d="M1348.66 415.935a1.33 1.33 0 0 0 1.33-1.322 1.33 1.33 0 0 0-1.33-1.321 1.33 1.33 0 0 0-1.34 1.321c0 .73.6 1.322 1.34 1.322z"/><path d="M1290.89 398.175a1.25 1.25 0 0 1-.4.656 1.34 1.34 0 0 1-.71.323c-.26.037-.53-.004-.77-.118a1.41 1.41 0 0 1-.57-.519c-.13-.226-.2-.485-.18-.746.01-.261.11-.512.27-.721s.38-.366.63-.452a1.34 1.34 0 0 1 .77-.032c.35.088.64.307.82.609a1.3 1.3 0 0 1 .14 1h0zm-231.2-118.196c-.09.339-.31.63-.61.807a1.37 1.37 0 0 1-1.02.142c-.19-.017-.38-.077-.55-.174s-.32-.232-.43-.392-.19-.342-.22-.534-.02-.388.03-.575c.06-.188.15-.361.28-.508s.29-.264.47-.343a1.35 1.35 0 0 1 .57-.113c.2.005.39.052.57.139a1.33 1.33 0 0 1 .77.596c.17.288.22.63.14.955h0zm296.9-28.105a1.4 1.4 0 0 1-.4.656 1.37 1.37 0 0 1-.7.328 1.36 1.36 0 0 1-.77-.11 1.35 1.35 0 0 1-.58-.511 1.37 1.37 0 0 1-.19-.741c.01-.26.1-.512.25-.722a1.35 1.35 0 0 1 .62-.462c.25-.091.52-.107.78-.047.17.039.33.111.48.214.14.103.26.233.36.383.09.15.15.317.18.491a1.52 1.52 0 0 1-.03.521h0zm-26.35-96.14a1.36 1.36 0 0 1-.63.805c-.3.177-.67.225-1.01.136a1.36 1.36 0 0 1-.82-.613 1.26 1.26 0 0 1-.13-1.003c.04-.168.12-.326.22-.464.11-.138.24-.254.4-.342.15-.087.32-.144.49-.167.18-.024.35-.013.52.032s.33.121.47.226a1.36 1.36 0 0 1 .35.387c.09.15.14.316.17.488.02.172.01.347-.03.515zm-93.69 274.383a1.55 1.55 0 0 1-.23.464c-.11.138-.24.253-.4.34-.15.087-.32.143-.49.165-.18.022-.36.01-.53-.035a1.35 1.35 0 0 1-.47-.227c-.14-.105-.25-.236-.34-.386s-.15-.316-.17-.488-.01-.348.03-.515c.05-.168.12-.326.23-.464s.24-.254.39-.342.32-.144.5-.167c.17-.024.35-.013.52.032.34.091.64.312.82.616s.23.666.14 1.007h0zm-183.13-153.126a1.31 1.31 0 0 1-.62.805 1.35 1.35 0 0 1-1.01.136 1.33 1.33 0 0 1-.82-.614c-.18-.303-.23-.663-.14-1.003s.32-.628.62-.805c.31-.176.68-.225 1.02-.136a1.36 1.36 0 0 1 .82.614 1.35 1.35 0 0 1 .13 1.003zm-1.57-79.847c-.06.253-.21.482-.4.656-.2.174-.45.287-.71.323s-.53-.004-.77-.118c-.23-.113-.43-.294-.57-.52a1.3 1.3 0 0 1-.18-.746c.01-.261.11-.511.27-.72s.37-.367.62-.453.52-.097.78-.031c.34.088.64.307.82.608a1.3 1.3 0 0 1 .14 1.001h0z" class="B"/><path d="M1000.78 186.512c.74 0 1.34-.592 1.34-1.322s-.6-1.322-1.34-1.322a1.33 1.33 0 0 0-1.338 1.322 1.33 1.33 0 0 0 1.338 1.322z"/><path d="M1182.16 155.418a1.4 1.4 0 0 1-.4.656c-.2.174-.45.287-.71.323s-.53-.004-.77-.118a1.35 1.35 0 0 1-.57-.52c-.13-.225-.2-.485-.18-.746a1.27 1.27 0 0 1 .89-1.173c.25-.086.52-.097.78-.031.34.088.64.307.82.608a1.3 1.3 0 0 1 .14 1.001zm117.14-5.015a1.19 1.19 0 0 1-.23.464 1.39 1.39 0 0 1-.39.34 1.37 1.37 0 0 1-.5.165 1.33 1.33 0 0 1-.52-.035c-.26-.068-.49-.21-.66-.407s-.28-.44-.32-.699a1.32 1.32 0 0 1 .13-.757c.12-.234.3-.428.53-.558a1.35 1.35 0 0 1 .76-.173 1.34 1.34 0 0 1 .72.27c.21.16.37.376.46.624.08.247.09.514.02.766h0zm-286.34 127.622c-.09.339-.31.629-.62.806a1.36 1.36 0 0 1-1.02.135c-.34-.089-.63-.31-.81-.613s-.23-.664-.14-1.003c.04-.168.12-.325.23-.464a1.38 1.38 0 0 1 .39-.341 1.33 1.33 0 0 1 .49-.168c.18-.023.36-.012.53.032a1.33 1.33 0 0 1 .47.227c.14.105.25.236.34.386s.15.316.17.488c.03.172.01.347-.03.515zm-11.16-96.657a1.31 1.31 0 0 1-.41.649c-.2.172-.45.281-.71.315s-.53-.011-.767-.127-.434-.299-.566-.525a1.32 1.32 0 0 1-.175-.747c.018-.261.113-.51.274-.717s.381-.363.634-.447a1.34 1.34 0 0 1 .77-.025 1.28 1.28 0 0 1 .48.226c.14.105.26.238.34.389a1.24 1.24 0 0 1 .17.492 1.29 1.29 0 0 1-.04.517zm70.87 18.478a1.31 1.31 0 0 1-.62.805 1.35 1.35 0 0 1-1.01.136 1.33 1.33 0 0 1-.82-.614c-.18-.303-.23-.663-.14-1.003.05-.168.13-.325.23-.463.11-.138.24-.254.39-.342.16-.087.32-.144.5-.168.17-.023.35-.012.52.032a1.35 1.35 0 0 1 .47.227c.14.105.26.237.34.387.09.15.15.316.17.488.03.172.02.347-.03.515h0zm128.41-21.467c-.05.168-.13.325-.24.463-.1.138-.24.254-.39.341s-.32.143-.5.165c-.17.022-.35.01-.52-.035s-.33-.122-.47-.227-.26-.237-.34-.387c-.09-.15-.15-.316-.17-.488-.03-.172-.02-.347.03-.515.04-.168.12-.325.23-.463.1-.139.24-.255.39-.342s.32-.144.49-.168c.18-.023.36-.012.53.032.34.091.63.313.81.617s.23.666.15 1.007zm89.04 154.865a1.32 1.32 0 0 1-.62.807c-.3.178-.67.228-1.01.141a1.33 1.33 0 0 1-.47-.227c-.14-.105-.26-.236-.34-.386-.09-.15-.15-.316-.17-.488-.03-.172-.02-.347.03-.515a1.19 1.19 0 0 1 .23-.464c.1-.138.24-.254.39-.342s.32-.144.49-.167c.18-.024.36-.013.53.032a1.28 1.28 0 0 1 .46.224 1.34 1.34 0 0 1 .35.385 1.4 1.4 0 0 1 .17.487c.02.171.01.346-.04.513h0zm-191.46-144.491a1.55 1.55 0 0 1-.23.464 1.29 1.29 0 0 1-.4.34c-.15.087-.32.143-.49.165-.18.023-.36.011-.53-.035-.34-.089-.63-.31-.81-.613s-.23-.664-.14-1.003.32-.629.62-.805a1.36 1.36 0 0 1 1.02-.136c.34.091.64.313.82.617s.23.665.14 1.006zm-117.478-56.282c-.045.168-.124.326-.231.464a1.34 1.34 0 0 1-.891.505 1.35 1.35 0 0 1-.522-.035c-.331-.099-.61-.32-.779-.618a1.31 1.31 0 0 1-.13-.978 1.32 1.32 0 0 1 .594-.794 1.35 1.35 0 0 1 .984-.167 1.35 1.35 0 0 1 .828.612 1.32 1.32 0 0 1 .147 1.011z" class="B"/><use xlink:href="#D"/><use xlink:href="#E"/><path d="M1357.76 343.086c-.03.175-.11.339-.21.485-.11.145-.24.268-.39.362-.16.093-.33.155-.5.182a1.38 1.38 0 0 1-.54-.027 1.37 1.37 0 0 1-.48-.232 1.4 1.4 0 0 1-.35-.4 1.3 1.3 0 0 1-.17-.504c-.02-.177 0-.356.05-.526.1-.327.33-.603.63-.77s.66-.213.99-.128a1.34 1.34 0 0 1 .8.586 1.24 1.24 0 0 1 .17.972z" class="B"/><path d="M1524.9 290.318c.57-2.117-.71-4.287-2.85-4.847-2.15-.559-4.35.704-4.91 2.821-.57 2.118.71 4.288 2.85 4.847 2.15.559 4.35-.703 4.91-2.821zm100.6 72.754c.57-2.117-.71-4.287-2.86-4.847-2.14-.559-4.34.704-4.91 2.821-.56 2.117.72 4.287 2.86 4.847 2.15.559 4.34-.704 4.91-2.821zm49.82-95.331c.4-1.496-.5-3.029-2.02-3.424-1.51-.396-3.06.497-3.46 1.992-.41 1.496.5 3.03 2.01 3.425 1.52.395 3.07-.497 3.47-1.993z"/><path d="M1585.48 282.997c.5-.299 1.08-.445 1.66-.418a2.9 2.9 0 0 1 1.6.567 2.85 2.85 0 0 1 1.01 1.359 2.84 2.84 0 0 1 .06 1.683 2.86 2.86 0 0 1-.9 1.429 2.93 2.93 0 0 1-1.56.684c-.57.07-1.16-.033-1.67-.295a2.89 2.89 0 0 1-1.23-1.173c-.36-.648-.45-1.408-.26-2.122s.66-1.328 1.29-1.714h0z" class="B"/><use xlink:href="#B" x="187.24" y="-93.683"/><use xlink:href="#C" x="351.61" y="-164.937"/><use xlink:href="#E" x="382.79" y="87.447"/><use xlink:href="#E" x="510.47" y="305.965"/><use xlink:href="#E" x="495.34" y="199.781"/><use xlink:href="#D" x="177.74" y="5.043"/><path d="M1647.71 326.361c.37 0 .67-.296.67-.661s-.3-.66-.67-.66c-.36 0-.66.295-.66.66s.3.661.66.661z"/><use xlink:href="#C" x="263.51" y="54.787"/><use xlink:href="#E" x="368.24" y="193.315"/><path d="M1514.02 282.206c1.56 0 2.83-1.254 2.83-2.801s-1.27-2.802-2.83-2.802c-1.57 0-2.84 1.254-2.84 2.802s1.27 2.801 2.84 2.801z"/><use xlink:href="#E" x="431" y="147.982"/><use xlink:href="#B" x="127.59" y="-189.766"/><path d="M1505.85 264.246c.08-.043.16-.072.25-.083a.66.66 0 0 1 .26.018.65.65 0 0 1 .24.114.62.62 0 0 1 .17.195c.04.076.07.159.08.245s.01.174-.01.258c-.03.084-.07.163-.12.232s-.12.127-.2.17a.68.68 0 0 1-.51.066.64.64 0 0 1-.4-.31c-.09-.152-.12-.333-.07-.503a.69.69 0 0 1 .31-.402h0z" class="B"/><path d="M1520.68 268.628c.37 0 .67-.295.67-.66s-.3-.661-.67-.661-.67.296-.67.661.3.66.67.66z"/><path d="M1499.03 273.844c.31-.177.67-.227 1.02-.138.34.089.63.309.81.612a1.31 1.31 0 0 1 .14 1.004c-.09.339-.31.629-.62.806a1.33 1.33 0 0 1-.49.169c-.18.024-.35.013-.52-.031s-.33-.12-.47-.225a1.36 1.36 0 0 1-.35-.387 1.22 1.22 0 0 1-.17-.488c-.03-.172-.02-.347.03-.515a1.19 1.19 0 0 1 .23-.464c.1-.139.24-.255.39-.343h0zm41.64 172.524c.5-.302 1.07-.45 1.65-.426a2.95 2.95 0 0 1 1.61.562c.47.341.82.813 1.01 1.355.2.541.22 1.128.07 1.683a2.86 2.86 0 0 1-.89 1.433c-.44.378-.98.618-1.56.69s-1.16-.03-1.68-.291a2.89 2.89 0 0 1-1.23-1.17 2.85 2.85 0 0 1-.27-2.119 2.87 2.87 0 0 1 1.29-1.717h0z" class="B"/><path d="M1567.91 369.955c1.57 0 2.84-1.254 2.84-2.801s-1.27-2.802-2.84-2.802-2.84 1.254-2.84 2.802 1.27 2.801 2.84 2.801zm-493.96-34.599c1.57 0 2.84-1.255 2.84-2.802s-1.27-2.802-2.84-2.802c-1.56 0-2.83 1.255-2.83 2.802s1.27 2.802 2.83 2.802z"/><path d="M1522.66 481.212a2.11 2.11 0 0 1 2.31.145c.33.246.58.582.71.966.14.384.15.799.05 1.193s-.32.75-.62 1.023c-.31.273-.69.451-1.09.512-.41.06-.83.001-1.2-.171s-.69-.448-.9-.795c-.15-.235-.25-.497-.3-.771-.04-.274-.03-.554.04-.823s.19-.522.37-.742c.17-.219.38-.402.63-.537h0zm21.36-26.553a1.26 1.26 0 0 1 .49-.173c.17-.025.35-.015.52.029a1.35 1.35 0 0 1 .47.228c.13.106.25.239.34.39s.14.316.17.488c.02.172.01.347-.03.515-.05.168-.13.326-.23.465a1.4 1.4 0 0 1-.39.342c-.31.173-.68.218-1.02.127-.35-.092-.64-.313-.82-.615-.17-.304-.22-.663-.12-.999.09-.336.31-.623.62-.797h0z" class="B"/><use xlink:href="#E" x="459.09" y="317.359"/><path d="M1614.86 368.002c.31-.177.67-.227 1.02-.138.34.089.63.309.81.612s.23.664.14 1.003a1.31 1.31 0 0 1-.62.807 1.35 1.35 0 0 1-1.01.127c-.35-.092-.64-.313-.82-.615-.09-.149-.15-.314-.17-.485a1.47 1.47 0 0 1 .03-.512 1.33 1.33 0 0 1 .23-.461c.11-.137.24-.252.39-.338h0z" class="B"/><path d="M1555.58 429.714a1.33 1.33 0 0 0 1.34-1.321c0-.73-.6-1.322-1.34-1.322a1.33 1.33 0 0 0-1.33 1.322 1.33 1.33 0 0 0 1.33 1.321zm-21.3 5.144c.37 0 .67-.295.67-.66s-.3-.661-.67-.661-.67.296-.67.661.3.66.67.66z"/><path d="M1495.12 479.746a.67.67 0 0 1 .5-.06c.17.045.32.155.41.305.07.113.1.243.09.373a.67.67 0 0 1-.14.358c-.08.104-.19.181-.32.223-.12.041-.26.045-.38.011-.13-.034-.25-.104-.33-.202-.09-.099-.15-.22-.16-.35a.62.62 0 0 1 .06-.378c.06-.117.15-.214.27-.28zm72.58 29.686a.68.68 0 0 1 .51-.065c.18.045.32.157.41.309a.68.68 0 0 1 .07.503c-.05.17-.16.315-.32.402a.67.67 0 0 1-.51.066c-.17-.046-.31-.157-.4-.31s-.12-.333-.07-.503a.69.69 0 0 1 .31-.402h0z" class="B"/><path d="M1548.78 438.005c.36 0 .66-.295.66-.66s-.3-.661-.66-.661c-.37 0-.67.295-.67.661s.3.66.67.66z"/><path d="M1527.12 443.221a1.37 1.37 0 0 1 1.02-.138c.34.089.64.309.82.612a1.31 1.31 0 0 1 .14 1.004 1.35 1.35 0 0 1-.62.806c-.15.088-.32.146-.5.169-.17.024-.35.013-.52-.031s-.33-.12-.47-.225a1.36 1.36 0 0 1-.35-.387c-.08-.15-.14-.315-.17-.488a1.28 1.28 0 0 1 .04-.515c.04-.168.12-.326.22-.464a1.4 1.4 0 0 1 .39-.343h0zm-88.09-23.823c.15-.088.31-.145.49-.169.17-.024.35-.013.52.031s.33.121.47.226a1.36 1.36 0 0 1 .35.386c.17.306.22.667.13 1.006-.1.338-.32.628-.63.805-.15.089-.31.148-.49.173-.17.024-.35.014-.52-.03a1.21 1.21 0 0 1-.46-.228 1.37 1.37 0 0 1-.35-.389c-.08-.15-.14-.316-.17-.488a1.49 1.49 0 0 1 .03-.516 1.55 1.55 0 0 1 .23-.464 1.31 1.31 0 0 1 .4-.343h0zm117.85 76.93a1.35 1.35 0 0 1 .49-.17c.18-.023.36-.013.53.031s.33.121.47.226.25.237.34.387a1.31 1.31 0 0 1 .13 1.005c-.09.339-.32.628-.62.805a1.37 1.37 0 0 1-.99.087c-.32-.097-.6-.313-.77-.605a1.31 1.31 0 0 1 .42-1.766h0z" class="B"/></g><path d="M12.967 1030.7c1.521-.91 1.679-3.11.318-4.29-.567-.5-.794-.59-1.657-.59s-1.112.09-1.657.57c-1.702 1.5-1.089 3.86 1.135 4.47.953.3 1.157.27 1.861-.16zm-8.851-16.68c.84-.84.613-2.29-.454-2.83-1.316-.68-2.814.09-2.814 1.47 0 1 .658 1.64 1.816 1.75.862.09 1.044.02 1.452-.39zm48.749-21.258c.477-.25.885-1.181.885-1.907 0-2.02-2.928-2.632-3.813-.794-.681 1.43.25 2.905 1.816 2.905.431 0 .931-.091 1.112-.204z" fill="#fff" class="B"/><g fill="#604f72"><path d="M868.51 1123.79c1.701 0 3.081-1.36 3.081-3.04s-1.38-3.05-3.081-3.05-3.081 1.37-3.081 3.05 1.379 3.04 3.081 3.04zm112.265 58.08c1.701 0 3.081-1.36 3.081-3.04 0-1.69-1.38-3.05-3.081-3.05s-3.081 1.36-3.081 3.05c0 1.68 1.38 3.04 3.081 3.04z"/><path d="M1023.3 1127.12c-.3-.3-.69-.5-1.11-.58s-.86-.04-1.26.12a2.27 2.27 0 0 0-.97.79 2.15 2.15 0 0 0-.37 1.2 2.12 2.12 0 0 0 .37 1.19 2.2 2.2 0 0 0 .97.79c.4.16.84.21 1.26.12.42-.08.81-.28 1.11-.58a2.24 2.24 0 0 0 .48-.7c.11-.26.16-.54.16-.82 0-.29-.05-.57-.16-.83a2.24 2.24 0 0 0-.48-.7h0zm-68.178 12.55c-.094-.1-.207-.18-.332-.23a1.08 1.08 0 0 0-.397-.08c-.137 0-.272.03-.398.08s-.238.13-.332.23c-.136.14-.227.32-.262.51s-.011.39.066.57.207.33.372.44c.164.1.357.16.554.16a1.07 1.07 0 0 0 .553-.16c.165-.11.294-.26.372-.44s.1-.38.066-.57-.126-.37-.262-.51z" class="B"/><path d="M1007.72 1181.36c.56 0 1.02-.45 1.02-1.01s-.46-1.02-1.02-1.02c-.57 0-1.03.46-1.03 1.02s.46 1.01 1.03 1.01z"/><path d="M1063.77 1088.51c-.07-.08-.16-.12-.26-.14a.52.52 0 0 0-.3.03c-.09.03-.17.1-.23.18-.05.09-.08.18-.08.28s.03.2.08.29a.58.58 0 0 0 .23.18.52.52 0 0 0 .3.03.51.51 0 0 0 .26-.14c.1-.09.15-.22.15-.36a.47.47 0 0 0-.15-.35h0z" class="B"/><path d="M913.2 1145.47c.568 0 1.027-.46 1.027-1.02s-.459-1.01-1.027-1.01-1.026.45-1.026 1.01.459 1.02 1.026 1.02z"/><use xlink:href="#F"/><path d="M965.009 1258.25c.567 0 1.027-.45 1.027-1.01s-.46-1.02-1.027-1.02-1.027.46-1.027 1.02.46 1.01 1.027 1.01zm-39.033-45.98c.568 0 1.027-.45 1.027-1.01s-.459-1.02-1.027-1.02-1.027.46-1.027 1.02.46 1.01 1.027 1.01zm-164.083-118.82c1.701 0 3.081-1.36 3.081-3.04s-1.38-3.05-3.081-3.05-3.081 1.37-3.081 3.05 1.38 3.04 3.081 3.04zm132.592 187.53c1.701 0 3.08-1.36 3.08-3.04s-1.379-3.04-3.08-3.04-3.081 1.36-3.081 3.04 1.379 3.04 3.081 3.04z"/><path d="M795.247 1297.41c-.224-.22-.509-.37-.819-.43-.311-.07-.633-.03-.925.09s-.542.32-.718.58-.27.56-.27.88c0 .31.094.61.27.87s.426.47.718.59.614.15.925.09a1.6 1.6 0 0 0 .819-.43 1.67 1.67 0 0 0 .348-.52 1.57 1.57 0 0 0 .122-.6 1.58 1.58 0 0 0-.122-.61c-.081-.19-.199-.37-.348-.51zm110.765-22.29a1.59 1.59 0 0 0-.403-.82c-.214-.23-.492-.39-.799-.47-.306-.07-.629-.05-.926.05a1.63 1.63 0 0 0-.742.55 1.56 1.56 0 0 0-.31.87c-.015.31.064.62.227.88a1.56 1.56 0 0 0 .687.62c.285.13.605.18.917.13a1.59 1.59 0 0 0 1.05-.63c.253-.34.36-.76.299-1.18h0zm116.298 4.74c-.22-.22-.5-.37-.82-.43-.31-.06-.63-.03-.92.09s-.54.32-.72.58c-.17.26-.27.57-.27.88s.1.62.27.88c.18.26.43.46.72.58s.61.15.92.09c.32-.06.6-.21.82-.43a1.54 1.54 0 0 0 .35-.52 1.53 1.53 0 0 0 .12-.6 1.58 1.58 0 0 0-.12-.61c-.08-.19-.2-.36-.35-.51h0zm-121.845-10.29a.99.99 0 0 0-.259-.51c-.136-.14-.31-.24-.503-.29a1.04 1.04 0 0 0-.579.04c-.185.07-.347.19-.463.34-.117.16-.185.35-.194.54a.99.99 0 0 0 .141.56c.101.17.25.3.428.39.178.08.377.11.573.09.134-.02.263-.07.379-.13a1.01 1.01 0 0 0 .297-.27c.08-.11.137-.23.168-.36a1 1 0 0 0 .012-.4z" class="B"/><use xlink:href="#G"/><use xlink:href="#H"/><path d="M999.35 1152.47a1.02 1.02 0 0 0 1.03-1.01 1.03 1.03 0 0 0-1.03-1.02c-.567 0-1.027.46-1.027 1.02s.46 1.01 1.027 1.01z"/><use xlink:href="#G" x="-41.841" y="-174.89"/><path d="M942.785 1275.62a1.01 1.01 0 0 0-.22-1.42 1.03 1.03 0 0 0-1.435.22c-.335.45-.237 1.08.22 1.41.457.34 1.099.24 1.435-.21z"/><path d="M940.031 1285.46c-.022-.13-.097-.25-.208-.33s-.25-.12-.386-.1a.53.53 0 0 0-.266.13c-.073.07-.125.16-.148.26a.5.5 0 0 0 .018.29c.035.09.098.17.179.23a.56.56 0 0 0 .28.1c.101 0 .201-.02.288-.07a.58.58 0 0 0 .199-.22c.043-.09.058-.19.044-.29zm28.935-139.04c-.097-.09-.227-.14-.363-.14a.53.53 0 0 0-.362.14c-.097.1-.151.23-.151.37a.52.52 0 0 0 .151.36c.098.09.228.14.362.14a.54.54 0 0 0 .363-.14c.096-.1.15-.23.15-.36a.53.53 0 0 0-.15-.37h0zm-199.925 132.25c-.072-.07-.163-.11-.263-.13s-.203-.01-.297.02a.56.56 0 0 0-.231.19c-.056.08-.086.18-.086.28s.03.2.086.28a.49.49 0 0 0 .231.19c.094.04.197.05.297.03s.191-.07.263-.14a.49.49 0 0 0 .15-.36c0-.13-.054-.26-.15-.36h0zm-.513 35.62a.5.5 0 0 0-.363-.15c-.136 0-.266.05-.362.15a.52.52 0 0 0-.151.36c0 .14.054.27.151.37.098.09.228.14.362.14a.54.54 0 0 0 .363-.14.53.53 0 0 0 .15-.37c0-.13-.054-.26-.15-.36h0zm19.581.51c-.096-.1-.226-.15-.362-.15a.5.5 0 0 0-.363.15.49.49 0 0 0-.15.36.49.49 0 0 0 .15.36.54.54 0 0 0 .363.14c.134 0 .264-.05.362-.14s.151-.22.151-.36-.054-.27-.151-.36h0zm.514-6.68c-.072-.07-.163-.12-.263-.14s-.203-.01-.297.03a.49.49 0 0 0-.231.19c-.056.08-.086.18-.086.28s.03.2.086.28a.56.56 0 0 0 .231.19c.094.04.197.05.297.03s.191-.07.263-.14c.096-.1.15-.23.15-.36 0-.14-.054-.26-.15-.36h0zm110.946-31.28a.51.51 0 0 0-.129-.26c-.069-.08-.159-.13-.258-.15-.099-.03-.203-.02-.298.02-.096.03-.179.09-.239.17a.54.54 0 0 0-.097.28.53.53 0 0 0 .302.48c.092.04.196.06.296.04.067-.01.13-.03.188-.07.057-.03.107-.08.147-.13a.44.44 0 0 0 .082-.18.51.51 0 0 0 .006-.2z" class="B"/><path d="M906.732 1273.14c.168-.23.119-.54-.11-.71a.51.51 0 0 0-.718.11c-.168.22-.119.54.11.71a.52.52 0 0 0 .718-.11z"/><use xlink:href="#H" x="173.225" y="55.54"/><path d="M910.982 1276.86a1.01 1.01 0 0 0-.219-1.42 1.03 1.03 0 0 0-1.435.22c-.336.45-.238 1.08.219 1.41.457.34 1.1.24 1.435-.21zm-161.21-136.13c.567 0 1.026-.45 1.026-1.01s-.459-1.02-1.026-1.02-1.027.46-1.027 1.02.459 1.01 1.027 1.01z"/><path d="M729.737 1273.11c-.143-.13-.322-.22-.516-.26-.194-.03-.395-.01-.577.06-.182.08-.337.21-.446.37a.97.97 0 0 0-.167.55.97.97 0 0 0 .167.55c.109.16.264.29.446.37.182.07.383.09.577.06.194-.04.373-.13.516-.26.097-.1.175-.21.228-.33a.99.99 0 0 0 0-.78c-.053-.12-.131-.23-.228-.33h0z" class="B"/><path d="M822.611 1308.99c.568 0 1.027-.46 1.027-1.02s-.459-1.01-1.027-1.01-1.027.45-1.027 1.01.46 1.02 1.027 1.02zm-87.045-177.33c.567 0 1.027-.45 1.027-1.01s-.46-1.02-1.027-1.02-1.027.46-1.027 1.02.46 1.01 1.027 1.01z"/><path d="M1154.66 1291.03c-.3-.3-.69-.5-1.11-.59-.42-.08-.86-.03-1.25.13-.4.16-.74.44-.98.79a2.12 2.12 0 0 0-.37 1.19 2.15 2.15 0 0 0 .37 1.2 2.24 2.24 0 0 0 .98.79 2.22 2.22 0 0 0 1.25.12 2.15 2.15 0 0 0 1.11-.59c.41-.4.64-.95.64-1.52s-.23-1.12-.64-1.52h0zm-133.53-99.54a2.22 2.22 0 0 0-1.12-.59c-.43-.08-.87-.04-1.26.12-.4.17-.74.44-.98.8-.24.35-.37.77-.37 1.2 0 .42.13.84.37 1.2.24.35.58.63.98.79a2.16 2.16 0 0 0 1.26.12c.42-.08.81-.28 1.12-.59a2.21 2.21 0 0 0 .47-.7c.11-.26.17-.54.17-.82 0-.29-.06-.57-.17-.83a2.21 2.21 0 0 0-.47-.7zm78.45 101.47a1.59 1.59 0 0 0-.82-.43c-.31-.06-.63-.03-.92.09s-.54.32-.72.58c-.17.26-.27.57-.27.88s.1.62.27.88c.18.26.43.46.72.58s.61.15.92.09a1.59 1.59 0 0 0 .82-.43c.15-.15.27-.32.35-.51.08-.2.12-.4.12-.61s-.04-.41-.12-.61c-.08-.19-.2-.36-.35-.51h0z" class="B"/><use xlink:href="#F" x="44.69" y="207.38"/><path d="M1072.69 1251.56c-.14-.14-.32-.23-.51-.27a1.04 1.04 0 0 0-.58.07c-.18.07-.34.2-.45.36-.1.17-.16.36-.16.55a1.04 1.04 0 0 0 .16.55c.11.16.27.29.45.37.18.07.38.1.58.06.19-.03.37-.13.51-.26a.94.94 0 0 0 .23-.33c.05-.12.08-.25.08-.39 0-.13-.03-.26-.08-.39a.9.9 0 0 0-.23-.32zm-88.109-67a1.03 1.03 0 0 0-.516-.27 1.04 1.04 0 0 0-.577.07c-.182.07-.337.2-.446.36a1.02 1.02 0 0 0-.167.55.97.97 0 0 0 .167.55c.109.16.264.29.446.37.182.07.383.1.577.06s.373-.13.516-.26c.097-.09.175-.21.228-.33s.08-.25.08-.39c0-.13-.027-.26-.08-.39-.053-.12-.131-.23-.228-.32z" class="B"/><path d="M1147.17 1275.82c.57 0 1.03-.45 1.03-1.01a1.02 1.02 0 1 0-2.05 0c0 .56.46 1.01 1.02 1.01z"/><path d="M1162.2 1282.88c-.1-.09-.23-.15-.37-.15s-.27.06-.37.15c-.1.1-.15.23-.15.36a.49.49 0 0 0 .15.36c.1.09.23.15.37.15s.27-.06.37-.15c.09-.1.14-.23.14-.36s-.05-.26-.14-.36h0z" class="B"/><path d="M1060.2 1306.05a.51.51 0 0 0 .51-.51c0-.28-.23-.5-.51-.5s-.51.22-.51.5a.51.51 0 0 0 .51.51zm90.26-22.77a.51.51 0 0 0 .51-.51c0-.28-.23-.5-.51-.5-.29 0-.52.22-.52.5s.23.51.52.51z"/><use xlink:href="#F" x="59.49" y="202.17"/><path d="M1070.47 1299.29c.57 0 1.03-.46 1.03-1.02s-.46-1.01-1.03-1.01-1.03.45-1.03 1.01.46 1.02 1.03 1.02z"/><path d="M804.5 1314.44c-.143-.14-.323-.23-.517-.26a1.03 1.03 0 0 0-.574.07c-.181.07-.335.2-.444.36s-.166.36-.166.55.058.38.166.55c.109.16.263.29.444.36a1.03 1.03 0 0 0 .574.07 1.1 1.1 0 0 0 .517-.26c.099-.09.177-.2.231-.33.054-.12.082-.26.082-.39a.94.94 0 0 0-.082-.39c-.054-.13-.132-.24-.231-.33h0z" class="B"/><use xlink:href="#G" x="101.271" y="53.71"/><path d="M881.986 332.077c-.832-.003-1.646.252-2.339.733a4.35 4.35 0 0 0-1.552 1.966 4.56 4.56 0 0 0-.242 2.537c.161.851.562 1.634 1.15 2.248a4.14 4.14 0 0 0 2.153 1.2 4.03 4.03 0 0 0 2.429-.253c.768-.333 1.424-.897 1.884-1.621a4.52 4.52 0 0 0 .702-2.441c0-1.158-.441-2.27-1.226-3.089s-1.849-1.28-2.959-1.28h0zM774.519 58.405c-.831-.003-1.644.252-2.337.732a4.35 4.35 0 0 0-1.552 1.965c-.32.801-.405 1.683-.245 2.534s.56 1.634 1.146 2.248a4.15 4.15 0 0 0 2.15 1.204 4.04 4.04 0 0 0 2.428-.247 4.24 4.24 0 0 0 1.887-1.615 4.52 4.52 0 0 0 .708-2.437c.002-.575-.105-1.145-.314-1.677a4.37 4.37 0 0 0-.907-1.422 4.2 4.2 0 0 0-1.359-.951 4.02 4.02 0 0 0-1.605-.334h0zM739.558 98.58a4.06 4.06 0 0 0-2.325.736c-.688.48-1.225 1.162-1.542 1.962a4.56 4.56 0 0 0-.238 2.524c.162.848.56 1.627 1.146 2.238a4.14 4.14 0 0 0 2.143 1.196c.812.169 1.653.082 2.418-.249s1.418-.891 1.878-1.609a4.51 4.51 0 0 0 .706-2.428 4.54 4.54 0 0 0-.319-1.672c-.21-.531-.519-1.012-.907-1.418a4.18 4.18 0 0 0-1.358-.947c-.508-.22-1.052-.333-1.602-.333zM576.423 249.398c-.828 0-1.637.256-2.326.736s-1.224 1.163-1.541 1.961-.4 1.678-.238 2.525a4.43 4.43 0 0 0 1.145 2.238 4.14 4.14 0 0 0 2.143 1.196c.812.168 1.654.082 2.418-.249a4.23 4.23 0 0 0 1.879-1.61c.46-.718.705-1.563.705-2.427 0-1.159-.441-2.271-1.226-3.09s-1.849-1.28-2.959-1.28zM390.432 86.355c-.828 0-1.637.256-2.326.736a4.33 4.33 0 0 0-1.541 1.961c-.317.799-.4 1.677-.238 2.525a4.43 4.43 0 0 0 1.145 2.237c.585.611 1.331 1.027 2.143 1.196a4.02 4.02 0 0 0 2.418-.249 4.23 4.23 0 0 0 1.879-1.609c.459-.719.705-1.563.705-2.428a4.47 4.47 0 0 0-1.226-3.09c-.785-.82-1.849-1.28-2.959-1.28h0zm15.948 137.393c-.828 0-1.637.256-2.326.736a4.34 4.34 0 0 0-1.541 1.961c-.317.799-.4 1.677-.238 2.525s.56 1.626 1.145 2.237a4.13 4.13 0 0 0 2.143 1.196 4.03 4.03 0 0 0 2.418-.248 4.23 4.23 0 0 0 1.879-1.61c.46-.719.705-1.563.705-2.428a4.47 4.47 0 0 0-1.226-3.09c-.785-.819-1.849-1.279-2.959-1.279h0zm475.606 30.02a4.51 4.51 0 0 0-.706-2.428 4.22 4.22 0 0 0-1.878-1.609c-.765-.331-1.607-.418-2.418-.249a4.14 4.14 0 0 0-2.143 1.196 4.44 4.44 0 0 0-1.146 2.237 4.56 4.56 0 0 0 .238 2.525 4.34 4.34 0 0 0 1.542 1.961 4.06 4.06 0 0 0 2.325.737c1.11 0 2.175-.461 2.96-1.28a4.47 4.47 0 0 0 1.226-3.09zm55.791 97.546c-.587-.003-1.163.177-1.653.515a3.08 3.08 0 0 0-1.099 1.388c-.226.566-.287 1.19-.174 1.792a3.14 3.14 0 0 0 .809 1.59 2.93 2.93 0 0 0 1.519.852 2.85 2.85 0 0 0 1.717-.174c.543-.234 1.008-.631 1.334-1.141s.502-1.11.502-1.723c0-.82-.311-1.606-.865-2.186s-1.305-.909-2.09-.913h0zm28.861-218.8c0-.61-.174-1.206-.498-1.713a2.99 2.99 0 0 0-1.326-1.137c-.54-.234-1.134-.294-1.707-.175s-1.099.413-1.513.844a3.12 3.12 0 0 0-.808 1.579 3.21 3.21 0 0 0 .168 1.783c.224.563.602 1.045 1.088 1.384s1.057.52 1.641.52a2.89 2.89 0 0 0 2.089-.904c.554-.578.866-1.363.866-2.181h0z" class="B"/><path d="M965.926 266.65c1.632 0 2.955-1.381 2.955-3.084s-1.323-3.085-2.955-3.085-2.954 1.381-2.954 3.085 1.322 3.084 2.954 3.084zm-170.056 7.455c1.201 0 2.175-1.016 2.175-2.27s-.974-2.271-2.175-2.271-2.175 1.017-2.175 2.271.974 2.27 2.175 2.27zm-145.765-33.462c1.201 0 2.175-1.017 2.175-2.271s-.974-2.27-2.175-2.27-2.175 1.016-2.175 2.27.974 2.271 2.175 2.271z"/><path d="M455.976 250.169a2.11 2.11 0 0 0-1.208.383 2.25 2.25 0 0 0-.801 1.019 2.36 2.36 0 0 0-.124 1.312 2.31 2.31 0 0 0 .595 1.163c.304.317.692.533 1.114.621s.859.043 1.256-.129a2.2 2.2 0 0 0 .976-.837 2.34 2.34 0 0 0 .367-1.261c-.004-.601-.234-1.176-.641-1.601s-.959-.666-1.534-.67h0zm40.486-133.265a2.11 2.11 0 0 0-1.212.386c-.359.252-.638.609-.801 1.026a2.37 2.37 0 0 0-.117 1.318c.088.441.299.846.607 1.162s.7.528 1.124.611.863.032 1.26-.147.733-.476.967-.855.355-.822.347-1.273a2.32 2.32 0 0 0-.652-1.578 2.13 2.13 0 0 0-1.523-.65h0zm393.361 200.89c-.271 0-.535.084-.76.241a1.42 1.42 0 0 0-.504.641 1.5 1.5 0 0 0-.078.825c.053.277.183.531.375.731a1.35 1.35 0 0 0 .7.391c.265.055.54.027.79-.081a1.38 1.38 0 0 0 .614-.526c.15-.235.231-.511.231-.794 0-.378-.144-.742-.401-1.009a1.34 1.34 0 0 0-.967-.419zM811.08 306.64c0-.283-.08-.559-.231-.793a1.38 1.38 0 0 0-.613-.526 1.32 1.32 0 0 0-.791-.082 1.35 1.35 0 0 0-.7.391c-.191.2-.322.454-.374.731a1.49 1.49 0 0 0 .077.825 1.42 1.42 0 0 0 .504.641 1.33 1.33 0 0 0 .76.241 1.34 1.34 0 0 0 .967-.418 1.46 1.46 0 0 0 .401-1.01zm0 32.735c-.271 0-.535.083-.76.24a1.42 1.42 0 0 0-.504.641 1.48 1.48 0 0 0-.078.825c.053.277.183.532.375.731a1.35 1.35 0 0 0 .7.391c.265.055.54.027.79-.081a1.38 1.38 0 0 0 .614-.526c.15-.235.231-.511.231-.793 0-.379-.145-.742-.401-1.01a1.34 1.34 0 0 0-.967-.418zm17.89-8.755c-.27 0-.535.083-.76.24a1.42 1.42 0 0 0-.503.641 1.48 1.48 0 0 0-.078.825 1.45 1.45 0 0 0 .374.731 1.35 1.35 0 0 0 .7.391c.266.055.541.027.791-.081s.463-.291.614-.526.23-.511.23-.793a1.46 1.46 0 0 0-.401-1.01c-.256-.268-.604-.418-.967-.418zm-37.285 6.412c-.271 0-.535.084-.76.241a1.42 1.42 0 0 0-.504.641 1.48 1.48 0 0 0-.078.825c.053.277.183.531.374.731a1.35 1.35 0 0 0 .701.391c.265.055.54.027.79-.081s.464-.292.614-.526.23-.511.23-.794c0-.378-.144-.742-.4-1.01a1.34 1.34 0 0 0-.967-.418zm110.53-113.284c-.27 0-.535.083-.76.24a1.41 1.41 0 0 0-.503.641 1.48 1.48 0 0 0-.078.825 1.44 1.44 0 0 0 .374.731 1.35 1.35 0 0 0 .7.391c.266.055.541.027.791-.081a1.38 1.38 0 0 0 .613-.526 1.47 1.47 0 0 0 .231-.793 1.46 1.46 0 0 0-.401-1.01c-.256-.268-.604-.418-.967-.418zm-66.679 85.078c0-.145-.04-.285-.117-.405s-.186-.213-.313-.268a.67.67 0 0 0-.404-.042.69.69 0 0 0-.357.2.73.73 0 0 0-.191.372c-.027.142-.013.288.04.421s.142.247.257.327.249.123.388.123a.68.68 0 0 0 .493-.214.74.74 0 0 0 .204-.514h0zM527.005 409.47c-.092 0-.182.019-.267.056a.67.67 0 0 0-.226.158c-.065.067-.117.147-.152.236a.76.76 0 0 0-.053.279c-.02.105-.018.214.007.319a.75.75 0 0 0 .137.286c.066.083.148.15.242.196a.67.67 0 0 0 .298.07c.104 0 .206-.024.299-.07a.7.7 0 0 0 .241-.196.74.74 0 0 0 .138-.286c.025-.105.027-.214.007-.319a.75.75 0 0 0-.195-.506.69.69 0 0 0-.476-.223h0z" class="B"/><path d="M667.695 310.282c.386 0 .698-.326.698-.728s-.312-.729-.698-.729-.698.326-.698.729.313.728.698.728z"/><path d="M509.429 298.557a.68.68 0 0 0-.493.213.74.74 0 0 0-.205.514c.032.165.117.313.242.42a.68.68 0 0 0 .885 0 .74.74 0 0 0 .242-.42c0-.188-.07-.369-.195-.504s-.296-.216-.476-.223zm238.555-.743a.69.69 0 0 0-.399.118c-.119.08-.212.195-.268.33s-.072.286-.046.431.092.278.191.384a.71.71 0 0 0 .364.207.68.68 0 0 0 .413-.04c.131-.056.243-.151.322-.273s.121-.267.121-.414c.002-.097-.015-.193-.049-.283a.74.74 0 0 0-.15-.242.69.69 0 0 0-.229-.161.66.66 0 0 0-.27-.057h0z" class="B"/><path d="M650.106 305.912c.385 0 .698-.326.698-.729s-.313-.728-.698-.728-.698.326-.698.728.312.729.698.729zm174.269 15.524c.385 0 .698-.326.698-.728s-.313-.729-.698-.729-.698.327-.698.729.312.728.698.728z"/><path d="M692.206 320.708a.68.68 0 0 0-.388.123c-.115.08-.204.194-.257.327s-.067.279-.04.42a.74.74 0 0 0 .191.373c.098.102.222.171.358.2s.275.013.403-.042a.7.7 0 0 0 .313-.268.75.75 0 0 0 .118-.405c0-.193-.074-.378-.205-.515a.68.68 0 0 0-.493-.213h0zm-183.474 2.113a.69.69 0 0 0-.399.119.72.72 0 0 0-.268.33.78.78 0 0 0-.047.43c.026.145.093.279.192.384a.71.71 0 0 0 .364.207.68.68 0 0 0 .413-.04c.131-.055.243-.151.322-.273s.121-.267.121-.414c.001-.097-.015-.193-.05-.283a.74.74 0 0 0-.15-.241c-.065-.069-.142-.124-.228-.162a.67.67 0 0 0-.27-.057h0zm320.238-27.192a1.33 1.33 0 0 0-.76.241c-.224.156-.4.38-.503.64a1.49 1.49 0 0 0-.078.826c.053.277.183.531.374.731a1.36 1.36 0 0 0 .7.391 1.32 1.32 0 0 0 .791-.082c.25-.108.463-.291.614-.526s.23-.511.23-.793a1.46 1.46 0 0 0-.401-1.01c-.256-.268-.604-.418-.967-.418zm-64.053-1.457a1.33 1.33 0 0 0-.76.241c-.225.156-.4.379-.504.64a1.49 1.49 0 0 0-.077.826c.052.277.183.531.374.731s.435.335.7.39.541.027.79-.081a1.38 1.38 0 0 0 .614-.526 1.47 1.47 0 0 0 .231-.793 1.46 1.46 0 0 0-.401-1.01c-.256-.268-.604-.418-.967-.418zm26.768-174.183c-.271 0-.535.084-.76.241a1.42 1.42 0 0 0-.504.641 1.48 1.48 0 0 0-.078.825c.053.277.183.531.374.731a1.35 1.35 0 0 0 .701.391c.265.055.54.027.79-.081a1.38 1.38 0 0 0 .614-.526c.15-.235.23-.511.23-.794a1.46 1.46 0 0 0-.4-1.009 1.34 1.34 0 0 0-.967-.419zm-52.482-92.262a1.33 1.33 0 0 0 .76-.241 1.41 1.41 0 0 0 .503-.641 1.48 1.48 0 0 0 .078-.825 1.45 1.45 0 0 0-.374-.731 1.35 1.35 0 0 0-.7-.391c-.266-.055-.541-.027-.791.081s-.463.291-.614.526-.23.511-.23.793a1.46 1.46 0 0 0 .401 1.01c.256.268.604.418.967.418z" class="B"/><path d="M718.754 346.23c.771 0 1.395-.652 1.395-1.457s-.624-1.457-1.395-1.457-1.395.653-1.395 1.457.625 1.457 1.395 1.457z"/><path d="M589.868 65.703a1.33 1.33 0 0 0-.76.241 1.42 1.42 0 0 0-.504.641 1.49 1.49 0 0 0-.077.825c.052.277.183.531.374.731a1.35 1.35 0 0 0 .7.391 1.31 1.31 0 0 0 .79-.081 1.38 1.38 0 0 0 .614-.526 1.47 1.47 0 0 0 .231-.793 1.46 1.46 0 0 0-.401-1.01c-.256-.268-.604-.418-.967-.418zm116.754-37.975a1.33 1.33 0 0 0-.76.241 1.41 1.41 0 0 0-.503.641 1.48 1.48 0 0 0-.078.825c.052.277.183.531.374.731a1.35 1.35 0 0 0 .7.391c.266.055.541.027.791-.081a1.38 1.38 0 0 0 .613-.526 1.47 1.47 0 0 0 .231-.793 1.46 1.46 0 0 0-.401-1.01c-.256-.268-.604-.418-.967-.418h0zm-254.23 215.657c-.271 0-.535.084-.76.241a1.42 1.42 0 0 0-.504.641 1.5 1.5 0 0 0-.078.825c.053.277.184.531.375.731a1.35 1.35 0 0 0 .7.391c.265.055.54.027.79-.081a1.38 1.38 0 0 0 .614-.526 1.47 1.47 0 0 0 .231-.794c0-.378-.144-.742-.401-1.009s-.604-.419-.967-.419zm-37.299-99.902c-.271 0-.535.084-.76.241a1.41 1.41 0 0 0-.504.64c-.104.261-.131.549-.078.826s.183.531.374.731.435.335.701.391.54.026.79-.082a1.38 1.38 0 0 0 .614-.526c.15-.235.23-.511.23-.793 0-.379-.144-.742-.4-1.01a1.34 1.34 0 0 0-.967-.418zm76.404 0a1.33 1.33 0 0 0-.76.241 1.41 1.41 0 0 0-.503.64c-.104.261-.131.549-.078.826s.183.531.374.731a1.36 1.36 0 0 0 .7.391 1.32 1.32 0 0 0 .791-.082c.25-.108.463-.291.613-.526a1.47 1.47 0 0 0 .231-.793 1.46 1.46 0 0 0-.401-1.01c-.256-.268-.604-.418-.967-.418z" class="B"/><path d="M615.131 87.812c.771 0 1.395-.652 1.395-1.457s-.624-1.457-1.395-1.457-1.395.652-1.395 1.457.624 1.457 1.395 1.457z"/><g class="B"><path d="M747.984 226.661a1.46 1.46 0 0 0-.401-1.01c-.256-.268-.604-.418-.967-.418s-.711.15-.967.418a1.46 1.46 0 0 0-.401 1.01 1.46 1.46 0 0 0 .401 1.01c.256.268.604.418.967.418s.711-.15.967-.418a1.46 1.46 0 0 0 .401-1.01zm-233.289-102.23c-.271 0-.535.083-.76.24a1.42 1.42 0 0 0-.504.641 1.48 1.48 0 0 0-.078.825c.053.277.183.532.375.731a1.35 1.35 0 0 0 .7.391c.265.055.54.027.79-.081a1.38 1.38 0 0 0 .614-.526c.15-.235.23-.511.23-.793 0-.379-.144-.742-.4-1.01a1.34 1.34 0 0 0-.967-.418zM381.089 97.109a1.37 1.37 0 0 0-.991.429c-.263.275-.41.647-.41 1.035s.147.761.41 1.035.62.429.991.429.729-.154.992-.429.41-.647.41-1.035-.147-.76-.41-1.035-.62-.429-.992-.429h0zm340.579 61.099c-.271 0-.535.083-.76.24a1.42 1.42 0 0 0-.504.641 1.5 1.5 0 0 0-.078.825c.053.277.183.532.375.731a1.35 1.35 0 0 0 .7.391c.265.055.54.027.79-.081a1.38 1.38 0 0 0 .614-.526c.15-.235.231-.511.231-.793a1.46 1.46 0 0 0-.401-1.01c-.256-.268-.604-.418-.967-.418zM511.521 49.251a1.33 1.33 0 0 0-.76.241 1.42 1.42 0 0 0-.503.641 1.48 1.48 0 0 0-.078.825 1.45 1.45 0 0 0 .374.731 1.35 1.35 0 0 0 .7.391c.266.055.541.027.791-.081s.463-.291.614-.526.23-.511.23-.793a1.46 1.46 0 0 0-.401-1.01c-.256-.268-.604-.418-.967-.418z"/><use xlink:href="#I"/></g><path d="M1142.92 107.991c2.31 0 4.18-1.956 4.18-4.37s-1.87-4.37-4.18-4.37-4.19 1.957-4.19 4.37 1.88 4.37 4.19 4.37zm-174.039 11.997c2.311 0 4.185-1.956 4.185-4.37s-1.874-4.369-4.185-4.369-4.186 1.956-4.186 4.369 1.874 4.37 4.186 4.37z"/><path d="M1086.87 162.078c-.59.611-.99 1.39-1.15 2.237a4.53 4.53 0 0 0 .24 2.524c.32.798.85 1.481 1.54 1.96s1.5.737 2.33.737a4.07 4.07 0 0 0 2.32-.737 4.27 4.27 0 0 0 1.54-1.96 4.53 4.53 0 0 0 .24-2.524c-.16-.847-.56-1.626-1.14-2.237-.39-.408-.85-.732-1.36-.953a4.01 4.01 0 0 0-1.6-.335c-.55 0-1.1.114-1.61.335a4.04 4.04 0 0 0-1.35.953h0zm26.67-114.513a3.13 3.13 0 0 0-.81 1.579 3.28 3.28 0 0 0 .17 1.781c.23.563.6 1.044 1.09 1.383a2.88 2.88 0 0 0 1.64.519c.58 0 1.15-.181 1.64-.519s.86-.82 1.09-1.383a3.28 3.28 0 0 0 .17-1.781c-.11-.598-.39-1.148-.81-1.579-.55-.577-1.31-.901-2.09-.901s-1.54.324-2.09.901h0zm53.72 121.554c-.41.432-.69.982-.8 1.58s-.06 1.217.17 1.78c.22.563.6 1.044 1.09 1.383a2.84 2.84 0 0 0 1.64.519c.58 0 1.15-.181 1.64-.519.48-.339.86-.82 1.09-1.383.22-.563.28-1.182.17-1.78a3.21 3.21 0 0 0-.81-1.58c-.56-.577-1.31-.901-2.09-.901a2.92 2.92 0 0 0-2.1.901h0zm-131-73.738a3.14 3.14 0 0 0 .81-1.586c.12-.602.06-1.226-.16-1.793-.23-.567-.61-1.052-1.09-1.394a2.91 2.91 0 0 0-1.66-.523 2.9 2.9 0 0 0-1.65.523c-.48.341-.86.826-1.09 1.394-.22.567-.28 1.191-.16 1.793a3.14 3.14 0 0 0 .81 1.586c.56.577 1.31.901 2.09.901a2.92 2.92 0 0 0 2.1-.901h0zm125.33 115.912c-.31-.317-.69-.533-1.12-.62-.42-.088-.85-.042-1.25.129a2.2 2.2 0 0 0-.98.837c-.24.373-.36.812-.36 1.261s.12.888.36 1.261a2.19 2.19 0 0 0 .98.836 2.07 2.07 0 0 0 1.25.13c.43-.087.81-.303 1.12-.62a2.33 2.33 0 0 0 .47-.737c.11-.276.17-.572.17-.87s-.06-.594-.17-.87a2.33 2.33 0 0 0-.47-.737h0zm-36.85-102.33c-.19.202-.31.457-.36.732a1.43 1.43 0 0 0 .09.818c.1.258.28.478.5.632a1.32 1.32 0 0 0 .75.237c.27 0 .54-.082.76-.237a1.4 1.4 0 0 0 .5-.632 1.43 1.43 0 0 0 .09-.818c-.05-.275-.17-.53-.36-.732-.13-.138-.28-.248-.45-.323s-.35-.114-.54-.114c-.18 0-.36.039-.53.114s-.32.185-.45.323zm50.1 70.153c.19-.202.31-.457.36-.732.04-.275.01-.558-.09-.815-.11-.256-.28-.475-.51-.629a1.31 1.31 0 0 0-1.5 0c-.23.154-.4.373-.51.629-.1.257-.13.54-.09.815.05.275.17.53.36.732a1.39 1.39 0 0 0 .45.329 1.31 1.31 0 0 0 1.08 0 1.39 1.39 0 0 0 .45-.329zm22.16-25.208c.19-.201.31-.456.36-.731a1.52 1.52 0 0 0-.08-.818c-.11-.258-.29-.478-.51-.633a1.33 1.33 0 0 0-.75-.237c-.27 0-.54.083-.76.237s-.4.375-.5.633a1.43 1.43 0 0 0-.09.818c.05.275.17.53.36.731a1.39 1.39 0 0 0 .45.324c.17.075.35.113.54.113a1.31 1.31 0 0 0 .53-.113 1.39 1.39 0 0 0 .45-.324zm-20.54-9.068c-.19.202-.32.456-.36.732-.05.275-.02.56.08.817.11.258.28.478.51.633.22.154.48.237.75.237a1.36 1.36 0 0 0 .76-.237c.22-.155.39-.375.5-.633a1.62 1.62 0 0 0 .09-.817c-.05-.276-.18-.53-.36-.732a1.5 1.5 0 0 0-.45-.323 1.36 1.36 0 0 0-.54-.114 1.28 1.28 0 0 0-.53.114 1.29 1.29 0 0 0-.45.323zm-124.16 21.423c-.13.133-.24.294-.31.472a1.36 1.36 0 0 0-.11.563 1.36 1.36 0 0 0 .11.563c.07.178.18.339.31.472s.28.248.45.324.35.113.54.113a1.31 1.31 0 0 0 .53-.113c.17-.076.32-.186.45-.324a1.5 1.5 0 0 0 .31-.472 1.51 1.51 0 0 0 .1-.558 1.52 1.52 0 0 0-.1-.559 1.46 1.46 0 0 0-.3-.474c-.13-.136-.28-.244-.45-.318s-.36-.112-.54-.113-.36.036-.53.109a1.42 1.42 0 0 0-.46.315h0z" class="B"/><path d="M1157.54 158.693c.38 0 .7-.326.7-.728s-.32-.728-.7-.728c-.39 0-.7.326-.7.728s.31.728.7.728z"/><g class="B"><path d="M1212.5 228.846c-.1-.102-.22-.172-.36-.2s-.28-.014-.4.041c-.13.055-.24.148-.32.268a.81.81 0 0 0-.11.405.81.81 0 0 0 .11.405c.08.12.19.213.32.268.12.055.26.07.4.041s.26-.098.36-.2a.74.74 0 0 0 .2-.514c0-.193-.07-.377-.2-.514zM977.115 35.497a.79.79 0 0 0 0 1.042.69.69 0 0 0 .482.157.7.7 0 0 0 .46-.216.76.76 0 0 0 .207-.48.77.77 0 0 0-.15-.503c-.136-.13-.315-.203-.5-.203a.72.72 0 0 0-.499.203h0zm196.375 122.311c.1-.102.16-.232.19-.373s.01-.288-.04-.421a.68.68 0 0 0-.26-.328.66.66 0 0 0-.38-.123.67.67 0 0 0-.39.123.68.68 0 0 0-.26.328c-.05.133-.07.279-.04.421a.74.74 0 0 0 .19.373.69.69 0 0 0 .5.212c.18 0 .36-.076.49-.212h0z"/><use xlink:href="#J"/><path d="M1197.07 217.892c-.19.201-.31.456-.36.731a1.52 1.52 0 0 0 .08.818c.11.258.28.478.51.633.22.154.48.237.75.237a1.36 1.36 0 0 0 .76-.237c.22-.155.4-.375.5-.633a1.43 1.43 0 0 0 .09-.818 1.51 1.51 0 0 0-.36-.731c-.13-.139-.28-.249-.45-.324s-.35-.113-.54-.113a1.31 1.31 0 0 0-.53.113c-.17.075-.32.185-.45.324z"/></g><path d="M920.926 38.939c.771 0 1.396-.652 1.396-1.457s-.625-1.457-1.396-1.457-1.395.652-1.395 1.457.625 1.457 1.395 1.457z"/><path d="M1163.33 280.19c-.19.202-.32.456-.37.732-.04.275-.01.56.09.818.11.257.28.477.51.632.22.155.48.237.75.237s.53-.082.75-.237c.23-.155.4-.375.51-.632a1.52 1.52 0 0 0 .08-.818c-.04-.276-.17-.53-.36-.732a1.29 1.29 0 0 0-.45-.323 1.28 1.28 0 0 0-.53-.114 1.36 1.36 0 0 0-.54.114c-.16.075-.32.185-.44.323zm-55.81-46.373c-.26.274-.41.646-.41 1.033s.15.757.42 1.03c.26.273.62.425.99.424s.72-.157.98-.431c.14-.133.24-.293.31-.47a1.52 1.52 0 0 0 .11-.558c0-.192-.04-.382-.11-.559a1.29 1.29 0 0 0-.31-.469c-.13-.141-.28-.253-.45-.329a1.31 1.31 0 0 0-.54-.116 1.33 1.33 0 0 0-.54.116c-.17.076-.32.188-.45.329z" class="B"/><path d="M1308.94 187.67c2.31 0 4.18-1.956 4.18-4.37s-1.87-4.369-4.18-4.369-4.19 1.956-4.19 4.369 1.88 4.37 4.19 4.37zm204.22-88.205c2.31 0 4.19-1.956 4.19-4.37s-1.88-4.37-4.19-4.37-4.18 1.956-4.18 4.37 1.87 4.37 4.18 4.37z"/><path d="M1396.71 116.904c-.59-.611-1.33-1.026-2.14-1.194a4.02 4.02 0 0 0-2.42.249c-.77.331-1.42.891-1.88 1.61a4.5 4.5 0 0 0-.7 2.427 4.5 4.5 0 0 0 .7 2.427 4.2 4.2 0 0 0 1.88 1.609 4.03 4.03 0 0 0 2.42.25 4.15 4.15 0 0 0 2.14-1.194 4.35 4.35 0 0 0 .91-1.418 4.55 4.55 0 0 0 .32-1.674 4.56 4.56 0 0 0-.32-1.675c-.21-.53-.52-1.012-.91-1.417h0z" class="B"/><path d="M1255.91 249.225c2.31 0 4.19-1.956 4.19-4.369s-1.88-4.37-4.19-4.37-4.19 1.956-4.19 4.37 1.88 4.369 4.19 4.369z"/><use xlink:href="#K"/><path d="M1283.83 127.244c-.42-.43-.94-.723-1.52-.841-.57-.118-1.16-.057-1.7.177a3.03 3.03 0 0 0-1.33 1.136c-.32.507-.49 1.103-.49 1.713a3.21 3.21 0 0 0 .49 1.712 3.03 3.03 0 0 0 1.33 1.137 2.83 2.83 0 0 0 1.7.177c.58-.118 1.1-.411 1.52-.841.27-.286.49-.626.64-1.001s.23-.778.23-1.184a3.19 3.19 0 0 0-.23-1.184c-.15-.375-.37-.715-.64-1.001h0zm164.81-80.179c-.41-.43-.94-.723-1.51-.841a2.83 2.83 0 0 0-1.7.177c-.54.233-1 .629-1.33 1.136a3.22 3.22 0 0 0-.5 1.713 3.22 3.22 0 0 0 .5 1.713 3.03 3.03 0 0 0 1.33 1.136c.54.234 1.13.296 1.7.177s1.1-.411 1.51-.841a3.04 3.04 0 0 0 .65-1.001c.15-.375.23-.778.23-1.184s-.08-.809-.23-1.184a3.04 3.04 0 0 0-.65-1.001h0zm-23.69 28.392a3.16 3.16 0 0 0 .82-1.587 3.31 3.31 0 0 0-.17-1.79 3.11 3.11 0 0 0-1.1-1.39 2.85 2.85 0 0 0-1.64-.522 2.86 2.86 0 0 0-1.65.522 3.11 3.11 0 0 0-1.1 1.39 3.31 3.31 0 0 0-.17 1.79 3.16 3.16 0 0 0 .82 1.587c.27.288.6.516.96.672s.75.236 1.14.236a2.83 2.83 0 0 0 1.13-.236c.36-.156.69-.384.96-.672h0zm-87.47 177.739c.42-.431.7-.981.81-1.579a3.28 3.28 0 0 0-.17-1.781c-.22-.563-.6-1.044-1.09-1.382-.48-.339-1.05-.519-1.64-.519a2.88 2.88 0 0 0-1.64.519 3.14 3.14 0 0 0-1.09 1.382 3.28 3.28 0 0 0-.17 1.781c.12.598.4 1.148.81 1.579a2.89 2.89 0 0 0 .96.676 2.81 2.81 0 0 0 1.13.238 2.86 2.86 0 0 0 1.14-.238c.36-.157.68-.386.95-.676h0zm-135.16-82.52a2.9 2.9 0 0 0-1.52-.848c-.57-.119-1.17-.057-1.71.177a3 3 0 0 0-1.34 1.142c-.32.509-.5 1.108-.5 1.721s.18 1.212.5 1.721a3 3 0 0 0 1.34 1.142 2.84 2.84 0 0 0 1.71.176c.58-.119 1.11-.414 1.52-.847.28-.288.5-.63.64-1.006.15-.376.23-.779.23-1.186s-.08-.81-.23-1.187c-.14-.376-.36-.717-.64-1.005zm122.21 120.297a2.3 2.3 0 0 0-.59 1.163c-.09.44-.04.897.12 1.311.17.415.45.769.8 1.019.36.249.78.382 1.21.382s.85-.133 1.21-.382a2.2 2.2 0 0 0 .8-1.019c.16-.415.21-.871.12-1.311a2.3 2.3 0 0 0-.59-1.163 2.12 2.12 0 0 0-.71-.493c-.26-.114-.54-.173-.83-.173-.28 0-.57.059-.83.173a2.12 2.12 0 0 0-.71.493h0z" class="B"/><path d="M1343.48 339.303c1.2 0 2.17-1.017 2.17-2.271s-.97-2.271-2.17-2.271c-1.21 0-2.18 1.017-2.18 2.271s.97 2.271 2.18 2.271z"/><g class="B"><use xlink:href="#L"/><path d="M1132.33 360.754a2.3 2.3 0 0 0-.59 1.163c-.09.44-.04.897.12 1.311.17.415.44.77.8 1.019s.78.382 1.21.382.85-.133 1.21-.382.63-.604.8-1.019c.16-.414.21-.871.12-1.311a2.3 2.3 0 0 0-.59-1.163 2.12 2.12 0 0 0-.71-.493c-.26-.114-.54-.173-.83-.173s-.57.059-.83.173a2.12 2.12 0 0 0-.71.493zm158.44-172.112c-.18.202-.31.456-.36.732-.04.275-.01.56.09.818.11.258.28.478.51.632.22.155.48.237.75.237s.53-.082.75-.237c.23-.154.4-.374.51-.632a1.52 1.52 0 0 0 .08-.818c-.04-.276-.17-.53-.36-.732a1.29 1.29 0 0 0-.45-.323 1.28 1.28 0 0 0-.53-.114 1.36 1.36 0 0 0-.54.114 1.5 1.5 0 0 0-.45.323zm48.12 70.153c.2.195.44.325.7.376a1.33 1.33 0 0 0 .79-.09c.24-.109.46-.293.6-.526a1.46 1.46 0 0 0 0-1.576c-.14-.234-.36-.417-.6-.526a1.33 1.33 0 0 0-.79-.09c-.26.05-.5.181-.7.376-.13.133-.23.293-.31.469-.07.177-.1.367-.1.559s.03.382.1.558c.08.177.18.337.31.47zm-67.76 18.867a1.51 1.51 0 0 0 .41-1.034c0-.387-.15-.757-.41-1.03-.27-.273-.62-.425-.99-.424a1.38 1.38 0 0 0-.99.431c-.13.133-.24.293-.31.47a1.52 1.52 0 0 0-.11.558c0 .192.04.382.11.559s.18.336.31.47c.13.14.28.252.45.328a1.33 1.33 0 0 0 .54.116c.19 0 .37-.039.54-.116a1.29 1.29 0 0 0 .45-.328zm153.7-31.778c.13.139.28.249.45.324s.35.113.54.113a1.31 1.31 0 0 0 .53-.113c.17-.075.32-.185.45-.324.19-.201.31-.456.36-.731a1.52 1.52 0 0 0-.08-.818c-.11-.258-.28-.478-.51-.633-.22-.154-.48-.237-.75-.237a1.36 1.36 0 0 0-.76.237c-.22.155-.4.375-.5.633a1.43 1.43 0 0 0-.09.818 1.51 1.51 0 0 0 .36.731zm42.43-12.896c-.13.133-.24.293-.31.469a1.52 1.52 0 0 0-.11.559c0 .192.04.382.11.559a1.43 1.43 0 0 0 .31.469c.19.195.44.325.7.376s.54.02.78-.09a1.38 1.38 0 0 0 .61-.526 1.46 1.46 0 0 0 0-1.576 1.38 1.38 0 0 0-.61-.526c-.24-.11-.52-.141-.78-.09a1.34 1.34 0 0 0-.7.376zm-104.23-1.457c-.19-.194-.43-.325-.7-.376-.26-.051-.53-.019-.78.09a1.39 1.39 0 0 0-.61.526c-.14.234-.22.508-.22.788a1.54 1.54 0 0 0 .22.788 1.39 1.39 0 0 0 .61.527c.25.109.52.141.78.09.27-.051.51-.182.7-.376.14-.134.24-.293.31-.47.08-.177.11-.367.11-.559s-.03-.382-.11-.558c-.07-.177-.17-.337-.31-.47zm-299.42-106.686a1.51 1.51 0 0 0-.36.732 1.43 1.43 0 0 0 .09.817c.1.258.28.478.5.633a1.36 1.36 0 0 0 .76.237c.27 0 .53-.083.75-.237.23-.155.4-.375.51-.633.1-.258.13-.542.08-.817a1.43 1.43 0 0 0-.36-.732 1.29 1.29 0 0 0-.45-.323c-.17-.076-.35-.114-.53-.114a1.31 1.31 0 0 0-.54.114c-.17.075-.32.185-.45.323h0zm483.13-71.653c.19-.202.31-.457.36-.732.04-.275.01-.558-.09-.815-.11-.257-.28-.475-.51-.629-.22-.154-.48-.236-.75-.236s-.53.082-.75.236c-.23.154-.4.372-.51.629-.1.257-.13.54-.09.815.05.275.17.53.36.732a1.39 1.39 0 0 0 .45.329 1.3 1.3 0 0 0 .54.116 1.3 1.3 0 0 0 .54-.116 1.39 1.39 0 0 0 .45-.329zm-202.28 173.369a1.43 1.43 0 0 0 .36-.732 1.43 1.43 0 0 0-.09-.817c-.1-.258-.28-.478-.5-.633a1.33 1.33 0 0 0-.75-.237c-.27 0-.54.083-.76.237s-.4.375-.5.633a1.43 1.43 0 0 0-.09.817 1.43 1.43 0 0 0 .36.732c.13.138.28.248.45.323s.35.114.54.114c.18 0 .36-.039.53-.114s.32-.185.45-.323zm-124.15 21.508a1.51 1.51 0 0 0 .36-.731 1.43 1.43 0 0 0-.09-.818c-.1-.258-.28-.478-.5-.633a1.36 1.36 0 0 0-.76-.237c-.27 0-.53.083-.75.237-.23.155-.4.375-.51.633a1.52 1.52 0 0 0-.08.818c.05.275.17.53.36.731a1.28 1.28 0 0 0 .45.324 1.31 1.31 0 0 0 .53.113c.19 0 .37-.038.54-.113s.32-.185.45-.324z"/></g><path d="M902.202 117.075c.77 0 1.395-.652 1.395-1.456s-.625-1.457-1.395-1.457-1.396.652-1.396 1.457.625 1.456 1.396 1.456z"/><path d="M1324.07 237.13c-.1-.102-.22-.172-.36-.2s-.28-.014-.4.041c-.13.055-.24.148-.32.268a.81.81 0 0 0-.11.405.81.81 0 0 0 .11.405c.08.12.19.213.32.268.12.055.26.069.4.041s.26-.098.36-.2c.13-.137.2-.321.2-.514a.74.74 0 0 0-.2-.514z" class="B"/><path d="M1213.4 261.995c.39 0 .7-.326.7-.729s-.31-.728-.7-.728-.7.326-.7.728.31.729.7.729zm19.14-13.34c.38 0 .69-.326.69-.728s-.31-.728-.69-.728c-.39 0-.7.326-.7.728s.31.728.7.728z"/><g class="B"><path d="M1106.92 119.689a.74.74 0 0 0 .19-.373c.03-.141.01-.288-.04-.421a.68.68 0 0 0-.26-.327.66.66 0 0 0-.38-.123.67.67 0 0 0-.39.123.68.68 0 0 0-.26.327c-.05.133-.07.28-.04.421a.74.74 0 0 0 .19.373.69.69 0 0 0 .5.212c.18 0 .36-.076.49-.212h0zm271.61 189.865c.1-.102.17-.232.19-.373.03-.141.02-.288-.03-.421a.83.83 0 0 0-.26-.328.69.69 0 0 0-.78 0 .73.73 0 0 0-.25.328c-.06.133-.07.28-.04.421.02.141.09.271.19.373.13.136.31.212.49.212s.36-.076.49-.212h0z"/><use xlink:href="#M"/><path d="M947.557 294.158c-.098.102-.164.231-.192.373s-.013.288.04.421.142.247.257.327.25.123.388.123a.68.68 0 0 0 .388-.123.73.73 0 0 0 .257-.327c.052-.133.066-.28.039-.421s-.094-.271-.192-.373c-.131-.136-.308-.213-.492-.213s-.362.077-.493.213h0z"/></g><path d="M1352.12 361.625c.39 0 .7-.326.7-.728s-.31-.728-.7-.728-.7.326-.7.728.31.728.7.728zm-.7-9.582c.39 0 .7-.327.7-.729s-.31-.728-.7-.728c-.38 0-.69.326-.69.728s.31.729.69.729zm-86.71-66.026c.38 0 .69-.326.69-.729s-.31-.728-.69-.728c-.39 0-.7.326-.7.728s.31.729.7.729z"/><use xlink:href="#N"/><path d="M1259.6 273.934c-.09.102-.16.232-.19.373s-.01.288.04.421a.68.68 0 0 0 .26.327.67.67 0 0 0 .39.123.66.66 0 0 0 .38-.123.68.68 0 0 0 .26-.327c.05-.133.07-.28.04-.421s-.09-.271-.19-.373c-.13-.136-.31-.212-.49-.212a.69.69 0 0 0-.5.212h0zm59.19-24.693c-.27.274-.41.647-.41 1.035a1.47 1.47 0 0 0 .41 1.036 1.37 1.37 0 0 0 .99.428 1.37 1.37 0 0 0 .99-.428c.14-.134.24-.294.32-.472.07-.178.11-.37.11-.564a1.54 1.54 0 0 0-.11-.563 1.46 1.46 0 0 0-.32-.472 1.39 1.39 0 0 0-.45-.329c-.17-.076-.36-.116-.54-.116a1.31 1.31 0 0 0-.54.116 1.39 1.39 0 0 0-.45.329zm-85.15 23.451c-.18.202-.31.456-.36.732a1.43 1.43 0 0 0 .09.818c.1.257.28.477.5.632a1.35 1.35 0 0 0 .76.237c.27 0 .53-.082.75-.237.23-.155.4-.375.51-.632a1.52 1.52 0 0 0 .08-.818 1.43 1.43 0 0 0-.36-.732c-.13-.138-.28-.248-.45-.323s-.35-.114-.53-.114c-.19 0-.37.039-.54.114s-.32.185-.45.323zm18.5 1.457c-.19.202-.32.456-.37.732-.04.275-.01.56.09.818.11.257.28.477.51.632.22.155.48.237.75.237a1.35 1.35 0 0 0 .76-.237c.22-.155.4-.375.5-.632.11-.258.14-.543.09-.818a1.52 1.52 0 0 0-.36-.732c-.13-.138-.28-.248-.45-.323a1.36 1.36 0 0 0-.54-.114 1.28 1.28 0 0 0-.53.114 1.29 1.29 0 0 0-.45.323zM935.781 155.365a1.45 1.45 0 0 0 .36-.731c.048-.276.019-.56-.086-.818a1.42 1.42 0 0 0-.505-.633 1.33 1.33 0 0 0-1.509 0c-.224.155-.399.375-.504.633s-.135.542-.087.818.174.53.361.731a1.36 1.36 0 0 0 .45.324c.169.075.351.113.535.113a1.32 1.32 0 0 0 .535-.113 1.38 1.38 0 0 0 .45-.324h0zm25.495-50.515c-.415-.435-.943-.732-1.52-.853a2.85 2.85 0 0 0-1.717.173 3 3 0 0 0-1.335 1.141c-.327.51-.501 1.11-.501 1.724s.174 1.213.501 1.723.792.908 1.335 1.142a2.85 2.85 0 0 0 1.717.173c.577-.121 1.105-.418 1.52-.853.546-.584.852-1.369.852-2.185a3.2 3.2 0 0 0-.852-2.185h0zm25.537-15.253c.186-.202.311-.456.36-.732a1.5 1.5 0 0 0-.086-.818 1.41 1.41 0 0 0-.505-.632 1.33 1.33 0 0 0-.754-.237c-.268 0-.531.082-.755.237s-.399.374-.504.632-.135.542-.086.818.174.53.36.732c.128.138.281.248.45.323a1.32 1.32 0 0 0 1.07 0c.169-.075.322-.185.45-.323h0z" class="B"/><path d="M967.253 82.999c.771 0 1.395-.652 1.395-1.457s-.624-1.457-1.395-1.457-1.395.652-1.395 1.457.625 1.457 1.395 1.457z"/><path d="M947.845 94.167c.098-.102.164-.232.192-.373a.75.75 0 0 0-.04-.421c-.053-.133-.142-.247-.257-.327a.68.68 0 0 0-.388-.123.68.68 0 0 0-.388.123c-.115.08-.204.194-.257.327s-.066.28-.039.421a.74.74 0 0 0 .192.373.68.68 0 0 0 .492.212c.185 0 .362-.076.493-.212h0zm15.456-.671c.098-.102.164-.231.192-.373s.013-.288-.04-.421-.142-.247-.257-.327a.68.68 0 0 0-.388-.123.68.68 0 0 0-.388.123c-.115.08-.204.194-.257.327s-.066.28-.039.421.094.271.191.373c.131.136.308.213.493.213a.68.68 0 0 0 .493-.213h0zm-20.723 11.754a1.43 1.43 0 0 0-.315.472c-.073.178-.111.37-.111.563a1.49 1.49 0 0 0 .111.564 1.44 1.44 0 0 0 .315.472c.128.138.281.248.45.323a1.32 1.32 0 0 0 1.07 0c.169-.075.322-.185.45-.323a1.47 1.47 0 0 0 .304-.473c.071-.176.108-.366.109-.558a1.52 1.52 0 0 0-.105-.558 1.47 1.47 0 0 0-.301-.475 1.4 1.4 0 0 0-.453-.318 1.35 1.35 0 0 0-.534-.113c-.184 0-.366.037-.535.109a1.4 1.4 0 0 0-.455.315h0zm420.582 192.321c-.19.202-.31.457-.36.732a1.52 1.52 0 0 0 .08.818c.11.258.28.478.51.632a1.32 1.32 0 0 0 .75.237 1.35 1.35 0 0 0 .76-.237c.22-.154.4-.374.5-.632a1.43 1.43 0 0 0 .09-.818c-.05-.275-.17-.53-.36-.732-.13-.138-.28-.248-.45-.323s-.35-.114-.54-.114c-.18 0-.36.039-.53.114s-.32.185-.45.323h0zm167.47-132.736c-.19-.193-.44-.322-.7-.371s-.54-.016-.78.094c-.25.11-.46.293-.6.526-.15.233-.23.507-.23.786s.08.552.23.786c.14.233.35.416.6.526.24.11.52.143.78.094s.51-.178.7-.371c.13-.133.24-.294.31-.472a1.37 1.37 0 0 0 0-1.126c-.07-.178-.18-.339-.31-.472zm-36.88 134.25c-.13.133-.23.293-.31.469-.07.177-.1.367-.1.559s.03.382.1.559c.08.176.18.336.31.469.2.195.44.325.71.376.26.051.53.02.78-.09a1.31 1.31 0 0 0 .6-.526 1.46 1.46 0 0 0 0-1.576c-.14-.234-.35-.417-.6-.526s-.52-.141-.78-.09c-.27.051-.51.181-.71.376zm-189.98 50.472a1.43 1.43 0 0 0-.36.732c-.05.275-.02.56.09.818.1.258.28.478.5.632a1.32 1.32 0 0 0 .75.237 1.35 1.35 0 0 0 .76-.237c.22-.154.4-.374.5-.632.11-.258.14-.543.09-.818a1.43 1.43 0 0 0-.36-.732c-.13-.138-.28-.248-.45-.323s-.35-.114-.54-.114c-.18 0-.36.039-.53.114s-.32.185-.45.323zm244.18-197.705c-.27.275-.41.646-.41 1.033a1.5 1.5 0 0 0 .41 1.031c.27.272.62.425.99.424a1.38 1.38 0 0 0 .99-.431c.13-.134.24-.293.31-.47s.11-.367.11-.559-.04-.382-.11-.558-.18-.337-.31-.47c-.13-.14-.28-.252-.45-.328a1.33 1.33 0 0 0-.54-.116c-.19 0-.37.039-.54.116a1.29 1.29 0 0 0-.45.328zm-516.89 125.696c-.41.432-.69.981-.81 1.579a3.28 3.28 0 0 0 .17 1.781c.23.563.61 1.044 1.09 1.383.49.338 1.06.519 1.64.519a2.84 2.84 0 0 0 1.64-.519c.49-.339.87-.82 1.09-1.383.23-.563.28-1.183.17-1.781s-.39-1.147-.8-1.579a2.92 2.92 0 0 0-2.1-.902c-.78 0-1.53.325-2.09.902zm8.19-94.147a2.91 2.91 0 0 0-1.51-.842c-.57-.118-1.17-.056-1.71.178-.53.234-1 .629-1.32 1.136a3.22 3.22 0 0 0-.5 1.713 3.22 3.22 0 0 0 .5 1.712 3 3 0 0 0 1.32 1.136c.54.234 1.14.296 1.71.178a2.91 2.91 0 0 0 1.51-.842c.56-.58.87-1.366.87-2.184s-.31-1.605-.87-2.185h0zM527.866 283.832c-.415.433-.697.985-.811 1.587s-.056 1.224.169 1.79.605 1.05 1.093 1.39 1.062.522 1.649.522 1.161-.182 1.649-.522.868-.824 1.093-1.39.283-1.189.169-1.79a3.14 3.14 0 0 0-.812-1.587 2.95 2.95 0 0 0-.963-.673 2.87 2.87 0 0 0-2.272 0c-.361.156-.688.385-.964.673z" class="B"/><path d="M1023.84 323.549c1.2 0 2.17-1.016 2.17-2.27s-.97-2.271-2.17-2.271-2.18 1.017-2.18 2.271.98 2.27 2.18 2.27z"/><path d="M1036.67 285.446a1.43 1.43 0 0 0-.36.732c-.05.275-.02.56.08.817.11.258.28.478.51.633.22.154.48.237.75.237a1.36 1.36 0 0 0 .76-.237c.22-.155.4-.375.5-.633a1.43 1.43 0 0 0 .09-.817c-.05-.276-.18-.53-.36-.732-.13-.138-.28-.248-.45-.323a1.31 1.31 0 0 0-.54-.114c-.18 0-.36.038-.53.114a1.4 1.4 0 0 0-.45.323zm24.13-25.208c-.13-.138-.28-.248-.45-.323a1.36 1.36 0 0 0-.54-.114c-.18 0-.36.038-.53.114a1.29 1.29 0 0 0-.45.323c-.19.202-.32.456-.36.732-.05.275-.02.56.08.817.11.258.28.478.51.633.22.154.48.237.75.237a1.36 1.36 0 0 0 .76-.237c.22-.155.39-.375.5-.633a1.62 1.62 0 0 0 .09-.817c-.05-.276-.18-.53-.36-.732zm23.9-86.834c-.18.202-.31.456-.36.732a1.62 1.62 0 0 0 .09.817c.11.258.28.478.5.633a1.36 1.36 0 0 0 .76.237c.27 0 .53-.083.75-.237.23-.155.4-.375.51-.633.1-.257.13-.542.08-.817-.04-.276-.17-.53-.36-.732a1.29 1.29 0 0 0-.45-.323c-.16-.076-.35-.114-.53-.114s-.37.038-.54.114a1.5 1.5 0 0 0-.45.323zm-44.45 79.807a1.52 1.52 0 0 0-.36.732 1.43 1.43 0 0 0 .09.818c.1.258.28.478.5.632a1.35 1.35 0 0 0 .76.237 1.32 1.32 0 0 0 .75-.237c.22-.154.4-.374.51-.632a1.52 1.52 0 0 0 .08-.818c-.05-.275-.17-.53-.36-.732-.13-.138-.28-.248-.45-.323s-.35-.114-.53-.114c-.19 0-.37.039-.54.114s-.32.185-.45.323zm-18.42 12.625c-.1-.102-.22-.171-.36-.2a.67.67 0 0 0-.4.041.73.73 0 0 0-.32.268.81.81 0 0 0-.11.405c0 .145.04.285.11.405.08.12.19.213.32.268a.66.66 0 0 0 .4.042.69.69 0 0 0 .36-.201.74.74 0 0 0 .2-.514c0-.192-.07-.377-.2-.514h0z" class="B"/><path d="M994.636 327.021c.386 0 .698-.326.698-.729s-.312-.728-.698-.728-.698.326-.698.728.313.729.698.729zm81.164 11.468c.39 0 .7-.326.7-.729s-.31-.728-.7-.728c-.38 0-.7.326-.7.728a.72.72 0 0 0 .7.729z"/><path d="M1037.28 266.236a.75.75 0 0 0 .2-.373.86.86 0 0 0-.04-.421.82.82 0 0 0-.26-.327c-.12-.08-.25-.123-.39-.123s-.27.043-.39.123a.72.72 0 0 0-.25.327c-.06.134-.07.28-.04.421.02.142.09.272.19.373.13.136.31.213.49.213.19 0 .36-.077.49-.213zm-20.72 11.726c-.18.202-.31.456-.36.732a1.43 1.43 0 0 0 .09.818c.1.257.28.477.5.632a1.35 1.35 0 0 0 .76.237 1.32 1.32 0 0 0 .75-.237c.23-.155.4-.375.51-.632a1.52 1.52 0 0 0 .08-.818 1.43 1.43 0 0 0-.36-.732c-.13-.138-.28-.248-.45-.323s-.35-.114-.53-.114c-.19 0-.37.039-.54.114s-.32.185-.45.323h0zm-95.196-.9c-.186.202-.311.456-.36.732s-.019.56.086.818a1.42 1.42 0 0 0 .504.632c.224.155.487.237.755.237s.531-.082.755-.237a1.42 1.42 0 0 0 .504-.632c.105-.258.135-.543.086-.818a1.46 1.46 0 0 0-.36-.732c-.128-.138-.281-.248-.45-.323a1.32 1.32 0 0 0-1.07 0c-.169.075-.322.185-.45.323h0zm139.516 49.159c-.19.201-.31.456-.36.731a1.52 1.52 0 0 0 .08.818c.11.258.28.478.51.633.22.154.48.237.75.237a1.36 1.36 0 0 0 .76-.237c.22-.155.4-.375.5-.633a1.43 1.43 0 0 0 .09-.818 1.51 1.51 0 0 0-.36-.731c-.13-.138-.28-.248-.45-.324s-.35-.113-.54-.113a1.31 1.31 0 0 0-.53.113c-.17.076-.32.186-.45.324h0zm270.45 35.704a1.46 1.46 0 0 0 .32-.472 1.54 1.54 0 0 0 .11-.563c0-.194-.04-.386-.11-.564-.08-.177-.18-.338-.32-.471-.13-.139-.28-.249-.45-.324s-.35-.114-.53-.114c-.19 0-.37.039-.54.114s-.32.185-.45.324c-.26.272-.41.643-.41 1.03a1.5 1.5 0 0 0 .4 1.033 1.37 1.37 0 0 0 .99.431c.37.001.73-.151.99-.424h0zm17.71 63.684c-.18.202-.31.456-.36.732a1.43 1.43 0 0 0 .09.818c.1.257.28.477.5.632a1.36 1.36 0 0 0 .76.237c.27 0 .53-.083.75-.237.23-.155.4-.375.51-.632a1.52 1.52 0 0 0 .08-.818 1.43 1.43 0 0 0-.36-.732c-.13-.138-.28-.248-.45-.323s-.35-.114-.53-.114c-.19 0-.37.039-.54.114s-.32.185-.45.323zm-75.49-112.113a1.51 1.51 0 0 0-.36.731c-.04.276-.01.56.09.818.11.258.28.478.5.633a1.36 1.36 0 0 0 .76.237c.27 0 .53-.083.75-.237.23-.155.4-.375.51-.633a1.52 1.52 0 0 0 .08-.818c-.04-.275-.17-.53-.36-.731a1.28 1.28 0 0 0-.45-.324c-.16-.075-.35-.113-.53-.113a1.36 1.36 0 0 0-.54.113 1.49 1.49 0 0 0-.45.324zm305.21-114.671c-.83-.003-1.64.252-2.34.732a4.36 4.36 0 0 0-1.55 1.965c-.32.801-.4 1.682-.24 2.534a4.48 4.48 0 0 0 1.14 2.248c.59.615 1.34 1.034 2.15 1.204.82.17 1.66.084 2.43-.247s1.43-.893 1.89-1.615a4.54 4.54 0 0 0 .71-2.437c0-1.16-.44-2.273-1.23-3.095a4.11 4.11 0 0 0-2.96-1.289h0zm-4.18-73.981a4.06 4.06 0 0 0 2.33-.743 4.31 4.31 0 0 0 1.54-1.975c.31-.804.39-1.687.22-2.537a4.38 4.38 0 0 0-1.16-2.236c-.6-.607-1.35-1.016-2.17-1.175a4 4 0 0 0-2.42.284 4.2 4.2 0 0 0-1.86 1.647 4.57 4.57 0 0 0-.67 2.45c.02 1.145.47 2.234 1.26 3.035.78.801 1.83 1.25 2.93 1.25zm59.95 93.22c-.59-.003-1.17.176-1.66.515s-.87.822-1.1 1.388c-.22.566-.28 1.189-.17 1.791s.39 1.156.81 1.59c.41.435.94.732 1.52.853a2.88 2.88 0 0 0 1.72-.174c.54-.234 1-.632 1.33-1.142s.5-1.109.5-1.723c0-.406-.07-.809-.22-1.184a3.05 3.05 0 0 0-.64-1.006c-.27-.288-.6-.516-.96-.672s-.74-.236-1.13-.236z" class="B"/><path d="M1514.19 177.93c1.63 0 2.95-1.381 2.95-3.084s-1.32-3.085-2.95-3.085-2.96 1.381-2.96 3.085 1.33 3.084 2.96 3.084z"/><g class="B"><path d="M1662.7 127.216c-.58 0-1.16.182-1.65.522-.48.341-.87.825-1.09 1.391a3.31 3.31 0 0 0-.17 1.79 3.23 3.23 0 0 0 .81 1.587 2.98 2.98 0 0 0 1.52.848c.58.12 1.18.058 1.72-.176a3.03 3.03 0 0 0 1.33-1.142 3.16 3.16 0 0 0 .5-1.721c0-.822-.31-1.61-.87-2.192a2.91 2.91 0 0 0-2.1-.907zm-170.07 13.639c.43 0 .85-.134 1.21-.383a2.2 2.2 0 0 0 .8-1.019c.17-.415.21-.871.13-1.312a2.39 2.39 0 0 0-.6-1.162 2.13 2.13 0 0 0-1.11-.622 2.1 2.1 0 0 0-1.26.129 2.2 2.2 0 0 0-.98.837c-.23.373-.36.812-.36 1.261 0 .298.05.594.16.869a2.33 2.33 0 0 0 .47.737c.21.21.45.378.71.492s.55.173.83.173h0zM1587.98 186c0-.282-.08-.558-.23-.793a1.37 1.37 0 0 0-.61-.526 1.32 1.32 0 0 0-.79-.081c-.27.055-.51.191-.7.391a1.37 1.37 0 0 0-.38.731c-.05.277-.02.564.08.825a1.42 1.42 0 0 0 .5.641 1.34 1.34 0 0 0 .76.24c.37 0 .71-.15.97-.418s.4-.631.4-1.01zm-80.14-12.596c0-.283-.08-.559-.23-.794a1.37 1.37 0 0 0-.61-.526 1.32 1.32 0 0 0-.79-.081c-.27.055-.51.191-.7.391s-.32.454-.38.731c-.05.277-.02.564.08.825a1.42 1.42 0 0 0 .5.641 1.34 1.34 0 0 0 .76.241c.37 0 .72-.151.97-.419.26-.267.4-.631.4-1.009zm1.4 34.176a1.49 1.49 0 0 0-.4-1.009c-.26-.268-.61-.419-.97-.419s-.71.151-.97.419a1.49 1.49 0 0 0-.4 1.009 1.49 1.49 0 0 0 .4 1.01c.26.268.61.418.97.418s.71-.15.97-.418a1.49 1.49 0 0 0 .4-1.01z"/><use xlink:href="#O"/><path d="M1488.45 206.694a1.34 1.34 0 0 0 .76-.24 1.42 1.42 0 0 0 .5-.641c.1-.261.13-.548.08-.825a1.37 1.37 0 0 0-.38-.731c-.19-.2-.43-.336-.7-.391a1.32 1.32 0 0 0-.79.081 1.37 1.37 0 0 0-.61.526c-.15.235-.23.511-.23.793 0 .379.14.742.4 1.01s.6.418.97.418z"/></g><path d="M1598.96 93.41c.77 0 1.4-.652 1.4-1.457s-.63-1.457-1.4-1.457-1.39.652-1.39 1.457.62 1.457 1.39 1.457z"/><g class="B"><path d="M1531.61 174.832c-.1-.022-.2-.019-.3.007s-.2.075-.28.143c-.07.069-.14.155-.18.252-.05.097-.07.204-.07.312a.67.67 0 0 0 .07.311.77.77 0 0 0 .18.252.72.72 0 0 0 .28.144.65.65 0 0 0 .3.007.7.7 0 0 0 .41-.253c.1-.13.16-.293.16-.461s-.06-.332-.16-.462a.7.7 0 0 0-.41-.252h0zm-10.47 11.897a.67.67 0 0 0-.39.122c-.12.08-.2.194-.26.327a.86.86 0 0 0-.04.421c.03.141.1.271.19.373.1.102.23.171.36.199.14.028.28.014.4-.041.13-.055.24-.149.32-.269.07-.119.12-.26.12-.404 0-.096-.02-.191-.06-.279-.03-.088-.08-.169-.15-.236-.06-.068-.14-.121-.23-.158-.08-.037-.17-.055-.26-.055z"/><use xlink:href="#O" y="-34.976"/></g><path d="M1514.22 86.469c.77 0 1.39-.652 1.39-1.457s-.62-1.457-1.39-1.457-1.4.652-1.4 1.457.63 1.457 1.4 1.457z"/><g class="B"><use xlink:href="#M" x="266.13" y="-198.748"/><path d="M1691.91 192.527c-.14-.136-.31-.213-.5-.213-.18 0-.36.077-.49.213a.76.76 0 0 0-.2.521.76.76 0 0 0 .2.521.7.7 0 0 0 .49.202.72.72 0 0 0 .5-.202.76.76 0 0 0 .2-.521.76.76 0 0 0-.2-.521h0zm-71.83-46.659c.27-.275.41-.647.41-1.034s-.15-.757-.41-1.03c-.27-.273-.62-.425-.99-.424a1.38 1.38 0 0 0-.99.431c-.13.134-.24.293-.31.47s-.11.367-.11.559a1.52 1.52 0 0 0 .11.558c.07.177.18.336.31.47.13.14.28.252.45.328a1.33 1.33 0 0 0 .54.116c.19 0 .37-.039.54-.116a1.29 1.29 0 0 0 .45-.328zm-282.66 556.226c-.83 0-1.64.256-2.33.736s-1.22 1.163-1.54 1.961-.4 1.677-.24 2.525a4.39 4.39 0 0 0 1.15 2.237 4.11 4.11 0 0 0 2.14 1.196c.81.169 1.65.082 2.42-.249.76-.33 1.42-.89 1.88-1.609s.7-1.563.7-2.428c0-1.158-.44-2.27-1.22-3.089-.79-.82-1.85-1.28-2.96-1.28h0zm-107.48-273.671c-.83 0-1.64.256-2.33.736s-1.22 1.163-1.54 1.961-.4 1.678-.24 2.525.56 1.627 1.15 2.238c.58.611 1.33 1.027 2.14 1.196s1.65.082 2.42-.249a4.26 4.26 0 0 0 1.88-1.61 4.5 4.5 0 0 0 .7-2.427c0-1.159-.44-2.271-1.22-3.09-.79-.82-1.85-1.28-2.96-1.28zm-35.02 40.16a4.02 4.02 0 0 0-2.32.737c-.69.48-1.23 1.163-1.55 1.961-.31.799-.4 1.677-.23 2.525.16.847.56 1.626 1.14 2.237.59.611 1.33 1.028 2.14 1.196a4.02 4.02 0 0 0 2.42-.248c.77-.331 1.42-.891 1.88-1.61a4.51 4.51 0 0 0 .71-2.428c0-1.159-.44-2.27-1.23-3.09-.78-.819-1.85-1.28-2.96-1.28zm-163.08 150.833c-.83 0-1.64.256-2.33.736a4.41 4.41 0 0 0-1.54 1.961c-.31.799-.4 1.677-.24 2.525.17.848.56 1.626 1.15 2.237s1.33 1.028 2.14 1.196a4.02 4.02 0 0 0 2.42-.248c.77-.331 1.42-.891 1.88-1.61a4.51 4.51 0 0 0 .71-2.428c0-1.159-.45-2.27-1.23-3.09-.79-.819-1.85-1.279-2.96-1.279zM845.862 456.373a4.06 4.06 0 0 0-2.325.736c-.688.48-1.225 1.163-1.541 1.961a4.56 4.56 0 0 0-.239 2.525 4.43 4.43 0 0 0 1.146 2.237 4.13 4.13 0 0 0 2.143 1.196c.812.169 1.653.082 2.418-.249a4.23 4.23 0 0 0 1.879-1.609c.46-.719.705-1.563.705-2.428a4.47 4.47 0 0 0-1.226-3.09c-.785-.819-1.849-1.279-2.96-1.279zm15.935 137.392c-.828 0-1.637.256-2.325.737a4.34 4.34 0 0 0-1.542 1.961 4.56 4.56 0 0 0-.238 2.525c.162.847.56 1.626 1.146 2.237a4.14 4.14 0 0 0 2.143 1.196c.812.169 1.653.082 2.418-.249a4.22 4.22 0 0 0 1.878-1.609 4.51 4.51 0 0 0 .706-2.428 4.47 4.47 0 0 0-1.226-3.09c-.785-.819-1.85-1.28-2.96-1.28z"/><path d="M1337.42 623.785a4.51 4.51 0 0 0-.71-2.427c-.46-.719-1.11-1.279-1.88-1.61a4.02 4.02 0 0 0-2.42-.249c-.81.169-1.55.585-2.14 1.196a4.46 4.46 0 0 0-1.14 2.238c-.17.848-.08 1.726.23 2.525.32.798.86 1.481 1.55 1.961a4.02 4.02 0 0 0 2.32.736 4.09 4.09 0 0 0 2.96-1.28 4.45 4.45 0 0 0 1.23-3.09zm-305.58-77.108c0-.864-.25-1.709-.71-2.428a4.24 4.24 0 0 0-1.87-1.609c-.77-.331-1.61-.418-2.42-.249s-1.56.585-2.15 1.196c-.58.611-.98 1.39-1.14 2.237s-.08 1.727.24 2.525a4.27 4.27 0 0 0 1.54 1.961 4.07 4.07 0 0 0 2.32.737c1.11 0 2.18-.461 2.96-1.28.79-.82 1.23-1.931 1.23-3.09z"/></g><path d="M1393.18 727.501c1.63 0 2.96-1.381 2.96-3.085s-1.33-3.084-2.96-3.084-2.95 1.381-2.95 3.084 1.32 3.085 2.95 3.085z"/><g class="B"><path d="M985.39 620.687c-.587 0-1.161.181-1.649.522a3.07 3.07 0 0 0-1.093 1.39 3.22 3.22 0 0 0-.169 1.791c.114.601.397 1.153.812 1.586a2.93 2.93 0 0 0 1.52.849c.576.119 1.172.058 1.715-.177a3 3 0 0 0 1.332-1.141 3.2 3.2 0 0 0 .5-1.722 3.22 3.22 0 0 0-.226-1.186 3.12 3.12 0 0 0-.643-1.005 2.97 2.97 0 0 0-.963-.672 2.87 2.87 0 0 0-1.136-.235h0zm287.49 54.328c-.58-.003-1.16.177-1.65.515s-.87.822-1.1 1.388c-.22.566-.28 1.19-.17 1.792a3.08 3.08 0 0 0 .81 1.59c.41.435.94.732 1.52.852.57.121 1.17.061 1.71-.174.55-.234 1.01-.631 1.34-1.141.32-.51.5-1.109.5-1.723 0-.819-.31-1.605-.87-2.186-.55-.581-1.3-.909-2.09-.913h0zm149.19-172.483a3.18 3.18 0 0 0-.5-1.727 2.93 2.93 0 0 0-1.33-1.148c-.54-.236-1.14-.299-1.71-.18-.58.119-1.11.415-1.53.849-.41.434-.7.988-.81 1.59a3.23 3.23 0 0 0 .17 1.794c.23.567.61 1.05 1.1 1.39a2.88 2.88 0 0 0 1.65.516 2.9 2.9 0 0 0 2.09-.907 3.17 3.17 0 0 0 .87-2.177zm-.73 127.895a2.9 2.9 0 0 0-1.65.523 3.03 3.03 0 0 0-1.09 1.393 3.32 3.32 0 0 0-.17 1.793c.12.601.4 1.153.82 1.586a2.96 2.96 0 0 0 1.52.845c.58.118 1.18.054 1.72-.182a3.05 3.05 0 0 0 1.33-1.148 3.26 3.26 0 0 0 .49-1.726c0-.406-.08-.808-.22-1.183-.15-.375-.37-.716-.65-1.003a2.9 2.9 0 0 0-.96-.668 2.87 2.87 0 0 0-1.14-.23zm-170.04 9.14c-.43 0-.85.134-1.21.383-.35.25-.63.604-.8 1.019a2.35 2.35 0 0 0-.12 1.312 2.3 2.3 0 0 0 .59 1.163c.31.317.69.533 1.12.621a2.06 2.06 0 0 0 1.25-.129 2.2 2.2 0 0 0 .98-.837c.24-.373.37-.812.37-1.261 0-.602-.23-1.18-.64-1.606a2.13 2.13 0 0 0-1.54-.665h0zm-145.78-33.42c-.43 0-.85.134-1.21.383-.35.25-.63.604-.8 1.019-.16.415-.2.872-.12 1.312s.29.845.59 1.162c.31.318.7.534 1.12.622a2.07 2.07 0 0 0 1.25-.129 2.2 2.2 0 0 0 .98-.837c.24-.373.37-.812.37-1.261a2.35 2.35 0 0 0-.17-.869 2.33 2.33 0 0 0-.47-.737c-.2-.21-.44-.378-.71-.492-.26-.114-.54-.173-.83-.173h0zm-194.127 66.055a2.11 2.11 0 0 0-1.208.382 2.25 2.25 0 0 0-.801 1.019 2.36 2.36 0 0 0-.124 1.312c.084.441.291.845.595 1.163a2.14 2.14 0 0 0 1.114.621 2.09 2.09 0 0 0 1.256-.129c.397-.172.737-.463.976-.836s.367-.813.367-1.262a2.32 2.32 0 0 0-.637-1.605 2.13 2.13 0 0 0-1.538-.665h0z"/><path d="M911.393 620.187a2.11 2.11 0 0 0-1.208.382 2.25 2.25 0 0 0-.801 1.019 2.36 2.36 0 0 0-.124 1.312 2.31 2.31 0 0 0 .595 1.163c.304.317.692.533 1.114.621s.859.043 1.256-.129a2.2 2.2 0 0 0 .976-.837 2.34 2.34 0 0 0 .367-1.261 2.32 2.32 0 0 0-.637-1.605 2.13 2.13 0 0 0-1.538-.665h0zm40.5-133.266c-.43 0-.851.134-1.209.383a2.26 2.26 0 0 0-.801 1.019 2.37 2.37 0 0 0-.123 1.312 2.3 2.3 0 0 0 .595 1.163 2.15 2.15 0 0 0 1.113.621c.422.088.86.043 1.257-.129a2.2 2.2 0 0 0 .976-.837 2.34 2.34 0 0 0 .367-1.261c0-.602-.23-1.18-.637-1.606s-.961-.665-1.538-.665zm393.357 200.891c-.36 0-.71.15-.96.418-.26.268-.4.631-.4 1.01s.14.742.4 1.01c.25.268.6.418.96.418a1.32 1.32 0 0 0 .97-.418c.26-.268.4-.631.4-1.01s-.14-.742-.4-1.01a1.32 1.32 0 0 0-.97-.418zm-78.74-11.155c0-.282-.08-.558-.23-.793a1.37 1.37 0 0 0-.61-.526 1.32 1.32 0 0 0-.79-.082 1.34 1.34 0 0 0-.7.391c-.2.2-.33.454-.38.731a1.55 1.55 0 0 0 .08.826 1.42 1.42 0 0 0 .5.641c.23.156.49.24.76.24.37 0 .71-.15.97-.418s.4-.631.4-1.01zm0 32.72a1.34 1.34 0 0 0-.76.241 1.42 1.42 0 0 0-.5.641c-.11.261-.13.548-.08.825a1.43 1.43 0 0 0 .37.731c.19.2.44.336.7.391a1.31 1.31 0 0 0 .79-.081c.25-.108.47-.291.62-.526s.23-.511.23-.794a1.49 1.49 0 0 0-.4-1.009c-.26-.268-.61-.419-.97-.419zm17.88-8.74c-.27 0-.54.084-.76.241a1.44 1.44 0 0 0-.51.641 1.45 1.45 0 0 0-.07.825 1.43 1.43 0 0 0 .37.731c.19.2.44.336.7.391a1.31 1.31 0 0 0 .79-.081 1.4 1.4 0 0 0 .62-.526c.15-.235.23-.511.23-.794 0-.378-.15-.742-.4-1.01a1.36 1.36 0 0 0-.97-.418zm-37.27 6.398c-.28 0-.54.084-.76.241a1.44 1.44 0 0 0-.51.641c-.1.261-.13.548-.08.825.06.277.19.531.38.731s.43.336.7.391a1.32 1.32 0 0 0 .79-.082 1.37 1.37 0 0 0 .61-.526 1.47 1.47 0 0 0 .23-.793c0-.379-.14-.742-.4-1.01a1.32 1.32 0 0 0-.96-.418zm-407.823 49.273c-.363 0-.71.151-.967.418s-.401.631-.401 1.01.145.742.401 1.01a1.34 1.34 0 0 0 .967.418c.363 0 .711-.15.967-.418a1.46 1.46 0 0 0 .401-1.01 1.46 1.46 0 0 0-.401-1.01 1.34 1.34 0 0 0-.967-.418zm518.393-162.543c-.27 0-.54.084-.76.241a1.44 1.44 0 0 0-.51.641 1.45 1.45 0 0 0-.07.825 1.43 1.43 0 0 0 .37.731c.19.2.43.336.7.391a1.31 1.31 0 0 0 .79-.081c.25-.108.46-.292.61-.526s.23-.511.23-.794c0-.379-.14-.742-.4-1.01a1.32 1.32 0 0 0-.96-.418z"/></g><path d="M1290.27 679.571c.38 0 .7-.326.7-.728s-.32-.729-.7-.729c-.39 0-.7.326-.7.729s.31.728.7.728z"/><path d="M982.436 779.474a.68.68 0 0 0-.388.122c-.115.08-.204.194-.257.327s-.067.28-.04.421.094.271.191.373a.69.69 0 0 0 .357.199c.136.028.276.014.404-.041s.236-.149.313-.268a.75.75 0 0 0 .117-.405c0-.193-.073-.378-.204-.515a.68.68 0 0 0-.493-.213h0z" class="B"/><path d="M1123.13 680.299c.38 0 .69-.326.69-.728s-.31-.728-.69-.728c-.39 0-.7.326-.7.728s.31.728.7.728zm-158.27-10.283c.385 0 .698-.326.698-.728s-.313-.728-.698-.728-.698.326-.698.728.312.728.698.728zm238.54-.728c.39 0 .7-.326.7-.729s-.31-.728-.7-.728c-.38 0-.7.326-.7.728a.72.72 0 0 0 .7.729z"/><path d="M1105.52 674.473a.68.68 0 0 0-.49.213.75.75 0 0 0-.21.514.76.76 0 0 0 .25.42c.12.107.28.165.44.165s.32-.058.44-.165c.13-.106.21-.255.24-.42 0-.188-.07-.369-.19-.504-.13-.136-.3-.216-.48-.223zm-239.537 3.856a.68.68 0 0 0-.388.122c-.115.08-.204.194-.257.327s-.067.28-.04.421.094.271.191.373.222.171.358.199a.67.67 0 0 0 .403-.041c.127-.056.236-.149.313-.269s.118-.26.118-.404c0-.193-.074-.379-.205-.515a.68.68 0 0 0-.493-.213zm-25.249-2.4c-.185 0-.363.077-.494.213s-.204.322-.204.515a.73.73 0 0 0 .242.419.68.68 0 0 0 .442.165c.161 0 .318-.058.442-.165a.73.73 0 0 0 .242-.419c0-.188-.069-.369-.194-.505a.69.69 0 0 0-.476-.223h0zm439.056 14.068c-.14 0-.27.043-.39.123a.72.72 0 0 0-.25.327c-.06.133-.07.279-.04.42a.67.67 0 0 0 .19.373c.1.102.22.172.36.2a.67.67 0 0 0 .4-.042.65.65 0 0 0 .31-.268c.08-.12.12-.261.12-.405 0-.193-.07-.378-.2-.515-.14-.136-.31-.213-.5-.213h0zm-132.15.728c-.1-.021-.21-.019-.31.008a.68.68 0 0 0-.46.395c-.05.097-.07.204-.07.311a.68.68 0 0 0 .07.312c.04.098.11.184.19.252a.68.68 0 0 0 .27.143.69.69 0 0 0 .31.008c.15-.034.3-.123.4-.253s.16-.293.16-.462a.76.76 0 0 0-.16-.461c-.1-.13-.25-.22-.4-.253z" class="B"/><path d="M964.162 694.295c.386 0 .698-.326.698-.728s-.312-.728-.698-.728-.698.326-.698.728.313.728.698.728z"/><g class="B"><use xlink:href="#P"/><use xlink:href="#P" x="-64.04" y="-1.457"/><path d="M955.463 602.506c-.271 0-.535.084-.76.24a1.42 1.42 0 0 0-.504.641 1.49 1.49 0 0 0-.078.825c.053.277.183.532.375.731a1.35 1.35 0 0 0 .7.391c.265.055.54.027.79-.081a1.38 1.38 0 0 0 .614-.526c.15-.235.23-.511.23-.793 0-.379-.144-.742-.4-1.01a1.34 1.34 0 0 0-.967-.418zm291.657-112.5c-.28 0-.54.084-.76.241a1.44 1.44 0 0 0-.51.641c-.1.261-.13.548-.08.825.06.277.19.531.38.731s.43.336.7.391a1.32 1.32 0 0 0 .79-.081 1.37 1.37 0 0 0 .61-.526c.15-.235.23-.511.23-.794 0-.378-.14-.742-.4-1.009-.25-.268-.6-.419-.96-.419zm-52.49-92.204c.37 0 .71-.151.97-.418s.4-.631.4-1.01-.14-.742-.4-1.01-.6-.418-.97-.418c-.36 0-.71.15-.96.418-.26.268-.4.631-.4 1.01s.14.742.4 1.01a1.32 1.32 0 0 0 .96.418z"/></g><path d="M1174.19 716.247c.77 0 1.39-.652 1.39-1.457s-.62-1.457-1.39-1.457c-.78 0-1.4.653-1.4 1.457s.62 1.457 1.4 1.457zM948.323 603.962c.77 0 1.395-.652 1.395-1.457s-.625-1.456-1.395-1.456-1.395.652-1.395 1.456.624 1.457 1.395 1.457z"/><g class="B"><path d="M925.207 516.414a1.33 1.33 0 0 0-.76.241 1.42 1.42 0 0 0-.504.641 1.49 1.49 0 0 0-.077.825c.052.277.183.531.374.731a1.35 1.35 0 0 0 .7.391 1.32 1.32 0 0 0 .791-.082c.25-.108.463-.291.613-.526s.231-.51.231-.793a1.46 1.46 0 0 0-.401-1.01c-.256-.268-.604-.418-.967-.418z"/><use xlink:href="#I" x="54.506" y="301.064"/><path d="M1045.3 435.707c-.27 0-.54.083-.76.24-.23.157-.4.38-.5.641-.11.261-.14.548-.08.825.05.277.18.532.37.731s.44.336.7.391a1.31 1.31 0 0 0 .79-.081c.25-.108.47-.291.62-.526s.23-.511.23-.793a1.49 1.49 0 0 0-.4-1.01c-.26-.268-.61-.418-.97-.418z"/></g><path d="M1162.01 400.715c.77 0 1.4-.652 1.4-1.457s-.63-1.456-1.4-1.456-1.39.652-1.39 1.456.62 1.457 1.39 1.457z"/><path d="M907.823 613.403a1.33 1.33 0 0 0-.76.241c-.225.156-.4.379-.504.64a1.49 1.49 0 0 0-.077.825 1.45 1.45 0 0 0 .374.732c.191.199.435.335.7.39s.541.027.79-.081a1.38 1.38 0 0 0 .614-.526c.15-.235.231-.511.231-.793a1.46 1.46 0 0 0-.401-1.01c-.256-.268-.604-.418-.967-.418zm-35.904-98.446a1.47 1.47 0 0 0-.231-.794c-.15-.234-.364-.417-.614-.525a1.31 1.31 0 0 0-.79-.082 1.35 1.35 0 0 0-.7.391c-.192.2-.322.454-.375.731a1.5 1.5 0 0 0 .078.825 1.42 1.42 0 0 0 .504.641c.225.157.489.241.76.241a1.34 1.34 0 0 0 .967-.418 1.46 1.46 0 0 0 .401-1.01zm76.404 0c0-.283-.08-.559-.23-.794a1.39 1.39 0 0 0-.614-.525 1.31 1.31 0 0 0-.791-.082 1.35 1.35 0 0 0-.7.391c-.191.2-.322.454-.374.731a1.48 1.48 0 0 0 .078.825 1.41 1.41 0 0 0 .503.641 1.33 1.33 0 0 0 .76.241 1.34 1.34 0 0 0 .967-.418 1.46 1.46 0 0 0 .401-1.01zm122.227-60.041c-.27 0-.54.083-.76.24a1.44 1.44 0 0 0-.51.641 1.45 1.45 0 0 0-.07.825c.05.277.18.532.37.731a1.37 1.37 0 0 0 .7.391 1.31 1.31 0 0 0 .79-.081 1.45 1.45 0 0 0 .62-.526c.15-.235.23-.511.23-.793a1.49 1.49 0 0 0-.4-1.01c-.26-.268-.61-.418-.97-.418z" class="B"/><use xlink:href="#Q"/><path d="M970.125 494.448c-.362 0-.71.151-.967.418s-.4.632-.4 1.01.144.742.4 1.01a1.34 1.34 0 0 0 .967.418 1.34 1.34 0 0 0 .968-.418c.256-.268.4-.631.4-1.01s-.144-.742-.4-1.01-.605-.418-.968-.418z" class="B"/><path d="M836.548 470.04c.77 0 1.395-.652 1.395-1.456s-.625-1.457-1.395-1.457-1.395.652-1.395 1.457.624 1.456 1.395 1.456zm340.582 61.098c.77 0 1.39-.652 1.39-1.456s-.62-1.457-1.39-1.457-1.4.652-1.4 1.457.63 1.456 1.4 1.456z"/><path d="M966.952 419.253a1.33 1.33 0 0 0-.76.241 1.41 1.41 0 0 0-.503.641 1.48 1.48 0 0 0-.078.825c.053.277.183.531.374.731a1.35 1.35 0 0 0 .7.391c.266.055.541.027.791-.081s.463-.291.614-.526.23-.511.23-.794c0-.378-.144-.742-.401-1.009s-.604-.419-.967-.419zm304.568 169.013c0 .283.08.559.23.794a1.37 1.37 0 0 0 .61.526 1.32 1.32 0 0 0 .79.081c.27-.055.51-.191.7-.391s.32-.454.38-.731c.05-.277.02-.564-.08-.825a1.44 1.44 0 0 0-.51-.641c-.22-.157-.49-.241-.76-.241-.36 0-.71.151-.96.419-.26.267-.4.631-.4 1.009z" class="B"/><path d="M1598.33 477.994c2.32 0 4.19-1.956 4.19-4.369s-1.87-4.37-4.19-4.37c-2.31 0-4.18 1.956-4.18 4.37s1.87 4.369 4.18 4.369z"/><use xlink:href="#K" x="155.42" y="195.335"/><path d="M1545.31 539.55c2.31 0 4.18-1.957 4.18-4.37s-1.87-4.37-4.18-4.37c-2.32 0-4.19 1.956-4.19 4.37s1.87 4.37 4.19 4.37z"/><path d="M1568.97 417.625a3.21 3.21 0 0 0-.81 1.58c-.11.598-.05 1.217.17 1.78.23.563.61 1.045 1.09 1.383.49.338 1.06.519 1.64.519s1.16-.181 1.64-.519c.49-.338.87-.82 1.09-1.383s.28-1.182.17-1.78-.39-1.148-.81-1.58c-.27-.289-.6-.519-.95-.676-.36-.156-.75-.237-1.14-.237s-.77.081-1.13.237a2.89 2.89 0 0 0-.96.676h0zm53.72 121.54c-.41.432-.69.982-.8 1.58s-.06 1.217.17 1.78c.22.563.6 1.045 1.09 1.383a2.84 2.84 0 0 0 1.64.519c.58 0 1.15-.181 1.64-.519.48-.338.86-.82 1.09-1.383.22-.563.28-1.182.17-1.78a3.21 3.21 0 0 0-.81-1.58c-.27-.289-.6-.519-.96-.676a2.81 2.81 0 0 0-1.13-.237c-.39 0-.78.081-1.14.237s-.68.387-.96.676h0zm-130.96-73.781c.41-.432.69-.981.81-1.579.11-.599.05-1.218-.17-1.781-.23-.563-.61-1.044-1.09-1.383-.49-.338-1.06-.519-1.64-.519a2.84 2.84 0 0 0-1.64.519c-.49.339-.87.82-1.09 1.383a3.1 3.1 0 0 0-.17 1.781c.11.598.39 1.147.8 1.579.28.289.6.519.96.676a2.86 2.86 0 0 0 1.14.237 2.81 2.81 0 0 0 1.13-.237c.36-.157.69-.387.96-.676h0zm122.2 115.913c-.31.318-.51.722-.6 1.163a2.35 2.35 0 0 0 .13 1.311c.16.415.44.769.8 1.019s.78.382 1.21.382a2.07 2.07 0 0 0 1.2-.382c.36-.25.64-.604.81-1.019a2.44 2.44 0 0 0 .12-1.311 2.24 2.24 0 0 0-.6-1.163c-.2-.211-.44-.379-.7-.493a2.13 2.13 0 0 0-.83-.173 2.14 2.14 0 0 0-.84.173c-.26.114-.5.282-.7.493h0zm-33.77-102.259a1.51 1.51 0 0 0-.41 1.033 1.5 1.5 0 0 0 .41 1.031 1.38 1.38 0 0 0 .99.423c.37-.001.73-.156.99-.43.13-.134.24-.293.31-.47s.11-.367.11-.559-.04-.382-.11-.558-.18-.337-.31-.47c-.13-.14-.28-.252-.45-.328a1.33 1.33 0 0 0-.54-.116c-.19 0-.37.039-.54.116a1.29 1.29 0 0 0-.45.328zm48.13 68.025a1.43 1.43 0 0 0-.36.732c-.05.275-.02.56.09.818.1.257.28.477.5.632a1.32 1.32 0 0 0 .75.237c.27 0 .54-.082.76-.237s.4-.375.5-.632c.11-.258.14-.543.09-.818a1.43 1.43 0 0 0-.36-.732c-.13-.138-.28-.248-.45-.323s-.35-.114-.54-.114c-.18 0-.36.039-.53.114s-.32.185-.45.323zm24.14-25.179a1.34 1.34 0 0 0-.7-.376c-.26-.051-.54-.02-.78.09a1.38 1.38 0 0 0-.61.526 1.46 1.46 0 0 0 0 1.576 1.38 1.38 0 0 0 .61.526c.24.11.52.141.78.09s.51-.181.7-.376c.13-.133.24-.293.31-.469a1.52 1.52 0 0 0 .11-.559c0-.192-.04-.382-.11-.559a1.43 1.43 0 0 0-.31-.469zm-20.54-7.041c-.19.202-.32.456-.36.732-.05.275-.02.56.08.817.11.258.28.478.51.633.22.154.48.237.75.237a1.36 1.36 0 0 0 .76-.237c.22-.155.4-.375.5-.633a1.43 1.43 0 0 0 .09-.817c-.05-.276-.18-.53-.36-.732-.13-.138-.28-.248-.45-.323a1.31 1.31 0 0 0-.54-.114c-.18 0-.36.038-.53.114a1.29 1.29 0 0 0-.45.323z" class="B"/><use xlink:href="#Q" x="306.71" y="-59.313"/><g class="B"><path d="M1613.46 527.454a.7.7 0 0 0-.98 0 .77.77 0 0 0-.21.521.77.77 0 0 0 .21.521c.13.136.31.213.49.213s.36-.077.49-.213a.77.77 0 0 0 .21-.521.77.77 0 0 0-.21-.521h0zm54.47 71.41c-.14-.137-.31-.214-.5-.214s-.37.077-.5.214a.74.74 0 0 0-.19.514c0 .19.06.374.19.514s.31.214.5.214.36-.077.5-.214a.74.74 0 0 0 .2-.514c0-.193-.07-.377-.2-.514h0zm-235.38-193.35a.76.76 0 0 0-.2.373.86.86 0 0 0 .04.421.82.82 0 0 0 .26.327c.12.081.25.123.39.123s.27-.042.39-.123a.72.72 0 0 0 .25-.327c.06-.133.07-.28.04-.421-.02-.141-.09-.271-.19-.373-.13-.136-.31-.212-.49-.212-.19 0-.36.076-.49.212h0zm196.36 122.311a.76.76 0 0 0 .2-.521.76.76 0 0 0-.2-.521c-.14-.136-.31-.213-.5-.213-.18 0-.36.077-.49.213a.77.77 0 0 0-.21.521.77.77 0 0 0 .21.521.7.7 0 0 0 .49.202.72.72 0 0 0 .5-.202h0zm-20.73 11.754c-.13.133-.24.293-.31.47a1.52 1.52 0 0 0-.11.558c0 .192.04.382.11.559a1.43 1.43 0 0 0 .31.469c.2.195.44.326.7.377.27.05.54.019.79-.091.24-.109.45-.292.6-.526a1.46 1.46 0 0 0 0-1.576c-.15-.233-.36-.416-.6-.526a1.33 1.33 0 0 0-.79-.09c-.26.051-.5.182-.7.376zm44.31 48.316a1.44 1.44 0 0 0-.36.732 1.42 1.42 0 0 0 .09.815c.11.257.28.476.5.629.23.154.49.236.76.236.26 0 .53-.082.75-.236a1.39 1.39 0 0 0 .5-.629 1.42 1.42 0 0 0 .09-.815c-.04-.275-.17-.529-.35-.732-.13-.14-.28-.252-.45-.329s-.36-.115-.54-.115a1.31 1.31 0 0 0-.54.115c-.17.077-.33.189-.45.329zm-275.15-179.382c.19-.201.31-.456.36-.731a1.52 1.52 0 0 0-.08-.818c-.11-.258-.28-.478-.51-.633-.22-.154-.48-.237-.75-.237a1.36 1.36 0 0 0-.76.237c-.22.155-.4.375-.5.633a1.43 1.43 0 0 0-.09.818 1.51 1.51 0 0 0 .36.731 1.39 1.39 0 0 0 .45.324c.17.075.35.113.54.113a1.31 1.31 0 0 0 .53-.113 1.39 1.39 0 0 0 .45-.324z"/><use xlink:href="#J" x="465.99" y="480.646"/><path d="M1562.95 603.834c-.19.201-.31.456-.36.731a1.43 1.43 0 0 0 .09.818c.1.258.28.478.5.633s.49.237.76.237a1.33 1.33 0 0 0 .75-.237c.22-.155.4-.375.5-.633a1.43 1.43 0 0 0 .09-.818c-.05-.275-.17-.53-.36-.731-.13-.139-.28-.249-.45-.324s-.35-.114-.53-.114c-.19 0-.37.039-.54.114s-.32.185-.45.324zm90.62-63.141a3.05 3.05 0 0 0-.81 1.58c-.11.598-.05 1.217.17 1.78s.6 1.044 1.09 1.383a2.84 2.84 0 0 0 1.64.519c.58 0 1.15-.181 1.64-.519.48-.339.86-.82 1.09-1.383.22-.563.28-1.182.17-1.78-.12-.599-.4-1.148-.81-1.58-.27-.289-.6-.519-.96-.676a2.81 2.81 0 0 0-1.13-.237c-.39 0-.78.081-1.14.237-.35.157-.68.387-.95.676h0zm-65.81 190.079a2.3 2.3 0 0 0-.59 1.163c-.09.44-.04.896.12 1.311.17.415.45.769.8 1.019.36.249.78.382 1.21.382s.85-.133 1.21-.382.63-.604.8-1.019c.16-.415.21-.871.12-1.311a2.3 2.3 0 0 0-.59-1.163 2.1 2.1 0 0 0-.71-.497c-.26-.115-.54-.175-.83-.175s-.57.06-.83.175a2.1 2.1 0 0 0-.71.497h0z"/></g><path d="M1520.07 497.361c.77 0 1.4-.652 1.4-1.456s-.63-1.457-1.4-1.457-1.4.652-1.4 1.457.63 1.456 1.4 1.456z"/><path d="M1356.63 484.608c-.26.274-.4.646-.4 1.033s.15.757.41 1.03.62.425.99.424a1.37 1.37 0 0 0 .99-.431c.13-.133.24-.293.31-.47a1.52 1.52 0 0 0 .11-.558c0-.192-.04-.382-.11-.559a1.43 1.43 0 0 0-.31-.469c-.13-.141-.28-.253-.45-.329s-.36-.116-.54-.116a1.31 1.31 0 0 0-.54.116c-.17.076-.33.188-.46.329zm311.69 146.162c-.12.14-.19.323-.19.514s.07.374.19.514c.14.137.32.214.5.214.19 0 .37-.077.5-.214s.21-.321.21-.514a.75.75 0 0 0-.21-.514c-.13-.137-.31-.214-.5-.214-.18 0-.36.077-.5.214h0z" class="B"/><use xlink:href="#N" x="222.81" y="252.219"/><path d="M1402.99 664.175c-.1.102-.17.232-.19.373-.03.142-.02.288.04.421a.72.72 0 0 0 .25.328c.12.08.25.123.39.123s.27-.043.39-.123c.11-.08.2-.194.26-.328.05-.133.06-.279.03-.421-.02-.141-.09-.271-.19-.373-.13-.136-.3-.212-.49-.212-.18 0-.36.076-.49.212h0zm-11.78-138.793c.19-.201.31-.456.36-.731a1.52 1.52 0 0 0-.08-.818c-.11-.258-.28-.478-.51-.633-.22-.154-.48-.237-.75-.237a1.36 1.36 0 0 0-.76.237c-.22.155-.4.375-.5.633a1.43 1.43 0 0 0-.09.818 1.51 1.51 0 0 0 .36.731c.13.139.28.249.45.324s.35.113.54.113a1.31 1.31 0 0 0 .53-.113c.17-.075.32-.185.45-.324zm25.48-50.529c-.41-.43-.94-.723-1.51-.841s-1.17-.056-1.71.177c-.53.234-1 .63-1.32 1.137a3.22 3.22 0 0 0-.5 1.712 3.22 3.22 0 0 0 .5 1.713c.32.507.79.902 1.32 1.136.54.234 1.14.295 1.71.177s1.1-.411 1.51-.841c.28-.286.5-.626.65-1.001a3.19 3.19 0 0 0 .23-1.184c0-.406-.08-.809-.23-1.184s-.37-.715-.65-1.001h0zm23.58-17.238c-.18.202-.31.456-.36.732a1.43 1.43 0 0 0 .09.817c.1.258.28.478.5.633a1.36 1.36 0 0 0 .76.237c.27 0 .53-.083.75-.237.23-.155.4-.375.51-.633.1-.257.13-.542.08-.817-.04-.276-.17-.53-.36-.732a1.29 1.29 0 0 0-.45-.323c-.17-.076-.35-.114-.53-.114a1.31 1.31 0 0 0-.54.114c-.17.075-.32.185-.45.323zm-18.57-7.141c-.19.201-.31.456-.36.731a1.52 1.52 0 0 0 .08.818c.11.258.29.478.51.633a1.33 1.33 0 0 0 .75.237 1.36 1.36 0 0 0 .76-.237c.22-.155.4-.375.5-.633a1.43 1.43 0 0 0 .09-.818c-.05-.275-.17-.53-.36-.731-.13-.139-.28-.249-.45-.324s-.35-.113-.54-.113a1.31 1.31 0 0 0-.53.113c-.17.075-.32.185-.45.324z" class="B"/><path d="M1402.78 464.399c.39 0 .7-.326.7-.728s-.31-.729-.7-.729c-.38 0-.69.326-.69.729s.31.728.69.728z"/><g class="B"><path d="M1418.73 463.513a.67.67 0 0 0 .19-.373c.03-.141.02-.288-.04-.421a.72.72 0 0 0-.25-.327c-.12-.08-.25-.123-.39-.123s-.27.043-.39.123a.82.82 0 0 0-.26.327c-.05.133-.06.28-.03.421a.67.67 0 0 0 .19.373c.13.136.3.213.49.213.18 0 .36-.077.49-.213h0zm-20.72 11.755c-.19.201-.31.456-.36.731a1.43 1.43 0 0 0 .09.818c.1.258.28.478.5.633a1.33 1.33 0 0 0 .75.237c.27 0 .54-.083.76-.237s.4-.375.5-.633a1.43 1.43 0 0 0 .09-.818c-.05-.275-.17-.53-.36-.731-.13-.139-.28-.249-.45-.324s-.35-.113-.54-.113a1.31 1.31 0 0 0-.53.113c-.17.075-.32.185-.45.324zm88.48 172.297a3.11 3.11 0 0 0-.8 1.579 3.1 3.1 0 0 0 .17 1.781 3.06 3.06 0 0 0 1.08 1.383c.49.338 1.06.519 1.64.519a2.84 2.84 0 0 0 1.64-.519c.49-.339.87-.82 1.09-1.383a3.1 3.1 0 0 0 .17-1.781 3.11 3.11 0 0 0-.8-1.579c-.28-.29-.6-.519-.96-.676a2.86 2.86 0 0 0-1.14-.238 2.81 2.81 0 0 0-1.13.238 2.89 2.89 0 0 0-.96.676h0zm8.18-94.189a2.9 2.9 0 0 0-1.51-.841 2.84 2.84 0 0 0-1.71.177 2.95 2.95 0 0 0-1.32 1.136c-.33.507-.5 1.103-.5 1.713s.17 1.205.5 1.712c.32.507.78.903 1.32 1.136s1.13.296 1.71.178a2.9 2.9 0 0 0 1.51-.842c.55-.58.86-1.366.86-2.184a3.18 3.18 0 0 0-.86-2.185zM983.297 653.849a3.13 3.13 0 0 0-.805 1.58 3.21 3.21 0 0 0 .169 1.78c.224.563.603 1.044 1.089 1.383a2.86 2.86 0 0 0 1.64.519c.584 0 1.155-.181 1.64-.519s.865-.82 1.089-1.383a3.21 3.21 0 0 0 .169-1.78 3.13 3.13 0 0 0-.805-1.58c-.556-.577-1.309-.901-2.093-.901s-1.537.324-2.093.901z"/><use xlink:href="#L" x="219.16" y="412.321"/><path d="M1492.09 655.463c-.19.202-.32.456-.36.732-.05.275-.02.56.08.817.11.258.28.478.51.633.22.154.48.237.75.237s.53-.083.75-.237c.23-.155.4-.375.51-.633a1.62 1.62 0 0 0 .09-.817c-.05-.276-.18-.53-.37-.732-.12-.138-.28-.248-.44-.323a1.36 1.36 0 0 0-.54-.114 1.28 1.28 0 0 0-.53.114 1.29 1.29 0 0 0-.45.323zm24.14-25.208c-.2-.194-.44-.325-.7-.376-.27-.051-.54-.019-.79.09a1.42 1.42 0 0 0-.6.527c-.15.233-.23.507-.23.788a1.46 1.46 0 0 0 .23.788c.15.233.36.416.6.526a1.33 1.33 0 0 0 .79.09c.26-.051.5-.182.7-.376.13-.133.23-.293.31-.47.07-.176.11-.366.11-.558s-.04-.382-.11-.559c-.08-.177-.18-.336-.31-.47zm23.91-86.848c-.19.201-.32.456-.36.731a1.52 1.52 0 0 0 .08.818c.11.258.28.478.51.633.22.154.48.237.75.237a1.36 1.36 0 0 0 .76-.237c.22-.155.4-.375.5-.633a1.43 1.43 0 0 0 .09-.818 1.51 1.51 0 0 0-.36-.731c-.13-.138-.28-.248-.45-.323a1.36 1.36 0 0 0-.54-.114c-.18 0-.36.038-.53.114a1.29 1.29 0 0 0-.45.323zm-44.46 79.879a1.51 1.51 0 0 0-.36.732 1.43 1.43 0 0 0 .09.817c.1.258.28.478.5.633a1.36 1.36 0 0 0 .76.237c.27 0 .53-.083.75-.237.23-.155.4-.375.51-.633.1-.258.13-.542.08-.817a1.43 1.43 0 0 0-.36-.732 1.29 1.29 0 0 0-.45-.324 1.31 1.31 0 0 0-.53-.113c-.19 0-.37.038-.54.113a1.39 1.39 0 0 0-.45.324zm-18.42 12.568c-.1-.102-.22-.172-.36-.2a.67.67 0 0 0-.4.041.65.65 0 0 0-.31.268c-.08.12-.12.261-.12.405s.04.285.12.405a.65.65 0 0 0 .31.268.67.67 0 0 0 .4.041c.14-.028.26-.098.36-.2a.74.74 0 0 0 .2-.514.74.74 0 0 0-.2-.514h0z"/></g><path d="M1450.07 697.038c.38 0 .7-.326.7-.728s-.32-.729-.7-.729c-.39 0-.7.326-.7.729s.31.728.7.728z"/><path d="M1530.74 707.25c-.1.101-.17.231-.19.372-.03.142-.02.288.04.421.05.134.14.247.25.328a.69.69 0 0 0 .78 0c.11-.081.2-.194.26-.328a.86.86 0 0 0 .04-.421c-.03-.141-.1-.271-.2-.372-.13-.136-.3-.213-.49-.213-.18 0-.36.077-.49.213h0z" class="B"/><use xlink:href="#N" x="153.19" y="398.724"/><use xlink:href="#Q" x="270.97" y="52.315"/><path d="M1376.84 647.08c-.19.201-.32.456-.36.732-.05.275-.02.56.08.817.11.258.28.478.51.633.22.155.48.237.75.237a1.35 1.35 0 0 0 .76-.237c.22-.155.39-.375.5-.633a1.62 1.62 0 0 0 .09-.817 1.51 1.51 0 0 0-.36-.732c-.13-.139-.28-.249-.45-.324a1.36 1.36 0 0 0-.54-.113 1.31 1.31 0 0 0-.53.113 1.28 1.28 0 0 0-.45.324zm139.51 49.215c-.19.202-.31.457-.36.732a1.43 1.43 0 0 0 .09.818c.1.258.28.478.5.632s.49.237.76.237a1.32 1.32 0 0 0 .75-.237c.22-.154.4-.374.5-.632a1.43 1.43 0 0 0 .09-.818c-.05-.275-.17-.53-.36-.732-.13-.138-.28-.248-.45-.323s-.35-.114-.53-.114c-.19 0-.37.039-.54.114s-.32.185-.45.323z" class="B"/></g><g style="mix-blend-mode:soft-light" class="E B"><path d="M997.059 3.247c35.141 21.737 148.971 91.091 221.291 76.908.35-.069.72-.026 1.05.122 9.14 4.076 43.97 21.234 48.3 28.272.09.162.15.336.19.516 14.96 67.371 155.46 62.698 207.23 82.723a1.84 1.84 0 0 1 .92.815c24.83 45.39 21.35 28.747 73.01 53.487.13.057.27.103.41.136 45.42 9.999 95.96 7.798 131.81 38.161a1.81 1.81 0 0 1 .58 1.004 1.81 1.81 0 0 1-.17 1.143c-10.51 21.085 11.18 26.342 26.1 28.706.38.059.76-.002 1.09-.174a1.77 1.77 0 0 0 .78-.781c.17-.336.22-.716.15-1.084-.06-.368-.25-.706-.52-.963-10.77-10.651-16.97-34.82-26.69-39.874-.14-.079-.29-.134-.44-.163-42.59-9.877-131.89-63.227-166.78-95.928-.2-.2-.36-.447-.45-.72-24.62-75.019-73.54-43.107-115.07-107.883-10.82-15.039-32.48-56.679-38.82-62.236C1354.7-.122 1280.5 0 1280.5 0H998.007c-.388-.005-.767.116-1.078.345s-.539.552-.647.921-.09.762.051 1.12.395.66.726.861z" fill="#fff"/></g><g style="mix-blend-mode:soft-light" class="E B"><path d="M1249.29 236.172c4.12 1.671 68.69 27.674 88.02 38.488a1.56 1.56 0 0 0 .34.15c54.42 16.995 96.71-6.481 133.44 41.3l.14.204c38.8 66.569 62.39 68.838 130.27 81.513.39.056.78-.017 1.13-.205a1.74 1.74 0 0 0 .76-.838 1.75 1.75 0 0 0 .1-1.128 1.72 1.72 0 0 0-.62-.953c-19.79-15.094-82.84-63.744-92.73-78.593-11.75-17.661-5.5-37.129-28.14-43.555h-.13c-129.38-27.253-135.43-113.223-323.64-128.887-.36-.034-.72.042-1.04.216-.31.174-.57.439-.72.759-.16.321-.22.681-.16 1.034.05.352.21.68.46.939 13.31 14.224 66.34 70.319 92.19 89.339a1.88 1.88 0 0 0 .33.217h0z" fill="#fff"/></g><g style="mix-blend-mode:soft-light" class="E B"><path d="M1304.13 373.074c44.22 102.177 124.07 135.951 207.58 199.586.13.105.25.228.35.367 57.7 78.946 124.89 116.646 195.94 153.965.37.165.78.203 1.17.107s.74-.318.98-.632c.25-.315.38-.702.38-1.1a1.81 1.81 0 0 0-.4-1.092c-173.79-182.617-136.02-223.7-403.53-353.388a1.8 1.8 0 0 0-1.03-.169c-.36.047-.69.198-.95.434a1.77 1.77 0 0 0-.55.887c-.08.343-.06.703.06 1.035z" fill="#fff"/></g><g style="mix-blend-mode:soft-light" class="E B"><path d="M789.731 124.852c2.94 1.657 46.161 26.097 58.76 35.322l.247.15c34.346 16.52 72.883 8.599 91.581 42.753l.082.191c18.493 48.283 40.007 52.983 82.429 67.642.32.105.66.101.98-.01s.58-.324.76-.604a1.49 1.49 0 0 0 .23-.941c-.04-.329-.18-.638-.41-.877-13.3-13.069-50.467-50.13-55.426-60.537-6.031-12.716 1.374-24.373-14.316-31.247s-53.8-18.014-57.784-30.73c-18.107-36.288-122.273-82.872-159.903-91.418a1.5 1.5 0 0 0-.937.007 1.48 1.48 0 0 0-.745.56 1.45 1.45 0 0 0 .075 1.756c8.243 11.534 38.193 52.685 54.074 67.765l.303.218z" fill="#fff"/></g><path d="M1423.29 369.49c63.71 0 115.36-51.09 115.36-114.113S1487 141.264 1423.29 141.264s-115.36 51.09-115.36 114.113 51.65 114.113 115.36 114.113z" fill="#bccef4"/><g style="mix-blend-mode:multiply" class="C D"><path d="M1484.12 158.407c4.46 5.379 8.38 11.185 11.68 17.332 2.19 4.029 6.33 12.348 6.48 12.681l5.02 14.24a20.61 20.61 0 0 1 .6 2.008c2.66 10.355 4.75 21.664 4.08 32.496-.43 10.042-1.77 20.024-4.02 29.825-.1.419-.23.794-.36 1.198-1.46 4.492-8.66 21.26-10.91 25.579-4.89 9.01-11.17 17.215-18.6 24.322a37.78 37.78 0 0 1-1.04.967c-3.62 3.322-17.7 13.909-21.9 16.74-.66.433-1.29.866-1.97 1.242-4.38 2.383-10.84 4.607-14.28 6.051-4.13 1.719-9.74 4.478-14.7 6.008a36.01 36.01 0 0 1-5.09 1.084l-5.84.924c-.7.26-1.24.448-1.53.52-4.74.994-9.55 1.679-14.38 2.051a143.57 143.57 0 0 1-15.67 1.964h-1.09l-16.4-2.181c26.14 15.724 57.52 20.533 87.25 13.369 29.72-7.164 55.35-25.714 71.24-51.57 15.9-25.856 20.76-56.899 13.52-86.301s-26-54.752-52.14-70.477l.05-.072z"/></g><g style="mix-blend-mode:multiply" class="C D"><path d="M1350.46 311.372c1.46-5.474 12.79-5.503 22.24 1.444s6.39 16.783 0 18.444c-6.4 1.661-26.14-5.59-22.24-19.888z"/></g><g style="mix-blend-mode:multiply" class="C D"><path d="M1454.76 334.019c-.94-4.911 4.24-11.194 12.6-12.999 8.35-1.805 16.06.91 17.43 8.435s-7.87 14.674-15.05 12.652c-7.19-2.023-13.88-2.21-14.98-8.088z"/></g><g style="mix-blend-mode:multiply" class="C D"><path d="M1372.61 342.438c1.17-4.116 10.38-1.256 10.47 4.333s-11.77.231-10.47-4.333z"/></g><g style="mix-blend-mode:multiply" class="C D"><path d="M1400.02 344.113c1.76 1.95 7.08 3.986 8.19-1.675s-13.8-4.534-8.19 1.675z"/></g><g style="mix-blend-mode:multiply" class="C D"><path d="M1439.73 351.623c3.97.462 9.55.708 10.38-4.578s-11.12-5.026-13.69-2.224-.21 6.398 3.31 6.802z"/></g><g style="mix-blend-mode:multiply" class="C D"><path d="M1497.58 228.556c2.57 2.022 10.38 2.571 11.68-4.332s-7.42-10.11-11.68-8.666-7.97 6.774 0 12.998z"/></g><g style="mix-blend-mode:multiply" class="C D"><path d="M1473.53 183.047c2.92 2.527 13.67 3.856 16.22-.737 2.56-4.593-4.22-10.933-13.01-11.554s-13.47 3.307-3.21 12.291z"/></g><g style="mix-blend-mode:multiply" class="C D"><path d="M1415.16 174.815c3.56 2.484 14.01.881 14.93-4.983s-9.3-7.221-14.93-5.156c-5.64 2.065-6.49 5.575 0 10.139z"/></g><g style="mix-blend-mode:multiply" class="C D"><path d="M1390.23 160.298c3.93 1.791 9.7 1.286 9.95-1.444s-3.46-4.433-7.57-4.058c-4.1.376-7.19 3.293-2.38 5.502z"/></g><g style="mix-blend-mode:multiply" class="C D"><path d="M1342.97 188.03c.51-2.888 3.52-.549 3.71.91s-4.48 3.119-3.71-.91z"/></g><g style="mix-blend-mode:multiply" class="C D"><path d="M1349.95 225.032c-.92-2.412 3.01-1.834 3.2 0s-2.5 1.877-3.2 0z"/></g><g style="mix-blend-mode:multiply" class="C D"><path d="M1339.79 282.659a2.65 2.65 0 0 0 1.44 1.001 2.69 2.69 0 0 0 1.76-.111c.56-.234 1.02-.648 1.3-1.175a2.58 2.58 0 0 0 .27-1.722c-.32-3.12-6.06-.188-4.77 2.007z"/></g><g style="mix-blend-mode:multiply" class="C D"><path d="M1334.04 307.357c.54.909 3.38 1.906 3.54-1.156s-4.83-.996-3.54 1.156z"/></g><g style="mix-blend-mode:multiply" class="C D"><path d="M1425.96 359.509c1.99 1.011 3.9-.823 3.2-3.018s-7.23.968-3.2 3.018z"/></g><g style="mix-blend-mode:multiply" class="C D"><path d="M1416.79 358.686c1.32-1.444-2.23-1.978-3.62-.909s1.94 2.7 3.62.909z"/></g><g style="mix-blend-mode:multiply" class="C D"><path d="M1406.22 353.877c1.56 1.011 2.78.419 2.92-.968.15-1.386-5.71-.779-2.92.968z"/></g><g style="mix-blend-mode:multiply" class="C D"><path d="M1421.38 324.992c-.38-.896 3.63-1.445 3.27 0-.12.333-.34.621-.64.824a1.74 1.74 0 0 1-1 .313c-.35 0-.7-.109-1-.313-.29-.203-.51-.491-.63-.824z"/></g><g style="mix-blend-mode:multiply" class="C D"><path d="M1484.91 275.048c0-2.051 3.35-1.921 3.49 0 .13 1.92-3.51 2.065-3.49 0z"/></g><g style="mix-blend-mode:multiply" class="C D"><path d="M1502.86 242.176c-.14-2.065 3.9-2.195 4.03 0 .14 2.195-3.89 2.065-4.03 0z"/></g><g style="mix-blend-mode:multiply" class="C D"><path d="M1469.91 166.25c-.31-2.383 2.5-2.34 2.92 0s-2.83 1.17-2.92 0z"/></g><g style="mix-blend-mode:multiply" class="C D"><path d="M1450.45 165.426c-2.19-1.516 1.11-2.888 2.49-1.646 1.39 1.242-.13 3.307-2.49 1.646z"/></g><g style="mix-blend-mode:multiply" class="C D"><path d="M1431.95 156.761c-1.46-.679.41-3.351 2.22-2.022s-.83 2.715-2.22 2.022z"/></g><g style="mix-blend-mode:multiply" class="C D"><path d="M1421.93 149.063c-1.46-1.748 1.81-1.242 2.92-.694s-.55 3.437-2.92.694z"/></g><g style="mix-blend-mode:multiply" class="C D"><path d="M1446.27 154.378c-1.46-2.889 2.22-.737 1.94 0-.27.736-1.94 0-1.94 0z"/></g><g style="mix-blend-mode:multiply" class="C D"><path d="M1422.21 154.738c-1.26-.996 1.08-1.082 1.17 0s-1.17 0-1.17 0z"/></g><g style="mix-blend-mode:multiply" class="C D"><path d="M1400.88 155.836c-.66-.476.86-1.646 1.66-.751.81.896-.46 1.618-1.66.751z"/></g><g style="mix-blend-mode:multiply" class="C D"><path d="M1375.21 172.677c-1.26-1.011 2.51-2.296 3.9-.925s-1.96 2.484-3.9.925z"/></g><defs ><path id="B" d="M1399.9 450.103a1.33 1.33 0 0 0 1.34-1.321c0-.73-.6-1.322-1.34-1.322s-1.34.592-1.34 1.322a1.33 1.33 0 0 0 1.34 1.321z"/><path id="C" d="M1196.16 387.184c.37 0 .67-.296.67-.661s-.3-.661-.67-.661-.67.296-.67.661.3.661.67.661z"/><path id="D" d="M1281.42 269.447c.74 0 1.34-.592 1.34-1.322a1.33 1.33 0 0 0-1.34-1.321 1.33 1.33 0 0 0-1.34 1.321c0 .73.6 1.322 1.34 1.322z"/><path id="E" d="M1112.06 123.017c.74 0 1.34-.592 1.34-1.322s-.6-1.322-1.34-1.322-1.34.592-1.34 1.322.6 1.322 1.34 1.322z"/><path id="F" d="M1105.13 1090.89c.57 0 1.03-.45 1.03-1.01s-.46-1.02-1.03-1.02-1.03.46-1.03 1.02.46 1.01 1.03 1.01z"/><path id="G" d="M779.753 1236.4c.567 0 1.027-.46 1.027-1.02s-.46-1.01-1.027-1.01-1.027.45-1.027 1.01.46 1.02 1.027 1.02z"/><path id="H" d="M748.513 1228.85c.567 0 1.027-.45 1.027-1.01s-.46-1.01-1.027-1.01-1.027.45-1.027 1.01.46 1.01 1.027 1.01z"/><path id="I" d="M817.413 216.807c-.271 0-.535.083-.76.24s-.401.38-.504.641a1.48 1.48 0 0 0-.078.825 1.45 1.45 0 0 0 .374.731 1.35 1.35 0 0 0 .701.391c.265.055.54.027.79-.081a1.38 1.38 0 0 0 .614-.526c.15-.235.23-.511.23-.793 0-.379-.144-.742-.4-1.01a1.34 1.34 0 0 0-.967-.418z"/><path id="J" d="M1152.77 169.562c-.19.201-.32.456-.36.731a1.52 1.52 0 0 0 .08.818c.11.258.28.478.51.633.22.154.48.237.75.237a1.36 1.36 0 0 0 .76-.237c.22-.155.39-.375.5-.633.1-.258.13-.542.09-.818a1.51 1.51 0 0 0-.36-.731 1.49 1.49 0 0 0-.45-.324 1.36 1.36 0 0 0-.54-.113c-.18 0-.37.038-.53.113a1.28 1.28 0 0 0-.45.324z"/><path id="K" d="M1268.89 294.671c2.31 0 4.19-1.957 4.19-4.37s-1.88-4.37-4.19-4.37-4.18 1.957-4.18 4.37 1.87 4.37 4.18 4.37z"/><path id="L" d="M1258.56 277.376a2.3 2.3 0 0 0-.59 1.163 2.44 2.44 0 0 0 .12 1.311c.17.415.45.769.8 1.019.36.249.78.382 1.21.382s.85-.133 1.21-.382.64-.604.8-1.019a2.35 2.35 0 0 0 .13-1.311c-.09-.441-.29-.845-.6-1.163-.2-.211-.44-.379-.7-.493a2.14 2.14 0 0 0-.84-.173c-.28 0-.57.059-.83.173a2.32 2.32 0 0 0-.71.493h0z"/><path id="M" d="M1378.2 359.655a.83.83 0 0 0-.19.373c-.03.141-.01.288.04.421a.68.68 0 0 0 .26.327.67.67 0 0 0 .39.123.66.66 0 0 0 .38-.123.68.68 0 0 0 .26-.327c.05-.133.07-.28.04-.421a.74.74 0 0 0-.19-.373c-.13-.136-.31-.213-.49-.213a.69.69 0 0 0-.5.213h0z"/><path id="N" d="M1339.03 237.701c.39 0 .7-.326.7-.728s-.31-.728-.7-.728c-.38 0-.7.326-.7.728s.32.728.7.728z"/><path id="O" d="M1525.73 197.369a1.34 1.34 0 0 0-.76.24 1.42 1.42 0 0 0-.5.641c-.1.261-.13.548-.08.825a1.37 1.37 0 0 0 .38.731c.19.2.43.336.7.391a1.32 1.32 0 0 0 .79-.081 1.37 1.37 0 0 0 .61-.526c.15-.235.23-.511.23-.793 0-.379-.14-.742-.4-1.01s-.6-.418-.97-.418z"/><path id="P" d="M1284.39 665.646c-.27 0-.54.084-.76.241a1.44 1.44 0 0 0-.51.641 1.45 1.45 0 0 0-.07.825c.05.277.18.532.37.731s.44.336.7.391a1.31 1.31 0 0 0 .79-.081c.25-.108.47-.291.62-.526s.23-.511.23-.793a1.49 1.49 0 0 0-.4-1.01c-.26-.268-.61-.419-.97-.419z"/><path id="Q" d="M1202.01 598.135c.77 0 1.39-.652 1.39-1.457s-.62-1.456-1.39-1.456-1.4.652-1.4 1.456.63 1.457 1.4 1.457z"/></defs></svg>