<svg xmlns="http://www.w3.org/2000/svg" xmlns:xlink="http://www.w3.org/1999/xlink" width="958" height="1923" fill="none" xmlns:v="https://vecta.io/nano"><style><![CDATA[.B{fill-rule:evenodd}]]></style><g fill="#779bff"><path d="M479.196 342.619c-.202.756-.625 1.437-1.218 1.956a4.04 4.04 0 0 1-2.111.962 4.06 4.06 0 0 1-2.298-.355 4 4 0 0 1-1.713-1.553 3.93 3.93 0 0 1 .237-4.389c.473-.627 1.124-1.102 1.87-1.365a4.06 4.06 0 0 1 2.323-.112c.516.127 1.001.354 1.427.668s.785.708 1.055 1.16.448.952.522 1.471a3.93 3.93 0 0 1-.094 1.557z" class="B"/><path d="M397.993 106.284c2.217 0 4.015-1.776 4.015-3.966s-1.798-3.965-4.015-3.965-4.016 1.775-4.016 3.965 1.798 3.966 4.016 3.966z"/><path d="M215.187 196.159a3.96 3.96 0 0 1-1.218 1.957 4.04 4.04 0 0 1-2.111.962c-.785.108-1.584-.016-2.298-.355a4.01 4.01 0 0 1-1.713-1.553 3.93 3.93 0 0 1-.554-2.23 3.94 3.94 0 0 1 .791-2.16c.473-.627 1.124-1.102 1.87-1.364a4.07 4.07 0 0 1 2.323-.113 4.06 4.06 0 0 1 1.427.668c.426.314.785.708 1.055 1.16a3.94 3.94 0 0 1 .522 1.472c.073.52.041 1.049-.094 1.556zM80.964 8.146c-.199.758-.621 1.441-1.212 1.962a4.04 4.04 0 0 1-2.111.969 4.06 4.06 0 0 1-2.3-.351 3.99 3.99 0 0 1-1.717-1.552 3.93 3.93 0 0 1-.557-2.232c.041-.782.317-1.534.79-2.162a4.01 4.01 0 0 1 1.872-1.366c.747-.263 1.556-.301 2.325-.111a4.04 4.04 0 0 1 1.423.667c.425.313.783.706 1.054 1.156s.448.949.523 1.467.044 1.046-.089 1.552h0zm-17.46 124.361c-.199.757-.621 1.44-1.212 1.962a4.04 4.04 0 0 1-2.111.968c-.785.11-1.585-.012-2.3-.351a4 4 0 0 1-1.717-1.551 3.93 3.93 0 0 1-.557-2.232c.042-.782.317-1.534.79-2.162a4.01 4.01 0 0 1 1.872-1.365 4.06 4.06 0 0 1 2.325-.111 4.03 4.03 0 0 1 1.423.667 3.98 3.98 0 0 1 1.054 1.155c.271.45.448.949.523 1.467a3.92 3.92 0 0 1-.089 1.553h0zm165.898-5c-.199.757-.621 1.44-1.212 1.962a4.04 4.04 0 0 1-2.111.968c-.785.11-1.585-.012-2.3-.35a4 4 0 0 1-1.717-1.552 3.92 3.92 0 0 1-.557-2.232c.041-.782.317-1.534.79-2.162a4.01 4.01 0 0 1 1.872-1.365 4.06 4.06 0 0 1 2.325-.111 4.03 4.03 0 0 1 1.423.667 3.98 3.98 0 0 1 1.054 1.155c.27.45.448.949.522 1.467a3.91 3.91 0 0 1-.089 1.553h0z" class="B"/><path d="M522.817 373.641c1.567 0 2.837-1.254 2.837-2.802s-1.27-2.801-2.837-2.801-2.838 1.254-2.838 2.801 1.271 2.802 2.838 2.802zM168.235 186.705c1.567 0 2.837-1.254 2.837-2.801s-1.27-2.802-2.837-2.802-2.838 1.254-2.838 2.802 1.271 2.801 2.838 2.801zm256.613 115.128c.4-1.496-.504-3.029-2.019-3.424s-3.067.496-3.468 1.992.504 3.03 2.019 3.425 3.067-.497 3.468-1.993z"/><use xlink:href="#B"/><path d="M570.264 300.777c1.567 0 2.837-1.254 2.837-2.801s-1.27-2.802-2.837-2.802-2.838 1.255-2.838 2.802 1.271 2.801 2.838 2.801z"/><path d="M412.615 264.612c-.146.523-.496.968-.973 1.237s-1.042.341-1.573.2a2.09 2.09 0 0 1-1.183-.978 2.04 2.04 0 0 1-.184-1.511c.135-.509.462-.948.913-1.228a2.12 2.12 0 0 1 1.516-.277 2.09 2.09 0 0 1 .744.355 2.07 2.07 0 0 1 .546.614c.138.238.227.502.26.774s.011.55-.066.814h0zm-127.341-64.63c-.141.528-.488.979-.965 1.254s-1.046.351-1.581.212a2.08 2.08 0 0 1-1.269-.954c-.278-.471-.356-1.033-.215-1.561.07-.261.191-.506.357-.721a2.06 2.06 0 0 1 .609-.532 2.09 2.09 0 0 1 2.311.14c.218.164.401.368.539.601a2.04 2.04 0 0 1 .264.76 2.02 2.02 0 0 1-.05.801zM89.723 210.974a2.05 2.05 0 0 1-.357.722 2.08 2.08 0 0 1-.609.531 2.1 2.1 0 0 1-.769.262c-.271.036-.547.019-.812-.05a2.09 2.09 0 0 1-.731-.352 2.06 2.06 0 0 1-.539-.601 2.03 2.03 0 0 1-.264-.759 2.05 2.05 0 0 1 .05-.802 2.06 2.06 0 0 1 .966-1.253 2.11 2.11 0 0 1 1.581-.212 2.08 2.08 0 0 1 1.269.953c.278.472.356 1.033.215 1.561zm12.207-45.62c-.107.393-.33.745-.64 1.013a2.09 2.09 0 0 1-1.103.491c-.409.052-.824-.018-1.193-.199a2.07 2.07 0 0 1-.879-.82 2.03 2.03 0 0 1-.269-1.164 2.04 2.04 0 0 1 .433-1.116 2.08 2.08 0 0 1 .988-.689 2.1 2.1 0 0 1 1.209-.03 2.05 2.05 0 0 1 .726.355c.216.164.397.369.532.603a2.02 2.02 0 0 1 .256.758 2.01 2.01 0 0 1-.059.798h0zm68.822-107.089c-.107.393-.33.746-.641 1.013a2.09 2.09 0 0 1-1.103.49 2.1 2.1 0 0 1-1.192-.198 2.07 2.07 0 0 1-.88-.82 2.04 2.04 0 0 1 .164-2.28c.252-.321.596-.561.987-.689a2.11 2.11 0 0 1 1.21-.03 2.08 2.08 0 0 1 1.252.961c.273.471.345 1.029.203 1.553h0z" class="B"/><use xlink:href="#C"/><path d="M416.543 298.292a1.3 1.3 0 0 1-.232.464c-.107.138-.241.254-.394.34a1.36 1.36 0 0 1-.496.165 1.35 1.35 0 0 1-.522-.035 1.32 1.32 0 0 1-.469-.224 1.33 1.33 0 0 1-.344-.385 1.3 1.3 0 0 1-.168-.487c-.023-.172-.011-.346.035-.513a1.31 1.31 0 0 1 .23-.464 1.32 1.32 0 0 1 .391-.341c.152-.088.32-.145.494-.168a1.37 1.37 0 0 1 .522.032c.17.044.33.121.47.226s.257.237.346.387a1.31 1.31 0 0 1 .169.488c.024.172.013.347-.032.515h0zm-6.736 30.318c-.089.339-.311.629-.616.807a1.35 1.35 0 0 1-1.014.141 1.34 1.34 0 0 1-.469-.226 1.33 1.33 0 0 1-.346-.387 1.31 1.31 0 0 1-.17-.488c-.024-.172-.013-.347.032-.515a1.31 1.31 0 0 1 .23-.464 1.32 1.32 0 0 1 .391-.341c.152-.088.32-.145.494-.168a1.37 1.37 0 0 1 .522.032 1.32 1.32 0 0 1 .469.224 1.33 1.33 0 0 1 .344.385 1.3 1.3 0 0 1 .168.487c.023.172.011.346-.035.513h0zm18.653-3.334c-.045.169-.124.326-.231.464a1.33 1.33 0 0 1-.394.341c-.153.087-.322.142-.496.165a1.34 1.34 0 0 1-.992-.262 1.32 1.32 0 0 1-.346-.387 1.31 1.31 0 0 1-.17-.488c-.024-.172-.013-.347.032-.515a1.32 1.32 0 0 1 .621-.805c.152-.088.32-.145.495-.168s.351-.012.521.032c.345.091.639.313.818.617a1.32 1.32 0 0 1 .142 1.006h0zm-36.083-3.42a1.31 1.31 0 0 1-.23.464 1.34 1.34 0 0 1-.392.342c-.152.087-.319.144-.494.167s-.351.013-.521-.032-.33-.121-.47-.226-.257-.237-.346-.387a1.33 1.33 0 0 1-.17-.488c-.023-.172-.012-.347.033-.515a1.32 1.32 0 0 1 .621-.805c.307-.177.672-.225 1.015-.136a1.34 1.34 0 0 1 .816.613 1.31 1.31 0 0 1 .138 1.003zM2.627 266.423c-.044.167-.121.324-.227.462a1.32 1.32 0 0 1-.39.341c-.152.087-.319.143-.493.165a1.34 1.34 0 0 1-.519-.034 1.34 1.34 0 0 1-.816-.614 1.31 1.31 0 0 1-.138-1.003c.091-.339.314-.629.621-.805a1.36 1.36 0 0 1 1.016-.136c.17.045.33.123.47.229s.257.238.345.389a1.31 1.31 0 0 1 .131 1.006h0zm436.091 39.7c-.048.17-.161.316-.316.404a.69.69 0 0 1-.513.07.67.67 0 0 1-.407-.309c-.089-.152-.112-.333-.066-.503a.66.66 0 0 1 .313-.401.68.68 0 0 1 .509-.066.67.67 0 0 1 .409.304c.09.151.115.331.071.501zm-206.58 99.143a.84.84 0 0 1-.397.489.86.86 0 0 1-.63.077c-.212-.056-.393-.192-.506-.378a.83.83 0 0 1-.097-.619c.061-.211.203-.39.396-.5a.87.87 0 0 1 .637-.089.84.84 0 0 1 .512.389.82.82 0 0 1 .085.631h0z" class="B"/><path d="M282.874 266.811c.369 0 .669-.296.669-.661s-.3-.661-.669-.661-.669.296-.669.661.299.661.669.661z"/><path d="M139.149 219.02c-.045.17-.156.315-.308.404a.68.68 0 0 1-.507.071c-.171-.051-.316-.163-.405-.316a.68.68 0 0 1-.075-.503.64.64 0 0 1 .118-.232.66.66 0 0 1 .199-.169c.077-.043.162-.07.25-.08a.68.68 0 0 1 .262.021c.085.022.164.06.234.112a.63.63 0 0 1 .171.193.66.66 0 0 1 .082.244c.01.086.003.172-.021.255zm221.421 57.073c-.048.17-.162.316-.317.404a.69.69 0 0 1-.513.07.67.67 0 0 1-.407-.309.66.66 0 0 1-.066-.503c.047-.169.159-.314.313-.401a.68.68 0 0 1 .913.241c.089.15.117.328.077.498h0zm-92.334-17.86a.68.68 0 0 1-.316.404.69.69 0 0 1-.513.07.67.67 0 0 1-.4-.309c-.087-.15-.11-.328-.066-.496a.66.66 0 0 1 .11-.235c.053-.07.119-.129.195-.174s.161-.073.248-.084a.66.66 0 0 1 .262.019c.172.044.319.153.409.304s.115.331.071.501h0zM45.172 203.661c-.048.17-.161.316-.317.404a.69.69 0 0 1-.513.07.67.67 0 0 1-.399-.308c-.087-.151-.111-.329-.066-.497a.64.64 0 0 1 .11-.235.65.65 0 0 1 .195-.173c.076-.045.161-.073.248-.085a.68.68 0 0 1 .665.326.67.67 0 0 1 .077.498h0zm-22.873-8.249a.64.64 0 0 1-.113.229.66.66 0 0 1-.193.17.68.68 0 0 1-.734-.043.66.66 0 0 1-.171-.191.65.65 0 0 1-.084-.241.64.64 0 0 1 .128-.483.66.66 0 0 1 .437-.253.7.7 0 0 1 .258.015.67.67 0 0 1 .232.112c.069.052.128.116.171.19a.65.65 0 0 1 .085.241.64.64 0 0 1-.015.254zm403.92 118.6c-.022.085-.061.165-.115.236a.67.67 0 0 1-.198.173c-.078.044-.163.073-.252.084a.69.69 0 0 1-.264-.019.67.67 0 0 1-.407-.31c-.089-.152-.112-.333-.066-.502s.159-.314.313-.402a.68.68 0 0 1 .509-.065c.169.047.314.157.404.307a.67.67 0 0 1 .076.498h0zm-122.758-31.338a.64.64 0 0 1-.11.235c-.052.07-.119.129-.195.174a.66.66 0 0 1-.51.065.68.68 0 0 1-.234-.115.65.65 0 0 1-.172-.194c-.044-.076-.073-.159-.084-.245a.64.64 0 0 1 .017-.258.67.67 0 0 1 .561-.484c.088-.011.176-.005.261.017a.67.67 0 0 1 .4.308c.087.151.111.329.066.497h0z" class="B"/><path d="M132.165 240.631c.37 0 .669-.296.669-.661s-.299-.661-.669-.661-.669.296-.669.661.299.661.669.661z"/><use xlink:href="#C" x="-51.245" y="-34.169"/><path d="M377.608 277.802a1.32 1.32 0 0 1-.404.656c-.198.174-.443.287-.705.323s-.53-.004-.768-.118a1.33 1.33 0 0 1-.573-.519c-.134-.226-.198-.485-.183-.746a1.31 1.31 0 0 1 .268-.721c.159-.209.378-.366.628-.452a1.36 1.36 0 0 1 .777-.032c.343.088.637.307.817.609a1.31 1.31 0 0 1 .143 1h0zM146.409 159.607a1.32 1.32 0 0 1-.616.807c-.305.177-.67.228-1.013.141-.196-.017-.386-.076-.557-.174s-.316-.231-.428-.391-.187-.343-.22-.535a1.3 1.3 0 0 1 .032-.575 1.33 1.33 0 0 1 .747-.85 1.34 1.34 0 0 1 .572-.113c.197.004.39.051.567.138.324.094.6.307.771.596a1.29 1.29 0 0 1 .145.956h0zm296.892-28.106c-.064.253-.203.481-.398.656a1.35 1.35 0 0 1-1.467.218 1.33 1.33 0 0 1-.577-.511 1.31 1.31 0 0 1 .062-1.463 1.33 1.33 0 0 1 .618-.462 1.35 1.35 0 0 1 .773-.047c.174.039.338.111.482.214a1.3 1.3 0 0 1 .359.383 1.31 1.31 0 0 1 .179.491 1.29 1.29 0 0 1-.031.521h0zm-26.35-96.14c-.091.339-.314.629-.621.805a1.36 1.36 0 0 1-1.016.136 1.33 1.33 0 0 1-.815-.613 1.31 1.31 0 0 1 .092-1.467c.106-.138.239-.254.391-.342a1.35 1.35 0 0 1 .494-.168 1.36 1.36 0 0 1 .522.032 1.32 1.32 0 0 1 .815.614c.089.15.147.316.17.488s.013.347-.032.515zm-93.687 274.383a1.33 1.33 0 0 1-.626.804 1.34 1.34 0 0 1-1.019.13c-.17-.044-.329-.121-.469-.227a1.33 1.33 0 0 1-.346-.386 1.31 1.31 0 0 1-.17-.488c-.023-.172-.012-.347.032-.515a1.31 1.31 0 0 1 .23-.464 1.34 1.34 0 0 1 .392-.342c.152-.087.319-.144.494-.167s.351-.013.521.032a1.35 1.35 0 0 1 .819.616 1.33 1.33 0 0 1 .142 1.007h0zM140.138 156.618c-.091.339-.314.628-.621.805a1.36 1.36 0 0 1-1.016.136c-.343-.09-.637-.31-.815-.614a1.31 1.31 0 0 1-.138-1.003c.091-.339.314-.628.621-.805a1.36 1.36 0 0 1 1.016-.136c.344.09.637.31.816.614a1.31 1.31 0 0 1 .137 1.003zm-1.571-79.847a1.32 1.32 0 0 1-.405.656 1.34 1.34 0 0 1-.705.323c-.262.036-.529-.005-.768-.118a1.34 1.34 0 0 1-.572-.52 1.31 1.31 0 0 1-.183-.746c.015-.261.108-.512.267-.721a1.34 1.34 0 0 1 .629-.452 1.35 1.35 0 0 1 .776-.031 1.34 1.34 0 0 1 .818.608 1.31 1.31 0 0 1 .143 1.001h0z" class="B"/><path d="M87.497 66.138a1.33 1.33 0 0 0 1.339-1.322 1.33 1.33 0 0 0-1.339-1.322 1.33 1.33 0 0 0-1.339 1.322 1.33 1.33 0 0 0 1.339 1.322z"/><path d="M268.877 35.045c-.066.253-.207.482-.405.656a1.34 1.34 0 0 1-.705.323c-.262.037-.529-.005-.768-.118a1.34 1.34 0 0 1-.572-.52 1.31 1.31 0 0 1-.183-.746c.015-.261.108-.512.267-.721a1.34 1.34 0 0 1 .629-.452 1.35 1.35 0 0 1 .776-.031 1.34 1.34 0 0 1 .818.608 1.31 1.31 0 0 1 .143 1.001zm117.141-5.015a1.33 1.33 0 0 1-.232.464c-.107.138-.241.254-.394.34a1.35 1.35 0 0 1-.496.165 1.37 1.37 0 0 1-.522-.035 1.33 1.33 0 0 1-.658-.407 1.32 1.32 0 0 1-.319-.699 1.31 1.31 0 0 1 .128-.756 1.34 1.34 0 0 1 1.289-.732c.264.018.516.112.726.271a1.32 1.32 0 0 1 .452.623 1.31 1.31 0 0 1 .026.766h0zM99.676 157.652a1.33 1.33 0 0 1-.621.806c-.307.176-.672.225-1.016.135a1.34 1.34 0 0 1-.816-.613 1.31 1.31 0 0 1-.138-1.003c.045-.168.123-.325.229-.464a1.33 1.33 0 0 1 .392-.341c.152-.088.32-.145.494-.168a1.37 1.37 0 0 1 .522.032 1.33 1.33 0 0 1 .469.227c.14.105.258.236.346.386a1.31 1.31 0 0 1 .138 1.003zm-11.16-96.658a1.32 1.32 0 0 1-.412.65 1.35 1.35 0 0 1-1.474.188c-.237-.116-.434-.299-.566-.525a1.31 1.31 0 0 1-.175-.747c.018-.261.113-.51.274-.717a1.34 1.34 0 0 1 .631-.446 1.35 1.35 0 0 1 .776-.025 1.33 1.33 0 0 1 .473.225 1.31 1.31 0 0 1 .347.389 1.3 1.3 0 0 1 .166.492 1.29 1.29 0 0 1-.04.517zm70.872 18.479c-.091.339-.314.629-.621.805a1.36 1.36 0 0 1-1.016.136 1.34 1.34 0 0 1-.816-.613 1.31 1.31 0 0 1-.137-1.003c.045-.168.123-.325.229-.464a1.34 1.34 0 0 1 .392-.342c.152-.087.32-.144.494-.168a1.33 1.33 0 0 1 .522.032c.17.045.329.121.469.227a1.32 1.32 0 0 1 .346.387 1.31 1.31 0 0 1 .17.488c.024.172.013.347-.032.515h0zm128.404-21.467a1.33 1.33 0 0 1-.232.464c-.107.138-.241.254-.394.34a1.35 1.35 0 0 1-.496.165 1.37 1.37 0 0 1-.522-.035 1.34 1.34 0 0 1-.47-.227c-.14-.105-.257-.237-.346-.387a1.33 1.33 0 0 1-.17-.488c-.023-.172-.012-.347.033-.515a1.29 1.29 0 0 1 .229-.464 1.34 1.34 0 0 1 .392-.342 1.35 1.35 0 0 1 .494-.168c.174-.023.351-.013.521.032a1.35 1.35 0 0 1 .819.617 1.33 1.33 0 0 1 .142 1.007zm89.045 154.865c-.089.339-.311.629-.616.807a1.35 1.35 0 0 1-1.014.141 1.34 1.34 0 0 1-.469-.226 1.33 1.33 0 0 1-.346-.387 1.31 1.31 0 0 1-.17-.488c-.023-.172-.012-.347.032-.515a1.31 1.31 0 0 1 .23-.464 1.32 1.32 0 0 1 .391-.341c.152-.088.32-.145.495-.168s.351-.012.521.032a1.32 1.32 0 0 1 .469.224c.139.105.257.236.345.385s.145.315.167.487.011.346-.035.513h0zM185.374 68.38a1.31 1.31 0 0 1-.231.464 1.35 1.35 0 0 1-.394.341c-.153.087-.322.143-.496.165s-.353.01-.523-.035c-.343-.09-.637-.31-.815-.613a1.31 1.31 0 0 1-.138-1.003c.091-.339.314-.629.621-.805a1.36 1.36 0 0 1 1.016-.136 1.35 1.35 0 0 1 .818.617 1.32 1.32 0 0 1 .142 1.007zM67.898 12.098c-.046.168-.124.326-.232.464s-.241.254-.394.341a1.35 1.35 0 0 1-.496.165 1.37 1.37 0 0 1-.522-.035c-.331-.099-.61-.32-.779-.617a1.31 1.31 0 0 1-.129-.979c.087-.33.299-.615.593-.794s.647-.239.985-.167a1.35 1.35 0 0 1 .827.613 1.32 1.32 0 0 1 .147 1.011z" class="B"/><use xlink:href="#D"/><path d="M198.775 2.644a1.33 1.33 0 0 0 1.338-1.322A1.33 1.33 0 0 0 198.775 0c-.739 0-1.339.592-1.339 1.322s.6 1.322 1.339 1.322z"/><path d="M444.479 222.713a1.32 1.32 0 0 1-.215.485 1.34 1.34 0 0 1-.391.362 1.36 1.36 0 0 1-.503.182 1.37 1.37 0 0 1-.534-.027 1.35 1.35 0 0 1-.482-.233 1.31 1.31 0 0 1-.35-.399c-.089-.156-.145-.327-.164-.504s-.003-.356.049-.527c.1-.326.324-.602.625-.769s.657-.213.991-.128.623.295.805.586a1.31 1.31 0 0 1 .169.972z" class="B"/><path d="M611.618 169.945c.567-2.117-.712-4.287-2.856-4.847s-4.342.704-4.909 2.821.713 4.287 2.857 4.847 4.342-.704 4.908-2.821zm100.598 72.754c.566-2.117-.713-4.287-2.857-4.847s-4.342.704-4.908 2.821.712 4.287 2.857 4.847 4.341-.704 4.908-2.821zm49.821-95.331c.4-1.496-.503-3.029-2.018-3.424s-3.068.497-3.468 1.993.503 3.029 2.018 3.424 3.068-.497 3.468-1.993z"/><path d="M672.2 162.624c.496-.299 1.071-.445 1.652-.419a2.94 2.94 0 0 1 1.606.568c.466.343.817.816 1.008 1.358s.213 1.129.063 1.683-.463 1.053-.902 1.429a2.92 2.92 0 0 1-1.558.685c-.577.07-1.161-.033-1.679-.295s-.943-.67-1.223-1.173c-.361-.648-.454-1.408-.262-2.123s.656-1.328 1.295-1.713h0z" class="B"/><use xlink:href="#D" x="305.724" y="86.973"/><path d="M634.487 101.873c.369 0 .669-.295.669-.66s-.3-.661-.669-.661-.67.296-.67.661.3.66.67.66z"/><use xlink:href="#C" x="94.953" y="-239.64"/><use xlink:href="#E"/><use xlink:href="#E" x="-15.132" y="-106.184"/><use xlink:href="#D" x="177.742" y="5.043"/><path d="M734.43 205.988c.37 0 .67-.296.67-.661s-.3-.66-.67-.66-.669.295-.669.66.3.661.669.661zm-188.043 115.61c.37 0 .67-.296.67-.661s-.3-.661-.67-.661-.669.296-.669.661.3.661.669.661z"/><use xlink:href="#C" x="80.403" y="-133.772"/><path d="M600.731 161.833c1.567 0 2.838-1.254 2.838-2.802s-1.271-2.801-2.838-2.801-2.837 1.254-2.837 2.801 1.27 2.802 2.837 2.802z"/><use xlink:href="#E" x="-79.472" y="-157.983"/><path d="M614.204 139.964a1.33 1.33 0 0 0 1.339-1.321 1.33 1.33 0 0 0-1.339-1.322 1.33 1.33 0 0 0-1.338 1.322 1.33 1.33 0 0 0 1.338 1.321z"/><path d="M592.569 143.873c.076-.043.16-.071.248-.083s.176-.005.261.018.165.061.235.114a.68.68 0 0 1 .172.195c.044.076.073.159.084.245a.66.66 0 0 1-.134.49.67.67 0 0 1-.197.17c-.154.088-.338.112-.51.066a.67.67 0 0 1-.407-.31.66.66 0 0 1-.066-.503c.047-.17.159-.314.314-.402h0z" class="B"/><path d="M607.395 148.255c.37 0 .669-.296.669-.661s-.299-.661-.669-.661-.669.296-.669.661.3.661.669.661z"/><path d="M585.745 153.471c.307-.177.672-.227 1.016-.138s.638.309.817.612a1.31 1.31 0 0 1 .14 1.003c-.09.34-.313.63-.62.807-.152.088-.32.145-.494.169a1.35 1.35 0 0 1-.522-.031c-.17-.044-.33-.121-.47-.226a1.32 1.32 0 0 1-.347-.386 1.31 1.31 0 0 1-.171-.488c-.024-.172-.014-.347.031-.515a1.32 1.32 0 0 1 .229-.465c.106-.138.239-.254.391-.342h0zm41.642 172.524c.495-.302 1.07-.45 1.651-.426s1.141.22 1.608.562a2.88 2.88 0 0 1 1.014 1.355c.193.542.217 1.127.07 1.683s-.46 1.054-.898 1.432a2.92 2.92 0 0 1-1.556.69 2.95 2.95 0 0 1-1.681-.29 2.9 2.9 0 0 1-1.227-1.17c-.361-.646-.458-1.405-.268-2.12s.651-1.329 1.287-1.716h0z" class="B"/><use xlink:href="#B" x="55.697" y="64.299"/><path d="M160.668 214.983c1.567 0 2.837-1.255 2.837-2.802s-1.27-2.802-2.837-2.802-2.837 1.255-2.837 2.802 1.27 2.802 2.837 2.802z"/><path d="M609.374 360.839c.357-.203.766-.298 1.178-.272a2.11 2.11 0 0 1 1.133.417c.328.246.576.582.712.966a2.05 2.05 0 0 1 .052 1.193c-.102.394-.319.75-.625 1.023a2.11 2.11 0 0 1-1.093.512c-.408.061-.823.001-1.197-.171a2.08 2.08 0 0 1-.902-.795c-.151-.235-.251-.497-.295-.771a2.01 2.01 0 0 1 .039-.824 2.04 2.04 0 0 1 .365-.741c.172-.219.387-.402.633-.537h0zm21.359-26.554c.15-.089.317-.148.491-.173a1.34 1.34 0 0 1 .52.03c.17.044.329.122.468.228a1.3 1.3 0 0 1 .511.878c.024.172.014.347-.031.515a1.29 1.29 0 0 1-.229.464c-.106.139-.239.255-.391.343a1.37 1.37 0 0 1-1.018.126 1.35 1.35 0 0 1-.816-.615 1.31 1.31 0 0 1-.127-.998 1.33 1.33 0 0 1 .622-.798h0z" class="B"/><path d="M657.869 320.003c.739 0 1.339-.592 1.339-1.322a1.33 1.33 0 0 0-1.339-1.321 1.33 1.33 0 0 0-1.338 1.321 1.33 1.33 0 0 0 1.338 1.322z"/><path d="M701.577 247.629a1.35 1.35 0 0 1 1.016-.138c.344.089.638.309.817.612s.23.663.14 1.003-.313.63-.62.807c-.309.172-.675.218-1.018.127a1.35 1.35 0 0 1-.815-.616c-.089-.148-.147-.313-.171-.484a1.3 1.3 0 0 1 .032-.512 1.31 1.31 0 0 1 .228-.461c.107-.137.24-.252.391-.338h0z" class="B"/><path d="M642.301 309.341a1.33 1.33 0 0 0 1.338-1.321 1.33 1.33 0 0 0-1.338-1.322 1.33 1.33 0 0 0-1.339 1.322 1.33 1.33 0 0 0 1.339 1.321zm-21.302 5.144c.37 0 .67-.296.67-.661s-.3-.66-.67-.66-.669.295-.669.66.3.661.669.661z"/><path d="M581.831 359.373a.69.69 0 0 1 .508-.06.68.68 0 0 1 .408.304c.066.114.096.244.087.374a.67.67 0 0 1-.138.358c-.081.103-.191.181-.317.222a.67.67 0 0 1-.387.012c-.128-.034-.243-.104-.33-.203a.66.66 0 0 1-.16-.349.65.65 0 0 1 .064-.378.66.66 0 0 1 .265-.28zm72.589 29.686c.154-.088.338-.111.51-.065a.67.67 0 0 1 .407.309.66.66 0 0 1-.248.905.68.68 0 0 1-.509.066c-.172-.046-.318-.158-.407-.31a.65.65 0 0 1-.066-.503c.046-.17.159-.314.313-.402h0z" class="B"/><path d="M635.491 317.632c.37 0 .67-.296.67-.661s-.3-.661-.67-.661-.669.296-.669.661.3.661.669.661z"/><path d="M613.841 322.848c.307-.177.672-.227 1.016-.138s.638.309.817.612a1.31 1.31 0 0 1 .14 1.004 1.33 1.33 0 0 1-.62.807c-.152.087-.32.145-.494.168a1.35 1.35 0 0 1-.522-.03c-.17-.045-.33-.121-.47-.226s-.258-.236-.347-.386a1.31 1.31 0 0 1-.171-.488 1.32 1.32 0 0 1 .031-.516 1.31 1.31 0 0 1 .229-.464c.106-.139.239-.255.391-.343h0zm-88.1-23.823c.152-.088.32-.145.494-.169a1.35 1.35 0 0 1 .522.031c.171.044.331.121.471.226s.258.236.346.386c.175.306.221.667.129 1.006a1.34 1.34 0 0 1-.623.805c-.15.089-.317.148-.491.173a1.34 1.34 0 0 1-.52-.03c-.17-.044-.329-.122-.468-.228s-.254-.238-.34-.389a1.31 1.31 0 0 1-.171-.488 1.3 1.3 0 0 1 .031-.516 1.29 1.29 0 0 1 .229-.464c.106-.139.239-.255.391-.343h0zm117.854 76.929c.152-.088.32-.145.494-.169a1.35 1.35 0 0 1 .522.031c.171.044.331.121.471.226s.258.236.347.386a1.33 1.33 0 0 1 .128 1.006c-.093.338-.317.627-.623.805a1.35 1.35 0 0 1-.985.086 1.33 1.33 0 0 1-.777-.605 1.31 1.31 0 0 1-.144-.966 1.33 1.33 0 0 1 .567-.8h0z" class="B"/></g><g style="mix-blend-mode:soft-light" opacity=".15" class="B"><path d="M580.347 1351.28c3.092 1.25 51.52 20.75 66.018 28.85a1.21 1.21 0 0 0 .258.12c40.814 12.74 72.529-4.86 100.082 30.96l.103.15c29.099 49.91 46.79 51.61 97.702 61.12.291.04.588-.02.844-.16s.459-.36.576-.63a1.29 1.29 0 0 0 .072-.84 1.37 1.37 0 0 0-.461-.72c-14.848-11.31-62.133-47.79-69.552-58.92-8.81-13.24-4.122-27.84-21.103-32.66h-.103c-97.032-20.43-101.566-84.88-242.73-96.63-.27-.02-.54.04-.776.17a1.32 1.32 0 0 0-.545.57c-.118.24-.16.51-.119.77s.162.51.347.7c9.985 10.67 49.758 52.72 69.14 66.98.078.07.16.12.247.17h0z" fill="#fff"/></g><g style="mix-blend-mode:soft-light" opacity=".15" class="B"><path d="M652.837 1448.77c33.169 76.6 93.055 101.93 155.683 149.64.102.07.192.17.268.27 43.277 59.19 93.663 87.45 146.955 115.43.275.13.584.16.876.08.293-.07.553-.23.738-.47s.284-.53.281-.82a1.31 1.31 0 0 0-.298-.82c-130.345-136.92-102.019-167.72-302.648-264.95-.24-.12-.51-.16-.776-.13-.265.04-.514.15-.714.33-.199.17-.341.41-.406.66a1.32 1.32 0 0 0 .041.78z" fill="#fff"/></g><g style="mix-blend-mode:soft-light" opacity=".15" class="B"><path d="M309.034 1320.76c2.205 1.25 34.621 19.57 44.07 26.49l.185.11c25.76 12.38 54.663 6.45 68.687 32.05l.061.15c13.869 36.2 30.006 39.72 61.824 50.71.238.08.497.08.733-.01.237-.08.438-.24.572-.45s.193-.46.168-.71a1.11 1.11 0 0 0-.308-.65c-9.975-9.8-37.847-37.59-41.567-45.39-4.523-9.53 1.031-18.27-10.736-23.43-11.768-5.15-40.351-13.5-43.339-23.04-13.581-27.2-91.705-62.13-119.928-68.54-.228-.07-.475-.07-.702.01a1.11 1.11 0 0 0-.56.42c-.135.19-.203.43-.193.67.01.23.098.46.25.65 6.182 8.64 28.645 39.5 40.556 50.8l.227.16z" fill="#fff"/></g><path d="M443.574 1648.52c.616-.63 1.407-1.06 2.271-1.23a4.55 4.55 0 0 1 2.581.22 4.47 4.47 0 0 1 2.012 1.62c.493.73.756 1.58.756 2.45 0 .88-.263 1.73-.756 2.45-.493.73-1.193 1.29-2.012 1.62s-1.716.41-2.581.23-1.655-.61-2.271-1.23c-.806-.82-1.258-1.92-1.258-3.07a4.37 4.37 0 0 1 1.258-3.06h0zm-12.984 63.67a3.19 3.19 0 0 0 1.645.91c.629.14 1.284.09 1.881-.15s1.109-.64 1.47-1.17a3.18 3.18 0 0 0 .553-1.79 3.17 3.17 0 0 0-.553-1.78c-.361-.53-.873-.94-1.47-1.17-.597-.24-1.252-.29-1.881-.16-.628.14-1.201.46-1.645.92a3.13 3.13 0 0 0-.896 2.19c0 .82.321 1.61.896 2.2h0zm-50.049-145.3c.289.29.657.48 1.057.56.4.07.814.03 1.19-.12a2.12 2.12 0 0 0 .924-.75c.226-.34.347-.73.347-1.14 0-.4-.121-.79-.347-1.13a1.99 1.99 0 0 0-.924-.75 2.02 2.02 0 0 0-1.19-.12c-.4.08-.768.27-1.057.55a2.05 2.05 0 0 0-.452.67c-.104.25-.158.51-.158.78s.054.54.158.79.258.47.452.66h0zm71.334 95.62c.29.28.657.47 1.057.55s.815.04 1.191-.12a2.06 2.06 0 0 0 .924-.75c.226-.34.347-.73.347-1.13 0-.41-.121-.8-.347-1.14-.226-.33-.548-.59-.924-.75a2.2 2.2 0 0 0-1.191-.12c-.4.08-.767.27-1.057.56-.196.19-.351.41-.458.66a2.03 2.03 0 0 0-.161.79 1.98 1.98 0 0 0 .161.78c.107.25.262.48.458.67h0zm32.849-35.44c.289.28.657.48 1.057.55.4.08.814.04 1.191-.11.376-.16.697-.42.924-.76.226-.33.346-.73.346-1.13s-.12-.8-.346-1.13a2 2 0 0 0-.924-.75c-.377-.16-.791-.2-1.191-.12s-.768.27-1.057.55c-.385.39-.601.91-.601 1.45s.216 1.06.601 1.45h0zm-27.522-9.88c.288.29.656.48 1.057.56a2.12 2.12 0 0 0 1.195-.11c.378-.15.701-.42.929-.75a2.04 2.04 0 0 0 .349-1.14c0-.4-.122-.8-.349-1.13-.228-.34-.551-.6-.929-.76a2.12 2.12 0 0 0-2.252.45 2.08 2.08 0 0 0-.474.67c-.11.25-.167.52-.167.79 0 .28.057.55.167.8a1.94 1.94 0 0 0 .474.66v-.04zm-28.853 16.29c.145.15.331.25.534.29a1.04 1.04 0 0 0 .604-.06c.192-.08.356-.21.471-.38s.177-.37.177-.57a1.03 1.03 0 0 0-.177-.58c-.115-.17-.279-.3-.471-.38s-.402-.1-.604-.05a1.07 1.07 0 0 0-.534.28c-.098.1-.174.22-.224.35s-.073.27-.066.41.041.28.102.4c.061.13.148.24.254.33l-.066-.04zm80.745 100.27c.145.14.331.24.534.29.203.04.413.02.605-.06s.355-.21.47-.38a1.03 1.03 0 0 0 .177-.58c0-.2-.062-.4-.177-.57s-.279-.3-.47-.38-.402-.1-.605-.06-.389.14-.534.29c-.098.1-.174.22-.224.35a1.02 1.02 0 0 0-.066.41c.006.14.041.28.102.4.062.13.148.24.255.33l-.067-.04zm-57.84-101.21c.195.19.458.29.732.29s.538-.1.733-.29c.101-.1.181-.21.236-.33.055-.13.084-.26.084-.4a.96.96 0 0 0-.084-.39c-.055-.13-.135-.24-.236-.33-.201-.16-.452-.24-.707-.22a1.02 1.02 0 0 0-.676.3c-.18.18-.288.42-.304.67s.064.5.222.7h0zm-29.253 19.41c.289.28.657.47 1.057.55s.814.04 1.191-.12c.376-.15.697-.42.923-.75a2.03 2.03 0 0 0 .347-1.13c0-.41-.12-.8-.347-1.14-.226-.33-.547-.59-.923-.75a2.11 2.11 0 0 0-1.191-.12c-.4.08-.768.27-1.057.56-.193.19-.345.43-.446.68-.101.26-.15.53-.144.8a2.04 2.04 0 0 0 .18.8 2.08 2.08 0 0 0 .477.66l-.067-.04zm65.741 67.9a2.06 2.06 0 0 0 1.058.56c.4.07.814.03 1.19-.12.376-.16.698-.42.924-.75.226-.34.347-.73.347-1.14 0-.4-.121-.79-.347-1.13s-.548-.6-.924-.75a2.02 2.02 0 0 0-1.19-.12 2.12 2.12 0 0 0-1.058.55 2.07 2.07 0 0 0-.6 1.45 2.05 2.05 0 0 0 .6 1.45h0zm-49.938 87.49c.188.2.414.35.664.45a1.95 1.95 0 0 0 .79.16c.271 0 .54-.05.789-.16.25-.1.476-.25.664-.45.291-.28.489-.65.57-1.04a2.05 2.05 0 0 0-.115-1.19 2.02 2.02 0 0 0-.76-.91c-.34-.23-.74-.35-1.148-.35a2.05 2.05 0 0 0-1.149.35 2.02 2.02 0 0 0-.76.91 2.05 2.05 0 0 0-.115 1.19c.081.39.279.76.57 1.04zm152.08 15.66c.874.84 1.981 1.42 3.183 1.64 1.202.23 2.445.1 3.574-.37s2.091-1.25 2.768-2.26a6.11 6.11 0 0 0 1.039-3.41 6.1 6.1 0 0 0-1.039-3.4c-.677-1.01-1.64-1.79-2.768-2.26s-2.372-.6-3.574-.37c-1.202.22-2.309.8-3.183 1.64-.592.57-1.064 1.25-1.389 2.01-.324.75-.494 1.55-.5 2.37s.151 1.63.464 2.38a6.19 6.19 0 0 0 1.358 2.03h.067zM34.698 1544.45a4.44 4.44 0 0 0 2.271 1.24c.864.18 1.763.1 2.581-.23a4.41 4.41 0 0 0 2.012-1.62 4.35 4.35 0 0 0 0-4.9 4.41 4.41 0 0 0-2.012-1.62c-.818-.33-1.717-.41-2.581-.23a4.44 4.44 0 0 0-2.271 1.24c-.807.82-1.258 1.92-1.258 3.06a4.35 4.35 0 0 0 1.258 3.06h0zm654.997 222.1c.617.62 1.408 1.05 2.271 1.23a4.54 4.54 0 0 0 2.577-.24c.816-.33 1.515-.89 2.006-1.62.492-.72.755-1.57.755-2.44a4.33 4.33 0 0 0-.755-2.45c-.491-.73-1.19-1.29-2.006-1.62a4.45 4.45 0 0 0-2.577-.23c-.863.17-1.654.6-2.271 1.22-.814.82-1.269 1.93-1.269 3.08s.455 2.25 1.269 3.07h0zm-200.354-109.77a4.49 4.49 0 0 0 2.27 1.23c.865.18 1.763.1 2.581-.23s1.519-.89 2.012-1.62c.493-.72.756-1.57.756-2.45 0-.87-.263-1.72-.756-2.45a4.47 4.47 0 0 0-2.012-1.62 4.64 4.64 0 0 0-2.581-.23c-.864.18-1.655.61-2.27 1.24-.814.82-1.269 1.92-1.269 3.07s.455 2.26 1.269 3.08v-.02zm187.37 167.29a3.17 3.17 0 0 0 1.647.87 3.2 3.2 0 0 0 1.86-.18c.588-.24 1.091-.65 1.445-1.17a3.16 3.16 0 0 0 .542-1.77c0-.63-.189-1.24-.542-1.77-.354-.52-.857-.93-1.445-1.17s-1.235-.3-1.86-.18-1.197.43-1.647.87c-.305.3-.547.65-.712 1.04-.166.38-.251.8-.251 1.22s.085.84.251 1.23a3.07 3.07 0 0 0 .712 1.03v-.02zm25.79 62.42a3.19 3.19 0 0 0 1.645.91c.629.14 1.284.09 1.881-.15s1.109-.64 1.47-1.17a3.18 3.18 0 0 0 .553-1.79 3.17 3.17 0 0 0-.553-1.78c-.361-.53-.873-.94-1.47-1.17-.597-.24-1.252-.29-1.881-.16-.628.14-1.201.46-1.645.92-.581.59-.907 1.38-.907 2.21a3.14 3.14 0 0 0 .907 2.2v-.02zm-123.604-81.5a3.19 3.19 0 0 0 1.048.7c.392.16.813.25 1.238.25a3.29 3.29 0 0 0 1.239-.25c.392-.16.748-.4 1.047-.7.455-.44.765-1.02.892-1.64s.062-1.27-.182-1.85a3.18 3.18 0 0 0-1.194-1.44c-.533-.36-1.16-.54-1.802-.54s-1.268.18-1.801.54c-.534.35-.949.85-1.194 1.44-.245.58-.308 1.23-.182 1.85a3.18 3.18 0 0 0 .891 1.64h0zm-187.103 117.09c.451.44 1.024.74 1.648.86s1.269.06 1.855-.18c.587-.25 1.087-.65 1.44-1.18.352-.52.54-1.13.54-1.76s-.188-1.25-.54-1.77-.853-.93-1.44-1.17a3.27 3.27 0 0 0-1.855-.19c-.624.12-1.197.42-1.648.87a3.11 3.11 0 0 0-.707 1.04 3.18 3.18 0 0 0 0 2.46c.164.39.404.74.707 1.04v-.02zm234.867-243.31a2.06 2.06 0 0 0 1.057.57c.4.08.816.04 1.194-.12a2 2 0 0 0 1.278-1.88 2.03 2.03 0 0 0-.349-1.14 2 2 0 0 0-.929-.75c-.378-.16-.794-.2-1.194-.12a2.06 2.06 0 0 0-1.057.57 1.98 1.98 0 0 0-.457.65 2.03 2.03 0 0 0-.161.79c0 .26.055.53.161.78a1.98 1.98 0 0 0 .457.65h0zm71.335 95.64a2.1 2.1 0 0 0 2.929 0c.389-.38.607-.91.607-1.45s-.218-1.06-.607-1.45a2.01 2.01 0 0 0-.672-.44c-.251-.11-.52-.16-.792-.16s-.542.05-.793.16a2.01 2.01 0 0 0-.672.44 2.04 2.04 0 0 0-.449.67c-.105.25-.158.51-.158.78a1.96 1.96 0 0 0 .158.78 2.04 2.04 0 0 0 .449.67h0zm-103.385 26.5c.389.38.916.6 1.465.6a2.1 2.1 0 0 0 1.465-.6c.389-.39.607-.91.607-1.45s-.218-1.06-.607-1.45c-.19-.19-.418-.35-.67-.45-.251-.11-.522-.16-.795-.16a1.98 1.98 0 0 0-.795.16c-.252.1-.479.26-.67.45-.385.39-.6.91-.6 1.45s.215 1.06.6 1.45h0zm-589.01 16.62c.39.38.917.59 1.465.59s1.074-.21 1.465-.59c.385-.39.601-.91.601-1.45s-.216-1.06-.601-1.45c-.39-.38-.917-.59-1.465-.59s-1.074.21-1.465.59c-.385.39-.601.91-.601 1.45s.216 1.06.601 1.45h0zm62.923-15.22c.188.2.414.35.664.46.25.1.518.16.79.16s.54-.06.79-.16c.25-.11.476-.26.664-.46a1.99 1.99 0 0 0 .57-1.04 2.01 2.01 0 0 0-.115-1.18c-.156-.38-.42-.7-.76-.92-.34-.23-.739-.35-1.148-.35s-.809.12-1.148.35c-.34.22-.604.54-.76.92a2.01 2.01 0 0 0-.115 1.18c.081.4.279.76.569 1.04zm662.255-63.27a2.04 2.04 0 0 0 1.056.56 2.12 2.12 0 0 0 1.195-.11c.378-.15.702-.42.929-.75a2.03 2.03 0 0 0 .349-1.14 2 2 0 0 0-.349-1.13c-.227-.34-.551-.6-.929-.76a2.12 2.12 0 0 0-1.195-.11c-.401.08-.768.28-1.056.56a2.11 2.11 0 0 0-.45.66c-.105.25-.158.51-.158.78s.053.53.158.78a2 2 0 0 0 .45.66zm-547.373-192.11c.289.29.657.48 1.057.56a2.02 2.02 0 0 0 1.19-.12c.377-.15.698-.42.924-.75.226-.34.347-.73.347-1.13 0-.41-.121-.8-.347-1.14a2.12 2.12 0 0 0-.924-.75c-.376-.15-.79-.2-1.19-.12s-.768.27-1.057.56c-.193.19-.347.41-.452.66s-.158.52-.158.79a2.05 2.05 0 0 0 .158.78c.105.25.259.47.452.66h0zm519.917 182.23c.29.28.657.48 1.057.56a2.2 2.2 0 0 0 1.191-.12 2.08 2.08 0 0 0 .924-.76c.226-.33.347-.73.347-1.13s-.121-.8-.347-1.13c-.226-.34-.548-.6-.924-.75-.376-.16-.791-.2-1.191-.12s-.767.27-1.057.55c-.192.19-.345.41-.449.66s-.159.51-.159.78.054.53.159.78.257.47.449.66v.02zm-184.063 30.17c.186.21.415.39.673.51a2.14 2.14 0 0 0 .825.21 2.01 2.01 0 0 0 .838-.15c.266-.1.507-.26.708-.46a2.08 2.08 0 0 0 .459-.71 2.03 2.03 0 0 0 .132-.83 2.01 2.01 0 0 0-.218-.81c-.129-.26-.31-.48-.531-.66a2.06 2.06 0 0 0-1.465-.6c-.55 0-1.077.21-1.465.6a2.02 2.02 0 0 0-.607 1.45c0 .54.218 1.06.607 1.45h.044zm155.365-13.9c.196.19.459.3.733.3s.537-.11.732-.3c.158-.2.237-.45.222-.7a1.04 1.04 0 0 0-.304-.67c-.181-.18-.421-.28-.676-.3-.255-.01-.506.06-.707.22-.204.18-.329.44-.345.71s.075.53.257.74h.088zm-163.399 33.13c.145.14.331.24.534.29a1.04 1.04 0 0 0 .604-.06c.192-.08.356-.21.471-.38a1.03 1.03 0 0 0 .177-.58c0-.2-.062-.4-.177-.57s-.279-.3-.471-.38a1.04 1.04 0 0 0-.604-.06c-.203.04-.389.14-.534.29a1.01 1.01 0 0 0-.301.72c0 .28.108.54.301.73h0zm28.365-18.75c.145.15.331.25.534.29s.413.02.605-.06.355-.21.47-.38.177-.37.177-.57a1.03 1.03 0 0 0-.177-.58c-.115-.17-.279-.3-.47-.38s-.402-.1-.605-.06c-.203.05-.389.14-.534.29a1.06 1.06 0 0 0-.239.34c-.055.13-.084.27-.084.41s.029.27.084.4a.96.96 0 0 0 .239.34v-.04zm215.602 85.89a1.07 1.07 0 0 0 .534.28c.203.04.413.03.605-.05s.355-.21.47-.38.177-.37.177-.58c0-.2-.061-.4-.177-.57s-.279-.3-.47-.38-.402-.1-.605-.06-.389.14-.534.29c-.192.19-.3.45-.3.72s.108.53.3.73h0zm1.043 71.79c.146.15.331.25.534.29s.413.02.605-.06.355-.21.47-.38.177-.37.177-.57c0-.21-.061-.41-.177-.58s-.279-.3-.47-.38-.402-.1-.605-.06a1.18 1.18 0 0 0-.534.29c-.095.1-.169.22-.217.34a1.01 1.01 0 0 0-.059.4c.008.14.045.27.108.4a1.03 1.03 0 0 0 .257.31h-.089zm-39.462 1.03c.145.15.331.25.533.29s.414.02.605-.06a1.06 1.06 0 0 0 .471-.38c.115-.17.177-.37.177-.57a1.03 1.03 0 0 0-.177-.58 1.06 1.06 0 0 0-.471-.38 1.04 1.04 0 0 0-.605-.05 1.07 1.07 0 0 0-.533.28c-.182.21-.274.47-.257.75.016.27.141.52.345.7h-.088zm-1.021-13.46c.091.12.205.21.336.28a1.04 1.04 0 0 0 .422.12c.147 0 .294-.02.432-.07s.263-.13.367-.23c.104-.11.185-.23.238-.37.052-.13.075-.28.066-.43a1.03 1.03 0 0 0-.117-.41c-.068-.13-.164-.25-.279-.34-.094-.1-.207-.17-.333-.23a1.09 1.09 0 0 0-.4-.08c-.137 0-.273.03-.4.08-.126.06-.239.13-.332.23-.181.21-.274.48-.257.75s.141.52.345.7h-.088zm-128.576-92.73c.195.19.458.29.732.29s.538-.1.733-.29c.101-.1.181-.21.236-.33.055-.13.084-.26.084-.4a.96.96 0 0 0-.084-.39c-.055-.13-.135-.24-.236-.33a1.01 1.01 0 0 0-.337-.28c-.13-.07-.274-.11-.421-.12-.147 0-.295.02-.432.07s-.263.13-.368.24a.96.96 0 0 0-.237.36c-.052.13-.075.28-.066.43.009.14.048.28.117.41s.163.25.279.34h0zm110.309-67.84c.192.18.451.29.722.29s.529-.11.721-.29c.101-.1.181-.21.236-.33.055-.13.084-.26.084-.4s-.029-.27-.084-.39c-.055-.13-.135-.24-.236-.33a1.03 1.03 0 0 0-.721-.3 1.03 1.03 0 0 0-.722.3c-.101.09-.181.2-.236.33-.055.12-.084.25-.084.39s.029.27.084.4c.055.12.135.23.236.33h0zm-117.012 52.69a1.07 1.07 0 0 0 .534.28 1.13 1.13 0 0 0 .605-.05c.191-.08.355-.21.47-.38s.177-.37.177-.58c0-.2-.061-.4-.177-.57s-.279-.3-.47-.38-.402-.1-.605-.06-.389.14-.534.29a1.01 1.01 0 0 0-.28.69 1.02 1.02 0 0 0 .258.69l.022.07zm87.737-33.22a2.02 2.02 0 0 0 .672.44 1.97 1.97 0 0 0 .793.16c.272 0 .541-.05.793-.16a2.03 2.03 0 0 0 .672-.44c.192-.19.345-.42.449-.67.104-.24.157-.51.157-.78s-.053-.54-.157-.78c-.104-.25-.257-.48-.449-.67s-.418-.35-.67-.45a1.98 1.98 0 0 0-.795-.16c-.273 0-.544.05-.795.16-.252.1-.48.26-.67.45a2.06 2.06 0 0 0-.58 1.41 2.03 2.03 0 0 0 .558 1.42l.022.07zm-126.223 32.93a1.87 1.87 0 0 0 .67.45c.251.11.522.16.795.16s.544-.05.795-.16c.252-.1.479-.25.67-.45.388-.38.607-.9.607-1.45a2.06 2.06 0 0 0-.607-1.45c-.389-.38-.916-.6-1.465-.6a2.1 2.1 0 0 0-1.465.6c-.372.38-.582.88-.586 1.4a2 2 0 0 0 .564 1.41l.022.09zm27.411 2.04a2.06 2.06 0 0 0 1.056.57 2.04 2.04 0 0 0 1.195-.12c.378-.15.702-.41.929-.75a2 2 0 0 0 .349-1.13 2.03 2.03 0 0 0-.349-1.14c-.227-.34-.551-.6-.929-.75a2.04 2.04 0 0 0-1.195-.12 2.06 2.06 0 0 0-1.056.57c-.365.37-.572.87-.576 1.39a2.01 2.01 0 0 0 .554 1.4l.022.08zm164.487 32.94a2.12 2.12 0 0 0 1.057.56c.4.08.816.04 1.194-.11.378-.16.702-.42.929-.76a2 2 0 0 0 .349-1.13 2.03 2.03 0 0 0-.349-1.14c-.227-.33-.551-.6-.929-.75s-.794-.19-1.194-.11-.769.27-1.057.56c-.353.37-.551.86-.555 1.37s.186 1 .533 1.37l.022.14zm-574.34-125.15c.289.29.657.48 1.057.56a2.2 2.2 0 0 0 1.191-.12c.376-.16.698-.42.924-.75.226-.34.347-.73.347-1.14 0-.4-.121-.79-.347-1.13a2.06 2.06 0 0 0-.924-.75c-.376-.16-.791-.2-1.191-.12s-.768.27-1.057.55a2.05 2.05 0 0 0-.588 1.42c-.004.52.199 1.03.566 1.42l.022.06zm-51.759 188.33a2.06 2.06 0 0 0 1.058.56c.4.07.814.03 1.19-.12.376-.16.698-.42.924-.75.226-.34.347-.73.347-1.14 0-.4-.121-.79-.347-1.13s-.548-.6-.924-.75a2.02 2.02 0 0 0-1.19-.12 2.12 2.12 0 0 0-1.058.55 2.07 2.07 0 0 0-.6 1.45c0 .55.216 1.07.6 1.45h0zm538.14 9.71c.289.28.657.47 1.057.55s.815.04 1.191-.12c.376-.15.698-.41.924-.75s.347-.73.347-1.13c0-.41-.121-.8-.347-1.14-.226-.33-.548-.59-.924-.75a2.2 2.2 0 0 0-1.191-.12c-.4.08-.768.27-1.057.56a2.01 2.01 0 0 0-.458.66 2.03 2.03 0 0 0-.161.79 1.98 1.98 0 0 0 .161.78 2.05 2.05 0 0 0 .458.67h0zm-457.794-216.39c.288.29.656.48 1.057.56a2.12 2.12 0 0 0 1.195-.11 2.14 2.14 0 0 0 .929-.75c.227-.34.349-.74.349-1.14s-.122-.8-.349-1.14a2.14 2.14 0 0 0-.929-.75 2.12 2.12 0 0 0-2.252.45 2.02 2.02 0 0 0-.456.66c-.107.25-.161.51-.161.78s.054.53.161.78a2.02 2.02 0 0 0 .456.66h0zm495.725 230.88a2.12 2.12 0 0 0 1.058.55c.399.08.814.04 1.19-.12.376-.15.698-.41.924-.75s.347-.73.347-1.13c0-.41-.121-.8-.347-1.14-.226-.33-.548-.59-.924-.75-.376-.15-.791-.19-1.19-.12a2.06 2.06 0 0 0-1.058.56c-.196.19-.351.41-.458.66a2.03 2.03 0 0 0-.161.79c0 .27.055.54.161.78.107.25.262.48.458.67h0zm-409.963-120.4a2.12 2.12 0 0 0 2.251.45c.378-.16.702-.42.929-.76a2 2 0 0 0 .349-1.13 2.03 2.03 0 0 0-.349-1.14c-.227-.33-.551-.6-.929-.75a2.12 2.12 0 0 0-1.195-.11c-.4.08-.768.27-1.056.56-.196.19-.351.41-.457.66-.106.24-.161.51-.161.78a1.98 1.98 0 0 0 .161.78c.106.25.261.47.457.66h0zm327.243 55.26c.19.19.418.34.669.45.252.1.522.16.796.16s.543-.06.795-.16c.251-.11.479-.26.669-.45.288-.29.483-.65.561-1.05s.037-.81-.12-1.18a2.03 2.03 0 0 0-.76-.91 2.11 2.11 0 0 0-2.291 0 2.03 2.03 0 0 0-.76.91c-.157.37-.198.78-.12 1.18s.274.76.561 1.05z" fill="#604f72"/><defs ><path id="B" d="M598.927 185.283c1.567 0 2.837-1.254 2.837-2.802s-1.27-2.801-2.837-2.801-2.837 1.254-2.837 2.801 1.27 2.802 2.837 2.802z"/><path id="C" d="M486.616 329.731a1.33 1.33 0 0 0 1.338-1.322 1.33 1.33 0 0 0-1.338-1.322c-.739 0-1.339.592-1.339 1.322s.6 1.322 1.339 1.322z"/><path id="D" d="M368.136 149.074a1.33 1.33 0 0 0 1.338-1.322 1.33 1.33 0 0 0-1.338-1.321 1.33 1.33 0 0 0-1.339 1.321 1.33 1.33 0 0 0 1.339 1.322z"/><path id="E" d="M709.245 308.609c.739 0 1.339-.592 1.339-1.322s-.6-1.322-1.339-1.322-1.339.592-1.339 1.322.6 1.322 1.339 1.322z"/></defs></svg>