<svg width="228" height="181" viewBox="0 0 228 181" fill="none" xmlns="http://www.w3.org/2000/svg">
<path fill-rule="evenodd" clip-rule="evenodd" d="M224.386 17.1537C224.386 17.1537 230.39 79.8586 224.386 105.87C224.386 105.87 216.603 121.058 182.38 127.654V177.632C182.38 177.632 129.897 185.342 107.362 173.986L92.24 158.24C63.577 120.826 -0.000366211 3.91602 -0.000366211 3.91602L101.803 11.4871L224.386 17.1537Z" fill="url(#paint0_linear_169_13757)"/>
<path fill-rule="evenodd" clip-rule="evenodd" d="M224.387 17.1539C224.387 17.1539 143.587 11.255 140.375 8.2359C134.84 2.80147 115.863 0.0610352 115.863 0.0610352L0.000289917 3.91623C0.000289917 3.91623 15.7402 11.4873 31.3319 17.1539C46.9235 22.8206 120.063 26.072 151.247 24.4463C182.43 22.8206 224.387 17.1539 224.387 17.1539Z" fill="#CECCD4"/>
<g style="mix-blend-mode:multiply" opacity="0.6">
<path fill-rule="evenodd" clip-rule="evenodd" d="M188.805 126.26L188.113 126.423C186.309 126.864 184.406 127.282 182.43 127.654V177.632C182.43 177.632 129.625 185.667 107.412 173.986L92.2895 158.24C62.1934 116.971 -0.000289917 3.91602 -0.000289917 3.91602C-0.000289917 3.91602 31.7266 21.5895 48.8008 20.498C45.1438 20.0799 80.083 104.964 84.4319 116.181C88.7807 127.398 113.391 134.76 113.391 134.76L149.615 125.471L155.101 105.753V53.4761L167.604 105.87L187.371 110.514L224.436 105.87C224.436 105.87 217.566 119.107 188.805 126.26Z" fill="#9696A8"/>
</g>
<g style="mix-blend-mode:color-dodge" opacity="0.46">
<path fill-rule="evenodd" clip-rule="evenodd" d="M140.449 8.23451C140.449 8.23451 107.166 11.2997 94.6626 10.9514C82.1596 10.6031 55.1275 8.23451 55.1275 8.23451C55.1275 8.23451 96.8618 -0.821881 115.863 0.0605366C115.863 0.0605366 136.743 3.40443 140.449 8.23451Z" fill="#ABA7B5"/>
</g>
<g style="mix-blend-mode:multiply" opacity="0.29">
<path d="M189.349 65.9008C190.585 67.0388 198.072 65.0183 199.233 63.8571C207.288 56.588 208.129 47.0197 203.211 48.8311C198.294 50.6426 180.577 57.6563 189.349 65.9008Z" fill="#A7A7A8"/>
</g>
<g style="mix-blend-mode:multiply" opacity="0.29">
<path d="M175.659 50.6197C176.449 50.3285 177.324 50.3085 178.128 50.5634C178.933 50.8182 179.616 51.3315 180.057 52.013C180.386 52.7088 180.561 53.4603 180.572 54.2216C180.582 54.983 180.428 55.7384 180.118 56.442C179.809 57.1457 179.35 57.7828 178.77 58.3148C178.191 58.8468 177.502 59.2625 176.746 59.5368C171.804 62.184 164.243 59.0259 164.392 56.1C164.317 54.0797 171.31 51.8272 175.659 50.6197Z" fill="#A7A7A8"/>
</g>
<g style="mix-blend-mode:multiply" opacity="0.29">
<path d="M81.4676 71.916C77.7365 74.8887 63.8497 86.5936 62.1201 88.7766C60.3904 90.9597 76.5504 102.711 80.0097 100.389C83.469 98.0663 88.6827 73.1701 87.1013 70.7083C85.5199 68.2466 82.5795 71.0335 81.4676 71.916Z" fill="#A7A7A8"/>
</g>
<path d="M167.603 105.869L172.397 124.402L182.404 127.653V177.631L156.805 144.886L149.615 125.377L155.1 105.66V53.5454L167.603 105.869Z" fill="#474757"/>
<defs>
<linearGradient id="paint0_linear_169_13757" x1="119.84" y1="252.181" x2="110.868" y2="-97.9749" gradientUnits="userSpaceOnUse">
<stop offset="0.12" stop-color="#CFCCD4"/>
<stop offset="1" stop-color="#2C2733"/>
</linearGradient>
</defs>
</svg>
