<svg xmlns="http://www.w3.org/2000/svg" width="36" height="35" fill="none" xmlns:v="https://vecta.io/nano"><g clip-path="url(#A)" fill="#3a2657"><path d="M25.49 9.305c.837.029 1.363.818 1.081 1.655l-1.509 4.322-6.564 18.736c-.282.818-.964 1.207-1.617.847-.282-.156-.545-.457-.682-.759L12.245 25.2c-.312-.72-.74-1.148-1.461-1.46l-8.979-3.971c-.711-.311-.984-.963-.691-1.596.166-.36.467-.545.818-.672l9.028-3.153L24.867 9.48l.623-.175zm-1.159-5.83V1.256c0-.74.497-1.265 1.178-1.256.662 0 1.159.526 1.159 1.236v4.516c0 .711-.497 1.236-1.159 1.236-.672.01-1.169-.526-1.178-1.256V3.475zm8.171 5.849h2.259c.711 0 1.237.496 1.237 1.158s-.516 1.168-1.217 1.178h-4.558c-.701 0-1.227-.516-1.217-1.178s.526-1.148 1.237-1.158h2.259zm.604-5.1c-.078.136-.166.457-.37.672l-2.902 2.91c-.487.487-1.198.467-1.665 0-.448-.457-.458-1.158.01-1.635l2.931-2.93c.36-.36.808-.438 1.276-.243.458.195.691.565.721 1.226zm-9.943 2.628c-.039.574-.224.954-.662 1.168-.448.214-.906.185-1.256-.156l-3.038-3.037c-.419-.438-.351-1.129.068-1.557s1.12-.496 1.549-.078l3.068 3.066c.165.175.214.457.273.594zm9.923 9.918c-.049.604-.253.973-.692 1.168-.438.204-.886.166-1.227-.156l-3.038-3.037c-.419-.438-.36-1.129.058-1.557.428-.438 1.139-.496 1.578-.068l3.009 3.017c.175.195.243.487.312.633z"/></g><defs><clipPath id="A"><path fill="#fff" transform="translate(.998)" d="M0 0h35v35H0z"/></clipPath></defs></svg>