<svg xmlns="http://www.w3.org/2000/svg" width="61" height="50" fill="none" xmlns:v="https://vecta.io/nano"><g clip-path="url(#A)"><path d="M60.469 6.148c-1.462 2.3-3.307 4.224-5.433 5.863-.428.331-.561.646-.546 1.188.148 5.833-1.092 11.365-3.573 16.612-2.953 6.269-7.263 11.35-13.08 15.018-4.134 2.616-8.636 4.164-13.464 4.826-3.395.466-6.791.466-10.172-.03-4.901-.722-9.478-2.42-13.67-5.126-.03-.015-.044-.06-.118-.135 6.673.616 12.667-1.052 18.144-5.231-.93-.075-1.713-.135-2.465-.316-4.252-1.082-7.19-3.713-8.858-7.817-.251-.631-.207-.661.472-.556 1.476.21 2.938.12 4.399-.195.089-.015.177-.075.295-.12-7.086-1.789-9.95-8.238-9.64-12.462 1.683.857 3.41 1.428 5.462 1.473-2.702-1.999-4.429-4.525-5.123-7.712s-.192-6.179 1.343-9.02c.236.06.31.225.428.361C10.01 8.945 16.506 12.943 24.3 14.732c1.727.391 3.484.586 5.256.752.443.045.413-.12.354-.466-.709-4.705.546-8.749 4.075-11.906C36.849.556 40.244-.406 44.024.18c2.628.406 4.887 1.594 6.776 3.488a.7.7 0 0 0 .768.226c2.392-.541 4.665-1.398 6.806-2.616.148-.09.31-.165.576-.301-.93 2.931-2.672 5.096-5.241 6.84.915-.03 1.639-.195 2.362-.376a35.2 35.2 0 0 0 2.155-.601c.723-.241 1.447-.511 2.17-.782.015.03.044.06.074.09z" fill="#fff"/></g><defs><clipPath id="A"><path fill="#fff" transform="translate(.414)" d="M0 0h60.056v50H0z"/></clipPath></defs></svg>