<svg xmlns="http://www.w3.org/2000/svg" xmlns:xlink="http://www.w3.org/1999/xlink" width="484" height="569" fill="none" xmlns:v="https://vecta.io/nano"><style><![CDATA[.B{stroke-linejoin:round}.C{stroke:#000}.D{stroke-width:2.13}.E{fill:#ffc404}.F{fill:#ffe8a4}.G{stroke-linecap:round}.H{opacity:.5}.I{opacity:.3}.J{fill:#fff}.K{opacity:.7}.L{fill-rule:evenodd}.M{fill:#ffd343}.N{opacity:.4}.O{fill:#787d8a}.P{fill:#ffd491}.Q{fill:#a7a7a8}.R{fill:#ffcd97}.S{stroke-miterlimit:10}.T{fill:#bac2d6}.U{fill:#ffc56b}.V{fill:#f7764d}.W{fill:#7d59e0}.X{fill:#aba7b5}.Y{fill:#ffa66b}.Z{fill:#ffff74}]]></style><g class="L"><path d="M323.154 568.041l24.631-105.103s15.951-31.467 20.07-36.099 59.04-38.62 65.051-39.646 20.95 2.316 22.49 3.605 7.726 68.887 7.726 72.14-17.344 105.528-17.344 105.528l-122.624-.425z" fill="url(#A)"/><path d="M454.368 459.553c1.54-4.119.778-65.369 1.027-68.725-1.466-1.261-15.863-4.485-22.094-3.65l-.396.088c-.352 0-.719.206-1.085.293-8.269 3.093-46.607 26.602-59.758 35.968-1.466 1.128-2.815 2.257-4.193 3.371 0 0-7.726 20.856-7.726 26.25s8.327 20.519 10.981 22.146 42.047 5.511 53.893 2.448 27.812-14.071 29.351-18.189z" fill="#8684e0"/><path opacity=".51" d="M347.784 462.968l12.359-7.783s1.789 7.622 9.31 18.365c2.609 3.723-35.025 46.374-35.025 46.374l13.356-56.956z" class="W"/></g><g style="mix-blend-mode:multiply" opacity=".74" class="L"><path d="M425.018 477.742c-3.592 5.716-11.729 90.695-11.729 90.695h32.43l17.344-105.528-8.797-3.415a65.49 65.49 0 0 1-29.248 18.248h0z" fill="#b19fcc"/></g><path d="M405.256 478.739l15.394 23.04a272.77 272.77 0 0 0 17.593-29.548 82.12 82.12 0 0 1-32.987 6.508h0z" class="L W"/><g style="mix-blend-mode:color-dodge" opacity=".58" class="L"><path d="M431 434.783s-1.818-28.932 4.398-47.751l-2.536.205-6.333 31.878a88.55 88.55 0 0 0-10.131 2.243l.235.219-17.242-15.726-7.623 4.719c11.127 1.774 35.655 23.085 50.565 37.272l-4.09 24.389 2.14-1.217s-.997-11.886 3.358-21.882l10.629 10.421.322-1.964c-3.225-3.62-13.136-13.015-23.692-22.806zm-4.677-14.407l-1.7 8.515-7.331-6.771c2.361-1.407 6.304-1.686 9.031-1.744h0z" fill="#6d6ad1"/></g><g class="L"><path d="M373.529 568.436l18.019-30.383 7.843-6.126s54.07-9.132 59.04-8.457 24.718 44.966 24.718 44.966h-109.62z" fill="url(#B)"/><path d="M399.391 531.927c2.932 3.928 8.591 16.019 13.898 18.145 8.797 3.532 31.932-4.822 36.726-9.967s8.415-16.635 8.415-16.635-38.514 4.426-59.039 8.457z" fill="#8684e0"/><path opacity=".51" d="M413.348 550.072l-5.571 18.364h-34.248l18.019-30.383 7.843-6.126s9.031 10.948 13.957 18.145z" class="W"/></g><g style="mix-blend-mode:multiply" opacity=".74" class="L"><path d="M427.746 568.436l20.027-9.952 3.284-19.493s4.398-4.734 7.33-15.551c0 0 1.672-.366 7.829 10.539 3.71 6.551 8.885 17.28 16.89 34.428l-55.36.029z" fill="#b19fcc"/></g><path d="M52 568.437s50.785-42.505 57.178-45.538 32.474 0 32.474 0l5.233 22.102s1.115-66.512 3.358-73.987 74.257-45.905 82.834-46.286 63.848 33.593 79.345 48.528 61.033 78.003 62.91 79.879 2.61 15.302 2.61 15.302H52z" fill="url(#C)" class="L"/><g style="mix-blend-mode:multiply" opacity=".35" class="L Q"><path d="M375.333 553.135s-86.353 5.188-96.44 3.693-85.869-27.129-85.869-27.129l-17.813 38.737h202.731l-2.609-15.301z"/></g><g style="mix-blend-mode:multiply" opacity=".35" class="L Q"><path d="M141.608 522.898s-2.683 12.443-7.902 18.775c0 0-7.199 13.645-33.163 21.164v5.599h44.423l1.876-23.45-5.234-22.088z"/></g><g style="mix-blend-mode:multiply" opacity=".35" class="L Q"><path d="M270.785 567.689l1.877-9.336 102.67-5.218 2.61 15.301-107.157-.747z"/></g><g class="L"><path d="M375.333 553.136s-88.963 6.346-102.627 2.418-70.753-18.189-93.067-43.105-29.161-42.504-27.343-43.97 68.13-42.959 80.826-43.706 73.906 42.709 79.301 48.484 62.91 79.879 62.91 79.879zm-309.376 3.692s25.114 7.021 37.297 3.957 31.668-9.277 38.353-37.887c0 0-25.935-2.829-31.359 0s-44.291 33.93-44.291 33.93z" style="mix-blend-mode:soft-light" class="X"/><path d="M182.762 515.672l7.066 18.776s10.336 7.196 39.306 7.328l-46.372-26.104zm78.494 36.686l11.406 5.995 20.716-.557c-10.873-.643-21.644-2.466-32.122-5.438h0z" fill="#565761"/><path d="M90.91 561.416l9.632 1.465 7.639-2.447 8.899-4.251s-16.01 4.807-26.17 5.233z" fill="#797a7c"/></g><g style="mix-blend-mode:color-dodge" opacity=".45" class="L"><path d="M399.391 531.663s54.494-4.251 53.966-1.598-8.356 13.426-7.535 13.045c1.847-.836 6.187-3.415 9.427-11.183s3.181-8.457 3.181-8.457-7.198.234-28.017 3.429l-31.022 4.764z" fill="#f2f2f2"/></g><g style="mix-blend-mode:color-dodge" opacity=".45" class="L"><path d="M405.357 539.328s9.193 8.574 11.231 8.794 13.737 1.085 13.737 1.085-13.195 3.268-16.274 1.245-8.694-11.124-8.694-11.124z" fill="#f2f2f2"/></g><g style="mix-blend-mode:color-dodge" opacity=".46" class="L X"><path d="M156.328 465.753s57.002-28.258 67.778-28.082 78.919 32.244 83.303 37.491 27.562 26.499 30.788 28.83-24.073-28.976-24.073-28.976 7.535 6.141-2.83-2.844-73.7-47.062-78.216-47.443-76.75 41.024-76.75 41.024z"/></g><g style="mix-blend-mode:color-dodge" opacity=".46" class="L X"><path d="M89.738 540.061s17.593-14.246 25.598-14.452l25.803-.82s-8.444-4.529-23.604-3.357-27.797 18.629-27.797 18.629z"/></g><path d="M352.828 523.308l-9.149 6.244a.79.79 0 0 1-.528.155c-.189-.013-.367-.093-.501-.226a.79.79 0 0 1-.085-1.028l6.495-9.732 3.768 4.587zm4.53 6.303l-6.202 4.206a.54.54 0 0 1-.358.092.55.55 0 0 1-.334-.16c-.089-.091-.144-.21-.154-.337a.54.54 0 0 1 .099-.357l4.398-6.581 2.272 3.723" fill="#565761"/><g style="mix-blend-mode:multiply" opacity=".2" class="Q"><path d="M289.023 473.77a18.1 18.1 0 0 0-2.038-1.1l-.923-.527a6.46 6.46 0 0 0-1.276-.425 6.08 6.08 0 0 0-2.815.132 5.7 5.7 0 0 0-2.478 1.465 2.26 2.26 0 0 0-.421.792c-.086.29-.112.594-.077.894a.46.46 0 0 0 0 .117c-.022.19-.022.382 0 .572 0 .205.103.395.147.601a2.46 2.46 0 0 0 .718 1.011c1.071 1.165 2.355 2.115 3.782 2.799.886.454 1.865.695 2.859.704.976 0 1.92-.343 2.669-.968.474-.398.85-.899 1.099-1.465a3.92 3.92 0 0 0 .323-1.788 3.7 3.7 0 0 0-.461-1.587c-.272-.488-.651-.907-1.108-1.227h0z"/></g><g style="mix-blend-mode:multiply" opacity=".2" class="Q"><path d="M275.741 479.105a11.72 11.72 0 0 0-1.217-4.939 6.09 6.09 0 0 0-2.214-2.58 13.06 13.06 0 0 0-2.609-1.173c-1.775-.657-3.692-.834-5.557-.513a7.56 7.56 0 0 0-1.349.396 6.53 6.53 0 0 0-3.049 1.466c-.982.896-1.646 2.086-1.892 3.392s-.061 2.657.528 3.848a7.87 7.87 0 0 0 3.68 3.62c1.426.756 2.894 1.426 4.399 2.008 1.906.704 4.105 1.334 5.981.308a6.45 6.45 0 0 0 2.467-2.455c.582-1.028.87-2.197.832-3.378h0z"/></g><g style="mix-blend-mode:multiply" opacity=".2" class="Q"><path d="M290.109 496.238c-.166-.679-.382-1.345-.645-1.993l-.264-.909c-.17-.397-.381-.775-.631-1.128-.612-.823-1.373-1.524-2.243-2.067-.966-.599-2.035-1.017-3.152-1.231a2.58 2.58 0 0 0-1.759.322h-.088c-.171.05-.334.124-.484.22l-.381.352c-.215.275-.324.619-.308.967-.127 1.362.075 2.734.586 4.002.357.888.896 1.692 1.584 2.359a6.76 6.76 0 0 0 2.829 1.598c.658.185 1.341.264 2.024.234a4.4 4.4 0 0 0 1.73-.498c.401-.207.731-.531.945-.928s.304-.851.257-1.3h0z"/></g><use xlink:href="#D" class="R"/><g class="C D"><use xlink:href="#D" class="S"/><path d="M232.606 482.687l-8.832-1.187" class="B G"/></g><use xlink:href="#E" class="T"/><path d="M215.446 446.28c1.073 6.96 4.691 14.377 10.493 18.27 5.023 3.371 12.098 4.121 18.109 3.504-.105 2.374-.409 4.776-.409 7.15a1.75 1.75 0 0 1-2.003 1.624l-18.869-2.716a1.73 1.73 0 0 1-1.433-1.263c-1.244-4.387-7.094-20.957-9.943-31.004 1.197 1.69 2.564 3.153 4.046 4.425l.009.01z" class="J N"/><g class="C D S"><use xlink:href="#F" fill="#878787"/><use xlink:href="#E"/><path d="M247.001 405.647c.902.133 1.557.94 1.5 1.851l-5.745 81.684c-.085 1.386-1.139 2.45-2.412 2.45h-26.655c-1.585 0-2.402-1.956-1.547-3.257a1.8 1.8 0 0 1 .56-.513l9.885-5.679c.703-.398 1.035-1.225.817-2.003l-30.928-98.691c-.342-1.225.683-2.402 1.946-2.212l52.579 26.36v.01z"/></g><use xlink:href="#G" class="R"/><g class="C D"><use xlink:href="#G" class="S"/><path d="M252.984 482.687l-8.831-1.187" class="B G"/></g><use xlink:href="#H" class="T"/><path d="M235.816 446.28c1.073 6.96 4.691 14.377 10.493 18.27 5.023 3.371 12.098 4.121 18.109 3.504-.105 2.374-.409 4.776-.409 7.15a1.75 1.75 0 0 1-2.003 1.624l-18.868-2.716a1.73 1.73 0 0 1-1.434-1.263c-1.244-4.387-7.094-20.957-9.943-31.004 1.197 1.69 2.564 3.153 4.046 4.425l.009.01z" class="J N"/><g class="C D"><g class="S"><use xlink:href="#F" x="20.38" fill="#878787"/><use xlink:href="#H"/><path d="M267.371 405.647c.902.133 1.557.94 1.5 1.851l-5.745 81.684c-.085 1.386-1.139 2.45-2.412 2.45h-26.655c-1.586 0-2.402-1.956-1.548-3.257.143-.209.342-.38.561-.513l9.885-5.679c.702-.398 1.035-1.225.816-2.003l-27.101-86.47c-.342-1.225.684-2.402 1.947-2.212l48.752 14.139v.01z"/></g><path d="M88.352 310.564l12.297-.797c23.664-1.529 44.46-14.481 54.535-42.095a19.04 19.04 0 0 1 .522-1.292c.418-.931.76-1.586.76-1.586 2.744-5.033 6.077-9.258 12.268-10.531 10.683-2.203 21.376 4.397 24.054 14.975 1.329 5.261.484 10.541-1.947 14.928-.124.304-14.662 31.555-43.881 42.361-39.521 14.614-59.596.171-59.596.171l.997-16.134h-.01z" class="B R"/></g><g style="mix-blend-mode:color-dodge" class="I P"><path d="M183.625 264.861c-2.231 2.791-3.618 5.992-4.159 9.6-1.329 8.822-2.649 10.863-7.825 18.071-3.741 5.203-10.512 11.547-16.513 13.807-9.515 3.58-27.196 3.608-32.371-1.206 7.311-4.435 13.617-8.556 19.029-14.576 6.201-6.885 10.218-14.9 13.598-23.446.095-.247.817-1.852 1.083-2.317 2.668-4.89 5.887-9.002 11.718-10.407 7.207-1.738 14.443.588 19.315 5.488a19.23 19.23 0 0 0-3.865 4.976l-.01.01z"/></g><g style="mix-blend-mode:multiply" class="H Y"><path d="M160.73 319.395c-4.159 2.811-8.755 5.28-13.788 7.141-39.522 14.614-59.596.171-59.596.171l.95-15.307c1.909 6.381 39.997 26.455 72.434 7.995z"/></g><use xlink:href="#I" class="E"/><g style="mix-blend-mode:overlay" class="N F"><path d="M157.827 247.787c6.172-4.928 16.171-7.919 18.146-7.198-1.5 2.821-4.757 8.917-6.295 11.376-2.925 4.672-6.334 9.135-10.883 12.013-4.349 2.753-9.496 3.883-14.528 3.665-.789-.038-1.168-.285-1.919-.389.342-.864 4.767-10.921 15.488-19.467h-.009z"/></g><g style="mix-blend-mode:multiply" class="K E"><path d="M147.496 279.028c7.521 4.52 22.23-36.644 28.022-39.54 2.185-1.092 11.073.541 13.807 1.092 10.892 2.924 20.217 11.224 23.427 23.208 1.434 5.355 2.079 10.948 1.643 16.484-.285 3.609-1.966 16.723-5.859 18.308-15.004 6.106-30.15 2.232-38.269-1.016-5.612-1.956-15.972-8.308-23.663-18.602.303.028.645-.085.902.076l-.01-.01z"/></g><use xlink:href="#I" class="B C D"/><use xlink:href="#J" class="E"/><use xlink:href="#J" class="B C D G"/><g style="mix-blend-mode:multiply" class="K E"><path d="M265.187 425.142l-26.018-1.273c-.561-6.97-2.127-13.854-3.305-20.739-1.045-6.058-2.127-12.287-5.204-17.7-3.209-5.631-8.309-9.278-14.329-11.443-6.305-2.269-13.038-3.105-19.619-4.168-3.513-.57-7.112-1.235-10.379-2.688-1.433-.636-2.801-1.386-4.159-2.174-1.177-4.121-1.908-7.132-1.908-8.271 0-6.115 94.075-20.35 103.552 13.247-2.583 21.318-5.868 42.437-7.511 51.695a4.43 4.43 0 0 1-4.463 3.656l-6.647-.142"/></g><path d="M290.361 354.511c0 3.134-.379 15.26-2.098 15.535-41.269 5.679-106.487 1.738-108.633-6.884-2.488-10.028-2.583-12.354 0-11.424s110.731.152 110.731 2.773h0z" class="B C D E"/><g style="mix-blend-mode:overlay" class="H F"><path d="M179.382 351.739c.18.076 0 .085 1.168.18.893 4.976 1.956 10.151 3.656 15.003-2.811-1.12-4.52-2.383-4.824-3.769-2.165-10.028-2.25-12.355 0-11.424v.01z"/></g><path d="M233.243 234.35c15.336.399 33.027 5.242 42.637 13.37 30.092 37.718 18.545 111.52 18.545 111.52s-72.178 10.085-119.363-4.624c-15.725-41.459-42.342-122.906 58.172-120.266h.009z" class="E"/><path d="M234.981 226.678c20.701.56 35.581 9.866 46.283 23.274-9.62-8.128-21.765-13.342-37.101-13.759-97.427-2.65-78.815 78.872-63.09 120.331-2.469-.845-4.682-1.804-6.562-2.886-15.867-38.601-42.456-129.752 60.479-126.951l-.009-.009z" class="F H"/><path opacity=".1" d="M292.763 284.679S170 359.164 160.144 301.98c12.648 47.755 3.323 22.202 12.8 49.122 1.662-14.576 60.793-39.474 95.32 4.986 4.311 4.833 3.428 4.748 5.431 4.681 1.244-.038 20.511-1.187 20.587-1.889 5.242-47.138-1.528-74.201-1.528-74.201h.009z" class="J"/><path d="M232.397 346.658c-.284-3.485-.408-6.979-.854-10.445-.409-3.2-.959-6.837-2.934-9.411-2.071-2.706-5.707-2.801-8.737-2.886-4.149-.133-8.242-.456-12.373-.95-16.589-1.994-32.855-6.343-47.033-15.659-6.115-40.623 2.934-82.604 71.191-80.62 15.383.447 33.311 5.005 44.583 18.071 16.903 19.41 18.878 42.674 20.008 65.028 1.386 27.281-1.966 49.578-1.966 49.578s-22.724 3.694-60.451 3.276l-1.443-15.963.009-.019z" class="E"/><path d="M294.292 359.345s-91.549 9.933-119.781-5.717c-15.867-38.6-42.456-129.751 60.48-126.95 45.722 1.244 58.941 42.959 61.485 80.041 1.852 26.92-2.184 52.635-2.184 52.635v-.009z" class="B C D"/><g class="E"><path d="M189.041 240.238l3.162 44.63c.437 6.211.627 12.706 2.469 18.726.608 1.985 1.462 3.932 2.839 5.489 1.937 2.174 4.89 3.001 7.72 3.124h.2c27.728 3.267 55.683 2.687 83.098-1.728l14.766-2.906c5.318-1.291 9.401-4.463 8.765-9.363-1.405-10.901-8.803-38.866-20.568-53.547"/><path d="M190.018 250c-.456 2.848-3.238 24.015-4.178 29.94l-2.422 15.26c-.522 3.276-.503 6.894-2.82 9.211-1.88 1.88-4.549 2.412-6.866 1.443l-15.991-7.103c-2.26-.949-3.874-3.542-4.14-6.609-.845-9.951 4.207-35.619 17.814-50.898 0 0 19.419-22.002 61.325-20.482 41.905 1.529 57.725 21.498 62.302 29.902 5.261 9.648-98.206 16.694-100.172 13.969s-4.748-2.346-4.852-7.369-.01-7.264-.01-7.264h.01z"/></g><g style="mix-blend-mode:multiply" class="K E"><path d="M308.906 284.242s-87.163-3.286-117.977-30.416c-.598-.531-.987-1.272-1.054-2.07-2.773-33.045 70.431-45.134 101.901-6.438 8.185 8.841 17.13 38.924 17.13 38.924z"/></g><g style="mix-blend-mode:overlay" class="N F"><path d="M191.898 265.725c4.605 15.44 12.06 32.362 22.068 47.356l-8.546-.874h-.199c-2.83-.123-5.783-.95-7.721-3.124-1.376-1.548-2.231-3.504-2.839-5.489-1.842-6.03-2.032-12.515-2.469-18.726l-1.006-17.928-.39-5.08 1.083 3.865h.019z"/></g><path d="M190.084 250.047l.285 5.84.836 11.053c.456 6.02.579 11.908 1.007 17.928.436 6.211.626 12.706 2.468 18.726.608 1.985 1.463 3.931 2.84 5.489 1.937 2.174 4.89 3 7.72 3.124h.199c27.728 3.266 55.684 2.687 83.099-1.728l15.715-2.764c6.562-1.291 8.509-4.415 7.873-9.315-1.406-10.901-8.034-32.125-17.701-49.559" class="B C D G"/><g style="mix-blend-mode:overlay" class="N F"><path d="M163.201 252.972c-.655 3.94-1.69 7.853-2.013 11.832-.693 8.365-.18 16 1.671 24.186 1.225 5.422 3.647 10.682 7.046 15.155l-12.145-5.394c-2.26-.949-3.874-3.542-4.14-6.609-.665-7.872 2.165-25.249 9.591-39.17h-.01z"/></g><path d="M190.017 250c-.456 2.848-3.238 24.015-4.178 29.94l-2.421 15.26c-.523 3.276-.504 6.894-2.821 9.211-1.88 1.88-4.548 2.412-6.865 1.443l-15.991-7.103c-2.26-.949-3.875-3.541-4.14-6.609-.846-9.951 3.883-35.058 16.427-49.217 0 0 17.093-24.3 64.231-22.268 45.608 1.966 60.089 28.061 60.089 28.061" class="B C D G"/><path opacity=".6" d="M158.416 293.719c-.826-.447-1.215-1.425-.807-2.298.161-.352.408-.656.636-.969.019-.028.038-.066.048-.095.37-.817 1.491-1.234 2.298-.807.835.446 1.196 1.424.807 2.298-.162.361-.408.665-.636.969-.019.028-.029.057-.048.085-.38.817-1.481 1.234-2.298.807v.01zm8.955-3.239c-.864.456-1.814.428-2.156-.133-.142-.227-.19-.493-.256-.75-.01-.019-.019-.047-.038-.066-.333-.513.114-1.434.959-1.88.873-.456 1.804-.418 2.155.133.143.227.2.493.266.75l.029.057c.323.522-.105 1.434-.959 1.88v.009zm-7.188-7.463c-.436.228-.911.218-1.082-.067-.067-.114-.095-.247-.133-.38 0-.009-.01-.019-.019-.028-.171-.256.057-.722.484-.95.437-.228.912-.209 1.083.067.076.114.095.247.133.38 0 .009.009.019.019.028.161.266-.057.722-.485.95zm4.557-3.191c-.295.75-.902 1.254-1.415 1.092-.209-.066-.389-.199-.57-.323-.019 0-.038-.019-.057-.019-.484-.142-.712-.959-.427-1.69.294-.76.892-1.244 1.415-1.092.209.057.389.199.569.323.019 0 .038.009.057.019.485.152.713.949.428 1.69z" class="J"/><g style="mix-blend-mode:overlay" class="H F"><path d="M178.553 331.845c3.71-1.455 5.064-6.854 3.023-12.058s-6.703-8.245-10.414-6.79-5.064 6.854-3.023 12.058 6.703 8.245 10.414 6.79z"/></g><g class="C D B"><path d="M187.093 358.689l1.025 8.822m13.238-6.229l.551 8.669m6.068-7.881l.731 8.935m21.878-8.223l.551 9.373m16.086-9.383l.209 8.613m11.907-9.078l-.076 9.847" class="G"/><path d="M374.626 188.077c6.113-50.888-45.857-98.979-116.078-107.415s-132.103 25.979-138.216 76.867 45.857 98.979 116.078 107.415 132.103-25.979 138.216-76.867z" class="R"/></g><g class="K Y"><path d="M268.29 184.421c1.709-.902 3.827-.427 4.843 1.272.408.684.646 1.453.912 2.194.038.066.066.133.114.19.978 1.576.389 3.96-1.273 4.843-1.728.911-3.798.418-4.843-1.273-.427-.683-.655-1.453-.921-2.212-.028-.057-.066-.124-.104-.181-.95-1.585-.409-3.959 1.272-4.843v.01zm-5.289 10.863c.114-1.082.731-1.937 1.462-1.908.295.009.57.123.855.228h.085c.684.009 1.254.997 1.14 2.051-.124 1.092-.731 1.927-1.462 1.908-.295 0-.58-.123-.855-.228h-.076c-.684-.028-1.254-.997-1.14-2.051h-.009zm14.386-2.004c.057-.541.37-.978.731-.959.152 0 .285.067.427.114h.038c.342 0 .637.504.57 1.035-.057.551-.37.969-.731.959-.152 0-.294-.066-.427-.113h-.038c-.342-.01-.637-.504-.57-1.036zm.114 6.192c-.513-.741-.598-1.605-.123-1.985.19-.152.427-.228.655-.323.019-.009.038-.028.057-.038.437-.36 1.329-.057 1.823.665.522.75.589 1.595.124 1.985-.19.161-.428.237-.656.323-.019.009-.038.019-.047.038-.437.351-1.32.066-1.823-.665h-.01z"/></g><g style="mix-blend-mode:color-dodge" class="I P"><path d="M121.227 149.676c6.847-26.266 27.225-46.046 59.853-60.451 1.671.038 3.665-.959 5.261-1.462 3.19-.997 5.526-2.137 8.318-2.194-30.178 15.155-51.544 39.199-58.371 65.379-7.274 27.87 1.291 59.758 23.806 84.599-3.333-2.754-6.495-5.726-9.686-8.651-4.055-3.741-7.881-7.122-11.727-11.101-.712-.94-2.032-1.937-2.583-3-.855-1.662-2.061-3.333-3.694-5.679-10.968-18.213-16.352-37.661-11.186-57.45l.009.01z"/></g><path d="M170.216 94.295c-25.259 12.582-43.443 32.419-48.809 56.786-11.034 50.167 36.465 100.552 106.079 112.545 10.227 1.757 20.359 2.592 30.244 2.583" class="B C D G"/><g style="mix-blend-mode:color-dodge" class="I P"><path d="M135.405 141.68c1.026 1.139 1.064 2.858-.047 3.96-.447.446-.988.778-1.51 1.12-.048.038-.086.076-.124.124-1.025 1.054-2.972 1.063-3.959-.048-1.035-1.149-1.045-2.839.047-3.96.446-.455.988-.788 1.52-1.139.037-.038.085-.076.123-.114 1.035-1.035 2.963-1.073 3.96.047l-.01.01z"/></g><g style="mix-blend-mode:color-dodge" class="I P"><path d="M126.052 139.705c.854-.114 1.633.19 1.747.76.048.227.01.465 0 .693 0 .019 0 .038.01.066.123.522-.532 1.159-1.358 1.273-.864.114-1.615-.19-1.748-.76-.057-.228-.019-.465 0-.703v-.057c-.114-.531.523-1.158 1.358-1.272h-.009z"/></g><g style="mix-blend-mode:color-dodge" class="I P"><path d="M130.353 150.378c.427-.057.817.095.883.38.028.114 0 .237 0 .351v.029c.057.266-.266.579-.684.636-.437.057-.816-.095-.883-.38-.028-.114 0-.237 0-.351v-.029c-.057-.266.266-.579.684-.636z"/></g><g style="mix-blend-mode:color-dodge" class="I P"><path d="M125.625 151.651c.465-.532 1.12-.769 1.5-.475.152.114.257.285.371.437.009.009.028.019.038.038.36.266.294 1.006-.162 1.529-.475.541-1.111.759-1.5.475-.162-.114-.266-.285-.38-.447-.01-.009-.029-.019-.038-.028-.361-.266-.304-1.007.161-1.529h.01z"/></g><use xlink:href="#K" class="R"/><use xlink:href="#K" class="B C D G"/><path d="M341.988 194.24c-.522-4.653-2.858-8.651-6.229-11.386 8.128.503 14.975 6.78 15.906 15.155 1.044 9.382-6.021 16.989-15.403 18.033-4.729.532-8.85-.332-12.278-3.115.978.057 1.909.285 2.915.181a17.09 17.09 0 0 0 15.089-18.878v.01z" class="Y"/><g class="C D"><g class="B G"><path d="M344.277 198.978c-5.565-1.396-11.452-.076-15.887 3.561l-.066.057"/><use xlink:href="#K"/><path d="M277.247 361.073l-.361 10.189"/></g><path d="M197.843 342.717c10.73.627 11.509 1.358 12.752 12.032.627-10.731 1.358-11.509 12.032-12.753-10.731-.627-11.509-1.358-12.753-12.032-.627 10.731-1.358 11.509-12.031 12.753zm1.528-45.827c10.73.627 11.509 1.358 12.753 12.031.627-10.73 1.358-11.509 12.031-12.752-10.73-.627-11.509-1.358-12.753-12.032-.626 10.731-1.358 11.509-12.031 12.753zm-30.909 28.08c12.344.816 13.199 2.241 14.538 14.538.817-12.345 1.671-13.237 13.968-14.567-12.344-.817-13.237-1.671-14.566-13.968-.817 12.344-1.387 13.417-13.94 13.997h0z" class="J S"/><g class="B"><path d="M168.955 241.786c16.495 10.341 36.398 18.032 58.533 21.84 25.696 4.425 50.822 3.001 72.843-3.086" class="G"/><path d="M152.954 91.314c4.378-11.367 55.703-15.925 106.705 7.074 52.209 23.541 116.22 71.238 111.453 95.776 7.274-15.431 16.998-90.904-60.697-131.528-71.286-37.271-144.499-1.842-157.461 28.678h0z" class="E"/></g></g><g style="mix-blend-mode:multiply" class="K E"><path d="M310.425 62.637c68.683 35.913 69.054 99.051 63.185 123.884l-3.285-1.168c-1.881-5.878-6.23-12.487-12.355-19.448 1.396-13.408 1.017-34.508-9.923-55.237-18.042-34.176-62.91-55.124-97.019-63.955 19.02.684 39.284 5.413 59.397 15.925h0z"/></g><g class="B C D"><path d="M132.368 122.119c9.714-12.307 23.435-22.373 39.749-29.533-23.663-.057-40.452 4.9-44.108 12.668-2.032 4.311-.37 10.094 4.368 16.865h-.009z" fill="#000"/><path d="M128.237 104.741s.01-.028.019-.038l.152-.323.057-.114.237-.494.124-.246.313-.608c.019-.029.029-.057.048-.095.009-.029.028-.057.038-.086l.323-.598.056-.104c.029-.048.048-.095.076-.133l.295-.522c0-.01.019-.029.019-.038a.83.83 0 0 1 .076-.124l.256-.427c.019-.029.029-.057.048-.086l.389-.636.332-.522c.01-.019.019-.029.029-.047l.38-.57.085-.123.418-.617.123-.171.409-.579.123-.171.541-.741.608-.788.627-.788.617-.75.086-.104.598-.703c.009-.01.019-.029.038-.038l.465-.532c.029-.029.057-.066.086-.095l.474-.532.485-.532 1.073-1.13.436-.456.361-.361.361-.361.693-.674.694-.655.702-.655.466-.418.769-.684.465-.399.522-.456c.038-.028.076-.066.114-.104l1.102-.921.57-.465.028-.029c.066-.047.123-.105.19-.152.009-.01.028-.019.038-.028l.18-.142c.01-.01.029-.019.038-.028l.238-.2.921-.722.854-.655 1.349-.997.741-.541c2.915-2.089 6.286-3.475 9.837-3.95.883-.123 1.795-.228 2.726-.323l.94-.095.921-.086.664-.057c.057 0 .124-.009.181-.009.028 0 .066 0 .104-.01.076-.01.152-.019.238-.019h.028l.371-.028.389-.029c.18-.019.361-.028.541-.038.057 0 .114-.01.171-.01l.95-.057c.266-.019.522-.028.788-.038l.57-.029c.341-.019.683-.028 1.035-.038a38.32 38.32 0 0 1 1.044-.038l.969-.028h.199l.845-.01.969-.01h1.329c2.868 0 5.859.085 8.955.256.123 0 .247.01.361.019l3.874.266h.038l.693.057 1.975.171c3.837.361 7.806.864 11.87 1.5.038 0 .076.009.105.019 3.152.503 6.372 1.083 9.638 1.757 4.321.893 8.727 1.947 13.19 3.181h.028l.751.209c.218.067.427.124.645.18l1.339.38c.057.019.114.029.162.047l2.639.788c.086.019.162.047.238.076l1.377.427 1.453.456 1.452.475 1.453.484c.019 0 .038.01.048.019l.085.028 1.368.465 1.12.389 4.397 1.595c.076.029.161.057.237.095.01 0 .029.01.038.019l1.463.56 1.196.465.712.275.504.199c.075.029.151.057.227.095l.276.114a202.89 202.89 0 0 1 7.824 3.333c4.596 2.07 9.268 4.311 13.978 6.685l3.314 1.69a428.57 428.57 0 0 1 23.056 12.858l3.998 2.43 5.973 3.732 1.975 1.263 1.985 1.282 1.946 1.273 3.865 2.573 1.909 1.301 2.868 1.975 3.732 2.631c3.513 2.506 6.941 5.042 10.255 7.587l1.168.892c2.991 2.327 5.897 4.653 8.679 6.98l2.374 2.003c2.431 2.08 4.767 4.16 6.999 6.23l1.975 1.851 2.773 2.697c.228.219.446.447.665.665l.683.693 1.244 1.273c.01 0 .019.019.019.028l.067.067 1.813 1.908 1.187 1.282.532.579c.048.048.095.105.143.152l.512.58.152.171c-.019.066 5.774 6.362 7.065 10.73 1.187 3.684.304 10.806-.503 13.427-1.092 3.561-2.384 9.676-5.698 9.164-1.813-.276-5.555-5.812-7.454-9.002-5.963-7.464-13.959-15.384-23.322-23.341a.5.5 0 0 0-.076-.057c-4.045-3.438-8.337-6.875-12.829-10.294-8.214-6.239-17.073-12.401-26.246-18.26-14.396-9.202-29.561-17.691-44.137-24.68l-1.785-.855-1.349-.636-.057-.029-1.253-.579-2.65-1.215-1.737-.769c-.143-.057-.276-.124-.418-.181l-1.586-.684-.845-.36c-.029-.01-.057-.019-.086-.038l-2.269-.941-1.083-.436c-.227-.095-.465-.181-.693-.276l-1.244-.493-1.595-.618-1.263-.475-1.7-.626-1.149-.418-1.424-.503-2.839-.969-1.415-.465-1.434-.466-1.434-.446-.636-.199c-.38-.124-.76-.238-1.14-.352a10.41 10.41 0 0 1-.522-.161l-.693-.209-1.871-.541-1.196-.342-1.102-.304-4.558-1.187-1.348-.332-1.026-.247-.94-.219h-.048l-.009-.019c-.047-.009-.095-.019-.133-.028-.171-.038-.351-.085-.513-.123-.028 0-.057-.01-.085-.019h-.019l-1.216-.276-.987-.218-1.425-.304-1.804-.37-1.795-.351-.208-.038-.751-.142c-.171-.038-.341-.067-.503-.095h-.066l-1.244-.237-1.244-.218-2.536-.418h-.028-.029l-2.003-.304a.82.82 0 0 1-.152-.019l-.874-.123-1.158-.161-1.824-.237-1.31-.162h-.047l-2.412-.275-.238-.028-.294-.029-.874-.095a163.33 163.33 0 0 0-5.023-.427c-.209-.019-.418-.028-.627-.038l-.959-.057-.883-.047-.874-.047c-.285-.019-.579-.029-.873-.038l-.864-.038c-.076 0-.143 0-.209-.009l-1.482-.047c-.104 0-.218 0-.323-.01-.227 0-.455-.01-.674-.019-.228 0-.446-.01-.674-.019-.361 0-.722-.01-1.083-.019-.313 0-.617-.01-.921-.01h-1.206c-20.349 0-34.707 4.159-37.556 10.066l.219-.484.047-.105z" class="E"/><path d="M128.019 105.226l-.19.417.19-.417z" fill="#652a2c"/><path d="M147.571 78.789s51.42-8.879 121.86 24.224 108.586 72.947 108.586 72.947.873-9.012 17.083-15.611c-21.565-5.983-25.183-24.519-25.544-54.554 0 0-55.124 24.044-70.545-22.287 0 0-51.924 8.66-71.067-47.878 0 0-37.576 38.781-72.008 13.646 3.21 18.906-8.375 29.513-8.375 29.513h.01z" class="E"/></g><g style="mix-blend-mode:multiply" class="K E"><path d="M198.611 56.948c15.336-2.944 25.487-7.958 25.487-7.958s9.562 20.549 39.664 32.182l-36.787-45.552-28.364 21.318v.01z"/></g><g class="B C D"><path d="M152.423 24.567l.997 19.837a10.82 10.82 0 0 0 2.535 6.448l3.067 3.276c5.546 5.375 16.818 6.495 29.931 4.957 21.604-2.535 36.636-19.305 37.158-19.856.703 1.947 6.599 21.413 29.124 37.006 21.062 14.576 41.715 8.404 41.715 8.404 23.474 48.125 70.412 25.136 70.412 25.136-6.296 55.769 27.728 50.575 27.728 50.575l23.578-8.983s-18.118-10.749-26.769 3.58c-22.647-10.465-15.544-41.108-11.717-56.339a7.96 7.96 0 0 1-1.976-1.225c-.778-.665-1.405-1.453-1.861-2.336-9.97 5.783-27.642 13.313-43.899 9.011-15.64-4.14-25.326-18.944-28.991-25.62 11.613-2.839 9.287-16.865 9.458-23.977 0 0-8.053 2.83-11.566 8.223-2.821 4.33-3.096 9.961-3.096 12.012a13.75 13.75 0 0 0 .019.798c-8.252.617-29.2.722-42.579-12.126-12.317-11.822-21.214-28.887-25.155-37.347-.798.095-1.605.085-2.431-.047-.988-.162-1.918-.484-2.773-.95-22.087 29.713-50.907 28.25-65.645 24.537l.048-.323c12.154-11.12-7.331-24.661-7.331-24.661l.019-.009z" class="M"/><path d="M382.308 91.181c-1.386 1.016-3.428 2.374-5.954 3.846a8.13 8.13 0 0 0 1.862 2.336c.607.513 1.262.921 1.975 1.225l2.117-7.407zM228.276 20.864l-2.935 4.14a8.65 8.65 0 0 0 2.773.95 8.71 8.71 0 0 0 2.431.047l-2.269-5.147v.009z" class="E"/><path d="M225.351 25.004c.854.465 1.775.788 2.772.95a8.7 8.7 0 0 0 2.431.047c4.653-.551 8.737-4.795 9.667-10.502 1.092-6.685-2.564-12.838-8.157-13.75s-11.015 3.77-12.097 10.445c-.893 5.498 1.424 10.645 5.384 12.8v.01z" class="M"/></g><g style="mix-blend-mode:multiply" class="K M"><path d="M226.158 21.994c.579.313 1.206.532 1.88.646.56.095 1.111.095 1.652.038 3.162-.37 5.944-3.257 6.571-7.141.741-4.539-1.738-8.727-5.545-9.344-3.799-.617-7.483 2.564-8.224 7.103-.608 3.741.969 7.236 3.666 8.698z"/></g><g class="B C D"><path d="M225.978 18.699c.417.228.883.389 1.377.475.408.067.807.076 1.206.029 2.307-.275 4.33-2.374 4.785-5.204.542-3.305-1.272-6.362-4.035-6.808-2.773-.446-5.451 1.871-5.992 5.175-.447 2.725.702 5.27 2.668 6.334h-.009z" class="E"/><path d="M376.354 95.027c.466.874 1.083 1.662 1.862 2.336.607.513 1.263.921 1.975 1.225 3.865 1.681 8.954.285 12.316-3.665 3.979-4.681 4.026-11.167.114-14.5s-10.313-2.241-14.291 2.44c-3.182 3.741-3.856 8.651-1.985 12.164h.009z" class="M"/></g><g style="mix-blend-mode:multiply" class="K M"><path d="M378.976 92.112c.19.57.465 1.111.845 1.605a5.35 5.35 0 0 0 1.073 1.054c2.327 1.719 5.963 1.538 8.803-.636 3.314-2.545 4.282-6.866 2.146-9.648-2.137-2.773-6.552-2.963-9.876-.418-2.735 2.099-3.865 5.394-2.991 8.043z"/></g><g class="B C D E"><path d="M381.814 92.624a4.11 4.11 0 0 0 .988 1.235c.323.275.674.494 1.044.655 2.051.893 4.748.152 6.533-1.947 2.109-2.478 2.137-5.925.067-7.692-2.08-1.766-5.47-1.187-7.578 1.291-1.69 1.985-2.041 4.587-1.054 6.448v.009zm-246.047.731c9.562-13.532 12.192-21.242 33.662-22.952s58.381 2.013 95.69 17.881c37.319 15.867 62.265 34.755 70.26 40.642s31.052 27.994 39.912 38.268c8.859 10.284-1.472 18.365-1.472 18.365s-49.873-55.332-120.807-80.923-117.255-11.291-117.255-11.291l.01.01z"/><path d="M128.237 104.741s.009-.028.019-.038l.152-.323.056-.114.238-.494.123-.246.314-.608c.019-.029.028-.057.047-.095.01-.029.029-.057.038-.086l.323-.598.057-.104c.028-.048.047-.095.076-.133l.294-.522c0-.01.019-.029.019-.038a.92.92 0 0 1 .076-.124l.257-.427c.019-.029.028-.057.047-.086l.389-.636.333-.522c.009-.019.019-.029.028-.047l.38-.57.086-.123.417-.617.124-.171.408-.579.124-.171.541-.741.608-.788.626-.788.618-.75.085-.104.598-.703c.01-.01.019-.029.038-.038l.466-.532.085-.095.475-.532.484-.532 1.073-1.13.437-.456.361-.361.361-.361.693-.674.693-.655.703-.655.465-.418.769-.684.466-.399.522-.456c.038-.028.076-.066.114-.104l1.101-.921.57-.465.029-.029c.066-.047.123-.105.189-.152.01-.01.029-.019.038-.028a2.86 2.86 0 0 0 .181-.142c.009-.01.028-.019.038-.028l.237-.2.921-.722.855-.655 1.348-.997.741-.541c2.915-2.089 6.286-3.475 9.838-3.95.883-.123 1.795-.228 2.725-.323l.94-.095.921-.086.665-.057c.057 0 .123-.009.18-.009.029 0 .067 0 .105-.01.076-.01.152-.019.237-.019h.029l.37-.028.389-.029c.181-.019.361-.028.542-.038.057 0 .114-.01.171-.01l.949-.057c.266-.019.523-.028.788-.038l.57-.029c.342-.019.684-.028 1.035-.038.352-.019.693-.028 1.045-.038l.968-.028h.2l.845-.01.968-.01h1.33a162.73 162.73 0 0 1 8.954.256 4.35 4.35 0 0 1 .361.019l3.875.266h.038l.693.057 1.975.171c3.836.361 7.806.864 11.87 1.5.038 0 .076.009.104.019 3.153.503 6.372 1.083 9.639 1.757a205.34 205.34 0 0 1 13.189 3.181h.029l.75.209a15.76 15.76 0 0 0 .646.18l1.339.38c.057.019.114.029.161.047l2.64.788c.085.019.161.047.237.076l1.377.427 1.453.456 1.453.475 1.453.484a.07.07 0 0 1 .047.019l.086.028 1.367.465 1.121.389 4.396 1.595c.076.029.162.057.238.095.009 0 .028.01.038.019l1.462.56 1.197.465.712.275.503.199c.076.029.152.057.228.095l.275.114a202.93 202.93 0 0 1 7.825 3.333c4.596 2.07 9.268 4.311 13.978 6.685l3.314 1.69c7.673 3.969 15.421 8.29 23.056 12.858l3.998 2.43 5.973 3.732 1.975 1.263 1.984 1.282 1.947 1.273 3.865 2.573 1.909 1.301 2.867 1.975 3.732 2.631a360.95 360.95 0 0 1 10.256 7.587l1.168.892c2.991 2.327 5.897 4.653 8.679 6.98l2.374 2.003c2.431 2.08 4.767 4.16 6.998 6.23l1.976 1.851 2.772 2.697c.228.219.447.447.665.665l.684.693 1.244 1.273c.009 0 .019.019.019.028l.066.067 1.814 1.908 1.187 1.282.532.579c.047.048.095.105.142.152l.513.58.152.171c-.019.066 5.773 6.362 7.065 10.73 1.187 3.684.304 10.806-.504 13.427-1.092 3.561-2.383 9.676-5.697 9.164-1.814-.276-5.555-5.812-7.454-9.002-5.964-7.464-13.959-15.384-23.322-23.341-.019-.019-.048-.038-.076-.057-4.045-3.438-8.338-6.875-12.829-10.294-8.214-6.239-17.074-12.401-26.247-18.26-14.396-9.202-29.56-17.691-44.137-24.68l-1.785-.855-1.348-.636-.057-.029-1.254-.579-2.649-1.215-1.738-.769c-.142-.057-.275-.124-.418-.181l-1.585-.684-.846-.36c-.028-.01-.057-.019-.085-.038l-2.27-.941-1.082-.436c-.228-.095-.465-.181-.693-.276l-1.244-.493-1.596-.618-1.262-.475-1.7-.626-1.149-.418-1.425-.503-2.839-.969-1.415-.465-1.434-.466-1.434-.446-.636-.199c-.38-.124-.759-.238-1.139-.352-.171-.047-.352-.104-.523-.161l-.693-.209-1.87-.541-1.197-.342-1.101-.304-4.558-1.187-1.349-.332-1.025-.247-.941-.219h-.047l-.01-.019c-.047-.009-.094-.019-.132-.028-.171-.038-.352-.085-.513-.123-.029 0-.057-.01-.086-.019h-.019l-1.215-.276-.988-.218-1.424-.304-1.804-.37-1.795-.351-.209-.038-.75-.142c-.171-.038-.342-.067-.503-.095h-.067l-1.244-.237-1.244-.218-2.535-.418h-.029-.028l-2.004-.304c-.047 0-.104-.009-.152-.019l-.873-.123-1.159-.161-1.823-.237-1.311-.162h-.047l-2.412-.275-.237-.028-.295-.029-.873-.095a163.39 163.39 0 0 0-5.024-.427c-.209-.019-.417-.028-.626-.038l-.959-.057-.884-.047-.873-.047c-.285-.019-.579-.029-.874-.038l-.864-.038c-.076 0-.142 0-.209-.009l-1.481-.047c-.105 0-.219 0-.323-.01a15.66 15.66 0 0 1-.674-.019c-.228 0-.447-.01-.674-.019-.361 0-.722-.01-1.083-.019-.313 0-.617-.01-.921-.01h-1.206c-20.35 0-34.708 4.159-37.556 10.066.076-.162.142-.323.218-.484l.048-.105z"/></g><g style="mix-blend-mode:multiply" class="N E"><g style="mix-blend-mode:multiply"><path d="M348.115 167.081c-2.003 2.963-.807 5.584 2.26 9.278 2.745 3.304 8.072 5.973 10.835 2.915s-.028-10.028-3.38-12.715c-3.362-2.687-7.711-2.459-9.715.513v.009z"/></g></g><g style="mix-blend-mode:multiply" class="N E"><g style="mix-blend-mode:multiply"><path d="M289.801 123.609c-2.004 2.963-.912 7.55 2.45 10.237s7.853 4.207 10.749 1.045c2.564-2.802.237-9.117-3.124-11.804s-8.062-2.44-10.066.522h-.009z"/></g></g><g style="mix-blend-mode:multiply" class="N E"><g style="mix-blend-mode:multiply"><path d="M235.124 97.281c1.222-3.328-1.08-7.235-5.142-8.726s-8.344-.002-9.566 3.326 1.08 7.235 5.142 8.726 8.344.002 9.566-3.326z"/></g></g><g style="mix-blend-mode:multiply" class="N E"><g style="mix-blend-mode:multiply"><path d="M159.59 89.38c1.309-3.176-.574-6.964-4.206-8.461s-7.636-.136-8.945 3.04.573 6.964 4.205 8.461 7.637.136 8.946-3.04z"/></g></g><path d="M231.121 95.756c.889-2.689-1.076-5.756-4.387-6.85s-6.717.199-7.605 2.888 1.076 5.756 4.388 6.85 6.716-.199 7.604-2.888zm-77.195-5.647c2.647-1.969 3.549-5.236 2.016-7.298s-4.923-2.138-7.57-.169-3.549 5.236-2.016 7.298 4.923 2.138 7.57.169zm203.552 84.617c2.155-1.837 2.069-5.477-.193-8.132s-5.844-3.317-7.999-1.48-2.069 5.478.193 8.132 5.844 3.317 7.999 1.48zm-56.241-45.062c1.309-2.511-.137-5.854-3.23-7.466s-6.66-.883-7.969 1.628.137 5.854 3.229 7.466 6.661.883 7.97-1.628z" class="B C D M"/><g style="mix-blend-mode:overlay" class="H F"><path d="M149.936 83.774c.722-.646 1.643-.845 2.108-.389.19.18.304.427.428.655.019.019.028.038.047.057.446.418.228 1.415-.475 2.042-.731.655-1.633.836-2.108.389-.19-.18-.304-.427-.437-.665-.019-.019-.028-.038-.047-.047-.437-.427-.238-1.405.475-2.042h.009z"/></g><g style="mix-blend-mode:overlay" class="H F"><path d="M222.162 91.285c.721-.646 1.643-.845 2.108-.389.19.18.304.427.427.655.019.019.029.038.048.057.446.418.228 1.415-.475 2.042-.731.655-1.633.836-2.108.389-.19-.18-.304-.427-.437-.665-.019-.019-.029-.038-.048-.047-.436-.427-.237-1.405.475-2.042h.01z"/></g><g style="mix-blend-mode:overlay" class="H F"><path d="M292.497 124.037c.722-.646 1.643-.845 2.108-.39.19.181.304.428.427.656.019.019.029.038.048.057.446.417.228 1.414-.475 2.041-.731.655-1.633.836-2.108.389-.19-.18-.304-.427-.437-.664-.019-.019-.028-.038-.047-.048-.437-.427-.238-1.405.474-2.041h.01z"/></g><g style="mix-blend-mode:multiply" class="N E"><g style="mix-blend-mode:multiply"><path d="M318.706 142.345c-2.003 2.963-.911 7.549 2.45 10.236s7.854 4.207 10.75 1.045c2.564-2.801.237-9.116-3.124-11.803s-8.062-2.441-10.066.522h-.01z"/></g></g><path d="M330.143 148.409c1.309-2.512-.137-5.854-3.23-7.466s-6.661-.883-7.97 1.628.137 5.854 3.23 7.466 6.661.883 7.97-1.628z" class="B C D M"/><g style="mix-blend-mode:overlay" class="H F"><path d="M321.394 142.772c.721-.646 1.642-.845 2.108-.389.19.18.304.427.427.655.019.019.029.038.048.057.446.418.227 1.415-.475 2.041-.731.656-1.634.836-2.108.39-.19-.181-.304-.427-.437-.665-.019-.019-.029-.038-.048-.047-.436-.428-.237-1.406.475-2.042h.01z"/></g><g style="mix-blend-mode:multiply" class="N E"><g style="mix-blend-mode:multiply"><path d="M252.862 103.886c-2.004 2.963-.912 7.55 2.45 10.237s7.853 4.207 10.749 1.044c2.564-2.801.237-9.116-3.124-11.803s-8.062-2.44-10.066.522h-.009z"/></g></g><path d="M264.308 109.95c1.309-2.511-.137-5.854-3.23-7.466s-6.661-.883-7.97 1.629.137 5.853 3.23 7.465 6.661.883 7.97-1.628z" class="B C D M"/><g style="mix-blend-mode:overlay" class="H F"><path d="M255.559 104.314c.721-.646 1.642-.846 2.108-.39.19.181.304.427.427.655.019.019.029.038.048.057.446.418.227 1.415-.475 2.042-.731.655-1.634.836-2.108.389-.19-.18-.304-.427-.437-.664-.019-.019-.029-.038-.048-.048-.436-.427-.237-1.405.475-2.041h.01z"/></g><g style="mix-blend-mode:multiply" class="N E"><g style="mix-blend-mode:multiply"><path d="M180.066 81.581c-2.003 2.963-.911 7.549 2.45 10.237s7.853 4.207 10.75 1.044c2.563-2.801.237-9.116-3.125-11.803s-8.062-2.44-10.065.522h-.01z"/></g></g><path d="M191.505 87.645c1.309-2.511-.137-5.854-3.229-7.466s-6.661-.883-7.97 1.628.137 5.854 3.229 7.466 6.661.883 7.97-1.628z" class="B C D E"/><g style="mix-blend-mode:overlay" class="H F"><path d="M182.764 82.008c.721-.646 1.642-.845 2.108-.389.19.18.303.427.427.655.019.019.028.038.047.057.447.418.228 1.415-.474 2.042-.732.655-1.634.836-2.108.389-.19-.181-.304-.427-.437-.665-.019-.019-.029-.038-.048-.047-.437-.427-.237-1.405.475-2.042h.01z"/></g><g style="mix-blend-mode:overlay" class="H F"><path d="M350.831 167.005c.722-.645 1.643-.845 2.108-.389.19.18.304.427.428.655.019.019.028.038.047.057.446.418.228 1.415-.475 2.042-.731.655-1.633.836-2.108.389-.19-.18-.304-.427-.436-.664-.019-.019-.029-.038-.048-.048-.437-.427-.237-1.405.475-2.042h.009z"/></g><g style="mix-blend-mode:overlay" class="H F"><path d="M386.648 88.636c.712-.665 1.624-.883 2.099-.446.19.18.313.418.446.646.019.019.029.038.048.047.455.408.265 1.405-.428 2.051-.712.665-1.614.874-2.098.446-.2-.18-.314-.418-.447-.655l-.047-.047c-.446-.418-.276-1.405.427-2.051v.01z"/></g><g style="mix-blend-mode:overlay" class="H F"><path d="M225.607 11.169c.494-.836 1.301-1.31 1.89-1.026.237.114.417.313.607.494.019.01.038.029.067.038.551.256.655 1.272.18 2.089-.494.845-1.301 1.301-1.89 1.026-.237-.114-.427-.313-.617-.494-.019-.01-.038-.019-.057-.038-.541-.266-.655-1.263-.18-2.089h0z"/></g><g style="mix-blend-mode:multiply" class="K E"><path d="M337.497 115.073s17.596-.808 23.797-2.222c0 0-9.62 16.143-7.644 32.267.199 1.604 4.425 2.886 4.766 4.596 0 0 1.017 5.887-5.042 5.26l-13.598-11.404s4.454 7.312.731 13.028-18.032 1.282-23.739-2.735c0 0 20.691 15.308 28.611 23.075s14.528 14.263 16.95 18.612 5.707 10.55 8.973 5.489 3.998-17.482 3.998-17.482 4.834-3.561 3.59-10.901c0 0 5.393-8.727 16.209-12.317 0 0-10.673 1.368-16.209-4.358-5.536-5.736-12.82-14.225-12.222-29.713l.703-16.494s-13.085 4.7-18.669 5.09c-5.574.389-11.205.209-11.205.209h0z"/></g><g style="mix-blend-mode:overlay" class="H F"><path d="M160.675 32.763s-3.608-1.102-5.441 0c-1.842 1.102-1.833 11.167-1.833 11.167l-.968-19.372 8.252 8.195-.01.009z"/></g><g style="mix-blend-mode:overlay" class="H F"><path d="M231.627 28.271s33.597 52.322-3.675 4.406c-5.507 6.239-16.485 17.283-27.88 20.806-16.19 5.014-30.719-2.279-30.719-2.279s19.666 3.438 36.502-7.739 19.495-18.46 19.495-18.46l5.195 1.007 1.073 2.26h.009z"/></g><g style="mix-blend-mode:overlay" class="H F"><path d="M312.771 66.093s-2.697-4.691-7.853-2.459-6.638 11.841-6.638 11.841-.817-15.744 14.643-21.033l-.152 11.651z"/></g><g style="mix-blend-mode:overlay" class="H F"><path d="M255.615 52.703c1.32-.427 2.868-.095 4.169.209l5.84 1.538 4.121 1.32c.56.19 1.083.427 1.605.674 2.089.693 4.159 1.529 5.375 3.238.883 1.244 1.319 3.2.598 4.596-.513 1.007-1.434 1.472-2.45 1.652-2.849.94-7.34-1.206-9.439-2.165-2.355-1.073-4.577-2.346-6.733-3.76-1.035-.674-1.975-1.434-2.962-2.165-.703-.522-1.434-.959-1.757-1.823-.522-1.415.218-2.868 1.624-3.324l.009.01z"/></g><g style="mix-blend-mode:overlay" class="H F"><path d="M191.251 63.88c.713-2.298 5.252-2.602 7.882-3.001l2.678-.399 3.19-.931c2.289-.75 5.043-2.716 7.692-2.478 3.267.294 3.352 2.963 2.175 4.615-1.415 1.975-4.15 3.21-6.799 4.302-3.201 1.32-6.923 1.491-10.512 1.386-2.688-.076-7.056-1.063-6.306-3.494h0z"/></g><g class="B C D"><path d="M202.552 160.216s-10.977 13.133-15.526-3.438" class="G"/><use xlink:href="#L" class="J"/><path d="M280.125 158.127l-8.717-1.187m8.765-6.704l-8.642 1.633m-132.809-44.754l6.049 6.154m-10.825-.058l7.691 3.922" class="G"/><path d="M235.978 175.011c12.681 0 22.961-10.28 22.961-22.961s-10.28-22.961-22.961-22.961-22.961 10.28-22.961 22.961 10.28 22.961 22.961 22.961z" fill="#000"/></g><path d="M254.75 146.656c4.19 0 7.587-3.235 7.587-7.226s-3.397-7.226-7.587-7.226-7.587 3.235-7.587 7.226 3.397 7.226 7.587 7.226zm-1.605 5.575c1.174 0 2.127-.719 2.127-1.605s-.953-1.605-2.127-1.605-2.127.718-2.127 1.605.952 1.605 2.127 1.605z" class="J"/><g class="B C D"><use xlink:href="#L"/><use xlink:href="#M" class="J"/><use xlink:href="#L"/><path d="M237.697 123.97c-16.095 2.089-27.443 16.827-25.363 32.913" class="G"/><use xlink:href="#M"/><path d="M157.201 153.873c11.553 0 20.919-9.366 20.919-20.92s-9.366-20.919-20.919-20.919-20.92 9.366-20.92 20.919 9.366 20.92 20.92 20.92z" fill="#000"/></g><path d="M174.379 125.936c3.697 0 6.694-2.853 6.694-6.372s-2.997-6.372-6.694-6.372-6.695 2.853-6.695 6.372 2.997 6.372 6.695 6.372zm-1.416 4.919c1.033 0 1.871-.634 1.871-1.415s-.838-1.415-1.871-1.415-1.87.633-1.87 1.415.837 1.415 1.87 1.415z" class="J"/><g class="B C D V"><use xlink:href="#N"/><use xlink:href="#N"/></g><path d="M190.33 109.309c7.274.313 14.557-3.96 16.01-11.405l19.581 5.546s-22.268 20.767-42.257 5.479c-.76-.579-1.462-1.187-2.108-1.804 2.659 1.434 5.764 2.06 8.774 2.184h0z" fill="#db5c32"/><g style="mix-blend-mode:color-dodge" opacity=".6" class="Z"><path d="M182.704 107.181c.066.086.104 1.197.142 1.301l-1.254-1.12-1.452-1.244c-.846-1.273-1.624-2.611-2.355-3.969-3.827-9.05-1.339-14.671-1.035-15.232 2.554-6.913 4.994-8.043 7.796-10.104 6.903-3.608 11.1-4.036 13.484-3.238-1.311.142-2.355.579-2.982.798-18.431 6.41-17.339 26.304-12.354 32.818l.01-.01z"/></g><g class="B C D"><path d="M204.279 97.382c-13.664 2.972-14.187-15.763-7.15-24.082-17.985-.902-30.605 22.515-13.465 35.629 19.988 15.288 42.256-5.479 42.256-5.479l-21.641-6.068z"/><path d="M199.142 98.598c6.959 0 12.601-5.642 12.601-12.601s-5.642-12.601-12.601-12.601-12.601 5.642-12.601 12.601 5.642 12.601 12.601 12.601z" class="V"/><path d="M202.38 79.501c-7.027 0-14.68 7.967-12.762 14.757-2.08-2.27-3.096-5.28-3.077-8.157.048-7.027 5.024-12.952 12.051-12.952 6.181 0 11.774 4.606 12.923 10.446-2.326-2.526-5.422-4.093-9.135-4.093h0z" fill="#f79474"/><use xlink:href="#O" class="V"/></g><g style="mix-blend-mode:color-dodge" opacity=".6" class="Z"><path d="M250.659 90.478c.645-.608 3.038-3.238 8.84-2.174.38.066 2.27 1.263 2.925 1.757 4.188 3.162 6.22 5.375 10.227 8.736-.199-.047 1.358 1.291 1.158 1.244a183.46 183.46 0 0 0-27.386-4.065c.057-.199.751-2.26 4.236-5.508v.01z"/></g><use xlink:href="#P" class="B C D V"/><g style="mix-blend-mode:color-dodge" opacity=".6" class="Z"><path d="M159.023 68.885c-3.086 2.212-6.011 4.624-8.993 6.98-.569.446-1.092.912-1.585 1.386-.732-.475-1.301-1.206-1.567-2.089 0-.019-.01-.038-.019-.057-.504-1.69.237-3.494 1.775-4.349 4.407-2.45 9.582-5.061 18.204-6.628-2.706 1.405-5.318 2.991-7.806 4.767l-.009-.01z"/></g><g class="B C D"><use xlink:href="#O"/><use xlink:href="#P"/><path d="M335.684 211.588a6.52 6.52 0 0 1 4.672-.417l80.734 22.923c5.46 1.548 5.299 8.062 5.308 12.354l.475 138.412c.038 11.575-5.261 22.951-14.121 30.32-22.04 18.327-56.662 42.152-65.797 51.905a3.02 3.02 0 0 1-4.016.342c-9.781-7.474-56.491-22.734-78.389-36.104-8.907-5.431-14.282-15.649-14.32-27.225l-.474-144.147c-.01-4.292 2.782-7.597 6.647-9.534l79.29-38.847-.009.018z" class="O"/><path d="M259.175 258.137l-7.217-3.361" class="G"/><path d="M346.309 213.696l81.75 22.154c3.884.409 6.685 3.789 6.704 8.081l.475 144.148c.038 11.575-5.26 22.951-14.12 30.32-22.04 18.327-62.967 40.709-72.112 50.471a3.02 3.02 0 0 1-4.017.341c-9.78-7.473-50.176-21.289-72.083-34.66-8.907-5.431-14.282-15.649-14.32-27.224l-.474-144.148c-.01-4.292 2.544-7.302 6.647-9.534l81.55-39.949h0z" class="T"/></g><path d="M317.566 245.593l-2.393-8.204c-.19-.655.655-1.092 1.083-.561l5.612 7.084-4.663 2.792m87.276 164.317l3.153 7.169c.247.57-.598 1.168-1.083.76l-6.428-5.403 4.653-3.656m-92.633-161.649l-1.044-4.206c-.086-.333.55-.637.807-.38l3.399 3.352-3.513 1.861m-39.114 120.75l-4.216-.978c-.332-.076-.313-.779.029-.893l4.529-1.51.067 3.979" fill="#000"/><path d="M346.633 230.599l68.437 20.359c3.788 1.149 5.593 3.21 5.602 6.856l.2 122.431c.019 9.828-4.435 19.504-11.87 25.772-18.859 15.915-54.459 35.267-60.973 43.405-.58.731-1.643.845-2.327.228-7.141-6.505-42.029-18.08-60.84-29.703-7.454-4.606-11.936-13.275-11.955-23.104l-.2-122.43c0-3.646 2.45-6.353 5.574-8.109l68.342-35.695.01-.01z" class="B C D T"/><g class="I O"><g style="mix-blend-mode:multiply" class="I"><use xlink:href="#Q"/></g><g style="mix-blend-mode:multiply" class="I"><path d="M400.788 259.486c.341.598.332 1.415-.019 2.004a1.62 1.62 0 0 1-.94.731c-.456.142-.912 0-1.32-.209a.83.83 0 0 1-.228-.181 3.05 3.05 0 0 1-.618-.19c-.579-.246-.94-.778-.759-1.424.418-1.5 3.029-2.222 3.874-.731h.01z"/></g><g style="mix-blend-mode:multiply" class="I"><path d="M407.548 258.925c.133.247.181.599.086.865-.067.18-.171.351-.304.493-.057.171-.152.333-.285.447a1.25 1.25 0 0 1-.807.303c-.409.01-.817-.056-1.168-.265-.589-.342-.798-1.178-.418-1.748.237-.351.598-.579 1.006-.674.418-.095.808-.057 1.216.029.275.057.551.313.674.55h0z"/></g></g><g class="I O"><g style="mix-blend-mode:multiply" class="I"><path d="M295.031 410.053c.671-2.202-1.107-4.695-3.972-5.567s-5.731.205-6.402 2.408 1.108 4.695 3.973 5.567 5.73-.205 6.401-2.408z"/></g><g style="mix-blend-mode:multiply" class="I"><use xlink:href="#Q" x="-115.906" y="137.931"/></g><g style="mix-blend-mode:multiply" class="I"><path d="M284.901 397.414a2.06 2.06 0 0 1-.019 2.003 1.61 1.61 0 0 1-.94.731c-.456.143-.912 0-1.32-.208a.83.83 0 0 1-.228-.181 3.04 3.04 0 0 1-.617-.19c-.58-.247-.94-.778-.76-1.424.418-1.501 3.029-2.222 3.874-.731h.01z"/></g><g style="mix-blend-mode:multiply" class="I"><path d="M400.57 396.977c.341.598.332 1.415-.019 2.003a1.61 1.61 0 0 1-.941.731c-.455.143-.911 0-1.319-.208a.83.83 0 0 1-.228-.181 3.05 3.05 0 0 1-.618-.19c-.579-.247-.94-.778-.759-1.424.418-1.501 3.029-2.222 3.874-.731h.01z"/></g><g style="mix-blend-mode:multiply" class="I"><path d="M409.515 267.092c-.066.275-.076.57-.028.845-.162.655-.579 1.083-1.149 1.263-.456.142-.912 0-1.32-.209a.82.82 0 0 1-.228-.18c-.218-.048-.427-.105-.617-.19-.579-.247-.94-.779-.76-1.425.465-1.68 3.685-2.374 4.093-.104h.009z"/></g><g style="mix-blend-mode:multiply" class="I"><path d="M291.671 396.853c.133.247.18.598.085.864a1.46 1.46 0 0 1-.303.494c-.057.171-.152.332-.285.446-.238.2-.494.295-.807.304-.409.01-.817-.057-1.168-.266a1.27 1.27 0 0 1-.418-1.747c.237-.351.598-.579 1.006-.674.418-.095.807-.057 1.216.028.275.057.551.314.674.551h0z"/></g><g style="mix-blend-mode:multiply" class="I"><path d="M404.491 391.621c.133.247.181.598.086.864a1.5 1.5 0 0 1-.304.494c-.057.171-.152.332-.285.446-.237.199-.494.294-.807.304-.408.009-.817-.057-1.168-.266a1.27 1.27 0 0 1-.418-1.747c.237-.352.598-.58 1.007-.675.417-.094.807-.056 1.215.029.275.057.551.313.674.551h0z"/></g></g><path d="M346.29 277.196l21.461-21.281c.864-.864 2.231.285 1.528 1.282l-16.997 24.348" class="J"/><path d="M346.29 277.196l21.461-21.281c.864-.864 2.231.285 1.528 1.282l-16.997 24.348" class="B C D G"/><use xlink:href="#R" class="J"/><g class="B C D"><use xlink:href="#R" class="G"/><path d="M370.799 396.606c3.979 2.403 7.597 5.517 7.597 5.517-1.51 2.84-9.515 3.029-10.028 2.84-.446-.162-2.431-3.666-3.314-5.052a27.92 27.92 0 0 0 5.754-3.314l-.009.009z" class="U"/></g><use xlink:href="#S" class="J"/><g class="B C D"><use xlink:href="#S" class="G"/><path d="M395.156 290.594c3.172.589 11.889 3.343 12.715 3.637.95.333-3.646 5.679-9.04 6.771-2.848-.893-4.653-2.032-5.422-2.593 1.064-2.431 1.633-5.051 1.747-7.805v-.01zm-52.521-15.801s-3.409-5.992-11.737-2.582c1.329 1.386 1.576 2.715 1.576 2.715s-3.912-1.386-6.685 1.263-6.182 3.409-6.182 3.409 1.956 1.7 3.912 1.833c-3.029 1.51-4.292 3.286-5.298 7.511s-2.27 5.176-2.27 5.176 2.46.379 4.169-.76c-2.27 6.305-.76 10.787-.76 10.787l2.08-1.89s-1.007 8.138 1.51 11.547c0 0 1.509-1.699 1.956-2.649 0 6.752 4.539 10.664 9.524 10.541s-4.415-23.284-1.643-30.786c2.773-7.511 9.848-16.086 9.848-16.086v-.029z" class="U"/></g><use xlink:href="#T" class="U"/><use xlink:href="#T" class="B C D G"/><use xlink:href="#U" class="J"/><g class="B C D"><use xlink:href="#U" class="G"/><path d="M324.639 409.749c2.44 4.396 4.112 7.691 3.789 7.948-1.045.807-8.803.617-9.752.237-.921-.37-1.567-7.568-1.605-7.977l7.568-.208h0z" class="U"/></g><use xlink:href="#V" class="J"/><use xlink:href="#V" class="B C D G"/><use xlink:href="#W" class="J"/><use xlink:href="#W" class="B C D G"/><use xlink:href="#X" class="J"/><g class="B C D"><use xlink:href="#X" class="G"/><path d="M384.074 353.543c.389 2.222.788 4.976 1.671 7.084-2.592 2.905-5.697 5.593-6.523 5.593-1.453 0-.694-6.306.379-8.964.874-2.165 3.542-2.849 4.463-3.723l.01.01z" class="U"/><path d="M354.21 288.078l-2.364-.76" class="G"/></g><g style="mix-blend-mode:multiply" class="N O"><path d="M342.198 446.707c1.538.902 2.773 1.737 3.608 2.497.693.627 1.748.503 2.327-.228 6.514-8.138 42.114-27.49 60.973-43.405 7.435-6.277 11.889-15.944 11.87-25.772l-.2-122.431c0-3.637-1.813-5.707-5.602-6.856l-3.504-1.044c2.051 1.234 3.038 3.067 3.048 5.754l.199 122.431c.019 9.828-4.444 19.495-11.87 25.771-18.754 15.83-54.069 35.05-60.849 43.273v.01z"/></g><g class="B C D"><path d="M349.696 224.107c.763-1.715.163-3.649-1.342-4.318s-3.343.177-4.106 1.893-.163 3.648 1.341 4.318 3.343-.178 4.107-1.893zm-79.541 40.587c.763-1.715.163-3.648-1.342-4.318s-3.343.178-4.106 1.893-.163 3.648 1.341 4.318 3.343-.177 4.107-1.893zm158.11-17.819c.763-1.715.163-3.649-1.341-4.318s-3.343.177-4.107 1.893-.163 3.648 1.341 4.318 3.343-.178 4.107-1.893zM349.87 460.484c.764-1.715.163-3.648-1.341-4.318s-3.343.178-4.107 1.893-.163 3.649 1.341 4.318 3.343-.177 4.107-1.893zm80.966-134.733c.764-1.716.163-3.649-1.341-4.319s-3.343.178-4.107 1.893-.163 3.649 1.341 4.318 3.343-.177 4.107-1.892zm-162.652 18.285c.763-1.715.163-3.648-1.341-4.318s-3.343.177-4.107 1.893-.163 3.648 1.341 4.318 3.343-.178 4.107-1.893zm4.868 75.631c.764-1.716.163-3.649-1.341-4.319s-3.343.178-4.107 1.893-.163 3.649 1.342 4.318 3.343-.177 4.106-1.892zm152.399-15.043c.745-1.712.121-3.634-1.394-4.293s-3.347.195-4.092 1.907-.12 3.634 1.395 4.293 3.346-.195 4.091-1.907z" class="T"/><path d="M131.457 301.353l10.465 23.161c1.016 2.25-.133 4.899-2.479 5.678-9.03 2.991-31.175 8.129-56.13-2.298l.617-19.229s19.666 3.646 41.716-9.154c2.108-1.225 4.814-.38 5.821 1.842h-.01z" class="M"/></g><g style="mix-blend-mode:overlay" class="H F"><path d="M128.466 309.026c-3.456.579-6.343.931-10.046 1.225a144.79 144.79 0 0 1-10.921.465c-7.539.057-15.069-.427-22.552-1.339a35.95 35.95 0 0 1-1.026-.133l.019-.588s19.666 3.646 41.716-9.154c2.108-1.225 4.814-.38 5.821 1.842l2.943 6.514a114.05 114.05 0 0 1-5.935 1.158l-.019.01z"/></g><g style="mix-blend-mode:color-dodge" class="I P"><path d="M83.626 318.769l1.101.114-1.101-.114z"/></g><g style="mix-blend-mode:multiply" class="K M"><path d="M83.921 308.665s2.944.541 7.825.475l5.356 4.767c7.435 6.011 16.077 10.977 25.658 12.382 4.131.608 8.356.798 12.506.295 2.288-.276 4.662-.722 6.837-1.577.655 2.137-.484 4.463-2.668 5.185-9.031 2.991-31.175 8.129-56.13-2.298l.617-19.229h0z"/></g><g class="B C D"><path d="M75.641 302.094l6.676-2.63-71.409-189.965-.161-1.092-2.08-15.061L2 95.977l2.232 16.152 71.409 189.965z" class="M"/><g class="E"><path d="M82.316 299.463l10.74-4.235-81.665-185.92-.646-.902.161 1.092 71.409 189.965z"/><path d="M65.917 281.117l6.666-2.63 13.285-5.232 7.863 18.289-21.081 8.309-6.733-18.736z"/></g><path d="M82.316 299.464l17.406-6.866-81.665-185.92-9.391-13.332 2.08 15.061.161 1.092 71.409 189.965z" class="M"/><g class="E"><path d="M72.583 278.487l11.11-1.035 8.841-6.827 7.863 18.298-21.081 8.309-6.733-18.745zm9.136 33.388l11.529-4.543-3.548-9.003-11.529 4.544 3.548 9.002z"/><path d="M81.728 311.875l11.528-4.549a86.49 86.49 0 0 1 16 40.614l-11.528 4.549c-8.717-11.946-14.225-25.924-16.001-40.614h0z"/><path d="M90.432 308.457l11.529-4.544-3.547-9.002-11.529 4.543 3.548 9.003z"/><path d="M90.435 308.446l11.528-4.548a86.49 86.49 0 0 1 16 40.614l-11.528 4.548a86.49 86.49 0 0 1-16-40.614zM81.3 292l6.514-7.103 9.467.741 5.84-2.327 3.304 8.318L77.112 303.3l-3.304-8.319L81.3 292z"/><use xlink:href="#Y"/><path d="M109.275 292.228a6.81 6.81 0 0 0 6.808-6.809 6.81 6.81 0 0 0-6.808-6.808 6.81 6.81 0 0 0-6.809 6.808 6.81 6.81 0 0 0 6.809 6.809z"/><use xlink:href="#Y" x="3.942" y="-1.548"/></g></g><g style="mix-blend-mode:overlay" class="K F"><path d="M8.666 93.346l75.027 184.106 7.293-5.631-72.928-165.143-9.391-13.332z"/></g><g style="mix-blend-mode:multiply" class="K E"><path d="M4.231 112.129l70.298 166.178-1.947.18-4.909 1.937L4.231 112.129z"/></g><g style="mix-blend-mode:multiply" class="K E"><path d="M81.727 311.875s11.091 33.577 15.307 20.786c0 0 7.653 5.28 11.851 3.656s5.412-8.365 5.412-8.365l3.685 16.57-20.236 7.976s-14.481-18.887-16-40.614l-.019-.009z"/></g><path d="M64.578 241.824c.152-.58.541-1.092 1.158-1.33 1.358-.541 2.887.095 3.371 1.5.399 1.168.114 2.659-.893 3.438-1.282.988-3.238.693-3.884-.893-.332-.816-.228-1.927.247-2.715zm7.843 2.44c2.355-.93 3.798 2.725 1.443 3.656s-3.798-2.725-1.443-3.656zm-4.111 3.447c1.766-.693 2.849 2.042 1.082 2.744-1.766.694-2.849-2.041-1.082-2.744z" style="mix-blend-mode:overlay" class="F"/><path d="M28.153 148.887c.095-.104.209-.199.313-.284.38-.494.95-.846 1.586-.903.76-.066 1.339.342 1.804.884.199.227.399.436.522.731.19.475.199 1.006-.029 1.472-.475.968-1.529 1.358-2.535.997-.028-.01-.057-.029-.085-.038-.788.028-1.472-.494-1.681-1.235-.285-.513-.313-1.177.104-1.624h0zm1.538-2.383c-.807-.617-1.13-1.596-1.31-2.545-.408-2.137 1.301-4.568 3.551-3.153a.79.79 0 0 1 .142.114c1.149.048 2.099 1.073 2.298 2.279.237 1.444-.484 3.02-1.88 3.58-.893.361-2.023.333-2.801-.275h0z" style="mix-blend-mode:overlay" class="F"/><g style="mix-blend-mode:multiply" class="K E"><path d="M74.53 278.307s6.628 8.774 13.285 6.59l-6.115 7.027-7.16 2.754-4.197-1.225-4.425-12.335 7.597-2.992 1.016.19v-.009z"/></g><g style="mix-blend-mode:multiply" class="K E"><path d="M95.259 296.71l-6.144 7.473.323 4.083-8.186 4.084-3.361-10.199 17.368-5.441z"/></g><g style="mix-blend-mode:overlay" class="H F"><path d="M99.503 317.496c-.104-2.098 1.035-3.513 2.564-3.143 1.519.371 3.048 2.241 4.112 4.055a17.34 17.34 0 0 1 1.054 2.089c.256.38.494.788.693 1.225.931 2.061 1.139 4.729.351 6.182-1.718 3.153-5.203-2.213-6.789-4.957-.95-1.643-1.899-3.58-1.994-5.451h.009z"/></g><use xlink:href="#Z" class="B C D M"/><g style="mix-blend-mode:multiply" class="K M"><path d="M90.378 340.001l-1.12-6.941c-.579-2.953-2.554-15.345-4.121-18.033-.807-1.386-1.852-2.782-4.615-2.706-2.63.152 1.187-.826 1.139-.997l1.605-.171c3.067-.323 5.954 1.481 7.027 4.368l5.906 15.982c1.453 3.921-1.244 8.138-5.413 8.479l-.408.029v-.01z"/></g><use xlink:href="#Z" class="B C D"/><defs><linearGradient id="A" x1="369.527" y1="317.442" x2="423.346" y2="754.126" gradientUnits="userSpaceOnUse"><stop offset=".01" stop-color="#7560e0"/><stop offset="1" stop-color="#321a70"/></linearGradient><linearGradient id="B" x1="418.817" y1="511.524" x2="433.968" y2="601.914" gradientUnits="userSpaceOnUse"><stop offset=".01" stop-color="#7560e0"/><stop offset="1" stop-color="#321a70"/></linearGradient><linearGradient id="C" x1="191.499" y1="345.392" x2="246.519" y2="867.011" gradientUnits="userSpaceOnUse"><stop offset=".12" stop-color="#cfccd4"/><stop offset="1" stop-color="#2c2733"/></linearGradient><path id="D" d="M247.001 405.647c.902.133 1.558.94 1.501 1.851l-5.745 81.684c-.086 1.386-1.14 2.45-2.412 2.45H213.69c-1.586 0-2.403-1.956-1.548-3.257a1.81 1.81 0 0 1 .56-.513l9.885-5.679c.703-.398 1.035-1.225.817-2.003l-30.928-98.691c-.342-1.225.684-2.402 1.947-2.212l52.578 26.36v.01z"/><path id="E" d="M243.051 454.617c-5.555.114-23.056-.636-31.65-12.763 2.839 10.047 8.698 26.608 9.942 31.005a1.77 1.77 0 0 0 1.434 1.262l18.868 2.716a1.76 1.76 0 0 0 2.004-1.624l1.187-18.725c.067-1.026-.76-1.89-1.785-1.862v-.009z"/><path id="F" d="M213.214 496.038h28.193c.792 0 1.434-.642 1.434-1.434v-1.548c0-.792-.642-1.434-1.434-1.434h-28.193c-.792 0-1.434.642-1.434 1.434v1.548c0 .792.642 1.434 1.434 1.434z"/><path id="G" d="M267.371 405.647c.902.133 1.557.94 1.5 1.851l-5.745 81.684c-.085 1.386-1.139 2.45-2.412 2.45h-26.655c-1.585 0-2.402-1.956-1.547-3.257a1.8 1.8 0 0 1 .56-.513l9.885-5.679c.703-.398 1.035-1.225.817-2.003l-27.102-86.47c-.341-1.225.684-2.402 1.947-2.212l48.752 14.139v.01z"/><path id="H" d="M263.421 454.617c-5.555.114-23.056-.636-31.65-12.763 2.839 10.047 8.698 26.608 9.942 31.005a1.77 1.77 0 0 0 1.434 1.262l18.868 2.716a1.76 1.76 0 0 0 2.004-1.624l1.187-18.725c.066-1.026-.76-1.89-1.785-1.862v-.009z"/><path id="I" d="M182.326 239.326c14.339.133 26.75 9.99 30.691 24.718 1.433 5.356 2.079 10.949 1.642 16.485-.284 3.608-1.965 16.722-5.859 18.308-15.003 6.106-28.383 3.096-36.492-.152-7.35-2.564-22.6-9.923-29.732-28.26-1.709-4.387 8.271-15.516 11.091-18.308 5.489-5.451 12.383-9.667 19.885-11.661 2.972-.788 5.916-1.149 8.783-1.12l-.009-.01z"/><path id="J" d="M265.653 425.16l-31.612-1.604c-6.866-.418-13.029-4.948-15.526-11.405l-8.166-23.588 3.675 24.908c.493 4.767-3.277 8.651-8.11 8.356l-3.684-.228c-.808-.047-1.52-.588-1.786-1.357-3-8.594-20.178-57.982-20.169-63.566 0-6.115 94.076-20.35 103.553 13.247-2.707 22.315-5.717 40.614-7.578 51.657-.37 2.175-2.269 3.742-4.473 3.694l-6.571-.142"/><path id="K" d="M321.534 209.376c3.4 4.33 8.898 6.856 14.767 6.21 9.021-1.007 15.516-9.135 14.509-18.156s-9.135-15.516-18.156-14.51c-4.064.456-7.616 2.355-10.198 5.128"/><path id="L" d="M241.467 182.493c16.226 0 29.38-13.154 29.38-29.38s-13.154-29.38-29.38-29.38-29.38 13.154-29.38 29.38 13.154 29.38 29.38 29.38z"/><path id="M" d="M162.537 157.101c14.239 0 25.781-11.542 25.781-25.781s-11.542-25.781-25.781-25.781-25.781 11.542-25.781 25.781 11.543 25.781 25.781 25.781z"/><path id="N" d="M204.004 97.239c-13.665 2.973-13.912-15.621-6.875-23.939-17.985-.902-30.605 22.515-13.465 35.629 19.988 15.288 42.256-5.479 42.256-5.479l-21.916-6.211h0z"/><path id="O" d="M282.526 113.458c-2.241-4.225-8.043-13.626-19.571-23.369-3.609-3.048-8.926-2.877-12.316.408-1.007.978-1.937 1.928-2.783 2.82-2.26 2.403-1.49 6.305 1.52 7.634 6.561 2.906 17.396 8.499 27.13 17.245a3.85 3.85 0 0 0 5.536-.399c.019-.019.038-.038.047-.066 1.007-1.206 1.168-2.897.427-4.283l.01.009z"/><path id="P" d="M146.868 75.152s-.009-.038-.019-.057a3.75 3.75 0 0 1 1.776-4.349c4.605-2.564 10.037-5.299 19.353-6.827 5.013-.826 9.761 2.63 10.436 7.663a46.2 46.2 0 0 1 .227 2.042c.247 2.763-2.231 4.976-4.937 4.397-4.463-.95-11.927-1.719-22.696-.199-1.851.256-3.599-.874-4.14-2.659v-.01z"/><path id="Q" d="M401.372 255.827c.22-.722-.362-1.539-1.3-1.825s-1.877.068-2.097.791.362 1.539 1.3 1.825 1.877-.068 2.097-.791z"/><path id="R" d="M329.635 368.555s8.897 3.153 10.027 8.015c1.14 4.862-1.196 5.678-3.532 6.058s-2.649 1.767 4.919 4.862 23.094 11.262 23.664 11.955 3.124 5.328 3.646 5.518 8.518 0 10.028-2.84c0 0-6.106-5.251-11.168-7.378-.949-2.364-1.414-2.982-5.868-4.871l-15.003-6.439s12.496-3.314 11.594-15.611c-.902-12.306-18.27-16.893-22.049-17.035"/><path id="S" d="M359.328 316.28s7.948-6.438 11.357-11.831 6.438-5.679 10.835-7.569 11.262-6.2 12.639-6.39 12.772 3.409 13.721 3.741-3.646 5.679-9.04 6.771c-3.931-1.235-5.868-2.935-5.868-2.935s-11.879 5.489-13.342 6.771-9.515 22.049-14.196 25.411"/><path id="T" d="M310.681 351.824s-2.887 5.679-7.607 6.258c-4.843.598-8.992-6.533-1.329-14.102s14.386-16.181 14.073-26.341-6.562-14.7-7.568-22.458 2.079-9.971 2.079-9.971-8.964 1.51-10.474 11.291c-3.722-1.139-7.634-8.071-7.634-8.071s-4.919 10.407 4.605 20.321c-3.286 1.386-6.182 8.204-2.023 13.626 0 0 4.169-10.407 11.804-5.051 7.634 5.365-2.327 19.162-7.511 23.91-9.62 8.831-9.658 19.809-.257 23.977 9.572 4.235 19.875-9.144 19.875-9.144"/><path id="U" d="M341.182 276.626s-13.437 1.263-15.393 17.349 9.781 30.852 9.781 30.852-6.249 11.889-14.197 17.567-14.956 9.088-12.211 24.129c2.364 10.313-.285 13.057-3.314 13.152s-4.349 1.415-.38 9.373c3.979 7.948 8.423 19.447 9.087 20.207s2.507.665 2.507.665.665 7.615 1.605 7.995c.95.38 8.708.57 9.752-.237s-18.032-32.229-18.032-32.229 13.056-3.153 19.808-12.497c6.752-9.334 3.343-18.108 19.619-25.933s20.947-13.817 18.868-22.999-6.153-13.342-13.152-15.801c-8.328-2.934-13.152-6.533-12.496-16.086"/><path id="V" d="M339.102 284.954s-4.796 5.422.446 10.597c5.232 5.176 13.123 3.153 13.123 3.153l9.639 4.321c1.889.759 4.301-.903 5.536-2.507s3.504-4.444-.048-6.581c-3.551-2.127-9.135-6.153-9.135-6.153s1.415-2.46-2.459-5.252c-4.397-3.171-8.47-5.726-11.262-7.14"/><path id="W" d="M347.971 280.51s1.558-3.742-1.652-7.379c-3.219-3.646-2.602-6.533-2.602-6.533s-7.948 3.314-4.729 14.481"/><path id="X" d="M354.181 332.528s2.213 6.495 9.781 5.679 17.662-1.577 17.919-1.33 2.393 14.823 2.212 16.533c-.19 1.699-3.409 1.196-4.482 3.846s-1.832 8.964-.38 8.964 9.971-8.328 10.351-11.547-.446-16.276-.446-21.328-7.512-4.729-11.804-5.232-9.467-.95-9.467-.95"/><path id="Y" d="M67.379 308.741a6.81 6.81 0 0 0 6.809-6.808 6.81 6.81 0 0 0-6.809-6.809 6.81 6.81 0 0 0-6.808 6.809 6.81 6.81 0 0 0 6.808 6.808z"/><path id="Z" d="M83.266 311.153l-2.725.285c-4.074.427-6.837 4.349-5.849 8.328l3.551 14.339c.969 3.893 4.605 6.504 8.594 6.191l3.941-.314c4.169-.332 6.856-4.558 5.413-8.479l-5.906-15.982c-1.073-2.887-3.96-4.691-7.027-4.368h.009z"/></defs></svg>