<svg xmlns="http://www.w3.org/2000/svg" width="389" height="237" fill="none" xmlns:v="https://vecta.io/nano"><style><![CDATA[.B{fill-rule:evenodd}.C{fill:#a7a7a8}.D{opacity:.2}.E{fill:#474757}]]></style><g class="B"><path d="M381.07 28.419s7.757 38.571 6.876 47.789-18.402 29.576-18.402 29.576-18.499 40.05-24.47 59.643-49.869 71.474-49.869 71.474h-93.377c-32.692 0-82.88-17.252-82.88-17.252s-47.324-87.099-51.386-91.191-26.917-12.323-26.917-12.323S3.157 48.26.221 30.317l103.997 4.338 276.852-6.235z" fill="url(#A)"/><path d="M381.07 28.419l-49.16-6.211-28.557-4.929-163.042 2.465S99.74.323 90.906.027 62.154 22.208 62.154 22.208L.221 30.317s28.287 9.858 50.09 9.513l-20.726 7.024c3.93 3.004 8.376 5.252 13.116 6.63 8.246 2.465 70.204 4.362 99.617 4.017s42.26-10.647 42.26-10.647l-13.483-5.151 15.905-1.898s48.132 8.503 66.485 9.094a230.71 230.71 0 0 0 41.941-3.919l-30.563-9.858s16.322.197 44.046 2.711c24.935 2.317 54.837-5.619 72.162-9.415z" fill="#ceccd4"/></g><g style="mix-blend-mode:multiply" opacity=".35" class="B C"><path d="M308.835 37.859v26.914l27.137 4.658s1.199.518 4.184 8.257 16.811 26.79 16.811 26.79l12.577 1.405-10.081 22.699s-14.511.148-20.286 3.747-18.572 14.393-18.572 14.393l-7.684 21.196-8.173-45.374c-.514-6.186-7.977-32.804-6.802-37.29s-.465-22.034-.465-22.034l-2.056-18.238s-39.323 5.348-43.409 6.802-5.897 18.041-5.897 18.041l-13.434 31.251 15 45.423-5.775 38.522-1.884 28.959L218.737 237h-16.909l-14.829-79.928c-1.003-4.658 3.646-15.453 3.646-15.453l-6.729-47.32.661-47.444-13.483-5.151 15.905-1.898 58.214 8.306c8.271.789 50.433-3.943 50.433-3.943l-25.327-9.316 38.516 3.007z"/></g><g style="mix-blend-mode:multiply" opacity=".35" class="B C"><path d="M93.206 57.576L59.511 63.22l5.359 12.989 14.682 35.491 17.618 16.882 19.747 7.394 15.368 10.795H118.9l1.027 14.369 7.145 34.209.392 27.11-8.516-2.76-51.386-91.191s-24.47-7.64-26.917-12.323S3.377 46.411.221 30.317l50.09 9.513-20.726 7.024s14.682 6.556 24.47 8.109 39.152 2.613 39.152 2.613z"/></g><g style="mix-blend-mode:color-dodge" opacity=".46" class="B"><path d="M138.451 19.424l12.235 6.605s-8.98 2.218-14.217 3.796-33.891-.937-39.005-2.465-23.834-7.936-23.834-7.936l-1.003-6.433S86.648-.688 90.906.027s40.106 15.404 47.545 19.397z" fill="#aba7b5"/></g><g style="mix-blend-mode:multiply" opacity=".33" class="B E"><path d="M60.635 22.455l11.941 7.394 18.719.493h39.861s-30.611-2.884-35.261-3.968-22.268-6.95-22.268-6.95l-1.003-6.433-11.99 9.464z"/></g><g style="mix-blend-mode:multiply" opacity=".34" class="B E"><path d="M308.835 64.772l-11.354 26.815-1.835-47.395-31.713-9.316 44.902 2.982v26.914z"/></g><g style="mix-blend-mode:multiply" opacity=".34" class="B E"><path d="M50.311 39.83l-20.726 7.024 8.907 65.559S10.547 58.783.221 30.317l50.09 9.513z"/></g><g style="mix-blend-mode:multiply" opacity=".34" class="B E"><path d="M245.213 48.137l-26.476 25.879-16.395 17.573-3.328 15.034-14.682-9.415.245-50.327-13.483-5.151 15.905-1.898 58.214 8.306z"/></g><g style="mix-blend-mode:multiply" class="D C"><path d="M106.714 122.001c.322-.777.69-1.534 1.101-2.267.171-.345.294-.715.489-1.035a5.32 5.32 0 0 1 .881-1.183c.677-.742 1.514-1.315 2.447-1.676 1.027-.336 2.121-.404 3.181-.197.31.089.6.24.852.443s.461.455.616.74h0a2.46 2.46 0 0 1 .368.492c0 .222.171.419.244.617.123.451.123.928 0 1.38a13.83 13.83 0 0 1-1.615 4.929 6.92 6.92 0 0 1-2.055 2.317 4.46 4.46 0 0 1-2.888.887c-.661-.052-1.303-.245-1.884-.567-.563-.357-1.04-.837-1.395-1.405a4.03 4.03 0 0 1-.565-1.698 4.04 4.04 0 0 1 .223-1.777h0z"/></g><g style="mix-blend-mode:multiply" class="D C"><path d="M124.258 113.646c-1.578-2.382-2.621-5.082-3.058-7.912a10.29 10.29 0 0 1 .514-5.643 22.38 22.38 0 0 1 2.446-4.116c1.762-2.61 4.188-4.695 7.023-6.038.71-.321 1.447-.576 2.203-.764a10.77 10.77 0 0 1 5.456-1.035c2.18.285 4.211 1.271 5.789 2.812a10.3 10.3 0 0 1 2.972 5.74c.451 2.91-.084 5.888-1.518 8.454a73.01 73.01 0 0 1-3.939 6.999c-1.909 2.786-4.282 5.743-7.806 6.162a10.62 10.62 0 0 1-5.687-.91 10.71 10.71 0 0 1-4.395-3.748h0z"/></g><g style="mix-blend-mode:multiply" class="D C"><path d="M119.094 150.788c-.438-1.079-.79-2.192-1.052-3.328-.171-.517-.392-.985-.514-1.503a10.1 10.1 0 0 1-.22-2.144 13.44 13.44 0 0 1 1.052-4.929c.738-1.751 1.783-3.354 3.083-4.733.728-.716 1.678-1.16 2.692-1.256h.196a2.16 2.16 0 0 1 .856-.148h.857c.556.172 1.033.539 1.345 1.035 1.476 1.721 2.517 3.776 3.035 5.989a11.45 11.45 0 0 1 0 4.757 11.05 11.05 0 0 1-2.3 4.929 9.81 9.81 0 0 1-2.447 2.267c-.86.524-1.818.86-2.814.986-.748.106-1.511-.022-2.184-.365a3.71 3.71 0 0 1-1.585-1.557z"/></g><g style="mix-blend-mode:multiply" class="D C"><path d="M314.046 145.07c1.15 1.577 8.148-1.257 9.323-2.859 7.341-10.13 8.246-23.463 3.646-20.9s-21.191 12.274-12.969 23.759z"/></g><g style="mix-blend-mode:multiply" class="D C"><path d="M301.2 123.751a2.98 2.98 0 0 1 1.253-.268c.432.004.858.101 1.249.286a2.99 2.99 0 0 1 1.015.787 3.01 3.01 0 0 1 .594 1.142 9.33 9.33 0 0 1 .163 5.757c-.555 1.888-1.691 3.549-3.246 4.742-4.6 3.673-11.721-.714-11.672-4.929.049-2.686 6.607-5.841 10.644-7.517z"/></g><g style="mix-blend-mode:multiply" class="D C"><path d="M183.744 171.022c-.416 5.422-1.493 26.322-1.052 29.748s22.267 7.813 23.075 3.352-15.587-35.639-18.744-37.561-3.279 2.859-3.279 4.461z"/></g><defs><linearGradient id="A" x1="188.663" y1="280.722" x2="196.135" y2="-27.796" gradientUnits="userSpaceOnUse"><stop offset=".12" stop-color="#cfccd4"/><stop offset="1" stop-color="#2c2733"/></linearGradient></defs></svg>