<svg width="35" height="28" viewBox="0 0 35 28" fill="none" xmlns="http://www.w3.org/2000/svg">
<path d="M34.6513 21.0662C34.503 21.7204 34.2433 22.302 33.724 22.7381C33.3161 23.1016 32.8339 23.3197 32.2033 23.3924C32.2033 23.247 32.2033 23.1016 32.2033 22.9562C32.2033 18.5219 32.2033 14.0877 32.2033 9.65341C32.2033 7.65435 30.9793 6.09146 29.0135 5.6553C28.6797 5.58261 28.3088 5.54626 27.9379 5.54626C24.1547 5.54626 20.3714 5.54626 16.5882 5.54626C16.3657 5.54626 16.1802 5.47357 16.0318 5.29184C15.4755 4.60125 14.8449 3.94702 14.2886 3.25644C13.8435 2.71124 13.2871 2.49316 12.5824 2.49316C9.76352 2.49316 6.94464 2.49316 4.12575 2.49316C3.97739 2.49316 3.86612 2.49316 3.68066 2.49316C3.75485 1.76623 4.12575 1.18469 4.64502 0.748535C5.23847 0.348724 5.86901 0.166992 6.57373 0.166992C9.8377 0.166992 13.1017 0.166992 16.3656 0.166992C16.6253 0.166992 16.8107 0.276031 16.9962 0.457764C17.7009 1.29373 18.4056 2.09335 19.1104 2.96567C19.2587 3.1474 19.4442 3.22009 19.7038 3.22009C23.6725 3.22009 27.6041 3.22009 31.5728 3.22009C32.3888 3.22009 33.1306 3.40182 33.7611 3.98337C34.2804 4.41952 34.503 5.03741 34.6513 5.6553C34.6513 10.7801 34.6513 15.9413 34.6513 21.0662Z" fill="white"/>
<path d="M15.4754 26.9907C11.3213 26.9907 7.16714 26.9907 3.05008 26.9907C2.08573 26.9907 1.23264 26.6999 0.639192 25.9367C0.231196 25.4278 0.0457427 24.8463 0.0457427 24.2284C0.0457427 18.3403 0.0457427 12.4158 0.0457427 6.52768C0.00865206 4.89209 1.23264 3.729 2.90172 3.729C6.16569 3.729 9.46676 3.729 12.7307 3.729C12.9162 3.729 13.1758 3.87439 13.3242 4.01978C14.066 4.85574 14.7707 5.69171 15.4754 6.52768C15.6238 6.70941 15.7722 6.7821 16.0318 6.7821C20.0376 6.7821 24.0434 6.7821 28.0491 6.7821C29.236 6.7821 30.1633 7.25461 30.7197 8.345C30.9051 8.74481 31.0164 9.21731 31.0164 9.65347C31.0535 14.4875 31.0164 19.358 31.0164 24.192C31.0164 25.7913 29.7924 27.0634 28.0121 27.0271C24.0434 26.9907 20.0747 27.0271 16.106 27.0271C15.8834 26.9907 15.698 26.9907 15.4754 26.9907Z" fill="white"/>
</svg>
