<svg xmlns="http://www.w3.org/2000/svg" xmlns:xlink="http://www.w3.org/1999/xlink" width="455" height="374" fill="none" xmlns:v="https://vecta.io/nano"><g stroke="#000" stroke-width="2.79" stroke-linejoin="round"><path d="M50.12 327.51l-31.25-4.22c-8.39-1.13-18.78 8.33-17.34 26.2 1 12.45 5.28 22.79 14.61 23 19.2.43 34.71-13.41 34.56-15.84s-.58-29.14-.58-29.14h0z" fill="#ad8e6f"/><g fill="#ffe9c7"><path d="M18 347.77s302 4.81 376.9 12.07c3.63.56 9.6-.39 9.86-10.06 0-.15 0-.3.01-.45.23-9.42-6.5-30.47-14.73-29.95-149.89 9.4-373.4 3.48-373.41 3.93 9.17.42 9.13 19.12 1.36 24.47l.01-.01z"/><path d="M424.06 250.92l10.39-4.6-1.86-126.53-6.18-1.2 5.9-3.34-.16-18.54-7.78-3.36 7.29-5.24-1.28-56.45-352.81-.74C76.83 15.59 49.55 1.44 40.76 1.41 31.8 1.38 23.6 16.22 23.74 42.46c0 .56.17 5.09.26 25.69 0 1.13 7.59 2.1 7.59 3.3 0 1.41-7.57 3.05-7.57 4.56.07 29.5 4.1 126.04 4.1 126.04s3.64 5.38 9.37 5.4l-9.51 7.65s1.41 37.77.54 88.65c-.02 1.2 11.87 3.8 11.88 3.8 0 0-11.29 3.66-11.18 4.65 2.59 22.26 1.59 58.78-9.43 60.28 60.66-8.78 298.33-5.4 388.73-5.4 28.61 0 26.58-49.05 26.59-59.26.04-26.18-.82-50.31-.82-50.31l-10.21-6.6-.02.01z"/></g><path d="M66.14 21.01L38.17 23.8s-2.78 26.48 10.91 26.77S66.71 42 66.6 40.38c-.11-1.61-.46-19.37-.46-19.37z" fill="#ad8e6f"/><path d="M49.08 50.57s312.09-9.79 392.55.11c3.89.78 10.47-8.6 10.98-22.1 0-.21.02-.42.02-.63.46-13.15-6.61-23.59-15.48-22.84C275.6 18.71 40.98.78 40.96 1.41c9.86.55 18.62 10.47 18.49 26.5-.07 8.59-3.05 19.3-10.36 22.66h-.01z" fill="#ffe9c7"/></g><g style="mix-blend-mode:color-dodge" opacity=".49"><path d="M437.15 5.1C292.13 17.32 62.5 4.12 44.13 1.75l-1.65-.17c3.16.49 6.15 1.94 8.73 4.26 3.39 2.02 6.2 4.77 5.75 8.34 18.02 2.58 162.51-.91 207.5 1.74 53.52 3.15 159.59 1.46 185.67-1.5-2.76-6.01-7.53-9.77-12.97-9.31l-.01-.01z" fill="#fff5e3"/></g><g style="mix-blend-mode:multiply" opacity=".3"><path d="M399.17 297.55c.48 2.39 2.57 3.05 4.97 1.25.97-.73 1.88-1.68 2.79-2.58l.15-.13c2.3-1.6 4.18-5.5 3.71-7.86-.48-2.42-2.57-3.02-4.97-1.25-.98.72-1.89 1.68-2.81 2.59l-.25.2c-2.25 1.68-4.06 5.44-3.6 7.78h.01z" fill="#c4a062"/></g><g style="mix-blend-mode:multiply" opacity=".3"><path d="M397.23 277.97c-1.05 1.72-1.05 3.64.13 4.4.48.3 1.05.43 1.61.6l.14.08c1.1.73 3.13-.11 4.15-1.77 1.06-1.73 1.04-3.62-.13-4.4-.48-.31-1.06-.44-1.62-.6l-.13-.07c-1.11-.7-3.13.09-4.15 1.77v-.01z" fill="#c4a062"/></g><g fill="#000"><path d="M134.24 284.47c0 .35-.27.7-.73 1.05-1.38 1.05-3.08 1.65-5.1 1.65-4.7 0-9.42-3.94-9.42-9.64a9.59 9.59 0 0 1 9.47-9.64c2 0 3.64.59 5.02 1.62.54.38.76.67.76 1.08 0 .51-.41.86-.87.86-.38 0-.65-.22-1.03-.51-.86-.73-2.35-1.27-3.91-1.27-3.8 0-7.5 3.27-7.5 7.85s3.73 7.85 7.48 7.85c1.59 0 3.08-.54 3.94-1.27.38-.3.68-.51 1.03-.51.46 0 .87.35.87.86l-.01.02z"/><use xlink:href="#B"/><use xlink:href="#C"/><use xlink:href="#C" x="5.21"/><use xlink:href="#D"/><path d="M192.93 279.96c0 4.86-3.67 7.21-6.7 7.21-2.27 0-4.24-1.3-5.02-3.24v2.27c0 .49-.43.94-.92.94-.51 0-.95-.46-.95-.94v-17.55a.95.95 0 0 1 .92-.94c.51 0 .92.43.92.94v4.94c.03.05.03.13.03.22v1.97c.92-1.97 2.94-3 5.02-3 3.02 0 6.7 2.38 6.7 7.18zm-1.84 0c0-3.78-2.75-5.56-5.05-5.56s-4.94 1.67-4.94 5.56 2.65 5.59 4.94 5.59 5.05-1.78 5.05-5.59zm3.77 5.89c0-.62.51-1.13 1.16-1.13s1.13.51 1.13 1.13-.51 1.16-1.13 1.16a1.17 1.17 0 0 1-1.16-1.16z"/><use xlink:href="#C" x="47.61"/><use xlink:href="#D" x="42.4"/><path d="M234.05 278.72v7.45c0 .49-.4.94-.92.94s-.92-.46-.92-.94v-7.45c0-3.13-1.92-4.27-3.91-4.27-2.86 0-4.43 2.35-4.72 4.13v7.58c0 .49-.41.94-.92.94s-.92-.46-.92-.94V273.8c0-.51.4-.94.92-.94s.92.43.92.94v2.43c.16-.89 1.86-3.43 5.15-3.43 2.51 0 5.32 1.46 5.32 5.91v.01zm16.24-10.07v17.55a.97.97 0 0 1-.95.94c-.49 0-.92-.46-.92-.94v-2.27c-.78 1.94-2.75 3.24-5.02 3.24-3.02 0-6.7-2.35-6.7-7.21s3.67-7.18 6.7-7.18c2.08 0 4.1 1.03 5.02 3v-1.97c0-.08 0-.16.03-.22v-4.94c0-.51.4-.94.92-.94a.95.95 0 0 1 .92.94zm-1.76 11.31c0-3.89-2.64-5.56-4.94-5.56s-5.05 1.78-5.05 5.56 2.75 5.59 5.05 5.59 4.94-1.78 4.94-5.59zM135.46 312.9a1.39 1.39 0 0 1-.08.46l-7.42 17.03c-.19.43-.46.7-.92.7-.49 0-.73-.27-.92-.7l-7.42-17.03c-.05-.13-.11-.3-.11-.46a.92.92 0 0 1 .92-.89c.4 0 .76.27.89.59l6.64 15.33 6.61-15.33c.16-.32.48-.59.89-.59.54 0 .92.43.92.89h0zm1.47 12.39v-7.45c0-.49.41-.94.92-.94s.92.46.92.94v7.45c0 3.13 1.92 4.26 3.91 4.26 2.86 0 4.43-2.35 4.72-4.13v-7.58c0-.49.4-.94.92-.94s.92.46.92.94v12.36c0 .51-.41.94-.92.94s-.92-.43-.92-.94v-2.43c-.16.89-1.86 3.43-5.16 3.43-2.51 0-5.32-1.46-5.32-5.91h.01zm16.65 5.83c-.51 0-.92-.46-.92-.94v-17.55a.93.93 0 0 1 .92-.92.93.93 0 0 1 .92.92v17.55c0 .49-.4.94-.92.94zm16-3.13c0 .32-.22.54-.41.78-1.19 1.57-3 2.35-4.99 2.35-3.16 0-6.96-2.38-6.96-7.15s3.81-7.18 6.96-7.18c2 0 3.8.78 4.99 2.35.19.24.41.46.41.78 0 .46-.38.76-.81.76-.32 0-.62-.19-.84-.49-.84-1.19-2.32-1.78-3.67-1.78-2.46 0-5.21 1.81-5.21 5.56s2.75 5.53 5.21 5.53c1.35 0 2.83-.59 3.67-1.78.21-.3.51-.49.84-.49.43 0 .81.3.81.76z"/><use xlink:href="#D" x="8.97" y="44"/><path d="M200.62 322.72v7.45c0 .49-.4.94-.92.94s-.92-.46-.92-.94v-7.45c0-3.13-1.92-4.27-3.91-4.27-2.86 0-4.43 2.35-4.72 4.13v7.58c0 .49-.41.94-.92.94s-.92-.46-.92-.94V317.8c0-.51.4-.94.92-.94s.92.43.92.94v2.43c.16-.89 1.86-3.43 5.15-3.43 2.51 0 5.32 1.46 5.32 5.91v.01z"/></g><g fill="#448eff"><use xlink:href="#E"/><use xlink:href="#E" y="43.84"/></g><g fill="#000"><path d="M87.54 183.23v17.25a.83.83 0 0 1-.84.86c-.38 0-.67-.16-.97-.57l-11.2-15.06v14.63c0 .51-.46 1-.94 1-.51 0-.95-.49-.95-1v-17.22a.82.82 0 0 1 .84-.86c.41 0 .67.16.97.54l11.2 15.09v-14.66c0-.51.46-.97.95-.97.51 0 .94.46.94.97zm14.929.78h-8.99v7.02h7.34c.46 0 .84.35.84.81 0 .43-.38.81-.84.81h-7.34v7.72c0 .51-.43.97-.94.97a.99.99 0 0 1-.95-.97v-17.03c0-.59.43-1 1.03-1h9.85c.43 0 .84.38.84.84a.86.86 0 0 1-.84.84v-.01zm16.281-.86a.84.84 0 0 1-.84.84H113v16.38c0 .51-.41.97-.92.97-.54 0-.94-.46-.94-.97v-16.38h-4.94a.82.82 0 0 1-.81-.84c0-.43.38-.81.81-.81h11.71c.43 0 .84.38.84.81z"/><use xlink:href="#B" x="-8.04" y="-85.75"/><path d="M163.31 187.98c0 .16-.05.27-.08.4l-4.1 12.2c-.16.43-.46.7-.86.7-.38 0-.7-.27-.86-.7l-4.21-10.61-4.21 10.61c-.16.43-.49.7-.86.7s-.7-.27-.86-.7l-4.1-12.2c-.05-.13-.11-.24-.11-.4a.89.89 0 0 1 .86-.86c.35 0 .73.22.84.51l3.48 10.77 4.1-10.69c.13-.38.46-.59.86-.59a.88.88 0 0 1 .84.59l4.13 10.69 3.46-10.77c.11-.32.49-.51.84-.51a.88.88 0 0 1 .86.86h-.02zm14.5 4.99v7.45c0 .49-.41.94-.92.94s-.92-.46-.92-.94v-7.45c0-3.13-1.92-4.26-3.91-4.26-2.86 0-4.43 2.35-4.72 4.13v7.58c0 .49-.41.94-.92.94s-.92-.46-.92-.94v-12.36c0-.51.41-.94.92-.94s.92.43.92.94v2.43c.16-.89 1.86-3.43 5.16-3.43 2.51 0 5.32 1.46 5.32 5.91h-.01zm16.269.92c0 .7-.43 1.05-1.19 1.05h-10.53c.22 3.32 2.781 4.86 5.241 4.86 1.29 0 2.479-.4 3.399-1.16.35-.27.57-.4.81-.4a.69.69 0 0 1 .73.73c0 .24-.11.49-.51.86-1.13 1.03-2.78 1.54-4.48 1.54-3.4 0-7.07-2.29-7.07-7.15s3.78-7.18 6.86-7.18 6.75 2.4 6.75 6.86l-.01-.01zm-11.72-.43h9.93c-.22-3.29-2.779-4.8-4.969-4.8s-4.72 1.51-4.97 4.8h.009z"/><use xlink:href="#F"/><path d="M215.47 189.3c.16.27.24.49.24.73 0 .46-.35.76-.78.76-.35 0-.59-.19-.92-.67-.54-.81-1.51-1.51-3.08-1.51-1.81 0-2.89.92-2.89 2.24 0 1.03.7 1.81 2.4 2.24l1.73.46c2.51.62 4.1 1.65 4.1 3.75 0 2.65-2.54 4.08-5.34 4.08-2.24 0-4.18-1-4.8-2.43-.11-.22-.32-.51-.32-.92 0-.49.3-.84.76-.84.43 0 .65.24.84.65.57 1.35 1.97 1.92 3.54 1.92 1.89 0 3.54-.76 3.54-2.35 0-1.27-1-1.86-2.46-2.24l-2.16-.57c-2.51-.65-3.62-2.02-3.62-3.73 0-2.27 2.02-3.83 4.72-3.83 2.08 0 3.67.89 4.51 2.27l-.01-.01zm15.75 3.67v7.45c0 .49-.41.94-.92.94s-.92-.46-.92-.94v-7.45c0-3.13-1.92-4.26-3.91-4.26-2.86 0-4.43 2.35-4.72 4.13v7.58c0 .49-.41.94-.92.94s-.92-.46-.92-.94v-17.55a.93.93 0 0 1 .92-.92.93.93 0 0 1 .92.92v7.61c.16-.89 1.86-3.43 5.16-3.43 2.51 0 5.32 1.46 5.32 5.91l-.01.01zm3.34-10.34c0-.51.43-.94.95-.94s.94.43.94.94-.43.94-.94.94-.95-.43-.95-.94zm1.86 5.43v12.39c0 .51-.41.94-.92.94s-.92-.43-.92-.94v-12.39c0-.51.41-.94.92-.94s.92.43.92.94zm16.98 6.15c0 4.86-3.67 7.21-6.69 7.21-2.27 0-4.24-1.3-5.02-3.24v2.27c0 .08 0 .13-.03.22v4.89a.93.93 0 0 1-.92.92.93.93 0 0 1-.92-.92v-17.49a.94.94 0 0 1 .95-.94.95.95 0 0 1 .92.94v1.97c.92-1.97 2.94-3 5.02-3 3.02 0 6.69 2.38 6.69 7.18v-.01zm-1.84 0c0-3.78-2.75-5.56-5.05-5.56s-4.94 1.67-4.94 5.56 2.65 5.59 4.94 5.59 5.05-1.78 5.05-5.59zM84.44 220.38c0 .16-.05.27-.08.38l-5.29 12.23c-.22.43-.43.7-.92.7s-.73-.27-.92-.7l-5.32-12.23c-.03-.11-.08-.22-.08-.38 0-.46.38-.86.86-.86a.91.91 0 0 1 .86.59l4.59 10.82 4.56-10.82a.91.91 0 0 1 .86-.59.86.86 0 0 1 .86.86h.02zm14.64 5.91c0 .7-.43 1.05-1.19 1.05H87.36c.22 3.32 2.78 4.86 5.24 4.86 1.29 0 2.48-.4 3.4-1.16.35-.27.57-.4.81-.4a.69.69 0 0 1 .73.73c0 .24-.11.49-.51.86-1.13 1.03-2.78 1.54-4.48 1.54-3.4 0-7.07-2.29-7.07-7.15s3.78-7.18 6.86-7.18 6.75 2.4 6.75 6.86l-.01-.01zm-11.72-.43h9.93c-.22-3.29-2.78-4.8-4.97-4.8s-4.72 1.51-4.97 4.8h.01z"/><use xlink:href="#F" x="-95" y="32.4"/><use xlink:href="#G"/><path d="M125.06 215.66c0 .4-.32.73-.7.73-.24 0-.54-.11-.84-.27-.38-.24-.94-.49-1.75-.49-1.54 0-2.43.94-2.43 2.92v1.05h3.4c.46 0 .81.3.81.78s-.35.78-.81.78h-3.4v11.69c0 .49-.41.94-.92.94s-.92-.46-.92-.94v-11.69h-1a.73.73 0 1 1 0-1.56h1v-1.11c0-3.51 2.29-4.48 4.16-4.48 1.24 0 2.27.4 3 .94.22.16.4.41.4.7v.01z"/><use xlink:href="#G" x="15.241"/><path d="M143.87 230.64c0 .32-.22.54-.41.78-1.19 1.57-3 2.35-4.99 2.35-3.16 0-6.96-2.38-6.96-7.15s3.81-7.18 6.96-7.18c2 0 3.81.78 4.99 2.35.19.24.41.46.41.78 0 .46-.38.76-.81.76-.32 0-.62-.19-.84-.49-.84-1.19-2.32-1.78-3.67-1.78-2.46 0-5.21 1.81-5.21 5.56s2.75 5.53 5.21 5.53c1.35 0 2.83-.59 3.67-1.78.22-.3.51-.49.84-.49.43 0 .81.3.81.76h0zm13.449-8.21v-1.97a.95.95 0 0 1 .92-.94.94.94 0 0 1 .95.94v12.39a.97.97 0 0 1-.95.94c-.49 0-.92-.46-.92-.94v-2.27c-.78 1.94-2.75 3.24-5.02 3.24-3.02 0-6.69-2.35-6.69-7.21s3.67-7.18 6.69-7.18c2.08 0 4.1 1.03 5.02 3zm.11 4.18c0-3.89-2.65-5.56-4.94-5.56s-5.05 1.78-5.05 5.56 2.75 5.59 5.05 5.59 4.94-1.78 4.94-5.59zm10.8 6c0 .89-1.35 1.16-2.38 1.16-1.3 0-2.54-.49-2.54-2.67v-9.93h-1.32a.78.78 0 1 1 0-1.56h1.32v-2.46a.91.91 0 0 1 .92-.92c.52 0 .92.4.92.92v2.46h2.27c.46 0 .81.3.81.78s-.35.78-.81.78h-2.27V231c0 .86.38 1.19 1.08 1.19.43 0 .78-.11 1.08-.19.51-.16.92.16.92.62v-.01z"/><use xlink:href="#G" x="58.65"/><use xlink:href="#B" x="39.049" y="-53.35"/><path d="M203.939 225.37v7.45c0 .49-.41.94-.92.94s-.92-.46-.92-.94v-7.45c0-3.13-1.92-4.27-3.91-4.27-2.86 0-4.43 2.35-4.72 4.13v7.58c0 .49-.41.94-.92.94s-.92-.46-.92-.94v-12.36c0-.51.41-.94.92-.94s.92.43.92.94v2.43c.16-.89 1.86-3.43 5.16-3.43 2.51 0 5.32 1.46 5.32 5.91l-.01.01z"/></g><g fill="#ff4d71"><path d="M104.91 86.83c0 .45-.29.98-.45 1.52l-5.16 14.43c-.53 1.64-1.76 2.5-3.11 2.5-1.48 0-2.58-.86-3.28-2.5l-4.34-9.75-4.35 9.75c-.7 1.64-1.93 2.5-3.28 2.5-1.43 0-2.58-.86-3.11-2.5l-5.12-14.43c-.21-.53-.45-1.07-.45-1.52 0-1.72 1.35-3.07 3.07-3.07 1.15 0 2.38.66 2.75 1.72l3.32 10.53 4.26-10.29c.53-1.27 1.52-1.97 2.91-1.97s2.42.7 2.95 1.97l4.22 10.29 3.36-10.53c.33-.98 1.56-1.72 2.74-1.72 1.72 0 3.07 1.35 3.07 3.07h0zm23.83.16v15.21c0 1.8-1.6 3.24-3.36 3.24-1.52 0-2.87-1.07-3.2-2.54-.62 1.07-2.42 2.58-5.41 2.58-4.51 0-9.84-3.44-9.84-10.94s5.41-10.9 9.84-10.9c2.79 0 4.79 1.56 5.33 2.99V87c0-1.76 1.52-3.24 3.28-3.24s3.36 1.48 3.36 3.24v-.01zm-6.35 7.54c0-4.02-2.58-5.33-4.39-5.33-2.34 0-4.51 1.84-4.51 5.33s2.17 5.37 4.51 5.37c1.8 0 4.39-1.27 4.39-5.37z"/><use xlink:href="#H"/><use xlink:href="#H" x="11.53"/><use xlink:href="#I"/><path d="M193.65 102.03c0 2.13-1.8 3.36-5.12 3.36s-6.39-.98-6.39-7.75v-8.73h-.82c-1.6 0-2.62-1.07-2.62-2.5s1.03-2.54 2.62-2.54h.82v-2.38c0-1.8 1.52-3.28 3.28-3.28s3.28 1.47 3.28 3.28v2.38h2.38c1.6 0 2.58 1.07 2.58 2.54s-.98 2.5-2.58 2.5h-2.38v9.06c0 1.11.33 1.8 1.11 1.8.41 0 1.11-.16 1.56-.12 1.44 0 2.29.86 2.29 2.38h-.01zm-99.19 31.81v15.21c0 1.8-1.6 3.24-3.36 3.24-1.52 0-2.87-1.07-3.2-2.54-.62 1.07-2.42 2.58-5.41 2.58-4.51 0-9.84-3.44-9.84-10.94s5.41-10.9 9.84-10.9c2.79 0 4.79 1.56 5.33 2.99v.37c0-1.76 1.52-3.24 3.28-3.24s3.36 1.48 3.36 3.24v-.01zm-6.35 7.54c0-4.02-2.58-5.33-4.39-5.33-2.34 0-4.51 1.84-4.51 5.33s2.17 5.37 4.51 5.37c1.8 0 4.39-1.27 4.39-5.37zm11.26.74v-8.32c0-1.8 1.47-3.24 3.28-3.24s3.24 1.43 3.24 3.24v8.32c0 3.2 1.48 4.63 3.65 4.63 3.36 0 4.1-3.4 4.1-3.85v-9.1c0-1.8 1.52-3.24 3.28-3.24s3.28 1.43 3.28 3.24v15.08c0 1.84-1.52 3.32-3.28 3.32s-3.28-1.48-3.28-3.32v-1.27c-.12 1.52-2.46 4.67-6.64 4.67s-7.62-2.95-7.62-10.16h-.01z"/><use xlink:href="#J"/><path d="M162.53 140.69v8.32c0 1.8-1.48 3.24-3.28 3.24a3.22 3.22 0 0 1-3.24-3.24v-8.32c0-3.2-1.47-4.63-3.65-4.63-3.36 0-4.1 3.4-4.1 3.85v9.1c0 1.8-1.52 3.24-3.28 3.24s-3.28-1.43-3.28-3.24v-22.95c0-1.8 1.52-3.28 3.28-3.28s3.28 1.48 3.28 3.28v9.14c.12-1.52 2.46-4.67 6.64-4.67s7.62 2.95 7.62 10.17l.01-.01z"/><use xlink:href="#I" x="10.59" y="46.85"/><use xlink:href="#K"/><use xlink:href="#J" x="91.62"/><use xlink:href="#L"/><path d="M262.67 147.49c0 1.68-1.27 2.5-1.93 3.07-1.68 1.11-3.36 1.68-5.86 1.68-5.04 0-11.11-3.52-11.11-10.86s6.06-10.9 11.11-10.9c2.5 0 4.18.57 5.86 1.68.66.57 1.93 1.39 1.93 3.07 0 1.52-1.31 2.46-2.58 2.46s-2.13-.7-2.46-.9c-.82-.53-1.84-.66-2.54-.66-2.99 0-4.84 2.05-4.84 5.25s1.84 5.21 4.84 5.21c.7 0 1.72-.12 2.54-.66.33-.21 1.23-.9 2.46-.9s2.58.94 2.58 2.46zm24.59-13.65v15.21c0 1.8-1.6 3.24-3.36 3.24-1.52 0-2.87-1.07-3.2-2.54-.61 1.07-2.42 2.58-5.41 2.58-4.51 0-9.84-3.44-9.84-10.94s5.41-10.9 9.84-10.9c2.79 0 4.8 1.56 5.33 2.99v.37c0-1.76 1.52-3.24 3.28-3.24s3.36 1.48 3.36 3.24v-.01zm-6.35 7.54c0-4.02-2.58-5.33-4.38-5.33-2.34 0-4.51 1.84-4.51 5.33s2.17 5.37 4.51 5.37c1.8 0 4.38-1.27 4.38-5.37z"/><use xlink:href="#J" x="167.07"/><use xlink:href="#L" x="75.46"/><path d="M341.32 141.46c0 7.34-6.39 10.86-11.07 10.86s-11.11-3.53-11.11-10.86 6.39-10.98 11.11-10.98 11.07 3.69 11.07 10.98h0zm-15.7 0c0 3.07 2.05 5.21 4.63 5.21s4.63-2.13 4.63-5.21-2.09-5.33-4.63-5.33-4.63 2.13-4.63 5.33z"/><use xlink:href="#K" x="153.83"/></g><defs ><path id="B" d="M149.82 279.96c0 4.83-3.86 7.21-6.99 7.21s-6.96-2.38-6.96-7.21 3.86-7.18 6.96-7.18 6.99 2.38 6.99 7.18zm-12.12 0c0 3.78 2.78 5.59 5.13 5.59s5.16-1.81 5.16-5.59-2.78-5.56-5.16-5.56-5.13 1.81-5.13 5.56z"/><path id="C" d="M153.5 287.12c-.51 0-.92-.46-.92-.94v-17.55c0-.49.4-.92.92-.92s.92.43.92.92v17.55c0 .49-.41.94-.92.94z"/><path id="D" d="M174.06 275.78v-1.97a.95.95 0 0 1 .92-.94.94.94 0 0 1 .95.94v12.39a.97.97 0 0 1-.95.94c-.49 0-.92-.46-.92-.94v-2.27c-.78 1.94-2.75 3.24-5.02 3.24-3.02 0-6.7-2.35-6.7-7.21s3.67-7.18 6.7-7.18c2.08 0 4.1 1.03 5.02 3zm.11 4.18c0-3.89-2.64-5.56-4.94-5.56s-5.05 1.78-5.05 5.56 2.75 5.59 5.05 5.59 4.94-1.78 4.94-5.59z"/><path id="E" d="M72.07 272.55c1.81-.68 10.35 9.45 10.35 9.45.35.8 13.4-18.44 13.4-18.44.7-1.05 2.49-.44 2.31.79-1 6.64-5.01 14.68-14.85 24.99-.91.96-9-4.75-11.56-12.34-.56-1.67-1.37-3.8.36-4.46l-.01.01z"/><path id="F" d="M204.569 187.95c0 .54-.46.89-1.24.89-2.67 0-4.51 2.13-4.8 4v7.58c0 .51-.41.94-.92.94s-.92-.43-.92-.94v-12.36c0-.51.41-.94.92-.94s.92.43.92.94v2.43c.16-.89 1.94-3.43 4.94-3.43.7 0 1.11.38 1.11.89h-.01z"/><path id="G" d="M111.709 215.03c0-.51.43-.94.95-.94s.94.43.94.94-.43.94-.94.94-.95-.43-.95-.94zm1.86 5.43v12.39c0 .51-.41.94-.92.94s-.92-.43-.92-.94v-12.39c0-.51.41-.94.92-.94s.92.43.92.94h0z"/><path id="H" d="M137.04 105.4c-1.76 0-3.28-1.43-3.28-3.24V79.21c0-1.8 1.52-3.28 3.28-3.28s3.28 1.48 3.28 3.28v22.95c0 1.8-1.52 3.24-3.28 3.24z"/><path id="I" d="M177.09 93.51c0 2.58-1.39 3.44-4.02 3.44l-10.45-.12c.57 2.09 2.25 3.32 4.92 3.32 1.23 0 1.44-.16 2.58-.45.86-.29 1.56-.66 2.38-.66 1.35 0 2.17.94 2.17 2.17 0 .78-.33 1.72-1.56 2.66-1.39.86-3.28 1.52-5.86 1.52-5.57 0-11.43-3.32-11.43-10.78s6.27-10.98 10.94-10.98 10.33 3.73 10.33 9.88h0zm-14.47-1.02h8.03c-.41-2.34-2.01-3.2-3.89-3.2s-3.77.86-4.14 3.2h0z"/><path id="J" d="M138.07 148.88c0 2.13-1.8 3.36-5.12 3.36s-6.39-.98-6.39-7.75v-8.73h-.82c-1.6 0-2.62-1.07-2.62-2.5s1.03-2.54 2.62-2.54h.82v-2.38c0-1.8 1.52-3.28 3.28-3.28s3.28 1.47 3.28 3.28v2.38h2.38c1.6 0 2.58 1.07 2.58 2.54s-.98 2.5-2.58 2.5h-2.38v9.06c0 1.11.33 1.8 1.11 1.8.41 0 1.11-.16 1.56-.12 1.43 0 2.29.86 2.29 2.38h-.01z"/><path id="K" d="M212.27 140.69v8.32c0 1.8-1.48 3.24-3.28 3.24a3.22 3.22 0 0 1-3.24-3.24v-8.32c0-3.2-1.47-4.63-3.65-4.63-3.36 0-4.1 3.4-4.1 3.85v9.1c0 1.8-1.52 3.24-3.28 3.24s-3.28-1.43-3.28-3.24v-15.08c0-1.84 1.52-3.32 3.28-3.32s3.28 1.48 3.28 3.32v1.27c.12-1.52 2.46-4.67 6.64-4.67s7.62 2.95 7.62 10.17l.01-.01z"/><path id="L" d="M233.24 125.6c0-1.76 1.56-3.24 3.32-3.24s3.32 1.48 3.32 3.24-1.56 3.2-3.32 3.2-3.32-1.48-3.32-3.2h0zm6.6 8.32v15.04c0 1.84-1.52 3.32-3.28 3.32s-3.28-1.48-3.28-3.32v-15.04c0-1.84 1.52-3.32 3.28-3.32s3.28 1.48 3.28 3.32z"/></defs></svg>