<svg xmlns="http://www.w3.org/2000/svg" xmlns:xlink="http://www.w3.org/1999/xlink" width="442" height="421" fill="none" xmlns:v="https://vecta.io/nano"><g stroke="#000" stroke-width="2.63" stroke-linejoin="round"><path d="M73.74 376.43l-46.45-4.04c-12.47-1.08-27.91 7.98-25.77 25.1 1.48 11.93 7.85 21.83 21.71 22.04 28.53.42 51.59-12.85 51.36-15.17-.23-2.33-.86-27.92-.86-27.92l.01-.01z" fill="#ad8e6f"/><g fill="#ffe9c7"><path d="M25.99 395.84l328.1 11.56c5.39.54 14.26-.37 14.66-9.63 0-.15.01-.29.02-.43.34-9.02-9.66-29.19-21.89-28.7-222.77 9.01-322.9 3.33-322.91 3.77 13.62.4 13.57 18.32 2.03 23.44l-.01-.01z"/><path d="M410.12 114.76l-9.18-1.15 8.78-3.2-.24-17.76-11.56-3.22 10.83-5.02-1.9-54.08-292.29-.71c-1.14-14.7-41.67-28.26-54.74-28.28-13.32-.03-25.5 14.19-25.29 39.33 0 .54.26 4.87.38 24.62 0 1.08 11.28 2.01 11.28 3.17 0 1.35-11.25 2.93-11.24 4.37.11 28.26 6.09 87.03 6.09 87.03s5.41 5.16 13.92 5.18l-14.14 7.33.8 181.32c-.03 1.15 17.64 3.64 17.66 3.64 0 0-16.78 3.5-16.61 4.46 3.84 21.33 2.36 56.32-14.02 57.75 90.16-8.41 211.33-5.17 345.68-5.17 42.53 0 39.5-47 39.52-56.78.05-25.08-3.72-242.81-3.72-242.81l-.01-.02z"/></g><path d="M97.55 20.11l-41.57 2.67S51.85 48.15 72.2 48.43c20.34.28 26.2-8.21 26.03-9.76s-.68-18.56-.68-18.56h0z" fill="#ad8e6f"/><path d="M72.19 48.43s231.78-9.38 351.36.1c5.79.74 15.56-8.24 16.31-21.18l.03-.61c.68-12.6-9.83-22.6-23.01-21.88C176.79 17.9 60.15.73 60.11 1.33c14.65.53 27.68 10.03 27.47 25.39-.11 8.23-4.54 18.49-15.4 21.72l.01-.01z" fill="#ffe9c7"/></g><g style="mix-blend-mode:color-dodge" opacity=".49"><path d="M416.89 4.87C201.36 16.57 92.14 3.93 64.82 1.65l-2.46-.16c4.69.47 9.15 1.86 12.97 4.08 5.04 1.94 9.21 4.57 8.55 7.99 26.78 2.47 28.25-.88 95.12 1.66 79.54 3.02 218.4 1.4 257.16-1.44-4.11-5.76-11.19-9.36-19.28-8.92l.01.01z" fill="#fff5e3"/></g><g style="mix-blend-mode:multiply" opacity=".3"><path d="M383.28 365.06c.71 2.29 3.82 2.92 7.38 1.2 1.44-.7 2.79-1.61 4.15-2.47l.4-.2c3.35-1.58 6.03-5.23 5.35-7.46-.71-2.32-3.81-2.89-7.38-1.2-1.45.69-2.81 1.61-4.18 2.49l-.37.19c-3.34 1.61-6.04 5.21-5.35 7.46v-.01z" fill="#c4a062"/></g><g style="mix-blend-mode:multiply" opacity=".3"><path d="M386.22 338.27c-1.56 1.64-1.56 3.49.2 4.21.71.29 1.57.42 2.39.57a1.19 1.19 0 0 1 .2.08c1.63.69 4.66-.1 6.17-1.7 1.57-1.66 1.54-3.47-.2-4.21-.71-.3-1.57-.42-2.4-.58-.06-.02-.13-.04-.19-.07-1.65-.68-4.65.09-6.17 1.7z" fill="#c4a062"/></g><g fill="#000"><path d="M158.77 295.39c0 .16-.05.32-.11.46l-5.34 17.03c-.13.43-.46.7-.97.7s-.81-.27-.97-.7l-5.56-14.9-5.53 14.9c-.16.43-.49.7-.97.7-.51 0-.84-.27-1-.7L133 295.85c-.05-.13-.11-.3-.11-.46 0-.46.41-.89.92-.89.41 0 .78.27.89.59l4.67 15.33 5.61-15.3c.16-.43.46-.62.84-.62.41 0 .7.19.86.62l5.61 15.3 4.67-15.33c.08-.32.46-.59.89-.59.51 0 .92.43.92.89h0zm2.41-.52c0-.51.43-.94.95-.94s.94.43.94.94-.43.94-.94.94-.95-.43-.95-.94zm1.86 5.43v12.39c0 .51-.41.94-.92.94s-.92-.43-.92-.94V300.3c0-.51.41-.94.92-.94s.92.43.92.94z"/><use xlink:href="#B"/><path d="M192.45 312.8c0 .46-.35.81-.81.81a.86.86 0 0 1-.62-.24l-6.13-6.37-2.29 2.32v3.35c0 .49-.41.94-.92.94s-.92-.46-.92-.94v-17.55a.93.93 0 0 1 .92-.92.93.93 0 0 1 .92.92v11.93l7.21-7.42c.16-.16.41-.27.62-.27.49 0 .86.38.86.84 0 .24-.11.43-.24.59l-4.99 5.05 6.13 6.34c.19.19.27.41.27.62h-.01zm-47.82 28.39c.24.41.35.67.35.94a.75.75 0 0 1-.78.78c-.43 0-.67-.24-.89-.54-.76-1.3-1.89-2.29-3.97-2.29-2.29 0-3.83 1.13-3.83 3.02 0 1.65 1.16 2.62 3.08 3.37l1.7.67c3.24 1.3 5.51 2.43 5.51 5.32 0 3.37-3.29 5.18-6.4 5.18-2.51 0-5.05-1.19-6.1-3.37-.11-.22-.27-.49-.27-.78 0-.49.3-.86.81-.86.46 0 .76.27.94.62.86 1.73 2.56 2.67 4.64 2.67 2.19 0 4.48-1 4.48-3.46 0-2.13-1.73-2.83-3.86-3.67l-1.89-.76c-2.62-1.03-4.51-2.43-4.51-4.91 0-2.86 2.54-4.75 5.67-4.75 2.59 0 4.37 1.35 5.32 2.81v.01zm16.89 8.94c0 .7-.43 1.05-1.19 1.05H149.8c.22 3.32 2.78 4.86 5.24 4.86 1.3 0 2.48-.4 3.4-1.16.35-.27.57-.4.81-.4a.69.69 0 0 1 .73.73c0 .24-.11.49-.51.86-1.13 1.03-2.78 1.54-4.48 1.54-3.4 0-7.07-2.29-7.07-7.15s3.78-7.18 6.86-7.18 6.75 2.4 6.75 6.86l-.01-.01zm-11.71-.43h9.93c-.22-3.29-2.78-4.8-4.97-4.8s-4.72 1.51-4.97 4.8h.01z"/><use xlink:href="#B" x="-2.18" y="44"/><path d="M178.41 351.78v-7.45c0-.49.41-.94.92-.94s.92.46.92.94v7.45c0 3.13 1.92 4.26 3.91 4.26 2.86 0 4.43-2.35 4.72-4.13v-7.58c0-.49.41-.94.92-.94s.92.46.92.94v12.36c0 .51-.41.94-.92.94s-.92-.43-.92-.94v-2.43c-.16.89-1.86 3.43-5.16 3.43-2.51 0-5.32-1.46-5.32-5.91h.01zm23.61-7.59c0 .54-.46.89-1.24.89-2.67 0-4.51 2.13-4.8 4v7.58c0 .51-.41.94-.92.94s-.92-.43-.92-.94V344.3c0-.51.41-.94.92-.94s.92.43.92.94v2.43c.16-.89 1.94-3.43 4.94-3.43.7 0 1.11.38 1.11.89h-.01zm2.14-5.32c0-.51.43-.94.95-.94s.94.43.94.94-.43.94-.94.94-.95-.43-.95-.94zm1.86 5.43v12.39c0 .51-.41.94-.92.94s-.92-.43-.92-.94V344.3c0-.51.41-.94.92-.94s.92.43.92.94zm9.04 12.14c0 .89-1.35 1.16-2.38 1.16-1.3 0-2.54-.49-2.54-2.67V345h-1.32a.78.78 0 1 1 0-1.56h1.32v-2.46a.91.91 0 0 1 .92-.92c.52 0 .92.4.92.92v2.46h2.27c.46 0 .81.3.81.78s-.35.78-.81.78h-2.27v9.83c0 .86.38 1.19 1.08 1.19.43 0 .78-.11 1.08-.19.51-.16.92.16.92.62v-.01zm14.51-12.22a.74.74 0 0 1-.11.38l-7.5 17.55a.91.91 0 0 1-.86.59c-.49 0-.81-.4-.81-.86 0-.16.05-.27.08-.38l1.92-4.48-5.4-12.42c-.03-.11-.08-.22-.08-.38 0-.46.38-.86.86-.86a.91.91 0 0 1 .86.59l4.64 10.96 4.67-10.96a.89.89 0 0 1 .86-.59.88.88 0 0 1 .86.86h.01z"/></g><g fill="#766edb"><use xlink:href="#C"/><use xlink:href="#C" y="43.85"/></g><g fill="#000"><path d="M98.64 159.8c0 3.35-2.4 5.45-6.3 5.45h-3.77v5.9a.89.89 0 0 1-.88.88c-.5 0-.88-.4-.88-.88v-15.8c0-.55.4-.92.95-.92h4.57c3.9 0 6.3 2.22 6.3 5.37h.01zm-1.7 0c0-2.42-1.75-3.85-4.65-3.85h-3.72v7.8h3.72c2.9 0 4.65-1.3 4.65-3.95h0z"/><use xlink:href="#D"/><use xlink:href="#E"/><path d="M134.12 159.65c0 .15-.05.25-.08.35l-4.9 11.32c-.2.4-.4.65-.85.65s-.67-.25-.85-.65L122.52 160c-.03-.1-.07-.2-.07-.35a.81.81 0 0 1 .8-.8.83.83 0 0 1 .8.55l4.25 10.02 4.22-10.02a.83.83 0 0 1 .8-.55.81.81 0 0 1 .8.8h0z"/><use xlink:href="#F"/><use xlink:href="#G"/><path d="M169.73 170.97c0 .82-1.25 1.07-2.2 1.07-1.2 0-2.35-.45-2.35-2.47v-9.2h-1.22c-.42 0-.72-.27-.72-.72a.68.68 0 0 1 .72-.73h1.22v-2.27a.85.85 0 0 1 1.7 0v2.27h2.1a.7.7 0 0 1 .75.73c0 .45-.32.72-.75.72h-2.1v9.1c0 .8.35 1.1 1 1.1.4 0 .73-.1 1-.17.47-.15.85.15.85.57z"/><use xlink:href="#H"/><path d="M197.49 161.55v-1.82c0-.47.4-.87.85-.87.5 0 .88.4.88.87v11.47a.9.9 0 0 1-.88.87c-.45 0-.85-.42-.85-.87v-2.1c-.72 1.8-2.55 3-4.65 3-2.8 0-6.2-2.17-6.2-6.67s3.4-6.65 6.2-6.65c1.92 0 3.8.95 4.65 2.77h0zm.1 3.87c0-3.6-2.45-5.15-4.57-5.15s-4.67 1.65-4.67 5.15 2.55 5.17 4.67 5.17 4.57-1.65 4.57-5.17zm17.39 0c0 4.5-3.4 6.67-6.2 6.67-2.1 0-3.92-1.2-4.65-3v2.1c0 .07 0 .12-.03.2v4.52c0 .45-.38.85-.85.85s-.85-.4-.85-.85v-16.2a.87.87 0 0 1 .87-.87c.45 0 .85.4.85.87v1.82c.85-1.82 2.72-2.77 4.65-2.77 2.8 0 6.2 2.2 6.2 6.65l.01.01zm-1.7 0c0-3.5-2.55-5.15-4.67-5.15s-4.57 1.55-4.57 5.15 2.45 5.17 4.57 5.17 4.67-1.65 4.67-5.17zm4.23-10.72a.89.89 0 0 1 .88-.88.89.89 0 0 1 .88.88.88.88 0 0 1-.88.87c-.48 0-.88-.4-.88-.87zm1.72 5.02v11.47c0 .47-.38.87-.85.87s-.85-.4-.85-.87v-11.47c0-.47.38-.87.85-.87s.85.4.85.87z"/><use xlink:href="#I"/><use xlink:href="#J"/><use xlink:href="#H" x="-78.38" y="30"/><use xlink:href="#E" x="-0.59" y="30"/><use xlink:href="#K"/><use xlink:href="#L"/><use xlink:href="#M"/><path d="M167.23 184.3l-7.95 20.44a.83.83 0 0 1-.75.52c-.55 0-.92-.6-.72-1.1l7.95-20.44c.1-.28.4-.52.75-.52.55 0 .93.6.72 1.1z"/><use xlink:href="#I" x="-54.34" y="30"/><use xlink:href="#M" x="37.86"/><use xlink:href="#N"/><use xlink:href="#M" x="57.12"/><path d="M221.89 200.97c0 .82-1.25 1.07-2.2 1.07-1.2 0-2.35-.45-2.35-2.47v-9.2h-1.22c-.43 0-.72-.27-.72-.72a.68.68 0 0 1 .72-.73h1.22v-2.27a.85.85 0 0 1 1.7 0v2.27h2.1a.7.7 0 0 1 .75.73c0 .45-.32.72-.75.72h-2.1v9.1c0 .8.35 1.1 1 1.1.4 0 .72-.1 1-.17.47-.15.85.15.85.57z"/><use xlink:href="#F" x="87.76" y="30"/><use xlink:href="#O"/><path d="M266.92 185.27a.66.66 0 0 1-.65.67c-.22 0-.5-.1-.78-.25-.35-.22-.87-.45-1.62-.45-1.43 0-2.25.88-2.25 2.7v.97h3.15a.7.7 0 0 1 .75.73c0 .45-.32.72-.75.72h-3.15v10.82c0 .45-.38.87-.85.87s-.85-.42-.85-.87v-10.82h-.93c-.42 0-.72-.27-.72-.72a.68.68 0 0 1 .72-.73h.93v-1.02c0-3.25 2.12-4.15 3.85-4.15 1.15 0 2.1.37 2.78.87.2.15.38.38.38.65l-.01.01zm-162.08 34.38c0 .15-.05.25-.08.38l-3.8 11.3c-.15.4-.42.65-.8.65-.35 0-.65-.25-.8-.65l-3.9-9.82-3.9 9.82c-.15.4-.45.65-.8.65s-.65-.25-.8-.65l-3.8-11.3c-.05-.12-.1-.23-.1-.38a.83.83 0 0 1 .8-.8c.32 0 .67.2.77.48l3.22 9.97 3.8-9.9a.81.81 0 0 1 .8-.55.79.79 0 0 1 .77.55l3.82 9.9 3.2-9.97c.1-.3.45-.48.78-.48.43 0 .8.38.8.8h.02z"/><use xlink:href="#P"/><path d="M133.65 225.42c0 4.5-3.4 6.67-6.2 6.67-2.1 0-3.92-1.2-4.65-3v2.1c0 .45-.4.87-.85.87a.91.91 0 0 1-.88-.87v-16.25c0-.48.4-.88.85-.88.47 0 .85.4.85.88v4.57s.03.12.03.2v1.82c.85-1.82 2.72-2.77 4.65-2.77 2.8 0 6.2 2.2 6.2 6.65v.01zm-1.7 0c0-3.5-2.55-5.15-4.67-5.15s-4.57 1.55-4.57 5.15 2.45 5.17 4.57 5.17 4.67-1.65 4.67-5.17h0z"/><use xlink:href="#Q"/><use xlink:href="#O" x="-94.02" y="30"/><use xlink:href="#O" x="-79.2" y="30"/><path d="M191.25 231.29a.74.74 0 0 1-.75.75c-.22 0-.43-.08-.58-.23l-5.67-5.9-2.12 2.15v3.1c0 .45-.38.88-.85.88s-.85-.42-.85-.88v-16.25c0-.45.38-.85.85-.85s.85.4.85.85v11.05l6.67-6.87a.85.85 0 0 1 .57-.25c.45 0 .8.35.8.77 0 .22-.1.4-.22.55l-4.62 4.67 5.67 5.87c.17.17.25.38.25.57v.02z"/><use xlink:href="#R"/><use xlink:href="#S"/><use xlink:href="#J" x="129.34" y="30"/><use xlink:href="#Q" x="93.36"/><use xlink:href="#K" x="120.73" y="30"/><use xlink:href="#G" x="109.1" y="60"/><use xlink:href="#G" x="123.63" y="60"/><use xlink:href="#P" x="181.59"/><use xlink:href="#N" x="105.1" y="30"/><use xlink:href="#T"/><use xlink:href="#S" x="114.31"/><use xlink:href="#D" x="-14.02" y="90"/><use xlink:href="#O" x="-149.33" y="60"/><use xlink:href="#N" x="-87.29" y="60"/><use xlink:href="#E" x="5.7" y="90"/><use xlink:href="#R" x="-63.81" y="30"/><use xlink:href="#S" x="-63.81" y="30"/><path d="M164.92 255.42c0 4.5-3.4 6.67-6.2 6.67-2.1 0-3.92-1.2-4.65-3v2.1c0 .45-.4.87-.85.87a.91.91 0 0 1-.88-.87v-16.25c0-.48.4-.88.85-.88.47 0 .85.4.85.88v4.57s.03.12.03.2v1.82c.85-1.82 2.72-2.77 4.65-2.77 2.8 0 6.2 2.2 6.2 6.65v.01zm-1.7 0c0-3.5-2.55-5.15-4.67-5.15s-4.57 1.55-4.57 5.15 2.45 5.17 4.57 5.17 4.67-1.65 4.67-5.17z"/><use xlink:href="#O" x="-77.25" y="60"/><use xlink:href="#L" x="43.66" y="60"/><use xlink:href="#T" x="-118.03" y="30"/><path d="M199.96 264.47l1.45-4c.15-.47.43-.65.82-.65h.72c.48 0 .58.27.35.73l-1.97 4.1c-.18.38-.45.48-.8.48h-.15c-.4 0-.57-.27-.42-.65v-.01zm22.82-12.92v-1.82c0-.47.4-.87.85-.87.5 0 .87.4.87.87v11.47a.9.9 0 0 1-.87.87c-.47 0-.85-.42-.85-.87v-2.1c-.72 1.8-2.55 3-4.65 3-2.8 0-6.2-2.17-6.2-6.67s3.4-6.65 6.2-6.65c1.93 0 3.8.95 4.65 2.77h0zm.1 3.87c0-3.6-2.45-5.15-4.57-5.15s-4.67 1.65-4.67 5.15 2.55 5.17 4.67 5.17 4.57-1.65 4.57-5.17h0z"/><use xlink:href="#G" x="77.56" y="90"/><use xlink:href="#I" x="19.82" y="90"/><path d="M263.8 256.64v-6.9c0-.45.38-.88.85-.88s.85.42.85.88v6.9c0 2.9 1.78 3.95 3.62 3.95 2.65 0 4.1-2.17 4.37-3.82v-7.02c0-.45.38-.88.85-.88s.85.42.85.88v11.45c0 .47-.38.87-.85.87s-.85-.4-.85-.87v-2.25c-.15.82-1.72 3.17-4.77 3.17-2.32 0-4.92-1.35-4.92-5.47v-.01z"/><use xlink:href="#T" x="-29.14" y="30"/><use xlink:href="#E" x="180.24" y="90"/><use xlink:href="#D" x="203.26" y="90"/><use xlink:href="#T" x="5.77" y="30"/></g><g fill="#766edb"><path d="M112.83 107.12v17.84c0 2.12-1.88 3.8-3.95 3.8-1.78 0-3.37-1.25-3.75-2.98-.72 1.25-2.84 3.03-6.35 3.03-5.29 0-11.54-4.04-11.54-12.84s6.35-12.79 11.54-12.79c3.27 0 5.63 1.83 6.25 3.51v.43c0-2.07 1.78-3.8 3.85-3.8s3.95 1.73 3.95 3.8h0zm-7.46 8.85c0-4.71-3.03-6.25-5.15-6.25-2.74 0-5.29 2.16-5.29 6.25s2.55 6.3 5.29 6.3c2.12 0 5.15-1.49 5.15-6.3z"/><use xlink:href="#U"/><path d="M163.37 124.77c0 2.5-2.12 3.94-6.01 3.94s-7.5-1.15-7.5-9.09v-10.24h-.96c-1.88 0-3.08-1.25-3.08-2.93s1.2-2.98 3.08-2.98h.96v-2.79c0-2.12 1.78-3.85 3.85-3.85s3.85 1.73 3.85 3.85v2.79h2.79c1.88 0 3.03 1.25 3.03 2.98s-1.15 2.93-3.03 2.93h-2.79v10.63c0 1.3.38 2.12 1.3 2.12.48 0 1.3-.19 1.83-.14 1.68 0 2.69 1.01 2.69 2.79l-.01-.01zm4.08-27.32c0-2.07 1.83-3.8 3.89-3.8s3.9 1.73 3.9 3.8-1.83 3.75-3.9 3.75-3.89-1.73-3.89-3.75zm7.74 9.76v17.65c0 2.17-1.78 3.9-3.85 3.9s-3.85-1.73-3.85-3.9v-17.65c0-2.16 1.78-3.9 3.85-3.9s3.85 1.73 3.85 3.9zm22.44 8.13c0 1.78-1.49 3.17-3.13 3.17h-11.21c-1.68 0-3.18-1.39-3.18-3.17s1.49-3.17 3.18-3.17h11.21c1.63 0 3.13 1.44 3.13 3.17z"/><use xlink:href="#U" x="84.01"/><path d="M232.46 116.83v-9.76c0-2.12 1.73-3.8 3.85-3.8a3.77 3.77 0 0 1 3.8 3.8v9.76c0 3.75 1.73 5.44 4.28 5.44 3.94 0 4.81-3.99 4.81-4.52v-10.68c0-2.12 1.78-3.8 3.85-3.8s3.85 1.68 3.85 3.8v17.7c0 2.16-1.78 3.9-3.85 3.9s-3.85-1.73-3.85-3.9v-1.49c-.14 1.78-2.88 5.48-7.79 5.48s-8.95-3.46-8.95-11.93h0zm53.46 8.56c0 1.73-1.44 3.32-3.32 3.32-.96 0-1.88-.43-2.36-1.06l-7.55-8.75-2.31 2.07v3.94c0 2.12-1.78 3.8-3.85 3.8s-3.85-1.68-3.85-3.8V97.98c0-2.12 1.78-3.85 3.85-3.85s3.85 1.73 3.85 3.85v14.04l7.98-7.6c.63-.62 1.59-1.11 2.6-1.11 1.92 0 3.42 1.64 3.42 3.46 0 1.01-.34 1.83-.96 2.45l-5.92 5.34 7.5 8.51c.48.48.91 1.3.91 2.31l.01.01zm26.9-10.62c0 3.03-1.64 4.04-4.71 4.04l-12.26-.14c.67 2.45 2.64 3.9 5.77 3.9 1.44 0 1.68-.19 3.03-.53 1.01-.34 1.83-.77 2.79-.77 1.59 0 2.55 1.11 2.55 2.55 0 .91-.38 2.02-1.83 3.13-1.63 1.01-3.85 1.78-6.88 1.78-6.54 0-13.42-3.9-13.42-12.65s7.36-12.89 12.84-12.89 12.12 4.38 12.12 11.59v-.01zm-16.98-1.2h9.43c-.48-2.74-2.36-3.75-4.57-3.75s-4.42 1.01-4.86 3.75z"/></g><defs ><path id="B" d="M178.1 310.47c0 .32-.22.54-.41.78-1.19 1.57-3 2.35-4.99 2.35-3.16 0-6.96-2.38-6.96-7.15s3.81-7.18 6.96-7.18c2 0 3.81.78 4.99 2.35.19.24.41.46.41.78 0 .46-.38.76-.81.76-.32 0-.62-.19-.84-.49-.84-1.19-2.32-1.78-3.67-1.78-2.46 0-5.21 1.81-5.21 5.56s2.75 5.53 5.21 5.53c1.35 0 2.83-.59 3.67-1.78.22-.3.51-.49.84-.49.43 0 .81.3.81.76z"/><path id="C" d="M86.37 300.03c1.81-.68 10.35 9.45 10.35 9.45.35.8 13.4-18.44 13.4-18.44.7-1.05 2.49-.44 2.31.79-1 6.64-5.01 14.68-14.85 24.99-.91.96-9-4.75-11.56-12.34-.56-1.67-1.37-3.8.36-4.46l-.01.01z"/><path id="D" d="M108.14 159.62c0 .5-.43.82-1.15.82-2.47 0-4.17 1.97-4.45 3.7v7.02c0 .48-.38.88-.85.88s-.85-.4-.85-.88v-11.45c0-.47.38-.87.85-.87s.85.4.85.87v2.25c.15-.82 1.8-3.17 4.57-3.17.65 0 1.03.35 1.03.82v.01z"/><path id="E" d="M121.43 165.12c0 .65-.4.97-1.1.97h-9.75c.2 3.07 2.57 4.5 4.85 4.5 1.2 0 2.3-.38 3.15-1.07.32-.25.53-.38.75-.38.42 0 .67.3.67.67 0 .23-.1.45-.47.8-1.05.95-2.57 1.42-4.15 1.42-3.15 0-6.55-2.12-6.55-6.62s3.5-6.65 6.35-6.65 6.25 2.22 6.25 6.35v.01zm-10.85-.4h9.2c-.2-3.05-2.57-4.45-4.6-4.45s-4.38 1.4-4.6 4.45h0z"/><path id="F" d="M147.71 165.12c0 .65-.4.97-1.1.97h-9.75c.2 3.07 2.57 4.5 4.85 4.5 1.2 0 2.3-.38 3.15-1.07.32-.25.53-.38.75-.38.42 0 .67.3.67.67 0 .23-.1.45-.47.8-1.05.95-2.57 1.42-4.15 1.42-3.15 0-6.55-2.12-6.55-6.62s3.5-6.65 6.35-6.65 6.25 2.22 6.25 6.35v.01zm-10.85-.4h9.2c-.2-3.05-2.57-4.45-4.6-4.45s-4.38 1.4-4.6 4.45z"/><path id="G" d="M161.53 164.27v6.9c0 .45-.38.88-.85.88s-.85-.42-.85-.88v-6.9c0-2.9-1.77-3.95-3.62-3.95-2.65 0-4.1 2.17-4.38 3.82v7.02c0 .45-.38.88-.85.88s-.85-.42-.85-.88v-11.45c0-.47.38-.87.85-.87s.85.4.85.87v2.25c.15-.82 1.72-3.17 4.77-3.17 2.33 0 4.92 1.35 4.92 5.47l.01.01z"/><path id="H" d="M185.93 159.62c0 .5-.42.82-1.15.82-2.47 0-4.17 1.97-4.45 3.7v7.02c0 .48-.38.88-.85.88s-.85-.4-.85-.88v-11.45c0-.47.38-.87.85-.87s.85.4.85.87v2.25c.15-.82 1.8-3.17 4.57-3.17.65 0 1.02.35 1.02.82l.01.01z"/><path id="I" d="M234.32 154.95v16.25a.9.9 0 0 1-.88.87c-.45 0-.85-.42-.85-.87v-2.1c-.72 1.8-2.55 3-4.65 3-2.8 0-6.2-2.17-6.2-6.67s3.4-6.65 6.2-6.65c1.92 0 3.8.95 4.65 2.77v-1.82c0-.07 0-.15.03-.2v-4.57c0-.48.38-.88.85-.88.45 0 .85.4.85.88v-.01zm-1.62 10.47c0-3.6-2.45-5.15-4.57-5.15s-4.67 1.65-4.67 5.15 2.55 5.17 4.67 5.17 4.57-1.65 4.57-5.17z"/><path id="J" d="M97.77 199.14c0 .3-.2.5-.38.73-1.1 1.45-2.77 2.17-4.62 2.17-2.93 0-6.45-2.2-6.45-6.62s3.52-6.65 6.45-6.65c1.85 0 3.52.73 4.62 2.17.18.22.38.42.38.72 0 .42-.35.7-.75.7-.3 0-.57-.17-.78-.45-.77-1.1-2.15-1.65-3.4-1.65-2.27 0-4.82 1.67-4.82 5.15s2.55 5.12 4.82 5.12c1.25 0 2.62-.55 3.4-1.65.2-.27.48-.45.78-.45.4 0 .75.27.75.7v.01z"/><path id="K" d="M133.58 191.55v-1.82c0-.47.4-.87.85-.87.5 0 .87.4.87.87v11.47a.9.9 0 0 1-.87.87c-.47 0-.85-.42-.85-.87v-2.1c-.72 1.8-2.55 3-4.65 3-2.8 0-6.2-2.17-6.2-6.67s3.4-6.65 6.2-6.65c1.93 0 3.8.95 4.65 2.77h0zm.1 3.87c0-3.6-2.45-5.15-4.57-5.15s-4.67 1.65-4.67 5.15 2.55 5.17 4.67 5.17 4.57-1.65 4.57-5.17z"/><path id="L" d="M143.71 200.97c0 .82-1.25 1.07-2.2 1.07-1.2 0-2.35-.45-2.35-2.47v-9.2h-1.22c-.43 0-.72-.27-.72-.72a.68.68 0 0 1 .72-.73h1.22v-2.27a.85.85 0 1 1 1.7 0v2.27h2.1a.7.7 0 0 1 .75.73c0 .45-.32.72-.75.72h-2.1v9.1c0 .8.35 1.1 1 1.1.4 0 .72-.1 1-.17.47-.15.85.15.85.57z"/><path id="M" d="M157.29 195.12c0 .65-.4.97-1.1.97h-9.75c.2 3.07 2.57 4.5 4.85 4.5 1.2 0 2.3-.38 3.15-1.07.33-.25.53-.38.75-.38a.64.64 0 0 1 .68.67c0 .23-.1.45-.47.8-1.05.95-2.57 1.42-4.15 1.42-3.15 0-6.55-2.12-6.55-6.62s3.5-6.65 6.35-6.65 6.25 2.22 6.25 6.35l-.01.01zm-10.85-.4h9.2c-.2-3.05-2.57-4.45-4.6-4.45s-4.37 1.4-4.6 4.45z"/><path id="N" d="M198.43 202.04c-.47 0-.85-.42-.85-.88v-16.25c0-.45.38-.85.85-.85s.85.4.85.85v16.25c0 .45-.38.88-.85.88z"/><path id="O" d="M257.05 195.42c0 4.47-3.57 6.67-6.47 6.67s-6.45-2.2-6.45-6.67 3.57-6.65 6.45-6.65 6.47 2.2 6.47 6.65zm-11.22 0c0 3.5 2.57 5.17 4.75 5.17s4.77-1.67 4.77-5.17-2.57-5.15-4.77-5.15-4.75 1.67-4.75 5.15z"/><path id="P" d="M118.65 225.12c0 .65-.4.97-1.1.97h-9.75c.2 3.07 2.57 4.5 4.85 4.5 1.2 0 2.3-.38 3.15-1.07.33-.25.53-.38.75-.38a.64.64 0 0 1 .68.67c0 .23-.1.45-.47.8-1.05.95-2.57 1.42-4.15 1.42-3.15 0-6.55-2.12-6.55-6.62s3.5-6.65 6.35-6.65 6.25 2.22 6.25 6.35l-.01.01zm-10.85-.4h9.2c-.2-3.05-2.57-4.45-4.6-4.45s-4.37 1.4-4.6 4.45h0z"/><path id="Q" d="M147.63 224.27v6.9c0 .45-.38.88-.85.88s-.85-.42-.85-.88v-6.9c0-2.9-1.78-3.95-3.62-3.95-2.65 0-4.1 2.17-4.37 3.82v7.02c0 .45-.38.88-.85.88s-.85-.42-.85-.88v-16.25c0-.45.38-.85.85-.85s.85.4.85.85v7.05c.15-.82 1.72-3.17 4.77-3.17 2.32 0 4.92 1.35 4.92 5.47v.01z"/><path id="R" d="M201.45 220.87c.15.25.22.45.22.67 0 .42-.32.7-.72.7-.32 0-.55-.17-.85-.62-.5-.75-1.4-1.4-2.85-1.4-1.67 0-2.67.85-2.67 2.07 0 .95.65 1.67 2.22 2.07l1.6.43c2.32.57 3.8 1.52 3.8 3.47 0 2.45-2.35 3.77-4.95 3.77-2.07 0-3.87-.92-4.45-2.25-.1-.2-.3-.48-.3-.85 0-.45.27-.77.7-.77.4 0 .6.23.78.6.52 1.25 1.82 1.77 3.27 1.77 1.75 0 3.27-.7 3.27-2.17 0-1.17-.92-1.72-2.27-2.07l-2-.52c-2.32-.6-3.35-1.87-3.35-3.45 0-2.1 1.88-3.55 4.38-3.55 1.92 0 3.4.83 4.17 2.1h0z"/><path id="S" d="M203.68 234.47l1.45-4c.15-.47.43-.65.83-.65h.72c.47 0 .57.27.35.73l-1.97 4.1c-.18.38-.45.48-.8.48h-.15c-.4 0-.58-.27-.43-.65v-.01z"/><path id="T" d="M315.75 220.87c.15.25.23.45.23.67 0 .42-.33.7-.73.7-.32 0-.55-.17-.85-.62-.5-.75-1.4-1.4-2.85-1.4-1.68 0-2.68.85-2.68 2.07 0 .95.65 1.67 2.22 2.07l1.6.43c2.32.57 3.8 1.52 3.8 3.47 0 2.45-2.35 3.77-4.95 3.77-2.08 0-3.88-.92-4.45-2.25-.1-.2-.3-.48-.3-.85 0-.45.28-.77.7-.77.4 0 .6.23.78.6.53 1.25 1.82 1.77 3.28 1.77 1.75 0 3.27-.7 3.27-2.17 0-1.17-.93-1.72-2.28-2.07l-2-.52c-2.32-.6-3.35-1.87-3.35-3.45 0-2.1 1.88-3.55 4.37-3.55 1.93 0 3.4.83 4.17 2.1h.02z"/><path id="U" d="M143.05 115.15v9.76c0 2.12-1.73 3.8-3.85 3.8a3.77 3.77 0 0 1-3.8-3.8v-9.76c0-3.75-1.73-5.44-4.28-5.44-3.95 0-4.81 3.99-4.81 4.52v10.68c0 2.12-1.78 3.8-3.85 3.8s-3.85-1.68-3.85-3.8v-17.7c0-2.16 1.78-3.9 3.85-3.9s3.85 1.73 3.85 3.9v1.49c.14-1.78 2.89-5.48 7.79-5.48s8.95 3.46 8.95 11.93h0z"/></defs></svg>