<svg width="477" height="513" viewBox="0 0 477 513" fill="none" xmlns="http://www.w3.org/2000/svg">
<g clip-path="url(#clip0_1_12098)">
<path d="M76.3998 461.18L28.2798 456.49C15.3598 455.23 -0.630164 465.75 1.57984 485.6C3.11984 499.44 9.71984 510.92 24.0698 511.16C53.6298 511.64 77.5198 496.26 77.2798 493.56C77.0398 490.86 76.3898 461.18 76.3898 461.18H76.3998Z" fill="#AD8E6F" stroke="black" stroke-width="2.75" stroke-linecap="round" stroke-linejoin="round"/>
<path d="M26.9398 483.69C26.9398 483.69 270.97 489.03 386.29 497.1C391.88 497.73 401.07 496.67 401.48 485.93C401.48 485.76 401.49 485.59 401.5 485.43C401.85 474.96 391.49 451.57 378.82 452.14C148.05 462.59 24.8598 456.01 24.8398 456.51C38.9498 456.97 38.8998 477.76 26.9398 483.7V483.69Z" fill="#FFE9C7" stroke="black" stroke-width="2.75" stroke-linecap="round" stroke-linejoin="round"/>
<path d="M431.19 376.07L447.19 370.96L444.32 118.57C444.32 118.57 434.83 117.24 434.81 117.24L443.9 113.53L443.65 92.9299L431.68 89.1999L442.9 83.3799C442.9 83.3799 440.97 35.0299 440.93 35.0299C353.39 34.8099 227.63 34.4799 118.68 34.2099C117.51 17.1599 75.5199 1.42994 61.9899 1.39994C48.1899 1.36994 35.5699 17.8599 35.7899 47.0099C35.7899 47.6399 36.0599 38.2899 36.1899 61.1899C36.1899 62.4499 47.8699 63.5299 47.8799 64.8599C47.8799 66.4199 36.2299 68.2499 36.2299 69.9299C36.3399 102.71 42.5399 209.99 42.5399 209.99C42.5399 209.99 48.1499 215.97 56.9599 215.99L42.3099 224.49C42.3099 224.49 44.4699 378.25 43.1299 434.79C43.0999 436.12 61.4099 439.01 61.4199 439.01C61.4199 439.01 44.0299 443.07 44.2099 444.18C48.1899 468.92 46.6599 509.5 29.6899 511.16C123.09 501.4 268.07 505.16 407.25 505.16C451.3 505.16 448.17 450.65 448.19 439.31C448.24 410.22 446.92 383.4 446.92 383.4L431.2 376.07H431.19Z" fill="#FFE9C7" stroke="black" stroke-width="2.75" stroke-linecap="round" stroke-linejoin="round"/>
<path d="M101.07 23.1799L58.0098 26.2799C58.0098 26.2799 53.7298 55.7099 74.8098 56.0299C95.8798 56.3599 101.95 46.4999 101.78 44.7099C101.61 42.9199 101.08 23.1799 101.08 23.1799H101.07Z" fill="#AD8E6F" stroke="black" stroke-width="2.75" stroke-linecap="round" stroke-linejoin="round"/>
<path d="M74.8 56.0199C74.8 56.0199 334.36 45.1399 458.24 56.1399C464.23 56.9999 474.36 46.5799 475.14 31.5799C475.15 31.3399 475.16 31.1099 475.18 30.8799C475.89 16.2599 465 4.66991 451.35 5.49991C202.62 20.6199 62.32 0.69991 62.29 1.38991C77.46 1.99991 90.96 13.0199 90.75 30.8299C90.64 40.3799 86.05 52.2799 74.8 56.0199Z" fill="#FFE9C7" stroke="black" stroke-width="2.75" stroke-linecap="round" stroke-linejoin="round"/>
<g style="mix-blend-mode:color-dodge" opacity="0.49">
<path d="M451.34 5.49983C228.07 19.0698 95.4596 4.40983 67.1696 1.76983C66.1696 1.69983 65.3196 1.62983 64.6196 1.57983C69.4796 2.12983 74.0996 3.73983 78.0596 6.31983C83.2796 8.56983 87.5996 11.6298 86.9196 15.5898C114.66 18.4498 116.19 14.5698 185.46 17.5198C267.86 21.0198 431.16 19.1398 471.32 15.8498C467.07 9.16983 459.73 4.98983 451.35 5.49983H451.34Z" fill="#FFF5E3"/>
</g>
<g style="mix-blend-mode:multiply" opacity="0.3">
<path d="M392.87 427.89C393.6 430.55 396.83 431.28 400.52 429.28C402.01 428.47 403.41 427.42 404.82 426.41C404.96 426.33 405.09 426.25 405.23 426.18C408.7 424.34 411.48 420.11 410.77 417.53C410.03 414.84 406.82 414.18 403.12 416.14C401.62 416.94 400.21 418.01 398.79 419.02C398.66 419.09 398.54 419.17 398.41 419.24C394.95 421.11 392.15 425.28 392.87 427.89V427.89Z" fill="#C4A062"/>
</g>
<g style="mix-blend-mode:multiply" opacity="0.3">
<path d="M389.88 406.13C388.27 408.04 388.26 410.18 390.09 411.01C390.83 411.35 391.71 411.49 392.57 411.67C392.64 411.7 392.71 411.73 392.78 411.76C394.47 412.57 397.61 411.64 399.17 409.79C400.8 407.86 400.77 405.77 398.96 404.91C398.23 404.56 397.33 404.42 396.47 404.24C396.4 404.21 396.34 404.19 396.27 404.16C394.56 403.38 391.46 404.26 389.88 406.13Z" fill="#C4A062"/>
</g>
<path d="M101.6 151.99C101.6 155.61 99.0101 157.87 94.8001 157.87H90.7201V164.24C90.7201 164.75 90.2901 165.19 89.7801 165.19C89.2401 165.19 88.8301 164.76 88.8301 164.24V147.18C88.8301 146.59 89.2601 146.18 89.8601 146.18H94.8001C99.0101 146.18 101.6 148.58 101.6 151.98V151.99ZM99.7701 151.99C99.7701 149.37 97.8801 147.83 94.7501 147.83H90.7301V156.25H94.7501C97.8801 156.25 99.7701 154.85 99.7701 151.99Z" fill="black"/>
<path d="M111.84 151.8C111.84 152.34 111.38 152.69 110.6 152.69C107.93 152.69 106.09 154.82 105.8 156.69V164.27C105.8 164.78 105.39 165.21 104.88 165.21C104.37 165.21 103.96 164.78 103.96 164.27V151.91C103.96 151.4 104.37 150.97 104.88 150.97C105.39 150.97 105.8 151.4 105.8 151.91V154.34C105.96 153.45 107.74 150.91 110.74 150.91C111.44 150.91 111.85 151.29 111.85 151.8H111.84Z" fill="black"/>
<path d="M126.5 158.06C126.5 162.89 122.64 165.27 119.51 165.27C116.38 165.27 112.55 162.89 112.55 158.06C112.55 153.23 116.41 150.88 119.51 150.88C122.61 150.88 126.5 153.26 126.5 158.06ZM114.38 158.06C114.38 161.84 117.16 163.65 119.51 163.65C121.86 163.65 124.67 161.84 124.67 158.06C124.67 154.28 121.89 152.5 119.51 152.5C117.13 152.5 114.38 154.31 114.38 158.06Z" fill="black"/>
<path d="M134.65 164.05C134.65 164.94 133.3 165.21 132.27 165.21C130.97 165.21 129.73 164.72 129.73 162.54V152.61H128.41C127.95 152.61 127.63 152.31 127.63 151.83C127.63 151.35 127.95 151.05 128.41 151.05H129.73V148.59C129.73 148.08 130.13 147.67 130.65 147.67C131.17 147.67 131.57 148.08 131.57 148.59V151.05H133.84C134.3 151.05 134.65 151.35 134.65 151.83C134.65 152.31 134.3 152.61 133.84 152.61H131.57V162.44C131.57 163.3 131.95 163.63 132.65 163.63C133.08 163.63 133.43 163.52 133.73 163.44C134.24 163.28 134.65 163.6 134.65 164.06V164.05Z" fill="black"/>
<path d="M149.29 157.73C149.29 158.43 148.86 158.78 148.1 158.78H137.57C137.79 162.1 140.35 163.64 142.81 163.64C144.1 163.64 145.29 163.24 146.21 162.48C146.56 162.21 146.78 162.07 147.02 162.07C147.48 162.07 147.75 162.39 147.75 162.8C147.75 163.04 147.64 163.29 147.24 163.66C146.11 164.69 144.46 165.2 142.76 165.2C139.36 165.2 135.69 162.91 135.69 158.05C135.69 153.19 139.47 150.87 142.55 150.87C145.63 150.87 149.3 153.27 149.3 157.73H149.29ZM137.57 157.3H147.5C147.28 154.01 144.72 152.5 142.53 152.5C140.34 152.5 137.81 154.01 137.56 157.3H137.57Z" fill="black"/>
<path d="M163.69 162.08C163.69 162.4 163.47 162.62 163.28 162.86C162.09 164.43 160.28 165.21 158.29 165.21C155.13 165.21 151.33 162.83 151.33 158.06C151.33 153.29 155.14 150.88 158.29 150.88C160.29 150.88 162.1 151.66 163.28 153.23C163.47 153.47 163.69 153.69 163.69 154.01C163.69 154.47 163.31 154.77 162.88 154.77C162.56 154.77 162.26 154.58 162.04 154.28C161.2 153.09 159.72 152.5 158.37 152.5C155.91 152.5 153.16 154.31 153.16 158.06C153.16 161.81 155.91 163.59 158.37 163.59C159.72 163.59 161.2 163 162.04 161.81C162.26 161.51 162.55 161.32 162.88 161.32C163.31 161.32 163.69 161.62 163.69 162.08V162.08Z" fill="black"/>
<path d="M172.02 164.05C172.02 164.94 170.67 165.21 169.64 165.21C168.34 165.21 167.1 164.72 167.1 162.54V152.61H165.78C165.32 152.61 165 152.31 165 151.83C165 151.35 165.32 151.05 165.78 151.05H167.1V148.59C167.1 148.08 167.5 147.67 168.02 147.67C168.54 147.67 168.94 148.08 168.94 148.59V151.05H171.21C171.67 151.05 172.02 151.35 172.02 151.83C172.02 152.31 171.67 152.61 171.21 152.61H168.94V162.44C168.94 163.3 169.32 163.63 170.02 163.63C170.45 163.63 170.8 163.52 171.1 163.44C171.61 163.28 172.02 163.6 172.02 164.06V164.05Z" fill="black"/>
<path d="M174.15 146.48C174.15 145.97 174.58 145.54 175.1 145.54C175.62 145.54 176.04 145.97 176.04 146.48C176.04 146.99 175.61 147.43 175.1 147.43C174.59 147.43 174.15 147 174.15 146.48ZM176.01 151.91V164.3C176.01 164.81 175.6 165.24 175.09 165.24C174.58 165.24 174.17 164.81 174.17 164.3V151.91C174.17 151.4 174.58 150.97 175.09 150.97C175.6 150.97 176.01 151.4 176.01 151.91V151.91Z" fill="black"/>
<path d="M192.66 158.06C192.66 162.89 188.8 165.27 185.67 165.27C182.54 165.27 178.71 162.89 178.71 158.06C178.71 153.23 182.57 150.88 185.67 150.88C188.77 150.88 192.66 153.26 192.66 158.06ZM180.54 158.06C180.54 161.84 183.32 163.65 185.67 163.65C188.02 163.65 190.83 161.84 190.83 158.06C190.83 154.28 188.05 152.5 185.67 152.5C183.29 152.5 180.54 154.31 180.54 158.06Z" fill="black"/>
<path d="M207.73 156.82V164.27C207.73 164.76 207.32 165.21 206.81 165.21C206.3 165.21 205.89 164.75 205.89 164.27V156.82C205.89 153.69 203.97 152.56 201.98 152.56C199.12 152.56 197.55 154.91 197.26 156.69V164.27C197.26 164.76 196.85 165.21 196.34 165.21C195.83 165.21 195.42 164.75 195.42 164.27V151.91C195.42 151.4 195.83 150.97 196.34 150.97C196.85 150.97 197.26 151.4 197.26 151.91V154.34C197.42 153.45 199.12 150.91 202.42 150.91C204.93 150.91 207.74 152.37 207.74 156.82H207.73Z" fill="black"/>
<path d="M226.41 147.1C226.41 147.51 226.09 147.83 225.71 147.83C225.47 147.83 225.17 147.72 224.87 147.56C224.49 147.32 223.93 147.07 223.12 147.07C221.58 147.07 220.69 148.02 220.69 149.99V151.04H224.09C224.55 151.04 224.9 151.34 224.9 151.82C224.9 152.3 224.55 152.6 224.09 152.6H220.69V164.29C220.69 164.78 220.28 165.23 219.77 165.23C219.26 165.23 218.85 164.77 218.85 164.29V152.6H217.85C217.39 152.6 217.07 152.3 217.07 151.82C217.07 151.34 217.39 151.04 217.85 151.04H218.85V149.93C218.85 146.42 221.14 145.45 223.01 145.45C224.25 145.45 225.28 145.86 226.01 146.4C226.23 146.56 226.41 146.8 226.41 147.1V147.1Z" fill="black"/>
<path d="M235.41 151.8C235.41 152.34 234.95 152.69 234.17 152.69C231.5 152.69 229.66 154.82 229.37 156.69V164.27C229.37 164.78 228.96 165.21 228.45 165.21C227.94 165.21 227.53 164.78 227.53 164.27V151.91C227.53 151.4 227.94 150.97 228.45 150.97C228.96 150.97 229.37 151.4 229.37 151.91V154.34C229.53 153.45 231.31 150.91 234.31 150.91C235.01 150.91 235.42 151.29 235.42 151.8H235.41Z" fill="black"/>
<path d="M250.07 158.06C250.07 162.89 246.21 165.27 243.08 165.27C239.95 165.27 236.12 162.89 236.12 158.06C236.12 153.23 239.98 150.88 243.08 150.88C246.18 150.88 250.07 153.26 250.07 158.06ZM237.95 158.06C237.95 161.84 240.73 163.65 243.08 163.65C245.43 163.65 248.24 161.84 248.24 158.06C248.24 154.28 245.46 152.5 243.08 152.5C240.7 152.5 237.95 154.31 237.95 158.06Z" fill="black"/>
<path d="M275.62 156.82V164.27C275.62 164.76 275.22 165.21 274.7 165.21C274.21 165.21 273.78 164.75 273.78 164.27V156.82C273.78 153.69 271.86 152.56 269.89 152.56C267 152.56 265.44 154.91 265.14 156.69V164.27C265.14 164.76 264.73 165.21 264.22 165.21C263.71 165.21 263.3 164.75 263.3 164.27V156.82C263.3 153.69 261.38 152.56 259.39 152.56C256.53 152.56 254.96 154.91 254.67 156.69V164.27C254.67 164.76 254.26 165.21 253.75 165.21C253.24 165.21 252.83 164.75 252.83 164.27V151.91C252.83 151.4 253.24 150.97 253.75 150.97C254.26 150.97 254.67 151.4 254.67 151.91V154.34C254.83 153.45 256.53 150.91 259.83 150.91C261.83 150.91 264.04 151.83 264.82 154.5C265.6 152.8 267.41 150.91 270.33 150.91C272.84 150.91 275.62 152.37 275.62 156.82V156.82Z" fill="black"/>
<path d="M308.83 156.82V164.27C308.83 164.76 308.43 165.21 307.91 165.21C307.42 165.21 306.99 164.75 306.99 164.27V156.82C306.99 153.69 305.07 152.56 303.1 152.56C300.21 152.56 298.65 154.91 298.35 156.69V164.27C298.35 164.76 297.94 165.21 297.43 165.21C296.92 165.21 296.51 164.75 296.51 164.27V156.82C296.51 153.69 294.59 152.56 292.6 152.56C289.74 152.56 288.17 154.91 287.88 156.69V164.27C287.88 164.76 287.47 165.21 286.96 165.21C286.45 165.21 286.04 164.75 286.04 164.27V151.91C286.04 151.4 286.45 150.97 286.96 150.97C287.47 150.97 287.88 151.4 287.88 151.91V154.34C288.04 153.45 289.74 150.91 293.04 150.91C295.04 150.91 297.25 151.83 298.03 154.5C298.81 152.8 300.62 150.91 303.54 150.91C306.05 150.91 308.83 152.37 308.83 156.82V156.82Z" fill="black"/>
<path d="M323.25 153.87V151.9C323.25 151.39 323.68 150.96 324.17 150.96C324.71 150.96 325.12 151.39 325.12 151.9V164.29C325.12 164.78 324.69 165.23 324.17 165.23C323.68 165.23 323.25 164.77 323.25 164.29V162.02C322.47 163.96 320.5 165.26 318.23 165.26C315.21 165.26 311.54 162.91 311.54 158.05C311.54 153.19 315.21 150.87 318.23 150.87C320.31 150.87 322.33 151.9 323.25 153.87ZM323.36 158.05C323.36 154.16 320.71 152.49 318.42 152.49C316.13 152.49 313.37 154.27 313.37 158.05C313.37 161.83 316.12 163.64 318.42 163.64C320.72 163.64 323.36 161.86 323.36 158.05Z" fill="black"/>
<path d="M337.42 153.15C337.58 153.42 337.66 153.64 337.66 153.88C337.66 154.34 337.31 154.64 336.88 154.64C336.53 154.64 336.29 154.45 335.96 153.97C335.42 153.16 334.45 152.46 332.88 152.46C331.07 152.46 329.99 153.38 329.99 154.7C329.99 155.73 330.69 156.51 332.39 156.94L334.12 157.4C336.63 158.02 338.22 159.05 338.22 161.15C338.22 163.79 335.68 165.23 332.88 165.23C330.64 165.23 328.7 164.23 328.08 162.8C327.97 162.58 327.76 162.29 327.76 161.88C327.76 161.39 328.06 161.04 328.52 161.04C328.95 161.04 329.17 161.28 329.36 161.69C329.93 163.04 331.33 163.61 332.9 163.61C334.79 163.61 336.44 162.85 336.44 161.26C336.44 159.99 335.44 159.4 333.98 159.02L331.82 158.45C329.31 157.8 328.2 156.42 328.2 154.72C328.2 152.45 330.22 150.89 332.92 150.89C335 150.89 336.59 151.78 337.43 153.16L337.42 153.15Z" fill="black"/>
<path d="M349.78 153.15C349.94 153.42 350.02 153.64 350.02 153.88C350.02 154.34 349.67 154.64 349.24 154.64C348.89 154.64 348.65 154.45 348.32 153.97C347.78 153.16 346.81 152.46 345.24 152.46C343.43 152.46 342.35 153.38 342.35 154.7C342.35 155.73 343.05 156.51 344.75 156.94L346.48 157.4C348.99 158.02 350.58 159.05 350.58 161.15C350.58 163.79 348.04 165.23 345.24 165.23C343 165.23 341.06 164.23 340.44 162.8C340.33 162.58 340.12 162.29 340.12 161.88C340.12 161.39 340.42 161.04 340.88 161.04C341.31 161.04 341.53 161.28 341.72 161.69C342.29 163.04 343.69 163.61 345.26 163.61C347.15 163.61 348.8 162.85 348.8 161.26C348.8 159.99 347.8 159.4 346.34 159.02L344.18 158.45C341.67 157.8 340.56 156.42 340.56 154.72C340.56 152.45 342.58 150.89 345.28 150.89C347.36 150.89 348.95 151.78 349.79 153.16L349.78 153.15Z" fill="black"/>
<path d="M373.92 158.06C373.92 162.92 370.25 165.27 367.23 165.27C364.96 165.27 362.99 163.98 362.21 162.03V164.3C362.21 164.79 361.78 165.24 361.29 165.24C360.78 165.24 360.34 164.78 360.34 164.3V146.75C360.34 146.24 360.77 145.81 361.26 145.81C361.77 145.81 362.18 146.24 362.18 146.75V151.69C362.21 151.74 362.21 151.82 362.21 151.9V153.87C363.13 151.9 365.15 150.87 367.23 150.87C370.25 150.87 373.92 153.25 373.92 158.05V158.06ZM372.08 158.06C372.08 154.28 369.33 152.5 367.03 152.5C364.73 152.5 362.09 154.17 362.09 158.06C362.09 161.95 364.74 163.65 367.03 163.65C369.32 163.65 372.08 161.87 372.08 158.06Z" fill="black"/>
<path d="M389.97 158.06C389.97 162.89 386.11 165.27 382.98 165.27C379.85 165.27 376.02 162.89 376.02 158.06C376.02 153.23 379.88 150.88 382.98 150.88C386.08 150.88 389.97 153.26 389.97 158.06ZM377.85 158.06C377.85 161.84 380.63 163.65 382.98 163.65C385.33 163.65 388.14 161.84 388.14 158.06C388.14 154.28 385.36 152.5 382.98 152.5C380.6 152.5 377.85 154.31 377.85 158.06Z" fill="black"/>
<path d="M398.12 164.05C398.12 164.94 396.77 165.21 395.74 165.21C394.44 165.21 393.2 164.72 393.2 162.54V152.61H391.88C391.42 152.61 391.1 152.31 391.1 151.83C391.1 151.35 391.42 151.05 391.88 151.05H393.2V148.59C393.2 148.08 393.6 147.67 394.12 147.67C394.64 147.67 395.04 148.08 395.04 148.59V151.05H397.31C397.77 151.05 398.12 151.35 398.12 151.83C398.12 152.31 397.77 152.61 397.31 152.61H395.04V162.44C395.04 163.3 395.42 163.63 396.12 163.63C396.55 163.63 396.9 163.52 397.2 163.44C397.71 163.28 398.12 163.6 398.12 164.06V164.05Z" fill="black"/>
<path d="M88.8398 178.88C88.8398 178.37 89.2698 177.93 89.7898 177.93C90.3098 177.93 90.7299 178.36 90.7299 178.88C90.7299 179.4 90.2998 179.83 89.7898 179.83C89.2798 179.83 88.8398 179.4 88.8398 178.88ZM90.6998 184.31V196.7C90.6998 197.21 90.2898 197.64 89.7798 197.64C89.2698 197.64 88.8598 197.21 88.8598 196.7V184.31C88.8598 183.8 89.2698 183.36 89.7798 183.36C90.2898 183.36 90.6998 183.79 90.6998 184.31Z" fill="black"/>
<path d="M106.39 189.22V196.67C106.39 197.16 105.98 197.61 105.47 197.61C104.96 197.61 104.55 197.15 104.55 196.67V189.22C104.55 186.09 102.63 184.96 100.64 184.96C97.7801 184.96 96.2101 187.31 95.9201 189.09V196.68C95.9201 197.17 95.5101 197.62 95.0001 197.62C94.4901 197.62 94.0801 197.16 94.0801 196.68V184.32C94.0801 183.81 94.4901 183.37 95.0001 183.37C95.5101 183.37 95.9201 183.8 95.9201 184.32V186.75C96.0801 185.86 97.7801 183.32 101.08 183.32C103.59 183.32 106.4 184.78 106.4 189.23L106.39 189.22Z" fill="black"/>
<path d="M117.81 179.5C117.81 179.9 117.49 180.23 117.11 180.23C116.87 180.23 116.57 180.12 116.27 179.96C115.89 179.72 115.33 179.47 114.52 179.47C112.98 179.47 112.09 180.42 112.09 182.39V183.44H115.49C115.95 183.44 116.3 183.74 116.3 184.22C116.3 184.7 115.95 185 115.49 185H112.09V196.69C112.09 197.18 111.68 197.63 111.17 197.63C110.66 197.63 110.25 197.17 110.25 196.69V185H109.25C108.79 185 108.47 184.7 108.47 184.22C108.47 183.74 108.79 183.44 109.25 183.44H110.25V182.33C110.25 178.82 112.54 177.85 114.41 177.85C115.65 177.85 116.68 178.25 117.41 178.79C117.63 178.95 117.81 179.2 117.81 179.49V179.5ZM121.1 179.12V196.67C121.1 197.16 120.69 197.61 120.18 197.61C119.67 197.61 119.26 197.15 119.26 196.67V179.12C119.26 178.63 119.67 178.2 120.18 178.2C120.69 178.2 121.1 178.63 121.1 179.12Z" fill="black"/>
<path d="M124.6 191.78V184.33C124.6 183.84 125.01 183.38 125.52 183.38C126.03 183.38 126.44 183.84 126.44 184.33V191.78C126.44 194.91 128.36 196.05 130.35 196.05C133.21 196.05 134.78 193.7 135.07 191.92V184.34C135.07 183.85 135.48 183.39 135.99 183.39C136.5 183.39 136.91 183.85 136.91 184.34V196.7C136.91 197.21 136.5 197.64 135.99 197.64C135.48 197.64 135.07 197.21 135.07 196.7V194.27C134.91 195.16 133.21 197.7 129.91 197.7C127.4 197.7 124.59 196.24 124.59 191.79L124.6 191.78Z" fill="black"/>
<path d="M150.52 196.78C150.52 197.24 150.14 197.62 149.68 197.62C149.44 197.62 149.19 197.51 149.03 197.3L144.87 191.66L140.69 197.3C140.53 197.52 140.28 197.62 140.02 197.62C139.59 197.62 139.21 197.24 139.21 196.78C139.21 196.59 139.29 196.43 139.37 196.29L143.85 190.41L139.5 184.66C139.39 184.53 139.31 184.36 139.31 184.17C139.31 183.74 139.72 183.36 140.17 183.36C140.41 183.36 140.66 183.49 140.82 183.68L144.87 189.11L148.89 183.68C149.05 183.49 149.3 183.36 149.54 183.36C150 183.36 150.38 183.74 150.38 184.17C150.38 184.36 150.33 184.52 150.22 184.66L145.87 190.41L150.35 196.29C150.43 196.42 150.51 196.59 150.51 196.78H150.52Z" fill="black"/>
<path d="M152.12 200.23L153.69 195.91C153.85 195.4 154.15 195.21 154.58 195.21H155.36C155.87 195.21 155.98 195.51 155.74 195.99L153.61 200.42C153.42 200.82 153.12 200.93 152.75 200.93H152.59C152.16 200.93 151.97 200.63 152.13 200.23H152.12Z" fill="black"/>
<path d="M188.37 189.22V196.67C188.37 197.16 187.97 197.61 187.45 197.61C186.96 197.61 186.53 197.15 186.53 196.67V189.22C186.53 186.09 184.61 184.96 182.64 184.96C179.75 184.96 178.19 187.31 177.89 189.09V196.68C177.89 197.17 177.48 197.62 176.97 197.62C176.46 197.62 176.05 197.16 176.05 196.68V189.23C176.05 186.1 174.13 184.97 172.14 184.97C169.28 184.97 167.71 187.32 167.42 189.1V196.69C167.42 197.18 167.01 197.63 166.5 197.63C165.99 197.63 165.58 197.17 165.58 196.69V184.33C165.58 183.82 165.99 183.38 166.5 183.38C167.01 183.38 167.42 183.81 167.42 184.33V186.76C167.58 185.87 169.28 183.33 172.58 183.33C174.58 183.33 176.79 184.25 177.57 186.92C178.35 185.22 180.16 183.33 183.08 183.33C185.59 183.33 188.37 184.79 188.37 189.24V189.22Z" fill="black"/>
<path d="M202.79 186.28V184.31C202.79 183.8 203.22 183.36 203.71 183.36C204.25 183.36 204.66 183.79 204.66 184.31V196.7C204.66 197.19 204.23 197.64 203.71 197.64C203.22 197.64 202.79 197.18 202.79 196.7V194.43C202.01 196.37 200.04 197.67 197.77 197.67C194.75 197.67 191.08 195.32 191.08 190.46C191.08 185.6 194.75 183.28 197.77 183.28C199.85 183.28 201.87 184.31 202.79 186.28V186.28ZM202.9 190.46C202.9 186.57 200.25 184.9 197.96 184.9C195.67 184.9 192.91 186.68 192.91 190.46C192.91 194.24 195.66 196.05 197.96 196.05C200.26 196.05 202.9 194.27 202.9 190.46Z" fill="black"/>
<path d="M216.96 185.55C217.12 185.82 217.2 186.04 217.2 186.28C217.2 186.74 216.85 187.04 216.42 187.04C216.07 187.04 215.83 186.85 215.5 186.36C214.96 185.55 213.99 184.85 212.42 184.85C210.61 184.85 209.53 185.77 209.53 187.09C209.53 188.12 210.23 188.9 211.93 189.33L213.66 189.79C216.17 190.41 217.76 191.44 217.76 193.54C217.76 196.19 215.22 197.62 212.42 197.62C210.18 197.62 208.24 196.62 207.62 195.19C207.51 194.97 207.3 194.68 207.3 194.27C207.3 193.78 207.6 193.43 208.06 193.43C208.49 193.43 208.71 193.67 208.9 194.08C209.47 195.43 210.87 196 212.44 196C214.33 196 215.98 195.24 215.98 193.65C215.98 192.38 214.98 191.79 213.52 191.41L211.36 190.84C208.85 190.19 207.74 188.82 207.74 187.11C207.74 184.84 209.76 183.28 212.46 183.28C214.54 183.28 216.13 184.17 216.97 185.55H216.96Z" fill="black"/>
<path d="M229.32 185.55C229.48 185.82 229.56 186.04 229.56 186.28C229.56 186.74 229.21 187.04 228.78 187.04C228.43 187.04 228.19 186.85 227.86 186.36C227.32 185.55 226.35 184.85 224.78 184.85C222.97 184.85 221.89 185.77 221.89 187.09C221.89 188.12 222.59 188.9 224.29 189.33L226.02 189.79C228.53 190.41 230.12 191.44 230.12 193.54C230.12 196.19 227.58 197.62 224.78 197.62C222.54 197.62 220.6 196.62 219.98 195.19C219.87 194.97 219.66 194.68 219.66 194.27C219.66 193.78 219.96 193.43 220.42 193.43C220.85 193.43 221.07 193.67 221.26 194.08C221.83 195.43 223.23 196 224.8 196C226.69 196 228.34 195.24 228.34 193.65C228.34 192.38 227.34 191.79 225.88 191.41L223.72 190.84C221.21 190.19 220.1 188.82 220.1 187.11C220.1 184.84 222.12 183.28 224.82 183.28C226.9 183.28 228.49 184.17 229.33 185.55H229.32Z" fill="black"/>
<path d="M248.87 185.55C249.03 185.82 249.11 186.04 249.11 186.28C249.11 186.74 248.76 187.04 248.33 187.04C247.98 187.04 247.74 186.85 247.41 186.36C246.87 185.55 245.9 184.85 244.33 184.85C242.52 184.85 241.44 185.77 241.44 187.09C241.44 188.12 242.14 188.9 243.84 189.33L245.57 189.79C248.08 190.41 249.67 191.44 249.67 193.54C249.67 196.19 247.13 197.62 244.33 197.62C242.09 197.62 240.15 196.62 239.53 195.19C239.42 194.97 239.21 194.68 239.21 194.27C239.21 193.78 239.51 193.43 239.97 193.43C240.4 193.43 240.62 193.67 240.81 194.08C241.38 195.43 242.78 196 244.35 196C246.24 196 247.89 195.24 247.89 193.65C247.89 192.38 246.89 191.79 245.43 191.41L243.27 190.84C240.76 190.19 239.65 188.82 239.65 187.11C239.65 184.84 241.67 183.28 244.37 183.28C246.45 183.28 248.04 184.17 248.88 185.55H248.87Z" fill="black"/>
<path d="M265.89 190.46C265.89 195.32 262.22 197.67 259.2 197.67C256.93 197.67 254.96 196.37 254.18 194.43V196.7C254.18 196.78 254.18 196.83 254.15 196.92V201.81C254.15 202.3 253.74 202.73 253.23 202.73C252.72 202.73 252.31 202.3 252.31 201.81V184.32C252.31 183.81 252.72 183.37 253.26 183.37C253.75 183.37 254.18 183.8 254.18 184.32V186.29C255.1 184.32 257.12 183.29 259.2 183.29C262.22 183.29 265.89 185.67 265.89 190.47V190.46ZM264.05 190.46C264.05 186.68 261.3 184.9 259 184.9C256.7 184.9 254.06 186.57 254.06 190.46C254.06 194.35 256.71 196.05 259 196.05C261.29 196.05 264.05 194.27 264.05 190.46Z" fill="black"/>
<path d="M279.71 186.28V184.31C279.71 183.8 280.14 183.36 280.63 183.36C281.17 183.36 281.58 183.79 281.58 184.31V196.7C281.58 197.19 281.15 197.64 280.63 197.64C280.14 197.64 279.71 197.18 279.71 196.7V194.43C278.93 196.37 276.96 197.67 274.69 197.67C271.67 197.67 268 195.32 268 190.46C268 185.6 271.67 183.28 274.69 183.28C276.77 183.28 278.79 184.31 279.71 186.28V186.28ZM279.82 190.46C279.82 186.57 277.17 184.9 274.88 184.9C272.59 184.9 269.83 186.68 269.83 190.46C269.83 194.24 272.58 196.05 274.88 196.05C277.18 196.05 279.82 194.27 279.82 190.46Z" fill="black"/>
<path d="M307.78 189.22V196.67C307.78 197.16 307.38 197.61 306.86 197.61C306.37 197.61 305.94 197.15 305.94 196.67V189.22C305.94 186.09 304.02 184.96 302.05 184.96C299.16 184.96 297.6 187.31 297.3 189.09V196.68C297.3 197.17 296.89 197.62 296.38 197.62C295.87 197.62 295.46 197.16 295.46 196.68V189.23C295.46 186.1 293.54 184.97 291.55 184.97C288.69 184.97 287.12 187.32 286.83 189.1V196.69C286.83 197.18 286.42 197.63 285.91 197.63C285.4 197.63 284.99 197.17 284.99 196.69V184.33C284.99 183.82 285.4 183.38 285.91 183.38C286.42 183.38 286.83 183.81 286.83 184.33V186.76C286.99 185.87 288.69 183.33 291.99 183.33C293.99 183.33 296.2 184.25 296.98 186.92C297.76 185.22 299.57 183.33 302.49 183.33C305 183.33 307.78 184.79 307.78 189.24V189.22Z" fill="black"/>
<path d="M310.14 200.23L311.71 195.91C311.87 195.4 312.17 195.21 312.6 195.21H313.38C313.89 195.21 314 195.51 313.76 195.99L311.63 200.42C311.44 200.82 311.14 200.93 310.77 200.93H310.61C310.18 200.93 309.99 200.63 310.15 200.23H310.14Z" fill="black"/>
<path d="M346.4 189.22V196.67C346.4 197.16 346 197.61 345.48 197.61C344.99 197.61 344.56 197.15 344.56 196.67V189.22C344.56 186.09 342.64 184.96 340.67 184.96C337.78 184.96 336.22 187.31 335.92 189.09V196.68C335.92 197.17 335.51 197.62 335 197.62C334.49 197.62 334.08 197.16 334.08 196.68V189.23C334.08 186.1 332.16 184.97 330.17 184.97C327.31 184.97 325.74 187.32 325.45 189.1V196.69C325.45 197.18 325.04 197.63 324.53 197.63C324.02 197.63 323.61 197.17 323.61 196.69V184.33C323.61 183.82 324.02 183.38 324.53 183.38C325.04 183.38 325.45 183.81 325.45 184.33V186.76C325.61 185.87 327.31 183.33 330.61 183.33C332.61 183.33 334.82 184.25 335.6 186.92C336.38 185.22 338.19 183.33 341.11 183.33C343.62 183.33 346.4 184.79 346.4 189.24V189.22Z" fill="black"/>
<path d="M360.82 186.28V184.31C360.82 183.8 361.25 183.36 361.74 183.36C362.28 183.36 362.69 183.79 362.69 184.31V196.7C362.69 197.19 362.26 197.64 361.74 197.64C361.25 197.64 360.82 197.18 360.82 196.7V194.43C360.04 196.37 358.07 197.67 355.8 197.67C352.78 197.67 349.11 195.32 349.11 190.46C349.11 185.6 352.78 183.28 355.8 183.28C357.88 183.28 359.9 184.31 360.82 186.28V186.28ZM360.93 190.46C360.93 186.57 358.28 184.9 355.99 184.9C353.7 184.9 350.94 186.68 350.94 190.46C350.94 194.24 353.69 196.05 355.99 196.05C358.29 196.05 360.93 194.27 360.93 190.46Z" fill="black"/>
<path d="M374.99 185.55C375.15 185.82 375.23 186.04 375.23 186.28C375.23 186.74 374.88 187.04 374.45 187.04C374.1 187.04 373.86 186.85 373.53 186.36C372.99 185.55 372.02 184.85 370.45 184.85C368.64 184.85 367.56 185.77 367.56 187.09C367.56 188.12 368.26 188.9 369.96 189.33L371.69 189.79C374.2 190.41 375.79 191.44 375.79 193.54C375.79 196.19 373.25 197.62 370.45 197.62C368.21 197.62 366.27 196.62 365.65 195.19C365.54 194.97 365.33 194.68 365.33 194.27C365.33 193.78 365.63 193.43 366.09 193.43C366.52 193.43 366.74 193.67 366.93 194.08C367.5 195.43 368.9 196 370.47 196C372.36 196 374.01 195.24 374.01 193.65C374.01 192.38 373.01 191.79 371.55 191.41L369.39 190.84C366.88 190.19 365.77 188.82 365.77 187.11C365.77 184.84 367.79 183.28 370.49 183.28C372.57 183.28 374.16 184.17 375 185.55H374.99Z" fill="black"/>
<path d="M387.35 185.55C387.51 185.82 387.59 186.04 387.59 186.28C387.59 186.74 387.24 187.04 386.81 187.04C386.46 187.04 386.22 186.85 385.89 186.36C385.35 185.55 384.38 184.85 382.81 184.85C381 184.85 379.92 185.77 379.92 187.09C379.92 188.12 380.62 188.9 382.32 189.33L384.05 189.79C386.56 190.41 388.15 191.44 388.15 193.54C388.15 196.19 385.61 197.62 382.81 197.62C380.57 197.62 378.63 196.62 378.01 195.19C377.9 194.97 377.69 194.68 377.69 194.27C377.69 193.78 377.99 193.43 378.45 193.43C378.88 193.43 379.1 193.67 379.29 194.08C379.86 195.43 381.26 196 382.83 196C384.72 196 386.37 195.24 386.37 193.65C386.37 192.38 385.37 191.79 383.91 191.41L381.75 190.84C379.24 190.19 378.13 188.82 378.13 187.11C378.13 184.84 380.15 183.28 382.85 183.28C384.93 183.28 386.52 184.17 387.36 185.55H387.35Z" fill="black"/>
<path d="M103.33 220.46C103.33 226.4 99.6101 229.88 93.9101 229.88H89.8601C89.2701 229.88 88.8301 229.45 88.8301 228.85V211.98C88.8301 211.39 89.2601 210.98 89.8601 210.98H93.9101C99.6101 210.98 103.33 214.44 103.33 220.45V220.46ZM101.47 220.46C101.47 215.28 98.6901 212.6 93.9101 212.6H90.7201V228.26H93.9101C98.6901 228.26 101.47 225.56 101.47 220.46V220.46Z" fill="black"/>
<path d="M126.6 211.71V228.99C126.6 229.5 126.19 229.96 125.68 229.96C125.14 229.96 124.71 229.5 124.71 228.99V215.22L117.42 228.72C117.23 229.1 116.91 229.26 116.58 229.26C116.25 229.26 115.96 229.07 115.74 228.72L108.45 215.22V228.99C108.45 229.5 108.02 229.96 107.51 229.96C107 229.96 106.56 229.5 106.56 228.99V211.71C106.56 211.2 106.97 210.9 107.37 210.9C107.8 210.9 108.15 211.14 108.4 211.55L116.58 226.61L124.79 211.55C125.01 211.15 125.38 210.9 125.79 210.9C126.22 210.9 126.6 211.2 126.6 211.71Z" fill="black"/>
<path d="M129.46 232.63L131.03 228.31C131.19 227.8 131.49 227.61 131.92 227.61H132.7C133.21 227.61 133.32 227.91 133.08 228.39L130.95 232.82C130.76 233.23 130.46 233.33 130.09 233.33H129.93C129.5 233.33 129.31 233.03 129.47 232.63H129.46Z" fill="black"/>
<path d="M154.1 218.67V216.7C154.1 216.19 154.53 215.75 155.02 215.75C155.56 215.75 155.97 216.18 155.97 216.7V229.09C155.97 229.58 155.54 230.04 155.02 230.04C154.53 230.04 154.1 229.58 154.1 229.09V226.82C153.32 228.76 151.35 230.06 149.08 230.06C146.06 230.06 142.39 227.71 142.39 222.85C142.39 217.99 146.06 215.67 149.08 215.67C151.16 215.67 153.18 216.7 154.1 218.67V218.67ZM154.21 222.85C154.21 218.96 151.56 217.29 149.27 217.29C146.98 217.29 144.22 219.07 144.22 222.85C144.22 226.63 146.97 228.44 149.27 228.44C151.57 228.44 154.21 226.66 154.21 222.85Z" fill="black"/>
<path d="M171.7 221.62V229.07C171.7 229.56 171.29 230.01 170.78 230.01C170.27 230.01 169.86 229.55 169.86 229.07V221.62C169.86 218.49 167.94 217.35 165.95 217.35C163.09 217.35 161.52 219.7 161.23 221.48V229.06C161.23 229.55 160.82 230 160.31 230C159.8 230 159.39 229.54 159.39 229.06V216.7C159.39 216.19 159.8 215.75 160.31 215.75C160.82 215.75 161.23 216.18 161.23 216.7V219.13C161.39 218.24 163.09 215.7 166.39 215.7C168.9 215.7 171.71 217.16 171.71 221.61L171.7 221.62Z" fill="black"/>
<path d="M187.94 211.55V229.09C187.94 229.58 187.51 230.04 186.99 230.04C186.5 230.04 186.07 229.58 186.07 229.09V226.82C185.29 228.76 183.32 230.06 181.05 230.06C178.03 230.06 174.36 227.71 174.36 222.85C174.36 217.99 178.03 215.67 181.05 215.67C183.13 215.67 185.15 216.7 186.07 218.67V216.7C186.07 216.62 186.07 216.54 186.1 216.48V211.54C186.1 211.03 186.51 210.59 187.02 210.59C187.51 210.59 187.94 211.02 187.94 211.54V211.55ZM186.19 222.86C186.19 218.97 183.54 217.3 181.25 217.3C178.96 217.3 176.2 219.08 176.2 222.86C176.2 226.64 178.95 228.45 181.25 228.45C183.55 228.45 186.19 226.67 186.19 222.86Z" fill="black"/>
<path d="M198.36 211.28C198.36 210.77 198.79 210.33 199.31 210.33C199.83 210.33 200.25 210.76 200.25 211.28C200.25 211.8 199.82 212.22 199.31 212.22C198.8 212.22 198.36 211.79 198.36 211.28ZM200.22 216.71V229.1C200.22 229.61 199.81 230.05 199.3 230.05C198.79 230.05 198.38 229.62 198.38 229.1V216.71C198.38 216.2 198.79 215.76 199.3 215.76C199.81 215.76 200.22 216.19 200.22 216.71V216.71Z" fill="black"/>
<path d="M226.39 221.62V229.07C226.39 229.56 225.99 230.01 225.47 230.01C224.98 230.01 224.55 229.55 224.55 229.07V221.62C224.55 218.49 222.63 217.35 220.66 217.35C217.77 217.35 216.21 219.7 215.91 221.48V229.06C215.91 229.55 215.5 230 214.99 230C214.48 230 214.07 229.54 214.07 229.06V221.61C214.07 218.48 212.15 217.34 210.16 217.34C207.3 217.34 205.73 219.69 205.44 221.47V229.05C205.44 229.54 205.03 229.99 204.52 229.99C204.01 229.99 203.6 229.53 203.6 229.05V216.69C203.6 216.18 204.01 215.74 204.52 215.74C205.03 215.74 205.44 216.17 205.44 216.69V219.12C205.6 218.23 207.3 215.69 210.6 215.69C212.6 215.69 214.81 216.61 215.59 219.28C216.37 217.58 218.18 215.69 221.1 215.69C223.61 215.69 226.39 217.15 226.39 221.6V221.62Z" fill="black"/>
<path d="M243.39 222.86C243.39 227.72 239.72 230.07 236.7 230.07C234.43 230.07 232.46 228.77 231.68 226.83V229.1C231.68 229.18 231.68 229.23 231.65 229.32V234.2C231.65 234.69 231.24 235.12 230.73 235.12C230.22 235.12 229.81 234.69 229.81 234.2V216.71C229.81 216.2 230.22 215.76 230.76 215.76C231.25 215.76 231.68 216.19 231.68 216.71V218.68C232.6 216.71 234.62 215.68 236.7 215.68C239.72 215.68 243.39 218.06 243.39 222.86ZM241.55 222.86C241.55 219.08 238.8 217.3 236.5 217.3C234.2 217.3 231.56 218.97 231.56 222.86C231.56 226.75 234.21 228.45 236.5 228.45C238.79 228.45 241.55 226.67 241.55 222.86Z" fill="black"/>
<path d="M259.1 222.53C259.1 223.23 258.67 223.58 257.91 223.58H247.38C247.6 226.9 250.16 228.44 252.62 228.44C253.91 228.44 255.1 228.03 256.02 227.28C256.37 227.01 256.59 226.88 256.83 226.88C257.29 226.88 257.56 227.2 257.56 227.61C257.56 227.85 257.45 228.1 257.05 228.47C255.92 229.5 254.27 230.01 252.57 230.01C249.17 230.01 245.5 227.72 245.5 222.86C245.5 218 249.28 215.68 252.36 215.68C255.44 215.68 259.11 218.08 259.11 222.54L259.1 222.53ZM247.38 222.1H257.31C257.09 218.81 254.53 217.3 252.34 217.3C250.15 217.3 247.62 218.81 247.37 222.1H247.38Z" fill="black"/>
<path d="M269.59 216.6C269.59 217.14 269.13 217.49 268.35 217.49C265.68 217.49 263.84 219.62 263.55 221.49V229.07C263.55 229.58 263.14 230.01 262.63 230.01C262.12 230.01 261.71 229.58 261.71 229.07V216.71C261.71 216.2 262.12 215.76 262.63 215.76C263.14 215.76 263.55 216.19 263.55 216.71V219.14C263.71 218.25 265.49 215.71 268.49 215.71C269.19 215.71 269.6 216.09 269.6 216.6H269.59Z" fill="black"/>
<path d="M280.49 217.95C280.65 218.22 280.73 218.44 280.73 218.68C280.73 219.14 280.38 219.44 279.95 219.44C279.6 219.44 279.36 219.25 279.03 218.77C278.49 217.96 277.52 217.26 275.95 217.26C274.14 217.26 273.06 218.18 273.06 219.5C273.06 220.53 273.76 221.31 275.46 221.74L277.19 222.2C279.7 222.82 281.29 223.85 281.29 225.95C281.29 228.6 278.75 230.03 275.95 230.03C273.71 230.03 271.77 229.03 271.15 227.6C271.04 227.39 270.83 227.09 270.83 226.68C270.83 226.19 271.13 225.84 271.59 225.84C272.02 225.84 272.24 226.08 272.43 226.49C273 227.84 274.4 228.41 275.97 228.41C277.86 228.41 279.51 227.65 279.51 226.06C279.51 224.79 278.51 224.2 277.05 223.82L274.89 223.25C272.38 222.6 271.27 221.23 271.27 219.53C271.27 217.26 273.29 215.7 275.99 215.7C278.07 215.7 279.66 216.59 280.5 217.97L280.49 217.95Z" fill="black"/>
<path d="M297.09 222.86C297.09 227.69 293.23 230.07 290.1 230.07C286.97 230.07 283.14 227.69 283.14 222.86C283.14 218.03 287 215.68 290.1 215.68C293.2 215.68 297.09 218.06 297.09 222.86ZM284.97 222.86C284.97 226.64 287.75 228.45 290.1 228.45C292.45 228.45 295.26 226.64 295.26 222.86C295.26 219.08 292.48 217.3 290.1 217.3C287.72 217.3 284.97 219.11 284.97 222.86Z" fill="black"/>
<path d="M312.16 221.62V229.07C312.16 229.56 311.75 230.01 311.24 230.01C310.73 230.01 310.32 229.55 310.32 229.07V221.62C310.32 218.49 308.4 217.35 306.41 217.35C303.55 217.35 301.98 219.7 301.69 221.48V229.06C301.69 229.55 301.28 230 300.77 230C300.26 230 299.85 229.54 299.85 229.06V216.7C299.85 216.19 300.26 215.75 300.77 215.75C301.28 215.75 301.69 216.18 301.69 216.7V219.13C301.85 218.24 303.55 215.7 306.85 215.7C309.36 215.7 312.17 217.16 312.17 221.61L312.16 221.62Z" fill="black"/>
<path d="M326.54 218.67V216.7C326.54 216.19 326.97 215.75 327.46 215.75C328 215.75 328.41 216.18 328.41 216.7V229.09C328.41 229.58 327.98 230.04 327.46 230.04C326.97 230.04 326.54 229.58 326.54 229.09V226.82C325.76 228.76 323.79 230.06 321.52 230.06C318.5 230.06 314.83 227.71 314.83 222.85C314.83 217.99 318.5 215.67 321.52 215.67C323.6 215.67 325.62 216.7 326.54 218.67V218.67ZM326.65 222.85C326.65 218.96 324 217.29 321.71 217.29C319.42 217.29 316.66 219.07 316.66 222.85C316.66 226.63 319.41 228.44 321.71 228.44C324.01 228.44 326.65 226.66 326.65 222.85Z" fill="black"/>
<path d="M337.45 228.85C337.45 229.74 336.1 230.01 335.07 230.01C333.77 230.01 332.53 229.52 332.53 227.34V217.41H331.21C330.75 217.41 330.43 217.11 330.43 216.63C330.43 216.15 330.75 215.85 331.21 215.85H332.53V213.39C332.53 212.88 332.93 212.47 333.45 212.47C333.97 212.47 334.37 212.87 334.37 213.39V215.85H336.64C337.1 215.85 337.45 216.15 337.45 216.63C337.45 217.11 337.1 217.41 336.64 217.41H334.37V227.24C334.37 228.1 334.75 228.43 335.45 228.43C335.88 228.43 336.23 228.32 336.53 228.24C337.04 228.08 337.45 228.4 337.45 228.86V228.85Z" fill="black"/>
<path d="M339.58 211.28C339.58 210.77 340.01 210.33 340.53 210.33C341.05 210.33 341.47 210.76 341.47 211.28C341.47 211.8 341.04 212.22 340.53 212.22C340.02 212.22 339.58 211.79 339.58 211.28ZM341.44 216.71V229.1C341.44 229.61 341.03 230.05 340.52 230.05C340.01 230.05 339.6 229.62 339.6 229.1V216.71C339.6 216.2 340.01 215.76 340.52 215.76C341.03 215.76 341.44 216.19 341.44 216.71V216.71Z" fill="black"/>
<path d="M358.09 222.86C358.09 227.69 354.23 230.07 351.1 230.07C347.97 230.07 344.14 227.69 344.14 222.86C344.14 218.03 348 215.68 351.1 215.68C354.2 215.68 358.09 218.06 358.09 222.86ZM345.97 222.86C345.97 226.64 348.75 228.45 351.1 228.45C353.45 228.45 356.26 226.64 356.26 222.86C356.26 219.08 353.48 217.3 351.1 217.3C348.72 217.3 345.97 219.11 345.97 222.86Z" fill="black"/>
<path d="M373.16 221.62V229.07C373.16 229.56 372.75 230.01 372.24 230.01C371.73 230.01 371.32 229.55 371.32 229.07V221.62C371.32 218.49 369.4 217.35 367.41 217.35C364.55 217.35 362.98 219.7 362.69 221.48V229.06C362.69 229.55 362.28 230 361.77 230C361.26 230 360.85 229.54 360.85 229.06V216.7C360.85 216.19 361.26 215.75 361.77 215.75C362.28 215.75 362.69 216.18 362.69 216.7V219.13C362.85 218.24 364.55 215.7 367.85 215.7C370.36 215.7 373.17 217.16 373.17 221.61L373.16 221.62Z" fill="black"/>
<path d="M152.35 272.12C152.35 275.5 149.92 277.44 145.39 277.44H140.56C139.97 277.44 139.53 277.01 139.53 276.41V259.54C139.53 258.95 139.96 258.54 140.56 258.54H145.28C149.06 258.54 151.22 260.37 151.22 263.24C151.22 264.97 150.38 266.4 148.3 267.07C151.16 267.96 152.35 269.77 152.35 272.12ZM141.42 266.45H145.28C147.98 266.45 149.38 265.48 149.38 263.4C149.38 261.43 147.98 260.16 145.28 260.16H141.42V266.45ZM150.52 272.01C150.52 269.58 148.82 267.96 145.39 267.96H141.42V275.81H145.39C148.85 275.81 150.52 274.49 150.52 272V272.01Z" fill="black"/>
<path d="M168.23 270.09C168.23 270.79 167.8 271.14 167.04 271.14H156.51C156.73 274.46 159.29 276 161.75 276C163.04 276 164.23 275.6 165.15 274.84C165.5 274.57 165.72 274.44 165.96 274.44C166.42 274.44 166.69 274.76 166.69 275.17C166.69 275.41 166.58 275.66 166.18 276.03C165.05 277.06 163.4 277.57 161.7 277.57C158.3 277.57 154.63 275.28 154.63 270.42C154.63 265.56 158.41 263.24 161.49 263.24C164.57 263.24 168.24 265.64 168.24 270.1L168.23 270.09ZM156.51 269.66H166.44C166.22 266.37 163.66 264.86 161.47 264.86C159.28 264.86 156.75 266.37 156.5 269.66H156.51Z" fill="black"/>
<path d="M183.87 270.09C183.87 270.79 183.44 271.14 182.68 271.14H172.15C172.37 274.46 174.93 276 177.39 276C178.69 276 179.87 275.6 180.79 274.84C181.14 274.57 181.36 274.44 181.6 274.44C182.06 274.44 182.33 274.76 182.33 275.17C182.33 275.41 182.22 275.66 181.82 276.03C180.69 277.06 179.04 277.57 177.34 277.57C173.94 277.57 170.27 275.28 170.27 270.42C170.27 265.56 174.05 263.24 177.13 263.24C180.21 263.24 183.88 265.64 183.88 270.1L183.87 270.09ZM172.16 269.66H182.09C181.87 266.37 179.31 264.86 177.12 264.86C174.93 264.86 172.4 266.37 172.15 269.66H172.16Z" fill="black"/>
<path d="M209.26 269.18V276.63C209.26 277.12 208.86 277.58 208.34 277.58C207.85 277.58 207.42 277.12 207.42 276.63V269.18C207.42 266.05 205.5 264.91 203.53 264.91C200.64 264.91 199.08 267.26 198.78 269.04V276.62C198.78 277.11 198.37 277.57 197.86 277.57C197.35 277.57 196.94 277.11 196.94 276.62V269.17C196.94 266.04 195.02 264.9 193.03 264.9C190.17 264.9 188.6 267.25 188.31 269.03V276.61C188.31 277.1 187.9 277.56 187.39 277.56C186.88 277.56 186.47 277.1 186.47 276.61V264.25C186.47 263.74 186.88 263.31 187.39 263.31C187.9 263.31 188.31 263.74 188.31 264.25V266.68C188.47 265.79 190.17 263.25 193.47 263.25C195.47 263.25 197.68 264.17 198.46 266.84C199.24 265.14 201.05 263.25 203.97 263.25C206.48 263.25 209.26 264.71 209.26 269.16V269.18Z" fill="black"/>
<path d="M225.92 270.42C225.92 275.25 222.06 277.63 218.93 277.63C215.8 277.63 211.97 275.25 211.97 270.42C211.97 265.59 215.83 263.24 218.93 263.24C222.03 263.24 225.92 265.62 225.92 270.42ZM213.8 270.42C213.8 274.2 216.58 276.01 218.93 276.01C221.28 276.01 224.09 274.2 224.09 270.42C224.09 266.64 221.31 264.86 218.93 264.86C216.55 264.86 213.8 266.67 213.8 270.42Z" fill="black"/>
<path d="M154.51 318.92C154.51 319.27 154.24 319.62 153.78 319.97C152.4 321.02 150.7 321.62 148.68 321.62C143.98 321.62 139.26 317.68 139.26 311.98C139.26 306.28 143.93 302.34 148.73 302.34C150.73 302.34 152.37 302.93 153.75 303.96C154.29 304.34 154.51 304.63 154.51 305.04C154.51 305.55 154.1 305.9 153.65 305.9C153.27 305.9 153 305.68 152.62 305.39C151.76 304.66 150.27 304.12 148.71 304.12C144.9 304.12 141.21 307.39 141.21 311.98C141.21 316.57 144.94 319.83 148.69 319.83C150.28 319.83 151.77 319.29 152.63 318.56C153.01 318.26 153.3 318.05 153.66 318.05C154.12 318.05 154.52 318.4 154.52 318.91L154.51 318.92Z" fill="black"/>
<path d="M167.87 310.23V308.26C167.87 307.75 168.3 307.32 168.79 307.32C169.33 307.32 169.74 307.75 169.74 308.26V320.65C169.74 321.14 169.31 321.6 168.79 321.6C168.3 321.6 167.87 321.14 167.87 320.65V318.38C167.09 320.32 165.12 321.62 162.85 321.62C159.83 321.62 156.16 319.27 156.16 314.41C156.16 309.55 159.83 307.23 162.85 307.23C164.93 307.23 166.95 308.26 167.87 310.23ZM167.98 314.41C167.98 310.52 165.33 308.85 163.04 308.85C160.75 308.85 157.99 310.63 157.99 314.41C157.99 318.19 160.74 320 163.04 320C165.34 320 167.98 318.22 167.98 314.41Z" fill="black"/>
<path d="M186.74 314.42C186.74 319.28 183.07 321.63 180.05 321.63C177.78 321.63 175.81 320.33 175.03 318.39V320.66C175.03 320.74 175.03 320.79 175 320.88V325.77C175 326.26 174.59 326.69 174.08 326.69C173.57 326.69 173.16 326.26 173.16 325.77V308.28C173.16 307.77 173.57 307.34 174.11 307.34C174.6 307.34 175.03 307.77 175.03 308.28V310.25C175.95 308.28 177.97 307.25 180.05 307.25C183.07 307.25 186.74 309.63 186.74 314.43V314.42ZM184.9 314.42C184.9 310.64 182.15 308.86 179.85 308.86C177.55 308.86 174.91 310.53 174.91 314.42C174.91 318.31 177.56 320.01 179.85 320.01C182.14 320.01 184.9 318.23 184.9 314.42Z" fill="black"/>
<path d="M194.88 320.41C194.88 321.3 193.53 321.57 192.5 321.57C191.2 321.57 189.96 321.08 189.96 318.9V308.97H188.64C188.18 308.97 187.86 308.67 187.86 308.19C187.86 307.71 188.18 307.41 188.64 307.41H189.96V304.95C189.96 304.44 190.36 304.03 190.88 304.03C191.4 304.03 191.8 304.43 191.8 304.95V307.41H194.07C194.53 307.41 194.88 307.71 194.88 308.19C194.88 308.67 194.53 308.97 194.07 308.97H191.8V318.79C191.8 319.65 192.18 319.98 192.88 319.98C193.31 319.98 193.66 319.87 193.96 319.79C194.47 319.63 194.88 319.95 194.88 320.41Z" fill="black"/>
<path d="M208.29 318.44C208.29 318.76 208.07 318.98 207.88 319.22C206.69 320.79 204.88 321.57 202.89 321.57C199.73 321.57 195.93 319.19 195.93 314.42C195.93 309.65 199.74 307.24 202.89 307.24C204.89 307.24 206.7 308.02 207.88 309.59C208.07 309.83 208.29 310.05 208.29 310.37C208.29 310.83 207.91 311.13 207.48 311.13C207.16 311.13 206.86 310.94 206.64 310.64C205.8 309.45 204.32 308.86 202.97 308.86C200.51 308.86 197.76 310.67 197.76 314.42C197.76 318.17 200.51 319.95 202.97 319.95C204.32 319.95 205.8 319.36 206.64 318.17C206.86 317.87 207.15 317.68 207.48 317.68C207.91 317.68 208.29 317.98 208.29 318.44Z" fill="black"/>
<path d="M223.26 313.18V320.63C223.26 321.12 222.85 321.58 222.34 321.58C221.83 321.58 221.42 321.12 221.42 320.63V313.18C221.42 310.05 219.5 308.91 217.51 308.91C214.65 308.91 213.08 311.26 212.79 313.04V320.62C212.79 321.11 212.38 321.57 211.87 321.57C211.36 321.57 210.95 321.11 210.95 320.62V303.08C210.95 302.59 211.36 302.16 211.87 302.16C212.38 302.16 212.79 302.59 212.79 303.08V310.69C212.95 309.8 214.65 307.26 217.95 307.26C220.46 307.26 223.27 308.72 223.27 313.17L223.26 313.18Z" fill="black"/>
<path d="M237.64 310.23V308.26C237.64 307.75 238.07 307.32 238.56 307.32C239.1 307.32 239.51 307.75 239.51 308.26V320.65C239.51 321.14 239.08 321.6 238.56 321.6C238.07 321.6 237.64 321.14 237.64 320.65V318.38C236.86 320.32 234.89 321.62 232.62 321.62C229.6 321.62 225.93 319.27 225.93 314.41C225.93 309.55 229.6 307.23 232.62 307.23C234.7 307.23 236.72 308.26 237.64 310.23ZM237.75 314.41C237.75 310.52 235.1 308.85 232.81 308.85C230.52 308.85 227.76 310.63 227.76 314.41C227.76 318.19 230.51 320 232.81 320C235.11 320 237.75 318.22 237.75 314.41Z" fill="black"/>
<path d="M242.58 320.3C242.58 319.68 243.09 319.17 243.74 319.17C244.39 319.17 244.87 319.68 244.87 320.3C244.87 320.92 244.36 321.46 243.74 321.46C243.12 321.46 242.58 320.95 242.58 320.3Z" fill="black"/>
<path d="M261.49 314.42C261.49 319.28 257.82 321.63 254.8 321.63C252.53 321.63 250.56 320.33 249.78 318.39V320.66C249.78 321.15 249.35 321.61 248.86 321.61C248.35 321.61 247.91 321.15 247.91 320.66V303.12C247.91 302.61 248.34 302.17 248.83 302.17C249.34 302.17 249.75 302.6 249.75 303.12V308.06C249.78 308.11 249.78 308.19 249.78 308.28V310.25C250.7 308.28 252.72 307.25 254.8 307.25C257.82 307.25 261.49 309.63 261.49 314.43V314.42ZM259.65 314.42C259.65 310.64 256.9 308.86 254.6 308.86C252.3 308.86 249.66 310.53 249.66 314.42C249.66 318.31 252.31 320.01 254.6 320.01C256.89 320.01 259.65 318.23 259.65 314.42Z" fill="black"/>
<path d="M277.55 314.42C277.55 319.25 273.69 321.63 270.56 321.63C267.43 321.63 263.6 319.25 263.6 314.42C263.6 309.59 267.46 307.24 270.56 307.24C273.66 307.24 277.55 309.62 277.55 314.42ZM265.43 314.42C265.43 318.2 268.21 320.01 270.56 320.01C272.91 320.01 275.72 318.2 275.72 314.42C275.72 310.64 272.94 308.86 270.56 308.86C268.18 308.86 265.43 310.67 265.43 314.42Z" fill="black"/>
<path d="M285.7 320.41C285.7 321.3 284.35 321.57 283.32 321.57C282.02 321.57 280.78 321.08 280.78 318.9V308.97H279.46C279 308.97 278.68 308.67 278.68 308.19C278.68 307.71 279 307.41 279.46 307.41H280.78V304.95C280.78 304.44 281.18 304.03 281.7 304.03C282.22 304.03 282.62 304.43 282.62 304.95V307.41H284.89C285.35 307.41 285.7 307.71 285.7 308.19C285.7 308.67 285.35 308.97 284.89 308.97H282.62V318.79C282.62 319.65 283 319.98 283.7 319.98C284.13 319.98 284.48 319.87 284.78 319.79C285.29 319.63 285.7 319.95 285.7 320.41Z" fill="black"/>
<path d="M152.7 346.46C153.21 346.46 153.62 346.89 153.62 347.41V364.58C153.62 365.09 153.21 365.52 152.7 365.52C152.16 365.52 151.76 365.09 151.76 364.58V357.05H141.42V364.58C141.42 365.09 140.99 365.52 140.48 365.52C139.94 365.52 139.53 365.09 139.53 364.58V347.41C139.53 346.9 139.94 346.46 140.48 346.46C141.02 346.46 141.42 346.89 141.42 347.41V355.4H151.76V347.41C151.76 346.9 152.16 346.46 152.7 346.46Z" fill="black"/>
<path d="M168.42 354.23V352.26C168.42 351.75 168.85 351.32 169.34 351.32C169.88 351.32 170.29 351.75 170.29 352.26V364.65C170.29 365.14 169.86 365.6 169.34 365.6C168.85 365.6 168.42 365.14 168.42 364.65V362.38C167.64 364.32 165.67 365.62 163.4 365.62C160.38 365.62 156.71 363.27 156.71 358.41C156.71 353.55 160.38 351.23 163.4 351.23C165.48 351.23 167.5 352.26 168.42 354.23ZM168.53 358.41C168.53 354.52 165.88 352.85 163.59 352.85C161.3 352.85 158.54 354.63 158.54 358.41C158.54 362.19 161.29 364 163.59 364C165.89 364 168.53 362.22 168.53 358.41Z" fill="black"/>
<path d="M182.59 353.5C182.75 353.77 182.83 353.99 182.83 354.23C182.83 354.69 182.48 354.99 182.05 354.99C181.7 354.99 181.46 354.8 181.13 354.32C180.59 353.51 179.62 352.81 178.05 352.81C176.24 352.81 175.16 353.73 175.16 355.05C175.16 356.08 175.86 356.86 177.56 357.29L179.29 357.75C181.8 358.37 183.39 359.4 183.39 361.5C183.39 364.15 180.85 365.58 178.05 365.58C175.81 365.58 173.87 364.58 173.25 363.15C173.14 362.93 172.93 362.64 172.93 362.23C172.93 361.74 173.23 361.39 173.69 361.39C174.12 361.39 174.34 361.63 174.53 362.04C175.1 363.39 176.5 363.96 178.07 363.96C179.96 363.96 181.61 363.2 181.61 361.61C181.61 360.34 180.61 359.75 179.15 359.37L176.99 358.8C174.48 358.15 173.37 356.78 173.37 355.08C173.37 352.81 175.39 351.25 178.09 351.25C180.17 351.25 181.76 352.14 182.6 353.52L182.59 353.5Z" fill="black"/>
<path d="M198.34 357.18V364.63C198.34 365.12 197.93 365.58 197.42 365.58C196.91 365.58 196.5 365.12 196.5 364.63V357.18C196.5 354.05 194.58 352.91 192.59 352.91C189.73 352.91 188.16 355.26 187.87 357.04V364.62C187.87 365.11 187.46 365.57 186.95 365.57C186.44 365.57 186.03 365.11 186.03 364.62V347.08C186.03 346.59 186.44 346.16 186.95 346.16C187.46 346.16 187.87 346.59 187.87 347.08V354.69C188.03 353.8 189.73 351.26 193.03 351.26C195.54 351.26 198.35 352.72 198.35 357.17L198.34 357.18Z" fill="black"/>
<path d="M215.3 358.42C215.3 363.28 211.63 365.63 208.61 365.63C206.34 365.63 204.37 364.33 203.59 362.39V364.66C203.59 365.15 203.16 365.61 202.67 365.61C202.16 365.61 201.72 365.15 201.72 364.66V347.12C201.72 346.61 202.15 346.17 202.64 346.17C203.15 346.17 203.56 346.6 203.56 347.12V352.06C203.59 352.11 203.59 352.19 203.59 352.28V354.25C204.51 352.28 206.53 351.25 208.61 351.25C211.63 351.25 215.3 353.63 215.3 358.43V358.42ZM213.46 358.42C213.46 354.64 210.71 352.86 208.41 352.86C206.11 352.86 203.47 354.53 203.47 358.42C203.47 362.31 206.12 364.01 208.41 364.01C210.7 364.01 213.46 362.23 213.46 358.42Z" fill="black"/>
<path d="M231.35 358.42C231.35 363.25 227.49 365.63 224.36 365.63C221.23 365.63 217.4 363.25 217.4 358.42C217.4 353.59 221.26 351.24 224.36 351.24C227.46 351.24 231.35 353.62 231.35 358.42ZM219.23 358.42C219.23 362.2 222.01 364.01 224.36 364.01C226.71 364.01 229.52 362.2 229.52 358.42C229.52 354.64 226.74 352.86 224.36 352.86C221.98 352.86 219.23 354.67 219.23 358.42Z" fill="black"/>
<path d="M239.5 364.41C239.5 365.3 238.15 365.57 237.12 365.57C235.82 365.57 234.58 365.08 234.58 362.9V352.97H233.26C232.8 352.97 232.48 352.67 232.48 352.19C232.48 351.71 232.8 351.41 233.26 351.41H234.58V348.95C234.58 348.44 234.98 348.03 235.5 348.03C236.02 348.03 236.42 348.43 236.42 348.95V351.41H238.69C239.15 351.41 239.5 351.71 239.5 352.19C239.5 352.67 239.15 352.97 238.69 352.97H236.42V362.79C236.42 363.65 236.8 363.98 237.5 363.98C237.93 363.98 238.28 363.87 238.58 363.79C239.09 363.63 239.5 363.95 239.5 364.41Z" fill="black"/>
<path d="M150.6 393.16C150.84 393.57 150.95 393.83 150.95 394.11C150.95 394.54 150.65 394.89 150.17 394.89C149.74 394.89 149.5 394.65 149.28 394.35C148.52 393.06 147.39 392.06 145.31 392.06C143.02 392.06 141.48 393.19 141.48 395.08C141.48 396.73 142.64 397.7 144.56 398.46L146.26 399.13C149.5 400.43 151.77 401.56 151.77 404.45C151.77 407.82 148.48 409.63 145.37 409.63C142.86 409.63 140.32 408.44 139.27 406.26C139.16 406.04 139 405.77 139 405.48C139 404.99 139.3 404.62 139.81 404.62C140.27 404.62 140.57 404.89 140.75 405.24C141.61 406.97 143.31 407.91 145.39 407.91C147.58 407.91 149.87 406.91 149.87 404.45C149.87 402.32 148.14 401.62 146.01 400.78L144.12 400.02C141.5 398.99 139.61 397.59 139.61 395.11C139.61 392.25 142.15 390.36 145.28 390.36C147.87 390.36 149.65 391.71 150.6 393.17V393.16Z" fill="black"/>
<path d="M168.2 402.42C168.2 407.28 164.53 409.63 161.51 409.63C159.24 409.63 157.27 408.33 156.49 406.39V408.66C156.49 408.74 156.49 408.79 156.46 408.88V413.77C156.46 414.26 156.05 414.69 155.54 414.69C155.03 414.69 154.62 414.26 154.62 413.77V396.28C154.62 395.77 155.03 395.34 155.57 395.34C156.06 395.34 156.49 395.77 156.49 396.28V398.25C157.41 396.28 159.43 395.25 161.51 395.25C164.53 395.25 168.2 397.63 168.2 402.43V402.42ZM166.36 402.42C166.36 398.64 163.61 396.86 161.31 396.86C159.01 396.86 156.37 398.53 156.37 402.42C156.37 406.31 159.02 408.01 161.31 408.01C163.6 408.01 166.36 406.23 166.36 402.42Z" fill="black"/>
<path d="M182.01 398.23V396.26C182.01 395.75 182.44 395.32 182.93 395.32C183.47 395.32 183.88 395.75 183.88 396.26V408.65C183.88 409.14 183.45 409.6 182.93 409.6C182.44 409.6 182.01 409.14 182.01 408.65V406.38C181.23 408.32 179.26 409.62 176.99 409.62C173.97 409.62 170.3 407.27 170.3 402.41C170.3 397.55 173.97 395.23 176.99 395.23C179.07 395.23 181.09 396.26 182.01 398.23ZM182.12 402.41C182.12 398.52 179.47 396.85 177.18 396.85C174.89 396.85 172.13 398.63 172.13 402.41C172.13 406.19 174.88 408 177.18 408C179.48 408 182.12 406.22 182.12 402.41Z" fill="black"/>
<path d="M210.08 401.18V408.63C210.08 409.12 209.68 409.58 209.16 409.58C208.67 409.58 208.24 409.12 208.24 408.63V401.18C208.24 398.05 206.32 396.91 204.35 396.91C201.46 396.91 199.9 399.26 199.6 401.04V408.62C199.6 409.11 199.19 409.57 198.68 409.57C198.17 409.57 197.76 409.11 197.76 408.62V401.17C197.76 398.04 195.84 396.9 193.85 396.9C190.99 396.9 189.42 399.25 189.13 401.03V408.61C189.13 409.1 188.72 409.56 188.21 409.56C187.7 409.56 187.29 409.1 187.29 408.61V396.25C187.29 395.74 187.7 395.31 188.21 395.31C188.72 395.31 189.13 395.74 189.13 396.25V398.68C189.29 397.79 190.99 395.25 194.29 395.25C196.29 395.25 198.5 396.17 199.28 398.84C200.06 397.14 201.87 395.25 204.79 395.25C207.3 395.25 210.08 396.71 210.08 401.16V401.18Z" fill="black"/>
<path d="M235 400.01C235 405.95 231.28 409.43 225.58 409.43H221.53C220.94 409.43 220.5 409 220.5 408.4V391.53C220.5 390.94 220.93 390.53 221.53 390.53H225.58C231.28 390.53 235 393.99 235 400V400.01ZM233.14 400.01C233.14 394.83 230.36 392.16 225.58 392.16H222.39V407.82H225.58C230.36 407.82 233.14 405.12 233.14 400.02V400.01Z" fill="black"/>
<path d="M250.96 402.09C250.96 402.79 250.53 403.14 249.77 403.14H239.24C239.46 406.46 242.02 408 244.48 408C245.78 408 246.96 407.6 247.88 406.84C248.23 406.57 248.45 406.44 248.69 406.44C249.15 406.44 249.42 406.76 249.42 407.17C249.42 407.41 249.31 407.66 248.91 408.03C247.78 409.06 246.13 409.57 244.43 409.57C241.03 409.57 237.36 407.28 237.36 402.42C237.36 397.56 241.14 395.24 244.22 395.24C247.3 395.24 250.97 397.64 250.97 402.1L250.96 402.09ZM239.25 401.66H249.18C248.96 398.37 246.4 396.86 244.21 396.86C242.02 396.86 239.49 398.37 239.24 401.66H239.25Z" fill="black"/>
<path d="M261.43 391.46C261.43 391.87 261.11 392.19 260.73 392.19C260.49 392.19 260.19 392.08 259.89 391.92C259.51 391.68 258.95 391.43 258.14 391.43C256.6 391.43 255.71 392.37 255.71 394.35V395.4H259.11C259.57 395.4 259.92 395.7 259.92 396.18C259.92 396.66 259.57 396.96 259.11 396.96H255.71V408.65C255.71 409.14 255.3 409.6 254.79 409.6C254.28 409.6 253.87 409.14 253.87 408.65V396.96H252.87C252.41 396.96 252.09 396.66 252.09 396.18C252.09 395.7 252.41 395.4 252.87 395.4H253.87V394.29C253.87 390.78 256.16 389.81 258.03 389.81C259.27 389.81 260.3 390.22 261.03 390.75C261.25 390.91 261.43 391.16 261.43 391.45V391.46Z" fill="black"/>
<path d="M274.73 402.09C274.73 402.79 274.3 403.14 273.54 403.14H263.01C263.23 406.46 265.79 408 268.25 408C269.55 408 270.73 407.6 271.65 406.84C272 406.57 272.22 406.44 272.46 406.44C272.92 406.44 273.19 406.76 273.19 407.17C273.19 407.41 273.08 407.66 272.68 408.03C271.55 409.06 269.9 409.57 268.2 409.57C264.8 409.57 261.13 407.28 261.13 402.42C261.13 397.56 264.91 395.24 267.99 395.24C271.07 395.24 274.74 397.64 274.74 402.1L274.73 402.09ZM263.02 401.66H272.95C272.73 398.37 270.17 396.86 267.98 396.86C265.79 396.86 263.26 398.37 263.01 401.66H263.02Z" fill="black"/>
<path d="M289.64 401.18V408.63C289.64 409.12 289.23 409.58 288.72 409.58C288.21 409.58 287.8 409.12 287.8 408.63V401.18C287.8 398.05 285.88 396.91 283.89 396.91C281.03 396.91 279.46 399.26 279.17 401.04V408.62C279.17 409.11 278.76 409.57 278.25 409.57C277.74 409.57 277.33 409.11 277.33 408.62V396.26C277.33 395.75 277.74 395.32 278.25 395.32C278.76 395.32 279.17 395.75 279.17 396.26V398.69C279.33 397.8 281.03 395.26 284.33 395.26C286.84 395.26 289.65 396.72 289.65 401.17L289.64 401.18Z" fill="black"/>
<path d="M305.88 391.11V408.65C305.88 409.14 305.45 409.6 304.93 409.6C304.44 409.6 304.01 409.14 304.01 408.65V406.38C303.23 408.32 301.26 409.62 298.99 409.62C295.97 409.62 292.3 407.27 292.3 402.41C292.3 397.55 295.97 395.23 298.99 395.23C301.07 395.23 303.09 396.26 304.01 398.23V396.26C304.01 396.18 304.01 396.1 304.04 396.04V391.1C304.04 390.59 304.45 390.15 304.96 390.15C305.45 390.15 305.88 390.58 305.88 391.1V391.11ZM304.13 402.42C304.13 398.53 301.48 396.86 299.19 396.86C296.9 396.86 294.14 398.64 294.14 402.42C294.14 406.2 296.89 408.01 299.19 408.01C301.49 408.01 304.13 406.23 304.13 402.42Z" fill="black"/>
<path d="M322.25 402.09C322.25 402.79 321.82 403.14 321.06 403.14H310.53C310.75 406.46 313.31 408 315.77 408C317.07 408 318.25 407.6 319.17 406.84C319.52 406.57 319.74 406.44 319.98 406.44C320.44 406.44 320.71 406.76 320.71 407.17C320.71 407.41 320.6 407.66 320.2 408.03C319.07 409.06 317.42 409.57 315.72 409.57C312.32 409.57 308.65 407.28 308.65 402.42C308.65 397.56 312.43 395.24 315.51 395.24C318.59 395.24 322.26 397.64 322.26 402.1L322.25 402.09ZM310.54 401.66H320.47C320.25 398.37 317.69 396.86 315.5 396.86C313.31 396.86 310.78 398.37 310.53 401.66H310.54Z" fill="black"/>
<path d="M332.74 396.15C332.74 396.69 332.28 397.04 331.5 397.04C328.83 397.04 326.99 399.17 326.7 401.04V408.62C326.7 409.13 326.29 409.57 325.78 409.57C325.27 409.57 324.86 409.14 324.86 408.62V396.26C324.86 395.75 325.27 395.32 325.78 395.32C326.29 395.32 326.7 395.75 326.7 396.26V398.69C326.86 397.8 328.64 395.26 331.64 395.26C332.34 395.26 332.75 395.64 332.75 396.15H332.74Z" fill="black"/>
<path d="M152.3 440.34C152.3 443.96 149.71 446.22 145.5 446.22H141.42V452.59C141.42 453.1 140.99 453.54 140.48 453.54C139.94 453.54 139.53 453.11 139.53 452.59V435.53C139.53 434.94 139.96 434.53 140.56 434.53H145.5C149.71 434.53 152.3 436.93 152.3 440.33V440.34ZM150.47 440.34C150.47 437.72 148.58 436.18 145.45 436.18H141.43V444.6H145.45C148.58 444.6 150.47 443.2 150.47 440.34Z" fill="black"/>
<path d="M165.56 442.23V440.26C165.56 439.75 165.99 439.32 166.48 439.32C167.02 439.32 167.43 439.75 167.43 440.26V452.65C167.43 453.14 167 453.6 166.48 453.6C165.99 453.6 165.56 453.14 165.56 452.65V450.38C164.78 452.32 162.81 453.62 160.54 453.62C157.52 453.62 153.85 451.27 153.85 446.41C153.85 441.55 157.52 439.23 160.54 439.23C162.62 439.23 164.64 440.26 165.56 442.23ZM165.67 446.41C165.67 442.52 163.02 440.85 160.73 440.85C158.44 440.85 155.68 442.63 155.68 446.41C155.68 450.19 158.43 452 160.73 452C163.03 452 165.67 450.22 165.67 446.41Z" fill="black"/>
<path d="M183.16 445.18V452.63C183.16 453.12 182.75 453.58 182.24 453.58C181.73 453.58 181.32 453.12 181.32 452.63V445.18C181.32 442.05 179.4 440.91 177.41 440.91C174.55 440.91 172.98 443.26 172.69 445.04V452.62C172.69 453.11 172.28 453.57 171.77 453.57C171.26 453.57 170.85 453.11 170.85 452.62V440.26C170.85 439.75 171.26 439.32 171.77 439.32C172.28 439.32 172.69 439.75 172.69 440.26V442.69C172.85 441.8 174.55 439.26 177.85 439.26C180.36 439.26 183.17 440.72 183.17 445.17L183.16 445.18Z" fill="black"/>
<path d="M199.4 435.11V452.65C199.4 453.14 198.97 453.6 198.45 453.6C197.96 453.6 197.53 453.14 197.53 452.65V450.38C196.75 452.32 194.78 453.62 192.51 453.62C189.49 453.62 185.82 451.27 185.82 446.41C185.82 441.55 189.49 439.23 192.51 439.23C194.59 439.23 196.61 440.26 197.53 442.23V440.26C197.53 440.18 197.53 440.1 197.56 440.04V435.1C197.56 434.59 197.97 434.15 198.48 434.15C198.97 434.15 199.4 434.58 199.4 435.1V435.11ZM197.65 446.42C197.65 442.53 195 440.86 192.71 440.86C190.42 440.86 187.66 442.64 187.66 446.42C187.66 450.2 190.41 452.01 192.71 452.01C195.01 452.01 197.65 450.23 197.65 446.42Z" fill="black"/>
<path d="M215.76 446.09C215.76 446.79 215.33 447.14 214.57 447.14H204.04C204.26 450.46 206.82 452 209.28 452C210.57 452 211.76 451.6 212.68 450.84C213.03 450.57 213.25 450.44 213.49 450.44C213.95 450.44 214.22 450.76 214.22 451.17C214.22 451.41 214.11 451.66 213.71 452.03C212.58 453.06 210.93 453.57 209.23 453.57C205.83 453.57 202.16 451.28 202.16 446.42C202.16 441.56 205.94 439.24 209.02 439.24C212.1 439.24 215.77 441.64 215.77 446.1L215.76 446.09ZM204.04 445.66H213.97C213.75 442.37 211.19 440.86 209 440.86C206.81 440.86 204.28 442.37 204.03 445.66H204.04Z" fill="black"/>
<path d="M227.47 441.5L218.97 451.81H227.23C227.66 451.81 228.07 452.16 228.07 452.62C228.07 453.08 227.66 453.43 227.23 453.43H218.3C217.14 453.43 216.52 452.3 217.38 451.32L225.88 441.01H218.11C217.65 441.01 217.3 440.66 217.3 440.17C217.3 439.74 217.65 439.39 218.11 439.39H226.56C227.69 439.39 228.34 440.52 227.48 441.5H227.47Z" fill="black"/>
<path d="M255.68 445.07C255.46 450.44 251.77 453.63 247.18 453.63C242.59 453.63 237.68 449.69 237.68 443.99C237.68 438.29 242.35 434.35 247.15 434.35C249.15 434.35 250.79 434.94 252.17 435.97C252.71 436.35 252.93 436.64 252.93 437.05C252.93 437.56 252.52 437.91 252.07 437.91C251.69 437.91 251.42 437.69 251.04 437.4C250.18 436.67 248.69 436.13 247.13 436.13C243.32 436.13 239.63 439.4 239.63 443.99C239.63 448.58 243.36 451.84 247.19 451.84C250.7 451.84 253.56 449.49 253.88 445.61H248.91C248.42 445.61 248.05 445.23 248.05 444.8C248.05 444.34 248.43 443.96 248.91 443.96H254.77C255.42 443.96 255.74 444.42 255.69 445.07H255.68Z" fill="black"/>
<path d="M258.47 447.74V440.29C258.47 439.8 258.88 439.35 259.39 439.35C259.9 439.35 260.31 439.81 260.31 440.29V447.74C260.31 450.87 262.23 452 264.22 452C267.08 452 268.65 449.65 268.94 447.87V440.28C268.94 439.79 269.35 439.34 269.86 439.34C270.37 439.34 270.78 439.8 270.78 440.28V452.64C270.78 453.15 270.37 453.59 269.86 453.59C269.35 453.59 268.94 453.16 268.94 452.64V450.21C268.78 451.1 267.08 453.64 263.78 453.64C261.27 453.64 258.46 452.18 258.46 447.73L258.47 447.74Z" fill="black"/>
<path d="M285.26 442.23V440.26C285.26 439.75 285.69 439.32 286.18 439.32C286.72 439.32 287.13 439.75 287.13 440.26V452.65C287.13 453.14 286.7 453.6 286.18 453.6C285.69 453.6 285.26 453.14 285.26 452.65V450.38C284.48 452.32 282.51 453.62 280.24 453.62C277.22 453.62 273.55 451.27 273.55 446.41C273.55 441.55 277.22 439.23 280.24 439.23C282.32 439.23 284.34 440.26 285.26 442.23ZM285.37 446.41C285.37 442.52 282.72 440.85 280.43 440.85C278.14 440.85 275.38 442.63 275.38 446.41C275.38 450.19 278.13 452 280.43 452C282.73 452 285.37 450.22 285.37 446.41Z" fill="black"/>
<path d="M298.43 440.15C298.43 440.69 297.97 441.04 297.19 441.04C294.52 441.04 292.68 443.17 292.39 445.04V452.62C292.39 453.13 291.98 453.57 291.47 453.57C290.96 453.57 290.55 453.14 290.55 452.62V440.26C290.55 439.75 290.96 439.32 291.47 439.32C291.98 439.32 292.39 439.75 292.39 440.26V442.69C292.55 441.8 294.33 439.26 297.33 439.26C298.03 439.26 298.44 439.64 298.44 440.15H298.43Z" fill="black"/>
<path d="M312.76 435.11V452.65C312.76 453.14 312.33 453.6 311.81 453.6C311.32 453.6 310.89 453.14 310.89 452.65V450.38C310.11 452.32 308.14 453.62 305.87 453.62C302.85 453.62 299.18 451.27 299.18 446.41C299.18 441.55 302.85 439.23 305.87 439.23C307.95 439.23 309.97 440.26 310.89 442.23V440.26C310.89 440.18 310.89 440.1 310.92 440.04V435.1C310.92 434.59 311.33 434.15 311.84 434.15C312.33 434.15 312.76 434.58 312.76 435.1V435.11ZM311.01 446.42C311.01 442.53 308.36 440.86 306.07 440.86C303.78 440.86 301.02 442.64 301.02 446.42C301.02 450.2 303.77 452.01 306.07 452.01C308.37 452.01 311.01 450.23 311.01 446.42Z" fill="black"/>
<path d="M336.01 448.12C336.01 451.5 333.58 453.44 329.05 453.44H324.22C323.63 453.44 323.19 453.01 323.19 452.41V435.54C323.19 434.95 323.62 434.54 324.22 434.54H328.94C332.72 434.54 334.88 436.37 334.88 439.24C334.88 440.97 334.04 442.4 331.96 443.07C334.82 443.96 336.01 445.77 336.01 448.12V448.12ZM325.08 442.45H328.94C331.64 442.45 333.04 441.48 333.04 439.4C333.04 437.43 331.64 436.16 328.94 436.16H325.08V442.45ZM334.18 448.01C334.18 445.58 332.48 443.96 329.05 443.96H325.08V451.81H329.05C332.51 451.81 334.18 450.49 334.18 448V448.01Z" fill="black"/>
<path d="M351.88 446.09C351.88 446.79 351.45 447.14 350.69 447.14H340.16C340.38 450.46 342.94 452 345.4 452C346.7 452 347.88 451.6 348.8 450.84C349.15 450.57 349.37 450.44 349.61 450.44C350.07 450.44 350.34 450.76 350.34 451.17C350.34 451.41 350.23 451.66 349.83 452.03C348.7 453.06 347.05 453.57 345.35 453.57C341.95 453.57 338.28 451.28 338.28 446.42C338.28 441.56 342.06 439.24 345.14 439.24C348.22 439.24 351.89 441.64 351.89 446.1L351.88 446.09ZM340.17 445.66H350.1C349.88 442.37 347.32 440.86 345.13 440.86C342.94 440.86 340.41 442.37 340.16 445.66H340.17Z" fill="black"/>
<path d="M359.94 452.41C359.94 453.3 358.59 453.57 357.56 453.57C356.26 453.57 355.02 453.08 355.02 450.9V440.97H353.7C353.24 440.97 352.92 440.67 352.92 440.19C352.92 439.71 353.24 439.41 353.7 439.41H355.02V436.95C355.02 436.44 355.42 436.03 355.94 436.03C356.46 436.03 356.86 436.43 356.86 436.95V439.41H359.13C359.59 439.41 359.94 439.71 359.94 440.19C359.94 440.67 359.59 440.97 359.13 440.97H356.86V450.79C356.86 451.65 357.24 451.98 357.94 451.98C358.37 451.98 358.72 451.87 359.02 451.79C359.53 451.63 359.94 451.95 359.94 452.41Z" fill="black"/>
<path d="M372.69 442.23V440.26C372.69 439.75 373.12 439.32 373.61 439.32C374.15 439.32 374.56 439.75 374.56 440.26V452.65C374.56 453.14 374.13 453.6 373.61 453.6C373.12 453.6 372.69 453.14 372.69 452.65V450.38C371.91 452.32 369.94 453.62 367.67 453.62C364.65 453.62 360.98 451.27 360.98 446.41C360.98 441.55 364.65 439.23 367.67 439.23C369.75 439.23 371.77 440.26 372.69 442.23ZM372.8 446.41C372.8 442.52 370.15 440.85 367.86 440.85C365.57 440.85 362.81 442.63 362.81 446.41C362.81 450.19 365.56 452 367.86 452C370.16 452 372.8 450.22 372.8 446.41Z" fill="black"/>
<path d="M92.3297 264C94.1397 263.32 102.68 273.45 102.68 273.45C103.03 274.25 116.08 255.01 116.08 255.01C116.78 253.96 118.57 254.57 118.39 255.8C117.39 262.44 113.38 270.48 103.54 280.79C102.63 281.75 94.5397 276.04 91.9797 268.45C91.4197 266.78 90.6097 264.65 92.3397 263.99L92.3297 264Z" fill="#448EFF"/>
<path d="M92.3297 307.84C94.1397 307.16 102.68 317.29 102.68 317.29C103.03 318.09 116.08 298.85 116.08 298.85C116.78 297.8 118.57 298.41 118.39 299.64C117.39 306.28 113.38 314.32 103.54 324.63C102.63 325.59 94.5397 319.88 91.9797 312.29C91.4197 310.62 90.6097 308.49 92.3397 307.83L92.3297 307.84Z" fill="#448EFF"/>
<path d="M92.3297 351.69C94.1397 351.01 102.68 361.14 102.68 361.14C103.03 361.94 116.08 342.7 116.08 342.7C116.78 341.65 118.57 342.26 118.39 343.49C117.39 350.13 113.38 358.17 103.54 368.48C102.63 369.44 94.5397 363.73 91.9797 356.14C91.4197 354.47 90.6097 352.34 92.3397 351.68L92.3297 351.69Z" fill="#448EFF"/>
<path d="M92.3297 395.54C94.1397 394.86 102.68 404.99 102.68 404.99C103.03 405.79 116.08 386.55 116.08 386.55C116.78 385.5 118.57 386.11 118.39 387.34C117.39 393.98 113.38 402.02 103.54 412.33C102.63 413.29 94.5397 407.58 91.9797 399.99C91.4197 398.32 90.6097 396.19 92.3397 395.53L92.3297 395.54Z" fill="#448EFF"/>
<path d="M92.3297 439.38C94.1397 438.7 102.68 448.83 102.68 448.83C103.03 449.63 116.08 430.39 116.08 430.39C116.78 429.34 118.57 429.95 118.39 431.18C117.39 437.82 113.38 445.86 103.54 456.17C102.63 457.13 94.5397 451.42 91.9797 443.83C91.4197 442.16 90.6097 440.03 92.3397 439.37L92.3297 439.38Z" fill="#448EFF"/>
<path d="M116.39 94.2599V113.99C116.39 116.33 114.32 118.19 112.03 118.19C110.06 118.19 108.31 116.81 107.88 114.89C107.08 116.27 104.74 118.24 100.86 118.24C95.0098 118.24 88.0898 113.77 88.0898 104.04C88.0898 94.3099 95.1098 89.8899 100.86 89.8899C104.48 89.8899 107.08 91.9099 107.77 93.7699V94.2499C107.77 91.9599 109.74 90.0499 112.03 90.0499C114.32 90.0499 116.39 91.9699 116.39 94.2499V94.2599ZM108.15 104.05C108.15 98.8399 104.8 97.1299 102.46 97.1299C99.4298 97.1299 96.6098 99.5199 96.6098 104.05C96.6098 108.58 99.4298 111.02 102.46 111.02C104.8 111.02 108.15 109.37 108.15 104.05Z" fill="#448EFF"/>
<path d="M149.72 103.14V113.94C149.72 116.28 147.8 118.14 145.46 118.14C143.12 118.14 141.26 116.28 141.26 113.94V103.14C141.26 98.99 139.34 97.13 136.53 97.13C132.17 97.13 131.21 101.55 131.21 102.13V113.94C131.21 116.28 129.24 118.14 126.96 118.14C124.68 118.14 122.7 116.28 122.7 113.94V94.36C122.7 91.97 124.67 90.05 126.96 90.05C129.25 90.05 131.21 91.97 131.21 94.36V96.01C131.37 94.04 134.4 89.95 139.83 89.95C145.26 89.95 149.72 93.78 149.72 103.14V103.14Z" fill="#448EFF"/>
<path d="M172.12 113.78C172.12 116.55 169.78 118.14 165.47 118.14C161.16 118.14 157.17 116.86 157.17 108.09V96.7599H156.11C154.04 96.7599 152.71 95.3799 152.71 93.5199C152.71 91.6599 154.04 90.2199 156.11 90.2199H157.17V87.1299C157.17 84.7899 159.14 82.8799 161.42 82.8799C163.7 82.8799 165.68 84.7999 165.68 87.1299V90.2199H168.77C170.84 90.2199 172.12 91.5999 172.12 93.5199C172.12 95.4399 170.84 96.7599 168.77 96.7599H165.68V108.52C165.68 109.96 166.11 110.86 167.12 110.86C167.65 110.86 168.56 110.65 169.14 110.7C171 110.7 172.12 111.82 172.12 113.78V113.78Z" fill="#448EFF"/>
<path d="M176.55 83.5699C176.55 81.2799 178.57 79.3699 180.86 79.3699C183.15 79.3699 185.17 81.2899 185.17 83.5699C185.17 85.8499 183.15 87.7199 180.86 87.7199C178.57 87.7199 176.55 85.8099 176.55 83.5699ZM185.11 94.3699V113.89C185.11 116.28 183.14 118.2 180.85 118.2C178.56 118.2 176.59 116.28 176.59 113.89V94.3699C176.59 91.9799 178.56 90.0599 180.85 90.0599C183.14 90.0599 185.11 91.9799 185.11 94.3699Z" fill="#448EFF"/>
<path d="M209.86 103.36C209.86 105.33 208.21 106.87 206.4 106.87H194.01C192.15 106.87 190.5 105.33 190.5 103.36C190.5 101.39 192.15 99.8499 194.01 99.8499H206.4C208.21 99.8499 209.86 101.45 209.86 103.36V103.36Z" fill="#448EFF"/>
<path d="M235.25 93.78C235.25 96.17 233.49 97.77 229.88 97.77C226.27 97.77 223.92 100.59 223.82 102.13V113.94C223.82 116.23 221.85 118.14 219.56 118.14C217.27 118.14 215.3 116.22 215.3 113.94V94.36C215.3 91.97 217.27 90.05 219.56 90.05C221.85 90.05 223.82 91.97 223.82 94.36V96.01C223.98 94.04 227.17 89.95 231.43 89.95C233.98 89.95 235.26 91.76 235.26 93.78H235.25Z" fill="#448EFF"/>
<path d="M265.7 94.2599V113.99C265.7 116.33 263.63 118.19 261.34 118.19C259.37 118.19 257.62 116.81 257.19 114.89C256.39 116.27 254.05 118.24 250.17 118.24C244.32 118.24 237.4 113.77 237.4 104.04C237.4 94.3099 244.42 89.8899 250.17 89.8899C253.79 89.8899 256.39 91.9099 257.08 93.7699V94.2499C257.08 91.9599 259.05 90.0499 261.34 90.0499C263.63 90.0499 265.7 91.9699 265.7 94.2499V94.2599ZM257.46 104.05C257.46 98.8399 254.11 97.1299 251.77 97.1299C248.74 97.1299 245.92 99.5199 245.92 104.05C245.92 108.58 248.74 111.02 251.77 111.02C254.11 111.02 257.46 109.37 257.46 104.05Z" fill="#448EFF"/>
<path d="M271.96 83.5699C271.96 81.2799 273.98 79.3699 276.27 79.3699C278.56 79.3699 280.58 81.2899 280.58 83.5699C280.58 85.8499 278.56 87.7199 276.27 87.7199C273.98 87.7199 271.96 85.8099 271.96 83.5699ZM280.52 94.3699V113.89C280.52 116.28 278.55 118.2 276.26 118.2C273.97 118.2 272 116.28 272 113.89V94.3699C272 91.9799 273.97 90.0599 276.26 90.0599C278.55 90.0599 280.52 91.9799 280.52 94.3699Z" fill="#448EFF"/>
<path d="M313.85 84.0999V113.99C313.85 116.33 311.78 118.19 309.49 118.19C307.52 118.19 305.77 116.81 305.34 114.89C304.54 116.27 302.2 118.24 298.32 118.24C292.47 118.24 285.55 113.77 285.55 104.04C285.55 94.3099 292.57 89.8899 298.32 89.8899C301.94 89.8899 304.54 91.9099 305.23 93.7699V94.2499C305.23 94.0399 305.23 93.8199 305.28 93.6099V84.0899C305.28 81.7999 307.19 79.8899 309.48 79.8899C311.77 79.8899 313.84 81.7999 313.84 84.0899L313.85 84.0999ZM305.61 104.05C305.61 98.8399 302.26 97.1299 299.92 97.1299C296.89 97.1299 294.07 99.5199 294.07 104.05C294.07 108.58 296.89 111.02 299.92 111.02C302.26 111.02 305.61 109.37 305.61 104.05Z" fill="#448EFF"/>
</g>
<defs>
<clipPath id="clip0_1_12098">
<rect width="476.58" height="512.55" fill="white"/>
</clipPath>
</defs>
</svg>
