<svg xmlns="http://www.w3.org/2000/svg" xmlns:xlink="http://www.w3.org/1999/xlink" width="785" height="666" fill="none" xmlns:v="https://vecta.io/nano"><g clip-path="url(#A)"><g stroke="#000" stroke-width="3.22" stroke-linejoin="round"><path d="M87.36 594.54l-54.92-6.53c-21.74-2.79-33 12.9-30.48 40.58 1.76 19.29 12.32 35.3 28.71 35.62 33.74.67 57.98-20.77 57.71-24.53s-1.01-45.14-1.01-45.14h-.01z" fill="#ad8e6f"/><g fill="#ffe9c7"><path d="M30.9 625.92s278.56-4.66 410.2 6.58c6.38.87 16.87-9.51 17.34-24.48 0-.24.01-.47.02-.7.4-14.59-11.43-26.18-25.89-25.38-263.43 14.56-404.04 5.39-404.06 6.09 16.11.64 16.05 29.61 2.4 37.9l-.01-.01z"/><path d="M740.21 482.54l18.81-13.74-4.82-220.45-15.99-1.86 15.28-5.17-.43-28.71-20.13-5.2 18.86-8.12-3.31-150.78-565.93-1.15C180.6 23.6 110.01 1.69 87.26 1.64c-23.2-.05-40.66 19.65-40.3 60.28 0 .87-3.3 11.18-3.09 43.09.01 1.75 19.64 3.26 19.65 5.12.01 2.18-19.59 4.73-19.58 7.06.19 45.69 10.61 210.16 10.61 210.16s.3 2.81 13.11 8.37l-13.49 11.85s3.64 131.39 1.39 210.2c-.05 1.86 30.73 5.88 30.75 5.88 0 0-29.23 5.66-28.93 7.21 6.69 34.48 4.11 91.04-24.42 93.36 157.01-13.6 424.92-20.47 658.9-20.47 74.06 0 68.79-63.86 68.82-79.67.09-40.55-2.13-77.93-2.13-77.93l-18.33-3.6-.01-.01z"/></g><path d="M149.26 31.99L79.09 36.3s-6.97 41.01 27.37 41.47c34.34.45 44.22-13.28 43.94-15.78s-1.14-30.01-1.14-30.01v.01z" fill="#ad8e6f"/><path d="M106.46 77.78s447.09-15.16 648.92.17c9.77 1.2 26.26-13.32 27.54-34.23l.06-.98c1.15-20.37-16.59-36.53-38.83-35.38C338.89 28.42 86.13.66 86.07 1.63c24.72.86 46.72 16.22 46.37 41.04-.18 13.31-7.66 29.9-25.98 35.1v.01z" fill="#ffe9c7"/></g><g style="mix-blend-mode:color-dodge" opacity=".49"><path d="M744.14 7.35C380.36 26.27 140.13 5.83 94.02 2.15l-4.15-.26c7.92.76 15.44 3.01 21.9 6.6 8.51 3.13 15.55 7.39 14.43 12.92 45.2 3.99 47.69-1.42 160.55 2.69 134.26 4.88 424.51 2.26 489.94-2.32-6.93-9.31-18.88-15.13-32.54-14.42l-.01-.01z" fill="#fff5e3"/></g><g style="mix-blend-mode:multiply" opacity=".3"><path d="M680.18 608.5c-3.36 3.74-3.6 7.85-.13 9.37 1.41.62 3.12.85 4.77 1.16l.4.16c3.21 1.47 9.45-.45 12.71-4.08 3.4-3.78 3.56-7.8.13-9.37-1.39-.64-3.13-.87-4.8-1.17-.13-.05-.25-.09-.38-.14-3.25-1.42-9.42.42-12.71 4.08l.01-.01z" fill="#c4a062"/></g><g style="mix-blend-mode:multiply" opacity=".3"><path d="M714.22 591.86c-2.92.82-4.83 2.45-4.17 3.81.26.55.81 1.01 1.31 1.49.03.05.06.1.08.15.58 1.28 3.79 1.82 6.63 1.03 2.96-.83 4.79-2.44 4.17-3.81-.25-.56-.81-1.02-1.31-1.5-.03-.05-.06-.09-.08-.14-.61-1.27-3.77-1.83-6.63-1.03z" fill="#c4a062"/></g><g style="mix-blend-mode:multiply" opacity=".3"><path d="M708.03 88.33c-2.62 3.79-2.46 7.94.74 9.45 1.29.61 2.82.84 4.3 1.14l.37.16c2.96 1.46 8.27-.51 10.81-4.19 2.65-3.83 2.42-7.89-.74-9.45-1.28-.64-2.83-.86-4.33-1.16-.12-.05-.23-.09-.34-.14-2.99-1.42-8.25.48-10.81 4.19h0z" fill="#c4a062"/></g><g style="mix-blend-mode:multiply" opacity=".3"><path d="M688.51 33.25c-8.61 2.55-14.29 7.82-12.47 12.32.73 1.82 2.3 3.36 3.72 4.95.08.16.17.33.23.5 1.59 4.24 10.97 6.16 19.33 3.68 8.7-2.58 14.18-7.79 12.47-12.32-.69-1.84-2.29-3.39-3.72-4.98a3.88 3.88 0 0 1-.22-.46c-1.7-4.21-10.9-6.18-19.33-3.68l-.01-.01z" fill="#c4a062"/></g><g style="mix-blend-mode:multiply" opacity=".3"><path d="M651.53 37.96c-3.97.75-6.17 3.13-4.73 5.63.58 1.01 1.54 1.92 2.43 2.86l.17.28c1.29 2.34 6.17 3.99 10.03 3.26 4.02-.76 6.12-3.13 4.73-5.63-.56-1.02-1.54-1.94-2.44-2.88l-.17-.26c-1.34-2.33-6.14-4-10.03-3.26h.01z" fill="#c4a062"/></g><g fill="#000"><path d="M148.74 242c0 5.9-4.22 9.59-11.09 9.59h-6.64v10.39a1.56 1.56 0 0 1-1.54 1.54c-.88 0-1.54-.7-1.54-1.54v-27.81c0-.97.7-1.63 1.67-1.63h8.05c6.87 0 11.09 3.92 11.09 9.46h0zm-2.99 0c0-4.27-3.08-6.78-8.19-6.78H131v13.73h6.56c5.11 0 8.19-2.29 8.19-6.95zm24.35 3.08v-3.21c0-.84.7-1.54 1.5-1.54.88 0 1.54.7 1.54 1.54v20.2c0 .79-.7 1.54-1.54 1.54-.79 0-1.5-.75-1.5-1.54v-3.7c-1.28 3.17-4.49 5.28-8.19 5.28-4.93 0-10.91-3.83-10.91-11.75s5.98-11.71 10.91-11.71c3.39 0 6.69 1.67 8.19 4.88v.01zm.18 6.82c0-6.34-4.31-9.06-8.05-9.06s-8.23 2.9-8.23 9.06 4.49 9.11 8.23 9.11 8.05-2.9 8.05-9.11h0z"/><use xlink:href="#B"/><use xlink:href="#C"/><path d="M249.18 241.73c0 .26-.09.44-.13.66l-6.69 19.89c-.26.7-.75 1.14-1.41 1.14-.62 0-1.14-.44-1.41-1.14l-6.87-17.29-6.87 17.29c-.26.7-.79 1.14-1.41 1.14s-1.14-.44-1.41-1.14l-6.69-19.89c-.09-.22-.18-.4-.18-.66a1.45 1.45 0 0 1 1.41-1.41c.57 0 1.19.35 1.37.84l5.68 17.56 6.69-17.43c.22-.62.75-.97 1.41-.97.62 0 1.14.35 1.36.97l6.73 17.43 5.63-17.56c.18-.53.79-.84 1.36-.84a1.45 1.45 0 0 1 1.41 1.41h.02zm24.59 10.17c0 7.88-6.29 11.75-11.4 11.75s-11.35-3.87-11.35-11.75 6.29-11.71 11.35-11.71 11.4 3.87 11.4 11.71h0zm-19.76 0c0 6.16 4.53 9.11 8.36 9.11s8.4-2.95 8.4-9.11-4.53-9.06-8.4-9.06-8.36 2.95-8.36 9.06h0z"/><use xlink:href="#D"/><path d="M313.98 233.46v28.6c0 .79-.7 1.54-1.54 1.54-.79 0-1.5-.75-1.5-1.54v-3.7c-1.28 3.17-4.49 5.28-8.19 5.28-4.93 0-10.91-3.83-10.91-11.75s5.98-11.71 10.91-11.71c3.39 0 6.69 1.67 8.19 4.88v-3.21c0-.13 0-.26.04-.35v-8.05c0-.84.66-1.54 1.5-1.54.79 0 1.5.7 1.5 1.54v.01zm-2.86 18.44c0-6.34-4.31-9.06-8.05-9.06s-8.23 2.9-8.23 9.06 4.49 9.11 8.23 9.11 8.05-2.9 8.05-9.11h0zm41.98 0c0 7.92-5.98 11.75-10.91 11.75-3.7 0-6.91-2.11-8.19-5.28v3.7c0 .13 0 .22-.04.35v7.97a1.52 1.52 0 0 1-1.5 1.5c-.84 0-1.5-.7-1.5-1.5v-28.52c0-.84.66-1.54 1.54-1.54.79 0 1.5.7 1.5 1.54v3.21c1.5-3.21 4.8-4.88 8.19-4.88 4.93 0 10.91 3.87 10.91 11.71v-.01zm-2.99 0c0-6.16-4.49-9.06-8.23-9.06s-8.05 2.73-8.05 9.06 4.31 9.11 8.05 9.11 8.23-2.9 8.23-9.11h0zm20.12-10.21c0 .88-.75 1.45-2.02 1.45-4.36 0-7.35 3.48-7.83 6.51v12.37c0 .84-.66 1.54-1.5 1.54s-1.5-.7-1.5-1.54v-20.15c0-.84.66-1.54 1.5-1.54s1.5.7 1.5 1.54v3.96c.26-1.45 3.17-5.59 8.05-5.59 1.14 0 1.8.62 1.8 1.45h0zm23.63 10.21c0 7.88-6.29 11.75-11.4 11.75s-11.35-3.87-11.35-11.75 6.29-11.71 11.35-11.71 11.4 3.87 11.4 11.71h0zm-19.76 0c0 6.16 4.53 9.11 8.36 9.11s8.41-2.95 8.41-9.11-4.53-9.06-8.41-9.06-8.36 2.95-8.36 9.06h0z"/><use xlink:href="#E"/><use xlink:href="#F"/><path d="M453.75 258.46c0 .53-.35.88-.66 1.28-1.94 2.55-4.88 3.83-8.14 3.83-5.15 0-11.35-3.87-11.35-11.66s6.21-11.71 11.35-11.71c3.26 0 6.21 1.28 8.14 3.83.31.4.66.75.66 1.28 0 .75-.62 1.23-1.32 1.23-.53 0-1.01-.31-1.36-.79-1.37-1.94-3.79-2.9-5.98-2.9-4.01 0-8.49 2.95-8.49 9.06s4.49 9.02 8.49 9.02c2.2 0 4.62-.97 5.98-2.9.35-.48.84-.79 1.36-.79.71 0 1.32.48 1.32 1.23v-.01z"/><use xlink:href="#G"/><path d="M490.71 251.37c0 1.14-.71 1.72-1.94 1.72h-17.16c.35 5.41 4.53 7.92 8.54 7.92 2.11 0 4.05-.66 5.54-1.89.57-.44.92-.66 1.32-.66.75 0 1.19.53 1.19 1.19 0 .4-.18.79-.84 1.41-1.85 1.67-4.53 2.51-7.3 2.51-5.54 0-11.53-3.74-11.53-11.66s6.16-11.71 11.18-11.71 11 3.92 11 11.18v-.01zm-19.1-.7h16.2c-.35-5.37-4.53-7.83-8.1-7.83s-7.7 2.46-8.1 7.83h0zm44.32-17.21v28.6c0 .79-.71 1.54-1.54 1.54-.79 0-1.5-.75-1.5-1.54v-3.7c-1.28 3.17-4.49 5.28-8.19 5.28-4.93 0-10.91-3.83-10.91-11.75s5.98-11.71 10.91-11.71c3.39 0 6.69 1.67 8.19 4.88v-3.21c0-.13 0-.26.04-.35v-8.05c0-.84.66-1.54 1.5-1.54.79 0 1.5.7 1.5 1.54v.01zm-2.86 18.44c0-6.34-4.31-9.06-8.05-9.06s-8.23 2.9-8.23 9.06 4.49 9.11 8.23 9.11 8.05-2.9 8.05-9.11h0zm34.5-8.01c.26.44.4.79.4 1.19 0 .75-.57 1.23-1.28 1.23-.57 0-.97-.31-1.5-1.1-.88-1.32-2.46-2.46-5.02-2.46-2.95 0-4.71 1.5-4.71 3.65 0 1.67 1.14 2.95 3.92 3.65l2.82.75c4.09 1.01 6.69 2.68 6.69 6.12 0 4.31-4.14 6.65-8.71 6.65-3.65 0-6.82-1.63-7.83-3.96-.18-.35-.53-.84-.53-1.5 0-.79.48-1.36 1.23-1.36.7 0 1.05.4 1.36 1.06.92 2.2 3.21 3.12 5.77 3.12 3.08 0 5.76-1.23 5.76-3.83 0-2.07-1.63-3.04-4-3.65l-3.52-.92c-4.09-1.06-5.9-3.3-5.9-6.07 0-3.7 3.3-6.25 7.7-6.25 3.39 0 5.99 1.45 7.35 3.7v-.02z"/><use xlink:href="#H"/><path d="M597.06 258.46c0 .53-.35.88-.66 1.28-1.94 2.55-4.88 3.83-8.14 3.83-5.15 0-11.35-3.87-11.35-11.66s6.2-11.71 11.35-11.71c3.26 0 6.2 1.28 8.14 3.83.31.4.66.75.66 1.28 0 .75-.62 1.23-1.32 1.23-.53 0-1.01-.31-1.37-.79-1.36-1.94-3.78-2.9-5.98-2.9-4 0-8.49 2.95-8.49 9.06s4.49 9.02 8.49 9.02c2.2 0 4.62-.97 5.98-2.9.35-.48.84-.79 1.37-.79.7 0 1.32.48 1.32 1.23v-.01zm3.82-4.4v-12.15c0-.79.66-1.54 1.5-1.54s1.5.75 1.5 1.54v12.15c0 5.1 3.12 6.95 6.38 6.95 4.67 0 7.22-3.83 7.7-6.73v-12.37c0-.79.66-1.54 1.5-1.54s1.5.75 1.5 1.54v20.15c0 .84-.66 1.54-1.5 1.54s-1.5-.7-1.5-1.54v-3.96c-.26 1.45-3.04 5.59-8.4 5.59-4.09 0-8.67-2.38-8.67-9.64l-.01.01zm38.28-12.37c0 .88-.75 1.45-2.02 1.45-4.36 0-7.35 3.48-7.83 6.51v12.37c0 .84-.66 1.54-1.5 1.54s-1.5-.7-1.5-1.54v-20.15c0-.84.66-1.54 1.5-1.54s1.5.7 1.5 1.54v3.96c.26-1.45 3.17-5.59 8.05-5.59 1.14 0 1.8.62 1.8 1.45h0z"/><use xlink:href="#I"/><path d="M659.95 261.67c0 1.45-2.2 1.89-3.87 1.89-2.11 0-4.14-.79-4.14-4.36v-16.19h-2.16c-.75 0-1.28-.48-1.28-1.28s.53-1.28 1.28-1.28h2.16v-4c0-.84.66-1.5 1.5-1.5s1.5.66 1.5 1.5v4h3.7c.75 0 1.32.48 1.32 1.28s-.57 1.28-1.32 1.28h-3.7v16.02c0 1.41.62 1.94 1.76 1.94.7 0 1.28-.18 1.76-.31.84-.26 1.5.26 1.5 1.01h-.01zm23.44-19.94c0 .26-.09.44-.18.62l-12.23 28.6a1.49 1.49 0 0 1-1.41.97c-.79 0-1.32-.66-1.32-1.41 0-.26.09-.44.13-.62l3.12-7.31-8.8-20.24c-.04-.18-.13-.35-.13-.62 0-.75.62-1.41 1.41-1.41.57 0 1.14.31 1.41.97l7.57 17.87 7.61-17.87a1.44 1.44 0 0 1 1.41-.97 1.45 1.45 0 0 1 1.41 1.41v.01zm-555.47 65.26c0-5.1 3.56-8.49 8.58-9.15l-5.81-9.46c-.92-1.5.04-3.04 1.76-3.04h14.21c.7 0 1.36.57 1.36 1.28 0 .79-.66 1.36-1.36 1.36h-13.25l5.81 9.46c.79 1.32.62 2.6-.88 2.6-4.18 0-7.44 2.86-7.44 6.95s3.48 6.91 7.66 6.91c4.8 0 8.49-3.56 8.49-7.79v-5.98c0-.97.66-1.63 1.63-1.63h3.26c.7 0 1.36.57 1.36 1.28 0 .75-.66 1.36-1.36 1.36H150v10.17c0 2.42 1.5 2.86 3.52 2.11.66-.22 1.5.35 1.5 1.19 0 1.14-1.8 1.76-3.3 1.76-2.6 0-3.96-1.41-3.96-4.14v-1.28c-1.67 3.52-5.06 5.59-9.29 5.59-5.54 0-10.56-3.61-10.56-9.55h.01z"/><use xlink:href="#J"/><use xlink:href="#K"/><use xlink:href="#L"/><path d="M286.55 304.17c0 1.14-.71 1.72-1.94 1.72h-17.16c.35 5.41 4.53 7.92 8.54 7.92 2.11 0 4.05-.66 5.54-1.89.57-.44.92-.66 1.32-.66.75 0 1.19.53 1.19 1.19 0 .4-.18.79-.84 1.41-1.85 1.67-4.53 2.51-7.3 2.51-5.54 0-11.53-3.74-11.53-11.66S270.53 293 275.55 293s11 3.92 11 11.18v-.01zm-19.1-.7h16.2c-.35-5.37-4.53-7.83-8.1-7.83s-7.7 2.46-8.1 7.83h0z"/><use xlink:href="#M"/><use xlink:href="#N"/><path d="M341.04 314.47c0 1.45-2.2 1.89-3.87 1.89-2.11 0-4.14-.79-4.14-4.36v-16.19h-2.16c-.75 0-1.28-.48-1.28-1.28s.53-1.28 1.28-1.28h2.16v-4c0-.84.66-1.5 1.5-1.5s1.5.66 1.5 1.5v4h3.7c.75 0 1.32.48 1.32 1.28s-.57 1.28-1.32 1.28h-3.7v16.02c0 1.41.62 1.94 1.76 1.94.71 0 1.28-.18 1.76-.31.84-.26 1.5.26 1.5 1.01h-.01zm3.22-28.65a1.56 1.56 0 0 1 1.54-1.54 1.56 1.56 0 0 1 1.54 1.54c0 .84-.7 1.54-1.54 1.54s-1.54-.7-1.54-1.54zm3.04 8.85v20.2c0 .84-.66 1.54-1.5 1.54s-1.5-.7-1.5-1.54v-20.2c0-.84.66-1.54 1.5-1.54s1.5.7 1.5 1.54z"/><use xlink:href="#O"/><use xlink:href="#P"/><path d="M402.58 295.72c0-1.01.84-1.85 1.89-1.85a1.84 1.84 0 0 1 1.85 1.85c0 1.01-.84 1.89-1.85 1.89a1.91 1.91 0 0 1-1.89-1.89zm0 18.57c0-1.01.84-1.85 1.89-1.85a1.84 1.84 0 0 1 1.85 1.85c0 1.01-.84 1.89-1.85 1.89a1.91 1.91 0 0 1-1.89-1.89zM445 304.7c0 7.92-5.98 11.75-10.91 11.75-3.7 0-6.91-2.11-8.19-5.28v3.7c0 .13 0 .22-.04.35v7.97a1.52 1.52 0 0 1-1.5 1.5c-.84 0-1.5-.7-1.5-1.5v-28.52c0-.84.66-1.54 1.54-1.54.79 0 1.5.7 1.5 1.54v3.21c1.5-3.21 4.8-4.88 8.19-4.88 4.93 0 10.91 3.87 10.91 11.71v-.01zm-2.99 0c0-6.16-4.49-9.06-8.23-9.06s-8.05 2.73-8.05 9.06 4.31 9.11 8.05 9.11 8.23-2.9 8.23-9.11zm25.29-6.82v-3.21c0-.84.71-1.54 1.5-1.54.88 0 1.54.7 1.54 1.54v20.2c0 .79-.71 1.54-1.54 1.54-.79 0-1.5-.75-1.5-1.54v-3.7c-1.28 3.17-4.49 5.28-8.19 5.28-4.93 0-10.91-3.83-10.91-11.75s5.98-11.71 10.91-11.71c3.39 0 6.69 1.67 8.19 4.88v.01zm.18 6.82c0-6.34-4.31-9.06-8.05-9.06s-8.23 2.9-8.23 9.06 4.49 9.11 8.23 9.11 8.05-2.9 8.05-9.11zm28.29-2.02v12.15c0 .79-.66 1.54-1.5 1.54s-1.5-.75-1.5-1.54v-12.15c0-5.1-3.12-6.95-6.38-6.95-4.67 0-7.22 3.83-7.7 6.73v12.37c0 .79-.66 1.54-1.5 1.54s-1.5-.75-1.5-1.54v-20.15c0-.84.66-1.54 1.5-1.54s1.5.7 1.5 1.54v3.96c.26-1.45 3.04-5.59 8.4-5.59 4.09 0 8.67 2.38 8.67 9.64l.01-.01zm5.21-16.86a1.56 1.56 0 0 1 1.54-1.54 1.56 1.56 0 0 1 1.54 1.54c0 .84-.7 1.54-1.54 1.54s-1.54-.7-1.54-1.54zm3.04 8.85v20.2c0 .84-.66 1.54-1.5 1.54s-1.5-.7-1.5-1.54v-20.2c0-.84.66-1.54 1.5-1.54s1.5.7 1.5 1.54zm24.33 16.59c0 .53-.35.88-.66 1.28-1.94 2.55-4.88 3.83-8.14 3.83-5.15 0-11.35-3.87-11.35-11.66S514.41 293 519.55 293c3.26 0 6.21 1.28 8.14 3.83.31.4.66.75.66 1.28 0 .75-.62 1.23-1.32 1.23-.53 0-1.01-.31-1.36-.79-1.37-1.94-3.79-2.9-5.98-2.9-4.01 0-8.49 2.95-8.49 9.06s4.49 9.02 8.49 9.02c2.2 0 4.62-.97 5.98-2.9.35-.48.84-.79 1.36-.79.71 0 1.32.48 1.32 1.23v-.01zm53.24-8.58v12.15c0 .79-.66 1.54-1.5 1.54-.79 0-1.5-.75-1.5-1.54v-12.15c0-5.1-3.12-6.95-6.34-6.95-4.71 0-7.26 3.83-7.74 6.73v12.37c0 .79-.66 1.54-1.5 1.54s-1.5-.75-1.5-1.54v-12.15c0-5.1-3.12-6.95-6.38-6.95-4.67 0-7.22 3.83-7.7 6.73v12.37c0 .79-.66 1.54-1.5 1.54s-1.5-.75-1.5-1.54v-20.15c0-.84.66-1.54 1.5-1.54s1.5.7 1.5 1.54v3.96c.26-1.45 3.04-5.59 8.4-5.59 3.26 0 6.87 1.5 8.14 5.85 1.28-2.77 4.22-5.85 8.98-5.85 4.09 0 8.62 2.38 8.62 9.64l.02-.01zm26.93 2.02c0 7.88-6.29 11.75-11.4 11.75s-11.35-3.87-11.35-11.75 6.29-11.71 11.35-11.71 11.4 3.87 11.4 11.71zm-19.76 0c0 6.16 4.53 9.11 8.36 9.11s8.4-2.95 8.4-9.11-4.53-9.06-8.4-9.06-8.36 2.95-8.36 9.06zm45.09-18.44v28.6c0 .79-.71 1.54-1.54 1.54-.79 0-1.5-.75-1.5-1.54v-3.7c-1.28 3.17-4.49 5.28-8.19 5.28-4.93 0-10.91-3.83-10.91-11.75s5.98-11.71 10.91-11.71c3.39 0 6.69 1.67 8.19 4.88v-3.21c0-.13 0-.26.04-.35v-8.05c0-.84.66-1.54 1.5-1.54.79 0 1.5.7 1.5 1.54v.01zm-2.86 18.44c0-6.34-4.31-9.06-8.05-9.06s-8.23 2.9-8.23 9.06 4.49 9.11 8.23 9.11 8.05-2.9 8.05-9.11zm29.32-.53c0 1.14-.71 1.72-1.94 1.72h-17.16c.35 5.41 4.53 7.92 8.54 7.92 2.11 0 4.05-.66 5.54-1.89.57-.44.92-.66 1.32-.66.75 0 1.19.53 1.19 1.19 0 .4-.18.79-.84 1.41-1.85 1.67-4.53 2.51-7.3 2.51-5.54 0-11.53-3.74-11.53-11.66S644.29 293 649.31 293s11 3.92 11 11.18v-.01zm-19.1-.7h16.2c-.35-5.37-4.53-7.83-8.1-7.83s-7.7 2.46-8.1 7.83z"/><use xlink:href="#Q"/><path d="M137.6 367.27c0 1.45-2.2 1.89-3.87 1.89-2.11 0-4.14-.79-4.14-4.36v-16.19h-2.16c-.75 0-1.28-.48-1.28-1.28s.53-1.28 1.28-1.28h2.16v-4c0-.84.66-1.5 1.5-1.5s1.5.66 1.5 1.5v4h3.7c.75 0 1.32.48 1.32 1.28s-.57 1.28-1.32 1.28h-3.7v16.02c0 1.41.62 1.94 1.76 1.94.71 0 1.28-.18 1.76-.31.84-.26 1.5.26 1.5 1.01h-.01zm23.62-10.3c0 1.14-.71 1.72-1.94 1.72h-17.16c.35 5.41 4.53 7.92 8.54 7.92 2.11 0 4.05-.66 5.54-1.89.57-.44.92-.66 1.32-.66.75 0 1.19.53 1.19 1.19 0 .4-.18.79-.84 1.41-1.85 1.67-4.53 2.51-7.3 2.51-5.54 0-11.53-3.74-11.53-11.66s6.16-11.71 11.18-11.71 11 3.92 11 11.18v-.01zm-19.1-.7h16.2c-.35-5.37-4.53-7.83-8.1-7.83s-7.7 2.46-8.1 7.83zm60.26-.79v12.15c0 .79-.66 1.54-1.5 1.54-.79 0-1.5-.75-1.5-1.54v-12.15c0-5.1-3.12-6.95-6.34-6.95-4.71 0-7.26 3.83-7.74 6.73v12.37c0 .79-.66 1.54-1.5 1.54s-1.5-.75-1.5-1.54v-12.15c0-5.1-3.12-6.95-6.38-6.95-4.67 0-7.22 3.83-7.7 6.73v12.37c0 .79-.66 1.54-1.5 1.54s-1.5-.75-1.5-1.54v-20.15c0-.84.66-1.54 1.5-1.54s1.5.7 1.5 1.54v3.96c.26-1.45 3.04-5.59 8.4-5.59 3.26 0 6.87 1.5 8.14 5.85 1.28-2.77 4.22-5.85 8.98-5.85 4.09 0 8.62 2.38 8.62 9.64l.02-.01z"/><use xlink:href="#R"/><use xlink:href="#S"/><path d="M272.94 347.29c0 .88-.75 1.45-2.02 1.45-4.36 0-7.35 3.48-7.83 6.51v12.37c0 .84-.66 1.54-1.5 1.54s-1.5-.7-1.5-1.54v-20.15c0-.84.66-1.54 1.5-1.54s1.5.7 1.5 1.54v3.96c.26-1.45 3.17-5.59 8.05-5.59 1.14 0 1.8.62 1.8 1.45h0z"/><use xlink:href="#T"/><path d="M314.24 347.29c0 .88-.75 1.45-2.02 1.45-4.36 0-7.35 3.48-7.83 6.51v12.37c0 .84-.66 1.54-1.5 1.54s-1.5-.7-1.5-1.54v-20.15c0-.84.66-1.54 1.5-1.54s1.5.7 1.5 1.54v3.96c.26-1.45 3.17-5.59 8.05-5.59 1.14 0 1.8.62 1.8 1.45h0zm23.47.04c0 .26-.09.44-.18.62l-12.23 28.6c-.27.66-.84.97-1.41.97-.79 0-1.32-.66-1.32-1.41 0-.26.09-.44.13-.62l3.12-7.31-8.8-20.24c-.04-.18-.13-.35-.13-.62 0-.75.62-1.41 1.41-1.41.57 0 1.14.31 1.41.97l7.57 17.87 7.61-17.87a1.45 1.45 0 0 1 2.82.44v.01zm37.79 10.17c0 7.92-5.98 11.75-10.91 11.75-3.7 0-6.91-2.11-8.19-5.28v3.7c0 .13 0 .22-.04.35v7.97a1.52 1.52 0 0 1-1.5 1.5c-.84 0-1.5-.7-1.5-1.5v-28.52c0-.84.66-1.54 1.54-1.54.79 0 1.5.7 1.5 1.54v3.21c1.5-3.21 4.8-4.88 8.19-4.88 4.93 0 10.91 3.87 10.91 11.71v-.01zm-2.99 0c0-6.16-4.49-9.07-8.23-9.07s-8.05 2.73-8.05 9.07 4.31 9.11 8.05 9.11 8.23-2.9 8.23-9.11zm28.37-.53c0 1.14-.71 1.72-1.94 1.72h-17.16c.35 5.41 4.53 7.92 8.54 7.92 2.11 0 4.05-.66 5.54-1.89.57-.44.92-.66 1.32-.66.75 0 1.19.53 1.19 1.19 0 .4-.18.79-.84 1.41-1.85 1.67-4.53 2.51-7.3 2.51-5.54 0-11.53-3.74-11.53-11.66s6.16-11.71 11.18-11.71 11 3.92 11 11.18v-.01zm-19.1-.7h16.2c-.35-5.37-4.53-7.83-8.1-7.83s-7.7 2.46-8.1 7.83h0zm35.97-8.98c0 .88-.75 1.45-2.03 1.45-4.36 0-7.35 3.48-7.83 6.51v12.37c0 .84-.66 1.54-1.5 1.54s-1.5-.7-1.5-1.54v-20.15c0-.84.66-1.54 1.5-1.54s1.5.7 1.5 1.54v3.96c.26-1.45 3.17-5.59 8.05-5.59 1.14 0 1.8.62 1.8 1.45h.01zm40.41 8.19v12.15c0 .79-.66 1.54-1.5 1.54-.79 0-1.5-.75-1.5-1.54v-12.15c0-5.1-3.12-6.95-6.34-6.95-4.71 0-7.26 3.83-7.74 6.73v12.37c0 .79-.66 1.54-1.5 1.54s-1.5-.75-1.5-1.54v-12.15c0-5.1-3.12-6.95-6.38-6.95-4.67 0-7.22 3.83-7.7 6.73v12.37c0 .79-.66 1.54-1.5 1.54s-1.5-.75-1.5-1.54v-20.15c0-.84.66-1.54 1.5-1.54s1.5.7 1.5 1.54v3.96c.26-1.45 3.04-5.59 8.4-5.59 3.26 0 6.87 1.5 8.14 5.85 1.28-2.77 4.22-5.85 8.98-5.85 4.09 0 8.62 2.38 8.62 9.64l.02-.01z"/><use xlink:href="#U"/><path d="M486.31 349.49c.26.44.39.79.39 1.19 0 .75-.57 1.23-1.28 1.23-.57 0-.97-.31-1.5-1.1-.88-1.32-2.46-2.46-5.02-2.46-2.95 0-4.71 1.5-4.71 3.65 0 1.67 1.14 2.95 3.92 3.65l2.82.75c4.09 1.01 6.69 2.68 6.69 6.12 0 4.31-4.13 6.65-8.71 6.65-3.65 0-6.82-1.63-7.83-3.96-.18-.35-.53-.84-.53-1.5 0-.79.48-1.36 1.23-1.36.71 0 1.06.4 1.37 1.06.92 2.2 3.21 3.12 5.76 3.12 3.08 0 5.77-1.23 5.77-3.83 0-2.07-1.63-3.04-4-3.65l-3.52-.92c-4.09-1.06-5.9-3.3-5.9-6.07 0-3.7 3.3-6.25 7.7-6.25 3.39 0 5.98 1.45 7.35 3.7v-.02zm19.93 0c.26.44.39.79.39 1.19 0 .75-.57 1.23-1.28 1.23-.57 0-.97-.31-1.5-1.1-.88-1.32-2.46-2.46-5.02-2.46-2.95 0-4.71 1.5-4.71 3.65 0 1.67 1.14 2.95 3.92 3.65l2.82.75c4.09 1.01 6.69 2.68 6.69 6.12 0 4.31-4.13 6.65-8.71 6.65-3.65 0-6.82-1.63-7.83-3.96-.18-.35-.53-.84-.53-1.5 0-.79.48-1.36 1.23-1.36.71 0 1.06.4 1.37 1.06.92 2.2 3.21 3.12 5.76 3.12 3.08 0 5.77-1.23 5.77-3.83 0-2.07-1.63-3.04-4-3.65l-3.52-.92c-4.09-1.06-5.9-3.3-5.9-6.07 0-3.7 3.3-6.25 7.7-6.25 3.39 0 5.98 1.45 7.35 3.7v-.02zm5.39-10.87a1.56 1.56 0 0 1 1.54-1.54 1.56 1.56 0 0 1 1.54 1.54c0 .84-.7 1.54-1.54 1.54s-1.54-.7-1.54-1.54h0zm3.04 8.85v20.2c0 .84-.66 1.54-1.5 1.54s-1.5-.7-1.5-1.54v-20.2c0-.84.66-1.54 1.5-1.54s1.5.7 1.5 1.54z"/><use xlink:href="#V"/><path d="M565.93 355.48v12.15c0 .79-.66 1.54-1.5 1.54s-1.5-.75-1.5-1.54v-12.15c0-5.1-3.12-6.95-6.38-6.95-4.67 0-7.22 3.83-7.7 6.73v12.37c0 .79-.66 1.54-1.5 1.54s-1.5-.75-1.5-1.54v-20.15c0-.84.66-1.54 1.5-1.54s1.5.7 1.5 1.54v3.96c.26-1.45 3.04-5.59 8.4-5.59 4.09 0 8.67 2.38 8.67 9.64l.01-.01zm19.68-5.99c.26.44.39.79.39 1.19 0 .75-.57 1.23-1.28 1.23-.57 0-.97-.31-1.5-1.1-.88-1.32-2.46-2.46-5.02-2.46-2.95 0-4.71 1.5-4.71 3.65 0 1.67 1.14 2.95 3.92 3.65l2.82.75c4.09 1.01 6.69 2.68 6.69 6.12 0 4.31-4.13 6.65-8.71 6.65-3.65 0-6.82-1.63-7.83-3.96-.18-.35-.53-.84-.53-1.5 0-.79.48-1.36 1.23-1.36.71 0 1.06.4 1.37 1.06.92 2.2 3.21 3.12 5.76 3.12 3.08 0 5.77-1.23 5.77-3.83 0-2.07-1.63-3.04-4-3.65l-3.52-.92c-4.09-1.06-5.9-3.3-5.9-6.07 0-3.7 3.3-6.25 7.7-6.25 3.39 0 5.98 1.45 7.35 3.7v-.02z"/><use xlink:href="#W"/><path d="M146.14 403.48v-3.21c0-.84.7-1.54 1.5-1.54.88 0 1.54.7 1.54 1.54v20.2c0 .79-.7 1.54-1.54 1.54-.79 0-1.5-.75-1.5-1.54v-3.7c-1.28 3.17-4.49 5.28-8.19 5.28-4.93 0-10.91-3.83-10.91-11.75s5.98-11.71 10.91-11.71c3.39 0 6.69 1.67 8.19 4.88v.01zm.18 6.82c0-6.34-4.31-9.07-8.05-9.07s-8.23 2.9-8.23 9.07 4.49 9.11 8.23 9.11 8.05-2.9 8.05-9.11z"/><use xlink:href="#X"/><path d="M188.77 420.07c0 1.45-2.2 1.89-3.87 1.89-2.11 0-4.14-.79-4.14-4.36v-16.19h-2.16c-.75 0-1.28-.48-1.28-1.28s.53-1.28 1.28-1.28h2.16v-4c0-.84.66-1.5 1.5-1.5s1.5.66 1.5 1.5v4h3.7c.75 0 1.32.48 1.32 1.28s-.57 1.28-1.32 1.28h-3.7v16.02c0 1.41.62 1.94 1.76 1.94.7 0 1.28-.18 1.76-.31.84-.26 1.5.26 1.5 1.01h-.01zm3.22-28.65c0-.84.7-1.54 1.54-1.54s1.54.7 1.54 1.54a1.56 1.56 0 0 1-1.54 1.54 1.56 1.56 0 0 1-1.54-1.54zm3.04 8.85v20.2c0 .84-.66 1.54-1.5 1.54s-1.5-.7-1.5-1.54v-20.2c0-.84.66-1.54 1.5-1.54s1.5.7 1.5 1.54z"/><use xlink:href="#Y"/><path d="M219.91 421.96c-.84 0-1.5-.75-1.5-1.54v-28.6a1.52 1.52 0 0 1 1.5-1.5c.84 0 1.5.7 1.5 1.5v28.6c0 .79-.66 1.54-1.5 1.54zm6.78-30.54c0-.84.7-1.54 1.54-1.54s1.54.7 1.54 1.54a1.56 1.56 0 0 1-1.54 1.54 1.56 1.56 0 0 1-1.54-1.54zm3.04 8.85v20.2c0 .84-.66 1.54-1.5 1.54s-1.5-.7-1.5-1.54v-20.2c0-.84.66-1.54 1.5-1.54s1.5.7 1.5 1.54zm25.37 8.01v12.15c0 .79-.66 1.54-1.5 1.54s-1.5-.75-1.5-1.54v-12.15c0-5.1-3.12-6.95-6.38-6.95-4.67 0-7.22 3.83-7.7 6.73v12.37c0 .79-.66 1.54-1.5 1.54s-1.5-.75-1.5-1.54v-20.15c0-.84.66-1.54 1.5-1.54s1.5.7 1.5 1.54v3.96c.26-1.45 3.04-5.59 8.4-5.59 4.09 0 8.67 2.38 8.67 9.64l.01-.01zm24.33 12.36a1.29 1.29 0 0 1-1.32 1.32c-.4 0-.75-.13-1.01-.4l-9.99-10.39-3.74 3.78v5.46c0 .79-.66 1.54-1.5 1.54s-1.5-.75-1.5-1.54v-28.6a1.52 1.52 0 0 1 1.5-1.5c.84 0 1.5.7 1.5 1.5v19.45l11.75-12.1c.26-.26.66-.44 1.01-.44.79 0 1.41.62 1.41 1.36 0 .4-.18.7-.4.97l-8.14 8.23 9.99 10.34c.31.31.44.66.44 1.01v.01zm2 5.59l2.55-7.04c.26-.84.75-1.14 1.45-1.14h1.28c.84 0 1.01.48.62 1.28l-3.48 7.22c-.31.66-.79.84-1.41.84h-.26c-.7 0-1.01-.48-.75-1.14v-.02zm40.18-22.75v-3.21c0-.84.7-1.54 1.5-1.54.88 0 1.54.7 1.54 1.54v20.2c0 .79-.7 1.54-1.54 1.54-.79 0-1.5-.75-1.5-1.54v-3.7c-1.28 3.17-4.49 5.28-8.19 5.28-4.93 0-10.91-3.83-10.91-11.75s5.98-11.71 10.91-11.71c3.39 0 6.69 1.67 8.19 4.88v.01zm.18 6.82c0-6.34-4.31-9.07-8.05-9.07s-8.23 2.9-8.23 9.07 4.49 9.11 8.23 9.11 8.05-2.9 8.05-9.11zm28.28-2.02v12.15c0 .79-.66 1.54-1.5 1.54s-1.5-.75-1.5-1.54v-12.15c0-5.1-3.12-6.95-6.38-6.95-4.66 0-7.22 3.83-7.7 6.73v12.37c0 .79-.66 1.54-1.5 1.54s-1.5-.75-1.5-1.54v-20.15c0-.84.66-1.54 1.5-1.54s1.5.7 1.5 1.54v3.96c.26-1.45 3.04-5.59 8.41-5.59 4.09 0 8.67 2.38 8.67 9.64v-.01zm14.16 11.79c0 1.45-2.2 1.89-3.87 1.89-2.11 0-4.14-.79-4.14-4.36v-16.19h-2.16c-.75 0-1.28-.48-1.28-1.28s.53-1.28 1.28-1.28h2.16v-4c0-.84.66-1.5 1.5-1.5s1.5.66 1.5 1.5v4h3.7c.75 0 1.32.48 1.32 1.28s-.57 1.28-1.32 1.28h-3.7v16.02c0 1.41.62 1.94 1.76 1.94.7 0 1.28-.18 1.76-.31.84-.26 1.5.26 1.5 1.01h-.01zm3.23-28.65c0-.84.7-1.54 1.54-1.54s1.54.7 1.54 1.54a1.56 1.56 0 0 1-1.54 1.54 1.56 1.56 0 0 1-1.54-1.54zm3.04 8.85v20.2c0 .84-.66 1.54-1.5 1.54s-1.5-.7-1.5-1.54v-20.2c0-.84.66-1.54 1.5-1.54s1.5.7 1.5 1.54zm18.75 9.11c0 .7-.53 1.23-1.19 1.23h-11.79a1.23 1.23 0 0 1-1.23-1.23c0-.66.57-1.19 1.23-1.19h11.79c.66 0 1.19.53 1.19 1.19zm35.42-9.25c0 .26-.09.44-.13.66l-6.69 19.89c-.26.7-.75 1.14-1.41 1.14-.62 0-1.14-.44-1.41-1.14l-6.87-17.29-6.86 17.29c-.27.7-.79 1.14-1.41 1.14s-1.14-.44-1.41-1.14l-6.69-19.89c-.09-.22-.18-.4-.18-.66a1.45 1.45 0 0 1 1.41-1.41c.57 0 1.19.35 1.36.84l5.68 17.56 6.69-17.43c.22-.62.75-.97 1.41-.97.62 0 1.14.35 1.37.97l6.73 17.43 5.63-17.56c.18-.53.79-.84 1.37-.84a1.45 1.45 0 0 1 1.41 1.41zm24.02 9.64c0 1.14-.71 1.72-1.94 1.72h-17.16c.35 5.41 4.53 7.92 8.54 7.92 2.11 0 4.05-.66 5.54-1.89.57-.44.92-.66 1.32-.66.75 0 1.19.53 1.19 1.19 0 .4-.18.79-.84 1.41-1.85 1.67-4.53 2.51-7.3 2.51-5.54 0-11.53-3.74-11.53-11.66s6.16-11.71 11.18-11.71 11 3.92 11 11.18v-.01zm-19.1-.7h16.2c-.35-5.37-4.53-7.83-8.1-7.83s-7.7 2.46-8.1 7.83h0zm45.26 1.23c0 7.92-5.98 11.75-10.91 11.75-3.7 0-6.91-2.11-8.19-5.28v3.7c0 .79-.7 1.54-1.5 1.54-.84 0-1.54-.75-1.54-1.54v-28.6c0-.84.7-1.54 1.5-1.54.84 0 1.5.7 1.5 1.54v8.05c.04.09.04.22.04.35v3.21c1.5-3.21 4.8-4.88 8.19-4.88 4.93 0 10.91 3.87 10.91 11.71v-.01zm-2.99 0c0-6.16-4.49-9.07-8.23-9.07s-8.05 2.73-8.05 9.07 4.31 9.11 8.05 9.11 8.23-2.9 8.23-9.11zm27.33-2.02v12.15c0 .79-.66 1.54-1.5 1.54s-1.5-.75-1.5-1.54v-12.15c0-5.1-3.12-6.95-6.38-6.95-4.66 0-7.22 3.83-7.7 6.73v12.37c0 .79-.66 1.54-1.5 1.54s-1.5-.75-1.5-1.54v-28.6a1.52 1.52 0 0 1 1.5-1.5c.84 0 1.5.7 1.5 1.5v12.41c.26-1.45 3.04-5.59 8.41-5.59 4.09 0 8.67 2.38 8.67 9.64v-.01zm26.87 2.02c0 7.88-6.29 11.75-11.4 11.75s-11.35-3.87-11.35-11.75 6.29-11.71 11.35-11.71 11.4 3.87 11.4 11.71zm-19.76 0c0 6.16 4.53 9.11 8.36 9.11s8.41-2.95 8.41-9.11-4.53-9.07-8.41-9.07-8.36 2.95-8.36 9.07zm45.59 0c0 7.88-6.29 11.75-11.4 11.75s-11.35-3.87-11.35-11.75 6.29-11.71 11.35-11.71 11.4 3.87 11.4 11.71zm-19.76 0c0 6.16 4.53 9.11 8.36 9.11s8.4-2.95 8.4-9.11-4.53-9.07-8.4-9.07-8.36 2.95-8.36 9.07zm43.09 10.34a1.29 1.29 0 0 1-1.32 1.32c-.4 0-.75-.13-1.01-.4l-9.99-10.39-3.74 3.78v5.46c0 .79-.66 1.54-1.5 1.54s-1.5-.75-1.5-1.54v-28.6a1.52 1.52 0 0 1 1.5-1.5c.84 0 1.5.7 1.5 1.5v19.45l11.75-12.1c.26-.26.66-.44 1.01-.44.79 0 1.41.62 1.41 1.36 0 .4-.18.7-.39.97l-8.14 8.23 9.99 10.34c.31.31.44.66.44 1.01l-.01.01zm2.01 5.59l2.55-7.04c.26-.84.75-1.14 1.45-1.14h1.28c.84 0 1.01.48.62 1.28l-3.48 7.22c-.31.66-.79.84-1.41.84h-.26c-.71 0-1.01-.48-.75-1.14v-.02zm-431.09 30.05v-3.21c0-.84.7-1.54 1.5-1.54.88 0 1.54.7 1.54 1.54v20.2c0 .79-.7 1.54-1.54 1.54-.79 0-1.5-.75-1.5-1.54v-3.7c-1.28 3.17-4.49 5.28-8.19 5.28-4.93 0-10.91-3.83-10.91-11.75s5.98-11.71 10.91-11.71c3.39 0 6.69 1.67 8.19 4.88v.01zm.18 6.82c0-6.34-4.31-9.06-8.05-9.06s-8.23 2.9-8.23 9.06 4.49 9.11 8.23 9.11 8.05-2.9 8.05-9.11zm28.29-2.02v12.15c0 .79-.66 1.54-1.5 1.54s-1.5-.75-1.5-1.54v-12.15c0-5.1-3.12-6.95-6.38-6.95-4.66 0-7.22 3.83-7.7 6.73v12.37c0 .79-.66 1.54-1.5 1.54s-1.5-.75-1.5-1.54v-20.15c0-.84.66-1.54 1.5-1.54s1.5.7 1.5 1.54v3.96c.26-1.45 3.04-5.59 8.41-5.59 4.09 0 8.67 2.38 8.67 9.64v-.01zm26.24-16.42v28.6c0 .79-.7 1.54-1.54 1.54-.79 0-1.5-.75-1.5-1.54v-3.7c-1.28 3.17-4.49 5.28-8.19 5.28-4.93 0-10.91-3.83-10.91-11.75s5.98-11.71 10.91-11.71c3.39 0 6.69 1.67 8.19 4.88v-3.21c0-.13 0-.26.04-.35v-8.05c0-.84.66-1.54 1.5-1.54.79 0 1.5.7 1.5 1.54v.01zm-2.86 18.44c0-6.34-4.31-9.06-8.05-9.06s-8.23 2.9-8.23 9.06 4.49 9.11 8.23 9.11 8.05-2.9 8.05-9.11zm56.99-2.02v12.15c0 .79-.66 1.54-1.5 1.54-.79 0-1.5-.75-1.5-1.54v-12.15c0-5.1-3.12-6.95-6.34-6.95-4.71 0-7.26 3.83-7.75 6.73v12.37c0 .79-.66 1.54-1.5 1.54s-1.5-.75-1.5-1.54v-12.15c0-5.1-3.12-6.95-6.38-6.95-4.66 0-7.22 3.83-7.7 6.73v12.37c0 .79-.66 1.54-1.5 1.54s-1.5-.75-1.5-1.54v-20.15c0-.84.66-1.54 1.5-1.54s1.5.7 1.5 1.54v3.96c.26-1.45 3.04-5.59 8.41-5.59 3.26 0 6.87 1.5 8.14 5.85 1.28-2.77 4.22-5.85 8.98-5.85 4.09 0 8.63 2.38 8.63 9.64l.01-.01zm26.93 2.02c0 7.88-6.29 11.75-11.4 11.75s-11.35-3.87-11.35-11.75 6.29-11.71 11.35-11.71 11.4 3.87 11.4 11.71zm-19.76 0c0 6.16 4.53 9.11 8.36 9.11s8.41-2.95 8.41-9.11-4.53-9.06-8.41-9.06-8.36 2.95-8.36 9.06zm36.88-10.21c0 .88-.75 1.45-2.02 1.45-4.36 0-7.35 3.48-7.83 6.51v12.37c0 .84-.66 1.54-1.5 1.54s-1.5-.7-1.5-1.54v-20.15c0-.84.66-1.54 1.5-1.54s1.5.7 1.5 1.54v3.96c.26-1.45 3.17-5.59 8.05-5.59 1.14 0 1.8.62 1.8 1.45h0zm23.09 9.68c0 1.14-.7 1.72-1.94 1.72h-17.16c.35 5.41 4.53 7.92 8.54 7.92 2.11 0 4.05-.66 5.54-1.89.57-.44.92-.66 1.32-.66.75 0 1.19.53 1.19 1.19 0 .4-.18.79-.84 1.41-1.85 1.67-4.53 2.51-7.3 2.51-5.54 0-11.53-3.74-11.53-11.66s6.16-11.71 11.18-11.71 11 3.92 11 11.18v-.01zm-19.1-.7h16.19c-.35-5.37-4.53-7.83-8.1-7.83s-7.7 2.46-8.1 7.83h.01z"/><use xlink:href="#Z"/><path d="M331.75 472.69c0-1.01.84-1.85 1.89-1.85a1.84 1.84 0 0 1 1.85 1.85c0 1.01-.84 1.89-1.85 1.89a1.91 1.91 0 0 1-1.89-1.89zm7.14 0c0-1.01.84-1.85 1.89-1.85a1.84 1.84 0 0 1 1.85 1.85c0 1.01-.84 1.89-1.85 1.89a1.91 1.91 0 0 1-1.89-1.89z"/></g><g fill="#f97400"><path d="M133.98 183.47c-2.67 0-4.97-2.17-4.97-4.91v-34.78c0-2.73 2.3-4.97 4.97-4.97s4.97 2.24 4.97 4.97v34.78c0 2.73-2.3 4.91-4.97 4.91zm43.65-27.88v23.04c0 2.73-2.42 4.91-5.09 4.91-2.3 0-4.35-1.61-4.84-3.85-.93 1.61-3.66 3.91-8.2 3.91-6.83 0-14.9-5.22-14.9-16.58s8.2-16.52 14.9-16.52c4.22 0 7.27 2.36 8.07 4.53v.56c0-2.67 2.3-4.91 4.97-4.91s5.09 2.24 5.09 4.91h0zM168 167.02c0-6.09-3.91-8.07-6.65-8.07-3.54 0-6.83 2.79-6.83 8.07s3.29 8.14 6.83 8.14c2.73 0 6.65-1.93 6.65-8.14h0zm47.3-11.93c0 .93-.31 1.74-.62 2.36l-15.59 34.28c-1.06 2.42-2.86 3.54-4.72 3.54-2.61 0-4.41-2.05-4.41-4.41 0-.93.31-1.74.56-2.36l3.17-7.02-11.18-24.03c-.25-.62-.56-1.43-.56-2.36 0-2.36 1.92-4.41 4.53-4.41 1.86 0 3.66 1.12 4.72 3.54l7.27 16.64 7.51-16.64c1.06-2.42 2.86-3.54 4.72-3.54 2.67 0 4.6 2.05 4.6 4.41h0z"/><use xlink:href="#a"/><use xlink:href="#b"/><path d="M301.83 166.21c0 2.3-1.93 4.1-4.04 4.1h-14.47c-2.17 0-4.1-1.8-4.1-4.1s1.92-4.1 4.1-4.1h14.47c2.11 0 4.04 1.86 4.04 4.1zm33.61-13.6c0 5.22-3.11 7.58-11.18 15.15l-7.33 6.65h14.1c2.36 0 4.29 1.86 4.29 4.41s-1.93 4.35-4.29 4.35h-17.58c-7.14 0-10.68-7.51-5.53-12.48l6.27-5.59c8.51-7.95 11.18-9.94 11.18-13.04 0-3.6-3.11-4.1-4.47-4.1-1.18 0-3.73.12-5.03 3.17-.56 1.93-2.48 3.73-5.03 3.73-3.73 0-5.28-3.35-4.16-7.14 1.92-4.35 6.4-8.45 13.66-8.45 9.19 0 15.09 6.46 15.09 13.35l.01-.01zm46.45 2.17c.37.44 1.24 1.49 1.24 3.11 0 2.42-1.61 3.66-3.79 3.66-1.37 0-2.79-.44-4.04-1.8-1.24-1.18-2.3-1.49-3.29-1.49-1.62 0-2.55.81-2.55 1.93 0 .31-.19 1.43 2.24 2.17l3.66 1.12c4.6 1.37 8.94 3.73 8.94 9.5 0 7.2-6.52 10.5-12.98 10.5-5.78 0-8.63-2.42-10.5-3.97-.37-.37-2.11-2.36-2.11-4.66 0-1.55.93-3.66 3.73-3.66 1.99 0 3.11 1.24 3.97 2.17 1.99 1.86 3.48 2.17 4.91 2.17 2.48 0 3.17-1.12 3.17-1.99 0-.25.06-1.61-2.73-2.48l-2.92-.87c-6.46-1.93-9.13-5.34-9.13-9.94 0-6.71 6.15-9.75 11.92-9.75 3.97 0 8.2 1.49 10.25 4.29l.01-.01zm38.52 10.69c0 3.91-2.11 5.22-6.09 5.22l-15.84-.19c.87 3.17 3.42 5.03 7.45 5.03 1.86 0 2.17-.25 3.91-.68 1.3-.43 2.36-.99 3.6-.99 2.05 0 3.29 1.43 3.29 3.29 0 1.18-.5 2.61-2.36 4.04-2.11 1.3-4.97 2.3-8.88 2.3-8.45 0-17.33-5.03-17.33-16.33s9.5-16.64 16.58-16.64 15.65 5.65 15.65 14.97l.02-.02zm-21.92-1.55h12.17c-.62-3.54-3.04-4.84-5.9-4.84s-5.71 1.3-6.27 4.84h0zm54.56 12.35c0 2.55-1.92 3.79-2.92 4.66-2.55 1.68-5.09 2.55-8.88 2.55-7.64 0-16.83-5.34-16.83-16.46s9.19-16.52 16.83-16.52c3.79 0 6.33.87 8.88 2.55.99.87 2.92 2.11 2.92 4.66 0 2.3-1.99 3.73-3.91 3.73s-3.23-1.06-3.73-1.37c-1.24-.81-2.79-.99-3.85-.99-4.53 0-7.33 3.11-7.33 7.95s2.79 7.89 7.33 7.89c1.06 0 2.61-.19 3.85-.99.5-.31 1.86-1.37 3.73-1.37s3.91 1.43 3.91 3.73v-.02zm5.34-8.13v-12.61c0-2.73 2.24-4.91 4.97-4.91a4.88 4.88 0 0 1 4.91 4.91v12.61c0 4.84 2.24 7.02 5.53 7.02 5.09 0 6.21-5.15 6.21-5.84v-13.79c0-2.73 2.3-4.91 4.97-4.91s4.97 2.17 4.97 4.91v22.85c0 2.79-2.3 5.03-4.97 5.03s-4.97-2.24-4.97-5.03v-1.93c-.19 2.3-3.73 7.08-10.06 7.08s-11.55-4.47-11.55-15.4l-.01.01zm62.07-13.11c0 2.79-2.05 4.66-6.27 4.66s-6.96 3.29-7.08 5.09v13.79c0 2.67-2.3 4.91-4.97 4.91s-4.97-2.24-4.97-4.91v-22.85c0-2.79 2.3-5.03 4.97-5.03s4.97 2.24 4.97 5.03v1.93c.19-2.3 3.91-7.08 8.88-7.08 2.98 0 4.47 2.11 4.47 4.47v-.01zm4.26-11.92c0-2.67 2.36-4.91 5.03-4.91s5.03 2.24 5.03 4.91-2.36 4.84-5.03 4.84-5.03-2.24-5.03-4.84zm10 12.61v22.79c0 2.79-2.3 5.03-4.97 5.03s-4.97-2.24-4.97-5.03v-22.79c0-2.79 2.3-5.03 4.97-5.03s4.97 2.24 4.97 5.03zm26.64 22.66c0 3.23-2.73 5.09-7.76 5.09s-9.69-1.49-9.69-11.74V158.5h-1.24c-2.42 0-3.97-1.61-3.97-3.79s1.55-3.85 3.97-3.85h1.24v-3.6c0-2.73 2.3-4.97 4.97-4.97s4.97 2.24 4.97 4.97v3.6h3.6c2.42 0 3.91 1.61 3.91 3.85s-1.49 3.79-3.91 3.79h-3.6v13.72c0 1.68.5 2.73 1.68 2.73.62 0 1.68-.25 2.36-.19 2.17 0 3.48 1.3 3.48 3.6l-.01.02zm36.76-23.29c0 .93-.31 1.74-.62 2.36l-15.591 34.28c-1.06 2.42-2.859 3.54-4.719 3.54-2.61 0-4.41-2.05-4.41-4.41 0-.93.31-1.74.56-2.36l3.17-7.02-11.18-24.03c-.25-.62-.56-1.43-.56-2.36 0-2.36 1.919-4.41 4.529-4.41 1.86 0 3.661 1.12 4.721 3.54l7.269 16.64 7.51-16.64c1.06-2.42 2.861-3.54 4.721-3.54 2.67 0 4.6 2.05 4.6 4.41h0z"/></g><path d="M126.54 535.84c3.82-1.44 21.87 19.98 21.87 19.98.74 1.69 28.33-38.99 28.33-38.99 1.49-2.23 5.27-.93 4.88 1.68-2.12 14.04-10.6 31.04-31.4 52.84-1.93 2.02-19.03-10.05-24.44-26.09-1.19-3.53-2.9-8.04.75-9.42h.01z" fill="#766edb"/><g fill="#000"><path d="M247.77 548.7c-.5 12.03-9.92 17.85-19.1 17.85-11.04 0-22.07-9.05-22.07-22.13s11.16-22.13 21.88-22.13c4.21 0 7.44.99 9.79 2.23 2.73 1.67 4.59 3.41 4.59 5.95 0 2.98-2.36 4.59-4.71 4.59-1.92 0-3.22-.93-3.84-1.3-.44-.19-2.23-1.8-5.64-1.8-6.26 0-11.41 5.58-11.41 12.46s5.02 12.46 11.41 12.46c3.47 0 8.43-1.98 9.18-6.32h-5.08c-2.29 0-4.4-1.67-4.4-4.09s2.11-4.15 4.4-4.15h9.49c3.84 0 5.7 2.67 5.52 6.39l-.01-.01z"/><use xlink:href="#c"/><path d="M323.38 550.12c0 11.1-9.67 16.43-16.74 16.43s-16.8-5.33-16.8-16.43 9.67-16.62 16.8-16.62 16.74 5.58 16.74 16.62zm-23.74 0c0 4.65 3.1 7.87 7.01 7.87s7.01-3.22 7.01-7.87-3.16-8.06-7.01-8.06-7.01 3.22-7.01 8.06zm60.77-23.37v34.84c0 2.73-2.42 4.9-5.08 4.9-2.29 0-4.34-1.61-4.83-3.84-.93 1.61-3.66 3.91-8.18 3.91-6.82 0-14.88-5.21-14.88-16.55s8.18-16.49 14.88-16.49c4.21 0 7.25 2.36 8.06 4.53v.56c0-.25 0-.5.06-.74v-11.1a4.95 4.95 0 0 1 4.9-4.9c2.67 0 5.08 2.23 5.08 4.9l-.01-.02zM350.8 550c0-6.08-3.91-8.06-6.63-8.06-3.53 0-6.82 2.79-6.82 8.06s3.29 8.12 6.82 8.12c2.73 0 6.63-1.92 6.63-8.12zm73.16 12.21c0 2.42-2.05 4.4-4.53 4.4-1.24 0-2.48-.62-3.29-1.49l-13.7-15.93-6.01 6.26v6.08c0 2.79-2.29 5.08-5.08 5.08s-5.08-2.23-5.08-5.02v-34.28c0-2.79 2.29-5.08 5.08-5.08s5.08 2.29 5.08 5.08v14.57l17.48-17.92c.81-.93 2.17-1.74 3.66-1.74 2.48 0 4.59 1.98 4.59 4.53 0 1.12-.56 2.23-1.05 2.85l-12.34 12.96 14.07 16.68c.68.74 1.12 1.86 1.12 2.98v-.01zm36.09-13.26v12.58c0 2.73-2.23 4.9-4.96 4.9a4.87 4.87 0 0 1-4.9-4.9v-12.58c0-4.84-2.23-7.01-5.52-7.01-5.08 0-6.2 5.15-6.2 5.83v13.76c0 2.73-2.29 4.9-4.96 4.9s-4.96-2.17-4.96-4.9v-22.81c0-2.79 2.29-5.02 4.96-5.02s4.96 2.23 4.96 5.02v1.92c.19-2.29 3.72-7.07 10.04-7.07s11.53 4.46 11.53 15.38h.01zm6.94-22.82c0-2.67 2.36-4.9 5.02-4.9s5.02 2.23 5.02 4.9-2.36 4.84-5.02 4.84-5.02-2.23-5.02-4.84zm9.98 12.59v22.75c0 2.79-2.29 5.02-4.96 5.02s-4.96-2.23-4.96-5.02v-22.75c0-2.79 2.29-5.02 4.96-5.02s4.96 2.23 4.96 5.02zm38.68 22.87c0 .43-.06.87-.19 1.3v2.6c0 10.04-9.67 13.33-16.24 13.33-3.72 0-6.82-.99-8.18-1.43-2.17-.93-3.29-2.48-3.29-4.28 0-2.23 1.8-3.91 3.91-3.91.31 0 .87 0 1.8.31 1.12.06 3.04.87 5.77.87 4.59 0 6.39-2.67 6.39-4.9v-2.67c-.99 1.61-3.72 3.72-8.06 3.72-6.82 0-14.88-5.21-14.88-16.55s8.18-16.49 14.88-16.49c4.22 0 7.25 2.36 8.06 4.53v.56c0-2.67 2.29-4.9 4.96-4.9s5.08 2.23 5.08 4.9v23l-.01.01zM506.04 550c0-6.08-3.91-8.06-6.63-8.06-3.53 0-6.82 2.79-6.82 8.06s3.29 8.12 6.82 8.12c2.73 0 6.63-1.92 6.63-8.12zm48.33-1.05v12.58c0 2.73-2.23 4.9-4.96 4.9a4.87 4.87 0 0 1-4.9-4.9v-12.58c0-4.84-2.23-7.01-5.52-7.01-5.08 0-6.2 5.15-6.2 5.83v13.76c0 2.73-2.29 4.9-4.96 4.9s-4.96-2.17-4.96-4.9v-34.72c0-2.73 2.29-4.96 4.96-4.96s4.96 2.23 4.96 4.96v13.83c.19-2.29 3.72-7.07 10.04-7.07s11.53 4.46 11.53 15.38h.01zm25.94 12.39c0 3.22-2.73 5.08-7.75 5.08s-9.67-1.49-9.67-11.72v-13.21h-1.24c-2.42 0-3.97-1.61-3.97-3.78s1.55-3.84 3.97-3.84h1.24v-3.6c0-2.73 2.29-4.96 4.96-4.96s4.96 2.23 4.96 4.96v3.6h3.6c2.42 0 3.91 1.61 3.91 3.84s-1.49 3.78-3.91 3.78h-3.6v13.7c0 1.67.5 2.73 1.67 2.73.62 0 1.67-.25 2.36-.19 2.17 0 3.47 1.3 3.47 3.6v.01z"/></g></g><defs><clipPath id="A"><path fill="#fff" d="M0 0h784.64v665.84H0z"/></clipPath><path id="B" d="M192.99 243.89c.26.44.39.79.39 1.19 0 .75-.57 1.23-1.28 1.23-.57 0-.97-.31-1.5-1.1-.88-1.32-2.46-2.46-5.02-2.46-2.95 0-4.71 1.5-4.71 3.65 0 1.67 1.14 2.95 3.92 3.65l2.82.75c4.09 1.01 6.69 2.68 6.69 6.12 0 4.31-4.13 6.65-8.71 6.65-3.65 0-6.82-1.63-7.83-3.96-.18-.35-.53-.84-.53-1.5 0-.79.48-1.36 1.23-1.36.71 0 1.06.4 1.37 1.06.92 2.2 3.21 3.12 5.76 3.12 3.08 0 5.77-1.23 5.77-3.83 0-2.07-1.63-3.04-4-3.65l-3.52-.92c-4.09-1.06-5.9-3.3-5.9-6.07 0-3.7 3.3-6.25 7.7-6.25 3.39 0 5.98 1.45 7.35 3.7v-.02z"/><path id="C" d="M212.92 243.89c.26.44.4.79.4 1.19 0 .75-.57 1.23-1.28 1.23-.57 0-.97-.31-1.5-1.1-.88-1.32-2.46-2.46-5.02-2.46-2.95 0-4.71 1.5-4.71 3.65 0 1.67 1.14 2.95 3.92 3.65l2.82.75c4.09 1.01 6.69 2.68 6.69 6.12 0 4.31-4.14 6.65-8.71 6.65-3.65 0-6.82-1.63-7.83-3.96-.18-.35-.53-.84-.53-1.5 0-.79.48-1.36 1.23-1.36.7 0 1.05.4 1.36 1.06.92 2.2 3.21 3.12 5.77 3.12 3.08 0 5.76-1.23 5.76-3.83 0-2.07-1.63-3.04-4-3.65l-3.52-.92c-4.09-1.06-5.9-3.3-5.9-6.07 0-3.7 3.3-6.25 7.7-6.25 3.39 0 5.99 1.45 7.35 3.7v-.02z"/><path id="D" d="M290.9 241.69c0 .88-.75 1.45-2.02 1.45-4.36 0-7.35 3.48-7.83 6.51v12.37c0 .84-.66 1.54-1.5 1.54s-1.5-.7-1.5-1.54v-20.15c0-.84.66-1.54 1.5-1.54s1.5.7 1.5 1.54v3.96c.26-1.45 3.17-5.59 8.05-5.59 1.14 0 1.8.62 1.8 1.45h0z"/><path id="E" d="M406.89 261.67c0 1.45-2.2 1.89-3.87 1.89-2.11 0-4.14-.79-4.14-4.36v-16.19h-2.16c-.75 0-1.28-.48-1.28-1.28s.53-1.28 1.28-1.28h2.16v-4c0-.84.66-1.5 1.5-1.5s1.5.66 1.5 1.5v4h3.7c.75 0 1.32.48 1.32 1.28s-.57 1.28-1.32 1.28h-3.7v16.02c0 1.41.62 1.94 1.76 1.94.71 0 1.28-.18 1.76-.31.84-.26 1.5.26 1.5 1.01h-.01z"/><path id="F" d="M430.51 251.37c0 1.14-.71 1.72-1.94 1.72h-17.16c.35 5.41 4.53 7.92 8.54 7.92 2.11 0 4.05-.66 5.54-1.89.57-.44.92-.66 1.32-.66.75 0 1.19.53 1.19 1.19 0 .4-.18.79-.84 1.41-1.85 1.67-4.53 2.51-7.3 2.51-5.54 0-11.53-3.74-11.53-11.66s6.16-11.71 11.18-11.71 11 3.92 11 11.18v-.01zm-19.1-.7h16.2c-.35-5.37-4.53-7.83-8.1-7.83s-7.7 2.46-8.1 7.83h0z"/><path id="G" d="M467.09 261.67c0 1.45-2.2 1.89-3.87 1.89-2.11 0-4.14-.79-4.14-4.36v-16.19h-2.16c-.75 0-1.28-.48-1.28-1.28s.53-1.28 1.28-1.28h2.16v-4c0-.84.66-1.5 1.5-1.5s1.5.66 1.5 1.5v4h3.7c.75 0 1.32.48 1.32 1.28s-.57 1.28-1.32 1.28h-3.7v16.02c0 1.41.62 1.94 1.76 1.94.7 0 1.28-.18 1.76-.31.84-.26 1.5.26 1.5 1.01h-.01z"/><path id="H" d="M573.82 251.37c0 1.14-.7 1.72-1.94 1.72h-17.16c.35 5.41 4.53 7.92 8.54 7.92 2.11 0 4.05-.66 5.54-1.89.57-.44.92-.66 1.32-.66.75 0 1.19.53 1.19 1.19 0 .4-.18.79-.84 1.41-1.85 1.67-4.53 2.51-7.3 2.51-5.54 0-11.53-3.74-11.53-11.66s6.16-11.71 11.18-11.71 11 3.92 11 11.18v-.01zm-19.1-.7h16.19c-.35-5.37-4.53-7.83-8.1-7.83s-7.7 2.46-8.1 7.83h.01z"/><path id="I" d="M642.41 233.02a1.56 1.56 0 0 1 1.54-1.54 1.56 1.56 0 0 1 1.54 1.54c0 .84-.7 1.54-1.54 1.54s-1.54-.7-1.54-1.54zm3.04 8.85v20.2c0 .84-.66 1.54-1.5 1.54s-1.5-.7-1.5-1.54v-20.2c0-.84.66-1.54 1.5-1.54s1.5.7 1.5 1.54z"/><path id="J" d="M207.83 302.68v12.15c0 .79-.66 1.54-1.5 1.54-.79 0-1.5-.75-1.5-1.54v-12.15c0-5.1-3.12-6.95-6.34-6.95-4.71 0-7.26 3.83-7.74 6.73v12.37c0 .79-.66 1.54-1.5 1.54s-1.5-.75-1.5-1.54v-12.15c0-5.1-3.12-6.95-6.38-6.95-4.67 0-7.22 3.83-7.7 6.73v12.37c0 .79-.66 1.54-1.5 1.54s-1.5-.75-1.5-1.54v-20.15c0-.84.66-1.54 1.5-1.54s1.5.7 1.5 1.54v3.96c.26-1.45 3.04-5.59 8.4-5.59 3.26 0 6.87 1.5 8.14 5.85 1.28-2.77 4.22-5.85 8.98-5.85 4.09 0 8.62 2.38 8.62 9.64l.02-.01z"/><path id="K" d="M234.76 304.7c0 7.88-6.29 11.75-11.4 11.75s-11.35-3.87-11.35-11.75 6.29-11.71 11.35-11.71 11.4 3.87 11.4 11.71zm-19.76 0c0 6.16 4.53 9.11 8.36 9.11s8.4-2.95 8.4-9.11-4.53-9.06-8.4-9.06-8.36 2.95-8.36 9.06z"/><path id="L" d="M260.1 286.26v28.6c0 .79-.71 1.54-1.54 1.54-.79 0-1.5-.75-1.5-1.54v-3.7c-1.28 3.17-4.49 5.28-8.19 5.28-4.93 0-10.91-3.83-10.91-11.75s5.98-11.71 10.91-11.71c3.39 0 6.69 1.67 8.19 4.88v-3.21c0-.13 0-.26.04-.35v-8.05c0-.84.66-1.54 1.5-1.54.79 0 1.5.7 1.5 1.54v.01zm-2.86 18.44c0-6.34-4.31-9.06-8.05-9.06s-8.23 2.9-8.23 9.06 4.49 9.11 8.23 9.11 8.05-2.9 8.05-9.11z"/><path id="M" d="M303.42 294.49c0 .88-.75 1.45-2.03 1.45-4.36 0-7.35 3.48-7.83 6.51v12.37c0 .84-.66 1.54-1.5 1.54s-1.5-.7-1.5-1.54v-20.15c0-.84.66-1.54 1.5-1.54s1.5.7 1.5 1.54v3.96c.26-1.45 3.17-5.59 8.05-5.59 1.14 0 1.8.62 1.8 1.45h.01z"/><path id="N" d="M323.47 297.88v-3.21c0-.84.7-1.54 1.5-1.54.88 0 1.54.7 1.54 1.54v20.2c0 .79-.7 1.54-1.54 1.54-.79 0-1.5-.75-1.5-1.54v-3.7c-1.28 3.17-4.49 5.28-8.19 5.28-4.93 0-10.91-3.83-10.91-11.75s5.98-11.71 10.91-11.71c3.39 0 6.69 1.67 8.19 4.88v.01zm.18 6.82c0-6.34-4.31-9.06-8.05-9.06s-8.23 2.9-8.23 9.06 4.49 9.11 8.23 9.11 8.05-2.9 8.05-9.11z"/><path id="O" d="M374.22 304.7c0 7.88-6.29 11.75-11.4 11.75s-11.35-3.87-11.35-11.75 6.29-11.71 11.35-11.71 11.4 3.87 11.4 11.71zm-19.76 0c0 6.16 4.53 9.11 8.36 9.11s8.41-2.95 8.41-9.11-4.53-9.06-8.41-9.06-8.36 2.95-8.36 9.06z"/><path id="P" d="M398.57 302.68v12.15c0 .79-.66 1.54-1.5 1.54s-1.5-.75-1.5-1.54v-12.15c0-5.1-3.12-6.95-6.38-6.95-4.67 0-7.22 3.83-7.7 6.73v12.37c0 .79-.66 1.54-1.5 1.54s-1.5-.75-1.5-1.54v-20.15c0-.84.66-1.54 1.5-1.54s1.5.7 1.5 1.54v3.96c.26-1.45 3.04-5.59 8.4-5.59 4.09 0 8.67 2.38 8.67 9.64l.01-.01z"/><path id="Q" d="M661.65 320.63l2.55-7.04c.26-.84.75-1.14 1.45-1.14h1.28c.84 0 1.01.48.62 1.28l-3.48 7.22c-.31.66-.79.84-1.41.84h-.26c-.71 0-1.01-.48-.75-1.14v-.02z"/><path id="R" d="M229.86 357.5c0 7.92-5.98 11.75-10.91 11.75-3.7 0-6.91-2.11-8.19-5.28v3.7c0 .13 0 .22-.04.35v7.97a1.52 1.52 0 0 1-1.5 1.5c-.84 0-1.5-.7-1.5-1.5v-28.52c0-.84.66-1.54 1.54-1.54.79 0 1.5.7 1.5 1.54v3.21c1.5-3.21 4.8-4.88 8.19-4.88 4.93 0 10.91 3.87 10.91 11.71v-.01zm-2.99 0c0-6.16-4.49-9.07-8.23-9.07s-8.05 2.73-8.05 9.07 4.31 9.11 8.05 9.11 8.23-2.9 8.23-9.11z"/><path id="S" d="M255.81 357.5c0 7.88-6.29 11.75-11.4 11.75s-11.35-3.87-11.35-11.75 6.29-11.71 11.35-11.71 11.4 3.87 11.4 11.71zm-19.76 0c0 6.16 4.53 9.11 8.36 9.11s8.4-2.95 8.4-9.11-4.53-9.07-8.4-9.07-8.36 2.95-8.36 9.07z"/><path id="T" d="M292.99 350.68v-3.21c0-.84.7-1.54 1.5-1.54.88 0 1.54.7 1.54 1.54v20.2c0 .79-.7 1.54-1.54 1.54-.79 0-1.5-.75-1.5-1.54v-3.7c-1.28 3.17-4.49 5.28-8.19 5.28-4.93 0-10.91-3.83-10.91-11.75s5.98-11.71 10.91-11.71c3.39 0 6.69 1.67 8.19 4.88v.01zm.18 6.82c0-6.34-4.31-9.07-8.05-9.07s-8.23 2.9-8.23 9.07 4.49 9.11 8.23 9.11 8.05-2.9 8.05-9.11z"/><path id="U" d="M463.45 338.62c0-.84.7-1.54 1.54-1.54s1.54.7 1.54 1.54a1.56 1.56 0 0 1-1.54 1.54 1.56 1.56 0 0 1-1.54-1.54zm3.04 8.85v20.2c0 .84-.66 1.54-1.5 1.54s-1.5-.7-1.5-1.54v-20.2c0-.84.66-1.54 1.5-1.54s1.5.7 1.5 1.54z"/><path id="V" d="M541.59 357.5c0 7.88-6.29 11.75-11.4 11.75s-11.35-3.87-11.35-11.75 6.29-11.71 11.35-11.71 11.4 3.87 11.4 11.71zm-19.76 0c0 6.16 4.53 9.11 8.36 9.11s8.41-2.95 8.41-9.11-4.53-9.07-8.41-9.07-8.36 2.95-8.36 9.07z"/><path id="W" d="M589.26 373.43l2.55-7.04c.26-.84.75-1.14 1.45-1.14h1.28c.84 0 1.01.48.62 1.28l-3.48 7.22c-.31.66-.79.84-1.41.84h-.26c-.7 0-1.01-.48-.75-1.14v-.02z"/><path id="X" d="M174.61 408.28v12.15c0 .79-.66 1.54-1.5 1.54s-1.5-.75-1.5-1.54v-12.15c0-5.1-3.12-6.95-6.38-6.95-4.66 0-7.22 3.83-7.7 6.73v12.37c0 .79-.66 1.54-1.5 1.54s-1.5-.75-1.5-1.54v-20.15c0-.84.66-1.54 1.5-1.54s1.5.7 1.5 1.54v3.96c.26-1.45 3.04-5.59 8.41-5.59 4.09 0 8.67 2.38 8.67 9.64v-.01z"/><path id="Y" d="M213.79 409.38c0 .7-.53 1.23-1.19 1.23h-11.79a1.23 1.23 0 0 1-1.23-1.23c0-.66.57-1.19 1.23-1.19h11.79c.66 0 1.19.53 1.19 1.19z"/><path id="Z" d="M324.62 472.69c0-1.01.84-1.85 1.89-1.85a1.84 1.84 0 0 1 1.85 1.85c0 1.01-.84 1.89-1.85 1.89a1.91 1.91 0 0 1-1.89-1.89z"/><path id="a" d="M249.82 165.47c0 3.91-2.11 5.22-6.09 5.22l-15.84-.19c.87 3.17 3.42 5.03 7.45 5.03 1.86 0 2.17-.25 3.91-.68 1.3-.43 2.36-.99 3.6-.99 2.05 0 3.29 1.43 3.29 3.29 0 1.18-.5 2.61-2.36 4.04-2.11 1.3-4.97 2.3-8.88 2.3-8.45 0-17.33-5.03-17.33-16.33s9.5-16.64 16.58-16.64 15.65 5.65 15.65 14.97l.02-.02zm-21.92-1.55h12.17c-.62-3.54-3.04-4.84-5.9-4.84s-5.71 1.3-6.27 4.84h0z"/><path id="b" d="M278.44 155.03c0 2.79-2.05 4.66-6.27 4.66s-6.96 3.29-7.08 5.09v13.79c0 2.67-2.3 4.91-4.97 4.91s-4.97-2.24-4.97-4.91v-22.85c0-2.79 2.3-5.03 4.97-5.03s4.97 2.24 4.97 5.03v1.93c.19-2.3 3.91-7.08 8.88-7.08 2.98 0 4.47 2.11 4.47 4.47v-.01z"/><path id="c" d="M285.8 550.12c0 11.1-9.67 16.43-16.74 16.43s-16.8-5.33-16.8-16.43 9.67-16.62 16.8-16.62 16.74 5.58 16.74 16.62zm-23.74 0c0 4.65 3.1 7.87 7.01 7.87s7.01-3.22 7.01-7.87-3.16-8.06-7.01-8.06-7.01 3.22-7.01 8.06z"/></defs></svg>