<svg xmlns="http://www.w3.org/2000/svg" width="1080" height="2119" fill="none" xmlns:v="https://vecta.io/nano"><style><![CDATA[.B{fill-rule:evenodd}.C{fill:#a7a7a8}.D{opacity:.2}.E{fill:#474757}]]></style><g fill="#fff"><path d="M0 313H1080V1776H0V313Z"/><path d="M0 237L1080 37v361.5L0 598.5V237zm0 1458l1080-200v361.5L0 2056.5V1695z"/></g><g clip-path="url(#C)"><g class="B"><path d="M975.624 34.027s9.382 46.226 8.317 57.273-22.256 35.445-22.256 35.445-22.374 47.998-29.596 71.48-60.315 85.658-60.315 85.658H758.837c-39.539 0-100.24-20.676-100.24-20.676s-57.237-104.385-62.15-109.288-32.555-14.768-32.555-14.768S518.551 57.804 515 36.301L640.781 41.5l334.843-7.473z" fill="url(#A)"/><path d="M975.624 34.027l-59.457-7.443-34.538-5.907-197.195 2.954S635.365.354 624.681 0s-34.775 26.583-34.775 26.583L515 36.301s34.212 11.815 60.582 11.401l-25.067 8.418c4.752 3.6 10.13 6.294 15.863 7.945 9.973 2.954 84.909 5.228 120.483 4.815s51.112-12.76 51.112-12.76l-16.308-6.173 19.238-2.274s58.214 10.19 80.411 10.899a281.52 281.52 0 0 0 50.726-4.696l-36.965-11.815s19.741.236 53.272 3.249c30.158 2.776 66.324-6.734 87.277-11.283z" fill="#ceccd4"/></g><g style="mix-blend-mode:multiply" opacity=".35" class="B C"><path d="M888.259 45.34v32.255l32.822 5.582s1.45.62 5.06 9.895 20.332 32.107 20.332 32.107l15.213 1.683-12.194 27.204s-17.55.177-24.534 4.49-22.463 17.249-22.463 17.249l-9.293 25.402s-9.264-46.964-9.885-54.378-9.648-39.314-8.228-44.689-.562-26.407-.562-26.407l-2.486-21.857s-47.56 6.41-52.503 8.152-7.132 21.621-7.132 21.621l-16.248 37.453L814.3 175.54l-6.985 46.166-2.278 34.706L779.288 284h-20.45l-17.935-95.789c-1.213-5.583 4.41-18.52 4.41-18.52l-8.139-56.711.799-56.859-16.307-6.173 19.237-2.274 70.408 9.954c10.003.945 60.996-4.726 60.996-4.726l-30.631-11.165 46.583 3.603z"/></g><g style="mix-blend-mode:multiply" opacity=".35" class="B C"><path d="M627.463 68.969l-40.753 6.764 6.481 15.566 17.758 42.534 21.308 20.233 23.884 8.861 18.586 12.937h-16.189l1.243 17.221 8.642 40.997.474 32.491-10.3-3.308-62.15-109.288s-29.596-9.156-32.555-14.768S518.818 55.589 515 36.301l60.582 11.401-25.067 8.418s17.757 7.857 29.595 9.718 47.353 3.131 47.353 3.131z"/></g><g style="mix-blend-mode:color-dodge" opacity=".46" class="B"><path d="M682.184 23.246l14.798 7.916s-10.862 2.658-17.195 4.549-40.99-1.122-47.175-2.954-28.826-9.511-28.826-9.511l-1.214-7.709S619.53-.857 624.68 0s48.507 18.461 57.504 23.246z" fill="#aba7b5"/></g><g style="mix-blend-mode:multiply" opacity=".33" class="B E"><path d="M588.072 26.879l14.443 8.861 22.64.591h48.212s-37.024-3.456-42.648-4.756-26.932-8.329-26.932-8.329l-1.213-7.709-14.502 11.342z"/></g><g style="mix-blend-mode:multiply" opacity=".34" class="B E"><path d="M888.259 77.594l-13.732 32.137-2.22-56.8-38.356-11.165 54.308 3.574v32.255z"/></g><g style="mix-blend-mode:multiply" opacity=".34" class="B E"><path d="M575.582 47.703l-25.067 8.418 10.772 78.569S527.489 70.417 515 36.301l60.582 11.401z"/></g><g style="mix-blend-mode:multiply" opacity=".34" class="B E"><path d="M811.311 57.656l-32.023 31.014-19.829 21.06-4.025 18.018-17.757-11.283.296-60.315-16.307-6.173 19.237-2.274 70.408 9.954z"/></g><g style="mix-blend-mode:multiply" class="D C"><path d="M643.799 146.18a25.6 25.6 0 0 1 1.332-2.718c.207-.413.355-.856.592-1.24.287-.52.646-.998 1.066-1.418a7.85 7.85 0 0 1 2.959-2.009 7.74 7.74 0 0 1 3.848-.236 2.96 2.96 0 0 1 1.029.532 2.93 2.93 0 0 1 .746.886c.172.177.322.376.444.59 0 .266.207.503.296.739.149.541.149 1.113 0 1.654-.269 2.075-.932 4.08-1.953 5.907a8.3 8.3 0 0 1-2.486 2.777c-1.006.747-2.24 1.123-3.492 1.063a5.65 5.65 0 0 1-2.279-.679 5.37 5.37 0 0 1-1.687-1.684c-.379-.618-.613-1.314-.685-2.035a4.82 4.82 0 0 1 .27-2.129z"/></g><g style="mix-blend-mode:multiply" class="D C"><path d="M665.02 136.166c-1.908-2.854-3.17-6.09-3.699-9.481-.435-2.268-.22-4.613.621-6.764.807-1.745 1.799-3.399 2.96-4.933 2.131-3.127 5.064-5.627 8.494-7.236.858-.385 1.75-.691 2.664-.916a13.14 13.14 0 0 1 6.599-1.241c2.637.342 5.093 1.524 7.002 3.371s3.169 4.259 3.594 6.879a15.69 15.69 0 0 1-1.835 10.131c-1.433 2.882-3.024 5.682-4.765 8.389-2.309 3.337-5.179 6.882-9.441 7.384a12.96 12.96 0 0 1-6.879-1.09c-2.15-.984-3.988-2.538-5.315-4.493z"/></g><g style="mix-blend-mode:multiply" class="D C"><path d="M658.776 180.679c-.531-1.293-.956-2.627-1.273-3.988l-.621-1.801a12 12 0 0 1-.267-2.57c.045-2.032.477-4.037 1.273-5.908a19.06 19.06 0 0 1 3.729-5.671c.881-.858 2.03-1.39 3.256-1.506h.236c.33-.128.682-.188 1.036-.177h1.036c.673.207 1.25.647 1.628 1.24 1.784 2.063 3.043 4.525 3.67 7.178a13.59 13.59 0 0 1 0 5.7 13.2 13.2 0 0 1-2.782 5.908 11.8 11.8 0 0 1-2.96 2.717 8.68 8.68 0 0 1-3.403 1.182c-.905.127-1.827-.026-2.642-.438s-1.483-1.063-1.916-1.866z"/></g><g style="mix-blend-mode:multiply" class="D C"><path d="M894.562 173.826c1.391 1.891 9.855-1.506 11.276-3.426 8.879-12.14 9.974-28.119 4.41-25.048s-25.63 14.71-15.686 28.474z"/></g><g style="mix-blend-mode:multiply" class="D C"><path d="M879.025 148.277c.476-.215.993-.325 1.515-.321a3.62 3.62 0 0 1 1.51.343c.473.221.892.543 1.228.942s.581.866.719 1.369c.798 2.221.867 4.638.196 6.9s-2.045 4.253-3.925 5.683c-5.564 4.401-14.176-.857-14.117-5.907.059-3.22 7.99-7.001 12.874-9.009z"/></g><g style="mix-blend-mode:multiply" class="D C"><path d="M736.967 204.929c-.503 6.498-1.806 31.546-1.273 35.651s26.932 9.364 27.909 4.017-18.853-42.71-22.671-45.014-3.965 3.426-3.965 5.346z"/></g></g><g class="B"><path d="M296.386 1955.15s6.004 62.71 0 88.72c0 0-7.783 15.19-42.006 21.78v49.98s-52.483 7.71-75.018-3.64l-15.122-15.75C135.577 2058.83 72 1941.92 72 1941.92l101.803 7.57 122.583 5.66z" fill="url(#B)"/><path d="M296.387 1955.15s-80.8-5.89-84.012-8.91c-5.535-5.44-24.512-8.18-24.512-8.18L72 1941.92s15.74 7.57 31.332 13.23c15.592 5.67 88.731 8.92 119.915 7.3 31.183-1.63 73.14-7.3 73.14-7.3z" fill="#ceccd4"/></g><g style="mix-blend-mode:multiply" opacity=".6" class="B"><path d="M260.805 2064.26l-.692.16-5.683 1.23v49.98s-52.805 8.04-75.018-3.64l-15.123-15.75C134.193 2054.97 72 1941.92 72 1941.92s31.727 17.67 48.801 16.58c-3.657-.42 31.282 84.46 35.631 95.68s28.959 18.58 28.959 18.58l36.224-9.29 5.486-19.72v-52.27l12.503 52.39 19.767 4.64 37.065-4.64s-6.87 13.24-35.631 20.39z" fill="#9696a8"/></g><g style="mix-blend-mode:color-dodge" opacity=".46" class="B"><path d="M212.449 1946.23s-33.283 3.07-45.786 2.72-39.535-2.72-39.535-2.72 41.734-9.05 60.735-8.17c0 0 20.88 3.34 24.586 8.17z" fill="#aba7b5"/></g><g style="mix-blend-mode:multiply" opacity=".29" class="C"><path d="M261.349 2003.9c1.236 1.14 8.723-.88 9.884-2.04 8.055-7.27 8.896-16.84 3.978-15.03s-22.634 8.83-13.862 17.07z"/></g><g style="mix-blend-mode:multiply" opacity=".29" class="C"><path d="M247.659 1988.62c.79-.29 1.665-.31 2.469-.06.805.26 1.488.77 1.929 1.45a5.37 5.37 0 0 1 .515 2.21 5.32 5.32 0 0 1-.454 2.22 5.51 5.51 0 0 1-1.348 1.87c-.579.54-1.268.95-2.024 1.23-4.942 2.64-12.503-.51-12.354-3.44-.075-2.02 6.918-4.27 11.267-5.48z"/></g><g style="mix-blend-mode:multiply" opacity=".29" class="C"><path d="M153.468 2009.92c-3.732 2.97-17.618 14.67-19.348 16.86-1.73 2.18 14.43 13.93 17.89 11.61s8.673-27.22 7.091-29.68-4.521.32-5.633 1.21z"/></g><path d="M239.603 2043.87l4.794 18.53 10.007 3.25v49.98l-25.599-32.74-7.19-19.51 5.485-19.72v-52.11l12.503 52.32z" class="E"/><defs><linearGradient id="A" x1="742.915" y1="336.399" x2="751.788" y2="-33.348" gradientUnits="userSpaceOnUse"><stop offset=".12" stop-color="#cfccd4"/><stop offset="1" stop-color="#2c2733"/></linearGradient><linearGradient id="B" x1="191.84" y1="2190.18" x2="182.868" y2="1840.03" gradientUnits="userSpaceOnUse"><stop offset=".12" stop-color="#cfccd4"/><stop offset="1" stop-color="#2c2733"/></linearGradient><clipPath id="C"><path fill="#fff" transform="translate(515)" d="M0 0h469v284H0z"/></clipPath></defs></svg>