<svg xmlns="http://www.w3.org/2000/svg" width="109" height="134" fill="#3a2657" xmlns:v="https://vecta.io/nano"><path d="M54.357 77.87c-2.215 0-3.987 1.814-3.987 4.081v9.635c0 2.267 1.772 4.081 3.987 4.081s3.987-1.814 3.987-4.081V81.95c0-2.267-1.772-4.081-3.987-4.081zm.886-36.271c-4.983-.453-10.41 2.947-11.406 8.274-.886 4.647-.664 9.521-.886 14.395h22.813V52.48c-.221-5.554-4.651-10.315-10.52-10.881zm53.378-16.209c0-3.174-1.883-4.987-5.205-4.987-6.423 0-12.736-.68-18.937-2.267-9.413-2.494-17.719-7.141-25.027-13.828C58.234 3.174 55.908 0 54.247 0c-1.44 0-3.433 2.72-4.43 3.74-9.413 8.954-20.598 14.168-33.222 15.755-3.654.453-7.309.68-10.963.793-3.765.113-5.426 1.814-5.426 5.554L.095 54.18c.221 11.788 1.661 23.463 5.537 34.684 5.094 14.395 13.843 25.843 26.356 34.232 6.423 4.307 13.289 7.48 20.376 10.087 1.329.454 2.547.567 3.765.114 11.185-4.081 21.484-9.521 30.232-17.909 9.081-8.728 14.95-19.269 18.383-31.511 2.214-8.048 3.543-16.209 3.765-24.483.332-11.221.221-22.556.111-34.004zM77.724 96.686c0 3.4-1.107 4.533-4.319 4.533H54.468 35.532c-3.322 0-4.43-1.133-4.43-4.647v-27.77c0-2.04.443-3.741 2.658-4.421.332-.113.554-.907.554-1.36.111-4.08-.111-8.161.221-12.128.886-10.201 9.413-18.136 19.49-18.476 9.856-.227 18.826 7.254 20.044 17.342.554 4.194.332 8.614.332 12.922 0 1.02.111 1.587 1.218 1.927 1.44.453 1.993 1.7 1.993 3.287v8.841l.111 19.949z"/></svg>