<svg width="405" height="138" viewBox="0 0 405 138" fill="none" xmlns="http://www.w3.org/2000/svg">
<rect y="39" width="348" height="60" rx="30" fill="white"/>
<path d="M75.9222 75.9966L75.9242 59.1966L78.4922 59.1962L85.8348 71.4591L84.4908 71.4593L91.7163 59.1941L94.2843 59.1938L94.3062 75.9937L91.3542 75.9942L91.3317 63.8262L91.9557 63.8261L85.8105 74.0751L84.4185 74.0753L78.1797 63.8282L78.8997 63.8281L78.8982 75.9961L75.9222 75.9966ZM104.316 76.1602C103.004 76.1604 101.836 75.8806 100.812 75.3208C99.7883 74.7449 98.9803 73.961 98.3885 72.9691C97.7966 71.9772 97.5007 70.8493 97.5009 69.5853C97.501 68.3053 97.7972 67.1772 98.3893 66.2011C98.9814 65.209 99.7895 64.4329 100.814 63.8728C101.838 63.3126 103.006 63.0324 104.318 63.0322C105.646 63.032 106.822 63.3118 107.846 63.8717C108.885 64.4315 109.693 65.1994 110.269 66.1753C110.861 67.1512 111.157 68.2872 111.157 69.5832C111.157 70.8472 110.861 71.9752 110.268 72.9673C109.692 73.9594 108.884 74.7435 107.844 75.3197C106.82 75.8798 105.644 76.16 104.316 76.1602ZM104.316 73.5922C105.052 73.5921 105.708 73.432 106.284 73.1119C106.86 72.7918 107.309 72.3278 107.629 71.7197C107.965 71.1117 108.133 70.3996 108.133 69.5836C108.133 68.7516 107.965 68.0397 107.629 67.4477C107.309 66.8398 106.861 66.3758 106.285 66.0559C105.709 65.736 105.061 65.5761 104.341 65.5762C103.605 65.5763 102.949 65.7364 102.373 66.0565C101.813 66.3766 101.365 66.8407 101.029 67.4487C100.693 68.0408 100.525 68.7528 100.525 69.5848C100.525 70.4008 100.693 71.1128 101.029 71.7207C101.365 72.3287 101.812 72.7926 102.372 73.1125C102.948 73.4324 103.596 73.5923 104.316 73.5922ZM117.985 76.1581C116.913 76.1583 115.881 76.0224 114.889 75.7506C113.913 75.4627 113.137 75.1189 112.561 74.7189L113.713 72.4388C114.289 72.8067 114.977 73.1106 115.777 73.3505C116.577 73.5903 117.377 73.7102 118.177 73.7101C119.121 73.7099 119.801 73.5818 120.217 73.3258C120.649 73.0697 120.865 72.7257 120.865 72.2937C120.865 71.9417 120.721 71.6777 120.433 71.5017C120.145 71.3098 119.769 71.1658 119.305 71.0699C118.841 70.974 118.321 70.8861 117.745 70.8061C117.185 70.7262 116.617 70.6223 116.042 70.4944C115.482 70.3505 114.97 70.1506 114.506 69.8946C114.042 69.6227 113.666 69.2628 113.378 68.8148C113.09 68.3669 112.946 67.7749 112.946 67.0389C112.946 66.2229 113.178 65.5189 113.642 64.9268C114.106 64.3187 114.754 63.8546 115.586 63.5345C116.434 63.1983 117.434 63.0302 118.586 63.03C119.45 63.0299 120.322 63.1258 121.202 63.3176C122.082 63.5095 122.81 63.7814 123.386 64.1333L122.234 66.4135C121.626 66.0456 121.01 65.7976 120.386 65.6697C119.778 65.5258 119.17 65.4539 118.562 65.454C117.65 65.4542 116.97 65.5903 116.522 65.8623C116.09 66.1344 115.874 66.4784 115.874 66.8944C115.874 67.2784 116.018 67.5664 116.306 67.7584C116.594 67.9503 116.97 68.1023 117.434 68.2142C117.898 68.3261 118.41 68.422 118.97 68.502C119.546 68.5659 120.114 68.6698 120.674 68.8137C121.234 68.9576 121.746 69.1575 122.21 69.4135C122.69 69.6534 123.074 69.9973 123.362 70.4453C123.649 70.8932 123.793 71.4772 123.793 72.1972C123.793 72.9972 123.553 73.6933 123.073 74.2853C122.609 74.8774 121.945 75.3415 121.081 75.6776C120.217 75.9978 119.185 76.1579 117.985 76.1581ZM131.2 76.1561C129.792 76.1563 128.704 75.7965 127.937 75.0766C127.169 74.3407 126.785 73.2608 126.785 71.8368L126.786 60.3408L129.786 60.3403L129.785 71.7643C129.785 72.3723 129.937 72.8443 130.241 73.1802C130.561 73.5162 131.001 73.6841 131.561 73.684C132.233 73.6839 132.793 73.5078 133.241 73.1558L134.08 75.2916C133.728 75.5797 133.296 75.7958 132.784 75.9398C132.272 76.0839 131.744 76.156 131.2 76.1561ZM124.674 65.6691L124.674 63.2691L133.218 63.2678L133.218 65.6678L124.674 65.6691ZM143.469 75.9862L143.471 59.1862L150.383 59.1851C151.871 59.1849 153.143 59.4247 154.199 59.9045C155.271 60.3844 156.095 61.0723 156.671 61.9682C157.247 62.8641 157.535 63.928 157.534 65.16C157.534 66.392 157.246 67.4561 156.67 68.3522C156.094 69.2483 155.27 69.9364 154.198 70.4165C153.142 70.8967 151.87 71.1369 150.382 71.1371L145.198 71.1379L146.59 69.6737L146.589 75.9857L143.469 75.9862ZM146.59 70.0097L145.198 68.4979L150.238 68.4972C151.614 68.4969 152.646 68.2088 153.334 67.6327C154.038 67.0406 154.39 66.2165 154.39 65.1605C154.391 64.0885 154.039 63.2646 153.335 62.6887C152.647 62.1128 151.615 61.8249 150.239 61.8252L145.199 61.8259L146.591 60.2897L146.59 70.0097ZM166.074 76.1507C164.762 76.1509 163.594 75.8711 162.57 75.3113C161.546 74.7354 160.738 73.9515 160.146 72.9596C159.554 71.9677 159.259 70.8398 159.259 69.5758C159.259 68.2958 159.555 67.1677 160.147 66.1916C160.739 65.1995 161.547 64.4234 162.571 63.8633C163.595 63.3031 164.763 63.0229 166.075 63.0227C167.403 63.0225 168.579 63.3023 169.603 63.8622C170.643 64.422 171.451 65.1899 172.027 66.1658C172.619 67.1417 172.915 68.2777 172.915 69.5737C172.915 70.8377 172.618 71.9657 172.026 72.9578C171.45 73.9499 170.642 74.734 169.602 75.3102C168.578 75.8703 167.402 76.1505 166.074 76.1507ZM166.074 73.5827C166.81 73.5826 167.466 73.4225 168.042 73.1024C168.618 72.7823 169.066 72.3183 169.386 71.7102C169.723 71.1022 169.891 70.3901 169.891 69.5741C169.891 68.7421 169.723 68.0302 169.387 67.4382C169.067 66.8303 168.619 66.3663 168.043 66.0464C167.467 65.7265 166.819 65.5666 166.099 65.5667C165.363 65.5668 164.707 65.7269 164.131 66.047C163.571 66.3671 163.123 66.8312 162.787 67.4392C162.451 68.0313 162.283 68.7433 162.283 69.5753C162.283 70.3913 162.451 71.1033 162.786 71.7112C163.122 72.3192 163.57 72.7831 164.13 73.103C164.706 73.4229 165.354 73.5828 166.074 73.5827ZM182.887 76.1481C181.847 76.1483 180.895 75.9084 180.031 75.4286C179.183 74.9487 178.503 74.2288 177.991 73.2689C177.495 72.293 177.247 71.061 177.247 69.573C177.248 68.069 177.488 66.837 177.968 65.8769C178.464 64.9168 179.136 64.2047 179.984 63.7406C180.832 63.2605 181.8 63.0203 182.888 63.0201C184.152 63.0199 185.264 63.2918 186.224 63.8356C187.2 64.3795 187.968 65.1394 188.528 66.1153C189.104 67.0912 189.392 68.2431 189.391 69.5711C189.391 70.8991 189.103 72.0592 188.527 73.0513C187.967 74.0274 187.199 74.7875 186.223 75.3316C185.263 75.8758 184.151 76.1479 182.887 76.1481ZM175.782 80.6372L175.784 63.1652L178.64 63.1648L178.64 66.1888L178.543 69.5968L178.783 73.0048L178.782 80.6368L175.782 80.6372ZM182.551 73.5802C183.271 73.5801 183.911 73.42 184.471 73.0999C185.047 72.7798 185.503 72.3157 185.839 71.7077C186.175 71.0996 186.343 70.3876 186.343 69.5716C186.344 68.7396 186.176 68.0276 185.84 67.4357C185.504 66.8277 185.048 66.3638 184.472 66.0439C183.912 65.724 183.272 65.5641 182.552 65.5642C181.832 65.5643 181.184 65.7244 180.608 66.0445C180.032 66.3646 179.576 66.8287 179.24 67.4367C178.904 68.0288 178.736 68.7408 178.735 69.5728C178.735 70.3888 178.903 71.1008 179.239 71.7087C179.575 72.3167 180.031 72.7806 180.607 73.1005C181.183 73.4204 181.831 73.5803 182.551 73.5802ZM197.66 76.1459C196.572 76.146 195.612 75.9462 194.78 75.5463C193.948 75.1304 193.3 74.5065 192.836 73.6746C192.372 72.8267 192.14 71.7627 192.14 70.4827L192.141 63.1627L195.141 63.1623L195.14 70.0743C195.14 71.2263 195.396 72.0902 195.908 72.6661C196.436 73.2261 197.18 73.5059 198.14 73.5058C198.844 73.5057 199.452 73.3616 199.964 73.0735C200.492 72.7854 200.9 72.3534 201.188 71.7773C201.492 71.2013 201.644 70.4893 201.645 69.6413L201.645 63.1613L204.645 63.1608L204.644 75.9768L201.788 75.9772L201.788 72.5212L202.292 73.5772C201.86 74.4092 201.228 75.0493 200.396 75.4975C199.564 75.9296 198.652 76.1457 197.66 76.1459ZM208.572 75.9762L208.574 58.1682L211.574 58.1677L211.572 75.9757L208.572 75.9762ZM223.405 75.9739L223.406 73.3819L223.238 72.8299L223.238 68.2939C223.238 67.4139 222.974 66.734 222.446 66.2541C221.918 65.7581 221.118 65.5103 220.046 65.5104C219.326 65.5105 218.614 65.6227 217.91 65.8468C217.222 66.0709 216.638 66.383 216.158 66.783L214.983 64.5992C215.671 64.0711 216.487 63.679 217.431 63.4228C218.391 63.1507 219.383 63.0145 220.407 63.0144C222.263 63.0141 223.695 63.4619 224.703 64.3577C225.727 65.2376 226.238 66.6055 226.238 68.4615L226.237 75.9735L223.405 75.9739ZM219.373 76.1425C218.413 76.1427 217.573 75.9828 216.853 75.6629C216.133 75.327 215.573 74.8711 215.173 74.2952C214.789 73.7032 214.598 73.0393 214.598 72.3033C214.598 71.5833 214.766 70.9352 215.102 70.3592C215.454 69.7831 216.022 69.3271 216.806 68.9909C217.59 68.6548 218.63 68.4867 219.926 68.4865L223.646 68.4859L223.646 70.4779L220.142 70.4784C219.118 70.4786 218.43 70.6467 218.078 70.9827C217.726 71.3028 217.55 71.7028 217.55 72.1828C217.55 72.7268 217.766 73.1588 218.198 73.4787C218.629 73.7987 219.229 73.9586 219.997 73.9584C220.733 73.9583 221.389 73.7902 221.966 73.4541C222.558 73.118 222.982 72.622 223.238 71.9659L223.741 73.7659C223.453 74.5179 222.933 75.102 222.181 75.5181C221.445 75.9342 220.509 76.1424 219.373 76.1425ZM230.087 75.9729L230.089 63.1569L232.945 63.1565L232.944 66.6845L232.609 65.6525C232.993 64.7884 233.593 64.1324 234.409 63.6842C235.241 63.2361 236.273 63.0119 237.505 63.0118L237.505 65.8678C237.377 65.8358 237.257 65.8198 237.145 65.8198C237.033 65.8038 236.921 65.7958 236.809 65.7959C235.673 65.796 234.769 66.1322 234.096 66.8043C233.424 67.4604 233.088 68.4444 233.088 69.7564L233.087 75.9724L230.087 75.9729Z" fill="#3A2657"/>
<path d="M263.362 69.8631C281.109 74.0705 287.075 96.8805 274.206 111.339C291.464 103.68 309.321 117.799 306.642 136.985L311.803 135.267C311.803 135.267 311.74 132.005 315.35 128.176C326.595 121.266 341.71 124.237 348.298 136.985L353.459 135.267C353.459 135.267 352.269 126.057 355.303 117.681C362.238 110.046 373.239 106.698 383.247 111.339L388.409 109.621C388.409 109.621 380.032 101.742 378.369 91.4045C380.087 81.4217 387.361 72.3608 398.141 69.8631C380.403 65.6557 374.437 42.8379 387.298 28.3798C382.936 30.4195 378.038 31.0196 373.312 30.0933C368.587 29.167 364.278 26.7624 361.009 23.2269C356.391 12.4798 360.016 1.00788 360.016 1.00788L354.854 2.72552C349.338 11.7628 339.976 15.8836 331.213 15.072C321.93 11.1325 318.32 1 318.32 1L313.206 2.70976C313.206 3.09846 313.206 3.48453 313.206 3.86798C313.212 9.3598 311.533 14.7213 308.396 19.2296C305.26 23.738 300.816 27.1763 295.664 29.081C287.35 28.9944 283.394 26.6306 283.394 26.6306L278.272 28.3719C289.722 42.83 281.527 65.6478 263.37 69.8552L263.362 69.8631Z" fill="#EFA500" stroke="black" stroke-width="1.59" stroke-linecap="round" stroke-linejoin="round"/>
<path d="M268.524 68.1536C286.271 72.3611 292.237 95.1789 279.368 109.637C296.634 101.986 314.483 116.098 311.812 135.291C321.985 118.698 344.91 118.698 353.468 135.291C352.68 116.098 371.9 101.986 388.417 109.637C376.967 95.1789 385.163 72.3611 403.311 68.1536C385.565 63.9462 379.599 41.1284 392.46 26.6703C375.194 34.3288 357.345 20.2095 360.016 1.02393C349.835 17.6173 326.919 17.6173 318.36 1.02393C319.148 20.2095 299.928 34.3288 283.419 26.6703C294.869 41.1284 286.673 63.9462 268.517 68.1536H268.524Z" fill="#FFC404"/>
<path d="M268.524 68.1536C286.271 72.3611 292.237 95.1789 279.368 109.637C296.634 101.986 314.483 116.098 311.812 135.291C321.985 118.698 344.91 118.698 353.468 135.291C352.68 116.098 371.9 101.986 388.417 109.637C376.967 95.1789 385.163 72.3611 403.311 68.1536C385.565 63.9462 379.599 41.1284 392.46 26.6703C375.194 34.3288 357.345 20.2095 360.016 1.02393C349.835 17.6173 326.919 17.6173 318.36 1.02393C319.148 20.2095 299.928 34.3288 283.419 26.6703C294.869 41.1284 286.673 63.9462 268.517 68.1536H268.524Z" stroke="black" stroke-width="1.59" stroke-linecap="round" stroke-linejoin="round"/>
<path d="M334.137 115.491C335.075 115.491 336.028 115.491 336.974 115.397C349.337 114.529 360.861 108.832 369.055 99.536C377.482 90.2141 382.132 78.0871 382.097 65.522C382.003 40.3563 362.956 20.6113 338.755 20.6113C337.817 20.6113 336.864 20.6113 335.918 20.698C323.556 21.5653 312.033 27.2663 303.845 36.5665C295.382 45.8968 290.718 58.0559 290.771 70.6513C290.866 95.7777 309.913 115.491 334.137 115.491Z" fill="#FFC404" stroke="black" stroke-width="1.59" stroke-linecap="round" stroke-linejoin="round"/>
<path opacity="0.2" d="M372.485 90.2465C377.086 81.8793 379.396 72.4457 379.182 62.8996C378.967 53.3534 376.236 44.0331 371.263 35.8809C370.974 35.4502 370.675 35.0247 370.365 34.6045C377.705 43.0015 381.717 53.7949 381.642 64.9468C381.744 91.0502 361.523 113.498 336.479 115.089C330.81 115.469 325.123 114.703 319.757 112.836C322.2 113.246 353.17 119.998 372.485 90.2465Z" fill="#DCF2AE"/>
<path d="M322.45 113.647L324.065 110.677C324.092 110.627 324.136 110.589 324.188 110.568C324.24 110.547 324.298 110.545 324.352 110.561C324.405 110.578 324.452 110.613 324.483 110.659C324.514 110.706 324.528 110.763 324.522 110.818L324.128 114.372L322.04 113.86" fill="black"/>
<path d="M319.186 112.308L320.21 110.937C320.289 110.827 320.541 110.937 320.534 111.087L320.352 112.97L318.902 112.355" fill="black"/>
<path d="M371.444 85.3934C381.718 64.6277 374.373 40.0423 355.04 30.4803C335.706 20.9183 311.704 30.0006 301.43 50.7662C291.157 71.5319 298.501 96.1173 317.835 105.679C337.168 115.241 361.17 106.159 371.444 85.3934Z" fill="#FFC404" stroke="black" stroke-width="1.59" stroke-linecap="round" stroke-linejoin="round"/>
<g style="mix-blend-mode:multiply" opacity="0.47">
<path d="M311.717 97.8813C317.813 100.226 324.272 101.49 330.803 101.616C336.108 101.771 341.391 100.876 346.349 98.9833C351.307 97.0903 355.842 94.2363 359.693 90.5853C362.013 88.3248 364.008 85.7526 365.619 82.9426C366.367 81.5154 367.022 80.0416 367.581 78.5303C368.28 77.0404 368.901 75.515 369.441 73.9604C371.5 66.9133 371.574 59.4344 369.654 52.3481C366.872 42.8307 360.739 34.6416 352.388 29.2939C366.281 34.8093 376.029 48.7159 376.076 65.5377C376.163 88.387 358.487 107.982 336.587 109.377C330.549 109.793 324.502 108.704 318.988 106.209C313.474 103.713 308.666 99.8876 304.995 95.0764C307.225 96.0928 309.502 96.991 311.717 97.8813Z" fill="#EFA500"/>
</g>
<g style="mix-blend-mode:color-dodge" opacity="0.2">
<path d="M308.264 56.0512C307.784 55.8055 307.416 55.3854 307.236 54.877C307.055 54.3686 307.077 53.8105 307.295 53.3172C307.515 52.8992 307.78 52.5057 308.083 52.1432L308.138 52.0329C308.381 51.5401 308.808 51.162 309.326 50.9794C309.844 50.7968 310.414 50.8243 310.912 51.0559C311.401 51.305 311.776 51.733 311.958 52.2509C312.14 52.7688 312.115 53.3369 311.889 53.8372C311.668 54.255 311.404 54.6485 311.101 55.0112L311.046 55.1215C310.796 55.6094 310.365 55.98 309.845 56.1538C309.325 56.3276 308.757 56.2908 308.264 56.0512V56.0512Z" fill="#FFC404"/>
</g>
<g style="mix-blend-mode:color-dodge" opacity="0.2">
<path d="M325.427 50.7408C324.379 51.2923 323.236 51.253 322.818 50.5832C322.668 50.2991 322.561 49.9935 322.503 49.6771C322.49 49.6518 322.474 49.628 322.456 49.6062C322.054 48.9838 322.598 47.8649 323.614 47.3292C324.631 46.7934 325.797 46.8249 326.223 47.4868C326.379 47.7692 326.488 48.0752 326.546 48.3928C326.543 48.419 326.543 48.4455 326.546 48.4716C326.979 49.0941 326.451 50.1656 325.427 50.7408Z" fill="#FFC404"/>
</g>
<g style="mix-blend-mode:color-dodge" opacity="0.2">
<path d="M312.876 47.3373C312.348 47.613 311.773 47.5973 311.56 47.2585C311.491 47.1123 311.439 46.959 311.403 46.8015V46.8015C311.206 46.4863 311.474 45.9269 311.986 45.659C312.498 45.3911 313.081 45.399 313.302 45.7378C313.379 45.8806 313.432 46.0349 313.46 46.1948C313.657 46.5099 313.397 47.0615 312.876 47.3373Z" fill="#FFC404"/>
</g>
<g style="mix-blend-mode:color-dodge" opacity="0.2">
<path d="M318.385 43.4761C318.03 44.3901 317.297 44.9889 316.675 44.7919C316.426 44.6976 316.192 44.5676 315.981 44.4059C315.96 44.4016 315.939 44.4016 315.918 44.4059C315.327 44.2404 315.059 43.2476 315.406 42.3652C315.753 41.4827 316.486 40.8681 317.116 41.0494C317.366 41.1405 317.6 41.2708 317.809 41.4354C317.83 41.4433 317.852 41.4433 317.873 41.4354C318.456 41.6088 318.724 42.5858 318.385 43.4761Z" fill="#FFC404"/>
</g>
<g style="mix-blend-mode:multiply" opacity="0.47">
<g style="mix-blend-mode:multiply" opacity="0.47">
<path d="M331.016 74.2047C331.016 74.4489 330.961 76.4266 330.961 76.4266C331.039 82.1232 326.311 84.542 323.08 84.9202C321.726 85.0584 320.358 84.9435 319.045 84.5814C318.546 84.4089 318.117 84.0787 317.822 83.6407C317.527 83.2028 317.382 82.6808 317.409 82.1534C317.437 81.6261 317.635 81.122 317.975 80.7172C318.314 80.3124 318.775 80.0288 319.29 79.9092C319.585 79.8655 319.887 79.8898 320.172 79.9801C321.111 80.1209 322.061 80.1736 323.009 80.1376C323.836 80.1232 324.623 79.7848 325.203 79.1953C325.782 78.6058 326.106 77.8124 326.106 76.986V75.4732C325.707 76.1894 325.14 76.798 324.454 77.2468C323.767 77.6955 322.982 77.9711 322.166 78.0497C318.817 78.4358 314.821 75.946 314.735 69.5088C314.648 63.2528 318.62 59.6915 321.914 59.3054C322.718 59.1601 323.548 59.2883 324.27 59.6696C324.993 60.0509 325.567 60.6634 325.901 61.4091V61.7242C325.875 61.0177 326.097 60.3242 326.529 59.7643C326.961 59.2045 327.575 58.8135 328.265 58.6593C328.599 58.644 328.932 58.6976 329.243 58.8167C329.555 58.9358 329.839 59.1178 330.077 59.3515C330.315 59.5851 330.502 59.8653 330.627 60.1746C330.752 60.4839 330.812 60.8156 330.803 61.1491L331.016 74.2047ZM326.209 68.1772C326.161 64.7341 324.231 63.828 322.891 63.9855C321.157 64.1904 319.565 65.9632 319.605 68.9494C319.644 71.9355 321.283 73.3695 323.017 73.1647C324.357 73.015 326.256 71.6913 326.209 68.1772V68.1772Z" fill="#EFA500"/>
<path d="M331.016 74.2047C331.016 74.4489 330.961 76.4266 330.961 76.4266C331.039 82.1232 326.311 84.542 323.08 84.9202C321.726 85.0584 320.358 84.9435 319.045 84.5814C318.546 84.4089 318.117 84.0787 317.822 83.6407C317.527 83.2028 317.382 82.6808 317.409 82.1534C317.437 81.6261 317.635 81.122 317.975 80.7172C318.314 80.3124 318.775 80.0288 319.29 79.9092C319.585 79.8655 319.887 79.8898 320.172 79.9801C321.111 80.1209 322.061 80.1736 323.009 80.1376C323.836 80.1232 324.623 79.7848 325.203 79.1953C325.782 78.6058 326.106 77.8124 326.106 76.986V75.4732C325.707 76.1894 325.14 76.798 324.454 77.2468C323.767 77.6955 322.982 77.9711 322.166 78.0497C318.817 78.4358 314.821 75.946 314.735 69.5088C314.648 63.2528 318.62 59.6915 321.914 59.3054C322.718 59.1601 323.548 59.2883 324.27 59.6696C324.993 60.0509 325.567 60.6634 325.901 61.4091V61.7242C325.875 61.0177 326.097 60.3242 326.529 59.7643C326.961 59.2045 327.575 58.8135 328.265 58.6593C328.599 58.644 328.932 58.6976 329.243 58.8167C329.555 58.9358 329.839 59.1178 330.077 59.3515C330.315 59.5851 330.502 59.8653 330.627 60.1746C330.752 60.4839 330.812 60.8156 330.803 61.1491L331.016 74.2047ZM326.209 68.1772C326.161 64.7341 324.231 63.828 322.891 63.9855C321.157 64.1904 319.565 65.9632 319.605 68.9494C319.644 71.9355 321.283 73.3695 323.017 73.1647C324.357 73.015 326.256 71.6913 326.209 68.1772V68.1772Z" stroke="#EFA500" stroke-width="1.59" stroke-miterlimit="10"/>
</g>
<g style="mix-blend-mode:multiply" opacity="0.47">
<path d="M357.335 57.2567C356.844 56.7586 356.244 56.3812 355.582 56.1543C354.92 55.9273 354.215 55.857 353.521 55.9488C350.818 56.2088 348.974 58.3125 348.044 60.3532C347.115 57.9343 345.326 56.7367 342.969 56.9652C341.968 57.0837 341.012 57.4488 340.187 58.0278C339.362 58.6067 338.693 59.3813 338.241 60.2822C338.203 59.592 337.924 58.937 337.453 58.4307C337.221 58.1834 336.936 57.9923 336.619 57.8721C336.302 57.752 335.962 57.7058 335.625 57.7373C334.854 57.8873 334.163 58.3082 333.675 58.9239C333.188 59.5396 332.938 60.3094 332.969 61.0938L332.89 74.1179C332.864 74.9005 333.147 75.6619 333.678 76.2374C333.892 76.4632 334.15 76.6426 334.436 76.7646C334.722 76.8866 335.03 76.9485 335.341 76.9465H335.53C336.294 76.8088 336.982 76.4011 337.47 75.7979C337.957 75.1946 338.212 74.4361 338.186 73.6609L338.233 65.7819C338.233 65.7819 338.596 62.6302 341.07 62.4254C341.355 62.3859 341.645 62.4123 341.919 62.5024C342.192 62.5926 342.441 62.7441 342.646 62.9454C343.275 63.7973 343.557 64.8562 343.434 65.9079V73.0936C343.418 73.484 343.479 73.8736 343.615 74.2401C343.75 74.6067 343.956 74.9427 344.222 75.2289C344.454 75.4741 344.738 75.6634 345.053 75.7821C345.369 75.9009 345.707 75.9461 346.043 75.9143C346.805 75.7751 347.493 75.367 347.98 74.7641C348.468 74.1612 348.722 73.4036 348.698 72.6288L348.746 64.7497C348.746 64.3636 349.329 61.5981 351.614 61.3853C351.899 61.3418 352.189 61.3655 352.463 61.4544C352.737 61.5433 352.986 61.6951 353.19 61.8975C353.82 62.7549 354.102 63.8191 353.978 64.8757L353.939 72.0615C353.924 72.4481 353.986 72.8338 354.121 73.1963C354.257 73.5587 354.462 73.8907 354.727 74.1731C354.961 74.4242 355.25 74.618 355.571 74.7396C355.892 74.8612 356.237 74.9073 356.579 74.8743C357.342 74.7351 358.029 74.327 358.516 73.7241C359.004 73.1212 359.259 72.3635 359.235 71.5887V64.403C359.44 61.1096 358.746 58.6986 357.335 57.2567Z" fill="#EFA500"/>
<path d="M357.335 57.2567C356.844 56.7586 356.244 56.3812 355.582 56.1543C354.92 55.9273 354.215 55.857 353.521 55.9488C350.818 56.2088 348.974 58.3125 348.044 60.3532C347.115 57.9343 345.326 56.7367 342.969 56.9652C341.968 57.0837 341.012 57.4488 340.187 58.0278C339.362 58.6067 338.693 59.3813 338.241 60.2822C338.203 59.592 337.924 58.937 337.453 58.4307C337.221 58.1834 336.936 57.9923 336.619 57.8721C336.302 57.752 335.962 57.7058 335.625 57.7373C334.854 57.8873 334.163 58.3082 333.675 58.9239C333.188 59.5396 332.938 60.3094 332.969 61.0938L332.89 74.1179C332.864 74.9005 333.147 75.6619 333.678 76.2374C333.892 76.4632 334.15 76.6426 334.436 76.7646C334.722 76.8866 335.03 76.9485 335.341 76.9465H335.53C336.294 76.8088 336.982 76.4011 337.47 75.7979C337.957 75.1946 338.212 74.4361 338.186 73.6609L338.233 65.7819C338.233 65.7819 338.596 62.6302 341.07 62.4254C341.355 62.3859 341.645 62.4123 341.919 62.5024C342.192 62.5926 342.441 62.7441 342.646 62.9454C343.275 63.7973 343.557 64.8562 343.434 65.9079V73.0936C343.418 73.484 343.479 73.8736 343.615 74.2401C343.75 74.6067 343.956 74.9427 344.222 75.2289C344.454 75.4741 344.738 75.6634 345.053 75.7821C345.369 75.9009 345.707 75.9461 346.043 75.9143C346.805 75.7751 347.493 75.367 347.98 74.7641C348.468 74.1612 348.722 73.4036 348.698 72.6288L348.746 64.7497C348.746 64.3636 349.329 61.5981 351.614 61.3853C351.899 61.3418 352.189 61.3655 352.463 61.4544C352.737 61.5433 352.986 61.6951 353.19 61.8975C353.82 62.7549 354.102 63.8191 353.978 64.8757L353.939 72.0615C353.924 72.4481 353.986 72.8338 354.121 73.1963C354.257 73.5587 354.462 73.8907 354.727 74.1731C354.961 74.4242 355.25 74.618 355.571 74.7396C355.892 74.8612 356.237 74.9073 356.579 74.8743C357.342 74.7351 358.029 74.327 358.516 73.7241C359.004 73.1212 359.259 72.3635 359.235 71.5887V64.403C359.44 61.1096 358.746 58.6986 357.335 57.2567Z" stroke="#EFA500" stroke-width="1.59" stroke-miterlimit="10"/>
</g>
</g>
<path d="M326.665 58.4068C326.11 58.4994 325.593 58.7479 325.175 59.1232C324.756 59.4985 324.453 59.9851 324.3 60.5263C323.877 59.9583 323.305 59.5185 322.647 59.2556C321.989 58.9928 321.271 58.9172 320.573 59.0371C318.706 59.3403 317.02 60.3294 315.845 61.8106C314.281 63.7568 313.475 66.2028 313.575 68.6969C313.622 72.1637 314.915 74.094 315.987 75.1026C316.635 75.7032 317.407 76.1554 318.248 76.4275C319.089 76.6997 319.979 76.7853 320.857 76.6784C322.226 76.5359 323.483 75.8592 324.356 74.7953V76.1111C324.356 77.2693 323.568 78.5457 321.613 78.7742C320.97 78.8413 320.32 78.8201 319.683 78.7112C319.445 78.6714 319.206 78.6477 318.965 78.6403C318.678 78.5648 318.378 78.5461 318.083 78.5851C317.504 78.6879 316.982 78.9982 316.615 79.4579C316.248 79.9176 316.061 80.4953 316.089 81.0828C316.092 81.5915 316.26 82.0856 316.567 82.4916C316.873 82.8975 317.303 83.1938 317.791 83.3362V83.3362C318.821 83.5951 319.882 83.7117 320.943 83.6829C321.18 83.6829 321.424 83.6829 321.676 83.6199C323.523 83.3959 325.267 82.6497 326.704 81.4689C327.58 80.7536 328.281 79.8484 328.755 78.8218C329.229 77.7952 329.463 76.6742 329.438 75.5438C329.438 75.4729 329.438 73.0619 329.438 72.8334L329.289 60.8572C329.29 60.5101 329.221 60.1664 329.085 59.8468C328.95 59.5272 328.751 59.2384 328.501 58.9977C328.258 58.7686 327.967 58.5966 327.65 58.4943C327.332 58.3921 326.995 58.3622 326.665 58.4068V58.4068ZM324.466 67.389C324.505 70.5406 322.701 71.6121 321.629 71.7461C321.282 71.7909 320.93 71.7583 320.598 71.6507C320.265 71.543 319.961 71.363 319.706 71.1236C319.334 70.7215 319.047 70.2482 318.863 69.7323C318.679 69.2164 318.601 68.6685 318.634 68.1217C318.634 65.3877 320.124 63.9616 321.558 63.7882H321.739C322.048 63.7754 322.357 63.8247 322.646 63.9329C322.936 64.0412 323.201 64.2063 323.426 64.4185C323.787 64.8199 324.066 65.2893 324.244 65.7993C324.423 66.3092 324.498 66.8496 324.466 67.389V67.389Z" fill="white" stroke="black" stroke-width="1.59" stroke-linecap="round" stroke-linejoin="round"/>
<path d="M355.762 56.3663C355.272 55.9231 354.69 55.5954 354.057 55.4072C353.424 55.219 352.757 55.1752 352.105 55.279C350.96 55.47 349.884 55.9533 348.982 56.6821C348.079 57.411 347.379 58.3607 346.951 59.4391C346.612 58.4507 345.936 57.613 345.041 57.0728C344.147 56.5326 343.09 56.3244 342.057 56.4845C341.12 56.6146 340.228 56.9691 339.457 57.5178C338.686 58.0665 338.059 58.7932 337.629 59.6361C337.577 59.0022 337.297 58.4086 336.841 57.9657C336.609 57.7453 336.331 57.5787 336.027 57.4779C335.723 57.3771 335.401 57.3446 335.083 57.3827C334.361 57.5237 333.714 57.9197 333.26 58.4983C332.805 59.0769 332.574 59.7996 332.609 60.5343L332.759 72.4081C332.755 72.7638 332.822 73.1167 332.958 73.4456C333.093 73.7746 333.293 74.0729 333.547 74.3227C333.973 74.7216 334.539 74.9367 335.123 74.9215H335.304C336.017 74.7901 336.659 74.408 337.114 73.8444C337.569 73.2808 337.808 72.5729 337.786 71.8487L337.692 64.6866C337.692 64.6866 337.983 61.8344 340.347 61.535C340.619 61.4841 340.899 61.4959 341.165 61.5697C341.431 61.6434 341.677 61.7771 341.884 61.9604C342.507 62.7105 342.807 63.6764 342.719 64.6472L342.806 71.1947C342.8 71.553 342.867 71.9087 343.003 72.2405C343.138 72.5722 343.339 72.8731 343.594 73.1251C343.827 73.3442 344.105 73.5087 344.409 73.6069C344.713 73.705 345.035 73.7342 345.351 73.6924C346.068 73.5734 346.718 73.2007 347.182 72.6423C347.647 72.0839 347.895 71.3772 347.881 70.6511L347.794 63.489C347.794 63.1344 348.291 60.6052 350.466 60.3374C350.734 60.2908 351.009 60.3048 351.271 60.3784C351.533 60.452 351.775 60.5834 351.979 60.7628C352.602 61.5128 352.902 62.4788 352.814 63.4496L352.901 70.005C352.895 70.3598 352.962 70.7121 353.097 71.0401C353.233 71.3681 353.434 71.6648 353.689 71.9117C353.922 72.1353 354.202 72.3043 354.509 72.4065C354.816 72.5087 355.141 72.5416 355.462 72.5027C356.174 72.3697 356.815 71.9873 357.27 71.424C357.725 70.8607 357.964 70.1536 357.944 69.4298L357.858 62.8823C357.81 59.8016 357.109 57.6191 355.762 56.3663Z" fill="white" stroke="black" stroke-width="1.59" stroke-linecap="round" stroke-linejoin="round"/>
</svg>
