<svg width="1331" height="445" viewBox="0 0 1331 445" fill="none" xmlns="http://www.w3.org/2000/svg">
<rect x="96" y="95" width="1235" height="350" rx="40" fill="white"/>
<mask id="mask0_21_8409" style="mask-type:alpha" maskUnits="userSpaceOnUse" x="96" y="141" width="1235" height="304">
<rect x="96" y="141" width="1235" height="304" rx="40" fill="#EFA500"/>
</mask>
<g mask="url(#mask0_21_8409)">
<path d="M73.5043 299.388C78.5143 283.388 24.1543 343.668 31.1943 365.428C34.2343 374.838 47.2043 363.118 47.2043 363.118C47.2043 363.118 42.9443 389.828 50.3743 393.688C57.8043 397.548 76.6043 374.378 76.6043 374.378C76.6043 374.378 71.0943 388.858 79.1643 388.828C96.1943 388.768 126.614 321.758 126.614 321.758L73.5043 299.378V299.388Z" fill="#9B64AF" stroke="black" stroke-width="1.54" stroke-linecap="round" stroke-linejoin="round"/>
<g style="mix-blend-mode:multiply" opacity="0.5">
<path d="M107.934 312.848C107.934 312.848 118.854 351.378 91.0443 362.738C83.0043 366.018 82.6343 354.368 82.6343 354.368C82.6343 354.368 75.2743 362.258 65.4243 363.038C55.5743 363.818 58.3143 352.078 58.3143 352.078C58.3143 352.078 46.9143 357.908 42.7243 353.958C36.9643 348.528 52.9643 316.458 52.9643 316.458L107.934 312.838V312.848Z" fill="#9B64AF"/>
</g>
<g style="mix-blend-mode:color-dodge" opacity="0.4">
<path d="M110.334 350.607C110.134 351.937 93.1543 376.597 84.5943 380.247C76.0243 383.907 76.1643 374.917 76.1643 374.917C76.1643 374.917 70.1443 391.447 82.3443 388.137C91.7143 385.597 112.624 349.377 112.624 349.377L110.334 350.607V350.607Z" fill="#B17FC7"/>
</g>
<path d="M201.154 162.348C201.154 162.348 237.164 253.728 222.614 280.458C208.904 305.658 188.734 238.968 188.734 238.968" fill="#9B64AF"/>
<path d="M201.154 162.348C201.154 162.348 237.164 253.728 222.614 280.458C208.904 305.658 188.734 238.968 188.734 238.968" stroke="black" stroke-width="1.54" stroke-linecap="round" stroke-linejoin="round"/>
<g style="mix-blend-mode:multiply" opacity="0.5">
<path d="M213.154 231.257C212.364 232.647 215.724 256.817 218.704 262.107C223.504 270.637 226.074 262.987 226.074 262.987C226.074 262.987 226.534 281.287 219.534 284.557C212.534 287.827 206.374 279.337 206.374 279.337L213.144 231.257H213.154Z" fill="#9B64AF"/>
</g>
<g style="mix-blend-mode:multiply" opacity="0.3">
<path d="M217.464 275.827C217.974 276.507 218.774 276.827 219.324 276.497C219.544 276.367 219.714 276.167 219.894 275.987C219.914 275.977 219.934 275.957 219.954 275.947C220.474 275.647 220.534 274.737 220.034 274.077C219.524 273.387 218.734 273.087 218.174 273.407C217.944 273.537 217.784 273.737 217.604 273.927C217.584 273.937 217.564 273.957 217.544 273.967C217.034 274.277 216.964 275.167 217.464 275.837V275.827Z" fill="#9B64AF"/>
<path d="M213.734 276.487C213.404 277.107 213.314 277.827 213.564 278.117C213.664 278.237 213.794 278.297 213.914 278.367C213.914 278.377 213.934 278.387 213.944 278.397C214.164 278.687 214.684 278.397 214.994 277.807C215.324 277.177 215.404 276.477 215.164 276.177C215.064 276.057 214.934 275.997 214.814 275.927C214.814 275.927 214.794 275.907 214.784 275.897C214.554 275.617 214.044 275.887 213.734 276.487Z" fill="#9B64AF"/>
<path d="M209.714 270.967C209.564 272.387 210.184 273.657 211.234 273.817C211.664 273.887 212.094 273.807 212.524 273.757C212.564 273.757 212.604 273.757 212.644 273.767C213.624 273.937 214.744 272.817 214.894 271.437C215.054 269.997 214.424 268.767 213.374 268.587C212.944 268.517 212.514 268.588 212.074 268.648C212.034 268.648 212.004 268.647 211.964 268.637C210.984 268.487 209.864 269.577 209.714 270.967V270.967Z" fill="#9B64AF"/>
</g>
<path d="M67.5342 139.648C67.5342 139.648 56.1542 59.2075 139.234 59.2075C216.174 59.2075 207.524 132.788 205.774 166.888C204.024 200.988 256.054 317.547 122.694 333.188C16.1542 345.677 27.3242 252.788 67.5342 139.648V139.648Z" fill="#9B64AF" stroke="black" stroke-width="1.54" stroke-linecap="round" stroke-linejoin="round"/>
<g style="mix-blend-mode:multiply" opacity="0.3">
<path d="M196.944 188.527C197.884 188.027 198.314 186.907 197.854 185.917C197.664 185.517 197.394 185.177 197.134 184.817C197.114 184.777 197.094 184.747 197.084 184.707C196.664 183.777 195.394 183.307 194.474 183.797C193.524 184.307 193.114 185.407 193.564 186.407C193.744 186.807 194.024 187.157 194.294 187.507C194.314 187.537 194.334 187.577 194.344 187.607C194.774 188.537 196.024 189.017 196.954 188.517L196.944 188.527Z" fill="#9B64AF"/>
</g>
<path d="M171.604 140.647C161.634 148.877 150.644 133.437 150.644 133.437C150.644 127.317 154.584 120.337 160.574 113.217C161.404 112.227 183.294 131.007 171.614 140.647H171.604Z" fill="#F7764D" stroke="black" stroke-width="1.54" stroke-linecap="round" stroke-linejoin="round"/>
<g style="mix-blend-mode:multiply" opacity="0.5">
<path d="M97.2242 197.407C97.2242 197.407 70.0343 239.607 80.3943 285.307C85.9543 309.797 115.244 314.477 115.244 314.477L95.8943 326.597C95.8943 326.597 67.5043 325.887 66.6743 324.937C65.8543 323.987 57.7142 319.697 57.7142 319.697C57.7142 319.697 43.0142 308.308 43.2542 302.398C43.4942 296.488 76.1343 193.807 76.1343 193.807L97.2342 197.407H97.2242Z" fill="#9B64AF"/>
</g>
<path d="M41.6643 179.608C66.4243 157.778 74.7343 153.948 74.7343 153.948C100.234 202.098 58.7643 316.717 39.7643 310.807C26.3643 306.637 34.9143 279.598 34.9143 279.598C34.9143 279.598 22.1443 299.218 15.7143 290.238C9.28426 281.248 18.2143 258.298 18.2143 258.298C18.2143 258.298 11.3443 269.877 3.82426 264.587C-8.01574 256.257 19.9343 198.788 41.6643 179.618V179.608Z" fill="#9B64AF" stroke="black" stroke-width="1.54" stroke-linecap="round" stroke-linejoin="round"/>
<path d="M213.734 259.657C215.164 250.727 215.124 241.617 213.454 232.737C207.894 203.297 188.404 193.817 157.494 201.347C113.884 211.977 94.6743 255.217 90.6643 293.157C88.2343 316.157 106.684 336.227 129.784 335.067C130.084 335.047 130.394 335.037 130.694 335.017C189.634 330.857 208.194 294.287 213.734 259.657Z" fill="#E391ED" stroke="black" stroke-width="1.54" stroke-linecap="round" stroke-linejoin="round"/>
<path d="M131.594 492.317L118.444 492.217L115.664 393.647C115.264 379.347 117.264 365.067 121.654 351.027L134.804 351.127L134.894 351.447C138.694 365.497 140.114 379.747 139.154 393.977L131.604 492.307L131.594 492.317Z" fill="#FFC404" stroke="black" stroke-width="1.88" stroke-linecap="round" stroke-linejoin="round"/>
<g style="mix-blend-mode:multiply">
<path d="M134.894 351.457L134.804 351.137L121.654 351.037C120.774 353.857 119.994 356.687 119.304 359.527C125.364 359.577 130.204 362.677 130.124 366.437L130.074 368.857L117.414 368.747C116.024 377.017 115.434 385.327 115.664 393.657L115.974 406.937C124.334 408.707 130.504 414.087 130.384 419.607L128.294 492.297L131.604 492.327L139.154 393.997C140.114 379.767 138.694 365.507 134.894 351.467V351.457Z" fill="#FFC404"/>
</g>
<path d="M123.954 393.828L122.244 391.938C120.294 389.788 120.384 386.288 122.444 384.118L124.254 382.218C126.314 380.048 129.564 380.038 131.514 382.188L133.224 384.078C135.174 386.228 135.084 389.728 133.024 391.898L131.214 393.798C129.154 395.968 125.904 395.978 123.954 393.828V393.828Z" fill="#F56A7E" stroke="black" stroke-width="1.88" stroke-miterlimit="10"/>
<path d="M137.494 361.288L119.194 361.018C118.344 361.008 117.604 360.388 117.374 359.508L112.534 340.708C112.194 339.378 113.134 338.068 114.404 338.088L142.864 338.518C144.144 338.538 145.044 339.878 144.674 341.188L139.354 359.838C139.104 360.718 138.344 361.308 137.494 361.298V361.288Z" fill="#FFC404" stroke="black" stroke-width="1.88" stroke-linecap="round" stroke-linejoin="round"/>
<g style="mix-blend-mode:multiply">
<path d="M142.864 338.518L114.404 338.088C113.124 338.068 112.184 339.378 112.534 340.708L114.534 348.488L122.014 348.598C128.404 348.698 133.514 354.348 133.424 361.238L137.494 361.298C138.344 361.308 139.104 360.718 139.354 359.838L144.674 341.188C145.054 339.868 144.144 338.538 142.864 338.518Z" fill="#FFC404"/>
</g>
<path d="M140.154 370.768L116.474 370.418C114.254 370.388 112.474 368.148 112.504 365.418C112.534 362.688 114.374 360.508 116.594 360.538L140.274 360.888C142.494 360.918 144.274 363.158 144.244 365.888C144.214 368.618 142.374 370.798 140.154 370.768Z" fill="#FFC404" stroke="black" stroke-width="1.88" stroke-linecap="round" stroke-linejoin="round"/>
<path d="M196.734 328.748H61.1443C57.4771 328.748 54.5043 331.72 54.5043 335.388V336.708C54.5043 340.375 57.4771 343.348 61.1443 343.348H196.734C200.401 343.348 203.374 340.375 203.374 336.708V335.388C203.374 331.72 200.401 328.748 196.734 328.748Z" fill="#FFC404" stroke="black" stroke-width="1.71" stroke-linecap="round" stroke-linejoin="round"/>
<g style="mix-blend-mode:color-dodge" opacity="0.3">
<path d="M213.524 233.138C210.284 215.468 202.084 204.908 189.444 200.828C189.444 201.118 189.444 201.398 189.404 201.678C192.484 203.178 205.464 210.608 209.494 231.268C214.084 254.768 201.914 299.268 189.914 308.798C177.914 318.338 174.234 320.688 174.234 320.688C174.234 320.688 174.474 321.378 176.004 322.038C200.034 307.598 209.814 283.507 213.634 260.217C215.104 251.237 215.154 242.078 213.514 233.128L213.524 233.138Z" fill="#F5BCEA"/>
</g>
<path d="M91.8143 284.588C90.7843 294.518 91.7043 300.428 97.1543 304.838C104.324 310.638 117.564 306.318 122.494 298.468C119.664 307.538 124.244 313.278 131.014 313.708C140.114 314.278 151.604 306.308 155.034 298.828C156.414 313.708 176.264 320.218 187.884 297.758C188.854 306.208 191.824 308.458 196.354 303.808" stroke="black" stroke-width="1.54" stroke-linecap="round" stroke-linejoin="round"/>
<path d="M103.554 247.228C102.664 253.558 101.024 263.938 110.764 270.898C118.044 276.098 129.784 270.558 134.474 262.638C133.144 269.728 135.104 278.148 143.884 279.218C152.504 280.268 161.954 272.178 165.214 264.618C168.544 279.358 182.224 285.018 193.064 261.918C192.344 275.968 206.804 278.338 212.294 266.088" stroke="black" stroke-width="1.54" stroke-linecap="round" stroke-linejoin="round"/>
<path d="M214.274 238.307C204.304 234.697 206.374 225.517 206.374 225.517C204.394 245.627 175.014 246.277 178.604 227.417C175.684 236.877 168.754 244.497 158.904 243.507C149.024 242.517 146.404 235.137 149.024 227.577C143.664 236.107 133.534 241.027 124.794 236.127C120.574 233.767 117.664 228.237 122.774 220.367" stroke="black" stroke-width="1.54" stroke-linecap="round" stroke-linejoin="round"/>
<path d="M135.783 141.814C146.555 137.84 151.143 123.382 146.029 109.521C140.916 95.6608 128.038 87.6463 117.265 91.6204C106.493 95.5945 101.906 110.052 107.019 123.913C112.133 137.773 125.01 145.788 135.783 141.814Z" fill="white" stroke="black" stroke-width="1.54" stroke-linecap="round" stroke-linejoin="round"/>
<path d="M219.254 99.1975C213.934 80.1675 204.194 65.9275 190.404 54.5675C161.924 31.1275 112.924 25.9375 75.5143 46.2175C71.7343 48.2675 68.0843 50.3675 64.6043 52.4575C42.2643 65.8875 29.5143 89.2275 26.4943 115.118C23.1743 143.608 28.7843 177.197 54.0843 188.167C99.1143 207.697 179.074 202.027 179.074 202.027C179.074 202.027 184.974 196.027 192.404 186.387C193.934 184.407 195.524 182.277 197.144 180.007C200.004 175.997 202.954 171.577 205.774 166.857C206.924 164.937 208.054 162.967 209.134 160.957C219.454 141.937 225.044 119.887 219.254 99.1775V99.1975ZM169.414 129.078C142.044 139.558 103.224 130.268 91.2143 118.338C91.2143 118.338 106.474 99.9875 131.844 88.4375C135.364 86.8275 139.084 85.3575 142.984 84.0775C160.664 78.2975 186.794 77.7475 203.224 84.7475C203.224 84.7475 210.534 113.338 169.414 129.078V129.078Z" fill="#1F1D24" stroke="black" stroke-width="1.54" stroke-linecap="round" stroke-linejoin="round"/>
<g style="mix-blend-mode:multiply" opacity="0.4">
<path d="M101.044 127.228C101.044 127.228 100.984 127.338 100.874 127.538C99.4544 130.238 90.2944 148.328 110.884 156.378C102.344 168.348 106.754 190.768 135.774 192.988C119.744 193.448 90.8644 188.218 90.8644 188.218C90.8644 188.218 67.9444 135.918 70.5944 125.468C73.2444 115.018 85.6344 113.728 88.3144 115.818" fill="#27242D"/>
</g>
<g style="mix-blend-mode:multiply" opacity="0.4">
<path d="M160.674 137.787C160.674 137.787 162.404 174.867 155.974 183.467C148.514 193.437 133.814 192.537 134.454 192.547C135.094 192.557 167.034 193.107 167.034 193.107C167.034 193.107 166.634 151.737 164.584 145.787C162.534 139.837 160.674 137.787 160.674 137.787V137.787Z" fill="#27242D"/>
</g>
<g style="mix-blend-mode:multiply" opacity="0.2">
<path d="M180.414 200.647C179.974 201.117 179.634 201.477 179.414 201.707C179.904 201.847 180.394 201.977 180.864 202.097C180.704 201.617 180.564 201.127 180.414 200.647Z" fill="#0159A3"/>
</g>
<g style="mix-blend-mode:overlay" opacity="0.4">
<path d="M217.874 94.5276C206.094 64.4676 193.304 52.5776 165.514 40.3176C160.394 39.1876 155.784 37.2875 150.644 36.2375C181.324 45.9875 206.884 70.0676 215.524 101.898C221.214 122.838 218.324 139.588 213.774 151.648C221.364 134.788 224.484 111.358 217.884 94.5176L217.874 94.5276Z" fill="white"/>
</g>
<g style="mix-blend-mode:color-dodge" opacity="0.3">
<path d="M209.144 160.987C208.054 162.997 206.924 164.967 205.784 166.887C205.094 168.047 204.394 169.177 203.694 170.297C205.044 168.287 209.974 161.757 213.784 151.667C212.354 154.847 210.794 157.967 209.154 160.987H209.144Z" fill="#BEC6DE"/>
</g>
<path d="M179.084 202.048C179.084 202.048 99.1344 207.718 54.0944 188.188C44.1544 183.878 37.2544 176.078 32.7444 166.478C37.6944 171.668 66.8344 196.038 174.434 193.088C192.064 179.258 221.584 150.478 221.064 108.208C232.614 157.768 179.074 202.048 179.074 202.048H179.084Z" fill="#A4A6D9" stroke="black" stroke-width="1.54" stroke-linecap="round" stroke-linejoin="round"/>
<g style="mix-blend-mode:multiply" opacity="0.6">
<path d="M108.274 199.818C106.494 197.668 105.474 194.938 106.624 192.228C106.834 191.738 107.084 191.288 107.394 190.888C53.7344 185.018 36.4544 170.368 32.7444 166.478C37.2544 176.088 44.1544 183.878 54.0944 188.188C69.8044 194.998 89.7744 198.748 109.104 200.738C108.814 200.438 108.534 200.138 108.274 199.818V199.818Z" fill="#99B5C2"/>
</g>
<path d="M102.594 155.717C95.3843 167.407 94.7943 191.707 97.7543 199.037C98.7843 201.587 99.7843 203.467 100.294 204.377C98.6443 204.277 75.9743 197.727 66.2843 184.957C53.4043 167.977 52.9543 146.467 52.9543 146.467C42.6243 146.267 35.1643 138.357 31.2843 128.937C31.1543 128.637 31.0343 128.327 30.9143 128.017C16.1243 90.7175 28.3143 32.4175 28.3143 32.4175C47.9243 73.2475 72.6743 80.1175 72.6743 80.1175C72.6743 80.1175 78.4943 99.6275 92.8443 114.537C88.5643 119.687 86.2943 125.217 85.3443 130.677C82.0843 149.337 102.594 155.727 102.594 155.727V155.717Z" fill="#27242D" stroke="black" stroke-width="1.54" stroke-linecap="round" stroke-linejoin="round"/>
<path d="M173.074 127.827C156.964 134.047 136.144 134.997 116.514 129.347C116.184 129.247 115.844 129.147 115.514 129.047C106.334 126.187 98.8443 120.757 92.8443 114.527C78.4843 99.6175 72.6743 80.1075 72.6743 80.1075C72.6743 80.1075 47.9243 73.2375 28.3143 32.4075C28.3143 32.4075 16.1343 90.6975 30.9143 128.007C31.0343 128.317 31.1543 128.617 31.2843 128.927C35.1643 138.347 42.6343 146.267 52.9543 146.457C52.9543 146.457 45.7543 173.687 64.1243 190.517C75.9443 201.347 98.6543 204.267 100.294 204.367C99.7843 203.457 98.7843 201.587 97.7543 199.027C94.7943 191.697 95.3843 167.407 102.594 155.707C102.594 155.707 82.0843 149.327 85.3443 130.657C85.9743 127.017 87.2043 123.357 89.2043 119.797C96.2843 126.627 105.274 132.077 113.734 134.717C114.114 134.837 114.504 134.957 114.884 135.067C126.994 138.547 139.984 139.777 152.424 138.597C160.454 137.837 167.904 136.157 174.564 133.667C174.074 131.717 173.574 129.777 173.064 127.827H173.074ZM82.3943 120.307C81.0243 123.277 80.0443 126.417 79.4843 129.637C77.7643 139.487 81.0343 148.177 88.9443 154.757C90.8743 156.357 92.8343 157.637 94.6043 158.617C91.8543 165.757 90.8243 173.757 90.4443 178.527C89.9843 184.297 90.0043 190.437 91.1043 195.987C85.0843 194.577 72.9043 191.137 66.1243 183.567C52.3343 168.167 60.3343 140.527 60.3343 140.527C60.3343 140.527 44.0143 141.477 36.7943 126.647V126.627C36.6743 126.367 36.5643 126.097 36.4643 125.837V125.807C27.2243 102.527 29.1343 70.0075 31.5243 50.4575C46.1043 73.3075 61.4543 81.8775 67.9443 84.6675C69.9843 90.3175 75.3643 103.287 85.2043 114.917C84.3243 116.287 83.2943 118.377 82.4043 120.307H82.3943Z" fill="#A4A6D9" stroke="black" stroke-width="1.54" stroke-linecap="round" stroke-linejoin="round"/>
<path d="M211.724 120.857C211.724 120.857 218.584 127.627 219.674 138.977L219.494 140.797C219.624 142.167 219.484 143.657 219.204 145.247C219.584 145.647 219.924 146.097 220.194 146.587C222.604 139.127 225.524 126.077 223.314 110.827C223.314 110.807 223.314 110.787 223.314 110.777C223.014 108.737 222.624 106.657 222.134 104.557C222.134 104.537 222.134 104.527 222.124 104.507C218.424 87.9375 206.374 71.9175 206.374 71.9175C206.374 71.9175 209.064 79.4475 207.924 89.6575C207.924 89.6575 212.184 93.4775 214.004 104.427C214.904 109.807 213.394 111.737 211.714 120.857H211.724Z" fill="#27242D" stroke="black" stroke-width="1.54" stroke-linecap="round" stroke-linejoin="round"/>
<path d="M219.594 130.757C217.774 126.407 215.444 123.167 213.954 121.337C215.694 116.747 216.824 109.717 215.884 103.517C214.844 96.6474 210.904 89.4474 207.974 86.2374C207.614 88.4574 206.874 88.9274 206.754 91.1474C209.154 94.1874 211.564 101.077 212.114 104.387C213.014 109.767 212.054 114.907 209.594 122.517C209.594 122.517 219.744 133.157 219.694 156.917C219.694 156.917 219.694 156.947 219.694 156.917C219.924 156.447 224.104 151.177 222.004 140.517C221.224 135.267 219.584 130.767 219.584 130.767L219.594 130.757Z" fill="#A4A6D9" stroke="black" stroke-width="1.54" stroke-linecap="round" stroke-linejoin="round"/>
<path d="M185.854 191.587C185.804 191.987 185.504 194.317 185.474 194.417C183.764 197.107 181.434 199.387 179.174 201.617C179.174 201.617 179.174 201.617 179.164 201.627C179.164 201.627 179.164 201.627 179.144 201.637C173.834 202.087 168.564 202.457 163.234 202.407C163.244 201.387 163.304 198.747 163.284 195.777C163.214 180.577 162.294 165.347 160.334 150.287C160.234 149.537 160.134 148.797 160.024 148.057C157.954 134.027 154.264 120.357 149.184 107.197C146.354 99.8775 143.044 92.6075 139.194 85.7975C136.694 81.3675 133.874 77.0075 130.854 72.8875C122.274 61.1675 111.424 50.8875 99.2343 42.9975C95.2743 40.4275 89.2743 39.0875 84.8843 41.5975C90.4943 27.7875 106.514 28.1175 117.884 34.3275C132.194 42.1375 144.424 52.9375 153.424 66.6275C153.424 66.5975 153.424 66.5775 153.424 66.5775C153.504 66.7175 153.554 66.7975 153.634 66.9375C153.644 66.9575 153.654 66.9775 153.664 66.9875C153.694 67.0375 153.724 67.0775 153.754 67.1275C155.264 69.4875 156.704 71.8875 158.104 74.2975C158.124 74.3275 158.134 74.3475 158.154 74.3775C159.054 75.9175 159.744 77.1775 160.214 78.0775C160.254 78.1475 160.274 78.1875 160.324 78.2575C160.384 78.3875 160.414 78.4475 160.474 78.5675C160.474 78.5675 160.474 78.5875 160.484 78.5975C160.694 79.0275 160.854 79.3375 160.934 79.5075C160.984 79.6075 161.014 79.6675 161.014 79.6675C161.014 79.6675 161.324 80.2875 161.854 81.3675C161.894 81.4575 161.944 81.5375 161.984 81.6275C162.014 81.6775 162.034 81.7375 162.064 81.7975C163.314 84.3275 164.544 86.8775 165.744 89.4375C168.714 95.7675 171.374 102.317 173.714 108.917C174.954 112.427 176.084 116.017 177.324 119.497C177.474 119.917 177.644 120.357 177.794 120.797C179.134 124.647 180.174 128.617 181.094 132.627C182.594 139.097 183.764 145.667 184.724 152.197C185.404 156.797 185.814 161.497 186.084 166.167C186.574 174.577 186.904 183.207 185.834 191.587H185.854Z" fill="#A4A6D9" stroke="black" stroke-width="1.54" stroke-linecap="round" stroke-linejoin="round"/>
<g style="mix-blend-mode:multiply" opacity="0.6">
<path d="M186.104 166.168C185.974 163.848 185.794 161.528 185.574 159.208C185.574 159.298 185.564 159.398 185.554 159.488C185.334 161.698 185.054 163.958 184.094 165.988C182.984 168.318 180.434 169.668 177.944 168.548C177.594 168.388 177.274 168.198 176.984 167.968C176.844 168.748 176.674 169.518 176.504 170.258C175.714 173.698 172.864 178.948 168.484 178.118C164.144 177.298 163.094 171.388 162.774 167.828C162.684 166.818 162.164 165.878 161.904 164.898C162.734 175.178 163.214 185.488 163.274 195.798C163.294 198.768 163.234 201.408 163.224 202.428C168.554 202.468 173.824 202.108 179.134 201.658C179.134 201.658 179.134 201.658 179.154 201.648C179.154 201.648 179.154 201.648 179.164 201.638C181.424 199.408 183.744 197.128 185.464 194.438C185.494 194.328 185.794 192.008 185.844 191.608C186.914 183.228 186.584 174.598 186.094 166.188L186.104 166.168Z" fill="#A4A6D9"/>
</g>
<g style="mix-blend-mode:color-dodge" opacity="0.3">
<path d="M186.104 166.168C185.824 161.508 185.344 156.808 184.744 152.198C183.884 145.648 182.674 139.048 181.114 132.628C180.044 128.228 178.774 123.788 177.344 119.508C176.174 116.008 174.974 112.448 173.734 108.928C171.614 103.138 169.254 97.4275 166.834 91.8075C166.804 91.7275 166.764 91.6575 166.734 91.5775C166.414 90.8675 166.094 90.1575 165.764 89.4575C164.574 86.8975 163.344 84.3575 162.084 81.8175C162.054 81.7675 162.034 81.7075 162.004 81.6475C161.964 81.5675 161.924 81.4775 161.874 81.3875C161.604 80.8475 161.324 80.3075 161.044 79.7575C161.004 79.6775 160.954 79.5875 160.914 79.5075C160.524 78.7775 160.134 78.0275 159.754 77.2875C159.704 77.1975 159.664 77.1175 159.614 77.0275C159.144 76.1475 158.664 75.2675 158.174 74.3975C158.164 74.3675 158.144 74.3475 158.124 74.3175C156.714 71.9275 155.284 69.5075 153.774 67.1475C153.744 67.0975 153.714 67.0575 153.684 67.0075C153.684 66.9875 153.664 66.9675 153.654 66.9575C153.584 66.8575 153.514 66.7475 153.444 66.6475C144.394 53.1175 132.324 41.8775 117.904 34.3475C116.574 33.6575 115.184 32.9975 113.774 32.3575C112.544 32.4275 111.314 32.4975 110.084 32.5675C127.594 41.2075 142.574 54.0875 152.934 70.3275C156.064 75.2275 158.754 80.4875 161.084 85.8675C163.154 90.6375 164.784 95.6675 166.154 100.658C169.794 113.968 172.154 130.178 173.634 144.028C174.224 148.318 176.934 173.498 177.314 182.528C177.564 188.528 177.494 194.018 177.564 201.718C177.724 201.718 178.984 201.658 179.144 201.648C179.144 201.648 179.144 201.648 179.164 201.638C179.164 201.638 179.164 201.638 179.174 201.628C181.654 198.968 184.694 195.838 185.724 192.358C185.754 192.258 185.794 191.998 185.844 191.598C186.914 183.218 186.594 174.578 186.094 166.178L186.104 166.168Z" fill="#A4A6D9"/>
</g>
<path d="M177.414 202.007C177.564 178.837 176.464 162.667 173.224 144.827C167.324 112.327 156.764 80.0275 134.454 55.2775C128.764 48.9575 122.284 43.0675 115.104 38.4975C109.194 34.7375 99.8743 29.9975 92.5543 32.7775" stroke="black" stroke-width="1.54" stroke-linecap="round" stroke-linejoin="round"/>
<g style="mix-blend-mode:overlay" opacity="0.4">
<path d="M135.374 152.598C133.444 149.798 131.334 146.708 128.044 145.398C125.254 144.288 121.744 144.748 119.884 147.278C119.424 147.908 119.094 148.598 118.884 149.338C117.654 151.628 117.654 154.508 118.204 157.038C118.904 160.258 120.394 163.508 122.974 165.638C125.594 167.798 129.294 168.848 132.654 168.978C134.214 169.038 135.854 168.728 137.064 167.678C138.364 166.538 138.854 164.768 139.014 163.108C139.394 159.268 137.474 155.658 135.374 152.598Z" fill="white"/>
</g>
<g style="mix-blend-mode:overlay" opacity="0.4">
<path d="M149.154 162.798C146.754 161.558 144.304 163.028 143.754 165.398C143.404 166.068 143.254 166.888 143.224 167.588C143.164 169.078 143.664 170.708 144.504 171.938C146.474 174.788 150.094 173.188 151.234 170.458C152.284 167.948 151.784 164.158 149.154 162.798V162.798Z" fill="white"/>
</g>
<path d="M153.934 320.688C155.444 319.118 160.624 315.028 167.444 320.218C174.674 316.788 184.954 323.938 184.954 333.328C184.954 345.408 175.584 345.418 175.584 345.418C175.584 345.418 169.674 352.168 163.784 346.318C161.004 350.928 152.304 349.858 149.834 343.608C156.124 335.458 149.284 328.228 144.694 328.548C143.664 319.848 153.234 319.718 153.944 320.688H153.934Z" fill="#F7764D" stroke="black" stroke-width="1.54" stroke-linecap="round" stroke-linejoin="round"/>
<g style="mix-blend-mode:multiply" opacity="0.6">
<path d="M183.914 330.328C183.914 330.328 184.554 334.788 181.304 335.808C178.044 336.828 175.004 332.088 175.004 332.088C175.004 332.088 175.174 336.568 170.974 337.128C166.774 337.698 158.474 324.558 158.474 324.558C158.474 324.558 160.334 330.688 156.404 330.848C152.474 331.008 146.644 322.238 146.644 322.238C146.644 322.238 145.414 325.158 145.004 326.468C144.594 327.778 145.004 328.098 145.004 328.098C145.004 328.098 151.914 331.328 152.064 334.828C152.224 338.328 149.794 343.598 149.794 343.598C149.794 343.598 151.034 348.068 155.494 349.158C159.954 350.238 163.454 346.758 163.454 346.758C163.454 346.758 166.244 349.408 169.764 349.158C173.274 348.918 175.654 344.888 175.654 344.888C175.654 344.888 179.524 345.658 182.914 341.248C186.304 336.838 183.904 330.328 183.904 330.328H183.914Z" fill="#DE8F76"/>
</g>
<path d="M153.934 320.688C153.934 320.688 167.544 328.418 163.774 346.318" stroke="black" stroke-width="1.54" stroke-linecap="round" stroke-linejoin="round"/>
<path d="M167.434 320.218C167.434 320.218 179.174 327.648 175.574 345.418" stroke="black" stroke-width="1.54" stroke-linecap="round" stroke-linejoin="round"/>
<g style="mix-blend-mode:multiply" opacity="0.3">
<path d="M193.644 192.837C194.344 193.207 195.104 193.177 195.384 192.737C195.494 192.557 195.534 192.347 195.594 192.137C195.594 192.117 195.614 192.107 195.624 192.087C195.894 191.677 195.534 190.927 194.854 190.577C194.154 190.207 193.404 190.237 193.114 190.677C192.994 190.857 192.954 191.077 192.904 191.277C192.904 191.297 192.884 191.307 192.874 191.327C192.614 191.747 192.964 192.477 193.644 192.837Z" fill="#9B64AF"/>
</g>
<g style="mix-blend-mode:color-dodge" opacity="0.3">
<path d="M199.134 216.327C201.364 219.797 202.304 222.727 199.934 224.257C197.564 225.787 195.014 223.837 192.784 220.367C190.554 216.897 188.444 214.317 190.804 212.797C193.174 211.277 196.894 212.857 199.134 216.327V216.327Z" fill="#F5BCEA"/>
</g>
<g style="mix-blend-mode:color-dodge" opacity="0.3">
<path d="M191.724 223.937C192.784 224.567 193.184 225.937 192.314 227.407C191.444 228.877 189.814 228.977 188.754 228.347C187.694 227.717 187.594 226.597 188.464 225.127C189.334 223.657 190.664 223.307 191.724 223.937Z" fill="#F5BCEA"/>
</g>
<g style="mix-blend-mode:multiply" opacity="0.3">
<path d="M104.054 293.587C104.564 295.267 103.774 296.967 102.264 297.627C100.814 298.257 98.4143 296.477 97.5243 293.627C97.0043 291.947 97.7343 289.927 99.3143 289.587C102.374 288.927 103.844 292.907 104.054 293.587Z" fill="#E8CEE3"/>
</g>
<g style="mix-blend-mode:multiply" opacity="0.3">
<path d="M107.944 285.937C106.824 285.187 105.524 285.087 104.964 285.797C104.734 286.087 104.624 286.437 104.494 286.787C104.474 286.817 104.454 286.847 104.434 286.867C103.904 287.527 104.384 288.857 105.464 289.587C106.594 290.347 107.874 290.427 108.444 289.727C108.674 289.447 108.784 289.077 108.914 288.737C108.934 288.707 108.944 288.687 108.964 288.657C109.484 287.987 109.024 286.677 107.934 285.937H107.944Z" fill="#E8CEE3"/>
</g>
<g style="mix-blend-mode:multiply" opacity="0.3">
<path d="M144.454 263.888C143.334 263.138 142.034 263.038 141.474 263.748C141.244 264.038 141.134 264.388 141.004 264.738C140.984 264.768 140.964 264.798 140.944 264.818C140.414 265.478 140.894 266.808 141.974 267.538C143.104 268.298 144.384 268.378 144.954 267.678C145.184 267.398 145.294 267.028 145.424 266.688C145.444 266.658 145.454 266.638 145.474 266.608C145.994 265.938 145.534 264.628 144.444 263.888H144.454Z" fill="#E8CEE3"/>
</g>
<g style="mix-blend-mode:multiply" opacity="0.3">
<path d="M104.664 300.598C104.084 300.908 103.744 301.438 103.914 301.838C103.984 301.998 104.114 302.128 104.224 302.268C104.224 302.278 104.244 302.298 104.244 302.308C104.404 302.688 105.084 302.788 105.644 302.488C106.224 302.178 106.554 301.648 106.394 301.248C106.324 301.088 106.194 300.958 106.074 300.818C106.074 300.808 106.064 300.788 106.054 300.778C105.894 300.398 105.224 300.298 104.654 300.598H104.664Z" fill="#E8CEE3"/>
</g>
<g style="mix-blend-mode:multiply" opacity="0.3">
<path d="M102.644 218.637C102.444 219.627 102.874 220.307 103.714 220.137C104.054 220.067 104.404 219.907 104.754 219.757C104.784 219.757 104.814 219.737 104.844 219.737C105.624 219.587 106.574 218.557 106.774 217.597C106.974 216.597 106.534 215.947 105.704 216.097C105.364 216.157 105.014 216.327 104.664 216.477C104.634 216.477 104.604 216.497 104.574 216.497C103.794 216.657 102.844 217.677 102.644 218.637Z" fill="#9B64AF"/>
<path d="M98.3143 217.578C97.3943 218.178 96.6843 218.968 96.6143 219.408C96.5843 219.588 96.7443 219.948 96.7843 220.068C96.7843 220.088 96.7843 220.098 96.7843 220.118C96.7043 220.538 97.4643 220.418 98.3543 219.838C99.2843 219.238 100.004 218.438 100.134 218.008C100.364 217.248 99.2243 216.998 98.3243 217.578H98.3143Z" fill="#9B64AF"/>
<path d="M100.214 209.827C98.6643 211.427 97.9843 213.137 98.8043 213.737C99.1343 213.977 99.6143 214.057 100.064 214.167C100.094 214.187 100.134 214.207 100.164 214.227C100.914 214.807 103.054 213.937 104.564 212.387C106.134 210.777 106.774 209.097 105.974 208.477C105.654 208.227 105.164 208.147 104.714 208.037C104.684 208.017 104.654 207.997 104.624 207.977C103.864 207.417 101.744 208.257 100.224 209.817L100.214 209.827Z" fill="#9B64AF"/>
</g>
<g style="mix-blend-mode:color-dodge" opacity="0.3">
<path d="M156.044 319.528C156.044 319.528 160.194 318.318 165.714 322.238C171.364 326.258 175.734 335.008 175.734 335.008C175.734 335.008 172.484 322.478 166.574 319.598C160.664 316.728 156.034 319.518 156.034 319.518L156.044 319.528Z" fill="#F5BCEA"/>
</g>
<g style="mix-blend-mode:color-dodge" opacity="0.3">
<path d="M170.384 322.238C170.384 322.238 173.894 321.628 177.754 324.238C181.614 326.848 183.664 329.678 183.664 329.678C183.664 329.678 182.444 323.998 177.404 321.178C172.354 318.368 168.494 320.208 168.494 320.208L170.394 322.228L170.384 322.238Z" fill="#F5BCEA"/>
</g>
<path d="M110.304 319.928C111.164 318.958 119.404 313.877 126.594 327.387C133.064 339.537 123.874 347.507 120.154 344.847C120.154 348.107 113.154 355.657 104.804 345.577C102.294 351.187 92.8843 350.997 89.0243 341.717C84.8843 331.747 86.7743 317.857 96.7043 319.807C104.174 312.827 110.294 319.917 110.294 319.917L110.304 319.928Z" fill="#F7764D" stroke="black" stroke-width="1.54" stroke-linecap="round" stroke-linejoin="round"/>
<g style="mix-blend-mode:multiply" opacity="0.6">
<path d="M93.4943 320.307C93.4943 320.567 89.6642 320.248 88.1142 324.698C86.5742 329.158 86.9643 331.997 86.9643 331.997C86.9643 331.997 89.9942 348.458 96.3242 348.988C102.654 349.518 104.794 347.288 104.794 347.288L97.6642 324.208L96.1443 319.448L93.4842 320.307H93.4943Z" fill="#DE8F76"/>
</g>
<g style="mix-blend-mode:multiply" opacity="0.6">
<path d="M98.5542 318.877C98.3842 319.037 101.934 331.897 106.414 337.327C120.144 353.977 118.124 334.567 118.124 334.567C118.124 334.567 121.694 343.327 120.384 346.127C119.074 348.927 114.274 353.067 108.704 349.167C103.134 345.267 101.814 338.057 101.654 337.617C101.494 337.177 97.2042 319.387 97.2042 319.387" fill="#DE8F76"/>
</g>
<path d="M96.7142 319.818C96.7142 319.818 99.0242 332.527 104.804 345.587" stroke="black" stroke-width="1.54" stroke-linecap="round" stroke-linejoin="round"/>
<path d="M110.304 319.927C110.304 319.927 117.704 327.587 120.134 345.117" stroke="black" stroke-width="1.54" stroke-linecap="round" stroke-linejoin="round"/>
<g style="mix-blend-mode:multiply" opacity="0.6">
<path d="M113.374 319.448C113.374 319.448 119.094 330.348 121.774 332.818C128.844 339.328 128.514 332.527 128.514 332.527C128.514 332.527 130.464 339.098 126.114 343.108C121.774 347.118 120.134 344.467 120.134 344.467C120.134 344.467 117.304 331.098 114.614 326.548C111.924 321.998 110.304 319.458 110.304 319.458H113.374V319.448Z" fill="#DE8F76"/>
</g>
<g style="mix-blend-mode:color-dodge" opacity="0.3">
<path d="M111.764 318.967C111.764 318.967 115.854 317.927 121.564 324.277C127.274 330.627 128.014 333.487 128.014 333.487C128.014 333.487 126.204 324.167 121.084 320.347C115.964 316.527 111.764 318.967 111.764 318.967Z" fill="#F5BCEA"/>
</g>
<g style="mix-blend-mode:color-dodge" opacity="0.3">
<path d="M101.464 317.337C101.464 317.337 103.974 319.448 108.664 324.708C113.344 329.958 118.314 338.078 118.314 338.078C118.314 338.078 113.714 322.768 108.934 319.458C104.154 316.148 101.474 317.347 101.474 317.347L101.464 317.337Z" fill="#F5BCEA"/>
</g>
</g>
<path d="M73.5043 299.388C78.5143 283.388 24.1543 343.668 31.1943 365.428C34.2343 374.838 47.2043 363.118 47.2043 363.118C47.2043 363.118 42.9443 389.828 50.3743 393.688C57.8043 397.548 76.6043 374.378 76.6043 374.378C76.6043 374.378 71.0943 388.858 79.1643 388.828C96.1943 388.768 126.614 321.758 126.614 321.758L73.5043 299.378V299.388Z" fill="#9B64AF" stroke="black" stroke-width="1.54" stroke-linecap="round" stroke-linejoin="round"/>
<g style="mix-blend-mode:multiply" opacity="0.5">
<path d="M107.934 312.848C107.934 312.848 118.854 351.378 91.0443 362.738C83.0043 366.018 82.6343 354.368 82.6343 354.368C82.6343 354.368 75.2743 362.258 65.4243 363.038C55.5743 363.818 58.3143 352.078 58.3143 352.078C58.3143 352.078 46.9143 357.908 42.7243 353.958C36.9643 348.528 52.9643 316.458 52.9643 316.458L107.934 312.838V312.848Z" fill="#9B64AF"/>
</g>
<g style="mix-blend-mode:color-dodge" opacity="0.4">
<path d="M37.1543 346.317C37.0643 346.347 34.0743 351.917 33.7243 359.027C33.3843 366.137 41.8343 364.877 44.5243 363.997C47.2043 363.117 40.3043 371.077 32.9943 368.227C25.6743 365.367 34.5043 345.917 34.5043 345.917L37.1643 346.317H37.1543Z" fill="#B17FC7"/>
</g>
<g style="mix-blend-mode:color-dodge" opacity="0.4">
<path d="M110.334 350.607C110.134 351.937 93.1543 376.597 84.5943 380.247C76.0243 383.907 76.1643 374.917 76.1643 374.917C76.1643 374.917 70.1443 391.447 82.3443 388.137C91.7143 385.597 112.624 349.377 112.624 349.377L110.334 350.607V350.607Z" fill="#B17FC7"/>
</g>
<path d="M201.154 162.348C201.154 162.348 237.164 253.728 222.614 280.458C208.904 305.658 188.734 238.968 188.734 238.968" fill="#9B64AF"/>
<path d="M201.154 162.348C201.154 162.348 237.164 253.728 222.614 280.458C208.904 305.658 188.734 238.968 188.734 238.968" stroke="black" stroke-width="1.54" stroke-linecap="round" stroke-linejoin="round"/>
<g style="mix-blend-mode:multiply" opacity="0.5">
<path d="M213.154 231.257C212.364 232.647 215.724 256.817 218.704 262.107C223.504 270.637 226.074 262.987 226.074 262.987C226.074 262.987 226.534 281.287 219.534 284.557C212.534 287.827 206.374 279.337 206.374 279.337L213.144 231.257H213.154Z" fill="#9B64AF"/>
</g>
<g style="mix-blend-mode:multiply" opacity="0.3">
<path d="M217.464 275.827C217.974 276.507 218.774 276.827 219.324 276.497C219.544 276.367 219.714 276.167 219.894 275.987C219.914 275.977 219.934 275.957 219.954 275.947C220.474 275.647 220.534 274.737 220.034 274.077C219.524 273.387 218.734 273.087 218.174 273.407C217.944 273.537 217.784 273.737 217.604 273.927C217.584 273.937 217.564 273.957 217.544 273.967C217.034 274.277 216.964 275.167 217.464 275.837V275.827Z" fill="#9B64AF"/>
<path d="M213.734 276.487C213.404 277.107 213.314 277.827 213.564 278.117C213.664 278.237 213.794 278.297 213.914 278.367C213.914 278.377 213.934 278.387 213.944 278.397C214.164 278.687 214.684 278.397 214.994 277.807C215.324 277.177 215.404 276.477 215.164 276.177C215.064 276.057 214.934 275.997 214.814 275.927C214.814 275.927 214.794 275.907 214.784 275.897C214.554 275.617 214.044 275.887 213.734 276.487Z" fill="#9B64AF"/>
<path d="M209.714 270.967C209.564 272.387 210.184 273.657 211.234 273.817C211.664 273.887 212.094 273.807 212.524 273.757C212.564 273.757 212.604 273.757 212.644 273.767C213.624 273.937 214.744 272.817 214.894 271.437C215.054 269.997 214.424 268.767 213.374 268.587C212.944 268.517 212.514 268.588 212.074 268.648C212.034 268.648 212.004 268.647 211.964 268.637C210.984 268.487 209.864 269.577 209.714 270.967V270.967Z" fill="#9B64AF"/>
</g>
<path d="M67.5342 139.648C67.5342 139.648 56.1542 59.2075 139.234 59.2075C216.174 59.2075 207.524 132.788 205.774 166.888C204.024 200.988 256.054 317.547 122.694 333.188C16.1542 345.677 27.3242 252.788 67.5342 139.648V139.648Z" fill="#9B64AF" stroke="black" stroke-width="1.54" stroke-linecap="round" stroke-linejoin="round"/>
<g style="mix-blend-mode:multiply" opacity="0.3">
<path d="M196.944 188.527C197.884 188.027 198.314 186.907 197.854 185.917C197.664 185.517 197.394 185.177 197.134 184.817C197.114 184.777 197.094 184.747 197.084 184.707C196.664 183.777 195.394 183.307 194.474 183.797C193.524 184.307 193.114 185.407 193.564 186.407C193.744 186.807 194.024 187.157 194.294 187.507C194.314 187.537 194.334 187.577 194.344 187.607C194.774 188.537 196.024 189.017 196.954 188.517L196.944 188.527Z" fill="#9B64AF"/>
</g>
<path d="M171.604 140.647C161.634 148.877 150.644 133.437 150.644 133.437C150.644 127.317 154.584 120.337 160.574 113.217C161.404 112.227 183.294 131.007 171.614 140.647H171.604Z" fill="#F7764D" stroke="black" stroke-width="1.54" stroke-linecap="round" stroke-linejoin="round"/>
<g style="mix-blend-mode:multiply" opacity="0.5">
<path d="M97.2242 197.407C97.2242 197.407 70.0343 239.607 80.3943 285.307C85.9543 309.797 115.244 314.477 115.244 314.477L95.8943 326.597C95.8943 326.597 67.5043 325.887 66.6743 324.937C65.8543 323.987 57.7142 319.697 57.7142 319.697C57.7142 319.697 43.0142 308.308 43.2542 302.398C43.4942 296.488 76.1343 193.807 76.1343 193.807L97.2342 197.407H97.2242Z" fill="#9B64AF"/>
</g>
<path d="M41.6643 179.608C66.4243 157.778 74.7343 153.948 74.7343 153.948C100.234 202.098 58.7643 316.717 39.7643 310.807C26.3643 306.637 34.9143 279.598 34.9143 279.598C34.9143 279.598 22.1443 299.218 15.7143 290.238C9.28426 281.248 18.2143 258.298 18.2143 258.298C18.2143 258.298 11.3443 269.877 3.82426 264.587C-8.01574 256.257 19.9343 198.788 41.6643 179.618V179.608Z" fill="#9B64AF" stroke="black" stroke-width="1.54" stroke-linecap="round" stroke-linejoin="round"/>
<g style="mix-blend-mode:multiply" opacity="0.3">
<path d="M34.8743 219.377C45.8443 185.227 61.6243 184.707 64.6643 183.717C64.8043 183.677 64.9443 183.637 65.0843 183.587L43.5943 177.907C42.9643 178.457 42.3143 179.027 41.6643 179.607C41.3443 179.887 41.0243 180.177 40.6943 180.477C36.8443 184.657 29.0243 193.767 19.7843 207.917C5.82429 231.327 -4.11571 258.987 3.81429 264.567C11.3343 269.857 18.2043 258.277 18.2043 258.277C18.2043 258.277 9.27429 281.237 15.7043 290.217C22.1343 299.207 34.9043 279.577 34.9043 279.577C34.9043 279.577 26.3543 306.627 39.7543 310.787C46.9243 313.017 60.0143 295.697 70.9143 263.647C53.2543 278.227 19.5643 266.977 34.8643 219.347L34.8743 219.377Z" fill="#9B64AF"/>
</g>
<g style="mix-blend-mode:multiply" opacity="0.5">
<path d="M34.8842 186.767C34.8842 186.767 33.6342 192.337 55.4042 194.647C73.8942 196.617 91.9842 190.757 91.9842 190.757L44.0442 174.767L34.8842 186.767V186.767Z" fill="#9B64AF"/>
</g>
<path d="M213.734 259.657C215.164 250.727 215.124 241.617 213.454 232.737C207.894 203.297 188.404 193.817 157.494 201.347C113.884 211.977 94.6743 255.217 90.6643 293.157C88.2343 316.157 106.684 336.227 129.784 335.067C130.084 335.047 130.394 335.037 130.694 335.017C189.634 330.857 208.194 294.287 213.734 259.657Z" fill="#E391ED" stroke="black" stroke-width="1.54" stroke-linecap="round" stroke-linejoin="round"/>
<path d="M196.734 328.748H61.1443C57.4771 328.748 54.5043 331.72 54.5043 335.388V336.708C54.5043 340.375 57.4771 343.348 61.1443 343.348H196.734C200.401 343.348 203.374 340.375 203.374 336.708V335.388C203.374 331.72 200.401 328.748 196.734 328.748Z" fill="#FFC404" stroke="black" stroke-width="1.71" stroke-linecap="round" stroke-linejoin="round"/>
<g style="mix-blend-mode:color-dodge" opacity="0.3">
<path d="M213.524 233.138C210.284 215.468 202.084 204.908 189.444 200.828C189.444 201.118 189.444 201.398 189.404 201.678C192.484 203.178 205.464 210.608 209.494 231.268C214.084 254.768 201.914 299.268 189.914 308.798C177.914 318.338 174.234 320.688 174.234 320.688C174.234 320.688 174.474 321.378 176.004 322.038C200.034 307.598 209.814 283.507 213.634 260.217C215.104 251.237 215.154 242.078 213.514 233.128L213.524 233.138Z" fill="#F5BCEA"/>
</g>
<path d="M91.8143 284.588C90.7843 294.518 91.7043 300.428 97.1543 304.838C104.324 310.638 117.564 306.318 122.494 298.468C119.664 307.538 124.244 313.278 131.014 313.708C140.114 314.278 151.604 306.308 155.034 298.828C156.414 313.708 176.264 320.218 187.884 297.758C188.854 306.208 191.824 308.458 196.354 303.808" stroke="black" stroke-width="1.54" stroke-linecap="round" stroke-linejoin="round"/>
<path d="M103.554 247.228C102.664 253.558 101.024 263.938 110.764 270.898C118.044 276.098 129.784 270.558 134.474 262.638C133.144 269.728 135.104 278.148 143.884 279.218C152.504 280.268 161.954 272.178 165.214 264.618C168.544 279.358 182.224 285.018 193.064 261.918C192.344 275.968 206.804 278.338 212.294 266.088" stroke="black" stroke-width="1.54" stroke-linecap="round" stroke-linejoin="round"/>
<path d="M214.274 238.307C204.304 234.697 206.374 225.517 206.374 225.517C204.394 245.627 175.014 246.277 178.604 227.417C175.684 236.877 168.754 244.497 158.904 243.507C149.024 242.517 146.404 235.137 149.024 227.577C143.664 236.107 133.534 241.027 124.794 236.127C120.574 233.767 117.664 228.237 122.774 220.367" stroke="black" stroke-width="1.54" stroke-linecap="round" stroke-linejoin="round"/>
<path d="M135.783 141.814C146.555 137.84 151.143 123.382 146.029 109.521C140.916 95.6608 128.038 87.6463 117.265 91.6204C106.493 95.5945 101.906 110.052 107.019 123.913C112.133 137.773 125.01 145.788 135.783 141.814Z" fill="white" stroke="black" stroke-width="1.54" stroke-linecap="round" stroke-linejoin="round"/>
<path d="M201.554 96.1275C205.114 109.868 204.944 120.958 193.814 123.078C182.684 125.208 170.774 115.788 167.214 102.048C163.654 88.3075 164.424 76.7375 175.544 74.6175C186.674 72.4875 197.984 82.3875 201.544 96.1275H201.554Z" fill="white" stroke="black" stroke-width="1.54" stroke-linecap="round" stroke-linejoin="round"/>
<path d="M208.314 77.3676H188.084V100.578H208.314V77.3676Z" fill="#1B181F" stroke="black" stroke-width="1.54" stroke-linecap="round" stroke-linejoin="round"/>
<path d="M194.33 110.684C200.682 108.037 203.033 99.1759 199.581 90.8916C196.129 82.6074 188.182 78.0372 181.83 80.684C175.478 83.3307 173.126 92.192 176.578 100.476C180.03 108.761 187.978 113.331 194.33 110.684Z" fill="black" stroke="black" stroke-width="0.61" stroke-linecap="round" stroke-linejoin="round"/>
<path d="M139.999 127.71C146.351 125.063 148.702 116.202 145.251 107.918C141.799 99.6336 133.851 95.0635 127.499 97.7102C121.147 100.357 118.796 109.218 122.247 117.503C125.699 125.787 133.647 130.357 139.999 127.71Z" fill="black" stroke="black" stroke-width="0.61" stroke-linecap="round" stroke-linejoin="round"/>
<path d="M127.587 106.506C128.561 104.817 126.75 101.947 123.541 100.094C120.331 98.2407 116.939 98.1073 115.965 99.7957C114.99 101.484 116.801 104.355 120.011 106.208C123.22 108.061 126.612 108.194 127.587 106.506Z" fill="white"/>
<path d="M125.124 113.217C125.958 113.217 126.634 112.631 126.634 111.907C126.634 111.184 125.958 110.597 125.124 110.597C124.29 110.597 123.614 111.184 123.614 111.907C123.614 112.631 124.29 113.217 125.124 113.217Z" fill="white"/>
<path d="M142.604 128.127C144.559 128.127 146.144 126.381 146.144 124.227C146.144 122.073 144.559 120.327 142.604 120.327C140.649 120.327 139.064 122.073 139.064 124.227C139.064 126.381 140.649 128.127 142.604 128.127Z" fill="white"/>
<path d="M197.894 109.627C199.822 109.627 201.384 107.904 201.384 105.777C201.384 103.651 199.822 101.927 197.894 101.927C195.967 101.927 194.404 103.651 194.404 105.777C194.404 107.904 195.967 109.627 197.894 109.627Z" fill="white"/>
<path d="M181.004 90.027C182.08 88.3878 180.522 85.4649 177.525 83.4986C174.529 81.5322 171.227 81.2671 170.152 82.9064C169.076 84.5456 170.634 87.4685 173.63 89.4348C176.627 91.4011 179.929 91.6663 181.004 90.027Z" fill="white"/>
<path d="M179.314 96.2675C180.076 96.2675 180.694 95.6899 180.694 94.9775C180.694 94.2651 180.076 93.6875 179.314 93.6875C178.552 93.6875 177.934 94.2651 177.934 94.9775C177.934 95.6899 178.552 96.2675 179.314 96.2675Z" fill="white"/>
<path d="M164.384 65.8175C167.274 66.3675 170.154 66.9275 173.014 67.6275C183.214 70.1075 193.014 73.8375 202.644 77.9775C203.814 78.4775 204.984 78.9875 206.144 79.5075C205.694 72.8075 203.204 68.2675 203.204 68.2675C203.204 68.2675 181.824 51.2175 171.054 26.7275C171.054 26.7275 159.614 43.4675 160.174 65.0675C161.584 65.2875 162.994 65.5575 164.394 65.8275L164.384 65.8175Z" fill="#27242D" stroke="black" stroke-width="1.54" stroke-linecap="round" stroke-linejoin="round"/>
<path d="M164.384 65.8175C164.814 65.8975 165.254 65.9875 165.684 66.0675C165.164 55.0575 168.184 45.2275 171.014 38.5875C180.984 55.4475 194.664 67.8975 199.324 71.6475C199.614 72.9275 200.024 74.7475 200.344 76.9975C201.114 77.3175 201.884 77.6475 202.654 77.9775C204.154 78.6175 205.644 79.2775 207.124 79.9375C207.254 75.0275 205.434 71.7675 203.624 68.7375C195.094 54.5175 181.834 51.1975 171.054 26.7175C171.054 26.7175 159.614 43.4575 160.174 65.0575C161.584 65.2775 162.994 65.5475 164.394 65.8175H164.384Z" fill="#A4A6D9" stroke="black" stroke-width="1.54" stroke-linecap="round" stroke-linejoin="round"/>
<path d="M219.254 99.1975C213.934 80.1675 204.194 65.9275 190.404 54.5675C161.924 31.1275 112.924 25.9375 75.5143 46.2175C71.7343 48.2675 68.0843 50.3675 64.6043 52.4575C42.2643 65.8875 29.5143 89.2275 26.4943 115.118C23.1743 143.608 28.7843 177.197 54.0843 188.167C99.1143 207.697 179.074 202.027 179.074 202.027C179.074 202.027 184.974 196.027 192.404 186.387C193.934 184.407 195.524 182.277 197.144 180.007C200.004 175.997 202.954 171.577 205.774 166.857C206.924 164.937 208.054 162.967 209.134 160.957C219.454 141.937 225.044 119.887 219.254 99.1775V99.1975ZM169.414 129.078C142.044 139.558 103.224 130.268 91.2143 118.338C91.2143 118.338 106.474 99.9875 131.844 88.4375C135.364 86.8275 139.084 85.3575 142.984 84.0775C160.664 78.2975 186.794 77.7475 203.224 84.7475C203.224 84.7475 210.534 113.338 169.414 129.078V129.078Z" fill="#1F1D24" stroke="black" stroke-width="1.54" stroke-linecap="round" stroke-linejoin="round"/>
<g style="mix-blend-mode:overlay" opacity="0.4">
<path d="M88.1643 40.9075C88.1643 40.9075 83.0743 42.1175 81.6743 54.1675C80.2743 66.2175 94.7543 91.9175 118.794 84.8775C107.294 91.2575 95.6043 101.127 91.4243 106.007C91.5143 97.4375 87.3943 82.9575 78.4643 72.2275C69.5343 61.4975 54.9543 59.9075 50.9543 62.7275C61.0643 52.3675 78.9343 43.6675 88.1643 40.9175V40.9075Z" fill="white"/>
</g>
<g style="mix-blend-mode:multiply" opacity="0.4">
<path d="M101.044 127.228C101.044 127.228 100.984 127.338 100.874 127.538C99.4544 130.238 90.2944 148.328 110.884 156.378C102.344 168.348 106.754 190.768 135.774 192.988C119.744 193.448 90.8644 188.218 90.8644 188.218C90.8644 188.218 67.9444 135.918 70.5944 125.468C73.2444 115.018 85.6344 113.728 88.3144 115.818" fill="#27242D"/>
</g>
<g style="mix-blend-mode:multiply" opacity="0.4">
<path d="M160.674 137.787C160.674 137.787 162.404 174.867 155.974 183.467C148.514 193.437 133.814 192.537 134.454 192.547C135.094 192.557 167.034 193.107 167.034 193.107C167.034 193.107 166.634 151.737 164.584 145.787C162.534 139.837 160.674 137.787 160.674 137.787V137.787Z" fill="#27242D"/>
</g>
<g style="mix-blend-mode:multiply" opacity="0.4">
<path d="M94.3544 40.9775C94.3544 40.9775 107.604 48.1075 116.484 63.9075C125.354 79.7175 111.134 88.7675 111.134 88.7675C111.134 88.7675 127.914 77.9975 137.754 77.4675C147.594 76.9375 124.024 55.5775 124.024 55.5775C124.024 55.5775 104.184 41.3975 94.3444 40.9775H94.3544Z" fill="#27242D"/>
</g>
<g style="mix-blend-mode:multiply" opacity="0.2">
<path d="M180.414 200.647C179.974 201.117 179.634 201.477 179.414 201.707C179.904 201.847 180.394 201.977 180.864 202.097C180.704 201.617 180.564 201.127 180.414 200.647Z" fill="#0159A3"/>
</g>
<g style="mix-blend-mode:overlay" opacity="0.4">
<path d="M217.874 94.5276C206.094 64.4676 193.304 52.5776 165.514 40.3176C160.394 39.1876 155.784 37.2875 150.644 36.2375C181.324 45.9875 206.884 70.0676 215.524 101.898C221.214 122.838 218.324 139.588 213.774 151.648C221.364 134.788 224.484 111.358 217.884 94.5176L217.874 94.5276Z" fill="white"/>
</g>
<g style="mix-blend-mode:color-dodge" opacity="0.3">
<path d="M209.144 160.987C208.054 162.997 206.924 164.967 205.784 166.887C205.094 168.047 204.394 169.177 203.694 170.297C205.044 168.287 209.974 161.757 213.784 151.667C212.354 154.847 210.794 157.967 209.154 160.987H209.144Z" fill="#BEC6DE"/>
</g>
<g style="mix-blend-mode:multiply" opacity="0.4">
<path d="M90.2143 190.897C89.1543 187.577 88.5443 184.037 88.2943 180.567C88.1743 178.917 88.2043 177.257 88.4243 175.627C62.1643 163.347 48.3043 132.767 67.8543 114.807C51.7943 117.487 39.6943 92.1275 69.3543 49.6775C67.9243 50.8975 59.4143 55.4175 57.9543 56.6175C35.0043 75.4075 30.1743 95.1275 27.3443 108.757C23.0543 138.177 26.8643 176.377 54.0943 188.188C65.6643 193.207 79.5443 196.557 93.7743 198.777C92.3243 196.307 91.1043 193.687 90.2143 190.897Z" fill="#27242D"/>
</g>
<g style="mix-blend-mode:overlay" opacity="0.4">
<path d="M175.424 56.9475C175.424 56.9475 167.534 47.8575 156.574 43.4575C145.614 39.0575 143.044 47.3175 150.664 55.0175C157.294 61.7175 168.164 65.6875 172.754 65.7975C178.984 65.9575 179.714 62.3075 175.434 56.9375L175.424 56.9475Z" fill="white"/>
</g>
<g opacity="0.4">
<g style="mix-blend-mode:screen" opacity="0.44">
<path d="M212.394 118.628C212.274 118.048 211.894 117.618 211.504 117.668C211.344 117.688 211.204 117.768 211.064 117.838C211.054 117.838 211.034 117.838 211.024 117.838C210.664 117.878 210.414 118.448 210.534 119.018C210.664 119.608 211.034 120.018 211.424 119.978C211.584 119.958 211.724 119.878 211.874 119.808C211.884 119.808 211.904 119.808 211.914 119.808C212.274 119.758 212.524 119.198 212.404 118.628H212.394Z" fill="white"/>
</g>
</g>
<path d="M91.2144 118.338C111.614 93.2775 158.014 68.3875 203.224 84.7475C203.224 84.7475 206.534 86.4775 207.274 84.4175C207.524 83.7175 207.894 82.2675 203.354 79.6175C194.624 74.5175 174.374 67.8775 146.834 74.0875C102.924 83.9775 82.8944 116.878 82.8944 116.878C82.8944 116.878 80.3344 120.847 82.8944 122.327C85.4544 123.807 87.6544 122.118 91.2144 118.348V118.338Z" fill="#A4A6D9" stroke="black" stroke-width="1.54" stroke-linecap="round" stroke-linejoin="round"/>
<g style="mix-blend-mode:multiply" opacity="0.6">
<path d="M158.774 80.5876C156.694 78.1276 154.694 75.5976 153.004 72.8776C150.994 73.2076 148.944 73.6076 146.844 74.0776C137.394 76.2076 129.054 79.4076 121.774 83.1076C123.774 82.6576 125.844 82.7376 127.614 83.8576C129.554 85.0776 130.454 87.1576 130.154 89.1976C139.024 85.1576 148.684 82.1176 158.774 80.5876V80.5876Z" fill="#99B5C2"/>
</g>
<path d="M179.084 202.048C179.084 202.048 99.1344 207.718 54.0944 188.188C44.1544 183.878 37.2544 176.078 32.7444 166.478C37.6944 171.668 66.8344 196.038 174.434 193.088C192.064 179.258 221.584 150.478 221.064 108.208C232.614 157.768 179.074 202.048 179.074 202.048H179.084Z" fill="#A4A6D9" stroke="black" stroke-width="1.54" stroke-linecap="round" stroke-linejoin="round"/>
<g style="mix-blend-mode:multiply" opacity="0.6">
<path d="M108.274 199.818C106.494 197.668 105.474 194.938 106.624 192.228C106.834 191.738 107.084 191.288 107.394 190.888C53.7344 185.018 36.4544 170.368 32.7444 166.478C37.2544 176.088 44.1544 183.878 54.0944 188.188C69.8044 194.998 89.7744 198.748 109.104 200.738C108.814 200.438 108.534 200.138 108.274 199.818V199.818Z" fill="#99B5C2"/>
</g>
<path d="M102.594 155.717C95.3843 167.407 94.7943 191.707 97.7543 199.037C98.7843 201.587 99.7843 203.467 100.294 204.377C98.6443 204.277 75.9743 197.727 66.2843 184.957C53.4043 167.977 52.9543 146.467 52.9543 146.467C42.6243 146.267 35.1643 138.357 31.2843 128.937C31.1543 128.637 31.0343 128.327 30.9143 128.017C16.1243 90.7175 28.3143 32.4175 28.3143 32.4175C47.9243 73.2475 72.6743 80.1175 72.6743 80.1175C72.6743 80.1175 78.4943 99.6275 92.8443 114.537C88.5643 119.687 86.2943 125.217 85.3443 130.677C82.0843 149.337 102.594 155.727 102.594 155.727V155.717Z" fill="#27242D" stroke="black" stroke-width="1.54" stroke-linecap="round" stroke-linejoin="round"/>
<g style="mix-blend-mode:multiply" opacity="0.4">
<path d="M49.9243 72.6374C49.9243 72.6374 40.9443 69.3974 42.9843 77.1674C42.9843 77.1674 34.7143 78.2574 38.3743 87.1274C38.3743 87.1274 32.2543 92.2474 38.6843 99.1074C38.6843 99.1074 32.3643 105.597 40.4443 111.147C40.4443 111.147 36.9543 118.767 44.6743 123.167C44.6743 123.167 43.0443 130.807 52.7343 133.217C52.7343 133.217 54.0243 139.297 63.4843 139.397C63.4843 139.397 58.9943 146.627 65.5843 150.637C65.5843 150.637 58.1243 164.377 70.9343 165.327C70.9343 165.327 70.9343 176.317 81.0943 170.657C81.0943 170.657 87.0943 176.897 92.7443 164.397C92.7443 164.397 91.0943 183.127 93.3643 199.017C93.3643 199.017 62.7943 196.977 57.9743 174.047C53.1543 151.127 58.1743 142.527 58.1743 142.527C58.1743 142.527 37.2343 149.877 30.3343 111.947C23.4343 74.0074 30.5743 46.8674 30.5743 46.8674L49.9243 72.6474V72.6374Z" fill="#27242D"/>
</g>
<path d="M27.4243 59.4175C27.4243 59.4175 41.3743 85.5975 71.2043 88.9575" stroke="black" stroke-width="1.54" stroke-linecap="round" stroke-linejoin="round"/>
<path d="M25.5043 79.7775C25.5043 79.7775 45.8443 95.5075 73.0443 93.8175" stroke="black" stroke-width="1.54" stroke-linecap="round" stroke-linejoin="round"/>
<path d="M26.1743 95.3275C26.1743 95.3275 46.9443 105.348 74.9143 97.4875" stroke="black" stroke-width="1.54" stroke-linecap="round" stroke-linejoin="round"/>
<path d="M29.2743 111.057C29.2743 111.057 60.5243 113.387 76.9043 101.277" stroke="black" stroke-width="1.54" stroke-linecap="round" stroke-linejoin="round"/>
<path d="M33.9442 124.688C33.9442 124.688 68.3942 122.268 80.0042 104.958" stroke="black" stroke-width="1.54" stroke-linecap="round" stroke-linejoin="round"/>
<path d="M40.6942 137.087C40.6942 137.087 77.6342 128.267 83.2942 108.117" stroke="black" stroke-width="1.54" stroke-linecap="round" stroke-linejoin="round"/>
<path d="M58.8342 167.248C57.8542 165.448 67.1242 137.818 83.9042 139.088" stroke="black" stroke-width="1.54" stroke-linecap="round" stroke-linejoin="round"/>
<path d="M66.3143 182.567C66.3143 182.567 71.0943 153.087 84.9143 144.547" stroke="black" stroke-width="1.54" stroke-linecap="round" stroke-linejoin="round"/>
<path d="M78.5843 195.037C78.5843 195.037 78.4643 163.767 89.1043 151.497" stroke="black" stroke-width="1.54" stroke-linecap="round" stroke-linejoin="round"/>
<path d="M57.7142 140.928C57.7142 140.928 71.1242 139.858 83.2342 123.348" stroke="black" stroke-width="1.54" stroke-linecap="round" stroke-linejoin="round"/>
<path d="M173.074 127.827C156.964 134.047 136.144 134.997 116.514 129.347C116.184 129.247 115.844 129.147 115.514 129.047C106.334 126.187 98.8443 120.757 92.8443 114.527C78.4843 99.6175 72.6743 80.1075 72.6743 80.1075C72.6743 80.1075 47.9243 73.2375 28.3143 32.4075C28.3143 32.4075 16.1343 90.6975 30.9143 128.007C31.0343 128.317 31.1543 128.617 31.2843 128.927C35.1643 138.347 42.6343 146.267 52.9543 146.457C52.9543 146.457 45.7543 173.687 64.1243 190.517C75.9443 201.347 98.6543 204.267 100.294 204.367C99.7843 203.457 98.7843 201.587 97.7543 199.027C94.7943 191.697 95.3843 167.407 102.594 155.707C102.594 155.707 82.0843 149.327 85.3443 130.657C85.9743 127.017 87.2043 123.357 89.2043 119.797C96.2843 126.627 105.274 132.077 113.734 134.717C114.114 134.837 114.504 134.957 114.884 135.067C126.994 138.547 139.984 139.777 152.424 138.597C160.454 137.837 167.904 136.157 174.564 133.667C174.074 131.717 173.574 129.777 173.064 127.827H173.074ZM82.3943 120.307C81.0243 123.277 80.0443 126.417 79.4843 129.637C77.7643 139.487 81.0343 148.177 88.9443 154.757C90.8743 156.357 92.8343 157.637 94.6043 158.617C91.8543 165.757 90.8243 173.757 90.4443 178.527C89.9843 184.297 90.0043 190.437 91.1043 195.987C85.0843 194.577 72.9043 191.137 66.1243 183.567C52.3343 168.167 60.3343 140.527 60.3343 140.527C60.3343 140.527 44.0143 141.477 36.7943 126.647V126.627C36.6743 126.367 36.5643 126.097 36.4643 125.837V125.807C27.2243 102.527 29.1343 70.0075 31.5243 50.4575C46.1043 73.3075 61.4543 81.8775 67.9443 84.6675C69.9843 90.3175 75.3643 103.287 85.2043 114.917C84.3243 116.287 83.2943 118.377 82.4043 120.307H82.3943Z" fill="#A4A6D9" stroke="black" stroke-width="1.54" stroke-linecap="round" stroke-linejoin="round"/>
<path d="M85.1943 114.927L89.2043 119.807" stroke="black" stroke-width="1.54" stroke-linecap="round" stroke-linejoin="round"/>
<g style="mix-blend-mode:overlay" opacity="0.4">
<path d="M52.2143 77.2875C51.5443 76.2275 50.3443 75.0275 49.1543 74.5575C48.4643 74.2875 47.6743 74.3975 47.1443 74.8575C46.5643 75.2075 46.1943 76.0075 46.5043 76.6575C47.1043 77.9375 48.0443 79.0675 49.3243 79.7175C50.0343 80.0775 50.9343 80.2175 51.6643 79.8275C52.6343 79.3175 52.7643 78.1575 52.2143 77.2875V77.2875Z" fill="white"/>
</g>
<g style="mix-blend-mode:overlay" opacity="0.4">
<path d="M47.7243 82.8375C46.5243 81.9375 44.9943 81.0775 43.4443 81.0975C41.8743 81.1175 40.4743 82.4975 41.0643 84.1175C41.3343 85.1875 42.3343 86.1075 43.1943 86.7375C44.4643 87.6675 46.0443 88.4275 47.6243 88.6075C49.0743 88.7775 50.7743 87.8675 50.6043 86.1875C50.4543 84.7875 48.7643 83.6075 47.7243 82.8275V82.8375Z" fill="white"/>
</g>
<g style="mix-blend-mode:overlay" opacity="0.4">
<path d="M42.6443 90.6675C41.0543 90.3375 39.2243 90.7175 38.5043 92.3375C38.1743 93.0775 38.2343 93.8175 38.5643 94.4375C38.6743 94.7275 38.8443 95.0075 39.0643 95.2575C40.0743 96.4075 41.8443 96.9175 43.2743 97.3075C44.8243 97.7275 47.0143 97.9375 48.1643 96.5575C50.7043 93.5175 44.7943 91.1275 42.6443 90.6775V90.6675Z" fill="white"/>
</g>
<g style="mix-blend-mode:overlay" opacity="0.4">
<path d="M48.6343 103.207C48.6343 103.207 48.6243 103.207 48.6143 103.207C47.0543 102.277 45.2743 101.927 43.4443 102.097C42.5343 102.177 41.5343 102.517 40.7743 103.097C39.4043 103.737 38.4743 104.847 39.1943 106.657C40.3543 109.587 44.9143 109.187 47.3243 108.527C48.4843 108.207 49.7543 107.547 50.2543 106.377C50.8243 105.027 49.8443 103.777 48.6443 103.217L48.6343 103.207Z" fill="white"/>
</g>
<g style="mix-blend-mode:overlay" opacity="0.4">
<path d="M55.8044 114.937C55.3844 113.157 53.5944 112.757 52.0144 112.677C49.2244 112.527 43.3144 112.787 43.2444 116.757C43.2044 119.097 45.1644 119.777 47.4444 119.747C47.6344 119.767 47.8144 119.777 47.9844 119.787C49.9044 119.907 51.8844 119.557 53.6044 118.667C55.0044 117.947 56.1944 116.607 55.7944 114.917L55.8044 114.937Z" fill="white"/>
</g>
<g style="mix-blend-mode:overlay" opacity="0.4">
<path d="M59.5544 125.107C59.5244 124.807 59.4344 124.547 59.3144 124.307C58.9844 123.117 57.6944 122.367 56.3244 122.327C54.4144 122.277 52.4444 122.967 50.9244 124.117C49.5644 125.147 48.0144 126.857 48.7844 128.697C49.5844 130.607 52.1144 130.468 53.7744 130.048C55.8044 129.538 57.4944 128.297 58.9544 126.837C59.0444 126.747 59.1044 126.667 59.1644 126.577C59.4644 126.177 59.6244 125.677 59.5644 125.117L59.5544 125.107Z" fill="white"/>
</g>
<g style="mix-blend-mode:overlay" opacity="0.4">
<path d="M67.2643 131.407C67.1043 131.127 66.8843 130.917 66.6343 130.747C64.8843 129.367 62.1343 131.027 60.7743 132.427C59.9543 133.277 59.5243 134.557 60.2043 135.627C60.9143 136.757 62.2743 136.877 63.4643 136.587C65.4243 136.107 68.6543 133.747 67.2643 131.397V131.407Z" fill="white"/>
</g>
<g style="mix-blend-mode:overlay" opacity="0.4">
<path d="M68.4844 141.087C68.0144 140.417 67.1844 140.287 66.4444 140.517C65.4944 140.807 64.8744 141.617 64.6344 142.547C64.5744 142.787 64.5944 143.027 64.6744 143.257C64.7044 143.397 64.7544 143.527 64.8244 143.667C65.0544 144.087 65.4444 144.427 65.9344 144.507C67.0644 144.687 67.9044 143.907 68.4444 143.017C68.8044 142.417 68.9144 141.697 68.4944 141.087H68.4844Z" fill="white"/>
</g>
<g style="mix-blend-mode:overlay" opacity="0.4">
<path d="M72.6444 153.127C72.2844 151.487 70.5744 150.587 68.9944 151.157C67.7544 151.607 66.9243 152.737 66.4743 153.957C65.9843 154.827 65.6243 155.777 65.4743 156.757C65.2343 158.357 65.6843 160.517 67.4743 161.007C69.1443 161.467 70.4244 159.687 71.1344 158.437C71.9944 156.927 73.0244 154.907 72.6344 153.117L72.6444 153.127Z" fill="white"/>
</g>
<g style="mix-blend-mode:overlay" opacity="0.4">
<path d="M79.4844 159.808C78.6444 159.068 77.4944 159.068 76.5844 159.658C75.3844 160.438 74.9344 161.608 74.9644 162.838C74.5544 164.438 74.6444 166.278 76.1544 166.978C78.7444 168.188 79.8244 164.808 80.2744 162.998C80.5544 161.878 80.3844 160.608 79.4844 159.808V159.808Z" fill="white"/>
</g>
<g style="mix-blend-mode:overlay" opacity="0.4">
<path d="M88.5743 160.007C87.0043 160.187 86.1143 161.667 85.8743 163.167C85.3643 164.417 85.3743 165.947 86.5043 166.737C88.2243 167.937 90.1543 165.727 90.6943 164.237C91.3043 162.547 91.0343 159.727 88.5843 160.007H88.5743Z" fill="white"/>
</g>
<g style="mix-blend-mode:color-dodge" opacity="0.3">
<path d="M133.154 132.567C133.154 132.567 106.474 135.267 88.9544 113.927C71.7344 92.9475 69.1044 78.6875 69.1044 78.6875L72.6744 80.1075C72.6744 80.1075 80.9344 105.617 95.6944 117.317C110.454 129.017 122.754 132.688 133.164 132.578L133.154 132.567Z" fill="#A4A6D9"/>
</g>
<path d="M223.314 110.788C223.014 108.748 222.624 106.668 222.134 104.568C222.604 106.348 223.004 108.478 223.314 110.788Z" fill="#BEC6DE" stroke="black" stroke-width="1.54" stroke-linecap="round" stroke-linejoin="round"/>
<path d="M211.724 120.857C211.724 120.857 218.584 127.627 219.674 138.977L219.494 140.797C219.624 142.167 219.484 143.657 219.204 145.247C219.584 145.647 219.924 146.097 220.194 146.587C222.604 139.127 225.524 126.077 223.314 110.827C223.314 110.807 223.314 110.787 223.314 110.777C223.014 108.737 222.624 106.657 222.134 104.557C222.134 104.537 222.134 104.527 222.124 104.507C218.424 87.9375 206.374 71.9175 206.374 71.9175C206.374 71.9175 209.064 79.4475 207.924 89.6575C207.924 89.6575 212.184 93.4775 214.004 104.427C214.904 109.807 213.394 111.737 211.714 120.857H211.724Z" fill="#27242D" stroke="black" stroke-width="1.54" stroke-linecap="round" stroke-linejoin="round"/>
<path d="M213.174 116.007C213.174 116.007 223.494 122.517 223.674 129.987" stroke="black" stroke-width="1.54" stroke-linecap="round" stroke-linejoin="round"/>
<path d="M214.134 109.927C214.134 109.927 220.764 110.827 223.574 114.337" stroke="black" stroke-width="1.54" stroke-linecap="round" stroke-linejoin="round"/>
<path d="M213.724 101.707C213.724 101.707 218.004 100.877 221.124 102.387" stroke="black" stroke-width="1.54" stroke-linecap="round" stroke-linejoin="round"/>
<path d="M210.474 94.3875C210.474 94.3875 212.794 91.4975 217.324 91.2675" stroke="black" stroke-width="1.54" stroke-linecap="round" stroke-linejoin="round"/>
<path d="M219.594 130.757C217.774 126.407 215.444 123.167 213.954 121.337C215.694 116.747 216.824 109.717 215.884 103.517C214.844 96.6474 210.904 89.4474 207.974 86.2374C207.614 88.4574 206.874 88.9274 206.754 91.1474C209.154 94.1874 211.564 101.077 212.114 104.387C213.014 109.767 212.054 114.907 209.594 122.517C209.594 122.517 219.744 133.157 219.694 156.917C219.694 156.917 219.694 156.947 219.694 156.917C219.924 156.447 224.104 151.177 222.004 140.517C221.224 135.267 219.584 130.767 219.584 130.767L219.594 130.757Z" fill="#A4A6D9" stroke="black" stroke-width="1.54" stroke-linecap="round" stroke-linejoin="round"/>
<g style="mix-blend-mode:overlay" opacity="0.4">
<path d="M220.574 114.377C219.794 113.717 218.774 113.237 217.784 113.767C216.824 114.277 216.554 115.367 216.884 116.347C217.184 117.227 217.754 117.927 218.484 118.417C219.434 119.527 220.734 120.477 221.984 119.217C223.444 117.747 221.784 115.407 220.574 114.377V114.377Z" fill="white"/>
</g>
<g style="mix-blend-mode:overlay" opacity="0.4">
<path d="M221.544 106.837C221.444 106.387 221.174 105.937 220.854 105.607C220.234 104.957 219.244 104.767 218.504 105.327C217.854 105.817 217.644 106.657 217.954 107.407C218.144 107.867 218.514 108.337 218.964 108.567C219.034 108.607 219.104 108.637 219.184 108.667C219.544 108.887 219.954 108.957 220.394 108.867C221.314 108.687 221.744 107.677 221.554 106.837H221.544Z" fill="white"/>
</g>
<g style="mix-blend-mode:overlay" opacity="0.4">
<path d="M218.034 95.2375C217.434 94.7675 216.604 94.6475 215.934 95.0375C215.554 95.2575 215.274 95.6275 215.144 96.0375C215.074 96.2675 215.064 96.4975 215.094 96.7275C215.094 96.7775 215.094 96.8275 215.104 96.8675C215.204 97.7175 216.054 98.4875 216.864 98.6975C217.524 98.8675 218.164 98.5975 218.534 98.0375C219.134 97.1375 218.854 95.8775 218.034 95.2275V95.2375Z" fill="white"/>
</g>
<g style="mix-blend-mode:overlay" opacity="0.4">
<path d="M214.874 87.7975C214.874 87.7975 214.874 87.7475 214.864 87.7275C214.784 87.4475 214.644 87.1975 214.444 86.9875C214.384 86.9275 214.334 86.8975 214.254 86.8275C214.194 86.7775 214.124 86.7075 214.044 86.6775C213.874 86.5675 213.694 86.5075 213.494 86.4975C213.294 86.4475 213.104 86.4575 212.904 86.5175C212.874 86.5175 212.844 86.5375 212.804 86.5475C212.604 86.5475 212.424 86.6075 212.254 86.7175C212.184 86.7475 212.134 86.7875 212.074 86.8475C211.884 86.9875 211.794 87.0575 211.654 87.2875C211.604 87.3675 211.584 87.4275 211.544 87.5175C211.454 87.7275 211.464 87.7175 211.424 87.9375C211.404 88.0375 211.394 88.1175 211.394 88.2075C211.414 88.5175 211.464 88.7775 211.624 89.0575C211.704 89.1975 211.814 89.3475 211.934 89.4675C212.154 89.6875 212.374 89.8075 212.664 89.9175C213.574 90.2375 214.564 89.6375 214.834 88.7475C214.884 88.5875 214.904 88.4075 214.914 88.2375C214.914 88.0975 214.884 87.9375 214.864 87.7975H214.874Z" fill="white"/>
</g>
<path d="M209.294 76.8375C206.694 70.5275 203.974 68.7075 203.974 68.7075C203.974 68.7075 212.034 106.938 179.314 124.598C179.644 126.698 180.124 129.328 180.434 131.438C202.554 118.668 210.934 99.1875 209.304 76.8375H209.294Z" fill="#A4A6D9" stroke="black" stroke-width="1.54" stroke-linecap="round" stroke-linejoin="round"/>
<path d="M185.854 191.587C185.804 191.987 185.504 194.317 185.474 194.417C183.764 197.107 181.434 199.387 179.174 201.617C179.174 201.617 179.174 201.617 179.164 201.627C179.164 201.627 179.164 201.627 179.144 201.637C173.834 202.087 168.564 202.457 163.234 202.407C163.244 201.387 163.304 198.747 163.284 195.777C163.214 180.577 162.294 165.347 160.334 150.287C160.234 149.537 160.134 148.797 160.024 148.057C157.954 134.027 154.264 120.357 149.184 107.197C146.354 99.8775 143.044 92.6075 139.194 85.7975C136.694 81.3675 133.874 77.0075 130.854 72.8875C122.274 61.1675 111.424 50.8875 99.2343 42.9975C95.2743 40.4275 89.2743 39.0875 84.8843 41.5975C90.4943 27.7875 106.514 28.1175 117.884 34.3275C132.194 42.1375 144.424 52.9375 153.424 66.6275C153.424 66.5975 153.424 66.5775 153.424 66.5775C153.504 66.7175 153.554 66.7975 153.634 66.9375C153.644 66.9575 153.654 66.9775 153.664 66.9875C153.694 67.0375 153.724 67.0775 153.754 67.1275C155.264 69.4875 156.704 71.8875 158.104 74.2975C158.124 74.3275 158.134 74.3475 158.154 74.3775C159.054 75.9175 159.744 77.1775 160.214 78.0775C160.254 78.1475 160.274 78.1875 160.324 78.2575C160.384 78.3875 160.414 78.4475 160.474 78.5675C160.474 78.5675 160.474 78.5875 160.484 78.5975C160.694 79.0275 160.854 79.3375 160.934 79.5075C160.984 79.6075 161.014 79.6675 161.014 79.6675C161.014 79.6675 161.324 80.2875 161.854 81.3675C161.894 81.4575 161.944 81.5375 161.984 81.6275C162.014 81.6775 162.034 81.7375 162.064 81.7975C163.314 84.3275 164.544 86.8775 165.744 89.4375C168.714 95.7675 171.374 102.317 173.714 108.917C174.954 112.427 176.084 116.017 177.324 119.497C177.474 119.917 177.644 120.357 177.794 120.797C179.134 124.647 180.174 128.617 181.094 132.627C182.594 139.097 183.764 145.667 184.724 152.197C185.404 156.797 185.814 161.497 186.084 166.167C186.574 174.577 186.904 183.207 185.834 191.587H185.854Z" fill="#A4A6D9" stroke="black" stroke-width="1.54" stroke-linecap="round" stroke-linejoin="round"/>
<g style="mix-blend-mode:multiply" opacity="0.6">
<path d="M186.104 166.168C185.974 163.848 185.794 161.528 185.574 159.208C185.574 159.298 185.564 159.398 185.554 159.488C185.334 161.698 185.054 163.958 184.094 165.988C182.984 168.318 180.434 169.668 177.944 168.548C177.594 168.388 177.274 168.198 176.984 167.968C176.844 168.748 176.674 169.518 176.504 170.258C175.714 173.698 172.864 178.948 168.484 178.118C164.144 177.298 163.094 171.388 162.774 167.828C162.684 166.818 162.164 165.878 161.904 164.898C162.734 175.178 163.214 185.488 163.274 195.798C163.294 198.768 163.234 201.408 163.224 202.428C168.554 202.468 173.824 202.108 179.134 201.658C179.134 201.658 179.134 201.658 179.154 201.648C179.154 201.648 179.154 201.648 179.164 201.638C181.424 199.408 183.744 197.128 185.464 194.438C185.494 194.328 185.794 192.008 185.844 191.608C186.914 183.228 186.584 174.598 186.094 166.188L186.104 166.168Z" fill="#A4A6D9"/>
</g>
<g style="mix-blend-mode:color-dodge" opacity="0.3">
<path d="M186.104 166.168C185.824 161.508 185.344 156.808 184.744 152.198C183.884 145.648 182.674 139.048 181.114 132.628C180.044 128.228 178.774 123.788 177.344 119.508C176.174 116.008 174.974 112.448 173.734 108.928C171.614 103.138 169.254 97.4275 166.834 91.8075C166.804 91.7275 166.764 91.6575 166.734 91.5775C166.414 90.8675 166.094 90.1575 165.764 89.4575C164.574 86.8975 163.344 84.3575 162.084 81.8175C162.054 81.7675 162.034 81.7075 162.004 81.6475C161.964 81.5675 161.924 81.4775 161.874 81.3875C161.604 80.8475 161.324 80.3075 161.044 79.7575C161.004 79.6775 160.954 79.5875 160.914 79.5075C160.524 78.7775 160.134 78.0275 159.754 77.2875C159.704 77.1975 159.664 77.1175 159.614 77.0275C159.144 76.1475 158.664 75.2675 158.174 74.3975C158.164 74.3675 158.144 74.3475 158.124 74.3175C156.714 71.9275 155.284 69.5075 153.774 67.1475C153.744 67.0975 153.714 67.0575 153.684 67.0075C153.684 66.9875 153.664 66.9675 153.654 66.9575C153.584 66.8575 153.514 66.7475 153.444 66.6475C144.394 53.1175 132.324 41.8775 117.904 34.3475C116.574 33.6575 115.184 32.9975 113.774 32.3575C112.544 32.4275 111.314 32.4975 110.084 32.5675C127.594 41.2075 142.574 54.0875 152.934 70.3275C156.064 75.2275 158.754 80.4875 161.084 85.8675C163.154 90.6375 164.784 95.6675 166.154 100.658C169.794 113.968 172.154 130.178 173.634 144.028C174.224 148.318 176.934 173.498 177.314 182.528C177.564 188.528 177.494 194.018 177.564 201.718C177.724 201.718 178.984 201.658 179.144 201.648C179.144 201.648 179.144 201.648 179.164 201.638C179.164 201.638 179.164 201.638 179.174 201.628C181.654 198.968 184.694 195.838 185.724 192.358C185.754 192.258 185.794 191.998 185.844 191.598C186.914 183.218 186.594 174.578 186.094 166.178L186.104 166.168Z" fill="#A4A6D9"/>
</g>
<g style="mix-blend-mode:color-dodge" opacity="0.3">
<path d="M166.864 91.6074C166.864 91.6074 166.844 91.5774 166.834 91.5574C165.284 89.3974 163.494 87.1874 161.254 85.6874C159.024 84.1974 156.194 84.5775 154.714 86.9575C151.294 92.4475 150.234 100.337 149.724 106.837C149.634 107.957 149.594 108.757 149.584 109.057C149.584 109.147 149.584 109.197 149.584 109.197C147.634 104.587 145.744 99.9474 143.894 95.2974C143.764 94.9574 143.694 94.7875 143.564 94.4575C143.344 94.0675 143.244 93.8674 143.024 93.4774C141.454 90.6074 139.904 87.7274 138.364 84.8374C138.224 84.5774 138.154 84.4374 138.014 84.1774C138.014 84.1774 138.804 85.0574 140.044 85.6674C144.184 87.6974 147.344 83.6874 149.094 80.5874C150.834 77.4874 152.414 73.9174 153.364 70.3274C153.794 68.6974 153.864 67.6374 153.874 67.0874C153.874 66.8874 153.874 66.7474 153.864 66.6874C153.864 66.6574 153.864 66.6375 153.864 66.6375C153.944 66.7775 153.984 66.8474 154.064 66.9974C154.074 67.0174 154.084 67.0274 154.094 67.0474L154.174 67.1874C154.784 68.2474 155.084 68.7775 155.704 69.8475C157.124 72.3075 158.544 74.7674 159.974 77.2174C160.164 77.5374 160.254 77.6974 160.444 78.0174C160.484 78.0874 160.504 78.1274 160.544 78.1974C160.604 78.3174 160.634 78.3874 160.684 78.5074C160.684 78.5074 160.684 78.5274 160.694 78.5374C160.854 78.8874 160.944 79.0674 161.104 79.4274C161.144 79.5274 161.174 79.5674 161.214 79.6674C163.034 83.5675 164.874 87.4674 166.734 91.3574C166.784 91.4674 166.814 91.5275 166.864 91.6375V91.6074Z" fill="#A4A6D9"/>
</g>
<path d="M177.414 202.007C177.564 178.837 176.464 162.667 173.224 144.827C167.324 112.327 156.764 80.0275 134.454 55.2775C128.764 48.9575 122.284 43.0675 115.104 38.4975C109.194 34.7375 99.8743 29.9975 92.5543 32.7775" stroke="black" stroke-width="1.54" stroke-linecap="round" stroke-linejoin="round"/>
<g style="mix-blend-mode:overlay" opacity="0.8">
<path d="M165.354 93.4975C164.924 92.5675 164.224 91.8175 163.434 91.3575C163.334 91.2975 163.234 91.2575 163.134 91.2275C162.964 91.1675 162.794 91.1275 162.624 91.1475C161.764 91.1975 161.234 92.0575 161.224 93.0175C161.204 94.1475 161.544 95.5775 162.074 96.5375C162.754 97.7675 164.134 98.1675 165.174 97.3875C166.354 96.5075 165.914 94.6975 165.354 93.4975Z" fill="white"/>
</g>
<g style="mix-blend-mode:overlay" opacity="0.8">
<path d="M168.724 99.4275C168.544 98.9175 168.184 98.4975 167.754 98.3075C167.374 98.0275 166.904 97.9275 166.484 98.1175C165.734 98.4675 165.294 99.4275 165.574 100.368C165.724 100.888 165.884 101.408 166.034 101.928C166.244 102.638 166.904 103.218 167.554 103.138C168.194 103.058 168.804 102.528 168.914 101.738C169.024 100.968 168.974 100.158 168.724 99.4175V99.4275Z" fill="white"/>
</g>
<g style="mix-blend-mode:overlay" opacity="0.4">
<path d="M135.374 152.598C133.444 149.798 131.334 146.708 128.044 145.398C125.254 144.288 121.744 144.748 119.884 147.278C119.424 147.908 119.094 148.598 118.884 149.338C117.654 151.628 117.654 154.508 118.204 157.038C118.904 160.258 120.394 163.508 122.974 165.638C125.594 167.798 129.294 168.848 132.654 168.978C134.214 169.038 135.854 168.728 137.064 167.678C138.364 166.538 138.854 164.768 139.014 163.108C139.394 159.268 137.474 155.658 135.374 152.598Z" fill="white"/>
</g>
<g style="mix-blend-mode:overlay" opacity="0.4">
<path d="M149.154 162.798C146.754 161.558 144.304 163.028 143.754 165.398C143.404 166.068 143.254 166.888 143.224 167.588C143.164 169.078 143.664 170.708 144.504 171.938C146.474 174.788 150.094 173.188 151.234 170.458C152.284 167.948 151.784 164.158 149.154 162.798V162.798Z" fill="white"/>
</g>
<g style="mix-blend-mode:overlay" opacity="0.4">
<path d="M201.394 123.898C199.644 123.968 198.404 125.308 197.764 126.928C197.654 127.168 197.554 127.398 197.454 127.618C196.894 128.938 196.704 130.378 197.484 131.648C198.214 132.838 199.704 133.358 201.044 133.078C202.514 132.768 203.574 131.558 204.084 130.198C204.974 127.848 204.774 123.758 201.384 123.898H201.394Z" fill="white"/>
</g>
<path d="M242.934 15.2475C247.904 12.6475 251.614 7.5075 252.994 1.2475C253.064 0.9175 253.454 0.9175 253.534 1.2475C254.914 7.5075 258.624 12.6475 263.594 15.2475C264.224 15.5775 265.424 16.0175 266.264 16.3075C266.534 16.3975 266.534 16.8575 266.264 16.9475C265.414 17.2375 264.224 17.6775 263.594 18.0075C258.624 20.6075 254.914 25.7475 253.534 32.0075C253.464 32.3375 253.074 32.3375 252.994 32.0075C251.614 25.7475 247.904 20.6075 242.934 18.0075C242.304 17.6775 241.104 17.2375 240.264 16.9475C239.994 16.8575 239.994 16.3975 240.264 16.3075C241.114 16.0175 242.304 15.5775 242.934 15.2475V15.2475Z" fill="white" stroke="black" stroke-width="1.54" stroke-linecap="round" stroke-linejoin="round"/>
<path d="M232.984 42.2375C235.084 41.1375 236.674 39.0075 237.334 36.3975C237.394 36.1675 237.664 36.1675 237.724 36.3975C238.384 39.0075 239.974 41.1375 242.074 42.2375C242.284 42.3475 242.654 42.4875 242.974 42.6075C243.174 42.6775 243.174 43.0075 242.974 43.0875C242.644 43.2075 242.284 43.3475 242.074 43.4575C239.974 44.5575 238.384 46.6875 237.724 49.2975C237.664 49.5275 237.394 49.5275 237.334 49.2975C236.674 46.6875 235.084 44.5575 232.984 43.4575C232.774 43.3475 232.404 43.2075 232.084 43.0875C231.884 43.0175 231.884 42.6875 232.084 42.6075C232.414 42.4875 232.774 42.3475 232.984 42.2375Z" fill="white" stroke="black" stroke-width="1.54" stroke-linecap="round" stroke-linejoin="round"/>
<path d="M153.934 320.688C155.444 319.118 160.624 315.028 167.444 320.218C174.674 316.788 184.954 323.938 184.954 333.328C184.954 345.408 175.584 345.418 175.584 345.418C175.584 345.418 169.674 352.168 163.784 346.318C161.004 350.928 152.304 349.858 149.834 343.608C156.124 335.458 149.284 328.228 144.694 328.548C143.664 319.848 153.234 319.718 153.944 320.688H153.934Z" fill="#F7764D" stroke="black" stroke-width="1.54" stroke-linecap="round" stroke-linejoin="round"/>
<g style="mix-blend-mode:multiply" opacity="0.6">
<path d="M183.914 330.328C183.914 330.328 184.554 334.788 181.304 335.808C178.044 336.828 175.004 332.088 175.004 332.088C175.004 332.088 175.174 336.568 170.974 337.128C166.774 337.698 158.474 324.558 158.474 324.558C158.474 324.558 160.334 330.688 156.404 330.848C152.474 331.008 146.644 322.238 146.644 322.238C146.644 322.238 145.414 325.158 145.004 326.468C144.594 327.778 145.004 328.098 145.004 328.098C145.004 328.098 151.914 331.328 152.064 334.828C152.224 338.328 149.794 343.598 149.794 343.598C149.794 343.598 151.034 348.068 155.494 349.158C159.954 350.238 163.454 346.758 163.454 346.758C163.454 346.758 166.244 349.408 169.764 349.158C173.274 348.918 175.654 344.888 175.654 344.888C175.654 344.888 179.524 345.658 182.914 341.248C186.304 336.838 183.904 330.328 183.904 330.328H183.914Z" fill="#DE8F76"/>
</g>
<path d="M153.934 320.688C153.934 320.688 167.544 328.418 163.774 346.318" stroke="black" stroke-width="1.54" stroke-linecap="round" stroke-linejoin="round"/>
<path d="M167.434 320.218C167.434 320.218 179.174 327.648 175.574 345.418" stroke="black" stroke-width="1.54" stroke-linecap="round" stroke-linejoin="round"/>
<g style="mix-blend-mode:color-dodge" opacity="0.4">
<path d="M74.7143 375.908C73.5643 376.418 60.8643 388.797 52.9143 388.027C44.9643 387.257 47.4343 365.708 47.4343 365.708C47.4343 365.708 44.0343 392.067 51.3443 393.557C58.6543 395.047 74.7143 375.908 74.7143 375.908V375.908Z" fill="#B17FC7"/>
</g>
<g style="mix-blend-mode:multiply" opacity="0.5">
<path d="M17.9243 259.068C17.9243 259.068 13.3143 274.988 21.4143 280.728C29.5143 286.468 33.5343 281.557 33.5343 281.557C33.5343 281.557 25.1243 294.638 18.0643 292.238C11.0143 289.838 15.2343 270.858 15.3443 267.438C15.4643 264.017 17.9143 259.068 17.9143 259.068H17.9243Z" fill="#9B64AF"/>
</g>
<g style="mix-blend-mode:multiply" opacity="0.5">
<path d="M19.0643 209.137C-0.865713 260.197 11.7843 264.337 11.7843 264.337C11.7843 264.337 0.884286 268.347 1.02429 255.737C1.16429 242.987 19.0643 209.137 19.0643 209.137V209.137Z" fill="#9B64AF"/>
</g>
<g style="mix-blend-mode:multiply" opacity="0.5">
<path d="M32.2743 294.508C32.2743 294.508 32.2343 302.738 41.9043 302.168C51.5743 301.598 60.6043 286.858 60.6043 286.858C60.6043 286.858 51.7943 309.668 42.7743 310.718C36.2143 311.478 34.3243 305.828 33.5443 303.428C32.0043 298.718 32.2743 294.508 32.2743 294.508Z" fill="#9B64AF"/>
</g>
<g style="mix-blend-mode:multiply" opacity="0.3">
<path d="M52.6543 252.707C53.7643 252.117 54.2643 250.807 53.7243 249.647C53.5043 249.177 53.1843 248.777 52.8743 248.357C52.8543 248.317 52.8343 248.277 52.8143 248.227C52.3243 247.137 50.8243 246.577 49.7543 247.157C48.6343 247.757 48.1543 249.047 48.6843 250.217C48.8943 250.687 49.2243 251.097 49.5343 251.517C49.5543 251.557 49.5743 251.597 49.5943 251.637C50.1043 252.727 51.5743 253.287 52.6543 252.707V252.707Z" fill="#9B64AF"/>
</g>
<g style="mix-blend-mode:multiply" opacity="0.3">
<path d="M39.0843 253.037C40.2343 253.647 41.5043 253.607 41.9643 252.867C42.1543 252.567 42.2243 252.217 42.3143 251.867C42.3343 251.837 42.3443 251.807 42.3643 251.777C42.8143 251.087 42.2143 249.857 41.0943 249.277C39.9243 248.667 38.6943 248.717 38.2143 249.447C38.0243 249.747 37.9543 250.107 37.8643 250.447C37.8543 250.477 37.8343 250.497 37.8243 250.527C37.3943 251.217 37.9743 252.437 39.0943 253.027L39.0843 253.037Z" fill="#9B64AF"/>
</g>
<g style="mix-blend-mode:multiply" opacity="0.3">
<path d="M49.0943 240.938C49.6043 241.208 50.1643 241.188 50.3643 240.858C50.4443 240.728 50.4743 240.568 50.5143 240.418C50.5143 240.408 50.5243 240.387 50.5343 240.377C50.7343 240.077 50.4643 239.527 49.9743 239.267C49.4643 238.997 48.9143 239.017 48.7043 239.347C48.6143 239.477 48.5843 239.638 48.5443 239.788C48.5443 239.798 48.5343 239.808 48.5243 239.828C48.3343 240.138 48.5843 240.668 49.0843 240.938H49.0943Z" fill="#9B64AF"/>
</g>
<g style="mix-blend-mode:multiply" opacity="0.3">
<path d="M43.7743 237.207C44.1143 238.087 44.8243 238.667 45.4243 238.487C45.6643 238.407 45.8743 238.247 46.0843 238.107C46.1043 238.107 46.1243 238.087 46.1543 238.087C46.7243 237.927 46.9843 236.967 46.6443 236.107C46.2943 235.217 45.5943 234.657 44.9943 234.827C44.7443 234.897 44.5443 235.057 44.3243 235.207C44.3043 235.207 44.2843 235.227 44.2643 235.227C43.6943 235.397 43.4343 236.337 43.7743 237.207V237.207Z" fill="#9B64AF"/>
</g>
<g style="mix-blend-mode:multiply" opacity="0.3">
<path d="M193.644 192.837C194.344 193.207 195.104 193.177 195.384 192.737C195.494 192.557 195.534 192.347 195.594 192.137C195.594 192.117 195.614 192.107 195.624 192.087C195.894 191.677 195.534 190.927 194.854 190.577C194.154 190.207 193.404 190.237 193.114 190.677C192.994 190.857 192.954 191.077 192.904 191.277C192.904 191.297 192.884 191.307 192.874 191.327C192.614 191.747 192.964 192.477 193.644 192.837Z" fill="#9B64AF"/>
</g>
<g style="mix-blend-mode:color-dodge" opacity="0.4">
<path d="M54.4043 380.108C54.7743 380.888 55.3343 381.288 55.6943 380.948C55.8443 380.808 55.9543 380.598 56.0643 380.408C56.0743 380.398 56.0943 380.378 56.1043 380.368C56.4543 380.068 56.4643 379.058 56.1043 378.298C55.7343 377.508 55.1743 377.128 54.8143 377.458C54.6643 377.588 54.5543 377.798 54.4443 377.998C54.4343 378.008 54.4243 378.028 54.4043 378.038C54.0643 378.348 54.0443 379.348 54.4043 380.108Z" fill="#B17FC7"/>
<path d="M49.7543 374.158C49.6543 375.728 50.0643 377.128 50.7543 377.308C51.0343 377.378 51.3143 377.298 51.6043 377.238C51.6343 377.238 51.6543 377.238 51.6843 377.258C52.3343 377.448 53.0643 376.208 53.1643 374.678C53.2643 373.088 52.8543 371.728 52.1643 371.528C51.8843 371.448 51.5943 371.528 51.3143 371.588C51.2943 371.588 51.2643 371.588 51.2443 371.578C50.5943 371.408 49.8643 372.618 49.7643 374.158H49.7543Z" fill="#B17FC7"/>
</g>
<g style="mix-blend-mode:color-dodge" opacity="0.3">
<path d="M199.134 216.327C201.364 219.797 202.304 222.727 199.934 224.257C197.564 225.787 195.014 223.837 192.784 220.367C190.554 216.897 188.444 214.317 190.804 212.797C193.174 211.277 196.894 212.857 199.134 216.327V216.327Z" fill="#F5BCEA"/>
</g>
<g style="mix-blend-mode:color-dodge" opacity="0.3">
<path d="M191.724 223.937C192.784 224.567 193.184 225.937 192.314 227.407C191.444 228.877 189.814 228.977 188.754 228.347C187.694 227.717 187.594 226.597 188.464 225.127C189.334 223.657 190.664 223.307 191.724 223.937Z" fill="#F5BCEA"/>
</g>
<g style="mix-blend-mode:multiply" opacity="0.3">
<path d="M104.054 293.587C104.564 295.267 103.774 296.967 102.264 297.627C100.814 298.257 98.4143 296.477 97.5243 293.627C97.0043 291.947 97.7343 289.927 99.3143 289.587C102.374 288.927 103.844 292.907 104.054 293.587Z" fill="#E8CEE3"/>
</g>
<g style="mix-blend-mode:multiply" opacity="0.3">
<path d="M107.944 285.937C106.824 285.187 105.524 285.087 104.964 285.797C104.734 286.087 104.624 286.437 104.494 286.787C104.474 286.817 104.454 286.847 104.434 286.867C103.904 287.527 104.384 288.857 105.464 289.587C106.594 290.347 107.874 290.427 108.444 289.727C108.674 289.447 108.784 289.077 108.914 288.737C108.934 288.707 108.944 288.687 108.964 288.657C109.484 287.987 109.024 286.677 107.934 285.937H107.944Z" fill="#E8CEE3"/>
</g>
<g style="mix-blend-mode:multiply" opacity="0.3">
<path d="M144.454 263.888C143.334 263.138 142.034 263.038 141.474 263.748C141.244 264.038 141.134 264.388 141.004 264.738C140.984 264.768 140.964 264.798 140.944 264.818C140.414 265.478 140.894 266.808 141.974 267.538C143.104 268.298 144.384 268.378 144.954 267.678C145.184 267.398 145.294 267.028 145.424 266.688C145.444 266.658 145.454 266.638 145.474 266.608C145.994 265.938 145.534 264.628 144.444 263.888H144.454Z" fill="#E8CEE3"/>
</g>
<g style="mix-blend-mode:multiply" opacity="0.3">
<path d="M104.664 300.598C104.084 300.908 103.744 301.438 103.914 301.838C103.984 301.998 104.114 302.128 104.224 302.268C104.224 302.278 104.244 302.298 104.244 302.308C104.404 302.688 105.084 302.788 105.644 302.488C106.224 302.178 106.554 301.648 106.394 301.248C106.324 301.088 106.194 300.958 106.074 300.818C106.074 300.808 106.064 300.788 106.054 300.778C105.894 300.398 105.224 300.298 104.654 300.598H104.664Z" fill="#E8CEE3"/>
</g>
<g style="mix-blend-mode:multiply" opacity="0.3">
<path d="M102.644 218.637C102.444 219.627 102.874 220.307 103.714 220.137C104.054 220.067 104.404 219.907 104.754 219.757C104.784 219.757 104.814 219.737 104.844 219.737C105.624 219.587 106.574 218.557 106.774 217.597C106.974 216.597 106.534 215.947 105.704 216.097C105.364 216.157 105.014 216.327 104.664 216.477C104.634 216.477 104.604 216.497 104.574 216.497C103.794 216.657 102.844 217.677 102.644 218.637Z" fill="#9B64AF"/>
<path d="M98.3143 217.578C97.3943 218.178 96.6843 218.968 96.6143 219.408C96.5843 219.588 96.7443 219.948 96.7843 220.068C96.7843 220.088 96.7843 220.098 96.7843 220.118C96.7043 220.538 97.4643 220.418 98.3543 219.838C99.2843 219.238 100.004 218.438 100.134 218.008C100.364 217.248 99.2243 216.998 98.3243 217.578H98.3143Z" fill="#9B64AF"/>
<path d="M100.214 209.827C98.6643 211.427 97.9843 213.137 98.8043 213.737C99.1343 213.977 99.6143 214.057 100.064 214.167C100.094 214.187 100.134 214.207 100.164 214.227C100.914 214.807 103.054 213.937 104.564 212.387C106.134 210.777 106.774 209.097 105.974 208.477C105.654 208.227 105.164 208.147 104.714 208.037C104.684 208.017 104.654 207.997 104.624 207.977C103.864 207.417 101.744 208.257 100.224 209.817L100.214 209.827Z" fill="#9B64AF"/>
</g>
<g style="mix-blend-mode:color-dodge" opacity="0.3">
<path d="M156.044 319.528C156.044 319.528 160.194 318.318 165.714 322.238C171.364 326.258 175.734 335.008 175.734 335.008C175.734 335.008 172.484 322.478 166.574 319.598C160.664 316.728 156.034 319.518 156.034 319.518L156.044 319.528Z" fill="#F5BCEA"/>
</g>
<g style="mix-blend-mode:color-dodge" opacity="0.3">
<path d="M170.384 322.238C170.384 322.238 173.894 321.628 177.754 324.238C181.614 326.848 183.664 329.678 183.664 329.678C183.664 329.678 182.444 323.998 177.404 321.178C172.354 318.368 168.494 320.208 168.494 320.208L170.394 322.228L170.384 322.238Z" fill="#F5BCEA"/>
</g>
<path d="M110.304 319.928C111.164 318.958 119.404 313.877 126.594 327.387C133.064 339.537 123.874 347.507 120.154 344.847C120.154 348.107 113.154 355.657 104.804 345.577C102.294 351.187 92.8843 350.997 89.0243 341.717C84.8843 331.747 86.7743 317.857 96.7043 319.807C104.174 312.827 110.294 319.917 110.294 319.917L110.304 319.928Z" fill="#F7764D" stroke="black" stroke-width="1.54" stroke-linecap="round" stroke-linejoin="round"/>
<g style="mix-blend-mode:multiply" opacity="0.6">
<path d="M93.4943 320.307C93.4943 320.567 89.6642 320.248 88.1142 324.698C86.5742 329.158 86.9643 331.997 86.9643 331.997C86.9643 331.997 89.9942 348.458 96.3242 348.988C102.654 349.518 104.794 347.288 104.794 347.288L97.6642 324.208L96.1443 319.448L93.4842 320.307H93.4943Z" fill="#DE8F76"/>
</g>
<g style="mix-blend-mode:multiply" opacity="0.6">
<path d="M98.5542 318.877C98.3842 319.037 101.934 331.897 106.414 337.327C120.144 353.977 118.124 334.567 118.124 334.567C118.124 334.567 121.694 343.327 120.384 346.127C119.074 348.927 114.274 353.067 108.704 349.167C103.134 345.267 101.814 338.057 101.654 337.617C101.494 337.177 97.2042 319.387 97.2042 319.387" fill="#DE8F76"/>
</g>
<path d="M96.7142 319.818C96.7142 319.818 99.0242 332.527 104.804 345.587" stroke="black" stroke-width="1.54" stroke-linecap="round" stroke-linejoin="round"/>
<path d="M110.304 319.927C110.304 319.927 117.704 327.587 120.134 345.117" stroke="black" stroke-width="1.54" stroke-linecap="round" stroke-linejoin="round"/>
<g style="mix-blend-mode:multiply" opacity="0.6">
<path d="M113.374 319.448C113.374 319.448 119.094 330.348 121.774 332.818C128.844 339.328 128.514 332.527 128.514 332.527C128.514 332.527 130.464 339.098 126.114 343.108C121.774 347.118 120.134 344.467 120.134 344.467C120.134 344.467 117.304 331.098 114.614 326.548C111.924 321.998 110.304 319.458 110.304 319.458H113.374V319.448Z" fill="#DE8F76"/>
</g>
<g style="mix-blend-mode:color-dodge" opacity="0.3">
<path d="M111.764 318.967C111.764 318.967 115.854 317.927 121.564 324.277C127.274 330.627 128.014 333.487 128.014 333.487C128.014 333.487 126.204 324.167 121.084 320.347C115.964 316.527 111.764 318.967 111.764 318.967Z" fill="#F5BCEA"/>
</g>
<g style="mix-blend-mode:color-dodge" opacity="0.3">
<path d="M101.464 317.337C101.464 317.337 103.974 319.448 108.664 324.708C113.344 329.958 118.314 338.078 118.314 338.078C118.314 338.078 113.714 322.768 108.934 319.458C104.154 316.148 101.474 317.347 101.474 317.347L101.464 317.337Z" fill="#F5BCEA"/>
</g>
</svg>
