<svg xmlns="http://www.w3.org/2000/svg" xmlns:xlink="http://www.w3.org/1999/xlink" width="1331" height="445" fill="none" xmlns:v="https://vecta.io/nano"><style><![CDATA[.B{stroke:#000}.C{stroke-linejoin:round}.D{stroke-width:1.54}.E{opacity:.3}.F{opacity:.4}.G{fill:#9b64af}.H{fill:#fff}.I{fill:#a4a6d9}.J{stroke-linecap:round}.K{fill:#f5bcea}.L{opacity:.6}.M{fill:#27242d}.N{opacity:.5}.O{fill:#de8f76}.P{fill:#e8cee3}.Q{fill:#ffc404}.R{fill:#f7764d}.S{fill:#b17fc7}.T{stroke-width:1.88}.U{fill:#bec6de}.V{fill:#99b5c2}.W{stroke-width:1.71}]]></style><rect x="96" y="95" width="1235" height="350" rx="40" class="H"/><mask id="A" maskUnits="userSpaceOnUse" x="96" y="141" width="1235" height="304" mask-type="alpha"><rect x="96" y="141" width="1235" height="304" rx="40" fill="#efa500"/></mask><g mask="url(#A)"><use xlink:href="#C" class="B C D G"/><g style="mix-blend-mode:multiply" class="N G"><use xlink:href="#D"/></g><g style="mix-blend-mode:color-dodge" class="F S"><use xlink:href="#E"/></g><use xlink:href="#F" class="G"/><use xlink:href="#F" class="B C D J"/><g style="mix-blend-mode:multiply" class="N G"><use xlink:href="#G"/></g><g style="mix-blend-mode:multiply" class="E G"><use xlink:href="#H"/><use xlink:href="#I"/><use xlink:href="#J"/></g><use xlink:href="#K" class="B C D G"/><g style="mix-blend-mode:multiply" class="E G"><use xlink:href="#L"/></g><use xlink:href="#M" class="B C D R"/><g style="mix-blend-mode:multiply" class="N G"><use xlink:href="#N"/></g><use xlink:href="#O" class="B C D G"/><use xlink:href="#P" fill="#e391ed" class="B C D"/><path d="M131.594 492.317l-13.15-.1-2.78-98.57c-.4-14.3 1.6-28.58 5.99-42.62l13.15.1.09.32c3.8 14.05 5.22 28.3 4.26 42.53l-7.55 98.33-.01.01z" class="B C Q T"/><g style="mix-blend-mode:multiply" class="Q"><path d="M134.894 351.457l-.09-.32-13.15-.1-2.35 8.49c6.06.05 10.9 3.15 10.82 6.91l-.05 2.42-12.66-.11c-1.39 8.27-1.98 16.58-1.75 24.91l.31 13.28c8.36 1.77 14.53 7.15 14.41 12.67l-2.09 72.69 3.31.03 7.55-98.33c.96-14.23-.46-28.49-4.26-42.53v-.01z"/></g><path d="M123.954 393.828l-1.71-1.89c-1.95-2.15-1.86-5.65.2-7.82l1.81-1.9c2.06-2.17 5.31-2.18 7.26-.03l1.71 1.89c1.95 2.15 1.86 5.65-.2 7.82l-1.81 1.9c-2.06 2.17-5.31 2.18-7.26.03h0z" fill="#f56a7e" stroke-miterlimit="10" class="B T"/><path d="M137.494 361.288l-18.3-.27c-.85-.01-1.59-.63-1.82-1.51l-4.84-18.8c-.34-1.33.6-2.64 1.87-2.62l28.46.43c1.28.02 2.18 1.36 1.81 2.67l-5.32 18.65c-.25.88-1.01 1.47-1.86 1.46v-.01z" class="B C Q T"/><g style="mix-blend-mode:multiply" class="Q"><path d="M142.864 338.518l-28.46-.43c-1.28-.02-2.22 1.29-1.87 2.62l2 7.78 7.48.11c6.39.1 11.5 5.75 11.41 12.64l4.07.06c.85.01 1.61-.58 1.86-1.46l5.32-18.65c.38-1.32-.53-2.65-1.81-2.67z"/></g><path d="M140.154 370.768l-23.68-.35c-2.22-.03-4-2.27-3.97-5s1.87-4.91 4.09-4.88l23.68.35c2.22.03 4 2.27 3.97 5s-1.87 4.91-4.09 4.88z" class="B C Q T"/><use xlink:href="#Q" class="B C Q W"/><g style="mix-blend-mode:color-dodge" class="E K"><use xlink:href="#R"/></g><use xlink:href="#S" class="B C D J"/><use xlink:href="#T" class="B C D J"/><use xlink:href="#U" class="B C D J"/><use xlink:href="#V" class="B C D H"/><use xlink:href="#W" fill="#1f1d24" class="B C D"/><g style="mix-blend-mode:multiply" class="F M"><use xlink:href="#X"/></g><g style="mix-blend-mode:multiply" class="F M"><use xlink:href="#Y"/></g><g style="mix-blend-mode:multiply" opacity=".2"><path d="M180.414 200.647l-1 1.06 1.45.39-.45-1.45z" fill="#0159a3"/></g><g style="mix-blend-mode:overlay" class="F H"><use xlink:href="#Z"/></g><g style="mix-blend-mode:color-dodge" class="E U"><use xlink:href="#a"/></g><use xlink:href="#b" class="B C D I"/><g style="mix-blend-mode:multiply" class="L V"><use xlink:href="#c"/></g><use xlink:href="#d" class="B C D M"/><use xlink:href="#e" class="B C D I"/><use xlink:href="#f" class="B C D M"/><use xlink:href="#g" class="B C D I"/><use xlink:href="#h" class="B C D I"/><g style="mix-blend-mode:multiply" class="L I"><use xlink:href="#i"/></g><g style="mix-blend-mode:color-dodge" class="E I"><use xlink:href="#j"/></g><use xlink:href="#k" class="B C D J"/><g style="mix-blend-mode:overlay" class="F H"><use xlink:href="#l"/></g><g style="mix-blend-mode:overlay" class="F H"><use xlink:href="#m"/></g><use xlink:href="#n" class="B C D R"/><g style="mix-blend-mode:multiply" class="L O"><use xlink:href="#o"/></g><path d="M153.934 320.688s13.61 7.73 9.84 25.63m3.66-26.1s11.74 7.43 8.14 25.2" class="B C D J"/><g style="mix-blend-mode:multiply" class="E G"><use xlink:href="#p"/></g><g style="mix-blend-mode:color-dodge" class="E K"><use xlink:href="#q"/></g><g style="mix-blend-mode:color-dodge" class="E K"><use xlink:href="#r"/></g><g style="mix-blend-mode:multiply" class="E P"><use xlink:href="#s"/></g><g style="mix-blend-mode:multiply" class="E P"><use xlink:href="#t"/></g><g style="mix-blend-mode:multiply" class="E P"><use xlink:href="#t" x="36.51" y="-22.049"/></g><g style="mix-blend-mode:multiply" class="E P"><use xlink:href="#u"/></g><g style="mix-blend-mode:multiply" class="E G"><use xlink:href="#v"/><use xlink:href="#w"/><use xlink:href="#x"/></g><g style="mix-blend-mode:color-dodge" class="E K"><use xlink:href="#y"/></g><g style="mix-blend-mode:color-dodge" class="E K"><use xlink:href="#z"/></g><use xlink:href="#AA" class="B C D R"/><g style="mix-blend-mode:multiply" class="L O"><use xlink:href="#AB"/></g><g style="mix-blend-mode:multiply" class="L O"><use xlink:href="#AC"/></g><path d="M96.714 319.818s2.31 12.709 8.09 25.769m5.5-25.66s7.4 7.66 9.83 25.19" class="B C D J"/><g style="mix-blend-mode:multiply" class="L O"><use xlink:href="#AD"/></g><g style="mix-blend-mode:color-dodge" class="E K"><use xlink:href="#AE"/></g><g style="mix-blend-mode:color-dodge" class="E K"><use xlink:href="#AF"/></g></g><use xlink:href="#C" class="B C D G"/><g style="mix-blend-mode:multiply" class="N G"><use xlink:href="#D"/></g><g style="mix-blend-mode:color-dodge" class="F S"><path d="M37.154 346.317c-.09.03-3.08 5.6-3.43 12.71-.34 7.11 8.11 5.85 10.8 4.97 2.68-.88-4.22 7.08-11.53 4.23-7.32-2.86 1.51-22.31 1.51-22.31l2.66.4h-.01z"/></g><g style="mix-blend-mode:color-dodge" class="F S"><use xlink:href="#E"/></g><use xlink:href="#F" class="G"/><use xlink:href="#F" class="B C D J"/><g style="mix-blend-mode:multiply" class="N G"><use xlink:href="#G"/></g><g style="mix-blend-mode:multiply" class="E G"><use xlink:href="#H"/><use xlink:href="#I"/><use xlink:href="#J"/></g><use xlink:href="#K" class="B C D G"/><g style="mix-blend-mode:multiply" class="E G"><use xlink:href="#L"/></g><use xlink:href="#M" class="B C D R"/><g style="mix-blend-mode:multiply" class="N G"><use xlink:href="#N"/></g><use xlink:href="#O" class="B C D G"/><g style="mix-blend-mode:multiply" class="E G"><path d="M34.874 219.377c10.97-34.15 26.75-34.67 29.79-35.66.14-.04.28-.08.42-.13l-21.49-5.68-1.93 1.7-.97.87c-3.85 4.18-11.67 13.29-20.91 27.44-13.96 23.41-23.9 51.07-15.97 56.65 7.52 5.29 14.39-6.29 14.39-6.29s-8.93 22.96-2.5 31.94c6.43 8.99 19.2-10.64 19.2-10.64s-8.55 27.05 4.85 31.21c7.17 2.23 20.26-15.09 31.16-47.14-17.66 14.58-51.35 3.33-36.05-44.3l.01.03z"/></g><g style="mix-blend-mode:multiply" class="N G"><path d="M34.884 186.767s-1.25 5.57 20.52 7.88c18.49 1.97 36.58-3.89 36.58-3.89l-47.94-15.99-9.16 12h0z"/></g><g class="B C"><use xlink:href="#P" fill="#e391ed" class="D"/><use xlink:href="#Q" class="Q W"/></g><g style="mix-blend-mode:color-dodge" class="E K"><use xlink:href="#R"/></g><g class="B C"><g class="D"><g class="J"><use xlink:href="#S"/><use xlink:href="#T"/><use xlink:href="#U"/></g><g class="H"><use xlink:href="#V"/><path d="M201.554 96.128c3.56 13.74 3.39 24.831-7.74 26.951-11.13 2.13-23.04-7.29-26.6-21.03s-2.79-25.311 8.33-27.43c11.13-2.13 22.44 7.77 26 21.51h.01z"/></g><path d="M208.314 77.368h-20.23v23.21h20.23v-23.21z" fill="#1b181f"/></g><path d="M194.33 110.684c6.352-2.647 8.703-11.508 5.251-19.792s-11.399-12.854-17.751-10.208-8.704 11.508-5.252 19.792 11.4 12.855 17.752 10.208zm-54.331 17.026c6.352-2.647 8.703-11.508 5.252-19.792s-11.4-12.855-17.752-10.208-8.703 11.508-5.252 19.793 11.4 12.854 17.752 10.207z" fill="#000" stroke-width=".61"/></g><path d="M127.587 106.506c.974-1.689-.837-4.559-4.046-6.412s-6.602-1.987-7.576-.298.836 4.559 4.046 6.412 6.601 1.986 7.576.298zm-2.463 6.711c.834 0 1.51-.586 1.51-1.31s-.676-1.31-1.51-1.31-1.51.587-1.51 1.31.676 1.31 1.51 1.31zm17.48 14.91c1.955 0 3.54-1.746 3.54-3.9s-1.585-3.9-3.54-3.9-3.54 1.746-3.54 3.9 1.585 3.9 3.54 3.9zm55.29-18.5c1.928 0 3.49-1.723 3.49-3.85s-1.562-3.85-3.49-3.85-3.49 1.724-3.49 3.85 1.563 3.85 3.49 3.85zm-16.89-19.6c1.076-1.639-.482-4.562-3.479-6.528s-6.298-2.231-7.373-.592.482 4.562 3.478 6.528 6.299 2.232 7.374.592zm-1.69 6.241c.762 0 1.38-.578 1.38-1.29s-.618-1.29-1.38-1.29-1.38.578-1.38 1.29.618 1.29 1.38 1.29z" class="H"/><g class="B C D"><path d="M164.384 65.818l8.63 1.81c10.2 2.48 20 6.21 29.63 10.35l3.5 1.53c-.45-6.7-2.94-11.24-2.94-11.24s-21.38-17.05-32.15-41.54c0 0-11.44 16.74-10.88 38.34 1.41.22 2.82.49 4.22.76l-.01-.01z" class="M"/><path d="M164.384 65.818l1.3.25c-.52-11.01 2.5-20.84 5.33-27.48 9.97 16.86 23.65 29.31 28.31 33.06.29 1.28.7 3.1 1.02 5.35l2.31.98 4.47 1.96c.13-4.91-1.69-8.17-3.5-11.2-8.53-14.22-21.79-17.54-32.57-42.02 0 0-11.44 16.74-10.88 38.34 1.41.22 2.82.49 4.22.76h-.01z" class="I"/><use xlink:href="#W" fill="#1f1d24"/></g><g style="mix-blend-mode:overlay" class="F H"><path d="M88.164 40.908s-5.09 1.21-6.49 13.26 13.08 37.75 37.12 30.71c-11.5 6.38-23.19 16.249-27.37 21.13.09-8.57-4.03-23.05-12.96-33.779s-23.51-12.32-27.51-9.5c10.11-10.36 27.98-19.06 37.21-21.81v-.01z"/></g><g style="mix-blend-mode:multiply" class="F M"><use xlink:href="#X"/></g><g style="mix-blend-mode:multiply" class="F M"><use xlink:href="#Y"/></g><g style="mix-blend-mode:multiply" class="F M"><path d="M94.354 40.978s13.25 7.13 22.13 22.93c8.87 15.81-5.35 24.86-5.35 24.86s16.78-10.77 26.62-11.3-13.73-21.89-13.73-21.89-19.84-14.18-29.68-14.6h.01z"/></g><g style="mix-blend-mode:multiply" opacity=".2"><path d="M180.414 200.647l-1 1.06 1.45.39-.45-1.45z" fill="#0159a3"/></g><g style="mix-blend-mode:overlay" class="F H"><use xlink:href="#Z"/></g><g style="mix-blend-mode:color-dodge" class="E U"><use xlink:href="#a"/></g><g style="mix-blend-mode:multiply" class="F M"><path d="M90.214 190.897c-1.06-3.32-1.67-6.86-1.92-10.33-.12-1.65-.09-3.31.13-4.94-26.26-12.28-40.12-42.86-20.57-60.82-16.06 2.68-28.16-22.68 1.5-65.13-1.43 1.22-9.94 5.74-11.4 6.94-22.95 18.79-27.78 38.51-30.61 52.14-4.29 29.42-.48 67.62 26.75 79.431 11.57 5.019 25.45 8.369 39.68 10.589-1.45-2.47-2.67-5.09-3.56-7.88z"/></g><g style="mix-blend-mode:overlay" class="F H"><path d="M175.424 56.948s-7.89-9.09-18.85-13.49-13.53 3.86-5.91 11.56c6.63 6.7 17.5 10.67 22.09 10.78 6.23.16 6.96-3.49 2.68-8.86l-.01.01z"/></g><g style="mix-blend-mode:screen" opacity=".176" class="H"><path d="M212.394 118.628c-.12-.58-.5-1.01-.89-.96-.16.02-.3.1-.44.17h-.04c-.36.04-.61.61-.49 1.18.13.59.5 1 .89.96.16-.02.3-.1.45-.17h.04c.36-.05.61-.61.49-1.18h-.01z"/></g><path d="M91.214 118.338c20.4-25.06 66.8-49.95 112.01-33.59 0 0 3.31 1.73 4.05-.33.25-.7.62-2.15-3.92-4.8-8.73-5.1-28.98-11.74-56.52-5.53-43.91 9.89-63.94 42.79-63.94 42.79s-2.56 3.969 0 5.449 4.76-.209 8.32-3.979v-.01z" class="B C D I"/><g style="mix-blend-mode:multiply" class="L V"><path d="M158.774 80.588c-2.08-2.46-4.08-4.99-5.77-7.71l-6.16 1.2a107.2 107.2 0 0 0-25.07 9.03c2-.45 4.07-.37 5.84.75 1.94 1.22 2.84 3.3 2.54 5.34 8.87-4.04 18.53-7.08 28.62-8.61h0z"/></g><use xlink:href="#b" class="B C D I"/><g style="mix-blend-mode:multiply" class="L V"><use xlink:href="#c"/></g><use xlink:href="#d" class="B C D M"/><g style="mix-blend-mode:multiply" class="F M"><path d="M49.924 72.637s-8.98-3.24-6.94 4.53c0 0-8.27 1.09-4.61 9.96 0 0-6.12 5.12.31 11.98 0 0-6.32 6.49 1.76 12.04 0 0-3.49 7.62 4.23 12.02 0 0-1.63 7.64 8.06 10.05 0 0 1.29 6.08 10.75 6.18 0 0-4.49 7.23 2.1 11.24 0 0-7.46 13.74 5.35 14.69 0 0 0 10.99 10.16 5.33 0 0 6 6.24 11.65-6.26 0 0-1.65 18.73.62 34.62 0 0-30.57-2.04-35.39-24.97-4.82-22.92.2-31.52.2-31.52s-20.94 7.35-27.84-30.58c-6.9-37.94.24-65.08.24-65.08l19.35 25.78v-.01z"/></g><g class="B C D"><path d="M27.424 59.418s13.95 26.18 43.78 29.54m-45.7-9.18s20.34 15.73 47.54 14.04m-46.87 1.51s20.77 10.02 48.74 2.16m-45.64 13.569s31.25 2.33 47.63-9.78m-42.96 23.411s34.45-2.42 46.06-19.73m-39.31 32.129s36.94-8.82 42.6-28.97m-24.46 59.131c-.98-1.8 8.29-29.43 25.07-28.16m-17.59 43.479s4.78-29.48 18.6-38.02m-6.33 50.49s-.12-31.27 10.52-43.54m-31.39-10.569s13.41-1.07 25.52-17.58" class="J"/><use xlink:href="#e" class="I"/><path d="M85.194 114.927l4.01 4.88" class="J"/></g><g style="mix-blend-mode:overlay" class="F H"><path d="M52.214 77.288c-.67-1.06-1.87-2.26-3.06-2.73-.69-.27-1.48-.16-2.01.3-.58.35-.95 1.15-.64 1.8.6 1.28 1.54 2.41 2.82 3.06.71.36 1.61.5 2.34.11.97-.51 1.1-1.67.55-2.54h0z"/></g><g style="mix-blend-mode:overlay" class="F H"><path d="M47.724 82.838c-1.2-.9-2.73-1.76-4.28-1.74-1.57.02-2.97 1.4-2.38 3.02.27 1.07 1.27 1.99 2.13 2.62 1.27.93 2.85 1.69 4.43 1.87 1.45.17 3.15-.74 2.98-2.42-.15-1.4-1.84-2.58-2.88-3.36v.01z"/></g><g style="mix-blend-mode:overlay" class="F H"><path d="M42.644 90.668c-1.59-.33-3.42.05-4.14 1.67a2.34 2.34 0 0 0 .06 2.1 2.7 2.7 0 0 0 .5.82c1.01 1.15 2.78 1.66 4.21 2.05 1.55.42 3.74.63 4.89-.75 2.54-3.04-3.37-5.43-5.52-5.88v-.01z"/></g><g style="mix-blend-mode:overlay" class="F H"><path d="M48.634 103.207h-.02c-1.56-.93-3.34-1.28-5.17-1.11-.91.08-1.91.42-2.67 1-1.37.64-2.3 1.75-1.58 3.56 1.16 2.93 5.72 2.53 8.13 1.87 1.16-.32 2.43-.98 2.93-2.15.57-1.35-.41-2.6-1.61-3.16l-.01-.01z"/></g><g style="mix-blend-mode:overlay" class="F H"><path d="M55.804 114.937c-.42-1.78-2.21-2.18-3.79-2.26-2.79-.15-8.7.11-8.77 4.08-.04 2.34 1.92 3.02 4.2 2.99l.54.04c1.92.12 3.9-.23 5.62-1.12 1.4-.72 2.59-2.06 2.19-3.75l.01.02z"/></g><g style="mix-blend-mode:overlay" class="F H"><path d="M59.554 125.107c-.03-.3-.12-.56-.24-.8-.33-1.19-1.62-1.94-2.99-1.98-1.91-.05-3.88.64-5.4 1.79-1.36 1.03-2.91 2.74-2.14 4.58.8 1.91 3.33 1.771 4.99 1.351 2.03-.51 3.72-1.751 5.18-3.211.09-.09.15-.17.21-.26a2.03 2.03 0 0 0 .4-1.46l-.01-.01z"/></g><g style="mix-blend-mode:overlay" class="F H"><path d="M67.264 131.407c-.16-.28-.38-.49-.63-.66-1.75-1.38-4.5.28-5.86 1.68-.82.85-1.25 2.13-.57 3.2.71 1.13 2.07 1.25 3.26.96 1.96-.48 5.19-2.84 3.8-5.19v.01z"/></g><g style="mix-blend-mode:overlay" class="F H"><path d="M68.484 141.087c-.47-.67-1.3-.8-2.04-.57-.95.29-1.57 1.1-1.81 2.03-.06.24-.04.48.04.71.03.14.08.27.15.41.23.42.62.76 1.11.84 1.13.18 1.97-.6 2.51-1.49.36-.6.47-1.32.05-1.93h-.01z"/></g><g style="mix-blend-mode:overlay" class="F H"><path d="M72.644 153.127c-.36-1.64-2.07-2.54-3.65-1.97-1.24.45-2.07 1.58-2.52 2.8-.49.87-.85 1.82-1 2.8-.24 1.6.21 3.76 2 4.25 1.67.46 2.95-1.32 3.66-2.57.86-1.51 1.89-3.53 1.5-5.32l.01.01z"/></g><g style="mix-blend-mode:overlay" class="F H"><path d="M79.484 159.808c-.84-.74-1.99-.74-2.9-.15-1.2.78-1.65 1.95-1.62 3.18-.41 1.6-.32 3.44 1.19 4.14 2.59 1.21 3.67-2.17 4.12-3.98.28-1.12.11-2.39-.79-3.19h0z"/></g><g style="mix-blend-mode:overlay" class="F H"><path d="M88.574 160.007c-1.57.18-2.46 1.66-2.7 3.16-.51 1.25-.5 2.78.63 3.57 1.72 1.2 3.65-1.01 4.19-2.5.61-1.69.34-4.51-2.11-4.23h-.01z"/></g><g style="mix-blend-mode:color-dodge" class="E I"><path d="M133.154 132.567s-26.68 2.7-44.2-18.64c-17.22-20.979-19.85-35.24-19.85-35.24l3.57 1.42s8.26 25.51 23.02 37.209 27.06 15.371 37.47 15.261l-.01-.011z"/></g><g class="B C D"><path d="M223.314 110.788l-1.18-6.22c.47 1.78.87 3.91 1.18 6.22z" class="U"/><use xlink:href="#f" class="M"/><path d="M213.174 116.007s10.32 6.51 10.5 13.98m-9.54-20.06s6.63.9 9.44 4.41m-9.85-12.63s4.28-.83 7.4.68m-10.65-7.999s2.32-2.89 6.85-3.12" class="J"/><use xlink:href="#g" class="I"/></g><g style="mix-blend-mode:overlay" class="F H"><path d="M220.574 114.377c-.78-.66-1.8-1.14-2.79-.61-.96.51-1.23 1.6-.9 2.58a4.05 4.05 0 0 0 1.6 2.07c.95 1.11 2.25 2.06 3.5.8 1.46-1.47-.2-3.81-1.41-4.84h0z"/></g><g style="mix-blend-mode:overlay" class="F H"><path d="M221.544 106.837c-.1-.45-.37-.9-.69-1.23-.62-.65-1.61-.84-2.35-.28-.65.49-.86 1.33-.55 2.08.19.46.56.93 1.01 1.16.07.04.14.07.22.1a1.63 1.63 0 0 0 1.21.2c.92-.18 1.35-1.19 1.16-2.03h-.01z"/></g><g style="mix-blend-mode:overlay" class="F H"><path d="M218.034 95.238c-.6-.47-1.43-.59-2.1-.2-.38.22-.66.59-.79 1-.07.23-.08.46-.05.69 0 .05 0 .1.01.14.1.85.95 1.62 1.76 1.83.66.17 1.3-.1 1.67-.66.6-.9.32-2.16-.5-2.81v.01z"/></g><g style="mix-blend-mode:overlay" class="F H"><path d="M214.874 87.798s0-.05-.01-.07c-.08-.28-.22-.53-.42-.74-.06-.06-.11-.09-.19-.16-.06-.05-.13-.12-.21-.15a1.09 1.09 0 0 0-.55-.18c-.2-.05-.39-.04-.59.02-.03 0-.06.02-.1.03a.99.99 0 0 0-.55.17.55.55 0 0 0-.18.13 1.27 1.27 0 0 0-.42.44c-.05.08-.07.14-.11.23-.09.21-.08.2-.12.42-.02.1-.03.18-.03.27.02.31.07.57.23.85a2.01 2.01 0 0 0 .31.41c.22.22.44.34.73.45.91.32 1.9-.28 2.17-1.17a2.17 2.17 0 0 0 .08-.51c0-.14-.03-.3-.05-.44h.01z"/></g><g class="B C D I"><path d="M209.294 76.838c-2.6-6.31-5.32-8.13-5.32-8.13s8.06 38.231-24.66 55.891l1.12 6.84c22.12-12.77 30.5-32.25 28.87-54.6h-.01z"/><use xlink:href="#h"/></g><g style="mix-blend-mode:multiply" class="L I"><use xlink:href="#i"/></g><g style="mix-blend-mode:color-dodge" class="E I"><use xlink:href="#j"/></g><g style="mix-blend-mode:color-dodge" class="E I"><path d="M166.864 91.607l-.03-.05c-1.55-2.16-3.34-4.37-5.58-5.87-2.23-1.49-5.06-1.11-6.54 1.27-3.42 5.49-4.48 13.38-4.99 19.88-.09 1.12-.13 1.92-.14 2.22v.14l-5.69-13.9-.33-.84-.54-.98-4.66-8.64-.35-.66s.79.88 2.03 1.49c4.14 2.03 7.3-1.98 9.05-5.08 1.74-3.1 3.32-6.67 4.27-10.26.43-1.63.5-2.69.51-3.24 0-.2 0-.34-.01-.4v-.05l.2.36c.01.02.02.03.03.05l.08.14 1.53 2.66 4.27 7.37.47.8.1.18c.06.12.09.19.14.31 0 0 0 .02.01.03l.41.89c.04.1.07.14.11.24l5.52 11.69.13.28v-.03z"/></g><use xlink:href="#k" class="B C D J"/><g style="mix-blend-mode:overlay" opacity=".8" class="H"><path d="M165.354 93.498c-.43-.93-1.13-1.68-1.92-2.14a1.3 1.3 0 0 0-.3-.13c-.17-.06-.34-.1-.51-.08-.86.05-1.39.91-1.4 1.87-.02 1.13.32 2.56.85 3.52.68 1.23 2.06 1.63 3.1.85 1.18-.88.74-2.69.18-3.89z"/></g><g style="mix-blend-mode:overlay" opacity=".8" class="H"><path d="M168.724 99.428c-.18-.51-.54-.93-.97-1.12-.38-.28-.85-.38-1.27-.19-.75.35-1.19 1.31-.91 2.25l.46 1.56c.21.71.87 1.29 1.52 1.21.64-.08 1.25-.61 1.36-1.4.11-.77.06-1.58-.19-2.32v.01z"/></g><g style="mix-blend-mode:overlay" class="F H"><use xlink:href="#l"/></g><g style="mix-blend-mode:overlay" class="F H"><use xlink:href="#m"/></g><g style="mix-blend-mode:overlay" class="F H"><path d="M201.394 123.898c-1.75.07-2.99 1.41-3.63 3.03l-.31.69c-.56 1.32-.75 2.76.03 4.03.73 1.19 2.22 1.71 3.56 1.43 1.47-.31 2.53-1.52 3.04-2.88.89-2.35.69-6.44-2.7-6.3h.01z"/></g><path d="M242.934 15.248c4.97-2.6 8.68-7.74 10.06-14 .07-.33.46-.33.54 0 1.38 6.26 5.09 11.4 10.06 14 .63.33 1.83.77 2.67 1.06.27.09.27.55 0 .64-.85.29-2.04.73-2.67 1.06-4.97 2.6-8.68 7.74-10.06 14-.07.33-.46.33-.54 0-1.38-6.26-5.09-11.4-10.06-14-.63-.33-1.83-.77-2.67-1.06-.27-.09-.27-.55 0-.64.85-.29 2.04-.73 2.67-1.06h0zm-9.95 26.99c2.1-1.1 3.69-3.23 4.35-5.84.06-.23.33-.23.39 0 .66 2.61 2.25 4.74 4.35 5.84.21.11.58.25.9.37.2.07.2.4 0 .48l-.9.37c-2.1 1.1-3.69 3.23-4.35 5.84-.06.23-.33.23-.39 0-.66-2.61-2.25-4.74-4.35-5.84-.21-.11-.58-.25-.9-.37-.2-.07-.2-.4 0-.48l.9-.37z" class="B C D H"/><use xlink:href="#n" class="B C D R"/><g style="mix-blend-mode:multiply" class="L O"><use xlink:href="#o"/></g><path d="M153.934 320.688s13.61 7.73 9.84 25.63m3.66-26.1s11.74 7.43 8.14 25.2" class="B C D J"/><g style="mix-blend-mode:color-dodge" class="F S"><path d="M74.714 375.908c-1.15.51-13.85 12.889-21.8 12.119s-5.48-22.319-5.48-22.319-3.4 26.359 3.91 27.849 23.37-17.649 23.37-17.649h0z"/></g><g style="mix-blend-mode:multiply" class="N G"><path d="M17.924 259.068s-4.61 15.92 3.49 21.66 12.12.829 12.12.829-8.41 13.081-15.47 10.681c-7.05-2.4-2.83-21.38-2.72-24.8.12-3.421 2.57-8.37 2.57-8.37h.01z"/></g><g style="mix-blend-mode:multiply" class="N G"><path d="M19.064 209.137c-19.93 51.06-7.28 55.2-7.28 55.2s-10.9 4.01-10.76-8.6c.14-12.75 18.04-46.6 18.04-46.6h0z"/></g><g style="mix-blend-mode:multiply" class="N G"><path d="M32.274 294.508s-.04 8.23 9.63 7.66 18.7-15.31 18.7-15.31-8.81 22.81-17.83 23.86c-6.56.76-8.45-4.89-9.23-7.29-1.54-4.71-1.27-8.92-1.27-8.92z"/></g><g style="mix-blend-mode:multiply" class="E G"><path d="M52.654 252.707c1.11-.59 1.61-1.9 1.07-3.06-.22-.47-.54-.87-.85-1.29l-.06-.13c-.49-1.09-1.99-1.65-3.06-1.07-1.12.6-1.6 1.89-1.07 3.06.21.47.54.88.85 1.3l.06.12c.51 1.09 1.98 1.65 3.06 1.07h0z"/></g><g style="mix-blend-mode:multiply" class="E G"><path d="M39.084 253.037c1.15.61 2.42.57 2.88-.17.19-.3.26-.65.35-1 .02-.03.03-.06.05-.09.45-.69-.15-1.92-1.27-2.5-1.17-.61-2.4-.56-2.88.17-.19.3-.26.66-.35 1-.01.03-.03.05-.04.08-.43.69.15 1.91 1.27 2.5l-.01.01z"/></g><g style="mix-blend-mode:multiply" class="E G"><path d="M49.094 240.938c.51.27 1.07.25 1.27-.08.08-.13.11-.29.15-.44 0-.01.01-.031.02-.041.2-.3-.07-.85-.56-1.11-.51-.27-1.06-.25-1.27.08-.09.13-.12.291-.16.441 0 .01-.01.02-.02.04-.19.31.06.84.56 1.11h.01z"/></g><g style="mix-blend-mode:multiply" class="E G"><path d="M43.774 237.207c.34.88 1.05 1.46 1.65 1.28.24-.08.45-.24.66-.38.02 0 .04-.02.07-.02.57-.16.83-1.12.49-1.98-.35-.89-1.05-1.45-1.65-1.28-.25.07-.45.23-.67.38-.02 0-.04.02-.06.02-.57.17-.83 1.11-.49 1.98h0z"/></g><g style="mix-blend-mode:multiply" class="E G"><use xlink:href="#p"/></g><g style="mix-blend-mode:color-dodge" class="F S"><path d="M54.404 380.108c.37.78.93 1.18 1.29.84.15-.14.26-.35.37-.54l.04-.04c.35-.3.36-1.31 0-2.07-.37-.79-.93-1.17-1.29-.84-.15.13-.26.34-.37.54-.01.01-.02.03-.04.04-.34.31-.36 1.31 0 2.07zm-4.65-5.95c-.1 1.57.31 2.97 1 3.15.28.07.56-.01.85-.07a.12.12 0 0 1 .08.02c.65.19 1.38-1.05 1.48-2.58.1-1.59-.31-2.95-1-3.15-.28-.08-.57 0-.85.06-.02 0-.05 0-.07-.01-.65-.17-1.38 1.04-1.48 2.58h-.01z"/></g><g style="mix-blend-mode:color-dodge" class="E K"><use xlink:href="#q"/></g><g style="mix-blend-mode:color-dodge" class="E K"><use xlink:href="#r"/></g><g style="mix-blend-mode:multiply" class="E P"><use xlink:href="#s"/></g><g style="mix-blend-mode:multiply" class="E P"><use xlink:href="#t"/></g><g style="mix-blend-mode:multiply" class="E P"><use xlink:href="#t" x="36.51" y="-22.049"/></g><g style="mix-blend-mode:multiply" class="E P"><use xlink:href="#u"/></g><g style="mix-blend-mode:multiply" class="E G"><use xlink:href="#v"/><use xlink:href="#w"/><use xlink:href="#x"/></g><g style="mix-blend-mode:color-dodge" class="E K"><use xlink:href="#y"/></g><g style="mix-blend-mode:color-dodge" class="E K"><use xlink:href="#z"/></g><use xlink:href="#AA" class="B C D R"/><g style="mix-blend-mode:multiply" class="L O"><use xlink:href="#AB"/></g><g style="mix-blend-mode:multiply" class="L O"><use xlink:href="#AC"/></g><path d="M96.714 319.818s2.31 12.709 8.09 25.769m5.5-25.66s7.4 7.66 9.83 25.19" class="B C D J"/><g style="mix-blend-mode:multiply" class="L O"><use xlink:href="#AD"/></g><g style="mix-blend-mode:color-dodge" class="E K"><use xlink:href="#AE"/></g><g style="mix-blend-mode:color-dodge" class="E K"><use xlink:href="#AF"/></g><defs ><path id="C" d="M73.504 299.388c5.01-16-49.35 44.28-42.31 66.04 3.04 9.41 16.01-2.31 16.01-2.31s-4.26 26.71 3.17 30.57 26.23-19.31 26.23-19.31-5.51 14.48 2.56 14.45c17.03-.06 47.45-67.07 47.45-67.07l-53.11-22.38v.01z"/><path id="D" d="M107.934 312.848s10.92 38.53-16.89 49.89c-8.04 3.28-8.41-8.37-8.41-8.37s-7.36 7.89-17.21 8.67-7.11-10.96-7.11-10.96-11.4 5.83-15.59 1.88c-5.76-5.43 10.24-37.5 10.24-37.5l54.97-3.62v.01z"/><path id="E" d="M110.334 350.607c-.2 1.33-17.18 25.99-25.74 29.64-8.57 3.66-8.43-5.33-8.43-5.33s-6.02 16.53 6.18 13.22c9.37-2.54 30.28-38.76 30.28-38.76l-2.29 1.23h0z"/><path id="F" d="M201.154 162.348s36.01 91.38 21.46 118.11c-13.71 25.2-33.88-41.49-33.88-41.49"/><path id="G" d="M213.154 231.257c-.79 1.39 2.57 25.56 5.55 30.85 4.8 8.53 7.37.88 7.37.88s.46 18.3-6.54 21.57-13.16-5.22-13.16-5.22l6.77-48.08h.01z"/><path id="H" d="M217.464 275.827c.51.68 1.31 1 1.86.67.22-.13.39-.33.57-.51.02-.01.04-.03.06-.04.52-.3.58-1.21.08-1.87-.51-.69-1.3-.99-1.86-.67-.23.13-.39.33-.57.52-.02.01-.04.03-.06.04-.51.31-.58 1.2-.08 1.87v-.01z"/><path id="I" d="M213.734 276.487c-.33.62-.42 1.34-.17 1.63.1.12.23.18.35.25 0 .01.02.02.03.03.22.29.74 0 1.05-.59.33-.63.41-1.33.17-1.63-.1-.12-.23-.18-.35-.25l-.03-.03c-.23-.28-.74-.01-1.05.59z"/><path id="J" d="M209.714 270.967c-.15 1.42.47 2.69 1.52 2.85.43.07.86-.01 1.29-.06.04 0 .08 0 .12.01.98.17 2.1-.95 2.25-2.33.16-1.44-.47-2.67-1.52-2.85-.43-.07-.86.001-1.3.061a.41.41 0 0 1-.11-.011c-.98-.15-2.1.94-2.25 2.33h0z"/><path id="K" d="M67.534 139.648s-11.38-80.44 71.7-80.44c76.94 0 68.29 73.581 66.54 107.681s50.28 150.659-83.08 166.3c-106.54 12.489-95.37-80.4-55.16-193.54h0z"/><path id="L" d="M196.944 188.527c.94-.5 1.37-1.62.91-2.61-.19-.4-.46-.74-.72-1.1-.02-.04-.04-.07-.05-.11-.42-.93-1.69-1.4-2.61-.91-.95.51-1.36 1.61-.91 2.61.18.4.46.75.73 1.1.02.03.04.07.05.1.43.93 1.68 1.41 2.61.91l-.01.01z"/><path id="M" d="M171.604 140.647c-9.97 8.23-20.96-7.21-20.96-7.21 0-6.12 3.94-13.1 9.93-20.22.83-.99 22.72 17.79 11.04 27.43h-.01z"/><path id="N" d="M97.224 197.407s-27.19 42.2-16.83 87.9c5.56 24.49 34.85 29.17 34.85 29.17l-19.35 12.12s-28.39-.71-29.22-1.66c-.82-.95-8.96-5.24-8.96-5.24s-14.7-11.389-14.46-17.299 32.88-108.591 32.88-108.591l21.1 3.6h-.01z"/><path id="O" d="M41.664 179.608c24.76-21.83 33.07-25.66 33.07-25.66 25.5 48.15-15.97 162.769-34.97 156.859-13.4-4.17-4.85-31.209-4.85-31.209s-12.77 19.62-19.2 10.64c-6.43-8.99 2.5-31.94 2.5-31.94s-6.87 11.579-14.39 6.289c-11.84-8.33 16.11-65.799 37.84-84.969v-.01z"/><path id="P" d="M213.734 259.657c1.43-8.93 1.39-18.04-.28-26.92-5.56-29.44-25.05-38.92-55.96-31.39-43.61 10.63-62.82 53.87-66.83 91.81-2.43 23 16.02 43.07 39.12 41.91l.91-.05c58.94-4.16 77.5-40.73 83.04-75.36z"/><path id="Q" d="M196.734 328.748H61.144a6.64 6.64 0 0 0-6.64 6.64v1.32a6.64 6.64 0 0 0 6.64 6.64h135.59a6.64 6.64 0 0 0 6.64-6.64v-1.32a6.64 6.64 0 0 0-6.64-6.64z"/><path id="R" d="M213.524 233.138c-3.24-17.67-11.44-28.23-24.08-32.31 0 .29 0 .57-.04.85 3.08 1.5 16.06 8.93 20.09 29.59 4.59 23.5-7.58 68-19.58 77.53-12 9.54-15.68 11.89-15.68 11.89s.24.69 1.77 1.35c24.03-14.44 33.81-38.531 37.63-61.821 1.47-8.98 1.52-18.139-.12-27.089l.01.01z"/><path id="S" d="M91.814 284.588c-1.03 9.93-.11 15.84 5.34 20.25 7.17 5.8 20.41 1.48 25.34-6.37-2.83 9.07 1.75 14.81 8.52 15.24 9.1.57 20.59-7.4 24.02-14.88 1.38 14.88 21.23 21.39 32.85-1.07.97 8.45 3.94 10.7 8.47 6.05"/><path id="T" d="M103.554 247.228c-.89 6.33-2.53 16.71 7.21 23.67 7.28 5.2 19.02-.34 23.71-8.26-1.33 7.09.63 15.51 9.41 16.58 8.62 1.05 18.07-7.04 21.33-14.6 3.33 14.74 17.01 20.4 27.85-2.7-.72 14.05 13.74 16.42 19.23 4.17"/><path id="U" d="M214.274 238.307c-9.97-3.61-7.9-12.79-7.9-12.79-1.98 20.11-31.36 20.76-27.77 1.9-2.92 9.46-9.85 17.08-19.7 16.09-9.88-.99-12.5-8.37-9.88-15.93-5.36 8.53-15.49 13.45-24.23 8.55-4.22-2.36-7.13-7.89-2.02-15.76"/><path id="V" d="M135.783 141.814c10.772-3.974 15.36-18.432 10.246-32.293s-17.991-21.875-28.764-17.901-15.359 18.432-10.246 32.293 17.991 21.875 28.764 17.901z"/><path id="W" d="M219.254 99.198c-5.32-19.03-15.06-33.27-28.85-44.63-28.48-23.44-77.48-28.63-114.89-8.35-3.78 2.05-7.43 4.15-10.91 6.24-22.34 13.43-35.09 36.77-38.11 62.66-3.32 28.49 2.29 62.079 27.59 73.049 45.03 19.53 124.99 13.86 124.99 13.86s5.9-6 13.33-15.64a208.97 208.97 0 0 0 4.74-6.38c2.86-4.01 5.81-8.43 8.63-13.15 1.15-1.92 2.28-3.89 3.36-5.9 10.32-19.02 15.91-41.07 10.12-61.779v.02zm-49.84 29.88c-27.37 10.48-66.19 1.19-78.2-10.74 0 0 15.26-18.35 40.63-29.9 3.52-1.61 7.24-3.08 11.14-4.36 17.68-5.78 43.81-6.33 60.24.67 0 0 7.31 28.59-33.81 44.331h0z"/><path id="X" d="M101.044 127.228l-.17.31c-1.42 2.7-10.58 20.79 10.01 28.84-8.54 11.97-4.13 34.39 24.89 36.61-16.03.46-44.91-4.77-44.91-4.77s-22.92-52.3-20.27-62.75 15.04-11.74 17.72-9.65"/><path id="Y" d="M160.674 137.787s1.73 37.08-4.7 45.68c-7.46 9.97-22.16 9.07-21.52 9.08l32.58.56s-.4-41.37-2.45-47.32-3.91-8-3.91-8h0z"/><path id="Z" d="M217.874 94.528c-11.78-30.06-24.57-41.95-52.36-54.21-5.12-1.13-9.73-3.03-14.87-4.08 30.68 9.75 56.24 33.83 64.88 65.661 5.69 20.94 2.8 37.69-1.75 49.75 7.59-16.86 10.71-40.29 4.11-57.13l-.01.01z"/><path id="a" d="M209.144 160.987l-3.36 5.9-2.09 3.41c1.35-2.01 6.28-8.54 10.09-18.63a139.29 139.29 0 0 1-4.63 9.32h-.01z"/><path id="b" d="M179.084 202.048s-79.95 5.67-124.99-13.86c-9.94-4.31-16.84-12.11-21.35-21.71 4.95 5.19 34.09 29.56 141.69 26.61 17.63-13.83 47.15-42.61 46.63-84.88 11.55 49.56-41.99 93.84-41.99 93.84h.01z"/><path id="c" d="M108.274 199.818c-1.78-2.15-2.8-4.88-1.65-7.59.21-.49.46-.94.77-1.34-53.66-5.87-70.94-20.52-74.65-24.41 4.51 9.61 11.41 17.4 21.35 21.71 15.71 6.81 35.68 10.56 55.01 12.55-.29-.3-.57-.6-.83-.92h0z"/><path id="d" d="M102.594 155.717c-7.21 11.69-7.8 35.99-4.84 43.32 1.03 2.55 2.03 4.43 2.54 5.34-1.65-.1-24.32-6.65-34.01-19.42-12.88-16.98-13.33-38.49-13.33-38.49-10.33-.2-17.79-8.11-21.67-17.53-.13-.3-.25-.61-.37-.92-14.79-37.299-2.6-95.599-2.6-95.599 19.61 40.83 44.36 47.7 44.36 47.7s5.82 19.51 20.17 34.42c-4.28 5.15-6.55 10.68-7.5 16.14-3.26 18.66 17.25 25.05 17.25 25.05v-.01z"/><path id="e" d="M173.074 127.827c-16.11 6.22-36.93 7.17-56.56 1.52l-1-.3c-9.18-2.86-16.67-8.29-22.67-14.52-14.36-14.909-20.17-34.419-20.17-34.419s-24.75-6.87-44.36-47.7c0 0-12.18 58.29 2.6 95.6l.37.92c3.88 9.42 11.35 17.34 21.67 17.53 0 0-7.2 27.23 11.17 44.06 11.82 10.83 34.53 13.75 36.17 13.85a46.55 46.55 0 0 1-2.54-5.34c-2.96-7.33-2.37-31.62 4.84-43.32 0 0-20.51-6.38-17.25-25.05a33.83 33.83 0 0 1 3.86-10.86c7.08 6.83 16.07 12.28 24.53 14.92l1.15.35c12.11 3.48 25.1 4.71 37.54 3.53 8.03-.76 15.48-2.44 22.14-4.93l-1.5-5.84h.01zm-90.68-7.52a37.72 37.72 0 0 0-2.91 9.33c-1.72 9.85 1.55 18.54 9.46 25.12 1.93 1.6 3.89 2.88 5.66 3.86-2.75 7.14-3.78 15.14-4.16 19.91-.46 5.77-.44 11.91.66 17.46-6.02-1.41-18.2-4.85-24.98-12.42-13.79-15.4-5.79-43.04-5.79-43.04s-16.32.95-23.54-13.88v-.02c-.12-.26-.23-.53-.33-.79v-.03c-9.24-23.28-7.33-55.8-4.94-75.349 14.58 22.85 29.93 31.42 36.42 34.21 2.04 5.65 7.42 18.62 17.26 30.249-.88 1.37-1.91 3.46-2.8 5.39h-.01z"/><path id="f" d="M211.724 120.857s6.86 6.77 7.95 18.12l-.18 1.82c.13 1.37-.01 2.86-.29 4.45.38.4.72.85.99 1.34 2.41-7.46 5.33-20.51 3.12-35.76v-.05c-.3-2.04-.69-4.12-1.18-6.22 0-.02 0-.03-.01-.05-3.7-16.57-15.75-32.589-15.75-32.589s2.69 7.53 1.55 17.74c0 0 4.26 3.82 6.08 14.77.9 5.38-.61 7.31-2.29 16.43h.01z"/><path id="g" d="M219.594 130.757c-1.82-4.35-4.15-7.59-5.64-9.42 1.74-4.59 2.87-11.62 1.93-17.82-1.04-6.87-4.98-14.07-7.91-17.28-.36 2.22-1.1 2.69-1.22 4.91 2.4 3.04 4.81 9.93 5.36 13.24.9 5.38-.06 10.52-2.52 18.13 0 0 10.15 10.64 10.1 34.4 0 0 0 .03 0 0 .23-.47 4.41-5.74 2.31-16.4-.78-5.25-2.42-9.75-2.42-9.75l.01-.01z"/><path id="h" d="M185.854 191.587l-.38 2.83c-1.71 2.69-4.04 4.97-6.3 7.2-.01.01-.01.01-.03.02-5.31.45-10.58.82-15.91.77l.05-6.63c-.07-15.2-.99-30.43-2.95-45.49l-.31-2.23c-2.07-14.03-5.76-27.7-10.84-40.86-2.83-7.32-6.14-14.59-9.99-21.4-2.5-4.43-5.32-8.79-8.34-12.91-8.58-11.72-19.43-22-31.62-29.89-3.96-2.57-9.96-3.91-14.35-1.4 5.61-13.81 21.63-13.48 33-7.27 14.31 7.81 26.54 18.61 35.54 32.3v-.05l.21.36c.01.02.02.04.03.05.03.05.06.09.09.14 1.51 2.36 2.95 4.76 4.35 7.17.02.03.03.05.05.08.9 1.54 1.59 2.8 2.06 3.7.04.07.06.11.11.18.06.13.09.19.15.31 0 0 0 .02.01.03l.45.91.08.16.84 1.7c.04.09.09.17.13.26.03.05.05.11.08.17l3.68 7.64c2.97 6.33 5.63 12.879 7.97 19.48l3.61 10.58.47 1.3c1.34 3.85 2.38 7.82 3.3 11.83 1.5 6.47 2.67 13.04 3.63 19.57.68 4.6 1.09 9.3 1.36 13.97.49 8.41.82 17.04-.25 25.42h.02z"/><path id="i" d="M186.104 166.168l-.53-6.96c0 .09-.01.19-.02.28-.22 2.21-.5 4.47-1.46 6.5-1.11 2.33-3.66 3.68-6.15 2.56-.35-.16-.67-.35-.96-.58l-.48 2.29c-.79 3.44-3.64 8.69-8.02 7.86-4.34-.82-5.39-6.73-5.71-10.29-.09-1.01-.61-1.95-.87-2.93.83 10.28 1.31 20.59 1.37 30.9l-.05 6.63c5.33.04 10.6-.32 15.91-.77l.02-.01c2.27-2.24 4.59-4.52 6.31-7.21.03-.11.33-2.43.38-2.83 1.07-8.38.74-17.01.25-25.42l.01-.02z"/><path id="j" d="M186.104 166.168c-.28-4.66-.76-9.36-1.36-13.97-.86-6.55-2.07-13.15-3.63-19.57-1.07-4.4-2.34-8.84-3.77-13.12l-3.61-10.58c-2.12-5.79-4.48-11.501-6.9-17.12-.03-.08-.07-.15-.1-.23l-.97-2.12-3.68-7.64c-.03-.05-.05-.11-.08-.17-.04-.08-.08-.17-.13-.26l-.83-1.63c-.04-.08-.09-.17-.13-.25l-1.16-2.22-.14-.26-1.44-2.63c-.01-.03-.03-.05-.05-.08l-4.35-7.17c-.03-.05-.06-.09-.09-.14 0-.02-.02-.04-.03-.05-.07-.1-.14-.21-.21-.31-9.05-13.53-21.12-24.77-35.54-32.3-1.33-.69-2.72-1.35-4.13-1.99l-3.69.21c17.51 8.64 32.49 21.52 42.85 37.76 3.13 4.9 5.82 10.16 8.15 15.54 2.07 4.77 3.7 9.8 5.07 14.79 3.64 13.31 6 29.52 7.48 43.37.59 4.29 3.3 29.47 3.68 38.5.25 6 .18 11.49.25 19.19a83.46 83.46 0 0 0 1.58-.07l.02-.01c2.49-2.67 5.53-5.8 6.56-9.28.03-.1.07-.36.12-.76 1.07-8.38.75-17.02.25-25.42l.01-.01z"/><path id="k" d="M177.414 202.007c.15-23.17-.95-39.34-4.19-57.18-5.9-32.5-16.46-64.799-38.77-89.549-5.69-6.32-12.17-12.21-19.35-16.78-5.91-3.76-15.23-8.5-22.55-5.72"/><path id="l" d="M135.374 152.598c-1.93-2.8-4.04-5.89-7.33-7.2-2.79-1.11-6.3-.65-8.16 1.88-.46.63-.79 1.32-1 2.06-1.23 2.29-1.23 5.17-.68 7.7.7 3.22 2.19 6.47 4.77 8.6 2.62 2.16 6.32 3.21 9.68 3.34 1.56.06 3.2-.25 4.41-1.3 1.3-1.14 1.79-2.91 1.95-4.57.38-3.84-1.54-7.45-3.64-10.51z"/><path id="m" d="M149.154 162.798c-2.4-1.24-4.85.23-5.4 2.6-.35.67-.5 1.49-.53 2.19-.06 1.49.44 3.12 1.28 4.35 1.97 2.85 5.59 1.25 6.73-1.48 1.05-2.51.55-6.3-2.08-7.66h0z"/><path id="n" d="M153.934 320.688c1.51-1.57 6.69-5.66 13.51-.47 7.23-3.43 17.51 3.72 17.51 13.11 0 12.08-9.37 12.09-9.37 12.09s-5.91 6.75-11.8.9c-2.78 4.61-11.48 3.54-13.95-2.71 6.29-8.15-.55-15.38-5.14-15.06-1.03-8.7 8.54-8.83 9.25-7.86h-.01z"/><path id="o" d="M183.914 330.328s.64 4.46-2.61 5.48c-3.26 1.02-6.3-3.72-6.3-3.72s.17 4.48-4.03 5.04c-4.2.57-12.5-12.57-12.5-12.57s1.86 6.13-2.07 6.29-9.76-8.61-9.76-8.61-1.23 2.92-1.64 4.23 0 1.63 0 1.63 6.91 3.23 7.06 6.73c.16 3.5-2.27 8.77-2.27 8.77s1.24 4.47 5.7 5.56c4.46 1.08 7.96-2.4 7.96-2.4s2.79 2.65 6.31 2.4c3.51-.24 5.89-4.27 5.89-4.27s3.87.77 7.26-3.64.99-10.92.99-10.92h.01z"/><path id="p" d="M193.644 192.837c.7.37 1.46.34 1.74-.1.11-.18.15-.39.21-.6 0-.02.02-.03.03-.05.27-.41-.09-1.16-.77-1.51-.7-.37-1.45-.34-1.74.1-.12.18-.16.4-.21.6 0 .02-.02.03-.03.05-.26.42.09 1.15.77 1.51z"/><path id="q" d="M199.134 216.327c2.23 3.47 3.17 6.4.8 7.93s-4.92-.42-7.15-3.89-4.34-6.05-1.98-7.57c2.37-1.52 6.09.06 8.33 3.53h0z"/><path id="r" d="M191.724 223.937c1.06.63 1.46 2 .59 3.47s-2.5 1.57-3.56.94-1.16-1.75-.29-3.22 2.2-1.82 3.26-1.19z"/><path id="s" d="M104.054 293.587c.51 1.68-.28 3.38-1.79 4.04-1.45.63-3.85-1.15-4.74-4-.52-1.68.21-3.7 1.79-4.04 3.06-.66 4.53 3.32 4.74 4z"/><path id="t" d="M107.944 285.937c-1.12-.75-2.42-.85-2.98-.14-.23.29-.34.64-.47.99-.02.03-.04.06-.06.08-.53.66-.05 1.99 1.03 2.72 1.13.76 2.41.84 2.98.14.23-.28.34-.65.47-.99l.05-.08c.52-.67.06-1.98-1.03-2.72h.01z"/><path id="u" d="M104.664 300.598c-.58.31-.92.84-.75 1.24.07.16.2.29.31.43 0 .01.02.03.02.04.16.38.84.48 1.4.18.58-.31.91-.84.75-1.24-.07-.16-.2-.29-.32-.43 0-.01-.01-.03-.02-.04-.16-.38-.83-.48-1.4-.18h.01z"/><path id="v" d="M102.644 218.637c-.2.99.23 1.67 1.07 1.5.34-.07.69-.23 1.04-.38.03 0 .06-.02.09-.02.78-.15 1.73-1.18 1.93-2.14.2-1-.24-1.65-1.07-1.5-.34.06-.69.23-1.04.38-.03 0-.06.02-.09.02-.78.16-1.73 1.18-1.93 2.14z"/><path id="w" d="M98.314 217.578c-.92.6-1.63 1.39-1.7 1.83-.03.18.13.54.17.66v.05c-.08.42.68.3 1.57-.28.93-.6 1.65-1.4 1.78-1.83.23-.76-.91-1.01-1.81-.43h-.01z"/><path id="x" d="M100.214 209.827c-1.55 1.6-2.23 3.31-1.41 3.91.33.24.81.32 1.26.43l.1.06c.75.58 2.89-.29 4.4-1.84 1.57-1.61 2.21-3.29 1.41-3.91-.32-.25-.81-.33-1.26-.44l-.09-.06c-.76-.56-2.88.28-4.4 1.84l-.01.01z"/><path id="y" d="M156.044 319.528s4.15-1.21 9.67 2.71c5.65 4.02 10.02 12.77 10.02 12.77s-3.25-12.53-9.16-15.41c-5.91-2.87-10.54-.08-10.54-.08l.01.01z"/><path id="z" d="M170.384 322.238s3.51-.61 7.37 2 5.91 5.44 5.91 5.44-1.22-5.68-6.26-8.5c-5.05-2.81-8.91-.97-8.91-.97l1.9 2.02-.01.01z"/><path id="AA" d="M110.304 319.928c.86-.97 9.1-6.051 16.29 7.459 6.47 12.15-2.72 20.12-6.44 17.46 0 3.26-7 10.81-15.35.73-2.51 5.61-11.92 5.42-15.78-3.86-4.14-9.97-2.25-23.86 7.68-21.91 7.47-6.98 13.59.11 13.59.11l.01.011z"/><path id="AB" d="M93.494 320.307c0 .26-3.83-.059-5.38 4.391-1.54 4.46-1.15 7.299-1.15 7.299s3.03 16.461 9.36 16.991 8.47-1.7 8.47-1.7l-7.13-23.08-1.52-4.76-2.66.859h.01z"/><path id="AC" d="M98.554 318.877c-.17.16 3.38 13.02 7.86 18.45 13.73 16.65 11.71-2.76 11.71-2.76s3.57 8.76 2.26 11.56-6.11 6.94-11.68 3.04-6.89-11.11-7.05-11.55-4.45-18.23-4.45-18.23"/><path id="AD" d="M113.374 319.448s5.72 10.9 8.4 13.37c7.07 6.51 6.74-.291 6.74-.291s1.95 6.571-2.4 10.581c-4.34 4.01-5.98 1.359-5.98 1.359s-2.83-13.369-5.52-17.919l-4.31-7.09h3.07v-.01z"/><path id="AE" d="M111.764 318.967s4.09-1.04 9.8 5.31 6.45 9.21 6.45 9.21-1.81-9.32-6.93-13.14-9.32-1.38-9.32-1.38z"/><path id="AF" d="M101.464 317.337s2.51 2.111 7.2 7.371c4.68 5.25 9.65 13.37 9.65 13.37s-4.6-15.31-9.38-18.62-7.46-2.111-7.46-2.111l-.01-.01z"/></defs></svg>