<svg xmlns="http://www.w3.org/2000/svg" width="107" height="113" fill="none" xmlns:v="https://vecta.io/nano"><path d="M0 38.542l7.25 11.204c2.917 4.217 2.975 8.27.041 12.511C4.797 65.862 2.512 69.62 0 73.52l12.627 4.865c4.551 1.649 6.969 4.707 7.057 9.66.07 3.823.468 7.64.515 11.463.023 2.021.767 2.262 2.477 1.762 3.643-1.067 7.338-1.938 10.975-3.016 4.539-1.343 8.211-.259 11.139 3.522l7.315 9.178c1.037 1.372 1.628 1.496 2.723.047 2.354-3.122 4.92-6.085 7.321-9.178 2.922-3.752 6.571-4.93 11.122-3.587 3.455 1.019 7.022 1.679 10.413 2.863 2.653.925 3.139.017 3.145-2.415.012-3.528.428-7.051.469-10.579.059-4.96 2.46-8.04 7.004-9.701 4.193-1.538 8.34-3.204 12.691-4.883L99.58 62.057c-2.747-4.041-2.782-7.952-.035-12.005 2.518-3.717 4.884-7.534 7.455-11.522l-13.183-5.066c-4.012-1.567-6.313-4.394-6.472-8.859l-.556-12.052c-.035-1.985-.738-2.28-2.471-1.773-3.643 1.072-7.344 1.92-10.981 3.004-4.545 1.361-8.211.236-11.139-3.517L55.07 1.314c-1.136-1.508-1.81-1.861-3.098-.077-2.231 3.087-4.767 5.955-7.11 8.965-2.917 3.741-6.553 4.954-11.116 3.599-3.637-1.078-7.344-1.92-10.981-3.01-1.939-.577-2.548-.071-2.565 1.956-.041 3.723-.445 7.446-.498 11.168-.076 4.942-2.425 8.058-6.981 9.725-4.193 1.532-8.34 3.204-12.709 4.889L0 38.542z" fill="#fff"/><path d="M48.885 64.811L46.56 30.536h13.95l-2.325 34.275h-9.3zm4.65 18.825c-2.1 0-3.825-.675-5.175-2.025s-2.025-2.95-2.025-4.8c0-1.9.675-3.475 2.025-4.725 1.35-1.3 3.075-1.95 5.175-1.95 2.15 0 3.875.65 5.175 1.95 1.35 1.25 2.025 2.825 2.025 4.725 0 1.85-.675 3.45-2.025 4.8-1.3 1.35-3.025 2.025-5.175 2.025z" fill="#3a2657"/></svg>