<svg xmlns="http://www.w3.org/2000/svg" width="754" height="868" fill="none" xmlns:v="https://vecta.io/nano"><g style="mix-blend-mode:soft-light" opacity=".15"><path fill-rule="evenodd" d="M332.347 83.278c3.092 1.253 51.52 20.748 66.018 28.856.081.047.167.085.258.112 40.814 12.742 72.529-4.859 100.082 30.964l.103.153c29.099 49.909 46.79 51.61 97.702 61.113.291.042.588-.012.844-.154s.459-.362.576-.628.143-.563.072-.845a1.32 1.32 0 0 0-.461-.715c-14.848-11.317-62.133-47.791-69.552-58.924-8.81-13.241-4.122-27.837-21.103-32.655h-.103c-97.032-20.433-101.566-84.887-242.73-96.631a1.34 1.34 0 0 0-.776.162 1.32 1.32 0 0 0-.545.57c-.118.24-.16.51-.119.775s.162.51.347.704c9.985 10.664 49.758 52.721 69.14 66.981.078.061.16.116.247.163h0z" fill="#fff"/></g><g style="mix-blend-mode:soft-light" opacity=".15"><path fill-rule="evenodd" d="M404.837 180.769c33.169 76.606 93.055 101.927 155.683 149.637.102.078.192.171.268.275 43.277 59.188 93.663 87.453 146.955 115.433.275.124.584.152.876.081s.553-.239.738-.475a1.31 1.31 0 0 0 .281-.824c-.003-.298-.108-.587-.298-.819-130.345-136.915-102.019-167.716-302.648-264.948-.24-.118-.51-.162-.776-.127a1.35 1.35 0 0 0-.714.326 1.32 1.32 0 0 0-.406.665 1.31 1.31 0 0 0 .041.776z" fill="#fff"/></g><g style="mix-blend-mode:soft-light" opacity=".15"><path fill-rule="evenodd" d="M61.034 52.764c2.205 1.243 34.621 19.566 44.07 26.483l.185.112c25.76 12.386 54.663 6.447 68.687 32.054l.061.143c13.869 36.199 30.006 39.723 61.824 50.714.238.078.497.076.733-.008s.438-.243.572-.453.193-.458.168-.705a1.11 1.11 0 0 0-.308-.658c-9.975-9.798-37.847-37.584-41.567-45.387-4.523-9.533 1.031-18.273-10.736-23.427s-40.351-13.506-43.339-23.04C127.803 41.387 49.679 6.46 21.456.054c-.229-.073-.475-.071-.702.005a1.11 1.11 0 0 0-.559.42 1.09 1.09 0 0 0 .056 1.317c6.182 8.648 28.645 39.5 40.557 50.806l.227.163z" fill="#fff"/></g><path d="M438.574 593.52c.616-.626 1.407-1.056 2.271-1.235s1.763-.099 2.581.23 1.519.891 2.012 1.616a4.36 4.36 0 0 1 0 4.904 4.43 4.43 0 0 1-2.012 1.616c-.818.329-1.716.409-2.581.23a4.47 4.47 0 0 1-2.271-1.235 4.37 4.37 0 0 1 0-6.126h0zm-12.984 63.669c.444.461 1.017.78 1.645.915a3.25 3.25 0 0 0 1.881-.154c.597-.237 1.109-.645 1.47-1.171s.553-1.149.553-1.785-.193-1.258-.553-1.785-.873-.935-1.47-1.171a3.26 3.26 0 0 0-1.881-.155 3.24 3.24 0 0 0-1.645.915c-.575.59-.896 1.377-.896 2.196a3.14 3.14 0 0 0 .896 2.195h0zm-50.049-145.297c.289.284.657.477 1.057.554a2.08 2.08 0 0 0 1.19-.118c.377-.155.698-.417.924-.753s.347-.729.347-1.132-.121-.798-.347-1.133a2.05 2.05 0 0 0-.924-.752 2.08 2.08 0 0 0-1.19-.119c-.4.078-.768.271-1.057.555-.194.189-.347.415-.452.664s-.158.515-.158.785a2.03 2.03 0 0 0 .158.784 2.04 2.04 0 0 0 .452.665h0zm71.334 95.613a2.08 2.08 0 0 0 1.057.555c.4.078.815.036 1.191-.119s.698-.416.924-.752.347-.729.347-1.133-.121-.797-.347-1.132a2.06 2.06 0 0 0-.924-.753 2.08 2.08 0 0 0-1.191-.118 2.07 2.07 0 0 0-1.057.554c-.196.189-.351.414-.458.663s-.161.516-.161.786.055.538.161.787a2.02 2.02 0 0 0 .458.662h0zm32.849-35.435c.289.284.657.477 1.057.555a2.09 2.09 0 0 0 1.191-.119 2.07 2.07 0 0 0 .924-.752 2.03 2.03 0 0 0 0-2.266 2.07 2.07 0 0 0-.924-.752 2.09 2.09 0 0 0-1.191-.119c-.4.078-.768.271-1.057.555-.385.386-.601.907-.601 1.449s.216 1.063.601 1.449h0zm-27.522-9.88c.288.288.656.484 1.057.564s.817.04 1.195-.114.701-.415.929-.752a2.03 2.03 0 0 0 0-2.272c-.228-.336-.551-.598-.929-.752s-.794-.193-1.195-.113a2.07 2.07 0 0 0-1.057.563c-.202.187-.363.413-.474.664s-.167.522-.167.796.057.545.167.796.272.477.474.664v-.044zm-28.853 16.291a1.04 1.04 0 0 0 .534.286 1.05 1.05 0 0 0 .604-.056 1.04 1.04 0 0 0 .471-.38c.115-.17.177-.37.177-.575s-.062-.404-.177-.574-.279-.303-.471-.38a1.05 1.05 0 0 0-.604-.057c-.203.041-.389.141-.534.287a1.03 1.03 0 0 0-.224.351c-.05.131-.073.27-.066.41s.041.276.102.402.148.238.254.33l-.066-.044zm80.745 100.268c.145.146.331.246.534.287a1.05 1.05 0 0 0 .605-.057c.191-.077.355-.21.47-.38s.177-.37.177-.574-.062-.405-.177-.575-.279-.302-.47-.38a1.05 1.05 0 0 0-.605-.056 1.04 1.04 0 0 0-.534.286 1.03 1.03 0 0 0-.224.351c-.05.131-.072.27-.066.41s.041.276.102.402a1.04 1.04 0 0 0 .255.33l-.067-.044zm-57.84-101.212a1.05 1.05 0 0 0 1.465 0c.101-.093.181-.205.236-.329s.084-.26.084-.396a.98.98 0 0 0-.084-.395c-.055-.125-.135-.237-.236-.329a1.05 1.05 0 0 0-1.383.081c-.18.179-.288.417-.304.669s.064.5.222.699h0zm-29.253 19.408c.289.284.657.477 1.057.555a2.09 2.09 0 0 0 1.191-.119 2.06 2.06 0 0 0 .923-.752 2.02 2.02 0 0 0 0-2.266 2.06 2.06 0 0 0-.923-.752 2.09 2.09 0 0 0-1.191-.119c-.4.078-.768.271-1.057.555-.193.196-.345.429-.446.684a2.05 2.05 0 0 0-.144.801 2.04 2.04 0 0 0 .18.794 2.07 2.07 0 0 0 .477.663l-.067-.044zm65.741 67.907a2.07 2.07 0 0 0 1.058.554 2.08 2.08 0 0 0 1.19-.118 2.06 2.06 0 0 0 .924-.753c.226-.335.347-.729.347-1.132s-.121-.798-.347-1.133-.548-.597-.924-.752a2.08 2.08 0 0 0-2.248.436c-.384.386-.6.906-.6 1.449s.216 1.062.6 1.449h0zm-49.938 87.49a2.02 2.02 0 0 0 .664.452 2.04 2.04 0 0 0 .79.159c.271 0 .54-.054.789-.159a2.02 2.02 0 0 0 .664-.452c.291-.285.489-.649.57-1.045a2.02 2.02 0 0 0-.115-1.182c-.156-.374-.42-.694-.76-.919a2.08 2.08 0 0 0-1.148-.345c-.409 0-.809.12-1.149.345s-.604.545-.76.919a2.02 2.02 0 0 0-.115 1.182c.081.396.279.76.57 1.045zm152.08 15.654c.874.847 1.981 1.42 3.183 1.647a6.28 6.28 0 0 0 3.574-.371 6.2 6.2 0 0 0 2.768-2.265c.677-1.008 1.039-2.192 1.039-3.402a6.1 6.1 0 0 0-1.039-3.402c-.677-1.009-1.64-1.796-2.768-2.265a6.28 6.28 0 0 0-3.574-.371c-1.202.227-2.309.8-3.183 1.647a6.18 6.18 0 0 0-1.389 2.001c-.324.752-.494 1.559-.5 2.376a6.09 6.09 0 0 0 .464 2.383c.313.757.775 1.444 1.358 2.022h.067zM29.698 489.454a4.45 4.45 0 0 0 2.271 1.235c.864.179 1.763.099 2.581-.23s1.519-.892 2.012-1.616a4.36 4.36 0 0 0 0-4.904c-.493-.724-1.194-1.287-2.012-1.616s-1.717-.409-2.581-.23a4.45 4.45 0 0 0-2.271 1.235c-.807.82-1.258 1.919-1.258 3.063s.451 2.243 1.258 3.063h0zM684.695 711.55c.617.623 1.408 1.05 2.271 1.226a4.48 4.48 0 0 0 2.577-.235c.816-.33 1.515-.892 2.006-1.616s.755-1.577.755-2.449-.263-1.725-.755-2.449-1.19-1.286-2.006-1.616a4.48 4.48 0 0 0-2.577-.235 4.46 4.46 0 0 0-2.271 1.226c-.814.821-1.269 1.925-1.269 3.074s.455 2.253 1.269 3.074h0zM484.341 601.775c.615.626 1.406 1.056 2.27 1.235s1.763.099 2.581-.23a4.42 4.42 0 0 0 2.012-1.616c.493-.724.756-1.578.756-2.452s-.263-1.727-.756-2.451-1.193-1.288-2.012-1.617a4.49 4.49 0 0 0-2.581-.229c-.864.179-1.655.609-2.27 1.235-.814.821-1.269 1.924-1.269 3.073s.455 2.253 1.269 3.074v-.022zm187.37 167.297a3.23 3.23 0 0 0 1.647.871 3.25 3.25 0 0 0 1.86-.18c.588-.241 1.091-.649 1.445-1.173s.542-1.139.542-1.769-.189-1.245-.542-1.769a3.22 3.22 0 0 0-1.445-1.172 3.25 3.25 0 0 0-1.86-.181 3.23 3.23 0 0 0-1.647.872c-.305.294-.547.646-.712 1.034s-.251.806-.251 1.227.085.839.251 1.227a3.16 3.16 0 0 0 .712 1.035v-.022zm25.79 62.418a3.23 3.23 0 0 0 1.645.914 3.25 3.25 0 0 0 1.881-.154c.597-.236 1.109-.644 1.47-1.171s.553-1.149.553-1.785-.193-1.258-.553-1.785a3.22 3.22 0 0 0-1.47-1.171 3.25 3.25 0 0 0-1.881-.154c-.628.135-1.201.454-1.645.915-.581.59-.907 1.382-.907 2.206a3.15 3.15 0 0 0 .907 2.207v-.022zm-123.604-81.497c.3.299.656.536 1.048.698a3.26 3.26 0 0 0 1.238.245c.426 0 .846-.084 1.239-.245a3.22 3.22 0 0 0 1.047-.698 3.2 3.2 0 0 0 .892-1.641 3.18 3.18 0 0 0-.182-1.854c-.245-.587-.661-1.088-1.194-1.441s-1.16-.541-1.802-.541-1.268.188-1.801.541a3.21 3.21 0 0 0-1.194 1.441c-.245.586-.308 1.232-.182 1.854s.437 1.193.891 1.641h0zM386.794 867.079a3.23 3.23 0 0 0 1.648.863 3.25 3.25 0 0 0 1.855-.187c.587-.241 1.087-.649 1.44-1.172a3.16 3.16 0 0 0 0-3.531c-.353-.523-.853-.931-1.44-1.173s-1.232-.307-1.855-.186-1.197.421-1.648.863a3.2 3.2 0 0 0-.707 1.042 3.17 3.17 0 0 0-.248 1.23c0 .422.084.841.248 1.231a3.19 3.19 0 0 0 .707 1.041v-.021zm234.867-243.305a2.07 2.07 0 0 0 1.057.563c.4.08.816.041 1.194-.113s.702-.416.929-.752.349-.732.349-1.136a2.02 2.02 0 0 0-.349-1.136c-.227-.336-.55-.598-.929-.752s-.794-.194-1.194-.113a2.07 2.07 0 0 0-1.057.563 2 2 0 0 0-.457.657 1.98 1.98 0 0 0 0 1.562 2 2 0 0 0 .457.657h0zm71.335 95.636c.388.384.915.6 1.465.6a2.08 2.08 0 0 0 1.464-.6 2.04 2.04 0 0 0 .607-1.449c0-.544-.218-1.065-.607-1.449-.192-.191-.42-.342-.672-.445s-.52-.156-.792-.156-.542.053-.793.156-.48.254-.672.445-.345.416-.449.664a2.02 2.02 0 0 0-.158.785c0 .269.053.535.158.784a2.05 2.05 0 0 0 .449.665h0zm-103.385 26.499a2.08 2.08 0 0 0 2.93 0c.389-.384.607-.905.607-1.449a2.04 2.04 0 0 0-.607-1.449 2.03 2.03 0 0 0-.67-.453c-.251-.105-.522-.159-.795-.159s-.543.054-.795.159a2.04 2.04 0 0 0-.67.453 2.05 2.05 0 0 0 0 2.898h0zM.601 762.529c.39.381.917.594 1.465.594s1.074-.213 1.465-.594c.385-.386.601-.907.601-1.449s-.216-1.063-.601-1.449c-.39-.381-.917-.594-1.465-.594s-1.074.213-1.465.594c-.385.386-.601.907-.601 1.449s.216 1.063.601 1.449h0zm62.923-15.215a2.01 2.01 0 0 0 .664.452c.25.105.518.159.79.159a2.04 2.04 0 0 0 .79-.159 2.01 2.01 0 0 0 .664-.452c.29-.285.489-.648.57-1.045a2.02 2.02 0 0 0-.115-1.182c-.156-.374-.42-.694-.76-.919a2.08 2.08 0 0 0-2.297 0c-.34.225-.604.545-.76.919a2.02 2.02 0 0 0-.115 1.182c.081.397.279.76.569 1.045zm662.255-63.274c.288.287.655.483 1.056.564s.817.04 1.195-.114a2.06 2.06 0 0 0 .929-.752 2.02 2.02 0 0 0 .349-1.136c0-.404-.121-.8-.349-1.136a2.06 2.06 0 0 0-.929-.752c-.378-.154-.794-.193-1.195-.113a2.07 2.07 0 0 0-1.056.563 2.01 2.01 0 0 0-.45.659 1.99 1.99 0 0 0 0 1.559c.104.246.257.47.45.658zM178.405 491.935c.289.284.657.477 1.057.554a2.08 2.08 0 0 0 1.19-.118c.377-.155.698-.417.924-.753s.347-.729.347-1.132-.121-.798-.347-1.133a2.05 2.05 0 0 0-.924-.752 2.08 2.08 0 0 0-1.19-.119c-.4.078-.768.27-1.057.555a2.04 2.04 0 0 0-.452.664 2.03 2.03 0 0 0 0 1.569c.105.249.259.475.452.665h0zm519.917 182.226a2.07 2.07 0 0 0 1.057.554c.4.078.815.036 1.191-.119s.698-.416.924-.752.347-.729.347-1.132-.121-.798-.347-1.133-.548-.597-.924-.752-.791-.197-1.191-.119a2.07 2.07 0 0 0-1.057.554 2.02 2.02 0 0 0-.449.659c-.105.247-.159.512-.159.78a1.99 1.99 0 0 0 .159.779 2.02 2.02 0 0 0 .449.659v.022zm-184.063 30.166a2.07 2.07 0 0 0 .673.515 2.08 2.08 0 0 0 .825.203 2.09 2.09 0 0 0 .838-.143c.266-.104.507-.263.708-.465s.357-.443.459-.708.147-.548.132-.831a2.02 2.02 0 0 0-.218-.812c-.129-.254-.31-.477-.531-.657-.389-.385-.916-.601-1.465-.601a2.08 2.08 0 0 0-1.465.601c-.389.384-.607.905-.607 1.449a2.04 2.04 0 0 0 .607 1.449h.044zm155.365-13.898a1.05 1.05 0 0 0 .733.297c.274 0 .537-.106.732-.297.158-.198.237-.447.222-.699a1.03 1.03 0 0 0-.304-.669 1.05 1.05 0 0 0-1.383-.081c-.204.181-.329.435-.345.707a1.02 1.02 0 0 0 .257.742h.088zm-163.399 33.13c.145.146.331.246.534.287a1.05 1.05 0 0 0 .604-.057c.192-.077.356-.21.471-.38s.177-.37.177-.574-.062-.405-.177-.575a1.04 1.04 0 0 0-.471-.38 1.05 1.05 0 0 0-.604-.056 1.04 1.04 0 0 0-.534.286c-.193.193-.301.453-.301.725s.108.531.301.724h0zm28.365-18.749a1.05 1.05 0 0 0 1.139.23c.191-.078.355-.21.47-.38s.177-.37.177-.575-.062-.405-.177-.575-.279-.302-.47-.38a1.06 1.06 0 0 0-.605-.056c-.203.041-.389.141-.534.287a1.04 1.04 0 0 0-.239.34 1.03 1.03 0 0 0 0 .812c.056.128.137.244.239.341v-.044zm215.602 85.887c.145.146.331.246.534.287a1.05 1.05 0 0 0 .605-.057c.191-.077.355-.209.47-.379a1.02 1.02 0 0 0 0-1.15c-.115-.17-.279-.302-.47-.38a1.05 1.05 0 0 0-1.139.23 1.03 1.03 0 0 0-.3.725c0 .271.108.531.3.724h0zm1.043 71.793c.146.146.331.245.534.286a1.05 1.05 0 0 0 .605-.056c.191-.078.355-.21.47-.38a1.02 1.02 0 0 0 0-1.149c-.115-.17-.279-.303-.47-.38a1.05 1.05 0 0 0-1.139.23c-.095.098-.169.215-.217.343s-.067.265-.059.401a.97.97 0 0 0 .108.39.99.99 0 0 0 .257.315h-.089zm-39.462 1.032c.145.146.331.245.533.286a1.05 1.05 0 0 0 .605-.056c.192-.078.355-.21.471-.38s.177-.37.177-.575-.062-.404-.177-.574a1.04 1.04 0 0 0-.471-.38 1.05 1.05 0 0 0-.605-.057c-.202.041-.388.141-.533.287a1.02 1.02 0 0 0-.257.742c.016.272.141.526.345.707h-.088zm-1.021-13.459c.091.115.205.209.336.277a1.05 1.05 0 0 0 .422.115c.147.009.294-.013.432-.065s.263-.132.367-.235.185-.227.238-.363.075-.282.066-.428-.049-.288-.117-.417-.164-.242-.279-.333c-.094-.099-.207-.179-.333-.233a1 1 0 0 0-.4-.083c-.137 0-.273.028-.4.083s-.239.134-.332.233c-.181.205-.274.472-.257.743s.141.525.345.706h-.088zm-128.576-92.737a1.05 1.05 0 0 0 1.465 0c.101-.093.181-.205.236-.329s.084-.26.084-.396a.98.98 0 0 0-.084-.395c-.055-.125-.135-.237-.236-.329a1.04 1.04 0 0 0-.337-.277c-.13-.067-.274-.107-.421-.115a1.04 1.04 0 0 0-.432.065 1.06 1.06 0 0 0-.368.235 1.03 1.03 0 0 0-.303.791c.009.146.048.288.117.417a1.03 1.03 0 0 0 .279.333h0zm110.309-67.841a1.03 1.03 0 0 0 1.443 0c.101-.092.181-.204.236-.329a.98.98 0 0 0 .084-.395c0-.136-.029-.271-.084-.396s-.135-.236-.236-.329a1.03 1.03 0 0 0-1.443 0c-.101.093-.181.205-.236.329s-.084.26-.084.396a.98.98 0 0 0 .084.395c.055.125.135.237.236.329h0zm-117.012 52.692a1.04 1.04 0 0 0 .534.286 1.05 1.05 0 0 0 .605-.056c.191-.078.355-.21.47-.38a1.02 1.02 0 0 0 0-1.149c-.115-.17-.279-.303-.47-.38a1.05 1.05 0 0 0-.605-.057c-.203.041-.389.141-.534.287-.176.187-.276.432-.28.687s.088.504.258.696l.022.066zm87.737-33.218c.192.19.421.341.672.444a2.09 2.09 0 0 0 .793.156c.272 0 .541-.053.793-.156a2.09 2.09 0 0 0 .672-.444c.192-.19.345-.416.449-.665a2.03 2.03 0 0 0 0-1.568c-.104-.249-.257-.475-.449-.665a2.04 2.04 0 0 0-.67-.453c-.252-.105-.522-.16-.795-.16s-.544.055-.795.16a2.03 2.03 0 0 0-.67.453 2.05 2.05 0 0 0-.022 2.832l.022.066zm-126.223 32.933a2.06 2.06 0 0 0 .67.453c.251.105.522.159.795.159s.544-.054.795-.159a2.07 2.07 0 0 0 .67-.453c.388-.385.607-.906.607-1.45s-.219-1.064-.607-1.449-.916-.6-1.465-.6-1.076.216-1.465.6a2.01 2.01 0 0 0-.022 2.811l.022.088zm27.411 2.041c.288.287.656.484 1.056.564s.817.04 1.195-.114a2.06 2.06 0 0 0 .929-.752 2.02 2.02 0 0 0 .349-1.136c0-.404-.121-.8-.349-1.136a2.06 2.06 0 0 0-.929-.752c-.378-.154-.794-.193-1.195-.113s-.768.276-1.056.563a2.01 2.01 0 0 0-.576 1.39c-.004.519.194 1.02.554 1.398l.022.088zm164.487 32.933a2.07 2.07 0 0 0 1.057.563c.4.08.816.041 1.194-.113a2.06 2.06 0 0 0 .929-.752c.228-.336.349-.732.349-1.136a2.02 2.02 0 0 0-.349-1.136 2.05 2.05 0 0 0-.929-.752c-.378-.154-.794-.194-1.194-.114s-.769.276-1.057.564c-.353.37-.551.859-.555 1.368s.186 1 .533 1.376l.022.132zm-574.34-125.143c.289.284.657.477 1.057.554a2.08 2.08 0 0 0 1.191-.118 2.06 2.06 0 0 0 .924-.753c.226-.335.347-.729.347-1.132s-.121-.798-.347-1.133-.548-.597-.924-.752-.791-.197-1.191-.119a2.06 2.06 0 0 0-1.057.555 2.03 2.03 0 0 0-.588 1.411c-.004.528.199 1.037.566 1.421l.022.066zm-51.759 188.329a2.08 2.08 0 0 0 1.058.555 2.09 2.09 0 0 0 1.19-.119c.376-.155.698-.417.924-.752a2.03 2.03 0 0 0 0-2.266c-.226-.335-.548-.597-.924-.752a2.09 2.09 0 0 0-1.19-.119 2.08 2.08 0 0 0-1.058.555c-.384.386-.6.907-.6 1.449s.216 1.063.6 1.449h0zm538.14 9.704c.289.284.657.477 1.057.555a2.09 2.09 0 0 0 1.191-.119c.376-.155.698-.417.924-.752a2.03 2.03 0 0 0 0-2.266c-.226-.335-.548-.597-.924-.752a2.09 2.09 0 0 0-1.191-.119c-.4.078-.768.271-1.057.555a2.02 2.02 0 0 0-.458.662 2.01 2.01 0 0 0 0 1.574c.106.249.262.474.458.662h0zM183.132 633.368c.288.287.656.484 1.057.564s.817.04 1.195-.114.701-.416.929-.752a2.03 2.03 0 0 0 0-2.272c-.228-.336-.551-.598-.929-.752s-.794-.193-1.195-.113a2.07 2.07 0 0 0-1.057.563c-.195.187-.35.41-.456.657s-.161.513-.161.781a1.96 1.96 0 0 0 .161.781c.106.248.261.471.456.657h0zm495.725 230.878a2.08 2.08 0 0 0 2.248.436c.376-.155.698-.416.924-.752s.347-.729.347-1.133a2.03 2.03 0 0 0-.347-1.133c-.226-.335-.548-.597-.924-.752a2.08 2.08 0 0 0-1.19-.118 2.07 2.07 0 0 0-1.058.554c-.196.189-.351.414-.458.663s-.161.516-.161.786.055.538.161.787a2.02 2.02 0 0 0 .458.662h0zM268.894 743.845c.288.288.656.484 1.056.564s.817.04 1.195-.114.702-.415.929-.751.349-.732.349-1.137-.121-.799-.349-1.136-.551-.597-.929-.751a2.08 2.08 0 0 0-1.195-.114c-.4.08-.768.276-1.056.563-.196.187-.351.41-.457.657a1.98 1.98 0 0 0-.161.781c0 .269.055.535.161.782a1.98 1.98 0 0 0 .457.656h0zm327.243 55.261c.19.194.418.348.669.453a2.07 2.07 0 0 0 .796.16c.273 0 .543-.055.795-.16s.479-.259.669-.453c.288-.286.483-.65.561-1.046a2.01 2.01 0 0 0-.12-1.177c-.157-.372-.421-.691-.76-.914a2.08 2.08 0 0 0-2.291 0c-.339.223-.603.542-.76.914a2.02 2.02 0 0 0-.12 1.177c.078.396.274.76.561 1.046z" fill="#604f72"/></svg>