<svg xmlns="http://www.w3.org/2000/svg" xmlns:xlink="http://www.w3.org/1999/xlink" width="763" height="406" fill="none" xmlns:v="https://vecta.io/nano"><style><![CDATA[.B{fill-rule:evenodd}]]></style><g fill="#779bff"><path d="M479.196 342.619c-.202.756-.626 1.437-1.218 1.956a4.04 4.04 0 0 1-2.112.962c-.784.108-1.583-.015-2.297-.355a3.99 3.99 0 0 1-1.713-1.553 3.93 3.93 0 0 1 .237-4.389c.473-.627 1.124-1.102 1.87-1.365a4.06 4.06 0 0 1 2.323-.112 4.03 4.03 0 0 1 1.426.668 3.98 3.98 0 0 1 1.056 1.16c.271.451.448.952.521 1.471s.042 1.049-.093 1.557z" class="B"/><path d="M397.992 106.284c2.218 0 4.016-1.776 4.016-3.966s-1.798-3.965-4.016-3.965-4.015 1.775-4.015 3.965 1.798 3.966 4.015 3.966z"/><path d="M215.187 196.16c-.202.756-.625 1.437-1.218 1.956a4.04 4.04 0 0 1-2.111.962c-.785.108-1.584-.016-2.298-.355a4.01 4.01 0 0 1-1.713-1.553 3.93 3.93 0 0 1-.554-2.23c.043-.781.318-1.533.791-2.16a4.01 4.01 0 0 1 1.87-1.364 4.06 4.06 0 0 1 2.323-.112c.516.127 1.001.354 1.427.668a3.99 3.99 0 0 1 1.056 1.159c.27.452.447.952.521 1.472a3.93 3.93 0 0 1-.094 1.557zM80.964 8.146c-.199.758-.621 1.441-1.212 1.962a4.04 4.04 0 0 1-2.111.969 4.06 4.06 0 0 1-2.3-.351 3.99 3.99 0 0 1-1.717-1.552 3.93 3.93 0 0 1-.557-2.232c.041-.782.317-1.534.79-2.162a4.01 4.01 0 0 1 1.872-1.366c.747-.263 1.556-.301 2.325-.111a4.04 4.04 0 0 1 1.423.667c.425.313.783.706 1.054 1.156s.448.949.523 1.467a3.92 3.92 0 0 1-.089 1.552h0zm-17.46 124.361a3.96 3.96 0 0 1-1.212 1.962 4.04 4.04 0 0 1-2.111.968c-.785.11-1.586-.012-2.3-.35s-1.312-.879-1.717-1.552a3.93 3.93 0 0 1 .233-4.393c.473-.627 1.125-1.103 1.872-1.366s1.556-.301 2.325-.111a4.03 4.03 0 0 1 1.423.667c.425.313.783.705 1.054 1.155a3.94 3.94 0 0 1 .523 1.467 3.92 3.92 0 0 1-.089 1.553h0zm165.898-5c-.199.757-.621 1.44-1.212 1.962a4.04 4.04 0 0 1-2.111.968c-.785.11-1.585-.012-2.3-.351a3.99 3.99 0 0 1-1.717-1.551 3.92 3.92 0 0 1-.557-2.232c.042-.782.317-1.534.79-2.162s1.126-1.103 1.872-1.365a4.06 4.06 0 0 1 2.325-.111c.515.127.998.354 1.423.667a3.98 3.98 0 0 1 1.054 1.155c.27.45.448.949.522 1.467a3.91 3.91 0 0 1-.089 1.553h0z" class="B"/><path d="M522.816 373.641c1.567 0 2.838-1.255 2.838-2.802s-1.271-2.801-2.838-2.801-2.837 1.254-2.837 2.801 1.27 2.802 2.837 2.802zM168.234 186.705c1.567 0 2.838-1.254 2.838-2.802s-1.271-2.801-2.838-2.801-2.837 1.254-2.837 2.801 1.27 2.802 2.837 2.802zm256.614 115.128c.4-1.496-.503-3.029-2.018-3.425s-3.068.497-3.468 1.993.503 3.029 2.018 3.425 3.068-.497 3.468-1.993zm174.079-116.55c1.567 0 2.837-1.255 2.837-2.802s-1.27-2.802-2.837-2.802-2.837 1.255-2.837 2.802 1.27 2.802 2.837 2.802zm-28.663 115.494c1.567 0 2.837-1.254 2.837-2.801s-1.27-2.802-2.837-2.802-2.838 1.255-2.838 2.802 1.271 2.801 2.838 2.801z"/><path d="M412.615 264.612a2.06 2.06 0 0 1-.973 1.237c-.477.269-1.043.341-1.573.2a2.09 2.09 0 0 1-1.183-.978 2.04 2.04 0 0 1-.184-1.512 2.07 2.07 0 0 1 .913-1.227c.451-.279.993-.379 1.516-.277a2.09 2.09 0 0 1 .744.355c.222.166.407.375.546.614a2.03 2.03 0 0 1 .26.774c.033.273.011.55-.066.814h0zm-127.341-64.63c-.141.528-.488.979-.966 1.253a2.11 2.11 0 0 1-1.58.212c-.534-.139-.991-.482-1.27-.953a2.03 2.03 0 0 1-.214-1.561 2.06 2.06 0 0 1 .356-.721c.166-.215.373-.396.61-.532a2.09 2.09 0 0 1 .768-.261c.272-.037.547-.02.812.049a2.09 2.09 0 0 1 .731.352c.218.163.401.368.538.601a2.06 2.06 0 0 1 .265.76 2.02 2.02 0 0 1-.05.801zM89.723 210.974a2.05 2.05 0 0 1-.357.722 2.08 2.08 0 0 1-.609.531 2.1 2.1 0 0 1-.769.262c-.271.036-.547.019-.812-.05a2.09 2.09 0 0 1-.731-.352 2.06 2.06 0 0 1-.539-.601 2.05 2.05 0 0 1-.265-.759 2.03 2.03 0 0 1 .05-.802 2.06 2.06 0 0 1 .966-1.253 2.11 2.11 0 0 1 1.581-.212 2.08 2.08 0 0 1 1.269.953c.278.472.356 1.033.215 1.561zm12.207-45.62c-.107.393-.33.745-.64 1.013a2.09 2.09 0 0 1-1.103.49c-.409.052-.824-.017-1.193-.198a2.07 2.07 0 0 1-.879-.82 2.04 2.04 0 0 1 .164-2.28 2.08 2.08 0 0 1 .988-.689 2.11 2.11 0 0 1 1.209-.031c.264.07.51.191.726.355a2.06 2.06 0 0 1 .532.603c.135.234.222.492.256.759a2.01 2.01 0 0 1-.059.798h0zm68.822-107.089a2.05 2.05 0 0 1-.641 1.013 2.09 2.09 0 0 1-1.103.49 2.11 2.11 0 0 1-1.193-.198 2.07 2.07 0 0 1-.879-.82 2.03 2.03 0 0 1-.269-1.165 2.04 2.04 0 0 1 .433-1.115c.252-.321.596-.561.987-.689a2.11 2.11 0 0 1 1.21-.03 2.08 2.08 0 0 1 1.252.961c.273.471.345 1.029.203 1.553h0z" class="B"/><path d="M486.616 329.73a1.33 1.33 0 0 0 1.339-1.321c0-.73-.6-1.322-1.339-1.322a1.33 1.33 0 0 0-1.338 1.322 1.33 1.33 0 0 0 1.338 1.321z"/><path d="M416.544 298.292a1.33 1.33 0 0 1-.626.804 1.34 1.34 0 0 1-1.019.13 1.34 1.34 0 0 1-.468-.224 1.32 1.32 0 0 1-.345-.385 1.31 1.31 0 0 1-.168-.487c-.022-.172-.01-.346.036-.513a1.35 1.35 0 0 1 .229-.464c.106-.138.24-.254.392-.341s.32-.145.494-.168a1.35 1.35 0 0 1 .522.032 1.34 1.34 0 0 1 .469.226 1.33 1.33 0 0 1 .346.387 1.31 1.31 0 0 1 .17.488c.023.172.013.347-.032.515h0zm-6.737 30.318c-.089.339-.311.629-.616.807s-.67.228-1.014.141a1.34 1.34 0 0 1-.469-.226 1.33 1.33 0 0 1-.346-.387 1.31 1.31 0 0 1-.17-.488c-.023-.172-.012-.347.032-.515a1.31 1.31 0 0 1 .23-.464 1.32 1.32 0 0 1 .391-.341c.152-.088.32-.145.495-.168s.351-.013.521.032a1.32 1.32 0 0 1 .469.224c.139.105.257.235.345.385s.145.315.167.487.011.346-.035.513h0zm18.653-3.334c-.046.168-.124.326-.232.464s-.241.254-.394.34a1.38 1.38 0 0 1-.496.166 1.35 1.35 0 0 1-.522-.036c-.17-.044-.33-.121-.47-.226s-.257-.237-.346-.387a1.31 1.31 0 0 1-.169-.488c-.024-.172-.013-.347.032-.515s.123-.326.229-.464.24-.254.392-.341.32-.145.494-.168a1.35 1.35 0 0 1 1.34.649 1.32 1.32 0 0 1 .142 1.006h0zm-36.084-3.419a1.32 1.32 0 0 1-.229.463 1.34 1.34 0 0 1-.392.342c-.152.087-.32.144-.494.168a1.37 1.37 0 0 1-.522-.032 1.36 1.36 0 0 1-.469-.227 1.32 1.32 0 0 1-.346-.387c-.089-.15-.146-.315-.17-.488s-.013-.347.032-.515c.091-.339.314-.628.621-.805a1.36 1.36 0 0 1 1.016-.136 1.34 1.34 0 0 1 .816.614 1.31 1.31 0 0 1 .137 1.003zM2.627 266.423c-.044.167-.121.324-.227.462a1.32 1.32 0 0 1-.39.341c-.152.087-.319.143-.493.165a1.32 1.32 0 0 1-.519-.035 1.34 1.34 0 0 1-.816-.613 1.31 1.31 0 0 1-.138-1.003c.091-.339.314-.629.621-.805a1.36 1.36 0 0 1 1.016-.136c.17.045.33.123.47.229s.257.238.345.389a1.31 1.31 0 0 1 .131 1.006h0zm436.091 39.7a.68.68 0 0 1-.317.405c-.155.088-.339.113-.513.069a.67.67 0 0 1-.406-.309.65.65 0 0 1-.066-.503.66.66 0 0 1 .313-.401.68.68 0 0 1 .509-.066.67.67 0 0 1 .408.305c.09.151.116.33.072.5zm-206.58 99.143a.84.84 0 0 1-.397.489.86.86 0 0 1-.63.077c-.212-.056-.393-.192-.506-.378a.83.83 0 0 1-.097-.619c.061-.211.203-.39.396-.5a.87.87 0 0 1 .637-.089c.216.058.4.197.512.389a.82.82 0 0 1 .085.631h0z" class="B"/><use xlink:href="#B"/><path d="M139.149 219.021a.66.66 0 0 1-.308.403.68.68 0 0 1-.507.071c-.17-.051-.315-.163-.404-.316a.68.68 0 0 1-.076-.503.68.68 0 0 1 .118-.232c.055-.069.123-.126.2-.169s.162-.07.25-.08a.68.68 0 0 1 .262.021.67.67 0 0 1 .233.112c.07.053.128.118.171.193a.64.64 0 0 1 .082.244.65.65 0 0 1-.021.256zm221.421 57.072a.68.68 0 0 1-.316.404.69.69 0 0 1-.513.07.67.67 0 0 1-.407-.309c-.089-.153-.112-.333-.066-.503s.159-.314.313-.402a.68.68 0 0 1 .509-.065c.169.047.314.157.404.307a.67.67 0 0 1 .076.498h0zm-92.334-17.86a.68.68 0 0 1-.316.404.69.69 0 0 1-.513.07.67.67 0 0 1-.4-.309.65.65 0 0 1-.066-.496.64.64 0 0 1 .11-.235c.053-.07.119-.129.195-.174s.161-.073.248-.084a.66.66 0 0 1 .262.019c.172.044.319.153.409.304s.115.331.071.501h0zM45.171 203.661a.68.68 0 0 1-.317.404.69.69 0 0 1-.513.07c-.169-.047-.312-.158-.399-.309a.65.65 0 0 1-.066-.496.64.64 0 0 1 .11-.235c.052-.07.119-.129.195-.174a.66.66 0 0 1 .51-.065.68.68 0 0 1 .404.307.67.67 0 0 1 .077.498h0zm-22.872-8.249a.66.66 0 0 1-.113.23c-.052.068-.118.125-.193.169a.68.68 0 0 1-.244.083.66.66 0 0 1-.258-.015.68.68 0 0 1-.232-.111.66.66 0 0 1-.171-.191.65.65 0 0 1-.084-.241.64.64 0 0 1 .128-.483.66.66 0 0 1 .193-.169.68.68 0 0 1 .244-.084.68.68 0 0 1 .258.016.65.65 0 0 1 .232.111c.069.052.128.116.171.19a.65.65 0 0 1 .085.241.64.64 0 0 1-.015.254zm403.92 118.6a.68.68 0 0 1-.114.236c-.054.07-.122.129-.199.173a.68.68 0 0 1-.251.084c-.089.011-.179.004-.265-.019a.67.67 0 0 1-.407-.31.66.66 0 0 1-.066-.502c.046-.17.159-.314.313-.402a.68.68 0 0 1 .509-.065c.17.047.314.157.404.307a.67.67 0 0 1 .076.498h0zm-122.757-31.338c-.021.085-.058.165-.111.235s-.118.129-.194.173a.68.68 0 0 1-.249.085c-.088.012-.176.004-.261-.019s-.165-.062-.235-.115-.128-.119-.172-.194-.072-.159-.084-.245a.66.66 0 0 1 .134-.49.7.7 0 0 1 .197-.17.68.68 0 0 1 .248-.082c.087-.011.176-.006.261.017a.67.67 0 0 1 .399.308c.088.151.111.329.067.497h0z" class="B"/><path d="M132.165 240.631c.37 0 .669-.296.669-.661s-.299-.661-.669-.661-.669.296-.669.661.3.661.669.661zm303.206 54.931a1.33 1.33 0 0 0 1.339-1.322 1.33 1.33 0 0 0-1.339-1.322 1.33 1.33 0 0 0-1.338 1.322 1.33 1.33 0 0 0 1.338 1.322z"/><path d="M377.608 277.803a1.32 1.32 0 0 1-.404.655 1.35 1.35 0 0 1-.705.324 1.36 1.36 0 0 1-.768-.118 1.34 1.34 0 0 1-.573-.52 1.31 1.31 0 0 1 .085-1.467c.159-.209.378-.366.628-.452a1.36 1.36 0 0 1 .777-.032c.343.088.637.307.817.609a1.31 1.31 0 0 1 .143 1.001h0zM146.41 159.606a1.32 1.32 0 0 1-.617.807c-.305.178-.67.229-1.013.142a1.37 1.37 0 0 1-.557-.174 1.34 1.34 0 0 1-.428-.392c-.112-.16-.187-.342-.219-.534a1.3 1.3 0 0 1 .032-.575c.054-.187.147-.361.276-.508s.29-.264.47-.343a1.37 1.37 0 0 1 .572-.113 1.36 1.36 0 0 1 .567.139c.325.094.6.307.771.595a1.3 1.3 0 0 1 .146.956h0zm296.891-28.105a1.32 1.32 0 0 1-.399.656 1.34 1.34 0 0 1-.7.328 1.35 1.35 0 0 1-.767-.11c-.239-.11-.439-.288-.576-.511s-.204-.48-.194-.741.1-.511.255-.722a1.34 1.34 0 0 1 .618-.462c.248-.091.517-.107.774-.047a1.36 1.36 0 0 1 .482.214c.144.103.266.233.359.383a1.29 1.29 0 0 1 .148 1.012h0zm-26.35-96.14c-.091.339-.314.629-.621.805a1.36 1.36 0 0 1-1.016.136 1.33 1.33 0 0 1-.815-.613 1.31 1.31 0 0 1 .092-1.467c.106-.138.239-.254.391-.342a1.35 1.35 0 0 1 .494-.168 1.36 1.36 0 0 1 .522.032 1.35 1.35 0 0 1 .816.613 1.31 1.31 0 0 1 .169.488c.024.172.013.347-.032.515zm-93.687 274.383c-.046.168-.124.326-.232.464a1.33 1.33 0 0 1-.394.34c-.152.087-.321.143-.496.165a1.37 1.37 0 0 1-.522-.035c-.17-.045-.33-.122-.47-.227a1.33 1.33 0 0 1-.346-.386c-.088-.151-.146-.316-.169-.488s-.013-.348.032-.515.123-.326.229-.464a1.34 1.34 0 0 1 .392-.342 1.35 1.35 0 0 1 1.016-.136c.344.092.638.313.818.617a1.32 1.32 0 0 1 .142 1.007h0zM140.139 156.618a1.33 1.33 0 0 1-.622.805c-.306.176-.672.225-1.015.136s-.637-.31-.816-.614-.228-.663-.137-1.003.314-.628.621-.805a1.36 1.36 0 0 1 1.016-.136 1.34 1.34 0 0 1 .815.614 1.31 1.31 0 0 1 .138 1.003zm-1.572-79.847a1.32 1.32 0 0 1-.404.656c-.197.174-.443.287-.705.323s-.53-.004-.768-.118a1.33 1.33 0 0 1-.572-.52c-.134-.226-.199-.485-.184-.746s.109-.512.268-.721.378-.366.628-.452.52-.097.777-.031a1.34 1.34 0 0 1 .817.608c.18.301.232.662.143 1.001h0z" class="B"/><path d="M87.497 66.138a1.33 1.33 0 0 0 1.339-1.322 1.33 1.33 0 0 0-1.339-1.322 1.33 1.33 0 0 0-1.339 1.322 1.33 1.33 0 0 0 1.339 1.322z"/><path d="M268.876 35.045a1.32 1.32 0 0 1-.404.656 1.34 1.34 0 0 1-.705.323c-.262.036-.529-.005-.768-.118a1.32 1.32 0 0 1-.572-.52c-.134-.226-.198-.485-.183-.746s.108-.512.267-.721a1.34 1.34 0 0 1 .628-.452c.25-.086.521-.097.777-.031a1.34 1.34 0 0 1 .817.608c.18.301.232.662.143 1.001zm117.142-5.015c-.046.168-.124.326-.232.464s-.241.254-.394.34a1.35 1.35 0 0 1-.496.165 1.37 1.37 0 0 1-.522-.035 1.33 1.33 0 0 1-.658-.407 1.32 1.32 0 0 1-.319-.699 1.31 1.31 0 0 1 .128-.756 1.34 1.34 0 0 1 1.289-.732 1.35 1.35 0 0 1 .726.271 1.32 1.32 0 0 1 .452.623 1.31 1.31 0 0 1 .026.766h0zM99.675 157.652c-.091.339-.314.629-.621.805a1.35 1.35 0 0 1-1.016.136 1.34 1.34 0 0 1-.816-.613 1.31 1.31 0 0 1-.138-1.003c.045-.168.123-.326.229-.464a1.33 1.33 0 0 1 .392-.341c.152-.088.32-.145.494-.168a1.37 1.37 0 0 1 .522.032 1.34 1.34 0 0 1 .815.613 1.31 1.31 0 0 1 .17.488c.024.172.013.347-.032.515zm-11.16-96.657a1.32 1.32 0 0 1-.412.65 1.34 1.34 0 0 1-.708.314 1.36 1.36 0 0 1-.766-.127 1.33 1.33 0 0 1-.566-.525 1.31 1.31 0 0 1 .099-1.464 1.34 1.34 0 0 1 .631-.446 1.35 1.35 0 0 1 .776-.025 1.33 1.33 0 0 1 .473.226 1.31 1.31 0 0 1 .347.389 1.29 1.29 0 0 1 .166.492 1.31 1.31 0 0 1-.04.517zm70.873 18.478c-.091.339-.314.629-.621.805a1.36 1.36 0 0 1-1.016.136 1.33 1.33 0 0 1-.815-.613 1.31 1.31 0 0 1 .092-1.467c.106-.138.239-.254.391-.342a1.35 1.35 0 0 1 .494-.168 1.36 1.36 0 0 1 .522.032 1.35 1.35 0 0 1 .47.227c.14.105.257.237.346.387a1.31 1.31 0 0 1 .169.488c.024.172.013.347-.032.515h0zm128.403-21.467a1.31 1.31 0 0 1-.231.464 1.35 1.35 0 0 1-.394.34c-.153.087-.322.143-.497.165a1.37 1.37 0 0 1-.522-.035c-.17-.045-.329-.121-.469-.227a1.32 1.32 0 0 1-.346-.387c-.089-.15-.147-.316-.17-.488s-.013-.347.032-.515a1.31 1.31 0 0 1 .23-.464c.106-.138.239-.254.391-.342a1.35 1.35 0 0 1 .494-.168 1.36 1.36 0 0 1 .522.032 1.35 1.35 0 0 1 .818.617 1.32 1.32 0 0 1 .142 1.007zm89.046 154.865c-.089.339-.311.629-.616.807a1.36 1.36 0 0 1-1.014.141c-.17-.044-.329-.121-.469-.227a1.33 1.33 0 0 1-.346-.386 1.31 1.31 0 0 1-.17-.488c-.024-.172-.013-.347.032-.515a1.31 1.31 0 0 1 .23-.464c.106-.138.239-.254.391-.342a1.35 1.35 0 0 1 .495-.167c.174-.024.351-.013.521.032a1.32 1.32 0 0 1 .469.224c.139.104.257.235.344.385a1.3 1.3 0 0 1 .168.487 1.29 1.29 0 0 1-.035.513h0zM185.374 68.38a1.31 1.31 0 0 1-.231.464 1.35 1.35 0 0 1-.394.341c-.153.087-.322.143-.497.165a1.35 1.35 0 0 1-.522-.035c-.343-.09-.637-.31-.815-.613a1.31 1.31 0 0 1-.138-1.003c.091-.339.314-.629.621-.805a1.36 1.36 0 0 1 1.016-.136 1.35 1.35 0 0 1 .818.617 1.32 1.32 0 0 1 .142 1.007zM67.898 12.098c-.046.168-.124.326-.232.464s-.241.254-.394.341a1.34 1.34 0 0 1-.496.165 1.37 1.37 0 0 1-.522-.035c-.331-.099-.61-.32-.779-.617s-.216-.648-.129-.979.299-.615.593-.794.647-.239.985-.167a1.35 1.35 0 0 1 .827.613 1.32 1.32 0 0 1 .147 1.011z" class="B"/><use xlink:href="#C"/><path d="M198.775 2.644a1.33 1.33 0 0 0 1.338-1.322A1.33 1.33 0 0 0 198.775 0a1.33 1.33 0 0 0-1.339 1.322 1.33 1.33 0 0 0 1.339 1.322z"/><path d="M444.48 222.713c-.038.174-.112.339-.216.485a1.35 1.35 0 0 1-.39.362 1.37 1.37 0 0 1-.503.182 1.38 1.38 0 0 1-.535-.027c-.175-.045-.338-.124-.481-.233a1.33 1.33 0 0 1-.515-.903c-.019-.177-.003-.356.05-.527.1-.326.324-.602.625-.769a1.35 1.35 0 0 1 .991-.128c.334.085.623.295.804.586a1.31 1.31 0 0 1 .17.972z" class="B"/><path d="M611.618 169.945c.567-2.117-.712-4.287-2.857-4.847s-4.341.704-4.908 2.821.713 4.287 2.857 4.847 4.342-.704 4.908-2.821zm100.598 72.754c.566-2.117-.713-4.287-2.857-4.846s-4.342.703-4.908 2.82.712 4.288 2.856 4.847 4.342-.703 4.909-2.821zm49.821-95.331c.4-1.496-.503-3.029-2.018-3.425s-3.068.497-3.468 1.993.503 3.029 2.018 3.425 3.068-.497 3.468-1.993z"/><path d="M672.201 162.624c.496-.299 1.071-.445 1.652-.419a2.94 2.94 0 0 1 1.605.568c.466.343.817.816 1.008 1.358s.213 1.129.064 1.683-.463 1.053-.902 1.429a2.92 2.92 0 0 1-1.558.685c-.577.07-1.162-.033-1.679-.295s-.943-.67-1.223-1.173a2.84 2.84 0 0 1-.262-2.123c.192-.714.656-1.328 1.295-1.713h0z" class="B"/><path d="M673.859 236.047a1.33 1.33 0 0 0 1.339-1.322 1.33 1.33 0 0 0-1.339-1.321 1.33 1.33 0 0 0-1.338 1.321 1.33 1.33 0 0 0 1.338 1.322zm-39.372-134.174c.37 0 .669-.296.669-.661s-.299-.66-.669-.66-.669.295-.669.66.3.661.669.661z"/><use xlink:href="#C" x="213.433" y="-58.983"/><use xlink:href="#D"/><use xlink:href="#D" x="-15.132" y="-106.184"/><path d="M545.878 154.117a1.33 1.33 0 0 0 1.339-1.321c0-.73-.6-1.322-1.339-1.322s-1.339.592-1.339 1.322a1.33 1.33 0 0 0 1.339 1.321zm188.553 51.871c.369 0 .669-.296.669-.661s-.3-.66-.669-.66-.67.295-.67.66.3.661.67.661z"/><use xlink:href="#B" x="263.514" y="54.787"/><path d="M567.019 195.959c.739 0 1.339-.592 1.339-1.322s-.6-1.322-1.339-1.322a1.33 1.33 0 0 0-1.338 1.322 1.33 1.33 0 0 0 1.338 1.322zm33.712-34.126c1.567 0 2.837-1.254 2.837-2.802s-1.27-2.801-2.837-2.801-2.837 1.254-2.837 2.801 1.27 2.802 2.837 2.802z"/><use xlink:href="#C" x="261.637" y="1.552"/><path d="M614.205 139.964a1.33 1.33 0 0 0 1.338-1.321 1.33 1.33 0 0 0-1.338-1.322 1.33 1.33 0 0 0-1.339 1.322 1.33 1.33 0 0 0 1.339 1.321z"/><path d="M592.569 143.873a.66.66 0 0 1 .248-.083c.087-.011.176-.005.261.018s.165.061.235.114.129.12.172.195.073.159.084.245a.64.64 0 0 1-.017.258.66.66 0 0 1-.117.232c-.053.069-.12.127-.197.17a.68.68 0 0 1-.509.066c-.172-.046-.319-.158-.408-.31a.66.66 0 0 1-.066-.503c.047-.17.159-.314.314-.402h0z" class="B"/><path d="M607.395 148.255c.37 0 .669-.296.669-.661s-.299-.661-.669-.661-.669.296-.669.661.3.661.669.661z"/><path d="M585.745 153.471c.307-.177.672-.227 1.016-.138s.638.309.817.612a1.31 1.31 0 0 1 .14 1.004c-.09.339-.313.629-.62.806-.152.088-.32.145-.494.169a1.35 1.35 0 0 1-.522-.031c-.17-.044-.33-.12-.47-.225s-.258-.237-.347-.387-.147-.315-.171-.488-.013-.347.031-.515a1.31 1.31 0 0 1 .229-.464c.106-.139.239-.255.391-.343h0zm41.642 172.524c.495-.302 1.07-.45 1.65-.426s1.142.22 1.609.562a2.88 2.88 0 0 1 1.014 1.355c.193.541.217 1.128.07 1.683s-.46 1.054-.898 1.433a2.92 2.92 0 0 1-1.556.689 2.93 2.93 0 0 1-1.681-.29 2.9 2.9 0 0 1-1.227-1.17 2.84 2.84 0 0 1-.268-2.119c.19-.715.65-1.329 1.287-1.717h0z" class="B"/><path d="M654.624 249.582c1.567 0 2.838-1.254 2.838-2.801s-1.271-2.802-2.838-2.802-2.837 1.254-2.837 2.802 1.27 2.801 2.837 2.801zm-493.956-34.599c1.567 0 2.838-1.255 2.838-2.802s-1.271-2.802-2.838-2.802-2.837 1.255-2.837 2.802 1.271 2.802 2.837 2.802z"/><path d="M609.374 360.839c.357-.203.767-.297 1.178-.272a2.11 2.11 0 0 1 1.133.417 2.07 2.07 0 0 1 .712.966 2.04 2.04 0 0 1 .052 1.193 2.07 2.07 0 0 1-.624 1.023 2.11 2.11 0 0 1-1.093.512c-.408.06-.824.001-1.198-.17a2.09 2.09 0 0 1-.902-.796c-.15-.234-.251-.497-.295-.771a2.02 2.02 0 0 1 .039-.823c.07-.269.194-.521.365-.741a2.05 2.05 0 0 1 .633-.538h0zm21.359-26.553a1.3 1.3 0 0 1 .491-.173 1.32 1.32 0 0 1 .52.029c.17.045.329.122.468.228a1.31 1.31 0 0 1 .511.878c.024.172.014.347-.031.515a1.32 1.32 0 0 1-.229.465c-.107.139-.239.254-.391.342a1.37 1.37 0 0 1-1.018.127c-.343-.092-.636-.313-.815-.615s-.22-.663-.127-.999a1.32 1.32 0 0 1 .621-.797h0z" class="B"/><path d="M657.869 320.003a1.33 1.33 0 0 0 1.338-1.322 1.33 1.33 0 0 0-1.338-1.322c-.739 0-1.339.592-1.339 1.322s.6 1.322 1.339 1.322z"/><path d="M701.577 247.629a1.35 1.35 0 0 1 1.016-.138c.344.089.638.309.817.612s.23.663.14 1.003-.313.63-.62.807c-.309.172-.675.218-1.018.127a1.35 1.35 0 0 1-.815-.616c-.089-.148-.147-.313-.171-.484a1.28 1.28 0 0 1 .032-.512c.044-.167.122-.324.228-.461a1.32 1.32 0 0 1 .391-.338h0z" class="B"/><path d="M642.3 309.341a1.33 1.33 0 0 0 1.339-1.321 1.33 1.33 0 0 0-1.339-1.322 1.33 1.33 0 0 0-1.338 1.322 1.33 1.33 0 0 0 1.338 1.321z"/><use xlink:href="#B" x="338.126" y="47.675"/><path d="M581.831 359.373a.69.69 0 0 1 .508-.06.68.68 0 0 1 .409.304c.065.114.095.244.086.374s-.057.255-.138.358a.67.67 0 0 1-.316.222c-.125.042-.26.046-.388.012s-.242-.104-.329-.203-.143-.219-.16-.349a.66.66 0 0 1 .063-.378.67.67 0 0 1 .265-.28zm72.59 29.686a.68.68 0 0 1 .509-.066c.172.046.318.158.407.31a.65.65 0 0 1 .066.503.66.66 0 0 1-.313.402c-.155.088-.338.111-.51.066a.67.67 0 0 1-.407-.31c-.089-.152-.112-.333-.066-.503a.66.66 0 0 1 .314-.402h0z" class="B"/><path d="M635.491 317.632c.37 0 .669-.296.669-.661s-.299-.66-.669-.66-.669.295-.669.66.299.661.669.661z"/><path d="M613.841 322.848c.307-.177.672-.227 1.016-.138s.638.309.817.612.23.664.14 1.004a1.33 1.33 0 0 1-.62.807c-.152.087-.32.145-.494.168a1.35 1.35 0 0 1-.522-.03c-.17-.045-.33-.121-.47-.226a1.32 1.32 0 0 1-.347-.386 1.31 1.31 0 0 1-.171-.488 1.3 1.3 0 0 1 .031-.516 1.31 1.31 0 0 1 .229-.464c.106-.139.239-.255.391-.343h0zm-88.1-23.823c.152-.088.32-.145.494-.169a1.35 1.35 0 0 1 .522.031 1.34 1.34 0 0 1 .471.226c.14.105.258.236.346.386a1.32 1.32 0 0 1 .128 1.005c-.092.339-.316.628-.622.805a1.31 1.31 0 0 1-.491.173c-.174.025-.351.015-.521-.029a1.31 1.31 0 0 1-.467-.228c-.139-.106-.254-.239-.34-.39a1.39 1.39 0 0 1-.172-.488 1.28 1.28 0 0 1 .032-.515 1.32 1.32 0 0 1 .228-.465c.107-.138.24-.254.392-.342h0zm117.854 76.93c.152-.088.32-.146.495-.17a1.37 1.37 0 0 1 .522.031c.17.044.33.121.47.226s.258.237.347.387a1.32 1.32 0 0 1 .128 1.005c-.093.339-.316.628-.623.805-.305.152-.657.183-.985.087a1.34 1.34 0 0 1-.777-.605 1.31 1.31 0 0 1-.144-.966 1.32 1.32 0 0 1 .567-.8h0z" class="B"/></g><defs ><path id="B" d="M282.873 266.811c.37 0 .67-.296.67-.661s-.3-.661-.67-.661-.669.296-.669.661.3.661.669.661z"/><path id="C" d="M368.136 149.074c.739 0 1.339-.592 1.339-1.322s-.6-1.322-1.339-1.322-1.339.592-1.339 1.322.6 1.322 1.339 1.322z"/><path id="D" d="M709.245 308.609a1.33 1.33 0 0 0 1.338-1.322 1.33 1.33 0 0 0-1.338-1.322 1.33 1.33 0 0 0-1.339 1.322 1.33 1.33 0 0 0 1.339 1.322z"/></defs></svg>