<svg width="958" height="1923" viewBox="0 0 958 1923" fill="none" xmlns="http://www.w3.org/2000/svg">
<path fill-rule="evenodd" clip-rule="evenodd" d="M479.196 342.619C478.994 343.375 478.571 344.056 477.978 344.575C477.386 345.094 476.651 345.429 475.867 345.537C475.082 345.645 474.283 345.522 473.569 345.182C472.856 344.843 472.26 344.302 471.856 343.629C471.453 342.956 471.26 342.18 471.302 341.399C471.344 340.618 471.619 339.867 472.093 339.24C472.566 338.613 473.217 338.138 473.963 337.875C474.709 337.612 475.517 337.573 476.286 337.763C476.802 337.89 477.287 338.117 477.713 338.431C478.139 338.745 478.498 339.139 478.768 339.591C479.039 340.042 479.216 340.543 479.29 341.062C479.363 341.582 479.331 342.111 479.196 342.619Z" fill="#779BFF"/>
<path d="M397.993 106.284C400.21 106.284 402.008 104.508 402.008 102.318C402.008 100.128 400.21 98.353 397.993 98.353C395.775 98.353 393.977 100.128 393.977 102.318C393.977 104.508 395.775 106.284 397.993 106.284Z" fill="#779BFF"/>
<path fill-rule="evenodd" clip-rule="evenodd" d="M215.187 196.159C214.985 196.916 214.562 197.596 213.969 198.116C213.377 198.635 212.642 198.97 211.858 199.078C211.073 199.186 210.274 199.062 209.56 198.723C208.847 198.383 208.251 197.843 207.847 197.17C207.444 196.497 207.251 195.721 207.293 194.94C207.335 194.159 207.611 193.407 208.084 192.78C208.557 192.153 209.208 191.678 209.954 191.416C210.7 191.153 211.508 191.114 212.277 191.303C212.793 191.431 213.278 191.658 213.704 191.971C214.13 192.285 214.489 192.679 214.759 193.131C215.03 193.583 215.207 194.083 215.281 194.603C215.354 195.123 215.322 195.652 215.187 196.159Z" fill="#779BFF"/>
<path fill-rule="evenodd" clip-rule="evenodd" d="M80.9636 8.14643C80.7646 8.90426 80.3428 9.58695 79.7514 10.1084C79.16 10.6299 78.4255 10.9669 77.6405 11.0769C76.8555 11.1868 76.055 11.0648 75.3401 10.7263C74.6252 10.3878 74.0277 9.84787 73.6231 9.17459C73.2184 8.50132 73.0247 7.72483 73.0662 6.94299C73.1078 6.16115 73.3828 5.40896 73.8566 4.78122C74.3304 4.15348 74.9819 3.67828 75.7288 3.41553C76.4756 3.15278 77.2846 3.11422 78.0537 3.30473C78.5678 3.43209 79.0513 3.65869 79.4763 3.97147C79.9013 4.28425 80.2594 4.67701 80.5299 5.12711C80.8004 5.57721 80.978 6.07574 81.0525 6.59395C81.1269 7.11216 81.0967 7.63979 80.9636 8.14643V8.14643Z" fill="#779BFF"/>
<path fill-rule="evenodd" clip-rule="evenodd" d="M63.5044 132.507C63.3053 133.264 62.8835 133.947 62.2921 134.469C61.7008 134.99 60.9663 135.327 60.1812 135.437C59.3962 135.547 58.5958 135.425 57.8809 135.086C57.1659 134.748 56.5685 134.208 56.1638 133.535C55.7592 132.861 55.5654 132.085 55.607 131.303C55.6486 130.521 55.9236 129.769 56.3974 129.141C56.8712 128.514 57.5226 128.038 58.2695 127.776C59.0164 127.513 59.8254 127.474 60.5944 127.665C61.1085 127.792 61.592 128.019 62.0171 128.332C62.4421 128.644 62.8001 129.037 63.0707 129.487C63.3412 129.937 63.5188 130.436 63.5932 130.954C63.6677 131.472 63.6375 132 63.5044 132.507V132.507Z" fill="#779BFF"/>
<path fill-rule="evenodd" clip-rule="evenodd" d="M229.402 127.507C229.203 128.264 228.781 128.947 228.19 129.469C227.599 129.99 226.864 130.327 226.079 130.437C225.294 130.547 224.494 130.425 223.779 130.087C223.064 129.748 222.466 129.208 222.062 128.535C221.657 127.862 221.463 127.085 221.505 126.303C221.546 125.521 221.822 124.769 222.295 124.141C222.769 123.514 223.421 123.039 224.167 122.776C224.914 122.513 225.723 122.474 226.492 122.665C227.006 122.792 227.49 123.019 227.915 123.332C228.34 123.644 228.698 124.037 228.969 124.487C229.239 124.937 229.417 125.436 229.491 125.954C229.566 126.472 229.535 127 229.402 127.507V127.507Z" fill="#779BFF"/>
<path d="M522.817 373.641C524.384 373.641 525.654 372.387 525.654 370.839C525.654 369.292 524.384 368.038 522.817 368.038C521.25 368.038 519.979 369.292 519.979 370.839C519.979 372.387 521.25 373.641 522.817 373.641Z" fill="#779BFF"/>
<path d="M168.235 186.705C169.802 186.705 171.072 185.451 171.072 183.904C171.072 182.356 169.802 181.102 168.235 181.102C166.668 181.102 165.397 182.356 165.397 183.904C165.397 185.451 166.668 186.705 168.235 186.705Z" fill="#779BFF"/>
<path d="M424.848 301.833C425.248 300.337 424.344 298.804 422.829 298.409C421.314 298.013 419.762 298.905 419.361 300.401C418.961 301.897 419.865 303.431 421.38 303.826C422.895 304.221 424.447 303.329 424.848 301.833Z" fill="#779BFF"/>
<path d="M598.927 185.283C600.494 185.283 601.764 184.029 601.764 182.481C601.764 180.934 600.494 179.68 598.927 179.68C597.36 179.68 596.09 180.934 596.09 182.481C596.09 184.029 597.36 185.283 598.927 185.283Z" fill="#779BFF"/>
<path d="M570.264 300.777C571.831 300.777 573.101 299.523 573.101 297.976C573.101 296.429 571.831 295.174 570.264 295.174C568.697 295.174 567.426 296.429 567.426 297.976C567.426 299.523 568.697 300.777 570.264 300.777Z" fill="#779BFF"/>
<path fill-rule="evenodd" clip-rule="evenodd" d="M412.615 264.612C412.469 265.135 412.119 265.58 411.642 265.849C411.165 266.118 410.6 266.19 410.069 266.049C409.563 265.883 409.14 265.534 408.886 265.071C408.632 264.609 408.566 264.068 408.702 263.56C408.837 263.051 409.164 262.612 409.615 262.332C410.066 262.053 410.608 261.954 411.131 262.055C411.401 262.123 411.654 262.244 411.875 262.41C412.097 262.577 412.282 262.785 412.421 263.024C412.559 263.262 412.648 263.526 412.681 263.798C412.715 264.071 412.692 264.348 412.615 264.612V264.612Z" fill="#779BFF"/>
<path fill-rule="evenodd" clip-rule="evenodd" d="M285.274 199.982C285.133 200.51 284.786 200.961 284.309 201.236C283.831 201.51 283.263 201.587 282.728 201.448C282.194 201.308 281.737 200.965 281.459 200.494C281.18 200.022 281.103 199.461 281.244 198.933C281.314 198.672 281.435 198.427 281.601 198.212C281.766 197.997 281.973 197.816 282.21 197.68C282.446 197.544 282.707 197.455 282.979 197.419C283.25 197.382 283.526 197.399 283.79 197.468C284.055 197.537 284.303 197.656 284.521 197.82C284.739 197.984 284.922 198.188 285.06 198.421C285.197 198.655 285.287 198.913 285.324 199.181C285.361 199.448 285.344 199.721 285.274 199.982Z" fill="#779BFF"/>
<path fill-rule="evenodd" clip-rule="evenodd" d="M89.7228 210.974C89.6531 211.235 89.5319 211.481 89.3662 211.696C89.2005 211.911 88.9935 212.091 88.7571 212.227C88.5206 212.364 88.2594 212.452 87.9882 212.489C87.717 212.525 87.4412 212.508 87.1766 212.439C86.912 212.371 86.6636 212.251 86.4458 212.087C86.228 211.924 86.045 211.719 85.9072 211.486C85.7694 211.252 85.6795 210.994 85.6427 210.727C85.6058 210.459 85.6228 210.187 85.6925 209.925C85.8333 209.397 86.1807 208.947 86.6582 208.672C87.1358 208.397 87.7043 208.321 88.2387 208.46C88.7732 208.599 89.2298 208.942 89.5081 209.413C89.7865 209.885 89.8637 210.446 89.7228 210.974Z" fill="#779BFF"/>
<path fill-rule="evenodd" clip-rule="evenodd" d="M101.93 165.354C101.823 165.747 101.6 166.099 101.29 166.367C100.98 166.635 100.596 166.806 100.187 166.858C99.7784 166.91 99.3632 166.84 98.9943 166.659C98.6253 166.478 98.3192 166.192 98.1148 165.839C97.9103 165.486 97.8167 165.081 97.8458 164.675C97.875 164.269 98.0255 163.881 98.2784 163.559C98.5313 163.238 98.8751 162.998 99.2662 162.87C99.6573 162.742 100.078 162.731 100.475 162.84C100.739 162.909 100.985 163.03 101.201 163.195C101.417 163.359 101.598 163.564 101.733 163.798C101.868 164.031 101.955 164.289 101.989 164.556C102.023 164.823 102.003 165.094 101.93 165.354V165.354Z" fill="#779BFF"/>
<path fill-rule="evenodd" clip-rule="evenodd" d="M170.752 58.2646C170.645 58.6575 170.422 59.0102 170.111 59.2779C169.801 59.5456 169.417 59.7163 169.008 59.7683C168.6 59.8203 168.184 59.7512 167.816 59.5699C167.447 59.3887 167.14 59.1033 166.936 58.7499C166.732 58.3966 166.638 57.9913 166.667 57.5854C166.696 57.1795 166.847 56.7913 167.1 56.47C167.352 56.1487 167.696 55.9088 168.087 55.7806C168.479 55.6525 168.899 55.642 169.297 55.7504C169.826 55.8948 170.276 56.2403 170.549 56.7113C170.822 57.1824 170.894 57.7407 170.752 58.2646V58.2646Z" fill="#779BFF"/>
<path d="M486.616 329.731C487.355 329.731 487.954 329.139 487.954 328.409C487.954 327.679 487.355 327.087 486.616 327.087C485.877 327.087 485.277 327.679 485.277 328.409C485.277 329.139 485.877 329.731 486.616 329.731Z" fill="#779BFF"/>
<path fill-rule="evenodd" clip-rule="evenodd" d="M416.543 298.292C416.498 298.46 416.419 298.618 416.311 298.756C416.204 298.894 416.07 299.01 415.917 299.096C415.765 299.183 415.596 299.239 415.421 299.261C415.247 299.284 415.069 299.272 414.899 299.226C414.729 299.183 414.57 299.107 414.43 299.002C414.291 298.897 414.174 298.766 414.086 298.617C413.998 298.467 413.941 298.302 413.918 298.13C413.895 297.958 413.907 297.784 413.953 297.617C413.998 297.449 414.076 297.291 414.183 297.153C414.289 297.015 414.422 296.899 414.574 296.812C414.726 296.724 414.894 296.667 415.068 296.644C415.243 296.621 415.42 296.632 415.59 296.676C415.76 296.72 415.92 296.797 416.06 296.902C416.2 297.008 416.317 297.139 416.406 297.289C416.494 297.439 416.552 297.605 416.575 297.777C416.599 297.949 416.588 298.124 416.543 298.292V298.292Z" fill="#779BFF"/>
<path fill-rule="evenodd" clip-rule="evenodd" d="M409.807 328.61C409.718 328.949 409.496 329.239 409.191 329.417C408.885 329.595 408.521 329.646 408.177 329.558C408.007 329.514 407.848 329.437 407.708 329.332C407.568 329.226 407.45 329.095 407.362 328.945C407.273 328.795 407.216 328.629 407.192 328.457C407.168 328.285 407.179 328.11 407.224 327.942C407.269 327.774 407.347 327.616 407.454 327.478C407.56 327.34 407.693 327.224 407.845 327.137C407.997 327.049 408.165 326.992 408.339 326.969C408.514 326.946 408.691 326.957 408.861 327.001C409.031 327.044 409.19 327.12 409.33 327.225C409.469 327.33 409.586 327.461 409.674 327.61C409.762 327.76 409.819 327.925 409.842 328.097C409.865 328.269 409.853 328.443 409.807 328.61V328.61Z" fill="#779BFF"/>
<path fill-rule="evenodd" clip-rule="evenodd" d="M428.46 325.276C428.415 325.445 428.336 325.602 428.229 325.74C428.121 325.878 427.988 325.994 427.835 326.081C427.682 326.167 427.513 326.223 427.339 326.246C427.164 326.268 426.986 326.256 426.816 326.21C426.646 326.166 426.487 326.089 426.347 325.984C426.207 325.879 426.089 325.747 426.001 325.597C425.912 325.447 425.855 325.281 425.831 325.109C425.807 324.937 425.818 324.762 425.863 324.594C425.908 324.426 425.986 324.269 426.093 324.13C426.199 323.992 426.332 323.876 426.484 323.789C426.636 323.701 426.804 323.644 426.979 323.621C427.153 323.598 427.33 323.609 427.5 323.653C427.845 323.744 428.139 323.966 428.318 324.27C428.498 324.574 428.549 324.935 428.46 325.276V325.276Z" fill="#779BFF"/>
<path fill-rule="evenodd" clip-rule="evenodd" d="M392.377 321.856C392.332 322.024 392.254 322.182 392.147 322.32C392.041 322.458 391.907 322.574 391.755 322.662C391.603 322.749 391.436 322.806 391.261 322.829C391.087 322.853 390.91 322.842 390.74 322.797C390.57 322.753 390.41 322.676 390.27 322.571C390.13 322.466 390.013 322.334 389.924 322.184C389.836 322.034 389.778 321.868 389.754 321.696C389.731 321.524 389.742 321.349 389.787 321.181C389.877 320.842 390.101 320.552 390.408 320.376C390.715 320.199 391.08 320.151 391.423 320.24C391.767 320.33 392.06 320.55 392.239 320.853C392.418 321.156 392.467 321.517 392.377 321.856Z" fill="#779BFF"/>
<path fill-rule="evenodd" clip-rule="evenodd" d="M2.627 266.423C2.58308 266.59 2.5059 266.747 2.39996 266.885C2.29401 267.023 2.16139 267.139 2.00981 267.226C1.85822 267.313 1.69067 267.369 1.51688 267.391C1.34309 267.414 1.16652 267.402 0.997405 267.357C0.653965 267.267 0.360615 267.046 0.181889 266.743C0.0031625 266.44 -0.0462991 266.079 0.0443846 265.74C0.135068 265.401 0.358469 265.111 0.665441 264.935C0.972414 264.759 1.33781 264.71 1.68125 264.799C1.85149 264.844 2.01106 264.922 2.1508 265.028C2.29054 265.134 2.40771 265.266 2.49558 265.417C2.58345 265.568 2.64029 265.734 2.66284 265.907C2.68539 266.079 2.67321 266.255 2.627 266.423V266.423Z" fill="#779BFF"/>
<path fill-rule="evenodd" clip-rule="evenodd" d="M438.718 306.123C438.67 306.293 438.557 306.439 438.402 306.527C438.247 306.616 438.062 306.641 437.889 306.597C437.717 306.551 437.571 306.44 437.482 306.288C437.393 306.136 437.37 305.955 437.416 305.785C437.462 305.616 437.575 305.471 437.729 305.384C437.883 305.296 438.066 305.273 438.238 305.318C438.41 305.362 438.557 305.472 438.647 305.622C438.737 305.773 438.762 305.953 438.718 306.123Z" fill="#779BFF"/>
<path fill-rule="evenodd" clip-rule="evenodd" d="M232.138 405.266C232.075 405.474 231.932 405.649 231.741 405.755C231.549 405.86 231.323 405.888 231.111 405.832C230.899 405.776 230.718 405.64 230.605 405.454C230.493 405.268 230.458 405.046 230.508 404.835C230.569 404.624 230.711 404.445 230.904 404.335C231.097 404.225 231.325 404.193 231.541 404.246C231.757 404.304 231.942 404.443 232.053 404.635C232.165 404.826 232.196 405.053 232.138 405.266V405.266Z" fill="#779BFF"/>
<path d="M282.874 266.811C283.243 266.811 283.543 266.515 283.543 266.15C283.543 265.785 283.243 265.489 282.874 265.489C282.504 265.489 282.205 265.785 282.205 266.15C282.205 266.515 282.504 266.811 282.874 266.811Z" fill="#779BFF"/>
<path fill-rule="evenodd" clip-rule="evenodd" d="M139.149 219.02C139.104 219.19 138.993 219.335 138.841 219.424C138.688 219.513 138.506 219.538 138.334 219.495C138.163 219.444 138.018 219.332 137.929 219.179C137.84 219.027 137.813 218.847 137.854 218.676C137.877 218.591 137.917 218.513 137.972 218.444C138.026 218.375 138.094 218.318 138.171 218.275C138.248 218.232 138.333 218.205 138.421 218.195C138.509 218.185 138.598 218.192 138.683 218.216C138.768 218.238 138.847 218.276 138.917 218.328C138.986 218.381 139.045 218.446 139.088 218.521C139.131 218.596 139.159 218.679 139.17 218.765C139.18 218.851 139.173 218.937 139.149 219.02Z" fill="#779BFF"/>
<path fill-rule="evenodd" clip-rule="evenodd" d="M360.57 276.093C360.522 276.263 360.408 276.409 360.253 276.497C360.098 276.586 359.914 276.611 359.74 276.567C359.568 276.521 359.422 276.41 359.333 276.258C359.245 276.106 359.221 275.925 359.267 275.755C359.314 275.586 359.426 275.441 359.58 275.354C359.735 275.266 359.918 275.242 360.089 275.288C360.259 275.335 360.404 275.445 360.493 275.595C360.582 275.745 360.61 275.923 360.57 276.093V276.093Z" fill="#779BFF"/>
<path fill-rule="evenodd" clip-rule="evenodd" d="M268.236 258.233C268.188 258.403 268.075 258.548 267.92 258.637C267.765 258.726 267.58 258.751 267.407 258.707C267.238 258.66 267.094 258.549 267.007 258.398C266.92 258.248 266.897 258.07 266.941 257.902C266.962 257.817 266.999 257.737 267.051 257.667C267.104 257.597 267.17 257.538 267.246 257.493C267.322 257.449 267.407 257.42 267.494 257.409C267.582 257.398 267.671 257.404 267.756 257.428C267.928 257.472 268.075 257.581 268.165 257.732C268.255 257.883 268.28 258.063 268.236 258.233V258.233Z" fill="#779BFF"/>
<path fill-rule="evenodd" clip-rule="evenodd" d="M45.1715 203.661C45.1238 203.831 45.0101 203.977 44.855 204.065C44.6999 204.154 44.5158 204.179 44.3422 204.135C44.1732 204.088 44.0298 203.977 43.9427 203.827C43.8556 203.676 43.8319 203.498 43.8766 203.33C43.8969 203.245 43.9343 203.165 43.9867 203.095C44.0391 203.025 44.1054 202.966 44.1815 202.922C44.2576 202.877 44.3421 202.849 44.4297 202.837C44.5173 202.826 44.6063 202.833 44.6914 202.856C44.861 202.903 45.0056 203.013 45.095 203.163C45.1845 203.313 45.2119 203.491 45.1715 203.661V203.661Z" fill="#779BFF"/>
<path fill-rule="evenodd" clip-rule="evenodd" d="M22.2986 195.412C22.2766 195.495 22.2383 195.573 22.1858 195.641C22.1333 195.71 22.0677 195.767 21.9927 195.811C21.9178 195.854 21.8349 195.882 21.7488 195.894C21.6627 195.906 21.5751 195.9 21.4911 195.879C21.407 195.857 21.3281 195.819 21.2588 195.768C21.1895 195.716 21.1313 195.651 21.0874 195.577C21.0435 195.503 21.0148 195.421 21.0029 195.336C20.991 195.251 20.9962 195.165 21.0182 195.082C21.0402 194.999 21.0785 194.921 21.1309 194.853C21.1834 194.785 21.249 194.727 21.324 194.684C21.399 194.64 21.4819 194.612 21.568 194.6C21.6541 194.589 21.7416 194.594 21.8257 194.615C21.9098 194.637 21.9887 194.675 22.058 194.727C22.1272 194.779 22.1855 194.843 22.2294 194.917C22.2733 194.991 22.302 195.073 22.3139 195.158C22.3257 195.243 22.3205 195.329 22.2986 195.412Z" fill="#779BFF"/>
<path fill-rule="evenodd" clip-rule="evenodd" d="M426.219 314.012C426.197 314.097 426.158 314.177 426.104 314.248C426.05 314.318 425.983 314.377 425.906 314.421C425.828 314.465 425.743 314.494 425.654 314.505C425.566 314.516 425.476 314.509 425.39 314.486C425.218 314.44 425.072 314.329 424.983 314.176C424.894 314.024 424.871 313.843 424.917 313.674C424.963 313.504 425.076 313.36 425.23 313.272C425.384 313.185 425.567 313.161 425.739 313.207C425.908 313.254 426.053 313.364 426.143 313.514C426.232 313.664 426.259 313.842 426.219 314.012V314.012Z" fill="#779BFF"/>
<path fill-rule="evenodd" clip-rule="evenodd" d="M303.461 282.674C303.441 282.759 303.403 282.839 303.351 282.909C303.299 282.979 303.232 283.038 303.156 283.083C303.08 283.127 302.996 283.156 302.908 283.167C302.82 283.178 302.731 283.172 302.646 283.148C302.561 283.125 302.482 283.086 302.412 283.033C302.342 282.98 302.283 282.914 302.24 282.839C302.196 282.763 302.167 282.68 302.156 282.594C302.144 282.508 302.15 282.42 302.173 282.336C302.196 282.252 302.236 282.174 302.289 282.105C302.343 282.036 302.41 281.978 302.486 281.935C302.563 281.891 302.647 281.863 302.734 281.852C302.822 281.841 302.91 281.847 302.995 281.869C303.164 281.916 303.308 282.027 303.395 282.177C303.482 282.328 303.506 282.506 303.461 282.674V282.674Z" fill="#779BFF"/>
<path d="M132.165 240.631C132.535 240.631 132.834 240.335 132.834 239.97C132.834 239.605 132.535 239.309 132.165 239.309C131.795 239.309 131.496 239.605 131.496 239.97C131.496 240.335 131.795 240.631 132.165 240.631Z" fill="#779BFF"/>
<path d="M435.371 295.562C436.11 295.562 436.709 294.97 436.709 294.24C436.709 293.51 436.11 292.918 435.371 292.918C434.632 292.918 434.032 293.51 434.032 294.24C434.032 294.97 434.632 295.562 435.371 295.562Z" fill="#779BFF"/>
<path fill-rule="evenodd" clip-rule="evenodd" d="M377.608 277.802C377.542 278.056 377.401 278.284 377.204 278.458C377.006 278.632 376.761 278.745 376.499 278.781C376.236 278.818 375.969 278.777 375.731 278.663C375.492 278.55 375.293 278.369 375.158 278.144C375.024 277.918 374.96 277.659 374.975 277.398C374.99 277.137 375.083 276.886 375.243 276.677C375.402 276.468 375.621 276.311 375.871 276.225C376.121 276.138 376.391 276.128 376.648 276.193C376.991 276.281 377.285 276.5 377.465 276.802C377.645 277.103 377.696 277.463 377.608 277.802V277.802Z" fill="#779BFF"/>
<path fill-rule="evenodd" clip-rule="evenodd" d="M146.409 159.607C146.32 159.946 146.099 160.236 145.793 160.414C145.488 160.591 145.123 160.642 144.78 160.555C144.584 160.538 144.394 160.479 144.223 160.381C144.053 160.283 143.907 160.15 143.795 159.99C143.683 159.83 143.608 159.647 143.575 159.455C143.543 159.263 143.554 159.067 143.607 158.88C143.661 158.693 143.755 158.519 143.884 158.372C144.013 158.225 144.174 158.108 144.354 158.03C144.534 157.951 144.729 157.912 144.926 157.917C145.123 157.921 145.316 157.968 145.493 158.055C145.817 158.149 146.093 158.362 146.264 158.651C146.434 158.939 146.486 159.281 146.409 159.607V159.607Z" fill="#779BFF"/>
<path fill-rule="evenodd" clip-rule="evenodd" d="M443.301 131.501C443.237 131.754 443.098 131.982 442.903 132.157C442.707 132.332 442.464 132.446 442.203 132.485C441.942 132.524 441.675 132.486 441.436 132.375C441.197 132.265 440.996 132.087 440.859 131.864C440.722 131.641 440.655 131.383 440.666 131.123C440.677 130.863 440.766 130.611 440.921 130.401C441.076 130.19 441.291 130.029 441.539 129.939C441.786 129.848 442.055 129.832 442.312 129.892C442.486 129.931 442.65 130.003 442.794 130.106C442.939 130.208 443.061 130.339 443.153 130.489C443.245 130.639 443.306 130.806 443.332 130.98C443.357 131.154 443.347 131.331 443.301 131.501V131.501Z" fill="#779BFF"/>
<path fill-rule="evenodd" clip-rule="evenodd" d="M416.951 35.3609C416.86 35.7 416.637 35.9897 416.33 36.1662C416.023 36.3427 415.658 36.3915 415.314 36.302C414.971 36.2124 414.677 35.9918 414.499 35.6887C414.32 35.3856 414.27 35.0248 414.361 34.6857C414.406 34.5178 414.484 34.3602 414.591 34.222C414.697 34.0839 414.83 33.9678 414.982 33.8804C415.134 33.793 415.302 33.7361 415.476 33.7128C415.651 33.6895 415.828 33.7003 415.998 33.7446C416.168 33.789 416.328 33.8659 416.467 33.9712C416.607 34.0764 416.725 34.2078 416.813 34.3579C416.902 34.508 416.96 34.6738 416.983 34.8459C417.007 35.018 416.996 35.193 416.951 35.3609Z" fill="#779BFF"/>
<path fill-rule="evenodd" clip-rule="evenodd" d="M323.264 309.744C323.218 309.912 323.139 310.07 323.032 310.208C322.925 310.346 322.791 310.461 322.638 310.548C322.485 310.635 322.317 310.691 322.142 310.713C321.967 310.736 321.79 310.724 321.619 310.678C321.449 310.634 321.29 310.557 321.15 310.451C321.01 310.346 320.892 310.215 320.804 310.065C320.715 309.915 320.658 309.749 320.634 309.577C320.611 309.405 320.622 309.23 320.666 309.062C320.711 308.894 320.789 308.736 320.896 308.598C321.002 308.46 321.136 308.344 321.288 308.256C321.44 308.169 321.607 308.112 321.782 308.089C321.956 308.066 322.133 308.076 322.303 308.121C322.648 308.212 322.942 308.433 323.122 308.737C323.301 309.041 323.352 309.403 323.264 309.744V309.744Z" fill="#779BFF"/>
<path fill-rule="evenodd" clip-rule="evenodd" d="M140.138 156.618C140.047 156.957 139.824 157.246 139.517 157.423C139.21 157.599 138.845 157.648 138.501 157.559C138.158 157.469 137.864 157.249 137.686 156.945C137.507 156.642 137.458 156.282 137.548 155.942C137.639 155.603 137.862 155.314 138.169 155.137C138.476 154.961 138.842 154.912 139.185 155.001C139.529 155.091 139.822 155.311 140.001 155.615C140.179 155.918 140.229 156.279 140.138 156.618Z" fill="#779BFF"/>
<path fill-rule="evenodd" clip-rule="evenodd" d="M138.567 76.7711C138.501 77.0243 138.36 77.2525 138.162 77.4268C137.965 77.6011 137.72 77.7136 137.457 77.7502C137.195 77.7867 136.928 77.7457 136.689 77.6321C136.451 77.5186 136.252 77.3377 136.117 77.1124C135.983 76.8871 135.919 76.6275 135.934 76.3664C135.949 76.1053 136.042 75.8545 136.201 75.6457C136.361 75.4369 136.579 75.2794 136.83 75.1933C137.08 75.1072 137.35 75.0963 137.606 75.1619C137.95 75.2498 138.244 75.4687 138.424 75.7703C138.604 76.072 138.655 76.4319 138.567 76.7711V76.7711Z" fill="#779BFF"/>
<path d="M87.4971 66.1383C88.2364 66.1383 88.8357 65.5465 88.8357 64.8165C88.8357 64.0865 88.2364 63.4948 87.4971 63.4948C86.7578 63.4948 86.1585 64.0865 86.1585 64.8165C86.1585 65.5465 86.7578 66.1383 87.4971 66.1383Z" fill="#779BFF"/>
<path fill-rule="evenodd" clip-rule="evenodd" d="M268.877 35.0447C268.811 35.298 268.67 35.5262 268.472 35.7005C268.275 35.8748 268.03 35.9873 267.767 36.0239C267.505 36.0604 267.238 36.0193 266.999 35.9058C266.761 35.7923 266.562 35.6114 266.427 35.3861C266.293 35.1608 266.229 34.9012 266.244 34.6401C266.259 34.379 266.352 34.1282 266.511 33.9194C266.671 33.7106 266.889 33.5531 267.14 33.467C267.39 33.3809 267.66 33.37 267.916 33.4356C268.26 33.5235 268.553 33.7423 268.734 34.044C268.914 34.3457 268.965 34.7056 268.877 35.0447Z" fill="#779BFF"/>
<path fill-rule="evenodd" clip-rule="evenodd" d="M386.018 30.0302C385.972 30.1983 385.893 30.3559 385.786 30.4939C385.679 30.6319 385.545 30.7476 385.392 30.8343C385.239 30.9211 385.071 30.9772 384.896 30.9995C384.721 31.0218 384.544 31.0097 384.374 30.9641C384.118 30.8956 383.889 30.754 383.716 30.557C383.542 30.3601 383.431 30.1168 383.397 29.8577C383.363 29.5987 383.408 29.3355 383.525 29.1015C383.643 28.8675 383.828 28.6731 384.057 28.5429C384.286 28.4126 384.55 28.3524 384.814 28.3697C385.078 28.3871 385.33 28.4813 385.54 28.6405C385.75 28.7996 385.907 29.0165 385.992 29.2639C386.077 29.5112 386.086 29.7779 386.018 30.0302V30.0302Z" fill="#779BFF"/>
<path fill-rule="evenodd" clip-rule="evenodd" d="M99.6756 157.652C99.5849 157.991 99.3615 158.281 99.0545 158.458C98.7475 158.634 98.3822 158.683 98.0387 158.593C97.6953 158.504 97.4019 158.283 97.2232 157.98C97.0445 157.677 96.995 157.316 97.0857 156.977C97.1306 156.809 97.2085 156.652 97.3151 156.513C97.4217 156.375 97.5547 156.259 97.7067 156.172C97.8587 156.084 98.0267 156.027 98.201 156.004C98.3753 155.981 98.5525 155.992 98.7226 156.036C98.8926 156.08 99.0522 156.157 99.1921 156.263C99.332 156.368 99.4496 156.499 99.5381 156.649C99.6266 156.799 99.6843 156.965 99.7079 157.137C99.7314 157.309 99.7205 157.484 99.6756 157.652Z" fill="#779BFF"/>
<path fill-rule="evenodd" clip-rule="evenodd" d="M88.5156 60.9944C88.4462 61.2465 88.3027 61.4726 88.1033 61.6442C87.9039 61.8159 87.6575 61.9253 87.3951 61.9587C87.1328 61.9921 86.8663 61.9481 86.6293 61.8321C86.3923 61.716 86.1954 61.5333 86.0635 61.3069C85.9316 61.0805 85.8706 60.8205 85.8882 60.5599C85.9058 60.2993 86.0012 60.0496 86.1623 59.8425C86.3235 59.6354 86.5432 59.4801 86.7937 59.3961C87.0442 59.3122 87.3143 59.3035 87.5698 59.371C87.7411 59.4142 87.9018 59.4909 88.0426 59.5965C88.1834 59.7021 88.3014 59.8344 88.3895 59.9857C88.4776 60.137 88.5342 60.3042 88.5559 60.4775C88.5775 60.6507 88.5638 60.8265 88.5156 60.9944Z" fill="#779BFF"/>
<path fill-rule="evenodd" clip-rule="evenodd" d="M159.388 79.4729C159.297 79.812 159.074 80.1017 158.767 80.2781C158.46 80.4546 158.094 80.5035 157.751 80.4139C157.407 80.3244 157.114 80.1038 156.935 79.8007C156.757 79.4975 156.707 79.1367 156.798 78.7976C156.843 78.6297 156.921 78.4722 157.027 78.334C157.134 78.1958 157.267 78.0797 157.419 77.9923C157.571 77.905 157.739 77.848 157.913 77.8247C158.087 77.8014 158.265 77.8122 158.435 77.8566C158.605 77.9009 158.764 77.9779 158.904 78.0831C159.044 78.1883 159.162 78.3197 159.25 78.4698C159.339 78.6199 159.396 78.7857 159.42 78.9578C159.444 79.1299 159.433 79.3049 159.388 79.4729V79.4729Z" fill="#779BFF"/>
<path fill-rule="evenodd" clip-rule="evenodd" d="M287.792 58.0059C287.746 58.174 287.667 58.3316 287.56 58.4696C287.453 58.6076 287.319 58.7233 287.166 58.81C287.013 58.8968 286.845 58.9529 286.67 58.9752C286.495 58.9974 286.318 58.9854 286.148 58.9398C285.977 58.8954 285.818 58.8185 285.678 58.7132C285.538 58.608 285.421 58.4766 285.332 58.3265C285.244 58.1764 285.186 58.0106 285.162 57.8385C285.139 57.6664 285.15 57.4914 285.195 57.3235C285.239 57.1556 285.317 56.998 285.424 56.8599C285.531 56.7217 285.664 56.6056 285.816 56.5182C285.968 56.4308 286.136 56.3739 286.31 56.3506C286.484 56.3273 286.661 56.3381 286.831 56.3824C287.176 56.4736 287.47 56.6952 287.65 56.9992C287.829 57.3032 287.88 57.665 287.792 58.0059Z" fill="#779BFF"/>
<path fill-rule="evenodd" clip-rule="evenodd" d="M376.837 212.871C376.748 213.21 376.526 213.5 376.221 213.678C375.915 213.856 375.551 213.907 375.207 213.819C375.037 213.775 374.878 213.698 374.738 213.593C374.598 213.487 374.48 213.356 374.392 213.206C374.303 213.056 374.246 212.89 374.222 212.718C374.199 212.546 374.21 212.371 374.254 212.203C374.299 212.035 374.377 211.877 374.484 211.739C374.59 211.601 374.723 211.485 374.875 211.398C375.027 211.31 375.195 211.253 375.37 211.23C375.544 211.207 375.721 211.218 375.891 211.262C376.061 211.305 376.22 211.381 376.36 211.486C376.499 211.591 376.617 211.722 376.705 211.871C376.793 212.021 376.85 212.186 376.872 212.358C376.895 212.53 376.883 212.704 376.837 212.871V212.871Z" fill="#779BFF"/>
<path fill-rule="evenodd" clip-rule="evenodd" d="M185.374 68.3801C185.329 68.5482 185.25 68.7057 185.143 68.8437C185.035 68.9817 184.901 69.0974 184.749 69.1842C184.596 69.2709 184.427 69.327 184.253 69.3493C184.078 69.3716 183.9 69.3596 183.73 69.3139C183.387 69.2244 183.093 69.0038 182.915 68.7007C182.736 68.3976 182.687 68.0368 182.777 67.6976C182.868 67.3585 183.091 67.0689 183.398 66.8924C183.705 66.7159 184.071 66.6671 184.414 66.7566C184.758 66.8477 185.053 67.0693 185.232 67.3733C185.412 67.6773 185.463 68.0391 185.374 68.3801Z" fill="#779BFF"/>
<path fill-rule="evenodd" clip-rule="evenodd" d="M67.8978 12.0982C67.8523 12.2663 67.7736 12.4239 67.6662 12.5618C67.5588 12.6998 67.4249 12.8155 67.2722 12.9023C67.1194 12.9891 66.9508 13.0452 66.776 13.0675C66.6013 13.0897 66.4238 13.0777 66.2537 13.0321C65.9229 12.9333 65.6436 12.7121 65.4742 12.4146C65.3049 12.1171 65.2586 11.7665 65.345 11.4361C65.4315 11.1057 65.644 10.8212 65.9381 10.642C66.2323 10.4628 66.5852 10.4028 66.923 10.4747C67.2701 10.5627 67.5676 10.7831 67.7504 11.0874C67.9331 11.3918 67.9862 11.7553 67.8978 12.0982Z" fill="#779BFF"/>
<path d="M368.136 149.074C368.875 149.074 369.474 148.482 369.474 147.752C369.474 147.022 368.875 146.431 368.136 146.431C367.396 146.431 366.797 147.022 366.797 147.752C366.797 148.482 367.396 149.074 368.136 149.074Z" fill="#779BFF"/>
<path d="M198.775 2.64354C199.514 2.64354 200.113 2.05176 200.113 1.32177C200.113 0.591776 199.514 0 198.775 0C198.036 0 197.436 0.591776 197.436 1.32177C197.436 2.05176 198.036 2.64354 198.775 2.64354Z" fill="#779BFF"/>
<path fill-rule="evenodd" clip-rule="evenodd" d="M444.479 222.713C444.441 222.887 444.368 223.052 444.264 223.198C444.16 223.343 444.027 223.466 443.873 223.56C443.72 223.653 443.549 223.715 443.37 223.742C443.192 223.768 443.01 223.759 442.836 223.715C442.661 223.67 442.497 223.591 442.354 223.482C442.211 223.374 442.092 223.238 442.004 223.083C441.915 222.927 441.859 222.756 441.84 222.579C441.82 222.402 441.837 222.223 441.889 222.052C441.989 221.726 442.213 221.45 442.514 221.283C442.816 221.115 443.171 221.07 443.505 221.155C443.84 221.24 444.128 221.45 444.31 221.741C444.491 222.031 444.552 222.38 444.479 222.713Z" fill="#779BFF"/>
<path d="M611.618 169.945C612.185 167.828 610.906 165.658 608.762 165.098C606.617 164.539 604.42 165.802 603.853 167.919C603.287 170.036 604.566 172.206 606.71 172.766C608.854 173.325 611.052 172.062 611.618 169.945Z" fill="#779BFF"/>
<path d="M712.216 242.699C712.782 240.582 711.503 238.412 709.359 237.852C707.215 237.293 705.017 238.556 704.451 240.673C703.884 242.79 705.163 244.96 707.308 245.52C709.452 246.079 711.649 244.816 712.216 242.699Z" fill="#779BFF"/>
<path d="M762.037 147.368C762.437 145.872 761.534 144.339 760.019 143.944C758.504 143.548 756.951 144.441 756.551 145.937C756.151 147.433 757.054 148.966 758.569 149.361C760.084 149.756 761.637 148.864 762.037 147.368Z" fill="#779BFF"/>
<path fill-rule="evenodd" clip-rule="evenodd" d="M672.2 162.624C672.696 162.325 673.271 162.179 673.852 162.205C674.433 162.232 674.992 162.43 675.458 162.773C675.924 163.116 676.275 163.589 676.466 164.131C676.657 164.673 676.679 165.26 676.529 165.814C676.38 166.369 676.066 166.867 675.627 167.243C675.189 167.62 674.646 167.859 674.069 167.928C673.492 167.998 672.908 167.895 672.39 167.633C671.873 167.371 671.447 166.963 671.167 166.46C670.806 165.812 670.713 165.052 670.905 164.337C671.097 163.623 671.561 163.009 672.2 162.624V162.624Z" fill="#779BFF"/>
<path d="M673.86 236.047C674.599 236.047 675.198 235.455 675.198 234.725C675.198 233.995 674.599 233.404 673.86 233.404C673.12 233.404 672.521 233.995 672.521 234.725C672.521 235.455 673.12 236.047 673.86 236.047Z" fill="#779BFF"/>
<path d="M634.487 101.873C634.856 101.873 635.156 101.578 635.156 101.213C635.156 100.848 634.856 100.552 634.487 100.552C634.117 100.552 633.817 100.848 633.817 101.213C633.817 101.578 634.117 101.873 634.487 101.873Z" fill="#779BFF"/>
<path d="M581.569 90.0911C582.308 90.0911 582.907 89.4993 582.907 88.7693C582.907 88.0393 582.308 87.4475 581.569 87.4475C580.83 87.4475 580.23 88.0393 580.23 88.7693C580.23 89.4993 580.83 90.0911 581.569 90.0911Z" fill="#779BFF"/>
<path d="M709.245 308.609C709.984 308.609 710.584 308.017 710.584 307.287C710.584 306.557 709.984 305.965 709.245 305.965C708.506 305.965 707.906 306.557 707.906 307.287C707.906 308.017 708.506 308.609 709.245 308.609Z" fill="#779BFF"/>
<path d="M694.113 202.425C694.852 202.425 695.452 201.833 695.452 201.103C695.452 200.373 694.852 199.781 694.113 199.781C693.374 199.781 692.774 200.373 692.774 201.103C692.774 201.833 693.374 202.425 694.113 202.425Z" fill="#779BFF"/>
<path d="M545.878 154.117C546.617 154.117 547.216 153.525 547.216 152.795C547.216 152.065 546.617 151.474 545.878 151.474C545.138 151.474 544.539 152.065 544.539 152.795C544.539 153.525 545.138 154.117 545.878 154.117Z" fill="#779BFF"/>
<path d="M734.43 205.988C734.8 205.988 735.1 205.692 735.1 205.327C735.1 204.962 734.8 204.667 734.43 204.667C734.061 204.667 733.761 204.962 733.761 205.327C733.761 205.692 734.061 205.988 734.43 205.988Z" fill="#779BFF"/>
<path d="M546.387 321.598C546.757 321.598 547.057 321.302 547.057 320.937C547.057 320.572 546.757 320.276 546.387 320.276C546.018 320.276 545.718 320.572 545.718 320.937C545.718 321.302 546.018 321.598 546.387 321.598Z" fill="#779BFF"/>
<path d="M567.019 195.959C567.758 195.959 568.357 195.367 568.357 194.637C568.357 193.907 567.758 193.315 567.019 193.315C566.28 193.315 565.68 193.907 565.68 194.637C565.68 195.367 566.28 195.959 567.019 195.959Z" fill="#779BFF"/>
<path d="M600.731 161.833C602.298 161.833 603.569 160.579 603.569 159.031C603.569 157.484 602.298 156.23 600.731 156.23C599.164 156.23 597.894 157.484 597.894 159.031C597.894 160.579 599.164 161.833 600.731 161.833Z" fill="#779BFF"/>
<path d="M629.773 150.626C630.512 150.626 631.112 150.034 631.112 149.304C631.112 148.574 630.512 147.982 629.773 147.982C629.034 147.982 628.434 148.574 628.434 149.304C628.434 150.034 629.034 150.626 629.773 150.626Z" fill="#779BFF"/>
<path d="M614.204 139.964C614.944 139.964 615.543 139.373 615.543 138.643C615.543 137.913 614.944 137.321 614.204 137.321C613.465 137.321 612.866 137.913 612.866 138.643C612.866 139.373 613.465 139.964 614.204 139.964Z" fill="#779BFF"/>
<path fill-rule="evenodd" clip-rule="evenodd" d="M592.569 143.873C592.645 143.83 592.729 143.802 592.817 143.79C592.904 143.779 592.993 143.785 593.078 143.808C593.163 143.83 593.243 143.869 593.313 143.922C593.383 143.976 593.441 144.042 593.485 144.117C593.529 144.193 593.558 144.276 593.569 144.362C593.58 144.449 593.574 144.536 593.551 144.62C593.528 144.704 593.489 144.783 593.435 144.852C593.381 144.921 593.314 144.979 593.238 145.022C593.084 145.11 592.9 145.134 592.728 145.088C592.556 145.042 592.41 144.931 592.321 144.778C592.233 144.626 592.209 144.445 592.255 144.275C592.302 144.105 592.414 143.961 592.569 143.873V143.873Z" fill="#779BFF"/>
<path d="M607.395 148.255C607.765 148.255 608.064 147.959 608.064 147.594C608.064 147.229 607.765 146.933 607.395 146.933C607.026 146.933 606.726 147.229 606.726 147.594C606.726 147.959 607.026 148.255 607.395 148.255Z" fill="#779BFF"/>
<path fill-rule="evenodd" clip-rule="evenodd" d="M585.745 153.471C586.052 153.294 586.417 153.244 586.761 153.333C587.105 153.422 587.399 153.642 587.578 153.945C587.757 154.248 587.808 154.609 587.718 154.948C587.628 155.288 587.405 155.578 587.098 155.755C586.946 155.843 586.778 155.9 586.604 155.924C586.429 155.948 586.252 155.937 586.082 155.893C585.912 155.849 585.752 155.772 585.612 155.667C585.471 155.562 585.353 155.431 585.265 155.281C585.176 155.131 585.118 154.965 585.094 154.793C585.07 154.621 585.08 154.446 585.125 154.278C585.17 154.11 585.247 153.952 585.354 153.813C585.46 153.675 585.593 153.559 585.745 153.471V153.471Z" fill="#779BFF"/>
<path fill-rule="evenodd" clip-rule="evenodd" d="M627.387 325.995C627.882 325.693 628.457 325.545 629.038 325.569C629.619 325.593 630.179 325.789 630.646 326.131C631.114 326.472 631.467 326.944 631.66 327.486C631.853 328.027 631.877 328.613 631.73 329.169C631.582 329.724 631.27 330.223 630.832 330.601C630.395 330.98 629.853 331.22 629.276 331.291C628.699 331.362 628.114 331.261 627.595 331.001C627.077 330.741 626.65 330.333 626.368 329.831C626.007 329.185 625.91 328.426 626.1 327.711C626.29 326.997 626.751 326.382 627.387 325.995V325.995Z" fill="#779BFF"/>
<path d="M654.624 249.582C656.191 249.582 657.461 248.328 657.461 246.78C657.461 245.233 656.191 243.979 654.624 243.979C653.057 243.979 651.787 245.233 651.787 246.78C651.787 248.328 653.057 249.582 654.624 249.582Z" fill="#779BFF"/>
<path d="M160.668 214.983C162.235 214.983 163.505 213.728 163.505 212.181C163.505 210.634 162.235 209.379 160.668 209.379C159.101 209.379 157.831 210.634 157.831 212.181C157.831 213.728 159.101 214.983 160.668 214.983Z" fill="#779BFF"/>
<path fill-rule="evenodd" clip-rule="evenodd" d="M609.374 360.839C609.731 360.636 610.14 360.541 610.552 360.567C610.963 360.593 611.357 360.738 611.685 360.984C612.013 361.23 612.261 361.566 612.397 361.95C612.532 362.334 612.551 362.749 612.449 363.143C612.347 363.537 612.13 363.893 611.824 364.166C611.519 364.439 611.139 364.617 610.731 364.678C610.324 364.738 609.908 364.679 609.534 364.507C609.161 364.336 608.847 364.059 608.632 363.712C608.481 363.477 608.381 363.215 608.337 362.941C608.293 362.667 608.306 362.386 608.376 362.117C608.445 361.849 608.57 361.596 608.741 361.376C608.913 361.157 609.128 360.974 609.374 360.839V360.839Z" fill="#779BFF"/>
<path fill-rule="evenodd" clip-rule="evenodd" d="M630.733 334.285C630.883 334.196 631.05 334.137 631.224 334.112C631.398 334.088 631.575 334.098 631.744 334.142C631.914 334.186 632.073 334.264 632.212 334.37C632.35 334.476 632.466 334.608 632.552 334.76C632.641 334.909 632.699 335.075 632.723 335.248C632.747 335.42 632.737 335.595 632.692 335.763C632.648 335.931 632.57 336.089 632.463 336.227C632.357 336.366 632.224 336.482 632.072 336.57C631.762 336.742 631.397 336.788 631.054 336.696C630.711 336.605 630.418 336.384 630.238 336.081C630.064 335.778 630.019 335.419 630.111 335.083C630.204 334.746 630.428 334.46 630.733 334.285V334.285Z" fill="#779BFF"/>
<path d="M657.869 320.003C658.608 320.003 659.208 319.411 659.208 318.681C659.208 317.951 658.608 317.36 657.869 317.36C657.13 317.36 656.531 317.951 656.531 318.681C656.531 319.411 657.13 320.003 657.869 320.003Z" fill="#779BFF"/>
<path fill-rule="evenodd" clip-rule="evenodd" d="M701.577 247.629C701.884 247.451 702.249 247.402 702.593 247.491C702.937 247.58 703.231 247.8 703.41 248.103C703.59 248.406 703.64 248.766 703.55 249.106C703.46 249.445 703.237 249.736 702.93 249.913C702.621 250.085 702.255 250.131 701.912 250.04C701.569 249.948 701.276 249.727 701.097 249.424C701.008 249.276 700.95 249.111 700.926 248.94C700.903 248.769 700.913 248.595 700.958 248.428C701.003 248.261 701.08 248.104 701.186 247.967C701.293 247.83 701.426 247.715 701.577 247.629V247.629Z" fill="#779BFF"/>
<path d="M642.301 309.341C643.04 309.341 643.639 308.749 643.639 308.02C643.639 307.29 643.04 306.698 642.301 306.698C641.561 306.698 640.962 307.29 640.962 308.02C640.962 308.749 641.561 309.341 642.301 309.341Z" fill="#779BFF"/>
<path d="M620.999 314.485C621.369 314.485 621.669 314.189 621.669 313.824C621.669 313.459 621.369 313.164 620.999 313.164C620.63 313.164 620.33 313.459 620.33 313.824C620.33 314.189 620.63 314.485 620.999 314.485Z" fill="#779BFF"/>
<path fill-rule="evenodd" clip-rule="evenodd" d="M581.831 359.373C581.986 359.289 582.168 359.267 582.339 359.313C582.51 359.358 582.656 359.467 582.747 359.617C582.813 359.731 582.843 359.861 582.834 359.991C582.824 360.121 582.776 360.246 582.696 360.349C582.615 360.452 582.505 360.53 582.379 360.571C582.254 360.613 582.119 360.617 581.992 360.583C581.864 360.549 581.749 360.479 581.662 360.38C581.575 360.282 581.52 360.161 581.502 360.031C581.485 359.902 581.507 359.77 581.566 359.653C581.624 359.536 581.716 359.439 581.831 359.373Z" fill="#779BFF"/>
<path fill-rule="evenodd" clip-rule="evenodd" d="M654.42 389.059C654.574 388.971 654.758 388.948 654.93 388.994C655.102 389.039 655.248 389.151 655.337 389.303C655.425 389.456 655.449 389.637 655.403 389.806C655.357 389.976 655.244 390.121 655.089 390.208C654.935 390.296 654.752 390.319 654.58 390.274C654.408 390.228 654.262 390.116 654.173 389.964C654.084 389.812 654.06 389.631 654.107 389.461C654.153 389.291 654.266 389.147 654.42 389.059V389.059Z" fill="#779BFF"/>
<path d="M635.491 317.632C635.861 317.632 636.161 317.336 636.161 316.971C636.161 316.606 635.861 316.31 635.491 316.31C635.122 316.31 634.822 316.606 634.822 316.971C634.822 317.336 635.122 317.632 635.491 317.632Z" fill="#779BFF"/>
<path fill-rule="evenodd" clip-rule="evenodd" d="M613.841 322.848C614.148 322.671 614.513 322.621 614.857 322.71C615.201 322.799 615.495 323.019 615.674 323.322C615.854 323.625 615.904 323.986 615.814 324.326C615.724 324.665 615.501 324.955 615.194 325.133C615.042 325.22 614.874 325.278 614.7 325.301C614.526 325.325 614.348 325.315 614.178 325.271C614.008 325.226 613.848 325.15 613.708 325.045C613.568 324.94 613.45 324.809 613.361 324.659C613.272 324.509 613.214 324.343 613.19 324.171C613.166 323.998 613.177 323.823 613.221 323.655C613.266 323.487 613.343 323.329 613.45 323.191C613.556 323.052 613.689 322.936 613.841 322.848V322.848Z" fill="#779BFF"/>
<path fill-rule="evenodd" clip-rule="evenodd" d="M525.741 299.025C525.893 298.937 526.061 298.88 526.235 298.856C526.41 298.832 526.587 298.843 526.757 298.887C526.928 298.931 527.088 299.008 527.228 299.113C527.368 299.218 527.486 299.349 527.574 299.499C527.749 299.805 527.795 300.166 527.703 300.505C527.61 300.843 527.386 301.132 527.08 301.31C526.93 301.399 526.763 301.458 526.589 301.483C526.415 301.507 526.238 301.497 526.069 301.453C525.899 301.409 525.74 301.331 525.601 301.225C525.463 301.119 525.347 300.987 525.261 300.836C525.172 300.686 525.114 300.52 525.09 300.348C525.066 300.175 525.076 300 525.121 299.832C525.165 299.664 525.243 299.506 525.35 299.368C525.456 299.229 525.589 299.113 525.741 299.025V299.025Z" fill="#779BFF"/>
<path fill-rule="evenodd" clip-rule="evenodd" d="M643.595 375.954C643.747 375.866 643.915 375.809 644.089 375.785C644.264 375.761 644.441 375.772 644.611 375.816C644.782 375.86 644.942 375.937 645.082 376.042C645.222 376.147 645.34 376.278 645.429 376.428C645.603 376.734 645.649 377.095 645.557 377.434C645.464 377.772 645.24 378.061 644.934 378.239C644.629 378.391 644.276 378.422 643.949 378.325C643.621 378.229 643.343 378.013 643.172 377.72C643.001 377.428 642.95 377.083 643.028 376.754C643.107 376.426 643.31 376.14 643.595 375.954V375.954Z" fill="#779BFF"/>
<g style="mix-blend-mode:soft-light" opacity="0.15">
<path fill-rule="evenodd" clip-rule="evenodd" d="M580.347 1351.28C583.439 1352.53 631.867 1372.03 646.365 1380.13C646.446 1380.18 646.532 1380.22 646.623 1380.25C687.437 1392.99 719.152 1375.39 746.705 1411.21L746.808 1411.36C775.907 1461.27 793.598 1462.97 844.51 1472.48C844.801 1472.52 845.098 1472.46 845.354 1472.32C845.611 1472.18 845.813 1471.96 845.93 1471.69C846.047 1471.43 846.073 1471.13 846.002 1470.85C845.932 1470.57 845.77 1470.32 845.541 1470.13C830.693 1458.82 783.408 1422.34 775.989 1411.21C767.179 1397.97 771.867 1383.37 754.886 1378.55H754.783C657.751 1358.12 653.217 1293.67 512.053 1281.92C511.783 1281.9 511.513 1281.96 511.277 1282.09C511.041 1282.22 510.851 1282.42 510.732 1282.66C510.614 1282.9 510.572 1283.17 510.613 1283.43C510.653 1283.69 510.775 1283.94 510.96 1284.13C520.945 1294.8 560.718 1336.85 580.1 1351.11C580.178 1351.18 580.26 1351.23 580.347 1351.28V1351.28Z" fill="white"/>
</g>
<g style="mix-blend-mode:soft-light" opacity="0.15">
<path fill-rule="evenodd" clip-rule="evenodd" d="M652.837 1448.77C686.006 1525.37 745.892 1550.7 808.52 1598.41C808.622 1598.48 808.712 1598.58 808.788 1598.68C852.065 1657.87 902.451 1686.13 955.743 1714.11C956.018 1714.24 956.327 1714.27 956.619 1714.19C956.912 1714.12 957.172 1713.96 957.357 1713.72C957.542 1713.48 957.641 1713.19 957.638 1712.9C957.635 1712.6 957.53 1712.31 957.34 1712.08C826.995 1575.16 855.321 1544.36 654.692 1447.13C654.452 1447.01 654.182 1446.97 653.916 1447C653.651 1447.04 653.402 1447.15 653.202 1447.33C653.003 1447.5 652.861 1447.74 652.796 1447.99C652.731 1448.25 652.745 1448.52 652.837 1448.77Z" fill="white"/>
</g>
<g style="mix-blend-mode:soft-light" opacity="0.15">
<path fill-rule="evenodd" clip-rule="evenodd" d="M309.034 1320.76C311.239 1322.01 343.655 1340.33 353.104 1347.25L353.289 1347.36C379.049 1359.74 407.952 1353.81 421.976 1379.41L422.037 1379.56C435.906 1415.76 452.043 1419.28 483.861 1430.27C484.099 1430.35 484.358 1430.35 484.594 1430.26C484.831 1430.18 485.032 1430.02 485.166 1429.81C485.3 1429.6 485.359 1429.35 485.334 1429.1C485.308 1428.86 485.2 1428.63 485.026 1428.45C475.051 1418.65 447.179 1390.86 443.459 1383.06C438.936 1373.53 444.49 1364.79 432.723 1359.63C420.955 1354.48 392.372 1346.13 389.384 1336.59C375.803 1309.39 297.679 1274.46 269.456 1268.05C269.228 1267.98 268.981 1267.98 268.754 1268.06C268.526 1268.14 268.33 1268.28 268.194 1268.48C268.059 1268.67 267.991 1268.91 268.001 1269.15C268.011 1269.38 268.099 1269.61 268.251 1269.8C274.433 1278.44 296.896 1309.3 308.807 1320.6L309.034 1320.76Z" fill="white"/>
</g>
<path d="M443.574 1648.52C444.19 1647.89 444.981 1647.46 445.845 1647.29C446.71 1647.11 447.608 1647.19 448.426 1647.51C449.245 1647.84 449.945 1648.41 450.438 1649.13C450.931 1649.86 451.194 1650.71 451.194 1651.58C451.194 1652.46 450.931 1653.31 450.438 1654.03C449.945 1654.76 449.245 1655.32 448.426 1655.65C447.608 1655.98 446.71 1656.06 445.845 1655.88C444.981 1655.7 444.19 1655.27 443.574 1654.65C442.768 1653.83 442.316 1652.73 442.316 1651.58C442.316 1650.44 442.768 1649.34 443.574 1648.52V1648.52ZM430.59 1712.19C431.034 1712.65 431.607 1712.97 432.235 1713.1C432.864 1713.24 433.519 1713.19 434.116 1712.95C434.713 1712.71 435.225 1712.31 435.586 1711.78C435.946 1711.25 436.139 1710.63 436.139 1709.99C436.139 1709.36 435.946 1708.74 435.586 1708.21C435.225 1707.68 434.713 1707.27 434.116 1707.04C433.519 1706.8 432.864 1706.75 432.235 1706.88C431.607 1707.02 431.034 1707.34 430.59 1707.8C430.015 1708.39 429.694 1709.17 429.694 1709.99C429.694 1710.81 430.015 1711.6 430.59 1712.19V1712.19ZM380.541 1566.89C380.83 1567.18 381.198 1567.37 381.598 1567.45C381.998 1567.52 382.412 1567.48 382.788 1567.33C383.165 1567.17 383.486 1566.91 383.712 1566.58C383.938 1566.24 384.059 1565.85 384.059 1565.44C384.059 1565.04 383.938 1564.65 383.712 1564.31C383.486 1563.97 383.165 1563.71 382.788 1563.56C382.412 1563.4 381.998 1563.36 381.598 1563.44C381.198 1563.52 380.83 1563.71 380.541 1563.99C380.347 1564.18 380.194 1564.41 380.089 1564.66C379.985 1564.91 379.931 1565.17 379.931 1565.44C379.931 1565.71 379.985 1565.98 380.089 1566.23C380.194 1566.48 380.347 1566.7 380.541 1566.89V1566.89ZM451.875 1662.51C452.165 1662.79 452.532 1662.98 452.932 1663.06C453.332 1663.14 453.747 1663.1 454.123 1662.94C454.499 1662.79 454.821 1662.52 455.047 1662.19C455.273 1661.85 455.394 1661.46 455.394 1661.06C455.394 1660.65 455.273 1660.26 455.047 1659.92C454.821 1659.59 454.499 1659.33 454.123 1659.17C453.747 1659.02 453.332 1658.98 452.932 1659.05C452.532 1659.13 452.165 1659.32 451.875 1659.61C451.679 1659.8 451.524 1660.02 451.417 1660.27C451.311 1660.52 451.256 1660.79 451.256 1661.06C451.256 1661.33 451.311 1661.59 451.417 1661.84C451.524 1662.09 451.679 1662.32 451.875 1662.51V1662.51ZM484.724 1627.07C485.013 1627.35 485.381 1627.55 485.781 1627.62C486.181 1627.7 486.595 1627.66 486.972 1627.51C487.348 1627.35 487.669 1627.09 487.896 1626.75C488.122 1626.42 488.242 1626.02 488.242 1625.62C488.242 1625.22 488.122 1624.82 487.896 1624.49C487.669 1624.15 487.348 1623.89 486.972 1623.74C486.595 1623.58 486.181 1623.54 485.781 1623.62C485.381 1623.7 485.013 1623.89 484.724 1624.17C484.339 1624.56 484.123 1625.08 484.123 1625.62C484.123 1626.16 484.339 1626.68 484.724 1627.07V1627.07ZM457.202 1617.19C457.49 1617.48 457.858 1617.67 458.259 1617.75C458.66 1617.83 459.076 1617.79 459.454 1617.64C459.832 1617.49 460.155 1617.22 460.383 1616.89C460.61 1616.55 460.732 1616.16 460.732 1615.75C460.732 1615.35 460.61 1614.95 460.383 1614.62C460.155 1614.28 459.832 1614.02 459.454 1613.86C459.076 1613.71 458.66 1613.67 458.259 1613.75C457.858 1613.83 457.49 1614.03 457.202 1614.31C457 1614.5 456.839 1614.73 456.728 1614.98C456.618 1615.23 456.561 1615.5 456.561 1615.77C456.561 1616.05 456.618 1616.32 456.728 1616.57C456.839 1616.82 457 1617.05 457.202 1617.23V1617.19ZM428.349 1633.48C428.494 1633.63 428.68 1633.73 428.883 1633.77C429.085 1633.81 429.296 1633.79 429.487 1633.71C429.679 1633.63 429.843 1633.5 429.958 1633.33C430.073 1633.16 430.135 1632.96 430.135 1632.76C430.135 1632.55 430.073 1632.35 429.958 1632.18C429.843 1632.01 429.679 1631.88 429.487 1631.8C429.296 1631.72 429.085 1631.7 428.883 1631.75C428.68 1631.79 428.494 1631.89 428.349 1632.03C428.251 1632.13 428.175 1632.25 428.125 1632.38C428.075 1632.51 428.052 1632.65 428.059 1632.79C428.065 1632.93 428.1 1633.07 428.161 1633.19C428.222 1633.32 428.309 1633.43 428.415 1633.52L428.349 1633.48ZM509.094 1733.75C509.239 1733.89 509.425 1733.99 509.628 1734.04C509.831 1734.08 510.041 1734.06 510.233 1733.98C510.424 1733.9 510.588 1733.77 510.703 1733.6C510.818 1733.43 510.88 1733.23 510.88 1733.02C510.88 1732.82 510.818 1732.62 510.703 1732.45C510.588 1732.28 510.424 1732.15 510.233 1732.07C510.041 1731.99 509.831 1731.97 509.628 1732.01C509.425 1732.05 509.239 1732.15 509.094 1732.3C508.996 1732.4 508.92 1732.52 508.87 1732.65C508.82 1732.78 508.798 1732.92 508.804 1733.06C508.81 1733.2 508.845 1733.34 508.906 1733.46C508.968 1733.59 509.054 1733.7 509.161 1733.79L509.094 1733.75ZM451.254 1632.54C451.449 1632.73 451.712 1632.83 451.986 1632.83C452.26 1632.83 452.524 1632.73 452.719 1632.54C452.82 1632.44 452.9 1632.33 452.955 1632.21C453.01 1632.08 453.039 1631.95 453.039 1631.81C453.039 1631.68 453.01 1631.54 452.955 1631.42C452.9 1631.29 452.82 1631.18 452.719 1631.09C452.518 1630.93 452.267 1630.85 452.012 1630.87C451.757 1630.88 451.517 1630.99 451.336 1631.17C451.156 1631.35 451.048 1631.59 451.032 1631.84C451.017 1632.09 451.096 1632.34 451.254 1632.54V1632.54ZM422.001 1651.95C422.29 1652.23 422.658 1652.42 423.058 1652.5C423.458 1652.58 423.872 1652.54 424.249 1652.38C424.625 1652.23 424.946 1651.96 425.172 1651.63C425.399 1651.29 425.519 1650.9 425.519 1650.5C425.519 1650.09 425.399 1649.7 425.172 1649.36C424.946 1649.03 424.625 1648.77 424.249 1648.61C423.872 1648.46 423.458 1648.41 423.058 1648.49C422.658 1648.57 422.29 1648.76 422.001 1649.05C421.808 1649.24 421.656 1649.48 421.555 1649.73C421.454 1649.99 421.405 1650.26 421.411 1650.53C421.417 1650.81 421.478 1651.08 421.591 1651.33C421.704 1651.58 421.866 1651.8 422.068 1651.99L422.001 1651.95ZM487.742 1719.85C488.032 1720.14 488.4 1720.33 488.8 1720.41C489.2 1720.48 489.614 1720.44 489.99 1720.29C490.366 1720.13 490.688 1719.87 490.914 1719.54C491.14 1719.2 491.261 1718.81 491.261 1718.4C491.261 1718 491.14 1717.61 490.914 1717.27C490.688 1716.93 490.366 1716.67 489.99 1716.52C489.614 1716.36 489.2 1716.32 488.8 1716.4C488.4 1716.48 488.032 1716.67 487.742 1716.95C487.358 1717.34 487.142 1717.86 487.142 1718.4C487.142 1718.94 487.358 1719.47 487.742 1719.85V1719.85ZM437.804 1807.34C437.992 1807.54 438.218 1807.69 438.468 1807.79C438.718 1807.9 438.986 1807.95 439.258 1807.95C439.529 1807.95 439.798 1807.9 440.047 1807.79C440.297 1807.69 440.523 1807.54 440.711 1807.34C441.002 1807.06 441.2 1806.69 441.281 1806.3C441.362 1805.9 441.322 1805.49 441.166 1805.11C441.01 1804.74 440.746 1804.42 440.406 1804.2C440.066 1803.97 439.666 1803.85 439.258 1803.85C438.849 1803.85 438.449 1803.97 438.109 1804.2C437.769 1804.42 437.505 1804.74 437.349 1805.11C437.193 1805.49 437.153 1805.9 437.234 1806.3C437.315 1806.69 437.513 1807.06 437.804 1807.34ZM589.884 1823C590.758 1823.84 591.865 1824.42 593.067 1824.64C594.269 1824.87 595.512 1824.74 596.641 1824.27C597.769 1823.8 598.732 1823.02 599.409 1822.01C600.086 1821 600.448 1819.82 600.448 1818.6C600.448 1817.39 600.086 1816.21 599.409 1815.2C598.732 1814.19 597.769 1813.41 596.641 1812.94C595.512 1812.47 594.269 1812.34 593.067 1812.57C591.865 1812.79 590.758 1813.37 589.884 1814.21C589.292 1814.78 588.82 1815.46 588.495 1816.22C588.171 1816.97 588.001 1817.77 587.995 1818.59C587.988 1819.41 588.146 1820.22 588.459 1820.97C588.772 1821.73 589.234 1822.42 589.817 1823H589.884ZM34.6984 1544.45C35.3143 1545.08 36.105 1545.51 36.9693 1545.69C37.8336 1545.87 38.7322 1545.79 39.5503 1545.46C40.3684 1545.13 41.0688 1544.57 41.5619 1543.84C42.0549 1543.12 42.3183 1542.26 42.3183 1541.39C42.3183 1540.52 42.0549 1539.66 41.5619 1538.94C41.0688 1538.21 40.3684 1537.65 39.5503 1537.32C38.7322 1536.99 37.8336 1536.91 36.9693 1537.09C36.105 1537.27 35.3143 1537.7 34.6984 1538.33C33.8917 1539.15 33.4403 1540.25 33.4403 1541.39C33.4403 1542.54 33.8917 1543.63 34.6984 1544.45V1544.45ZM689.695 1766.55C690.312 1767.17 691.103 1767.6 691.966 1767.78C692.83 1767.95 693.727 1767.87 694.543 1767.54C695.359 1767.21 696.058 1766.65 696.549 1765.92C697.041 1765.2 697.304 1764.35 697.304 1763.48C697.304 1762.6 697.041 1761.75 696.549 1761.03C696.058 1760.3 695.359 1759.74 694.543 1759.41C693.727 1759.08 692.83 1759 691.966 1759.18C691.103 1759.35 690.312 1759.78 689.695 1760.4C688.881 1761.22 688.426 1762.33 688.426 1763.48C688.426 1764.63 688.881 1765.73 689.695 1766.55V1766.55ZM489.341 1656.78C489.956 1657.4 490.747 1657.83 491.611 1658.01C492.476 1658.19 493.374 1658.11 494.192 1657.78C495.011 1657.45 495.711 1656.89 496.204 1656.16C496.697 1655.44 496.96 1654.59 496.96 1653.71C496.96 1652.84 496.697 1651.99 496.204 1651.26C495.711 1650.54 495.011 1649.97 494.192 1649.64C493.374 1649.32 492.476 1649.24 491.611 1649.41C490.747 1649.59 489.956 1650.02 489.341 1650.65C488.527 1651.47 488.072 1652.57 488.072 1653.72C488.072 1654.87 488.527 1655.98 489.341 1656.8V1656.78ZM676.711 1824.07C677.161 1824.52 677.734 1824.82 678.358 1824.94C678.983 1825.07 679.63 1825 680.218 1824.76C680.806 1824.52 681.309 1824.11 681.663 1823.59C682.016 1823.07 682.205 1822.45 682.205 1821.82C682.205 1821.19 682.016 1820.58 681.663 1820.05C681.309 1819.53 680.806 1819.12 680.218 1818.88C679.63 1818.64 678.983 1818.58 678.358 1818.7C677.734 1818.82 677.161 1819.13 676.711 1819.57C676.406 1819.87 676.164 1820.22 675.999 1820.61C675.833 1820.99 675.748 1821.41 675.748 1821.83C675.748 1822.25 675.833 1822.67 675.999 1823.06C676.164 1823.45 676.406 1823.8 676.711 1824.09V1824.07ZM702.501 1886.49C702.945 1886.95 703.518 1887.27 704.146 1887.4C704.775 1887.54 705.43 1887.49 706.027 1887.25C706.624 1887.01 707.136 1886.61 707.497 1886.08C707.857 1885.55 708.05 1884.93 708.05 1884.29C708.05 1883.66 707.857 1883.04 707.497 1882.51C707.136 1881.98 706.624 1881.57 706.027 1881.34C705.43 1881.1 704.775 1881.05 704.146 1881.18C703.518 1881.32 702.945 1881.64 702.501 1882.1C701.92 1882.69 701.594 1883.48 701.594 1884.31C701.594 1885.13 701.92 1885.92 702.501 1886.51V1886.49ZM578.897 1804.99C579.197 1805.29 579.553 1805.53 579.945 1805.69C580.337 1805.85 580.758 1805.94 581.183 1805.94C581.609 1805.94 582.029 1805.85 582.422 1805.69C582.814 1805.53 583.17 1805.29 583.469 1804.99C583.924 1804.55 584.234 1803.97 584.361 1803.35C584.487 1802.73 584.423 1802.08 584.179 1801.5C583.934 1800.91 583.518 1800.41 582.985 1800.06C582.452 1799.7 581.825 1799.52 581.183 1799.52C580.542 1799.52 579.915 1799.7 579.382 1800.06C578.848 1800.41 578.433 1800.91 578.188 1801.5C577.943 1802.08 577.88 1802.73 578.006 1803.35C578.133 1803.97 578.443 1804.55 578.897 1804.99V1804.99ZM391.794 1922.08C392.245 1922.52 392.818 1922.82 393.442 1922.94C394.065 1923.06 394.711 1923 395.297 1922.76C395.884 1922.51 396.384 1922.11 396.737 1921.58C397.089 1921.06 397.277 1920.45 397.277 1919.82C397.277 1919.19 397.089 1918.57 396.737 1918.05C396.384 1917.53 395.884 1917.12 395.297 1916.88C394.711 1916.64 394.065 1916.57 393.442 1916.69C392.818 1916.81 392.245 1917.11 391.794 1917.56C391.491 1917.85 391.251 1918.21 391.087 1918.6C390.923 1918.99 390.839 1919.41 390.839 1919.83C390.839 1920.25 390.923 1920.67 391.087 1921.06C391.251 1921.45 391.491 1921.8 391.794 1922.1V1922.08ZM626.661 1678.77C626.949 1679.06 627.317 1679.26 627.718 1679.34C628.118 1679.42 628.534 1679.38 628.912 1679.22C629.291 1679.07 629.614 1678.81 629.841 1678.47C630.069 1678.14 630.19 1677.74 630.19 1677.34C630.19 1676.93 630.069 1676.54 629.841 1676.2C629.614 1675.86 629.291 1675.6 628.912 1675.45C628.534 1675.29 628.118 1675.25 627.718 1675.33C627.317 1675.41 626.949 1675.61 626.661 1675.9C626.466 1676.08 626.31 1676.31 626.204 1676.55C626.098 1676.8 626.043 1677.07 626.043 1677.34C626.043 1677.6 626.098 1677.87 626.204 1678.12C626.31 1678.36 626.466 1678.59 626.661 1678.77V1678.77ZM697.996 1774.41C698.384 1774.79 698.911 1775.01 699.461 1775.01C700.01 1775.01 700.537 1774.79 700.925 1774.41C701.314 1774.03 701.532 1773.5 701.532 1772.96C701.532 1772.42 701.314 1771.9 700.925 1771.51C700.733 1771.32 700.505 1771.17 700.253 1771.07C700.002 1770.96 699.733 1770.91 699.461 1770.91C699.188 1770.91 698.919 1770.96 698.668 1771.07C698.416 1771.17 698.188 1771.32 697.996 1771.51C697.803 1771.7 697.651 1771.93 697.547 1772.18C697.442 1772.43 697.389 1772.69 697.389 1772.96C697.389 1773.23 697.442 1773.5 697.547 1773.74C697.651 1773.99 697.803 1774.22 697.996 1774.41V1774.41ZM594.611 1800.91C595 1801.29 595.527 1801.51 596.076 1801.51C596.626 1801.51 597.153 1801.29 597.541 1800.91C597.93 1800.52 598.148 1800 598.148 1799.46C598.148 1798.92 597.93 1798.4 597.541 1798.01C597.351 1797.82 597.123 1797.66 596.871 1797.56C596.62 1797.45 596.349 1797.4 596.076 1797.4C595.803 1797.4 595.533 1797.45 595.281 1797.56C595.029 1797.66 594.802 1797.82 594.611 1798.01C594.226 1798.4 594.011 1798.92 594.011 1799.46C594.011 1800 594.226 1800.52 594.611 1800.91V1800.91ZM5.60076 1817.53C5.99114 1817.91 6.51737 1818.12 7.06563 1818.12C7.61388 1818.12 8.14011 1817.91 8.53049 1817.53C8.91544 1817.14 9.13125 1816.62 9.13125 1816.08C9.13125 1815.54 8.91544 1815.02 8.53049 1814.63C8.14011 1814.25 7.61388 1814.04 7.06563 1814.04C6.51737 1814.04 5.99114 1814.25 5.60076 1814.63C5.21581 1815.02 5 1815.54 5 1816.08C5 1816.62 5.21581 1817.14 5.60076 1817.53V1817.53ZM68.5235 1802.31C68.7119 1802.51 68.9378 1802.66 69.1876 1802.77C69.4373 1802.87 69.7059 1802.93 69.9773 1802.93C70.2487 1802.93 70.5173 1802.87 70.7671 1802.77C71.0169 1802.66 71.2427 1802.51 71.4311 1802.31C71.7214 1802.03 71.9196 1801.67 72.0006 1801.27C72.0816 1800.87 72.0416 1800.46 71.8859 1800.09C71.7301 1799.71 71.4656 1799.39 71.1258 1799.17C70.786 1798.94 70.3863 1798.82 69.9773 1798.82C69.5684 1798.82 69.1686 1798.94 68.8289 1799.17C68.4891 1799.39 68.2245 1799.71 68.0687 1800.09C67.913 1800.46 67.8731 1800.87 67.9541 1801.27C68.035 1801.67 68.2332 1802.03 68.5235 1802.31ZM730.778 1739.04C731.066 1739.33 731.433 1739.52 731.834 1739.6C732.235 1739.68 732.651 1739.64 733.029 1739.49C733.407 1739.34 733.731 1739.07 733.958 1738.74C734.186 1738.4 734.307 1738.01 734.307 1737.6C734.307 1737.2 734.186 1736.8 733.958 1736.47C733.731 1736.13 733.407 1735.87 733.029 1735.71C732.651 1735.56 732.235 1735.52 731.834 1735.6C731.433 1735.68 731.066 1735.88 730.778 1736.16C730.585 1736.35 730.432 1736.58 730.328 1736.82C730.223 1737.07 730.17 1737.33 730.17 1737.6C730.17 1737.87 730.223 1738.13 730.328 1738.38C730.432 1738.63 730.585 1738.85 730.778 1739.04ZM183.405 1546.93C183.694 1547.22 184.062 1547.41 184.462 1547.49C184.862 1547.57 185.276 1547.53 185.652 1547.37C186.029 1547.22 186.35 1546.95 186.576 1546.62C186.802 1546.28 186.923 1545.89 186.923 1545.49C186.923 1545.08 186.802 1544.69 186.576 1544.35C186.35 1544.02 186.029 1543.76 185.652 1543.6C185.276 1543.45 184.862 1543.4 184.462 1543.48C184.062 1543.56 183.694 1543.75 183.405 1544.04C183.212 1544.23 183.058 1544.45 182.953 1544.7C182.849 1544.95 182.795 1545.22 182.795 1545.49C182.795 1545.75 182.849 1546.02 182.953 1546.27C183.058 1546.52 183.212 1546.74 183.405 1546.93V1546.93ZM703.322 1729.16C703.612 1729.44 703.979 1729.64 704.379 1729.72C704.779 1729.79 705.194 1729.75 705.57 1729.6C705.946 1729.44 706.268 1729.18 706.494 1728.84C706.72 1728.51 706.841 1728.11 706.841 1727.71C706.841 1727.31 706.72 1726.91 706.494 1726.58C706.268 1726.24 705.946 1725.98 705.57 1725.83C705.194 1725.67 704.779 1725.63 704.379 1725.71C703.979 1725.79 703.612 1725.98 703.322 1726.26C703.13 1726.45 702.977 1726.67 702.873 1726.92C702.768 1727.17 702.714 1727.43 702.714 1727.7C702.714 1727.97 702.768 1728.23 702.873 1728.48C702.977 1728.73 703.13 1728.95 703.322 1729.14V1729.16ZM519.259 1759.33C519.445 1759.54 519.674 1759.72 519.932 1759.84C520.189 1759.97 520.47 1760.03 520.757 1760.05C521.043 1760.06 521.328 1760.01 521.595 1759.9C521.861 1759.8 522.102 1759.64 522.303 1759.44C522.504 1759.24 522.66 1758.99 522.762 1758.73C522.864 1758.46 522.909 1758.18 522.894 1757.9C522.879 1757.62 522.805 1757.34 522.676 1757.09C522.547 1756.83 522.366 1756.61 522.145 1756.43C521.756 1756.04 521.229 1755.83 520.68 1755.83C520.13 1755.83 519.603 1756.04 519.215 1756.43C518.826 1756.81 518.608 1757.33 518.608 1757.88C518.608 1758.42 518.826 1758.94 519.215 1759.33H519.259ZM674.624 1745.43C674.82 1745.62 675.083 1745.73 675.357 1745.73C675.631 1745.73 675.894 1745.62 676.089 1745.43C676.247 1745.23 676.326 1744.98 676.311 1744.73C676.296 1744.48 676.187 1744.24 676.007 1744.06C675.826 1743.88 675.586 1743.78 675.331 1743.76C675.076 1743.75 674.825 1743.82 674.624 1743.98C674.42 1744.16 674.295 1744.42 674.279 1744.69C674.262 1744.96 674.354 1745.22 674.536 1745.43H674.624ZM511.225 1778.56C511.37 1778.7 511.556 1778.8 511.759 1778.85C511.961 1778.89 512.172 1778.87 512.363 1778.79C512.555 1778.71 512.719 1778.58 512.834 1778.41C512.949 1778.24 513.011 1778.04 513.011 1777.83C513.011 1777.63 512.949 1777.43 512.834 1777.26C512.719 1777.09 512.555 1776.96 512.363 1776.88C512.172 1776.8 511.961 1776.78 511.759 1776.82C511.556 1776.86 511.37 1776.96 511.225 1777.11C511.032 1777.3 510.924 1777.56 510.924 1777.83C510.924 1778.11 511.032 1778.37 511.225 1778.56V1778.56ZM539.59 1759.81C539.735 1759.96 539.921 1760.06 540.124 1760.1C540.327 1760.14 540.537 1760.12 540.729 1760.04C540.92 1759.96 541.084 1759.83 541.199 1759.66C541.314 1759.49 541.376 1759.29 541.376 1759.09C541.376 1758.88 541.314 1758.68 541.199 1758.51C541.084 1758.34 540.92 1758.21 540.729 1758.13C540.537 1758.05 540.327 1758.03 540.124 1758.07C539.921 1758.12 539.735 1758.21 539.59 1758.36C539.488 1758.46 539.407 1758.57 539.351 1758.7C539.296 1758.83 539.267 1758.97 539.267 1759.11C539.267 1759.25 539.296 1759.38 539.351 1759.51C539.407 1759.64 539.488 1759.76 539.59 1759.85V1759.81ZM755.192 1845.7C755.337 1845.84 755.523 1845.94 755.726 1845.98C755.929 1846.02 756.139 1846.01 756.331 1845.93C756.522 1845.85 756.686 1845.72 756.801 1845.55C756.917 1845.38 756.978 1845.18 756.978 1844.97C756.978 1844.77 756.917 1844.57 756.801 1844.4C756.686 1844.23 756.522 1844.1 756.331 1844.02C756.139 1843.94 755.929 1843.92 755.726 1843.96C755.523 1844 755.337 1844.1 755.192 1844.25C755 1844.44 754.892 1844.7 754.892 1844.97C754.892 1845.24 755 1845.5 755.192 1845.7V1845.7ZM756.235 1917.49C756.381 1917.64 756.566 1917.74 756.769 1917.78C756.972 1917.82 757.182 1917.8 757.374 1917.72C757.565 1917.64 757.729 1917.51 757.844 1917.34C757.96 1917.17 758.021 1916.97 758.021 1916.77C758.021 1916.56 757.96 1916.36 757.844 1916.19C757.729 1916.02 757.565 1915.89 757.374 1915.81C757.182 1915.73 756.972 1915.71 756.769 1915.75C756.566 1915.8 756.381 1915.9 756.235 1916.04C756.14 1916.14 756.066 1916.26 756.018 1916.38C755.971 1916.51 755.951 1916.65 755.959 1916.78C755.967 1916.92 756.004 1917.05 756.067 1917.18C756.13 1917.3 756.217 1917.4 756.324 1917.49H756.235ZM716.773 1918.52C716.918 1918.67 717.104 1918.77 717.306 1918.81C717.509 1918.85 717.72 1918.83 717.911 1918.75C718.103 1918.67 718.266 1918.54 718.382 1918.37C718.497 1918.2 718.559 1918 718.559 1917.8C718.559 1917.59 718.497 1917.39 718.382 1917.22C718.266 1917.05 718.103 1916.92 717.911 1916.84C717.72 1916.76 717.509 1916.75 717.306 1916.79C717.104 1916.83 716.918 1916.93 716.773 1917.07C716.591 1917.28 716.499 1917.54 716.516 1917.82C716.532 1918.09 716.657 1918.34 716.861 1918.52H716.773ZM715.752 1905.06C715.843 1905.18 715.957 1905.27 716.088 1905.34C716.219 1905.41 716.362 1905.45 716.51 1905.46C716.657 1905.46 716.804 1905.44 716.942 1905.39C717.08 1905.34 717.205 1905.26 717.309 1905.16C717.413 1905.05 717.494 1904.93 717.547 1904.79C717.599 1904.66 717.622 1904.51 717.613 1904.36C717.604 1904.22 717.564 1904.08 717.496 1903.95C717.428 1903.82 717.332 1903.7 717.217 1903.61C717.123 1903.51 717.01 1903.44 716.884 1903.38C716.758 1903.33 716.622 1903.3 716.484 1903.3C716.347 1903.3 716.211 1903.33 716.084 1903.38C715.958 1903.44 715.845 1903.51 715.752 1903.61C715.571 1903.82 715.478 1904.09 715.495 1904.36C715.511 1904.63 715.636 1904.88 715.84 1905.06H715.752ZM587.176 1812.33C587.371 1812.52 587.634 1812.62 587.908 1812.62C588.183 1812.62 588.446 1812.52 588.641 1812.33C588.742 1812.23 588.822 1812.12 588.877 1812C588.932 1811.87 588.961 1811.74 588.961 1811.6C588.961 1811.47 588.932 1811.33 588.877 1811.21C588.822 1811.08 588.742 1810.97 588.641 1810.88C588.55 1810.76 588.435 1810.67 588.304 1810.6C588.174 1810.53 588.03 1810.49 587.883 1810.48C587.736 1810.48 587.588 1810.5 587.451 1810.55C587.313 1810.6 587.188 1810.68 587.083 1810.79C586.979 1810.89 586.898 1811.01 586.846 1811.15C586.794 1811.28 586.771 1811.43 586.78 1811.58C586.789 1811.72 586.828 1811.86 586.897 1811.99C586.965 1812.12 587.06 1812.24 587.176 1812.33V1812.33ZM697.485 1744.49C697.677 1744.67 697.936 1744.78 698.207 1744.78C698.477 1744.78 698.736 1744.67 698.928 1744.49C699.029 1744.39 699.109 1744.28 699.164 1744.16C699.219 1744.03 699.248 1743.9 699.248 1743.76C699.248 1743.62 699.219 1743.49 699.164 1743.37C699.109 1743.24 699.029 1743.13 698.928 1743.04C698.736 1742.85 698.477 1742.74 698.207 1742.74C697.936 1742.74 697.677 1742.85 697.485 1743.04C697.384 1743.13 697.304 1743.24 697.249 1743.37C697.194 1743.49 697.165 1743.62 697.165 1743.76C697.165 1743.9 697.194 1744.03 697.249 1744.16C697.304 1744.28 697.384 1744.39 697.485 1744.49V1744.49ZM580.473 1797.18C580.618 1797.32 580.804 1797.42 581.007 1797.46C581.21 1797.5 581.42 1797.48 581.612 1797.41C581.803 1797.33 581.967 1797.2 582.082 1797.03C582.198 1796.86 582.259 1796.66 582.259 1796.45C582.259 1796.25 582.198 1796.05 582.082 1795.88C581.967 1795.71 581.803 1795.58 581.612 1795.5C581.42 1795.42 581.21 1795.4 581.007 1795.44C580.804 1795.48 580.618 1795.58 580.473 1795.73C580.297 1795.91 580.197 1796.16 580.193 1796.42C580.189 1796.67 580.281 1796.92 580.451 1797.11L580.473 1797.18ZM668.21 1763.96C668.402 1764.15 668.631 1764.3 668.882 1764.4C669.133 1764.51 669.403 1764.56 669.675 1764.56C669.947 1764.56 670.216 1764.51 670.468 1764.4C670.719 1764.3 670.947 1764.15 671.14 1763.96C671.332 1763.77 671.485 1763.54 671.589 1763.29C671.693 1763.05 671.746 1762.78 671.746 1762.51C671.746 1762.24 671.693 1761.97 671.589 1761.73C671.485 1761.48 671.332 1761.25 671.14 1761.06C670.949 1760.87 670.722 1760.71 670.47 1760.61C670.218 1760.5 669.948 1760.45 669.675 1760.45C669.402 1760.45 669.131 1760.5 668.88 1760.61C668.628 1760.71 668.4 1760.87 668.21 1761.06C667.842 1761.44 667.634 1761.95 667.63 1762.47C667.626 1763 667.825 1763.51 668.188 1763.89L668.21 1763.96ZM541.987 1796.89C542.177 1797.09 542.405 1797.24 542.657 1797.34C542.908 1797.45 543.179 1797.5 543.452 1797.5C543.725 1797.5 543.996 1797.45 544.247 1797.34C544.499 1797.24 544.726 1797.09 544.917 1796.89C545.305 1796.51 545.524 1795.99 545.524 1795.44C545.524 1794.9 545.305 1794.38 544.917 1793.99C544.528 1793.61 544.001 1793.39 543.452 1793.39C542.902 1793.39 542.376 1793.61 541.987 1793.99C541.615 1794.37 541.405 1794.87 541.401 1795.39C541.397 1795.92 541.599 1796.42 541.965 1796.8L541.987 1796.89ZM569.398 1798.93C569.686 1799.22 570.054 1799.42 570.454 1799.5C570.855 1799.58 571.271 1799.54 571.649 1799.38C572.027 1799.23 572.351 1798.97 572.578 1798.63C572.806 1798.3 572.927 1797.9 572.927 1797.5C572.927 1797.09 572.806 1796.7 572.578 1796.36C572.351 1796.02 572.027 1795.76 571.649 1795.61C571.271 1795.45 570.855 1795.41 570.454 1795.49C570.054 1795.57 569.686 1795.77 569.398 1796.06C569.033 1796.43 568.826 1796.93 568.822 1797.45C568.818 1797.97 569.016 1798.47 569.376 1798.85L569.398 1798.93ZM733.885 1831.87C734.173 1832.15 734.541 1832.35 734.942 1832.43C735.342 1832.51 735.758 1832.47 736.136 1832.32C736.514 1832.16 736.838 1831.9 737.065 1831.56C737.293 1831.23 737.414 1830.83 737.414 1830.43C737.414 1830.02 737.293 1829.63 737.065 1829.29C736.838 1828.96 736.514 1828.69 736.136 1828.54C735.758 1828.39 735.342 1828.35 734.942 1828.43C734.541 1828.51 734.173 1828.7 733.885 1828.99C733.532 1829.36 733.334 1829.85 733.33 1830.36C733.326 1830.87 733.516 1831.36 733.863 1831.73L733.885 1831.87ZM159.545 1706.72C159.834 1707.01 160.202 1707.2 160.602 1707.28C161.002 1707.35 161.417 1707.31 161.793 1707.16C162.169 1707 162.491 1706.74 162.717 1706.41C162.943 1706.07 163.064 1705.68 163.064 1705.27C163.064 1704.87 162.943 1704.48 162.717 1704.14C162.491 1703.81 162.169 1703.54 161.793 1703.39C161.417 1703.23 161.002 1703.19 160.602 1703.27C160.202 1703.35 159.834 1703.54 159.545 1703.82C159.172 1704.2 158.961 1704.71 158.957 1705.24C158.953 1705.76 159.156 1706.27 159.523 1706.66L159.545 1706.72ZM107.786 1895.05C108.076 1895.34 108.444 1895.53 108.844 1895.61C109.244 1895.68 109.658 1895.64 110.034 1895.49C110.41 1895.33 110.732 1895.07 110.958 1894.74C111.184 1894.4 111.305 1894.01 111.305 1893.6C111.305 1893.2 111.184 1892.81 110.958 1892.47C110.732 1892.13 110.41 1891.87 110.034 1891.72C109.658 1891.56 109.244 1891.52 108.844 1891.6C108.444 1891.68 108.076 1891.87 107.786 1892.15C107.402 1892.54 107.186 1893.06 107.186 1893.6C107.186 1894.15 107.402 1894.67 107.786 1895.05V1895.05ZM645.926 1904.76C646.215 1905.04 646.583 1905.23 646.983 1905.31C647.383 1905.39 647.798 1905.35 648.174 1905.19C648.55 1905.04 648.872 1904.78 649.098 1904.44C649.324 1904.1 649.445 1903.71 649.445 1903.31C649.445 1902.9 649.324 1902.51 649.098 1902.17C648.872 1901.84 648.55 1901.58 648.174 1901.42C647.798 1901.27 647.383 1901.23 646.983 1901.3C646.583 1901.38 646.215 1901.57 645.926 1901.86C645.73 1902.05 645.574 1902.27 645.468 1902.52C645.362 1902.77 645.307 1903.04 645.307 1903.31C645.307 1903.58 645.362 1903.84 645.468 1904.09C645.574 1904.34 645.73 1904.57 645.926 1904.76V1904.76ZM188.132 1688.37C188.42 1688.66 188.788 1688.85 189.189 1688.93C189.59 1689.01 190.006 1688.97 190.384 1688.82C190.762 1688.66 191.085 1688.4 191.313 1688.07C191.54 1687.73 191.662 1687.33 191.662 1686.93C191.662 1686.53 191.54 1686.13 191.313 1685.79C191.085 1685.46 190.762 1685.2 190.384 1685.04C190.006 1684.89 189.59 1684.85 189.189 1684.93C188.788 1685.01 188.42 1685.21 188.132 1685.49C187.937 1685.68 187.782 1685.9 187.676 1686.15C187.569 1686.4 187.515 1686.66 187.515 1686.93C187.515 1687.2 187.569 1687.46 187.676 1687.71C187.782 1687.96 187.937 1688.18 188.132 1688.37V1688.37ZM683.857 1919.25C684.147 1919.53 684.515 1919.72 684.915 1919.8C685.314 1919.88 685.729 1919.84 686.105 1919.68C686.481 1919.53 686.803 1919.27 687.029 1918.93C687.255 1918.59 687.376 1918.2 687.376 1917.8C687.376 1917.39 687.255 1917 687.029 1916.66C686.803 1916.33 686.481 1916.07 686.105 1915.91C685.729 1915.76 685.314 1915.72 684.915 1915.79C684.515 1915.87 684.147 1916.06 683.857 1916.35C683.661 1916.54 683.506 1916.76 683.399 1917.01C683.293 1917.26 683.238 1917.53 683.238 1917.8C683.238 1918.07 683.293 1918.34 683.399 1918.58C683.506 1918.83 683.661 1919.06 683.857 1919.25V1919.25ZM273.894 1798.85C274.182 1799.13 274.55 1799.33 274.95 1799.41C275.351 1799.49 275.767 1799.45 276.145 1799.3C276.523 1799.14 276.847 1798.88 277.074 1798.54C277.302 1798.21 277.423 1797.81 277.423 1797.41C277.423 1797 277.302 1796.61 277.074 1796.27C276.847 1795.94 276.523 1795.67 276.145 1795.52C275.767 1795.37 275.351 1795.33 274.95 1795.41C274.55 1795.49 274.182 1795.68 273.894 1795.97C273.698 1796.16 273.543 1796.38 273.437 1796.63C273.331 1796.87 273.276 1797.14 273.276 1797.41C273.276 1797.68 273.331 1797.94 273.437 1798.19C273.543 1798.44 273.698 1798.66 273.894 1798.85V1798.85ZM601.137 1854.11C601.327 1854.3 601.555 1854.45 601.806 1854.56C602.058 1854.66 602.328 1854.72 602.602 1854.72C602.875 1854.72 603.145 1854.66 603.397 1854.56C603.648 1854.45 603.876 1854.3 604.066 1854.11C604.354 1853.82 604.549 1853.46 604.627 1853.06C604.706 1852.66 604.664 1852.25 604.507 1851.88C604.35 1851.51 604.086 1851.19 603.747 1850.97C603.408 1850.75 603.009 1850.63 602.602 1850.63C602.194 1850.63 601.795 1850.75 601.456 1850.97C601.117 1851.19 600.853 1851.51 600.696 1851.88C600.539 1852.25 600.498 1852.66 600.576 1853.06C600.654 1853.46 600.85 1853.82 601.137 1854.11Z" fill="#604F72"/>
</svg>
