<svg xmlns="http://www.w3.org/2000/svg" xmlns:xlink="http://www.w3.org/1999/xlink" width="945" height="769" fill="none" xmlns:v="https://vecta.io/nano"><style><![CDATA[.B{stroke-linejoin:round}.C{fill:#a7a7a8}.D{stroke-width:1.59}.E{stroke:#000}.F{fill-rule:evenodd}.G{opacity:.2}.H{fill:#ffc404}.I{fill:#fff}.J{stroke-linecap:round}.K{opacity:.3}.L{fill:#bec6de}.M{opacity:.35}.N{fill:#474757}.O{stroke-miterlimit:10}.P{fill:#bac2d6}.Q{fill:#ffd491}.R{opacity:.4}.S{fill:#000}.T{opacity:.6}.U{fill:#ffa487}.V{opacity:.7}.W{fill:#9696a8}.X{fill:#aba7b5}.Y{fill:#c954ff}.Z{fill:#efa500}.a{opacity:.47}.b{fill:#7d59e0}.c{fill:#565761}]]></style><g clip-path="url(#F)"><g class="F"><path d="M172.668 642.932s4.606 48.1 0 68.053c0 0-5.971 11.651-32.223 16.71v38.338s-40.259 5.914-57.545-2.797l-11.6-12.079C49.313 722.458.543 632.777.543 632.777l78.092 5.808 94.033 4.347z" fill="url(#A)"/><path d="M172.668 642.932s-61.981-4.525-64.445-6.841c-4.246-4.169-18.803-6.271-18.803-6.271L.543 632.777s12.074 5.808 24.034 10.155 68.065 6.841 91.986 5.593 56.105-5.593 56.105-5.593z" fill="#ceccd4"/></g><g style="mix-blend-mode:multiply" class="T F W"><path d="M145.373 726.626l-.53.125-4.36.944v38.338s-40.505 6.164-57.545-2.797l-11.6-12.079C48.251 719.5.543 632.777.543 632.777s24.337 13.557 37.435 12.72c-2.805-.32 23.996 64.793 27.332 73.398s22.215 14.251 22.215 14.251l27.787-7.125 4.208-15.125v-40.102l9.591 40.191 15.163 3.563 28.432-3.563s-5.27 10.154-27.333 15.641z"/></g><g style="mix-blend-mode:color-dodge" opacity=".46" class="F X"><path d="M108.28 636.09s-25.531 2.351-35.122 2.084-30.327-2.084-30.327-2.084 32.014-6.947 46.59-6.27c0 0 16.016 2.565 18.859 6.27z"/></g><g style="mix-blend-mode:multiply" opacity=".29" class="C"><path d="M145.79 680.325c.948.873 6.691-.677 7.582-1.568 6.179-5.576 6.824-12.915 3.052-11.526s-17.362 6.77-10.634 13.094z"/></g><g style="mix-blend-mode:multiply" opacity=".29" class="C"><path d="M135.29 668.603c.606-.224 1.277-.239 1.894-.043s1.141.589 1.48 1.112c.252.533.386 1.11.394 1.694a4.08 4.08 0 0 1-.348 1.703c-.237.54-.589 1.029-1.034 1.437s-.972.727-1.552.937c-3.791 2.031-9.591-.392-9.477-2.636-.057-1.55 5.307-3.278 8.643-4.204z"/></g><g style="mix-blend-mode:multiply" opacity=".29" class="C"><path d="M63.036 684.939c-2.862 2.281-13.514 11.259-14.841 12.934s11.069 10.689 13.723 8.907 6.653-20.879 5.44-22.767-3.469.249-4.322.926z"/></g><path d="M129.111 710.985l3.677 14.216 7.676 2.494v38.338l-19.636-25.119-5.516-14.965 4.208-15.125v-39.976l9.591 40.137z" class="N"/></g><use xlink:href="#G" class="U"/><g class="D E"><use xlink:href="#G" class="O"/><path d="M272.179 398.152l-7.933-1.048" class="B J"/></g><use xlink:href="#H" class="P"/><path d="M256.757 365.895c.97 6.164 4.216 12.741 9.428 16.195 4.512 2.99 10.87 3.654 16.271 3.109-.081 2.099-.35 4.225-.35 6.324-.013.216-.071.426-.171.619s-.238.361-.408.498a1.59 1.59 0 0 1-1.226.331l-16.958-2.365a1.61 1.61 0 0 1-.842-.359 1.57 1.57 0 0 1-.504-.757c-1.105-3.892-6.371-18.6-8.93-27.488a22.3 22.3 0 0 0 3.69 3.893h0z" class="I R"/><g class="D E O"><path d="M255.1 409.991h24.635c.907 0 1.643-.726 1.643-1.621v-.678c0-.895-.736-1.62-1.643-1.62H255.1c-.907 0-1.643.725-1.643 1.62v.678c0 .895.736 1.621 1.643 1.621z" fill="#878787"/><use xlink:href="#H"/><use xlink:href="#G"/></g><use xlink:href="#I" class="U"/><g class="D E"><use xlink:href="#I" class="O"/><path d="M290.497 398.152l-7.934-1.048" class="B J"/></g><use xlink:href="#J" class="P"/><path d="M275.061 365.895c.97 6.164 4.216 12.741 9.429 16.195 4.512 2.99 10.869 3.654 16.283 3.109-.094 2.099-.363 4.225-.363 6.324a1.56 1.56 0 0 1-.17.619 1.57 1.57 0 0 1-.409.498 1.59 1.59 0 0 1-1.226.331l-16.944-2.365a1.58 1.58 0 0 1-.846-.355c-.24-.199-.414-.463-.501-.761-1.118-3.892-6.384-18.6-8.943-27.488 1.067 1.439 2.306 2.746 3.69 3.893h0z" class="I R"/><g class="D E"><g class="O"><path d="M273.418 409.991h24.635c.907 0 1.643-.726 1.643-1.621v-.678c0-.895-.736-1.62-1.643-1.62h-24.635c-.908 0-1.643.725-1.643 1.62v.678c0 .895.735 1.621 1.643 1.621z" fill="#878787"/><use xlink:href="#J"/><use xlink:href="#I"/></g><path d="M142.554 245.591l11.045-.704c21.267-1.329 39.948-12.847 48.999-37.32.149-.385.297-.771.472-1.143.377-.823.687-1.408.687-1.408 2.465-4.464 5.468-8.197 11.017-9.3a18.6 18.6 0 0 1 10.358.767c3.305 1.234 6.18 3.383 8.277 6.188s3.33 6.15 3.549 9.629-.586 6.948-2.317 9.988c-.108.265-13.173 27.9-39.437 37.546-35.518 12.953-53.552.146-53.552.146l.902-14.389z" class="B U"/></g><g style="mix-blend-mode:color-dodge" class="K Q"><path d="M228.163 205.069c-1.993 2.459-3.281 5.4-3.731 8.516-1.199 7.812-2.384 9.633-7.045 16.01-3.353 4.623-9.428 10.243-14.815 12.236-8.553 3.175-24.446 3.202-29.093-1.063 6.573-3.986 12.23-7.586 17.105-12.914 5.576-6.098 9.186-13.206 12.217-20.792.08-.213.727-1.634.969-2.046 2.398-4.331 5.294-7.972 10.533-9.221 3.068-.734 6.276-.676 9.315.169s5.805 2.448 8.033 4.654a17.19 17.19 0 0 0-3.488 4.451h0z"/></g><g style="mix-blend-mode:multiply" class="V"><path d="M207.595 253.416c-3.86 2.588-8.02 4.712-12.391 6.325-35.518 12.953-53.552.146-53.552.146l.848-13.565c1.724 5.66 35.935 23.449 65.095 7.094z" fill="#ffa66b"/></g><path d="M399.807 136.999c5.494-45.11-41.207-87.74-104.31-95.217s-118.71 23.03-124.204 68.141 41.208 87.74 104.31 95.218 118.71-23.03 124.204-68.141z" class="B D E U"/><g style="mix-blend-mode:color-dodge" class="K Q"><path d="M172.091 102.967c6.156-23.25 24.46-40.814 53.782-53.582 1.634-.208 3.228-.655 4.727-1.329 2.869-.89 4.97-1.9 7.489-1.953-27.126 13.472-46.373 34.796-52.461 57.993-6.533 24.712 1.158 52.971 21.388 74.999-2.99-2.391-5.872-5.048-8.687-7.705-3.65-3.322-7.085-6.325-10.546-9.845-.844-.823-1.619-1.711-2.317-2.658-1.011-1.739-2.121-3.42-3.327-5.035-9.859-16.102-14.667-33.334-10.048-50.885z"/></g><path d="M216.121 53.889c-22.708 11.213-39.046 28.724-43.868 50.327-9.913 44.481 32.77 89.135 95.333 99.763 8.976 1.533 18.07 2.298 27.18 2.286" class="B D E J"/><g class="T Y"><g style="mix-blend-mode:darken" class="K"><path d="M304.248 133.764c.733-.403 1.595-.51 2.406-.3s1.508.723 1.945 1.429a11.34 11.34 0 0 1 .821 1.953s.068.106.095.172a3.14 3.14 0 0 1 .319 2.373c-.211.801-.732 1.49-1.451 1.918-.734.403-1.599.511-2.412.301a3.26 3.26 0 0 1-1.952-1.43 10.1 10.1 0 0 1-.821-1.966l-.095-.16a3.12 3.12 0 0 1-.318-2.376 3.16 3.16 0 0 1 1.463-1.914z"/></g><g style="mix-blend-mode:darken" class="K"><path d="M299.467 143.396c.108-.957.66-1.714 1.347-1.687.261.021.517.088.754.199h.081c.606 0 1.131.89 1.023 1.82s-.66 1.7-1.347 1.7a3.27 3.27 0 0 1-.767-.199h-.068c-.579-.027-1.104-.89-1.023-1.833z"/></g><g style="mix-blend-mode:darken" class="K"><path d="M312.424 141.616c0-.479.337-.864.66-.851a1.86 1.86 0 0 1 .39.107h0c.31 0 .566.451.512.916s-.323.864-.66.851a1.37 1.37 0 0 1-.39-.093h0c-.297-.014-.566-.386-.512-.93z"/></g><g style="mix-blend-mode:darken" class="K"><path d="M312.532 147.103c-.458-.651-.539-1.422-.122-1.754a3.11 3.11 0 0 1 .593-.292h0c.391-.319 1.185 0 1.63.584s.539 1.422.121 1.754c-.18.129-.38.227-.593.292h0c-.39.319-1.225.067-1.629-.584z"/></g></g><g style="mix-blend-mode:color-dodge" class="K Q"><path d="M184.833 95.886c.464.469.724 1.098.724 1.754s-.26 1.285-.724 1.754a8.25 8.25 0 0 1-1.347.996l-.108.106c-.473.461-1.112.72-1.777.72a2.55 2.55 0 0 1-1.778-.72c-.461-.47-.719-1.099-.719-1.753s.258-1.283.719-1.754a7.78 7.78 0 0 1 1.347-1.01l.107-.093a2.55 2.55 0 0 1 3.556 0h0z"/></g><g style="mix-blend-mode:color-dodge" class="K Q"><path d="M176.428 94.132c.768-.106 1.469.173 1.576.677.027.203.027.408 0 .611.108.465-.485 1.023-1.225 1.129s-1.455-.173-1.576-.664c-.034-.207-.034-.418 0-.624-.095-.465.471-1.023 1.225-1.129z"/></g><g style="mix-blend-mode:color-dodge" class="K Q"><path d="M180.294 103.631c.391 0 .741.08.795.332a1.31 1.31 0 0 1 0 .319c0 .239-.243.517-.62.557s-.727-.079-.781-.332c-.02-.1-.02-.204 0-.305h0c-.094-.279.229-.571.606-.571z"/></g><g style="mix-blend-mode:color-dodge" class="K Q"><path d="M176.038 104.721c.431-.479 1.01-.678 1.347-.426.133.109.247.239.336.386h0c.324.226.27.89-.134 1.328s-1.01.664-1.347.425c-.13-.117-.243-.251-.337-.398h0c-.35-.2-.269-.85.135-1.315z"/></g><use xlink:href="#K" class="U"/><use xlink:href="#K" class="B D E J"/><path d="M370.475 142.479c-.433-3.963-2.443-7.595-5.59-10.097a15.47 15.47 0 0 1 9.625 4.159c2.613 2.458 4.265 5.746 4.666 9.286.943 8.304-5.388 15.053-13.846 15.943a14.46 14.46 0 0 1-5.807-.249 14.35 14.35 0 0 1-5.224-2.514c2.259.344 4.568.146 6.733-.575s4.123-1.946 5.708-3.571a14.01 14.01 0 0 0 3.398-5.763 13.88 13.88 0 0 0 .324-6.659l.013.04z" fill="#ef8c87"/><g class="D E B"><g class="J"><path d="M372.536 146.677c-2.464-.609-5.038-.642-7.517-.096a16.38 16.38 0 0 0-6.76 3.245h-.068"/><use xlink:href="#K"/></g><path d="M184.038 237.42l9.429 20.527c.217.472.331.984.335 1.503a3.66 3.66 0 0 1-.314 1.507c-.211.475-.521.901-.91 1.25a3.75 3.75 0 0 1-1.347.775c-16.524 5.263-34.408 4.542-50.441-2.032l.552-17.046s17.685 3.228 37.484-8.118a3.74 3.74 0 0 1 1.452-.472c.512-.055 1.03-.004 1.521.149a3.71 3.71 0 0 1 1.33.745 3.64 3.64 0 0 1 .909 1.212h0z" class="P"/></g><g style="mix-blend-mode:color-dodge" class="K I"><path d="M181.345 244.223l-9.038 1.089-9.805.412a164.16 164.16 0 0 1-20.204-1.182l-.929-.12v-.518s17.685 3.228 37.484-8.118c.446-.26.943-.424 1.458-.482s1.037-.009 1.531.146.951.409 1.338.749a3.62 3.62 0 0 1 .912 1.221l2.694 5.766-5.441 1.037z"/></g><g style="mix-blend-mode:color-dodge" class="K Q"><path d="M141.046 252.858l.996.119-.996-.119z"/></g><path d="M141.315 243.904a40.33 40.33 0 0 0 7.031.412l4.822 4.238c6.734 5.314 14.438 9.725 23.058 10.974 3.717.575 7.494.66 11.233.252a25.06 25.06 0 0 0 6.142-1.395 3.65 3.65 0 0 1-.247 2.782 3.73 3.73 0 0 1-2.15 1.815c-16.524 5.263-34.408 4.542-50.441-2.032l.552-17.046z" style="mix-blend-mode:multiply" class="P"/><use xlink:href="#L" fill="#ceccd4" class="B D E"/><path d="M166.38 226.792c-2.693-2.099-4.188-5.315-5.468-8.331-1.347-3.334-3.205-6.842-7.152-7.612a10.68 10.68 0 0 0-5.468.637c-1.034.57-2.167.944-3.341 1.103-2.909-.252-6.424-4.318-8.323-6.178-1.063-1.069-2.049-2.21-2.95-3.414l.337-.213c1.11-.713 2.419-1.062 3.742-.998a6.34 6.34 0 0 1 3.625 1.357l2.142 1.687c.781.625 1.706 1.049 2.694 1.236l9.131 1.793a6.37 6.37 0 0 1 2.712 1.249 6.24 6.24 0 0 1 1.827 2.339l2.196 5.208c.616 1.371 1.711 2.478 3.084 3.122l4.27 1.979a6.34 6.34 0 0 1 2.137 1.629 6.22 6.22 0 0 1 1.257 2.357l1.94 7.055c-2.6-2.232-5.63-3.853-8.392-6.005z" class="I T"/><path d="M105.919 243.133l4.983-9.725a6.01 6.01 0 0 0 .606-1.914l1.899-13.006c.167-1.107.633-2.148 1.347-3.016l2.142 7.334c3.205 10.243 5.185 21.071 11.112 30.238.531.867 1.372 1.506 2.357 1.794a4.33 4.33 0 0 0 1.252.319c12.122 1.328 24.433 3.175 36.649 3.228l2.088.89c-.88.531-1.879.842-2.909.904l-39.033 2.205c-.88.04-1.758-.091-2.586-.385l-16.042-5.965c-1.091-.41-2.046-1.11-2.759-2.022s-1.157-2.001-1.281-3.147l-.458-4.304a6.07 6.07 0 0 1 .633-3.428h0z" fill="#aaa7b5"/><path d="M157.747 214.303l-1.307 3.573m5.429-1.939L159 218.474" class="B D E J"/><path d="M135.038 231.72c5.496 0 5.509-8.436 0-8.436s-5.522 8.436 0 8.436z" class="I"/><g class="D E"><path d="M126.809 214.887l1.32 3.574m-5.428-1.94l2.855 2.538" class="B J"/><path d="M123.603 224.028c.234-1.409.833-2.734 1.74-3.846a8.38 8.38 0 0 1 3.432-2.505c1.398-.413 2.881-.455 4.3-.121s2.724 1.031 3.782 2.021a9.49 9.49 0 0 1 2.694 4.398 8.14 8.14 0 0 1 .266 3.672 8.17 8.17 0 0 1-1.383 3.42 8.29 8.29 0 0 1-2.755 2.484c-1.096.613-2.319.973-3.577 1.053-1.465.126-2.937-.158-4.247-.818s-2.405-1.671-3.161-2.916c-1.23-2.062-1.62-4.507-1.091-6.842z" class="I O"/></g><path d="M131.59 227.88c2.277 0 4.122-1.754 4.122-3.919s-1.845-3.919-4.122-3.919-4.121 1.755-4.121 3.919 1.845 3.919 4.121 3.919z" class="S"/><g class="I"><path d="M129.462 228.784c.737 0 1.334-.571 1.334-1.275s-.597-1.276-1.334-1.276-1.333.571-1.333 1.276.597 1.275 1.333 1.275zm26.978 2.537c1.421 0 2.573-1.1 2.573-2.457s-1.152-2.458-2.573-2.458-2.572 1.101-2.572 2.458 1.152 2.457 2.572 2.457z"/><path d="M153.41 228.863c1.421 0 2.573-1.1 2.573-2.457s-1.152-2.458-2.573-2.458-2.573 1.101-2.573 2.458 1.152 2.457 2.573 2.457z"/><path d="M161.505 221.291c-1.576-2.657-3.825-4.65-6.411-4.769a5.76 5.76 0 0 0-3.492 1.113c-1.008.739-1.741 1.786-2.084 2.979a11.62 11.62 0 0 0-.472 4.876c.849 5.141 5.186 9.1 9.509 7.865a6.89 6.89 0 0 0 2.975-2.195c.77-.986 1.25-2.162 1.389-3.399a10.13 10.13 0 0 0-1.414-6.47z" class="D E O"/></g><path d="M156.544 226.878c1.749-.646 2.542-2.813 1.773-4.84s-2.811-3.146-4.559-2.5-2.542 2.812-1.773 4.839 2.811 3.147 4.559 2.501z" class="S"/><g class="B D E"><path d="M147.996 232.504s-2.155 2.536-5.819 0" class="J"/><use xlink:href="#L"/></g><path d="M129.226 210.154c2.217-.265 3.846-1.846 3.639-3.531s-2.172-2.837-4.389-2.572-3.846 1.846-3.639 3.531 2.172 2.837 4.389 2.572zm29.864-.523c.416-1.652-1.009-3.423-3.183-3.954s-4.271.376-4.687 2.028 1.01 3.423 3.183 3.954 4.272-.376 4.687-2.028z" class="S"/><g class="P"><use xlink:href="#M" class="B D E"/><path d="M142.042 264.696c2.883.253 5.226 1.01 7.745-.677s3.313-6.351 2.545-8.849c3.826 1.329 3.947 3.867 3.826 5.952l-.916 3.096c-2.196 4.783-3.704 6.364-7.395 5.633l-13.293-2.657a7.58 7.58 0 0 1-3.644-1.854 7.43 7.43 0 0 1-2.121-3.46c4.277 1.494 8.731 2.441 13.253 2.816h0z" style="mix-blend-mode:multiply"/></g><use xlink:href="#M" class="B D E"/><use xlink:href="#N" class="I"/><g style="mix-blend-mode:multiply" class="R L"><path d="M195.756 217.624c6.735 3.986 19.975-32.484 25.174-35.048 1.966-.97 9.953.478 12.405.97 5.037 1.29 9.637 3.873 13.335 7.485a29.01 29.01 0 0 1 7.717 13.082 42.49 42.49 0 0 1 1.468 14.614c-.256 3.189-1.765 14.827-5.267 16.222-13.469 5.421-27.086 1.98-34.386-.903-5.037-1.727-14.358-7.361-21.267-16.488.215.026.525-.067.821.066z"/></g><use xlink:href="#N" class="B D E"/><use xlink:href="#O" class="I"/><use xlink:href="#O" class="B D E J"/><g style="mix-blend-mode:multiply" class="R L"><path d="M301.46 347.148l-23.382-1.129c-.498-6.178-1.912-12.276-2.976-18.374-.93-5.315-1.899-10.895-4.674-15.691-2.898-4.813-7.476-8.418-12.876-10.137-5.671-2.02-11.718-2.75-17.631-3.707-3.202-.396-6.338-1.196-9.334-2.378-1.28-.571-2.526-1.214-3.731-1.927-.801-2.386-1.373-4.842-1.71-7.333 0-5.421 84.53-18.029 93.056 11.744-2.33 18.893-5.28 37.613-6.734 45.823a3.98 3.98 0 0 1-1.42 2.349c-.74.593-1.668.91-2.621.893l-5.98-.133"/></g><path d="M324.075 284.545c0 2.777-.337 13.525-1.886 13.764-37.08 5.036-95.697 1.542-97.609-6.098-2.236-8.901-2.33-10.947 0-10.124s99.495.133 99.495 2.458z" class="B D E H"/><g style="mix-blend-mode:color-dodge" opacity=".36"><path d="M224.351 282.087c.162.067 0 .067 1.051.16a85.55 85.55 0 0 0 3.286 13.286c-2.532-.997-4.041-2.113-4.337-3.335-1.939-8.875-2.02-10.934 0-10.111z" fill="#a7dae8"/></g><g class="I"><path d="M270.805 177.408c13.792.358 31.625 5.314 40.272 12.475 27.032 33.427 16.661 98.847 16.661 98.847s-64.853 8.942-107.266-4.092c-14.129-36.749-37.215-109.582 50.333-107.23z"/><path d="M274.321 171.217c18.6.505 31.975 8.742 41.578 20.633-9.327-7.78-21.121-12.095-33.335-12.197-87.548-2.351-70.833 69.924-56.691 106.673a35.22 35.22 0 0 1-5.872-2.564c-14.291-34.225-38.185-115.03 54.32-112.545z"/><path opacity=".1" d="M326.243 222.633s-110.283 66.031-119.186 15.345c11.368 42.329 2.99 19.676 11.516 43.538 1.481-12.914 54.616-34.995 85.649 4.411 3.879 4.291 3.084 4.211 4.889 4.158 1.118 0 18.425-1.049 18.506-1.674 4.701-41.784-1.374-65.778-1.374-65.778z"/></g><path d="M327.617 288.823s-82.281 8.782-107.616-5.062c-14.291-34.224-38.185-115.029 54.32-112.544 41.08 1.102 52.959 38.09 55.222 70.96a233.33 233.33 0 0 1-1.926 46.646h0z" class="B D E"/><g style="mix-blend-mode:multiply" opacity=".16" class="L"><path d="M271.99 277.584l-.767-9.301c-.364-2.843-.862-6.058-2.694-8.343s-5.118-2.485-7.852-2.564c-3.731-.12-7.395-.399-11.112-.851-14.91-1.767-29.524-5.62-42.266-13.87-5.495-36.018 2.694-73.219 63.978-71.465 13.819.399 29.928 4.438 40.07 16.01 15.193 17.271 16.957 37.824 17.981 57.647.74 14.668.15 29.372-1.765 43.937 0 0-20.432 3.281-54.333 2.909l-1.24-14.109z"/></g><g class="I"><path d="M233.914 190.388l1.966 26.837c.391 4.81.553 10.164 2.209 14.987a11.44 11.44 0 0 0 2.559 4.384 10.27 10.27 0 0 0 6.937 2.485h.175c24.85 2.623 49.934 2.177 74.672-1.329l13.28-2.325c4.781-1.036 8.445-3.574 7.879-7.493-1.266-8.716-7.906-31.076-18.479-42.821"/><path d="M233.914 189.338c-.418 2.285-2.909 19.212-3.758 23.915l-2.182 12.209c-.458 2.658-.444 5.501-2.519 7.361-.824.729-1.834 1.221-2.921 1.425s-2.21.111-3.247-.269l-14.372-5.647a6.19 6.19 0 0 1-2.626-2.135 6.06 6.06 0 0 1-1.091-3.179c-.768-7.972 3.771-28.485 16.001-40.695 0 0 17.51-17.604 55.101-16.381s51.883 17.192 55.991 23.914c4.741 7.706-88.249 13.286-90.013 11.16s-4.27-1.873-4.364-5.885 0-5.793 0-5.793z"/></g><g style="mix-blend-mode:multiply" class="R L"><path d="M343.631 227.602s-76.638 5.806-108.896-35.194a3.45 3.45 0 0 1-.956-1.661c-2.492-26.426 63.304-36.085 91.589-5.142 12.903 14.469 18.263 41.997 18.263 41.997z"/></g><g class="D E B"><path d="M233.968 189.378l.256 4.677.754 8.835c.404 4.809.512 9.526.902 14.335s.553 10.164 2.209 14.987a11.44 11.44 0 0 0 2.559 4.384 10.27 10.27 0 0 0 6.937 2.485h.175c24.85 2.623 49.934 2.177 74.672-1.329l14.128-2.219c5.886-1.023 7.637-3.52 7.072-7.44-1.253-8.715-7.22-25.695-15.894-39.632m-93.824.877c-.418 2.286-2.909 19.212-3.758 23.915l-2.182 12.21c-.458 2.657-.444 5.5-2.519 7.36a6.1 6.1 0 0 1-2.921 1.425c-1.087.204-2.21.111-3.247-.269l-14.372-5.646c-1.06-.457-1.969-1.196-2.626-2.135s-1.035-2.04-1.091-3.18c-.768-7.971 3.488-28.033 14.816-39.353 0 0 15.354-19.437 57.714-17.816 40.999 1.581 53.997 22.44 53.997 22.44m-96.438 99.95l.916 7.824m11.893-5.513l.499 7.679m5.455-6.988l.66 7.918m19.651-7.28l.498 8.303m14.452-8.316l.189 7.638m10.707-8.05l-.067 8.728m16.163-9.818l-.337 9.02" class="J"/><path d="M217.374 259.7c4.633-1.249 5.67-7.4 1.886-11.173 4.795 1.926 9.212-1.993 8.081-7.108 3.111 4.358 9.24 4.185 11.112-.319.256 5.142 5.738 8.769 9.953 6.643-2.693 3.986 0 9.991 4.984 10.987-4.633 1.329-5.671 7.414-1.886 11.174-4.795-1.913-9.212 1.993-8.081 7.108-3.111-4.371-9.24-4.198-11.112.305-.256-5.141-5.738-8.782-9.953-6.643 2.693-3.985 0-9.99-4.984-10.974z" class="H"/></g><g style="mix-blend-mode:multiply" class="R"><path d="M247.531 252.991l-7.637-1.182-10.775-2.259a125.68 125.68 0 0 1-4.916-1.089 6.11 6.11 0 0 0 2.846-2.982 6 6 0 0 0 .279-4.086h0c3.111 4.357 9.239 4.185 11.112-.319.255 5.141 5.737 8.768 9.953 6.643-.514.769-.856 1.636-1.005 2.546s-.1 1.839.143 2.728z" fill="#f7764d"/></g><g class="H"><path d="M241.237 268.401c4.091-2.516 4.921-8.489 1.854-13.342s-8.87-6.746-12.961-4.23-4.921 8.49-1.854 13.342 8.871 6.746 12.961 4.23z" stroke-width="1.593" class="B E"/><path d="M240.77 258.863a10.68 10.68 0 0 0-1.465-5.303 10.85 10.85 0 0 0-3.923-3.904 11.93 11.93 0 0 1 6.187 3.689c1.624 1.833 2.63 4.119 2.878 6.541.579 5.448-3.058 9.633-8.082 9.301-.792-.046-1.576-.194-2.33-.439 1.933-.881 3.583-2.269 4.771-4.012s1.867-3.775 1.964-5.873z" style="mix-blend-mode:overlay"/></g><g class="D E B"><path d="M214.788 184.502a146.81 146.81 0 0 0 52.798 19.478c22.257 3.915 45.122 2.839 66.9-3.149m-88.1-93.6s-7.273 5.009-12.486-3.533" class="J"/><path d="M280.193 132.103c14.58 0 26.399-11.658 26.399-26.04s-11.819-26.041-26.399-26.041-26.399 11.659-26.399 26.041 11.819 26.04 26.399 26.04z" class="I"/><path d="M280.193 123.361c9.685 0 17.536-7.745 17.536-17.299s-7.851-17.298-17.536-17.298-17.537 7.745-17.537 17.298 7.852 17.299 17.537 17.299z" class="S"/><path d="M209.292 109.557c12.75 0 23.086-10.196 23.086-22.772s-10.336-22.772-23.086-22.772-23.085 10.195-23.085 22.772 10.336 22.772 23.085 22.772z" class="I"/><path d="M209.293 101.917c8.472 0 15.341-6.775 15.341-15.133s-6.869-15.133-15.341-15.133-15.342 6.775-15.342 15.133 6.869 15.133 15.342 15.133z" class="S"/></g><path d="M296.477 108.799c3.764 0 6.815-2.867 6.815-6.404s-3.051-6.403-6.815-6.403-6.815 2.867-6.815 6.403 3.051 6.404 6.815 6.404z" class="I"/><g style="mix-blend-mode:multiply" opacity=".36" class="P"><path d="M283.304 95.873c-9.953-3.733-20.378-2.803-28.069 1.674a25.96 25.96 0 0 1 5.469-9.162 26.38 26.38 0 0 1 8.725-6.242c3.313-1.467 6.896-2.244 10.527-2.282a26.72 26.72 0 0 1 10.575 2.059c3.343 1.396 6.359 3.458 8.859 6.056s4.428 5.677 5.666 9.044 1.759 6.949 1.53 10.524a25.77 25.77 0 0 1-2.863 10.25c-2.047-9.287-9.576-17.856-20.419-21.921z"/></g><path d="M295.036 113.741c1.056 0 1.912-.636 1.912-1.421s-.856-1.422-1.912-1.422-1.913.637-1.913 1.422.856 1.421 1.913 1.421zM222.68 90.04c3.764 0 6.816-2.867 6.816-6.404s-3.052-6.404-6.816-6.404-6.815 2.867-6.815 6.404 3.052 6.404 6.815 6.404z" class="I"/><g style="mix-blend-mode:multiply" opacity=".36" class="P"><path d="M214.613 79.106a28.43 28.43 0 0 1 9.396 8.3c2.465 3.423 4.124 7.346 4.854 11.483a22.59 22.59 0 0 0 3.307-8.696 22.49 22.49 0 0 0-.486-9.275 22.67 22.67 0 0 0-4.198-8.314c-1.963-2.457-4.418-4.49-7.212-5.971a23.34 23.34 0 0 0-9.029-2.635 23.4 23.4 0 0 0-9.345 1.138c-3.003 1.008-5.763 2.616-8.108 4.722s-4.226 4.667-5.524 7.521c7.556-3.693 17.603-3.335 26.345 1.727z"/></g><path d="M221.213 93.999c1.056 0 1.912-.636 1.912-1.421s-.856-1.421-1.912-1.421-1.913.636-1.913 1.421.856 1.421 1.913 1.421zm42.925 22.824c2.165 0 3.919-1.73 3.919-3.865s-1.754-3.866-3.919-3.866-3.919 1.731-3.919 3.866 1.754 3.865 3.919 3.865zm-70.995-22.121c2.165 0 3.92-1.731 3.92-3.866s-1.755-3.866-3.92-3.866-3.919 1.731-3.919 3.866 1.755 3.866 3.919 3.866z" class="I"/><g class="D E B"><path d="M309.016 86.705l-6.707 4.118m2.209-9.539l-5.038 6.005m-96.141-31.101l1.832 7.585m5.212-8.316l-.686 7.771" class="J"/><path d="M237.995 48.8c-3.583.638-7.152 1.329-10.681 2.086-12.58 3.058-24.88 7.146-36.77 12.223l-4.337 1.82a72.04 72.04 0 0 1 2.492-14.136s27.948-20.035 41.578-49.742c0 0 13.913 20.567 12.93 46.886-1.737.252-3.488.558-5.212.864z" class="L"/><path d="M237.995 48.8l-1.617.292c.49-11.509-1.636-22.98-6.222-33.573-9.516 15.129-21.482 28.616-35.423 39.924-.364 1.555-.903 3.773-1.347 6.51l-2.869 1.156-5.536 2.338c-.094-5.992.983-10.35 3.26-14.017 10.775-17.272 28.392-20.673 42.023-50.38 0 0 13.913 20.567 12.93 46.886-1.724.252-3.475.558-5.199.864z" class="H"/></g><g style="mix-blend-mode:multiply" class="V H"><path d="M237.995 48.8l-1.549.279c.237-11.032-1.907-21.987-6.29-32.139-9.516 15.129-21.482 28.616-35.423 39.924-.297 1.329-.701 2.95-1.064 4.982l-3.125 1.329-2.088.877.727-2.405c7.26-24.566 25.308-23.662 41.094-59.175 0 0 13.469 19.823 12.971 45.451-1.698.252-3.516.571-5.253.877z"/></g><path d="M181.412 164.215l4.04 7.241c3.421 5.792 7.004 11.226 10.479 16.142l5.778 7.839c5.066 6.695 10.493 13.117 16.257 19.238 0 0 98.727 7.971 154.65-15.253 31.41-13.046 38.791-53.914 35.02-88.683-3.3-31.607-18.736-60.252-46.212-76.899a350.74 350.74 0 0 0-13.402-7.746C302.161.878 241.55 6.551 205.992 34.757c-17.199 13.645-29.416 30.89-36.258 54.007-7.435 25.177-.821 52.134 11.678 75.451zm8.324-92.855c20.405-8.317 52.69-7.307 74.456 0a132.08 132.08 0 0 1 13.724 5.434c18.983 8.869 35.938 21.453 49.835 36.988-15.004 14.388-63.101 25.243-96.787 12.063-50.63-19.729-41.228-54.485-41.228-54.485h0z" class="B D E I"/><g style="mix-blend-mode:color-dodge" opacity=".1" class="I"><path d="M332.52 19.452s6.263 1.541 7.839 16.249-16.648 45.85-46.28 36.948c14.116 7.972 28.433 20.115 33.538 26.12 0-10.456 5.293-28.06 16.472-41.014s29.214-14.707 34.117-11.253c-12.351-12.741-34.292-23.569-45.686-27.05z"/></g><g style="mix-blend-mode:multiply" class="M L"><path d="M315.454 124.49l.175.399c1.711 3.308 12.782 25.482-12.755 35.021 10.398 14.695 4.634 41.97-31.248 44.295 19.813.771 55.56-5.221 55.56-5.221s29.052-63.467 25.914-76.234-18.426-14.509-21.766-11.958"/></g><g style="mix-blend-mode:multiply" class="M L"><path d="M241.618 136.58s-4.324 39.751 8.337 56c9.428 12.05 24.109 11.094 23.328 11.094l-40.272.266s1.051-50.487 3.664-57.648 4.943-9.712 4.943-9.712z"/></g><g style="mix-blend-mode:multiply" class="M L"><path d="M324.869 19.452c-11.491 6.702-21.019 16.233-27.651 27.661-11.22 19.145 6.29 30.372 6.29 30.372s-20.594-13.286-32.757-14.123 17.254-26.505 17.254-26.505 24.702-17.019 36.864-17.405z"/></g><g style="mix-blend-mode:color-dodge" opacity=".1" class="I"><path d="M171.512 83.091c14.951-36.496 30.979-50.805 65.432-65.38 6.344-1.329 12.122-3.561 18.426-4.77-38.064 11.466-69.945 40.495-81.056 79.184-7.314 25.456-3.96 45.903 1.495 60.663-9.159-20.659-12.688-49.251-4.297-69.698z"/></g><g style="mix-blend-mode:color-dodge" class="K L"><path d="M181.412 164.215l4.04 7.241 2.532 4.185a100.12 100.12 0 0 1-12.175-22.852c1.737 3.906 3.623 7.719 5.603 11.426h0z"/></g><g style="mix-blend-mode:multiply" class="M L"><path d="M327.98 202.253a54.17 54.17 0 0 0 2.519-12.569 29.1 29.1 0 0 0-.094-6.032c32.608-14.614 50.158-51.722 26.224-73.856 19.812 3.481 46.683-46.434-.97-79.423 1.751 1.515 12.203 7.135 13.981 8.609 28.15 23.224 33.82 47.378 37.133 63.972 4.903 35.872-.309 82.372-34.116 96.469-14.372 5.965-31.571 9.871-49.189 12.382 1.856-3.01 3.37-6.214 4.512-9.552h0z"/></g><g style="mix-blend-mode:color-dodge" class="G L"><path d="M177.95 112.532c.162-.704.647-1.222 1.118-1.142a1.72 1.72 0 0 1 .526.212h0c.458 0 .754.758.592 1.448s-.592 1.209-1.037 1.209a1.98 1.98 0 0 1-.552-.212h0c-.498-.133-.795-.811-.647-1.515z"/></g><path d="M327.752 113.782c-24.918-30.823-81.918-61.766-138.016-42.422 0 0-4.108 2.059-4.997-.452-.297-.863-.741-2.657 4.902-5.806 10.856-6.111 35.976-13.924 69.918-5.992 54.131 12.635 78.442 52.998 78.442 52.998s3.112 4.876-.067 6.643-5.872-.319-10.182-4.969z" class="B D E H"/><g style="mix-blend-mode:multiply" class="V H"><path d="M244.729 66.883c2.641-2.919 5.059-6.028 7.233-9.3 2.478.425 5.01.93 7.597 1.541a132.88 132.88 0 0 1 30.857 11.293c-1.2-.339-2.456-.439-3.695-.295s-2.437.529-3.525 1.132c-1.121.651-2.024 1.612-2.596 2.765a6.47 6.47 0 0 0-.623 3.719 135.11 135.11 0 0 0-35.248-10.855h0z"/></g><path d="M181.412 164.215l4.04 7.241c3.422 5.792 7.004 11.226 10.479 16.142l5.778 7.839c5.066 6.695 10.493 13.117 16.257 19.238 0 0 98.728 7.971 154.637-15.252 12.337-5.116 20.971-14.535 26.682-26.187-6.196 6.258-42.522 35.593-175.46 30.558-21.55-17.086-56.717-54.738-56.488-104.082-3.017 21.908 3.367 44.534 14.075 64.503z" class="B D E H"/><g style="mix-blend-mode:multiply" class="V H"><path d="M305.541 212.881c2.236-2.59 3.529-5.912 2.142-9.233a7.94 7.94 0 0 0-.93-1.648c66.389-6.443 87.939-24.074 92.572-28.764-5.711 11.652-14.344 21.072-26.682 26.187-19.503 8.104-44.218 12.409-68.139 14.614.35-.398.714-.77 1.037-1.156z"/></g><path d="M313.151 159.206c8.741 14.349 9.159 43.976 5.388 52.865-.938 2.219-2.013 4.38-3.219 6.47 2.033-.106 30.143-7.786 42.292-23.224 16.163-20.54 16.984-46.753 16.984-46.753 12.769-.093 22.089-9.646 27.019-21.085l.471-1.116c18.789-45.318 4.512-116.49 4.512-116.49-24.782 49.503-55.451 57.555-55.451 57.555s-7.462 23.715-25.402 41.691a41.22 41.22 0 0 1 9.064 19.756h0c3.718 22.812-21.658 30.332-21.658 30.332z" class="B D E I"/><g style="mix-blend-mode:multiply" class="M L"><path d="M379.351 58.632s11.139-3.826 8.512 5.607c0 0 10.21 1.435 5.563 12.197 0 0 7.489 6.324-.539 14.615 0 0 7.718 7.971-2.344 14.614 0 0 4.203 9.3-5.387 14.615 0 0 1.913 9.3-10.088 12.143 0 0-1.684 7.4-13.375 7.387 0 0 5.455 8.875-2.694 13.671 0 0 9.024 16.847-6.815 17.843 0 0-.148 13.392-12.62 6.364 0 0-7.503 7.533-14.318-7.772 0 0 1.792 22.852-1.239 42.182 0 0 37.821-2.085 44.084-29.959s.175-38.423.175-38.423 25.779 9.3 34.817-36.922.579-79.33.579-79.33l-24.311 31.169z"/></g><g class="D E B"><path d="M407.339 42.809s-17.631 31.727-54.495 35.42m56.583-10.576s-25.335 18.906-58.94 16.488m57.916 2.458s-25.806 11.956-60.259 1.993m56.205 17.138s-38.642 2.445-58.724-12.541m52.771 29.042s-42.535-3.401-56.65-24.658m48.151 39.738s-45.538-11.24-52.259-35.872m29.443 72.395c1.239-2.179-9.86-35.978-30.602-34.663m21.147 53.25s-5.509-36.005-22.48-46.594m7.138 61.62s.58-38.117-12.404-53.143m38.925-12.542s-16.567-1.475-31.302-21.762" class="J"/><path d="M224.499 131.372c8.781 3.272 17.96 5.394 27.301 6.311a128.13 128.13 0 0 0 46.441-3.813l1.428-.399c11.399-3.629 21.826-9.741 30.507-17.883 2.298 4.138 3.864 8.63 4.633 13.286 3.771 22.786-21.658 30.305-21.658 30.305 8.741 14.349 9.159 43.977 5.388 52.865-.938 2.22-2.013 4.381-3.219 6.47 2.033-.106 30.13-3.361 44.892-16.408 22.897-20.274 14.384-53.569 14.384-53.569 12.769-.093 22.089-9.645 27.019-21.084l.471-1.116c18.789-45.292 4.512-116.464 4.512-116.464-24.782 49.503-55.451 57.555-55.451 57.555s-7.462 23.715-25.402 41.691c-7.757 8.063-17.461 14.051-28.204 17.405l-1.239.345c-24.325 6.643-50.051 5.195-69.877-2.591l-1.926 7.095zM335.2 109.703c9.308-10.899 16.66-23.287 21.739-36.629 8.081-3.308 27.139-13.552 45.457-41.186 2.694 23.915 4.607 63.533-7.111 91.793-.117.318-.252.637-.405.956-9.118 17.976-29.267 16.607-29.267 16.607s9.509 33.787-7.732 52.373c-8.472 9.141-23.57 13.18-30.978 14.814 1.324-7.006 1.677-14.157 1.05-21.257a90.03 90.03 0 0 0-4.875-24.34 45.97 45.97 0 0 0 7.044-4.623c9.859-7.972 14.021-18.468 12.028-30.558-.654-3.941-1.822-7.781-3.475-11.426-1.026-2.241-2.187-4.419-3.475-6.523z" class="H"/><path d="M335.2 109.703l-5.024 5.898" class="J"/></g><g style="mix-blend-mode:color-dodge" opacity=".5" class="H"><path d="M275.694 130.588s32.945 3.627 54.872-22.147c21.551-25.35 25.012-42.701 25.012-42.701l-4.431 1.687s-10.546 30.983-28.945 45.053-33.645 18.374-46.508 18.108z"/></g><g class="B D E"><path d="M164.562 102.833l1.549-7.559c-.677 2.485-1.195 5.01-1.549 7.559h0z" class="L"/><path d="M171.014 154.662c-.849-5.859-2.586-10.987-2.128-15.159l-.189-2.232c.862-8.208 4.391-15.921 10.061-21.988-1.953-11.134-3.798-13.512-2.613-20.048 2.398-13.286 7.718-17.936 7.718-17.936-.8-7.27-.067-14.626 2.155-21.603 0 0-15.098 19.371-19.893 39.512a84.24 84.24 0 0 0-1.549 7.56c-2.763 17.552-.535 35.517 6.438 51.894h0z" class="I"/><path d="M177.021 109.344s-12.849 7.799-13.159 16.873m12.068-24.3s-8.203 1.01-11.718 5.314M176.549 91.9s-5.279-1.075-9.158.73m13.267-9.606c-1.072-1.167-2.367-2.113-3.813-2.781s-3.011-1.046-4.605-1.112" class="J"/><g class="H"><path d="M168.913 126.629a47.27 47.27 0 0 1 7.098-11.413 45.96 45.96 0 0 1-2.155-21.735c1.444-7.724 4.892-14.946 10.007-20.965.418 2.657 1.347 3.295 1.428 6.005-3.004 3.667-6.075 12.037-6.735 16.063-1.171 6.537 0 12.82 2.869 22.135-5.94 6.293-9.711 14.277-10.775 22.812h0c-.49 5.057-.323 10.156.499 15.172h0c-2.316-5.197-4.068-10.621-5.226-16.182a68.04 68.04 0 0 1 2.99-11.891h0z"/><path d="M182.355 61.037c3.299-7.653 6.896-10.921 6.896-10.921s-10.695 47.577 29.51 69.538l-1.455 8.317c-47.504-13.552-38.386-39.579-34.951-66.934z"/><path d="M209.777 201.827c0 .492.391 3.335.431 3.468 2.225 3.224 4.804 6.196 7.691 8.862h0c6.559.624 13.065 1.142 19.651 1.156v-8.078c.245-18.541 1.667-37.05 4.256-55.416.122-.903.27-1.82.404-2.657a229.58 229.58 0 0 1 14.021-49.676 196.44 196.44 0 0 1 12.634-25.961 161.06 161.06 0 0 1 10.479-15.624c10.84-14.26 24.211-26.463 39.464-36.018 4.93-3.082 12.364-4.637 17.752-1.515-6.734-16.913-26.547-16.727-40.69-9.3-17.808 9.164-33.044 22.527-44.353 38.901h0l-.269.425-.121.173c-1.899 2.856-3.704 5.766-5.469 8.676-.004.031-.004.062 0 .093-1.144 1.873-2.006 3.388-2.599 4.491l-.135.213-.188.385c-.256.518-.458.89-.566 1.103a1.24 1.24 0 0 0-.094.199l-1.172 2.033-.162.319-.108.199-4.646 9.3c-3.772 7.679-7.139 15.624-10.115 23.635l-4.593 12.848-.606 1.568a142.03 142.03 0 0 0-4.243 14.375c-1.94 7.865-3.462 15.863-4.741 23.808-.903 5.594-1.468 11.32-1.872 17.006-.728 10.27-1.253 20.779-.041 31.009z"/></g></g><g style="mix-blend-mode:multiply" class="V H"><path d="M209.804 170.845l.755-8.477c-.008.115-.008.231 0 .346.103 2.734.682 5.43 1.71 7.971a5.69 5.69 0 0 0 1.233 1.887 5.8 5.8 0 0 0 1.874 1.273 5.87 5.87 0 0 0 2.227.462 5.88 5.88 0 0 0 2.236-.42c.424-.185.826-.417 1.198-.691l.553 2.79c.929 4.212 4.39 10.629 9.805 9.699s6.734-8.131 7.179-12.476c.274-1.214.648-2.405 1.118-3.56-1.172 12.515-1.899 25.07-2.101 37.652v8.078c-6.587 0-13.092-.532-19.651-1.156-2.887-2.666-5.466-5.637-7.691-8.862 0-.133-.377-2.976-.431-3.467-1.253-10.297-.728-20.806-.014-31.049z"/></g><g style="mix-blend-mode:color-dodge" class="K H"><path d="M209.804 170.844c.404-5.673 1.064-11.399 1.872-17.006 1.155-8.013 2.737-15.96 4.741-23.808 1.347-5.314 3.018-10.748 4.849-15.943l4.593-12.847c2.694-7.015 5.684-13.964 8.755-20.78.039-.096.084-.189.135-.279h0l1.225-2.578c1.495-3.109 3.058-6.191 4.647-9.3l.108-.199.162-.319 1.05-1.966.162-.306 1.468-2.657c0-.106.108-.213.175-.319l1.818-3.189c-.004-.031-.004-.062 0-.093l5.469-8.676.121-.173.256-.372c11.266-16.467 26.557-29.869 44.461-38.968 1.656-.824 3.38-1.608 5.131-2.378 1.522.106 3.906-1.05 5.388-.943-24.608 9.446-41.269 27.05-54.293 46.727a131.89 131.89 0 0 0-16.742 36.789c-4.674 16.169-7.799 35.872-9.819 52.771-.795 5.222-4.485 35.872-5.064 46.873-.391 7.307-.377 14.017-.58 23.397l-1.953-.107c-3.03-3.281-6.734-7.134-7.973-11.386-.072-.31-.122-.626-.148-.943-1.253-10.27-.741-20.793-.014-31.023z"/></g><g style="mix-blend-mode:color-dodge" class="K H"><path d="M234.816 80.168l7.139-14.322.148-.292.525-1.09.189-.385.134-.212.606-.983 5.55-9.021 1.979-3.255.108-.173.27-.425c-.013.164-.013.328 0 .492a16.11 16.11 0 0 0 .606 3.986 53.85 53.85 0 0 0 5.306 12.688c2.169 3.84 6.142 8.808 11.436 6.391-.58.943-1.065 1.953-1.563 2.843-1.845 3.308-3.717 6.563-5.387 9.964-1.792 3.614-3.287 7.467-4.809 11.213l-.821 2.112v-.186c-.566-7.972-1.805-17.737-6.088-24.539-.418-.668-.971-1.245-1.625-1.694a5.85 5.85 0 0 0-2.174-.915c-.781-.154-1.586-.149-2.364.016s-1.514.487-2.161.944c-2.805 1.947-5.24 4.367-7.193 7.148v.067c.027-.16.054-.239.189-.372z"/></g><path d="M220.068 214.635c.134-28.233 1.71-47.949 5.953-69.632 7.731-39.538 21.2-78.772 49.108-108.652a118.11 118.11 0 0 1 24.136-20.195c7.367-4.504 18.937-10.164 27.948-6.643" class="B D E J"/><g style="mix-blend-mode:color-dodge" opacity=".5" class="H"><path d="M236.432 82.533c.514-1.092 1.362-1.998 2.425-2.591a1.34 1.34 0 0 1 .377-.146c.196-.08.407-.116.619-.106a2.13 2.13 0 0 1 1.309.828 2.08 2.08 0 0 1 .388 1.484 9.18 9.18 0 0 1-1.091 4.278 2.54 2.54 0 0 1-.683.886c-.292.242-.635.417-1.003.512a2.61 2.61 0 0 1-1.129.039 2.6 2.6 0 0 1-1.037-.441c-1.454-1.103-.889-3.294-.175-4.742z"/></g><g style="mix-blend-mode:color-dodge" opacity=".5" class="H"><path d="M232.122 89.707a2.35 2.35 0 0 1 1.213-1.328 1.57 1.57 0 0 1 .758-.319 1.58 1.58 0 0 1 .817.106 2.31 2.31 0 0 1 1.058 1.185c.2.506.212 1.065.033 1.578l-.592 1.886a1.9 1.9 0 0 1-.684 1.055c-.343.265-.766.408-1.202.406-.429-.065-.824-.269-1.124-.579a1.93 1.93 0 0 1-.533-1.135c-.142-.959-.054-1.937.256-2.856z"/></g><path d="M250.642 275.019c30.332 7.095 40.528 45.557 18.533 69.937 29.497-12.914 60.018 10.895 55.438 43.246l8.822-2.897s-.107-5.5 6.061-11.957c19.221-11.652 45.054-6.643 56.314 14.854l8.822-2.897s-2.034-15.531 3.152-29.654c11.852-12.874 30.655-18.52 47.761-10.695l8.822-2.896s-14.318-13.286-17.16-30.717c2.937-16.833 15.368-32.112 33.794-36.324-30.319-7.095-40.515-45.57-18.533-69.95-7.456 3.439-15.827 4.451-23.904 2.889s-15.441-5.616-21.029-11.578c-7.892-18.122-1.697-37.466-1.697-37.466l-8.822 2.896c-9.428 15.239-25.429 22.187-40.407 20.819-15.866-6.643-22.035-23.729-22.035-23.729l-8.741 2.883v1.953c.01 9.261-2.859 18.302-8.22 25.904s-12.957 13.4-21.762 16.611c-14.21-.146-20.971-4.132-20.971-4.132l-8.755 2.937c19.571 24.379 5.563 62.855-25.469 69.95l-.014.013z" class="B D E Z"/><use xlink:href="#P" class="H"/><g class="B D E"><use xlink:href="#P"/><path d="M371.606 351.958l4.849-.159c21.13-1.463 40.827-11.07 54.832-26.745 14.403-15.719 22.35-36.168 22.291-57.355-.162-42.435-32.716-75.73-74.079-75.73-1.603 0-3.232 0-4.849.146-21.129 1.463-40.823 11.076-54.818 26.758-14.464 15.733-22.435 36.236-22.345 57.475.161 42.369 32.716 75.61 74.119 75.61z" class="H"/></g><path d="M437.146 309.39c7.865-14.109 11.813-30.016 11.446-46.113s-5.035-31.813-13.534-45.56c-.493-.726-1.005-1.443-1.535-2.152 12.546 14.159 19.402 32.359 19.274 51.164.175 44.016-34.386 81.868-77.19 84.551-9.689.641-19.41-.651-28.581-3.799 4.175.69 57.108 12.076 90.12-38.091z" fill="#dcf2ae" class="G"/><path d="M416.31 201.947l-3.489 3.985c-.269.319-.889 0-.767-.438l1.441-5.407 3.583 1.767m-65.446 146.995l2.761-5.009c.047-.083.121-.147.21-.183a.42.42 0 0 1 .504.155c.053.079.077.173.067.268l-.673 5.991-3.569-.864m-4.876-2.617l1.751-2.311c.135-.186.566 0 .552.252l-.31 3.175-2.478-1.036" class="S"/><path d="M435.371 301.207c17.56-35.016 5.007-76.472-28.037-92.596s-74.067-.809-91.627 34.207-5.006 76.472 28.038 92.595 74.067.809 91.626-34.206z" class="B D E H"/><g style="mix-blend-mode:multiply" class="a Z"><path d="M333.287 322.264c10.42 3.954 21.46 6.085 32.622 6.298 9.067.261 18.097-1.248 26.57-4.44s16.225-8.004 22.807-14.161c3.966-3.811 7.375-8.149 10.129-12.887 1.278-2.406 2.398-4.892 3.353-7.44 1.195-2.512 2.256-5.084 3.179-7.706a66.36 66.36 0 0 0 .364-36.443c-4.755-16.049-15.237-29.857-29.511-38.875 23.746 9.3 40.407 32.75 40.488 61.115.148 38.53-30.063 71.572-67.493 73.923a63.27 63.27 0 0 1-30.08-5.342 62.38 62.38 0 0 1-23.917-18.772c3.812 1.714 7.705 3.229 11.489 4.73z"/></g><g style="mix-blend-mode:color-dodge" class="G H"><path d="M327.388 251.728c-.821-.414-1.45-1.122-1.758-1.979s-.272-1.799.101-2.63c.377-.705.829-1.369 1.347-1.98l.094-.186c.416-.831 1.145-1.468 2.031-1.776a3.64 3.64 0 0 1 2.71.129c.837.42 1.477 1.142 1.788 2.015s.269 1.831-.117 2.675c-.378.704-.829 1.367-1.347 1.979l-.095.186c-.427.823-1.164 1.447-2.053 1.74s-1.858.231-2.701-.173h0z"/></g><g style="mix-blend-mode:color-dodge" class="G H"><path d="M356.723 242.774c-1.791.93-3.744.863-4.458-.266a5.26 5.26 0 0 1-.539-1.528c-.022-.042-.049-.082-.081-.119-.687-1.05.243-2.936 1.98-3.839s3.731-.851 4.459.265c.267.477.453.993.552 1.528a.59.59 0 0 0 0 .133c.741 1.049-.162 2.856-1.913 3.826z"/></g><g style="mix-blend-mode:color-dodge" class="G H"><path d="M335.267 237.034c-.902.465-1.885.439-2.249-.132a3.71 3.71 0 0 1-.269-.771h0c-.337-.531.121-1.474.996-1.926s1.872-.439 2.25.133a2.51 2.51 0 0 1 .269.77c.337.532-.108 1.462-.997 1.926z"/></g><g style="mix-blend-mode:color-dodge" class="G H"><path d="M344.682 230.525c-.606 1.541-1.859 2.55-2.923 2.218-.425-.159-.824-.378-1.185-.651a.28.28 0 0 0-.108 0c-1.01-.279-1.468-1.953-.875-3.441s1.845-2.524 2.923-2.218a4.32 4.32 0 0 1 1.185.651c.035.013.073.013.108 0 .996.292 1.454 1.939.875 3.441z"/></g><g class="a"><g style="mix-blend-mode:multiply" class="a"><use xlink:href="#Q" class="Z"/><use xlink:href="#Q" stroke="#efa500" class="D O"/></g><g style="mix-blend-mode:multiply" class="a"><use xlink:href="#R" class="Z"/><use xlink:href="#R" stroke="#efa500" class="D O"/></g></g><path d="M358.838 255.702c-.948.156-1.831.575-2.547 1.208s-1.233 1.453-1.494 2.366a6.54 6.54 0 0 0-2.826-2.143 6.64 6.64 0 0 0-3.545-.368 13.01 13.01 0 0 0-8.081 4.676c-2.672 3.282-4.05 7.407-3.879 11.612.081 5.846 2.29 9.101 4.122 10.802 1.108 1.013 2.427 1.775 3.864 2.234s2.959.603 4.459.423c2.34-.24 4.489-1.381 5.981-3.175v2.218c0 1.953-1.347 4.106-4.688 4.491-1.099.113-2.21.077-3.3-.106-.405-.067-.814-.107-1.225-.12-.492-.127-1.005-.159-1.509-.093-.99.173-1.882.697-2.509 1.472a4.04 4.04 0 0 0-.898 2.74c.005.858.292 1.691.816 2.375s1.258 1.184 2.093 1.424h0c1.76.437 3.573.634 5.387.585.405 0 .822 0 1.253-.106 3.156-.378 6.137-1.636 8.593-3.627 1.497-1.206 2.696-2.733 3.506-4.464s1.209-3.621 1.168-5.527v-4.571l-.256-20.194a4.27 4.27 0 0 0-.348-1.704 4.32 4.32 0 0 0-.999-1.432c-.414-.386-.912-.676-1.455-.849a3.87 3.87 0 0 0-1.683-.147h0zm-3.758 15.146c.067 5.314-3.017 7.121-4.849 7.347-.592.075-1.194.02-1.762-.161a4.05 4.05 0 0 1-1.524-.889c-.636-.678-1.126-1.476-1.441-2.346a6.75 6.75 0 0 1-.391-2.716c0-4.61 2.546-7.015 4.997-7.307h.31a4.03 4.03 0 0 1 1.55.244 3.97 3.97 0 0 1 1.332.819 6.85 6.85 0 0 1 1.399 2.328c.306.86.434 1.771.379 2.681h0zm53.485-18.588c-.836-.747-1.832-1.299-2.913-1.617a7.65 7.65 0 0 0-3.336-.216 11.59 11.59 0 0 0-5.339 2.366c-1.543 1.229-2.738 2.83-3.47 4.649a7.53 7.53 0 0 0-3.264-3.99 7.7 7.7 0 0 0-5.1-.992c-1.602.219-3.127.817-4.445 1.742s-2.39 2.151-3.125 3.572c-.088-1.069-.566-2.07-1.347-2.817-.396-.371-.871-.652-1.39-.822a3.77 3.77 0 0 0-1.613-.161c-1.234.238-2.341.906-3.117 1.881a5.12 5.12 0 0 0-1.112 3.434l.255 20.022a4.42 4.42 0 0 0 .341 1.749c.231.555.573 1.058 1.006 1.479a3.83 3.83 0 0 0 2.694 1.01h.31a5.2 5.2 0 0 0 3.093-1.816c.779-.951 1.186-2.145 1.15-3.366l-.162-12.077s.498-4.809 4.539-5.314a3.13 3.13 0 0 1 1.398.059 3.1 3.1 0 0 1 1.228.658 6.16 6.16 0 0 1 1.428 4.531l.148 11.041c-.009.604.105 1.203.336 1.763a4.47 4.47 0 0 0 1.011 1.492c.397.369.873.646 1.393.812a3.71 3.71 0 0 0 1.611.144 5.19 5.19 0 0 0 3.129-1.771 5.05 5.05 0 0 0 1.194-3.357l-.148-12.077c0-.598.849-4.863 4.566-5.314a3.15 3.15 0 0 1 1.376.069c.447.124.861.345 1.21.648 1.064 1.265 1.578 2.894 1.428 4.53l.148 11.054c-.011.599.104 1.193.335 1.746s.576 1.053 1.012 1.47a3.73 3.73 0 0 0 1.402.834c.524.172 1.08.228 1.628.162 1.217-.224 2.313-.869 3.091-1.819a5.08 5.08 0 0 0 1.152-3.363l-.148-11.04c-.081-5.195-1.28-8.875-3.583-10.988z" class="B D E I"/><g class="F"><path d="M667.293 409.039l24.63-105.103s15.951-31.468 20.071-36.099 59.039-38.621 65.05-39.647 20.951 2.316 22.49 3.606 7.726 68.886 7.726 72.14-17.343 105.528-17.343 105.528l-122.624-.425z" fill="url(#B)"/><path d="M798.508 300.551c1.54-4.119.777-65.369 1.026-68.726-1.466-1.26-15.863-4.484-22.094-3.649l-.396.088c-.351 0-.718.205-1.084.293-8.269 3.093-46.608 26.602-59.758 35.967-1.467 1.129-2.815 2.258-4.193 3.371 0 0-7.727 20.857-7.727 26.251s8.328 20.519 10.981 22.146 42.048 5.511 53.894 2.447 27.812-14.07 29.351-18.188z" fill="#8684e0"/><path opacity=".51" d="M691.923 303.965l12.359-7.782s1.789 7.621 9.31 18.364c2.609 3.723-35.025 46.374-35.025 46.374l13.356-56.956z" class="b"/></g><g style="mix-blend-mode:multiply" opacity=".74" class="F"><path d="M769.157 318.739c-3.592 5.716-11.729 90.696-11.729 90.696h32.43l17.344-105.528-8.797-3.415a65.49 65.49 0 0 1-29.248 18.247h0z" fill="#b19fcc"/></g><path d="M749.394 319.736l15.394 23.04a272.76 272.76 0 0 0 17.593-29.547 82.14 82.14 0 0 1-32.987 6.507h0z" class="F b"/><g style="mix-blend-mode:color-dodge" opacity=".58" class="F"><path d="M775.138 275.781s-1.818-28.933 4.399-47.752l-2.537.205-6.333 31.879c-3.418.549-6.801 1.298-10.131 2.242l.235.22-17.242-15.727-7.623 4.72c11.127 1.773 35.655 23.084 50.565 37.272l-4.09 24.388 2.14-1.216s-.997-11.887 3.358-21.882l10.629 10.42.322-1.964c-3.225-3.62-13.136-13.015-23.692-22.805zm-4.676-14.408l-1.701 8.516-7.331-6.772c2.361-1.407 6.305-1.685 9.032-1.744h0z" fill="#6d6ad1"/></g><g class="F"><path d="M717.668 409.434l18.018-30.383 7.844-6.127s54.069-9.131 59.039-8.457 24.718 44.967 24.718 44.967H717.668z" fill="url(#C)"/><path d="M743.53 372.924c2.932 3.928 8.591 16.02 13.898 18.145 8.797 3.532 31.932-4.822 36.726-9.966s8.415-16.636 8.415-16.636-38.514 4.427-59.039 8.457z" fill="#8684e0"/><path opacity=".51" d="M757.487 391.069l-5.571 18.365h-34.248l18.018-30.383 7.844-6.127s9.031 10.949 13.957 18.145z" class="b"/></g><g style="mix-blend-mode:multiply" opacity=".74" class="F"><path d="M771.884 409.434l20.027-9.952 3.284-19.493s4.398-4.734 7.33-15.551c0 0 1.671-.366 7.829 10.538 3.709 6.552 8.884 17.28 16.889 34.429l-55.359.029z" fill="#b19fcc"/></g><path d="M945 409.434l-23.311 53.731-50.14 25.078-89.622 168.376-101.205 22.38-25.114-26.865-16.112-51.049-70.769-19.699-35.831 21.501-231.144-37.623-12.55-10.744-8.943-31.35-68.115-22.381-41.197 25.972-54.568-25.957-20.833-49.056-25.261-18.336L53 409.434h892z" fill="url(#D)" class="F"/><g style="mix-blend-mode:multiply" class="M C F"><path d="M439.711 544.232l93.185 58.656-231.144-37.624.836-.997 33.646-40.642 65.183 9.409 38.294 11.198z"/></g><g style="mix-blend-mode:multiply" class="T F W"><path d="M212.159 500.789l-21.053-8.516-25.54-82.839-16.83 60.503-38.28 16.914 5.923 13.953 54.568 25.957 41.212-25.972z"/></g><g style="mix-blend-mode:multiply" opacity=".66" class="F N"><path d="M161.315 409.434l15.321 81.667-5.689 35.66 41.197-25.972-21.038-8.516-25.539-82.839h-4.252z"/></g><g style="mix-blend-mode:multiply" class="M C F"><path d="M280.244 523.17l-4.926-23.275-26.433-27.32-36.726 9.395-21.053 10.303 21.376 8.618 67.762 22.279z"/></g><g style="mix-blend-mode:multiply" opacity=".81" class="F W"><path d="M788.656 454.665l.909 5.364 60.051 36.187-40.288 67.992-55.096 42.944-30.744-35.645-23.149 43.751-44.731 36.876 25.114 26.865 101.205-22.38 89.607-168.376 50.17-25.078-133.048-8.5z"/></g><g style="mix-blend-mode:multiply" class="T F W"><path d="M754.232 607.152l-30.744-35.645 23.296-83.264-36.96-78.809-26.184 68.974-135.071 24.389-28.897 23.964-79.961 17.47-38.294-11.197-26.214-50.155-12.535-10.304-20.613-63.141h-77.938l.455 33.139-15.687 30.002-36.726 9.395-21.053 10.304 21.038 8.515 68.1 22.381 8.958 31.35 12.55 10.744 231.144 37.623 35.831-21.501 70.769 19.699 16.112 51.049 25.114 26.865 101.205-22.38-92.379-17.442 64.684-32.025z"/></g><g style="mix-blend-mode:multiply" opacity=".33" class="F N"><path d="M401.417 533.033l-26.214-50.155-12.535-10.303-26.434 51.049 65.183 9.409z"/></g><g style="mix-blend-mode:multiply" class="M C F"><path d="M176.636 523.169l-14.647-15.668-13.253-37.564-32.357 30.866 54.568 25.957 5.689-3.591z"/></g><path d="M53 409.435l892-.001-231.291 8.266-3.899-8.266s-151.111 15.228-236.173 15.228c-144.836 0-305.226-7.489-305.226-7.489l-3.46-7.739h-9.735l-12.315 6.171-81.603 5.335L53 409.435z" fill="#ded8e8" class="F"/><g style="mix-blend-mode:multiply" class="M C F"><path d="M746.784 488.243l-36.96-78.809-34.937 92.015-24.865 24.857-28.442 20.608-74.917-42.534-26.991 22.381-10.072 2.198 59.127 52.427 70.769 19.699 2.125-19.699 2.771-18.658 102.392-74.485z"/></g><g style="mix-blend-mode:multiply" opacity=".33" class="F N"><path d="M621.58 546.914l22.812 15.815-4.896 38.356-70.769-19.698 52.853-34.473z"/></g><g class="F"><path d="M226.791 478.232l27.797-16.576-2.742 13.982-25.055 2.594z" fill="#5b5b6b"/><path d="M396.139 409.435s50.785-42.504 57.178-45.538 32.473 0 32.473 0l5.234 22.102s1.115-66.512 3.358-73.987 74.257-45.905 82.834-46.286 63.848 33.593 79.345 48.529 61.033 78.002 62.91 79.878 2.61 15.302 2.61 15.302H396.139z" fill="url(#E)"/></g><g style="mix-blend-mode:multiply" class="M C F"><path d="M719.471 394.132s-86.353 5.189-96.44 3.694-85.869-27.13-85.869-27.13l-17.813 38.738h202.732l-2.61-15.302z"/></g><g style="mix-blend-mode:multiply" class="M C F"><path d="M485.747 363.896s-2.683 12.443-7.903 18.775c0 0-7.198 13.645-33.163 21.164v5.599h44.423l1.877-23.451-5.234-22.087z"/></g><g style="mix-blend-mode:multiply" class="M C F"><path d="M614.924 408.686l1.876-9.336 102.671-5.218 2.61 15.302-107.157-.748z"/></g><g class="F"><path d="M719.471 394.133s-88.962 6.347-102.626 2.419-70.754-18.189-93.068-43.106-29.161-42.504-27.343-43.97 68.13-42.958 80.826-43.706 73.906 42.71 79.301 48.484 62.91 79.879 62.91 79.879zm-309.375 3.693s25.114 7.021 37.298 3.957 31.667-9.277 38.353-37.887c0 0-25.936-2.829-31.36 0s-44.291 33.93-44.291 33.93z" style="mix-blend-mode:soft-light" class="X"/><path d="M526.9 356.67l7.066 18.775s10.336 7.197 39.306 7.328L526.9 356.67zm78.494 36.685l11.406 5.995 20.716-.557c-10.873-.643-21.643-2.466-32.122-5.438h0z" class="c"/><path d="M435.049 402.414l9.632 1.465 7.639-2.447 8.899-4.251s-16.01 4.808-26.17 5.233z" fill="#797a7c"/></g><g style="mix-blend-mode:color-dodge" opacity=".45" class="F"><path d="M743.53 372.66s54.494-4.25 53.966-1.597-8.356 13.425-7.535 13.044c1.847-.835 6.187-3.415 9.427-11.183s3.181-8.457 3.181-8.457-7.198.235-28.017 3.43l-31.022 4.763z" fill="#f2f2f2"/></g><g style="mix-blend-mode:color-dodge" opacity=".45" class="F"><path d="M749.497 380.326s9.192 8.574 11.23 8.794 13.737 1.084 13.737 1.084-13.195 3.269-16.273 1.246-8.694-11.124-8.694-11.124z" fill="#f2f2f2"/></g><g style="mix-blend-mode:color-dodge" opacity=".46" class="F X"><path d="M500.466 306.75s57.002-28.258 67.778-28.082 78.919 32.245 83.303 37.492 27.562 26.499 30.788 28.829-24.073-28.976-24.073-28.976 7.535 6.141-2.83-2.843-73.7-47.063-78.216-47.444-76.75 41.024-76.75 41.024z"/></g><g style="mix-blend-mode:color-dodge" opacity=".46" class="F X"><path d="M433.876 381.059s17.593-14.246 25.598-14.452l25.803-.82s-8.444-4.529-23.604-3.357-27.797 18.629-27.797 18.629z"/></g><path d="M181.547 461.26l11.538-1.774a.81.81 0 0 1 .504.125c.149.096.263.238.323.405a.81.81 0 0 1 .009.519c-.054.169-.162.316-.308.417l-10.263 6.082-1.788-5.789m220.881 120.054l2.39-5.599a.44.44 0 0 1 .85.19l-.117 6.42-3.826-.557" class="c"/><g style="mix-blend-mode:multiply" opacity=".52" class="N"><path d="M793.89 632.949l-4.267-4.28c-.065-.074-.104-.167-.11-.265s.021-.195.077-.276a.44.44 0 0 1 .231-.171c.093-.029.194-.026.286.008l5.865 2.492-1.95 3.298"/></g><g style="mix-blend-mode:multiply" opacity=".52" class="N"><path d="M797.482 625.928l-6.231-6.097a.63.63 0 0 1-.194-.383c-.017-.146.017-.294.097-.418a.63.63 0 0 1 .342-.26c.141-.043.293-.036.429.021l8.533 3.488-2.683 4.822"/></g><path d="M696.966 364.306l-9.148 6.244c-.152.113-.339.168-.528.155a.79.79 0 0 1-.502-.226.8.8 0 0 1-.233-.498c-.015-.189.038-.377.149-.53l6.495-9.732 3.767 4.587zm4.531 6.302l-6.202 4.207c-.105.071-.232.104-.359.091s-.244-.069-.334-.16a.54.54 0 0 1-.153-.337c-.01-.126.025-.253.098-.356l4.399-6.581 2.272 3.722" class="c"/><g style="mix-blend-mode:multiply" opacity=".33" class="N"><path d="M178.409 450.209l6.026-.308c.455 0 .631.879.235 1.128l-5.278 3.225-1.276-4.104"/></g><g style="mix-blend-mode:multiply" class="G C"><path d="M592.156 437.589c.44.469.454 1.114 0 1.261-2.786.864-8.225 1.597-8.518 0s-2.478-2.624-1.789-3.562 3.636-3.43 4.736-2.931c3.313 1.421 2.345 1.905 5.571 5.232z"/></g><g style="mix-blend-mode:multiply" class="G C"><path d="M711.408 487.07c-.191-.458-.411-.904-.66-1.334l-.279-.615c-.146-.248-.318-.478-.513-.689a3.82 3.82 0 0 0-1.466-.967 3.66 3.66 0 0 0-1.862-.132c-.373.104-.689.352-.88.689v.088c-.085.088-.159.186-.219.293l-.147.351c-.058.266-.058.541 0 .807.128 1.028.451 2.023.953 2.931a4.13 4.13 0 0 0 1.231 1.378 2.66 2.66 0 0 0 1.745.469 2.53 2.53 0 0 0 1.114-.337c.334-.212.619-.492.836-.821a2.41 2.41 0 0 0 .147-2.111h0z"/></g><g style="mix-blend-mode:multiply" class="G C"><path d="M775.461 527.509c-1.246 2.022.616 12.971 7.199 9.38s10.013-12.048 5.028-13.367-10.116.542-12.227 3.987z"/></g><g style="mix-blend-mode:multiply" class="G C"><path d="M689.284 582.237c-.176-.381-.396-.719-.586-1.114l-.323-.689c-.167-.284-.363-.549-.586-.792a4.41 4.41 0 0 0-1.73-1.113c-.69-.231-1.427-.282-2.141-.147a1.72 1.72 0 0 0-.997.791v.088c-.094.104-.178.217-.249.337 0 .132-.103.279-.161.411-.088.301-.088.622 0 .923a9.09 9.09 0 0 0 1.085 3.254c.333.622.81 1.155 1.392 1.554.466.345 1.024.545 1.603.574a2.93 2.93 0 0 0 2.849-2.053c.191-.672.136-1.39-.156-2.024h0z"/></g><g style="mix-blend-mode:multiply" class="G C"><path d="M574.211 443.188l-1.159-.469-.703-.322a5.31 5.31 0 0 0-.953-.22c-.697-.072-1.401.024-2.053.279-.669.267-1.256.707-1.7 1.275-.123.18-.209.383-.252.597s-.042.435.002.648v.088c-.014.142-.014.284 0 .425 0 .132.088.279.147.425a1.66 1.66 0 0 0 .586.689 9.36 9.36 0 0 0 2.932 1.788c.658.253 1.366.349 2.068.279.709-.064 1.373-.375 1.876-.879a3 3 0 0 0 .704-1.1 2.93 2.93 0 0 0-.101-2.027 2.94 2.94 0 0 0-1.394-1.476z"/></g><g style="mix-blend-mode:multiply" class="G C"><path d="M702.479 484.96c.612-.913 1.017-1.949 1.188-3.034.138-.733.067-1.49-.206-2.184-.252-.557-.567-1.083-.938-1.568a6.72 6.72 0 0 0-2.712-2.331 5.61 5.61 0 0 0-.865-.293 4.04 4.04 0 0 0-2.111-.396c-.845.105-1.633.482-2.244 1.075s-1.012 1.368-1.143 2.209a5.03 5.03 0 0 0 .586 3.253c.472.928.996 1.829 1.569 2.697.301.587.726 1.102 1.245 1.509a4.58 4.58 0 0 0 1.761.851 4.12 4.12 0 0 0 2.184-.355c.682-.315 1.265-.811 1.686-1.433h0z"/></g><g style="mix-blend-mode:multiply" class="G C"><path d="M703.666 499.251a10.79 10.79 0 0 0 .396-1.29c0-.191.147-.366.206-.572.059-.269.089-.544.087-.82-.017-.655-.157-1.302-.41-1.906a6.33 6.33 0 0 0-1.202-1.817c-.281-.277-.649-.448-1.041-.484h-.073c-.112-.014-.226-.014-.338 0h-.337c-.214.064-.396.205-.513.396-.57.667-.972 1.461-1.173 2.316-.133.598-.133 1.218 0 1.817a4.4 4.4 0 0 0 .895 1.891c.275.337.601.629.967.864a2.93 2.93 0 0 0 1.1.382c.289.027.58-.032.836-.17a1.47 1.47 0 0 0 .6-.607h0z"/></g><g style="mix-blend-mode:multiply" class="G C"><path d="M633.162 314.767c-.655-.409-1.336-.776-2.038-1.099l-.923-.528a6.59 6.59 0 0 0-1.276-.425c-.935-.177-1.9-.131-2.815.132-.937.269-1.79.773-2.477 1.466-.193.233-.336.502-.422.792s-.112.593-.077.893c-.005.039-.005.079 0 .118a2.48 2.48 0 0 0 0 .571c0 .205.103.396.147.601.149.393.396.741.718 1.011 1.071 1.166 2.355 2.116 3.783 2.8a6.39 6.39 0 0 0 2.859.703c.975 0 1.919-.342 2.668-.967a4.03 4.03 0 0 0 1.099-1.466 3.92 3.92 0 0 0 .323-1.788c-.032-.557-.19-1.099-.461-1.587a3.7 3.7 0 0 0-1.108-1.227h0z"/></g><g style="mix-blend-mode:multiply" class="G C"><path d="M619.879 320.102c-.039-1.715-.454-3.401-1.216-4.939a6.1 6.1 0 0 0-2.214-2.579c-.824-.486-1.7-.879-2.61-1.173a10.75 10.75 0 0 0-5.556-.513c-.461.089-.913.222-1.349.396-1.128.212-2.18.717-3.05 1.465a6.13 6.13 0 0 0-1.892 3.393c-.246 1.306-.06 2.656.529 3.848a7.87 7.87 0 0 0 3.68 3.62c1.425.755 2.894 1.426 4.398 2.008 1.906.704 4.105 1.334 5.982.308 1.031-.577 1.885-1.426 2.466-2.455a6.44 6.44 0 0 0 .832-3.379h0z"/></g><g style="mix-blend-mode:multiply" class="G C"><path d="M634.247 337.236c-.166-.679-.382-1.346-.645-1.994a9.52 9.52 0 0 0-.264-.908c-.17-.398-.381-.776-.63-1.129-.613-.822-1.374-1.523-2.244-2.066a9.31 9.31 0 0 0-3.152-1.232c-.606-.105-1.23.009-1.759.323h-.088a1.81 1.81 0 0 0-.484.22l-.381.352a1.46 1.46 0 0 0-.308.967c-.126 1.361.075 2.733.587 4.001.356.889.895 1.693 1.583 2.36.799.755 1.77 1.303 2.829 1.597.658.186 1.341.265 2.024.235.605-.045 1.194-.215 1.73-.498.401-.207.731-.531.945-.928s.304-.851.257-1.3h0z"/></g><g style="mix-blend-mode:multiply" class="G C"><path d="M796.514 434.482c.612-.918 1.017-1.958 1.188-3.049.131-.728.06-1.478-.206-2.169a8.2 8.2 0 0 0-.938-1.583 6.94 6.94 0 0 0-2.712-2.33 8.54 8.54 0 0 0-.865-.293c-.659-.307-1.386-.439-2.111-.381a3.9 3.9 0 0 0-3.387 3.283c-.184 1.12.023 2.269.586 3.254.458.927.977 1.823 1.554 2.682a4.71 4.71 0 0 0 1.256 1.51c.521.409 1.122.704 1.765.864a4.12 4.12 0 0 0 2.184-.354c.683-.316 1.266-.811 1.686-1.434h0z"/></g><g style="mix-blend-mode:multiply" class="G C"><path d="M797.687 448.758a8.65 8.65 0 0 0 .411-1.275c0-.191.146-.367.19-.572a3.78 3.78 0 0 0 .088-.821c-.011-.66-.15-1.313-.41-1.92a5.88 5.88 0 0 0-1.188-1.803c-.277-.282-.647-.454-1.041-.483h-.073a1.46 1.46 0 0 0-.337 0h-.337a.85.85 0 0 0-.514.395 5.55 5.55 0 0 0-1.172 2.302c-.134.603-.134 1.228 0 1.832a4.11 4.11 0 0 0 .894 1.876 3.93 3.93 0 0 0 .967.879c.331.2.701.325 1.085.367.29.027.581-.032.837-.17a1.47 1.47 0 0 0 .6-.607h0z"/></g><g style="mix-blend-mode:multiply" class="G C"><path d="M485.277 462.095a14.41 14.41 0 0 0-.777-1.583l-.352-.732a4.65 4.65 0 0 0-.601-.821c-.505-.529-1.128-.931-1.818-1.173a4.4 4.4 0 0 0-2.213-.146 1.76 1.76 0 0 0-1.056.835v.088c-.104.104-.193.223-.264.352l-.176.425c-.088.311-.088.641 0 .953a9.53 9.53 0 0 0 1.129 3.4 4.71 4.71 0 0 0 1.466 1.627c.61.432 1.352.634 2.097.571.47-.043.922-.199 1.319-.454s.737-.588.997-.982a2.81 2.81 0 0 0 .386-1.152c.043-.408-.004-.82-.137-1.208h0z"/></g><g style="mix-blend-mode:multiply" class="G C"><path d="M472.933 456.247c1.102-1.647 1.837-3.511 2.155-5.467a7.32 7.32 0 0 0-.367-3.957 15.63 15.63 0 0 0-1.7-2.931 12.37 12.37 0 0 0-4.941-4.221 10.29 10.29 0 0 0-1.554-.543c-1.196-.568-2.521-.811-3.841-.703-1.532.193-2.96.877-4.071 1.95a7.14 7.14 0 0 0-2.087 4 9.26 9.26 0 0 0 1.07 5.863c.849 1.683 1.799 3.313 2.845 4.881 1.334 1.934 2.932 4.016 5.468 4.294a7.52 7.52 0 0 0 7.023-3.166z"/></g><g style="mix-blend-mode:multiply" class="G C"><path d="M476.569 482.175a17.02 17.02 0 0 0 .733-2.316c.117-.351.264-.674.352-1.055a6.89 6.89 0 0 0 .176-1.466c-.04-1.193-.294-2.369-.748-3.473-.528-1.216-1.262-2.332-2.17-3.298a3.05 3.05 0 0 0-1.906-.865h-.132c-.195-.061-.397-.096-.601-.102h-.601c-.394.109-.73.366-.938.718a10 10 0 0 0-2.141 4.192c-.261 1.086-.286 2.215-.073 3.312a7.96 7.96 0 0 0 1.613 3.415c.502.615 1.095 1.148 1.759 1.583.61.365 1.289.599 1.994.689a2.61 2.61 0 0 0 1.552-.244c.48-.238.875-.619 1.131-1.09h0z"/></g><g style="mix-blend-mode:multiply" class="G C"><path d="M666.692 597.993a2.04 2.04 0 0 0-1.274 1.137c-.118.269-.177.561-.172.856a2.07 2.07 0 0 0 .199.85c1.291 2.653 2.933 4.397 6.129 4.485 3.929 0 5.629-5.438 3.826-7.68-1.231-1.554-5.908-.469-8.708.352z"/></g><g style="mix-blend-mode:multiply" class="G C"><path d="M585.192 455.866c-.242.39-.396.828-.452 1.284s-.013.917.126 1.354a3.17 3.17 0 0 0 .681 1.178c.309.339.688.608 1.111.786 4.193 1.832 7.99 2.257 11.728-.85 4.692-3.884 1.188-12.077-3.181-12.912-3.035-.587-7.477 5.379-10.013 9.16z"/></g><g style="mix-blend-mode:multiply" class="G C"><path d="M339.43 478.188c-.806 1.114-5.732-.865-6.553-1.993-5.205-7.079-5.864-16.386-2.58-14.657s14.91 8.633 9.133 16.65z"/></g><g style="mix-blend-mode:multiply" class="G C"><path d="M348.447 463.312a2.08 2.08 0 0 0-.89-.206 2.1 2.1 0 0 0-.893.191 2.11 2.11 0 0 0-1.149 1.363c-.66 2.843-.425 5.291 2.17 7.328 3.24 2.565 8.224-.498 8.195-3.356.029-1.949-4.574-4.148-7.433-5.32z"/></g><g style="mix-blend-mode:multiply" class="G C"><path d="M546.326 539.512c1.876.323 9.031 1.788 10.145 2.228s.733 7.475-.85 7.328-10.703-7.826-11.099-8.955 1.246-.703 1.804-.601z"/></g><g style="mix-blend-mode:multiply" class="G C"><path d="M140.276 457.889c-.014.215-.076.424-.181.613s-.25.351-.425.477-.375.212-.587.251-.43.032-.639-.022c-6.07-1.568-16.538-5.628-14.793-7.504 1.95-2.111-.411-4.954 2.155-5.321s11.333-.366 12.565 1.1c3.679 4.367 1.29 4.015 1.905 10.406z"/></g><g style="mix-blend-mode:multiply" class="G C"><path d="M118.153 447.746l-.308-1.465-.176-.968c-.081-.367-.184-.729-.307-1.084-.198-.554-.519-1.055-.939-1.466-.144-.151-.334-.251-.54-.285a.96.96 0 0 0-.603.094c-.206 0-.44.631-.543 1.085v.117c-.063.145-.107.298-.132.455l-.088.571a6.04 6.04 0 0 0 0 1.261c.075 1.478.266 2.948.572 4.397a8.26 8.26 0 0 0 .748 2.14c.308.527.718.85 1.085.747.281-.088.521-.276.674-.528h0c.743-1.582.939-3.365.557-5.071h0z"/></g><g style="mix-blend-mode:multiply" class="G C"><path d="M121.305 473.982a4.86 4.86 0 0 0-.744 1.879c-.113.672-.085 1.36.084 2.019.69 3.635 1.598 6.098 3.285 6.156 2.111.074 3.034-7.46 2.067-10.538-.675-2.125-3.182-.645-4.692.484z"/></g><g style="mix-blend-mode:multiply" class="G C"><path d="M160.025 467.811a40.69 40.69 0 0 1 5.454 3.063c.601.587.381 10.26-.455 10.07s-5.762-10.729-5.967-12.283.718-.982.968-.85z"/></g><g style="mix-blend-mode:multiply" class="G C"><path d="M431.12 473.322c.293 3.796 1.055 18.38.733 20.769s-15.658 5.452-16.23 2.345 10.981-24.916 13.195-26.236 2.214 1.994 2.302 3.122z"/></g><g style="mix-blend-mode:multiply" opacity=".52" class="F N"><path d="M771.899 593.375l-26.918 38.635c-.528.807-26.111 12.708-26.111 12.708l-29.322-5.54 64.684-32.025 17.667-13.778z"/></g><path d="M808.477 471.432l40.743-4.265 72.469-4.002-133.033-8.5v7.24l19.821 9.527zm-553.889-9.776l-27.797 16.576 20.583 9.41 27.944 12.253-23.472-24.257 2.742-13.982zM713.709 417.7l-18.531 87.559-39.365 32.348-31.096 11.476-24.132 41.17-31.858-8.867 52.853-34.472 53.849-46.887 34.395-90.593 3.885 8.266z" class="F N"/><defs><linearGradient id="A" x1="92.472" y1="823.219" x2="85.59" y2="554.618" xlink:href="#S"><stop offset=".12" stop-color="#cfccd4"/><stop offset="1" stop-color="#2c2733"/></linearGradient><linearGradient id="B" x1="713.665" y1="158.439" x2="767.484" y2="595.124" xlink:href="#S"><stop offset=".01" stop-color="#7560e0"/><stop offset="1" stop-color="#321a70"/></linearGradient><linearGradient id="C" x1="762.955" y1="352.522" x2="778.106" y2="442.911" xlink:href="#S"><stop offset=".01" stop-color="#7560e0"/><stop offset="1" stop-color="#321a70"/></linearGradient><linearGradient id="D" x1="503.648" y1="650.492" x2="496.483" y2="278.814" xlink:href="#S"><stop offset=".17" stop-color="#cfccd4"/><stop offset="1" stop-color="#2c2733"/></linearGradient><linearGradient id="E" x1="535.638" y1="186.39" x2="590.658" y2="708.009" xlink:href="#S"><stop offset=".12" stop-color="#cfccd4"/><stop offset="1" stop-color="#2c2733"/></linearGradient><clipPath id="F"><path transform="matrix(-1 0 0 1 174.715 629.773)" d="M0 0h174.171v138.279H0z" class="I"/></clipPath><path id="G" d="M285.123 329.863a1.58 1.58 0 0 1 .996.558c.25.303.375.687.35 1.077l-5.172 72.394c-.013.565-.242 1.104-.642 1.508a2.27 2.27 0 0 1-1.513.671h-23.961c-.323-.033-.631-.149-.895-.335a1.86 1.86 0 0 1-.609-.728 1.82 1.82 0 0 1-.165-.931c.027-.319.138-.625.322-.889a1.24 1.24 0 0 1 .499-.451l8.889-5.036a1.56 1.56 0 0 0 .676-.766c.131-.323.15-.68.051-1.014l-27.786-87.461c-.07-.25-.076-.513-.017-.765s.181-.487.355-.681.394-.342.641-.43.512-.115.772-.077l47.209 23.356z"/><path id="H" d="M281.567 373.335c-4.997.106-20.715-.558-28.447-11.306 2.559 8.915 7.826 23.596 8.93 27.488.09.296.265.559.505.757a1.61 1.61 0 0 0 .842.359l16.958 2.405a1.59 1.59 0 0 0 1.226-.332 1.56 1.56 0 0 0 .408-.498c.1-.192.158-.403.17-.618l1.064-16.594c.014-.219-.02-.439-.098-.645s-.199-.393-.355-.549-.344-.279-.551-.36-.43-.117-.652-.107h0z"/><path id="I" d="M303.427 329.863c.39.059.744.259.993.561s.375.685.354 1.073l-5.159 72.395a2.22 2.22 0 0 1-.647 1.513 2.28 2.28 0 0 1-1.521.666h-23.962c-.322-.033-.631-.149-.894-.335a1.86 1.86 0 0 1-.61-.728 1.82 1.82 0 0 1-.165-.931c.027-.319.139-.625.323-.889.124-.19.296-.345.498-.452l8.889-5.035a1.57 1.57 0 0 0 .68-.765c.134-.322.156-.679.061-1.015l-24.365-76.633c-.069-.25-.075-.514-.016-.766s.181-.487.355-.682a1.59 1.59 0 0 1 .64-.435 1.62 1.62 0 0 1 .772-.084l43.774 12.542z"/><path id="J" d="M299.871 373.335c-4.997.106-20.715-.558-28.446-11.306 2.559 8.915 7.825 23.596 8.943 27.488.087.297.261.562.501.761s.534.322.846.355l16.944 2.405a1.59 1.59 0 0 0 1.226-.332c.169-.136.309-.305.408-.498a1.54 1.54 0 0 0 .171-.618l1.064-16.594a1.55 1.55 0 0 0-.094-.647c-.078-.207-.199-.395-.355-.552a1.59 1.59 0 0 0-.554-.359c-.208-.08-.431-.115-.654-.103h0z"/><path id="K" d="M352.103 155.885c1.863 2.361 4.415 4.101 7.313 4.985a15 15 0 0 0 8.889-.04c2.889-.91 5.425-2.673 7.265-5.051s2.898-5.255 3.028-8.244a14.47 14.47 0 0 0-2.301-8.47c-1.628-2.524-4.002-4.495-6.801-5.646a15.01 15.01 0 0 0-8.853-.79 14.87 14.87 0 0 0-7.718 4.35"/><path id="L" d="M177.304 249.178l-4.849 7.972c-.519.866-1.245 1.594-2.113 2.121s-1.853.84-2.87.908l-39.06 2.206a6.59 6.59 0 0 1-2.586-.386l-16.042-5.965c-1.091-.41-2.046-1.11-2.759-2.022a6.19 6.19 0 0 1-1.281-3.146l-.458-4.305a6.07 6.07 0 0 1 .633-3.428l4.983-9.725a6.01 6.01 0 0 0 .606-1.913l1.899-13.007a6.12 6.12 0 0 1 .928-2.469c.486-.748 1.13-1.383 1.887-1.862l17.806-11.373a6.36 6.36 0 0 1 3.743-.998c1.323.065 2.591.539 3.625 1.357l2.141 1.687c.784.623 1.708 1.052 2.694 1.249l9.119 1.78a6.37 6.37 0 0 1 2.711 1.249c.79.624 1.417 1.426 1.828 2.339l2.195 5.208c.617 1.371 1.711 2.478 3.084 3.122l4.27 1.979c.823.386 1.552.941 2.137 1.629s1.015 1.491 1.257 2.357l5.105 18.6a6.12 6.12 0 0 1 .185 2.482 6.15 6.15 0 0 1-.818 2.354h0z"/><path id="M" d="M129.489 257.575l-.767 2.298a5.9 5.9 0 0 0-.279 2.522c.091.851.366 1.672.807 2.409s1.036 1.371 1.746 1.862 1.52.824 2.372.98l13.065 2.364a7.43 7.43 0 0 0 4.993-.843 7.27 7.27 0 0 0 3.25-3.833l1.199-3.295a5.52 5.52 0 0 0 .301-2.54 5.54 5.54 0 0 0-.88-2.405c-.478-.724-1.119-1.328-1.874-1.766s-1.603-.696-2.477-.756l-15.273-1.076c-1.344-.094-2.681.255-3.8.994a5.99 5.99 0 0 0-2.383 3.085h0z"/><path id="N" d="M226.991 182.443c12.89.12 24.042 8.848 27.584 21.908 1.335 4.753 1.831 9.696 1.468 14.615-.256 3.188-1.764 14.814-5.253 16.222a43.88 43.88 0 0 1-32.796-.133c-6.028-2.019-11.539-5.305-16.153-9.632s-8.22-9.589-10.57-15.425c-1.535-3.88 7.435-13.751 9.967-16.222 4.942-4.917 11.098-8.48 17.86-10.337 2.573-.683 5.228-1.018 7.893-.996h0z"/><path id="O" d="M301.878 347.162l-28.406-1.422a16.3 16.3 0 0 1-8.462-3.051 15.98 15.98 0 0 1-5.492-7.046l-7.34-20.912 3.299 22.081a6.55 6.55 0 0 1-.308 2.913 6.63 6.63 0 0 1-1.548 2.499c-.698.709-1.548 1.255-2.487 1.599a6.82 6.82 0 0 1-2.943.389l-3.314-.199a1.85 1.85 0 0 1-.99-.358c-.287-.213-.505-.504-.626-.838-2.694-7.626-18.129-51.403-18.115-56.345 0-5.421 84.53-18.029 93.056 11.744-2.438 19.77-5.145 35.992-6.815 45.783-.169.931-.669 1.773-1.409 2.374s-1.673.923-2.632.908l-5.913-.133"/><path id="P" d="M259.464 272.136c30.332 7.095 40.528 45.571 18.533 69.951 29.511-12.901 60.018 10.894 55.452 43.258 17.388-27.98 56.569-27.98 71.197 0-1.347-32.364 31.503-56.159 59.734-43.258-19.57-24.38-5.563-62.856 25.456-69.951-30.332-7.094-40.528-45.57-18.546-69.95-29.511 12.914-60.018-10.894-55.452-43.246-17.402 27.981-56.569 27.981-71.196 0 1.346 32.352-31.504 56.16-59.722 43.246 19.571 24.38 5.563 62.856-25.469 69.95h.013z"/><path id="Q" d="M366.273 282.34l-.095 3.747c.135 9.605-7.946 13.684-13.468 14.322-2.315.233-4.654.039-6.897-.572a4.15 4.15 0 0 1-2.091-1.586c-.504-.738-.752-1.619-.705-2.508s.387-1.739.966-2.422a4.18 4.18 0 0 1 2.248-1.362 3.41 3.41 0 0 1 1.509.119c1.604.238 3.227.327 4.848.266a5.42 5.42 0 0 0 3.749-1.589 5.28 5.28 0 0 0 1.545-3.725v-2.551a8.6 8.6 0 0 1-2.825 2.991 8.74 8.74 0 0 1-3.91 1.353c-5.724.651-12.553-3.547-12.701-14.401-.148-10.549 6.64-16.555 12.27-17.206 1.375-.245 2.793-.028 4.028.615s2.217 1.675 2.787 2.933v.531a5.06 5.06 0 0 1 1.073-3.305c.738-.944 1.789-1.603 2.968-1.863a4.19 4.19 0 0 1 1.671.265c.533.201 1.018.508 1.425.902a4.09 4.09 0 0 1 .941 1.388 4.06 4.06 0 0 1 .3 1.643l.364 22.015zm-8.216-10.164c-.081-5.806-3.381-7.334-5.671-7.068-2.963.346-5.684 3.335-5.616 8.37s2.869 7.454 5.832 7.108c2.29-.252 5.536-2.484 5.455-8.41h0z"/><path id="R" d="M411.259 253.762c-.84-.84-1.865-1.476-2.997-1.859s-2.336-.501-3.522-.346c-4.62.438-7.771 3.985-9.361 7.426-1.589-4.078-4.647-6.098-8.674-5.712-1.711.199-3.345.815-4.755 1.791a10.31 10.31 0 0 0-3.326 3.802c-.066-1.164-.543-2.268-1.347-3.122-.396-.417-.883-.739-1.425-.942a3.83 3.83 0 0 0-1.7-.227c-1.317.252-2.499.962-3.332 2s-1.261 2.337-1.207 3.659l-.135 21.962a4.99 4.99 0 0 0 1.347 3.574c.366.381.807.683 1.295.889a3.93 3.93 0 0 0 1.547.307h.324c1.304-.233 2.481-.92 3.314-1.937a5.4 5.4 0 0 0 1.225-3.604l.08-13.286s.62-5.314 4.849-5.659c.487-.067.983-.022 1.45.13a3.22 3.22 0 0 1 1.244.747 6.97 6.97 0 0 1 1.347 4.995v12.117a4.92 4.92 0 0 0 .308 1.933c.231.618.584 1.185 1.039 1.667a3.78 3.78 0 0 0 1.42.933c.539.201 1.117.277 1.691.223a5.55 5.55 0 0 0 3.311-1.939c.833-1.017 1.269-2.295 1.228-3.601l.081-13.286c0-.651.997-5.314 4.903-5.673.486-.073.983-.034 1.45.116a3.16 3.16 0 0 1 1.243.747c1.077 1.446 1.558 3.241 1.347 5.023l-.067 12.116c-.026.652.08 1.303.311 1.914a4.94 4.94 0 0 0 1.036 1.647 3.83 3.83 0 0 0 1.443.955c.548.205 1.138.283 1.722.227 1.304-.234 2.479-.923 3.311-1.939s1.269-2.294 1.228-3.601v-12.117c.35-5.553-.835-9.619-3.246-12.05z"/><linearGradient id="S" gradientUnits="userSpaceOnUse"/></defs></svg>